<?xml version="1.0" encoding="utf-8"?>
<!-- Generator: Adobe Illustrator 16.0.0, SVG Export Plug-In . SVG Version: 6.00 Build 0)  -->
<!DOCTYPE svg PUBLIC "-//W3C//DTD SVG 1.1//EN" "http://www.w3.org/Graphics/SVG/1.1/DTD/svg11.dtd">
<svg version="1.1" id="Layer_1" xmlns="http://www.w3.org/2000/svg" xmlns:xlink="http://www.w3.org/1999/xlink" x="0px" y="0px"
	 width="24px" height="24px" viewBox="-1.065 0.123 24 24" enable-background="new -1.065 0.123 24 24" xml:space="preserve">
<circle fill="#DFDFDF" cx="10.935" cy="12.124" r="8.5"/>
<path d="M10.935,22.124c-5.515,0-10-4.486-10-10c0-5.514,4.485-10,10-10c5.517,0,10.001,4.486,10.001,10
	C20.936,17.637,16.451,22.124,10.935,22.124z M10.935,3.624c-4.687,0-8.5,3.813-8.5,8.5c0,4.688,3.813,8.5,8.5,8.5
	c4.688,0,8.501-3.813,8.501-8.5C19.436,7.437,15.623,3.624,10.935,3.624z"/>
<rect x="-1.065" y="0.123" fill="none" width="24" height="24"/>
<rect x="-1.065" y="0.124" fill="none" width="24" height="24"/>
<path d="M13.186,16.624h2.249v-2.25h-2.249 M13.186,13.249h2.249v-2.25h-2.249 M9.811,9.873h2.25v-2.25h-2.25 M13.186,9.873h2.249
	v-2.25h-2.249 M9.811,13.249h2.25v-2.25h-2.25 M6.435,13.249h2.25v-2.25h-2.25 M6.435,16.624h2.25v-2.25h-2.25 M9.811,16.624h2.25
	v-2.25h-2.25 M6.435,9.873h2.25v-2.25h-2.25V9.873z"/>
</svg>
