<?xml version="1.0" encoding="utf-8"?>
<!-- Generator: Adobe Illustrator 16.0.0, SVG Export Plug-In . SVG Version: 6.00 Build 0)  -->
<!DOCTYPE svg PUBLIC "-//W3C//DTD SVG 1.1//EN" "http://www.w3.org/Graphics/SVG/1.1/DTD/svg11.dtd">
<svg version="1.1" id="Layer_1" xmlns="http://www.w3.org/2000/svg" xmlns:xlink="http://www.w3.org/1999/xlink" x="0px" y="0px"
	 width="23.999px" height="24px" viewBox="0.813 0.5 23.999 24" enable-background="new 0.813 0.5 23.999 24" xml:space="preserve">
<circle fill="#DFDFDF" cx="12.813" cy="12.5" r="8.5"/>
<path d="M12.813,22.5c-5.514,0-9.999-4.486-9.999-10c0-5.514,4.485-10,9.999-10c5.517,0,10,4.486,10,10
	C22.813,18.014,18.328,22.5,12.813,22.5z M12.813,4c-4.687,0-8.499,3.813-8.499,8.5c0,4.688,3.813,8.5,8.499,8.5
	c4.688,0,8.5-3.813,8.5-8.5C21.313,7.813,17.5,4,12.813,4z"/>
<rect x="0.813" y="0.5" fill="none" width="23.999" height="24"/>
<path fill="#010101" d="M7.312,13.875v-2.75h6.384L10.75,7.688h3.438l4.125,4.813l-4.124,4.813h-3.438l2.945-3.438H7.312z"/>
</svg>
