<?xml version="1.0" encoding="utf-8"?>
<!-- Generator: Adobe Illustrator 16.0.0, SVG Export Plug-In . SVG Version: 6.00 Build 0)  -->
<!DOCTYPE svg PUBLIC "-//W3C//DTD SVG 1.1//EN" "http://www.w3.org/Graphics/SVG/1.1/DTD/svg11.dtd">
<svg version="1.1" id="Layer_1" xmlns="http://www.w3.org/2000/svg" xmlns:xlink="http://www.w3.org/1999/xlink" x="0px" y="0px"
	 width="24px" height="24px" viewBox="0.867 0.5 24 24" enable-background="new 0.867 0.5 24 24" xml:space="preserve">
<circle fill="#DFDFDF" cx="12.867" cy="12.5" r="8.5"/>
<path d="M12.867,22.5c-5.514,0-10-4.486-10-10c0-5.514,4.486-10,10-10c5.516,0,10,4.486,10,10
	C22.867,18.014,18.383,22.5,12.867,22.5z M12.867,4c-4.687,0-8.5,3.813-8.5,8.5c0,4.688,3.813,8.5,8.5,8.5
	c4.688,0,8.5-3.813,8.5-8.5C21.367,7.813,17.555,4,12.867,4z"/>
<path d="M15.367,12.5c0-0.688,0.563-1.25,1.25-1.25s1.25,0.563,1.25,1.25c0,0.688-0.563,1.25-1.25,1.25
	C15.933,13.75,15.367,13.186,15.367,12.5z M11.618,12.5c0-0.688,0.563-1.25,1.251-1.25c0.687,0,1.25,0.563,1.25,1.25
	c0,0.688-0.563,1.25-1.25,1.25C12.181,13.75,11.618,13.186,11.618,12.5z M7.867,12.5c0-0.688,0.563-1.25,1.25-1.25
	c0.688,0,1.25,0.563,1.25,1.25c0,0.688-0.563,1.25-1.25,1.25C8.431,13.75,7.867,13.186,7.867,12.5z"/>
<rect x="0.867" y="0.5" fill="none" width="24" height="24"/>
</svg>
