<?xml version="1.0" encoding="utf-8"?>
<!-- Generator: Adobe Illustrator 16.0.0, SVG Export Plug-In . SVG Version: 6.00 Build 0)  -->
<!DOCTYPE svg PUBLIC "-//W3C//DTD SVG 1.1//EN" "http://www.w3.org/Graphics/SVG/1.1/DTD/svg11.dtd">
<svg version="1.1" id="Layer_1" xmlns="http://www.w3.org/2000/svg" xmlns:xlink="http://www.w3.org/1999/xlink" x="0px" y="0px"
	 width="23.999px" height="24px" viewBox="0.851 0.5 23.999 24" enable-background="new 0.851 0.5 23.999 24" xml:space="preserve">
<path d="M12.851,22.5c-5.514,0-10-4.486-10-10c0-5.514,4.486-10,10-10c5.516,0,10,4.486,10,10
	C22.851,18.014,18.366,22.5,12.851,22.5z M12.851,4c-4.687,0-8.5,3.813-8.5,8.5c0,4.688,3.813,8.5,8.5,8.5
	c4.688,0,8.5-3.813,8.5-8.5C21.351,7.813,17.538,4,12.851,4z"/>
<path d="M15.35,12.5c0-0.688,0.564-1.25,1.25-1.25c0.688,0,1.25,0.563,1.25,1.25c0,0.688-0.563,1.25-1.25,1.25
	C15.916,13.75,15.35,13.186,15.35,12.5z M11.602,12.5c0-0.688,0.563-1.25,1.25-1.25c0.688,0,1.25,0.563,1.25,1.25
	c0,0.688-0.563,1.25-1.25,1.25S11.602,13.186,11.602,12.5z M7.851,12.5c0-0.688,0.563-1.25,1.25-1.25c0.688,0,1.25,0.563,1.25,1.25
	c0,0.688-0.563,1.25-1.25,1.25C8.414,13.75,7.851,13.186,7.851,12.5z"/>
<rect x="0.851" y="0.5" fill="none" width="23.999" height="24"/>
</svg>
