<?xml version="1.0" encoding="utf-8"?>
<!-- Generator: Adobe Illustrator 16.0.0, SVG Export Plug-In . SVG Version: 6.00 Build 0)  -->
<!DOCTYPE svg PUBLIC "-//W3C//DTD SVG 1.1//EN" "http://www.w3.org/Graphics/SVG/1.1/DTD/svg11.dtd">
<svg version="1.1" id="Layer_1" xmlns="http://www.w3.org/2000/svg" xmlns:xlink="http://www.w3.org/1999/xlink" x="0px" y="0px"
	 width="24px" height="24px" viewBox="0.888 0.5 24 24" enable-background="new 0.888 0.5 24 24" xml:space="preserve">
<path d="M12.888,22.5c-5.514,0-10-4.486-10-10c0-5.514,4.486-10,10-10c5.516,0,10,4.486,10,10
	C22.888,18.014,18.403,22.5,12.888,22.5z M12.888,4c-4.686,0-8.5,3.813-8.5,8.5c0,4.688,3.813,8.5,8.5,8.5
	c4.688,0,8.5-3.813,8.5-8.5C21.388,7.813,17.575,4,12.888,4z"/>
<path d="M11.83,17v-3.18h2.116V17h2.647v-4.234h1.588L12.889,8l-5.295,4.764h1.589v4.234h2.647V17z"/>
<rect x="0.888" y="0.5" fill="none" width="24" height="24"/>
</svg>
