<?xml version="1.0" encoding="utf-8"?>
<!-- Generator: Adobe Illustrator 16.0.0, SVG Export Plug-In . SVG Version: 6.00 Build 0)  -->
<!DOCTYPE svg PUBLIC "-//W3C//DTD SVG 1.1//EN" "http://www.w3.org/Graphics/SVG/1.1/DTD/svg11.dtd">
<svg version="1.1" id="Layer_1" xmlns="http://www.w3.org/2000/svg" xmlns:xlink="http://www.w3.org/1999/xlink" x="0px" y="0px"
	 width="24px" height="24px" viewBox="0.698 -0.111 24 24" enable-background="new 0.698 -0.111 24 24" xml:space="preserve">
<path fill="#FFFFFF" d="M7.698,8.556h10v1.111h-10V8.556z M7.698,11.333h10v1.11h-10V11.333z M7.698,14.111h10v1.111h-10V14.111z"/>
<rect x="0.698" y="-0.111" fill="none" width="24" height="24"/>
<path fill="#FFFFFF" d="M12.697,21.889c-5.514,0-10-4.486-10-10c0-5.514,4.486-10,10-10c5.516,0,10,4.486,10,10
	C22.697,17.402,18.213,21.889,12.697,21.889z M12.697,3.389c-4.688,0-8.5,3.813-8.5,8.5s3.813,8.5,8.5,8.5s8.5-3.813,8.5-8.5
	S17.385,3.389,12.697,3.389z"/>
</svg>
