<?xml version="1.0" encoding="utf-8"?>
<!-- Generator: Adobe Illustrator 16.0.0, SVG Export Plug-In . SVG Version: 6.00 Build 0)  -->
<!DOCTYPE svg PUBLIC "-//W3C//DTD SVG 1.1//EN" "http://www.w3.org/Graphics/SVG/1.1/DTD/svg11.dtd">
<svg version="1.1" id="Layer_1" xmlns="http://www.w3.org/2000/svg" xmlns:xlink="http://www.w3.org/1999/xlink" x="0px" y="0px"
	 width="512px" height="512px" viewBox="0 0 512 512" enable-background="new 0 0 512 512" xml:space="preserve">
<rect fill="none" width="512" height="512"/>
<path fill="#FFFFFF" d="M238.563,340.337c-11.814,10.972-32.873,33.317-18.588,29.443c23.026-13.84,37.413-58.231,49.153-87.923
	c-13.67-30.33-0.485-53.867,9.903-54.562c12.658-0.844,15.955,23.147,15.955,23.147s-14.025-10.603-16.171-17.065
	c-2.414,0.604-5.015,20.264,2.146,42.012c8.356-10.461,12.545-20.912,12.545-20.912s10.45,10.451-5.241,26.503
	c2.807,6.211,18.085,31.259,25.008,35.788c43.834-11.781,45.924,11.333,45.924,11.333c-6.768-6.18-21.742-6.814-38.383-5.029
	c20.989,11.028,38.759,7.381,38.759,7.381c0,8.636-28.432,18.111-49.426-1.774c-21.979,3.451-44.429,14.025-53.316,16.692
	c-23.735,41.478-49.694,38.187-53.232,28.283C197.324,356.931,238.563,340.337,238.563,340.337z M279.171,289.502l-15.526,42.804
	c9.114-2.61,19.188-7.624,37.248-11.168C295.043,316.872,289.761,311.59,279.171,289.502z M152.428,132h122.808l67.346,67.346
	v106.962l-21.128,1.32v-85.833h-68.666v-68.667h-79.231v179.59h55.462l-23.77,21.128h-52.82V132z M258.068,353.846v-2.641
	l47.538-15.846l36.975,18.486H258.068z M273.915,159.73v40.937h40.936L273.915,159.73z"/>
</svg>
