<?xml version="1.0" encoding="utf-8"?>
<!-- Generator: Adobe Illustrator 16.0.0, SVG Export Plug-In . SVG Version: 6.00 Build 0)  -->
<!DOCTYPE svg PUBLIC "-//W3C//DTD SVG 1.1//EN" "http://www.w3.org/Graphics/SVG/1.1/DTD/svg11.dtd">
<svg version="1.1" id="Layer_1" xmlns="http://www.w3.org/2000/svg" xmlns:xlink="http://www.w3.org/1999/xlink" x="0px" y="0px"
	 width="512px" height="512px" viewBox="121.375 2.43 512 512" enable-background="new 121.375 2.43 512 512" xml:space="preserve">
<rect x="121.375" y="2.43" fill="none" width="512" height="512"/>
<path fill="#FFFFFF" d="M270.281,211.345c9.341,0,16.912,7.574,16.912,16.909v67.637c0,9.344-7.571,16.909-16.912,16.909
	c-9.338,0-16.906-7.565-16.906-16.909v-67.637C253.375,218.919,260.943,211.345,270.281,211.345z M484.463,211.345
	c9.347,0,16.912,7.574,16.912,16.909v67.637c0,9.344-7.565,16.909-16.912,16.909c-9.326,0-16.906-7.565-16.906-16.909v-67.637
	C467.557,218.919,475.137,211.345,484.463,211.345z M298.463,211.345h157.826v118.364c0,9.346-7.576,16.909-16.905,16.909h-16.912
	v33.82c0,9.344-7.577,16.906-16.909,16.906c-9.347,0-16.912-7.563-16.912-16.906v-33.82h-22.548v33.82
	c0,9.344-7.568,16.906-16.909,16.906c-9.338,0-16.912-7.563-16.912-16.906v-33.82h-16.906c-9.338,0-16.912-7.563-16.912-16.909
	V211.345z M318.193,121.16c2.198-2.198,5.771-2.198,7.97,0l18.476,18.476c10.507-4.604,21.799-7.197,32.736-7.197
	c11.028,0,22.433,2.637,33.012,7.321l18.602-18.6c2.202-2.198,5.771-2.198,7.974,0c2.198,2.202,2.198,5.771,0,7.974l-16.095,16.092
	c20.253,12.285,35.422,32.273,35.422,54.847H298.463c0-22.658,15.297-42.724,35.673-54.996l-15.942-15.942
	C315.991,126.932,315.991,123.362,318.193,121.16z M349.193,160.615c-6.229,0-11.273,5.047-11.273,11.275
	c0,6.226,5.045,11.275,11.273,11.275c6.225,0,11.275-5.05,11.275-11.275C360.469,165.662,355.418,160.615,349.193,160.615z
	 M405.563,160.615c-6.229,0-11.275,5.047-11.275,11.275c0,6.226,5.047,11.275,11.275,11.275c6.223,0,11.262-5.05,11.262-11.275
	C416.824,165.662,411.785,160.615,405.563,160.615z"/>
</svg>
