<?xml version="1.0" encoding="utf-8"?>
<!-- Generator: Adobe Illustrator 16.0.0, SVG Export Plug-In . SVG Version: 6.00 Build 0)  -->
<!DOCTYPE svg PUBLIC "-//W3C//DTD SVG 1.1//EN" "http://www.w3.org/Graphics/SVG/1.1/DTD/svg11.dtd">
<svg version="1.1" id="Layer_1" xmlns="http://www.w3.org/2000/svg" xmlns:xlink="http://www.w3.org/1999/xlink" x="0px" y="0px"
	 width="630px" height="1386px" viewBox="0 0 630 1386" enable-background="new 0 0 630 1386" xml:space="preserve">
<rect fill-rule="evenodd" clip-rule="evenodd" fill="none" width="630" height="1386"/>
<g>
	<polygon fill-rule="evenodd" clip-rule="evenodd" fill="#2F4282" points="0,1386 630,1386 630,1268.237 619.389,1268.237 
		619.389,1253.516 611.432,1253.516 611.432,1229.429 606.127,1229.429 606.127,1253.516 598.167,1253.516 598.167,1268.237 
		583.577,1268.237 583.577,1313.733 561.032,1313.733 561.032,1276.263 542.463,1276.263 542.463,1375.292 534.504,1375.292 
		534.504,1332.47 513.282,1332.47 513.282,1236.121 476.147,1236.121 476.147,1300.354 472.168,1300.354 472.168,1222.738 
		458.907,1222.738 458.907,1257.533 429.727,1257.533 429.727,1375.292 424.422,1375.292 424.422,1293.663 401.872,1293.663 
		401.872,1244.15 275.874,1244.15 275.874,1194.637 234.758,1194.637 234.758,1147.8 217.516,1147.8 217.516,1244.15 
		210.884,1244.15 210.884,1165.196 161.81,1165.196 161.81,1299.012 131.305,1299.012 131.305,1365.924 120.694,1365.924 
		120.694,1221.4 94.168,1221.4 94.168,1273.591 63.664,1273.591 63.664,1210.696 45.095,1210.696 45.095,1189.284 33.158,1189.284 
		33.158,1155.829 26.526,1155.829 26.526,1189.284 14.589,1189.284 14.589,1210.696 0,1210.696 0,1386 	"/>
	<path fill-rule="evenodd" clip-rule="evenodd" fill="#FFFFFF" d="M402.031,1033.902c-9.325-4.974-15.854-11.391-30.066-7.414
		c-12.257,3.433-16.566,9.644-22.135,20.255c-33.313-7.829-39.498,42.364-3.819,42.364h185.884c21.107,0,22.518-29.03,1.275-30.812
		c0.436-5.274,1.271-2.867,1.271-7.702c0-17.085-14.486-32.097-31.83-32.097c-11.367,0-14.486,5.776-21.645,7.705
		c-1.141-13.852-18.781-29.528-39.467-29.528C421.566,996.673,402.031,1014.187,402.031,1033.902L402.031,1033.902z"/>
	<path fill-rule="evenodd" clip-rule="evenodd" fill="#FFFFFF" d="M159.126,1020.082c-3.952-2.109-6.719-4.828-12.743-3.144
		c-5.194,1.456-7.021,4.087-9.381,8.585c-14.118-3.317-16.74,17.955-1.619,17.955h78.78c8.945,0,9.543-12.305,0.541-13.059
		c0.185-2.236,0.539-1.215,0.539-3.264c0-7.241-6.139-13.604-13.49-13.604c-4.817,0-6.139,2.449-9.173,3.267
		c-0.483-5.871-7.96-12.516-16.727-12.516C167.406,1004.302,159.126,1011.726,159.126,1020.082L159.126,1020.082z"/>
</g>
</svg>
