<?xml version="1.0" encoding="utf-8"?>
<!-- Generator: Adobe Illustrator 16.0.0, SVG Export Plug-In . SVG Version: 6.00 Build 0)  -->
<!DOCTYPE svg PUBLIC "-//W3C//DTD SVG 1.1//EN" "http://www.w3.org/Graphics/SVG/1.1/DTD/svg11.dtd">
<svg version="1.1" id="Layer_1" xmlns="http://www.w3.org/2000/svg" xmlns:xlink="http://www.w3.org/1999/xlink" x="0px" y="0px"
	 width="512px" height="512px" viewBox="0 0 512 512" enable-background="new 0 0 512 512" xml:space="preserve">
<rect fill="none" width="512" height="512"/>
<g>
	<polygon fill="#FFFFFF" points="251.461,269.322 128,213.436 254.706,157.553 376.869,212.138 	"/>
	<g>
		<g>
			<rect x="366.583" y="210.188" fill="#FFFFFF" width="7.796" height="81.878"/>
			<path fill="#FFFFFF" d="M382.829,294.986c0-6.813-5.532-12.342-12.345-12.342c-6.825,0-12.348,5.529-12.348,12.342
				c0,6.816,5.523,12.346,12.348,12.346C377.297,307.332,382.829,301.803,382.829,294.986z"/>
			<g>
				<path fill="#FFFFFF" d="M364.887,298.888c0,0-9.775,20.468-5.88,51.659h14.035v-54.582
					C373.042,295.965,364.881,300.514,364.887,298.888z"/>
				<path fill="#FFFFFF" d="M377.252,298.888c0,0,9.727,20.468,5.823,51.659h-13.938v-54.582
					C369.138,295.965,377.252,300.514,377.252,298.888z"/>
			</g>
		</g>
	</g>
	<path fill="#FFFFFF" d="M321.642,246.742c0,0.585-60.462,28.617-72.129,34.021c-11.668-5.404-72.128-33.437-72.128-34.021v83.013
		c19.488,20.706,57.891,24.048,70.179,24.586v0.106c0,0,0.707,0,1.949-0.035c1.239,0.035,1.949,0.035,1.949,0.035v-0.106
		c12.289-0.538,50.69-3.88,70.181-24.586V246.742z"/>
</g>
</svg>
