<?xml version="1.0" encoding="utf-8"?>
<!-- Generator: Adobe Illustrator 16.0.0, SVG Export Plug-In . SVG Version: 6.00 Build 0)  -->
<!DOCTYPE svg PUBLIC "-//W3C//DTD SVG 1.1//EN" "http://www.w3.org/Graphics/SVG/1.1/DTD/svg11.dtd">
<svg version="1.1" id="Layer_1" xmlns="http://www.w3.org/2000/svg" xmlns:xlink="http://www.w3.org/1999/xlink" x="0px" y="0px"
	 width="528px" height="304px" viewBox="0 0 528 304" enable-background="new 0 0 528 304" xml:space="preserve">
<rect x="0.5" y="0.5" fill="#555555" width="528" height="304"/>
<g>
	<path fill="#FFFFFF" d="M198.717,175.158c-0.017,0.097-0.041,0.186-0.065,0.251c-0.022,0.063-0.063,0.112-0.097,0.137
		c-0.048,0.032-0.089,0.05-0.137,0.05h-5.257c-0.18,0-0.332-0.05-0.445-0.162c-0.129-0.098-0.188-0.273-0.188-0.51v-9.123
		c0-0.234,0.059-0.412,0.188-0.509c0.113-0.112,0.267-0.162,0.445-0.162h5.225c0.048,0,0.089,0.017,0.129,0.04
		s0.073,0.073,0.097,0.139c0.024,0.072,0.051,0.162,0.059,0.258c0.016,0.113,0.022,0.244,0.022,0.404
		c0,0.154-0.008,0.275-0.022,0.389c-0.008,0.099-0.032,0.188-0.059,0.252c-0.022,0.063-0.057,0.111-0.097,0.138
		c-0.041,0.031-0.081,0.049-0.129,0.049h-3.736v2.558h3.162c0.048,0,0.099,0.016,0.129,0.049c0.048,0.021,0.081,0.072,0.105,0.129
		c0.022,0.063,0.048,0.146,0.057,0.259c0.018,0.097,0.024,0.228,0.024,0.38c0,0.154-0.008,0.283-0.024,0.389
		c-0.008,0.104-0.032,0.188-0.057,0.252c-0.024,0.057-0.059,0.104-0.105,0.129c-0.031,0.023-0.081,0.039-0.129,0.039h-3.162v2.953
		h3.771c0.048,0,0.089,0.018,0.137,0.049c0.033,0.023,0.073,0.072,0.097,0.139c0.024,0.063,0.05,0.152,0.065,0.25
		c0.008,0.111,0.016,0.243,0.016,0.396C198.734,174.917,198.725,175.045,198.717,175.158z"/>
</g>
<g>
	<path fill="#FFFFFF" d="M211.111,178.199c-0.022,0.04-0.071,0.064-0.146,0.097c-0.073,0.017-0.162,0.04-0.283,0.05
		c-0.122,0.016-0.273,0.022-0.461,0.022c-0.186,0-0.332-0.009-0.445-0.022c-0.122-0.01-0.21-0.033-0.292-0.05
		c-0.063-0.032-0.121-0.057-0.146-0.097c-0.032-0.041-0.048-0.081-0.048-0.139v-2.468h-6.963v2.468c0,0.058-0.018,0.098-0.041,0.139
		c-0.032,0.04-0.081,0.064-0.162,0.097c-0.065,0.017-0.162,0.04-0.283,0.05c-0.122,0.016-0.269,0.022-0.453,0.022
		s-0.332-0.009-0.453-0.022c-0.121-0.01-0.218-0.033-0.283-0.05c-0.081-0.032-0.129-0.057-0.151-0.097
		c-0.024-0.041-0.041-0.081-0.041-0.139V174.3c-0.008-0.153,0.016-0.267,0.081-0.34c0.071-0.063,0.17-0.097,0.308-0.097h0.485
		c0.129-0.188,0.25-0.372,0.372-0.566c0.111-0.193,0.227-0.42,0.332-0.695c0.104-0.259,0.219-0.582,0.313-0.953
		c0.113-0.363,0.21-0.816,0.315-1.352c0.104-0.533,0.202-1.165,0.313-1.9c0.099-0.729,0.21-1.584,0.324-2.57
		c0.032-0.242,0.097-0.42,0.186-0.533c0.091-0.104,0.234-0.162,0.422-0.162h5.346c0.186,0,0.339,0.059,0.445,0.162
		c0.104,0.113,0.16,0.283,0.16,0.509v8.063h0.892c0.146,0,0.25,0.039,0.307,0.111c0.059,0.082,0.089,0.193,0.089,0.332v3.752
		C211.151,178.118,211.135,178.158,211.111,178.199z M205.305,166.846c-0.097,0.815-0.194,1.535-0.283,2.166
		c-0.097,0.614-0.192,1.165-0.291,1.635c-0.089,0.47-0.186,0.873-0.283,1.213c-0.097,0.341-0.192,0.632-0.299,0.883
		c-0.097,0.25-0.202,0.461-0.307,0.639c-0.105,0.18-0.218,0.342-0.332,0.485h4.238v-7.021H205.305L205.305,166.846z"/>
	<path fill="#FFFFFF" d="M222.089,175.466c-0.041,0.032-0.097,0.072-0.178,0.097c-0.081,0.025-0.194,0.049-0.324,0.064
		c-0.146,0.008-0.315,0.018-0.52,0.018c-0.201,0-0.372-0.01-0.518-0.018c-0.129-0.016-0.242-0.04-0.323-0.064
		c-0.073-0.022-0.129-0.063-0.162-0.097c-0.031-0.049-0.049-0.09-0.049-0.146v-5.516c0-0.212,0-0.422,0.008-0.615
		c0.01-0.209,0.018-0.389,0.024-0.541h-0.018c-0.039,0.072-0.098,0.162-0.152,0.268c-0.059,0.098-0.122,0.202-0.188,0.307
		l-0.218,0.34c-0.073,0.121-0.154,0.234-0.227,0.34l-3.641,5.429c-0.041,0.058-0.089,0.112-0.138,0.151
		c-0.041,0.041-0.097,0.082-0.178,0.099c-0.065,0.033-0.162,0.049-0.26,0.049c-0.112,0.019-0.242,0.019-0.412,0.019
		c-0.21,0-0.381-0.01-0.511-0.019c-0.129-0.017-0.227-0.04-0.308-0.063c-0.064-0.023-0.121-0.063-0.146-0.104
		c-0.023-0.04-0.041-0.097-0.041-0.153v-9.896c0-0.059,0.017-0.1,0.058-0.146c0.032-0.033,0.089-0.074,0.178-0.099
		c0.081-0.024,0.188-0.048,0.323-0.063c0.138-0.009,0.307-0.018,0.51-0.018c0.21,0,0.38,0.009,0.52,0.018
		c0.137,0.018,0.24,0.039,0.321,0.063s0.14,0.063,0.17,0.099c0.032,0.047,0.05,0.088,0.05,0.146v5.548c0,0.169,0,0.354-0.01,0.55
		c-0.008,0.193-0.016,0.381-0.022,0.565h0.016c0.089-0.161,0.21-0.354,0.35-0.582c0.138-0.228,0.281-0.444,0.437-0.663l3.639-5.428
		c0.041-0.057,0.081-0.104,0.121-0.137c0.041-0.05,0.099-0.082,0.18-0.104c0.063-0.024,0.16-0.05,0.267-0.058
		c0.104-0.008,0.243-0.018,0.413-0.018c0.202,0,0.372,0.01,0.501,0.018c0.121,0.018,0.227,0.039,0.299,0.063
		s0.129,0.063,0.153,0.099c0.033,0.047,0.049,0.096,0.049,0.152v9.906C222.138,175.376,222.122,175.417,222.089,175.466z"/>
	<path fill="#FFFFFF" d="M233.505,175.449c-0.032,0.04-0.089,0.08-0.169,0.105c-0.081,0.021-0.188,0.047-0.324,0.063
		s-0.307,0.023-0.509,0.023c-0.21,0-0.39-0.01-0.52-0.023c-0.146-0.018-0.251-0.041-0.322-0.063
		c-0.081-0.025-0.139-0.065-0.18-0.105c-0.03-0.04-0.049-0.09-0.049-0.146v-4.229h-3.914v4.229c0,0.057-0.016,0.105-0.048,0.146
		s-0.089,0.08-0.17,0.105c-0.081,0.021-0.187,0.047-0.323,0.063c-0.138,0.016-0.308,0.023-0.518,0.023
		c-0.203,0-0.38-0.01-0.51-0.023c-0.146-0.018-0.25-0.041-0.332-0.063c-0.081-0.025-0.14-0.065-0.171-0.105
		c-0.04-0.04-0.058-0.09-0.058-0.146v-9.883c0-0.057,0.018-0.104,0.058-0.146c0.031-0.039,0.09-0.08,0.171-0.104
		c0.081-0.021,0.186-0.048,0.332-0.063c0.129-0.018,0.307-0.024,0.51-0.024c0.21,0,0.38,0.009,0.518,0.024
		c0.139,0.017,0.242,0.041,0.323,0.063c0.081,0.023,0.138,0.064,0.17,0.104c0.032,0.041,0.048,0.091,0.048,0.146v3.842h3.914v-3.842
		c0-0.057,0.019-0.104,0.049-0.146c0.041-0.039,0.099-0.08,0.18-0.104c0.071-0.021,0.178-0.048,0.322-0.063
		c0.129-0.018,0.309-0.024,0.52-0.024c0.202,0,0.372,0.009,0.509,0.024c0.138,0.017,0.243,0.041,0.324,0.063
		c0.081,0.023,0.137,0.064,0.169,0.104c0.041,0.041,0.057,0.091,0.057,0.146v9.883C233.562,175.359,233.545,175.409,233.505,175.449
		z"/>
	<path fill="#FFFFFF" d="M244.12,173.508c-0.146,0.405-0.39,0.77-0.722,1.076s-0.76,0.55-1.286,0.734
		c-0.532,0.188-1.262,0.274-2.176,0.274h-2.466c-0.089,0-0.178-0.017-0.259-0.03c-0.073-0.033-0.146-0.064-0.202-0.131
		c-0.057-0.049-0.105-0.121-0.138-0.209c-0.041-0.082-0.059-0.18-0.059-0.301v-9.52c0-0.057,0.018-0.098,0.059-0.146
		c0.031-0.032,0.089-0.071,0.178-0.098c0.081-0.024,0.194-0.05,0.323-0.064c0.146-0.008,0.308-0.017,0.51-0.017
		c0.21,0,0.38,0.009,0.518,0.017c0.139,0.019,0.242,0.04,0.323,0.064c0.081,0.022,0.138,0.063,0.17,0.098
		c0.032,0.05,0.048,0.091,0.048,0.146v3.613h1.318c0.785,0,1.407,0.065,1.868,0.202c0.469,0.138,0.865,0.332,1.197,0.599
		c0.322,0.269,0.572,0.593,0.76,0.988c0.178,0.396,0.267,0.84,0.267,1.334C244.353,172.633,244.281,173.088,244.12,173.508z
		 M242.058,171.624c-0.073-0.202-0.194-0.38-0.348-0.524c-0.154-0.146-0.356-0.26-0.601-0.341c-0.241-0.081-0.599-0.12-1.074-0.12
		h-1.094v3.322h1.124c0.494,0,0.866-0.048,1.125-0.146c0.242-0.104,0.445-0.232,0.582-0.388c0.14-0.161,0.243-0.34,0.31-0.534
		c0.056-0.192,0.089-0.388,0.089-0.574C242.171,172.061,242.13,171.826,242.058,171.624z M247.71,175.466
		c-0.041,0.032-0.099,0.072-0.178,0.097c-0.081,0.024-0.194,0.049-0.324,0.064c-0.146,0.008-0.315,0.018-0.52,0.018
		s-0.372-0.01-0.509-0.018c-0.138-0.016-0.243-0.04-0.332-0.064c-0.081-0.022-0.138-0.063-0.178-0.097
		c-0.032-0.049-0.048-0.09-0.048-0.146v-9.914c0-0.057,0.016-0.098,0.048-0.146c0.041-0.033,0.097-0.072,0.178-0.098
		c0.089-0.023,0.194-0.048,0.339-0.064c0.129-0.008,0.299-0.017,0.501-0.017s0.372,0.009,0.52,0.017
		c0.129,0.019,0.243,0.041,0.324,0.064c0.079,0.023,0.137,0.064,0.178,0.098c0.032,0.049,0.048,0.09,0.048,0.146v9.914
		C247.759,175.376,247.743,175.417,247.71,175.466z"/>
</g>
<g>
	<path fill="#FFFFFF" d="M259.489,175.466c-0.039,0.032-0.097,0.072-0.178,0.097c-0.081,0.025-0.192,0.049-0.324,0.064
		c-0.146,0.008-0.313,0.018-0.518,0.018s-0.372-0.01-0.518-0.018c-0.131-0.016-0.243-0.04-0.323-0.064
		c-0.073-0.022-0.129-0.063-0.162-0.097c-0.033-0.049-0.049-0.09-0.049-0.146v-5.516c0-0.212,0-0.422,0.008-0.615
		c0.008-0.209,0.016-0.389,0.022-0.541h-0.016c-0.04,0.072-0.097,0.162-0.153,0.268c-0.057,0.098-0.122,0.202-0.186,0.307
		l-0.218,0.34c-0.073,0.121-0.154,0.234-0.229,0.34l-3.639,5.429c-0.041,0.058-0.089,0.112-0.138,0.151
		c-0.041,0.041-0.099,0.082-0.18,0.099c-0.063,0.033-0.162,0.049-0.259,0.049c-0.113,0.019-0.243,0.019-0.413,0.019
		c-0.21,0-0.38-0.01-0.509-0.019c-0.129-0.017-0.227-0.04-0.308-0.063c-0.064-0.023-0.121-0.063-0.146-0.104
		c-0.022-0.04-0.041-0.097-0.041-0.153v-9.896c0-0.059,0.018-0.1,0.058-0.146c0.032-0.033,0.09-0.074,0.179-0.099
		c0.081-0.024,0.186-0.048,0.323-0.063c0.138-0.009,0.308-0.018,0.51-0.018c0.21,0,0.38,0.009,0.518,0.018
		c0.138,0.018,0.242,0.039,0.323,0.063s0.138,0.063,0.17,0.099c0.032,0.047,0.048,0.088,0.048,0.146v5.548
		c0,0.169,0,0.354-0.008,0.55c-0.008,0.193-0.016,0.381-0.024,0.565h0.018c0.089-0.161,0.21-0.354,0.348-0.582
		c0.14-0.228,0.283-0.444,0.438-0.663l3.639-5.428c0.041-0.057,0.081-0.104,0.121-0.137c0.041-0.05,0.097-0.082,0.178-0.104
		c0.064-0.024,0.162-0.05,0.269-0.058c0.104-0.008,0.241-0.018,0.413-0.018c0.2,0,0.37,0.01,0.501,0.018
		c0.119,0.018,0.226,0.039,0.299,0.063c0.071,0.024,0.129,0.063,0.151,0.099c0.032,0.047,0.051,0.096,0.051,0.152v9.906
		C259.538,175.376,259.521,175.417,259.489,175.466z M258.147,163.173c-0.104,0.275-0.267,0.519-0.501,0.728
		c-0.227,0.203-0.524,0.373-0.906,0.494c-0.37,0.121-0.831,0.188-1.375,0.188c-0.523,0-0.979-0.059-1.351-0.17
		c-0.372-0.113-0.671-0.268-0.914-0.461c-0.227-0.202-0.404-0.438-0.51-0.712c-0.105-0.283-0.162-0.582-0.162-0.914
		c0-0.08,0.016-0.146,0.041-0.202c0.032-0.048,0.081-0.089,0.154-0.121c0.071-0.032,0.169-0.059,0.281-0.072
		c0.131-0.009,0.275-0.017,0.463-0.017c0.17,0,0.313,0.008,0.429,0.022c0.114,0.018,0.202,0.041,0.259,0.073s0.097,0.072,0.129,0.13
		c0.018,0.049,0.033,0.104,0.033,0.178c0,0.129,0.024,0.25,0.081,0.363c0.048,0.113,0.122,0.211,0.227,0.299
		c0.099,0.082,0.22,0.146,0.364,0.203c0.146,0.055,0.308,0.08,0.485,0.08c0.17,0,0.332-0.022,0.469-0.072
		c0.137-0.057,0.259-0.121,0.364-0.211c0.097-0.08,0.17-0.178,0.227-0.291c0.048-0.121,0.073-0.25,0.073-0.388
		c0-0.065,0.008-0.122,0.032-0.17c0.022-0.049,0.063-0.089,0.121-0.121c0.063-0.032,0.146-0.057,0.259-0.073
		c0.097-0.017,0.233-0.022,0.396-0.022c0.194,0,0.356,0.008,0.479,0.017c0.129,0.018,0.232,0.04,0.308,0.072
		c0.073,0.032,0.129,0.073,0.162,0.121c0.024,0.057,0.041,0.122,0.041,0.202C258.301,162.623,258.252,162.906,258.147,163.173z"/>
</g>
<g>
	<path fill="#FFFFFF" d="M198.441,184.488c-0.016,0.104-0.04,0.193-0.063,0.259c-0.024,0.073-0.064,0.121-0.099,0.146
		c-0.048,0.032-0.089,0.049-0.146,0.049h-3.469v8.442c0,0.058-0.018,0.099-0.059,0.146c-0.03,0.033-0.089,0.072-0.17,0.099
		s-0.186,0.049-0.322,0.063c-0.139,0.009-0.309,0.018-0.519,0.018c-0.202,0-0.38-0.009-0.51-0.018
		c-0.146-0.017-0.25-0.041-0.332-0.063s-0.137-0.063-0.17-0.099c-0.041-0.049-0.059-0.09-0.059-0.146v-9.519
		c0-0.227,0.059-0.396,0.17-0.51c0.122-0.104,0.275-0.162,0.463-0.162h4.974c0.104,0,0.186,0.063,0.243,0.203
		c0.057,0.138,0.081,0.362,0.081,0.68C198.458,184.236,198.45,184.375,198.441,184.488z"/>
	<path fill="#FFFFFF" d="M209.289,190.635c-0.221,0.688-0.534,1.262-0.962,1.747c-0.431,0.47-0.955,0.841-1.585,1.083
		c-0.623,0.26-1.353,0.38-2.177,0.38c-0.815,0-1.526-0.104-2.127-0.313c-0.613-0.22-1.114-0.544-1.521-0.979
		c-0.404-0.437-0.711-0.992-0.906-1.664c-0.21-0.673-0.307-1.474-0.307-2.396c0-0.851,0.104-1.609,0.322-2.288
		c0.22-0.672,0.534-1.246,0.964-1.725c0.429-0.478,0.953-0.84,1.575-1.092c0.633-0.25,1.359-0.38,2.192-0.38
		c0.792,0,1.496,0.104,2.094,0.315c0.615,0.21,1.116,0.533,1.521,0.97c0.413,0.438,0.72,0.987,0.922,1.649
		c0.21,0.672,0.313,1.455,0.313,2.361C209.612,189.171,209.507,189.947,209.289,190.635z M207.251,186.914
		c-0.089-0.443-0.234-0.833-0.445-1.146c-0.202-0.324-0.477-0.574-0.825-0.744c-0.348-0.18-0.774-0.269-1.294-0.269
		c-0.524,0-0.962,0.099-1.311,0.3c-0.35,0.194-0.631,0.452-0.851,0.784c-0.218,0.332-0.362,0.712-0.461,1.156
		c-0.081,0.437-0.129,0.897-0.129,1.392c0,0.574,0.041,1.084,0.129,1.536c0.089,0.461,0.235,0.851,0.438,1.173
		c0.202,0.323,0.477,0.574,0.825,0.735c0.348,0.179,0.774,0.259,1.302,0.259c0.523,0,0.962-0.097,1.31-0.291
		c0.35-0.193,0.631-0.461,0.851-0.792c0.218-0.332,0.372-0.729,0.453-1.165c0.097-0.451,0.138-0.922,0.138-1.423
		C207.38,187.869,207.34,187.367,207.251,186.914z"/>
</g>
<g>
	<path fill="#FFFFFF" d="M219.587,192.414c0,0.097-0.019,0.178-0.033,0.242c-0.016,0.072-0.04,0.13-0.063,0.178
		c-0.024,0.049-0.073,0.105-0.131,0.162c-0.057,0.064-0.178,0.146-0.34,0.242c-0.178,0.098-0.38,0.193-0.631,0.275
		c-0.242,0.096-0.518,0.17-0.841,0.227c-0.308,0.057-0.655,0.089-1.021,0.089c-0.72,0-1.365-0.113-1.939-0.332
		c-0.574-0.218-1.067-0.55-1.472-0.985c-0.404-0.445-0.714-0.996-0.932-1.65c-0.218-0.653-0.324-1.424-0.324-2.297
		c0-0.89,0.122-1.683,0.356-2.369c0.235-0.688,0.566-1.271,0.995-1.737c0.429-0.469,0.938-0.825,1.537-1.065
		c0.59-0.244,1.246-0.365,1.965-0.365c0.291,0,0.574,0.023,0.841,0.074c0.269,0.047,0.52,0.111,0.752,0.191
		c0.228,0.073,0.429,0.162,0.615,0.27c0.186,0.104,0.307,0.186,0.388,0.267c0.065,0.063,0.122,0.129,0.146,0.178
		c0.022,0.05,0.048,0.113,0.063,0.187c0.018,0.072,0.032,0.162,0.032,0.269c0.016,0.104,0.016,0.228,0.016,0.38
		c0,0.162-0.008,0.301-0.016,0.413s-0.032,0.202-0.057,0.272c-0.024,0.074-0.058,0.121-0.099,0.154
		c-0.041,0.032-0.081,0.049-0.129,0.049c-0.081,0-0.186-0.049-0.308-0.139c-0.121-0.097-0.283-0.201-0.479-0.322
		c-0.201-0.112-0.437-0.22-0.711-0.309c-0.267-0.098-0.59-0.146-0.971-0.146c-0.413,0-0.784,0.082-1.116,0.261
		c-0.322,0.161-0.598,0.403-0.825,0.729c-0.232,0.307-0.402,0.694-0.523,1.141c-0.122,0.445-0.178,0.953-0.178,1.513
		c0,0.614,0.063,1.147,0.186,1.603c0.129,0.443,0.307,0.815,0.55,1.106c0.229,0.291,0.52,0.51,0.841,0.655
		c0.342,0.138,0.712,0.209,1.124,0.209c0.381,0,0.704-0.047,0.979-0.129c0.274-0.098,0.51-0.193,0.712-0.299
		c0.194-0.104,0.354-0.203,0.485-0.291c0.121-0.09,0.219-0.129,0.292-0.129c0.057,0,0.097,0.008,0.129,0.03
		c0.031,0.022,0.057,0.063,0.081,0.129c0.022,0.065,0.041,0.154,0.049,0.269c0.008,0.121,0.016,0.273,0.016,0.47
		C219.603,192.212,219.603,192.325,219.587,192.414z"/>
	<path fill="#FFFFFF" d="M226.385,192.27c-0.234,0.396-0.477,0.703-0.744,0.938c-0.259,0.228-0.542,0.39-0.855,0.47
		c-0.309,0.098-0.663,0.139-1.061,0.139c-0.146,0-0.291-0.008-0.429-0.024c-0.138-0.022-0.275-0.048-0.396-0.08
		s-0.232-0.073-0.321-0.112c-0.091-0.041-0.162-0.082-0.202-0.121c-0.041-0.041-0.081-0.082-0.099-0.123
		c-0.03-0.047-0.048-0.111-0.063-0.186c-0.019-0.072-0.033-0.17-0.033-0.283c-0.016-0.121-0.016-0.267-0.016-0.437
		c0-0.315,0.022-0.534,0.063-0.663c0.048-0.139,0.121-0.202,0.218-0.202c0.05,0,0.105,0.017,0.162,0.058
		c0.059,0.039,0.129,0.08,0.22,0.121c0.081,0.039,0.178,0.08,0.292,0.12c0.104,0.032,0.232,0.05,0.388,0.05
		c0.113,0,0.218-0.018,0.314-0.033c0.098-0.03,0.187-0.071,0.274-0.146c0.088-0.073,0.169-0.17,0.259-0.291
		c0.089-0.13,0.18-0.3,0.275-0.502l-3.445-7.012c-0.073-0.171-0.121-0.3-0.137-0.412c-0.008-0.099,0.016-0.187,0.081-0.243
		c0.063-0.057,0.178-0.098,0.324-0.111c0.162-0.023,0.362-0.033,0.623-0.033c0.251,0,0.451,0.01,0.604,0.018
		c0.154,0.008,0.275,0.032,0.364,0.063c0.089,0.041,0.162,0.09,0.21,0.162c0.049,0.064,0.097,0.153,0.146,0.26l1.474,3.171
		c0.162,0.34,0.313,0.68,0.461,1.02c0.146,0.331,0.283,0.673,0.42,1.021h0.022c0.105-0.364,0.22-0.713,0.35-1.053
		c0.113-0.349,0.25-0.703,0.396-1.082l1.205-3.221c0.024-0.072,0.065-0.138,0.105-0.178c0.04-0.05,0.104-0.091,0.192-0.113
		c0.091-0.023,0.202-0.049,0.356-0.049c0.154-0.018,0.348-0.018,0.59-0.018c0.25,0,0.445,0.01,0.59,0.023
		c0.146,0.018,0.25,0.049,0.315,0.09c0.063,0.049,0.097,0.112,0.089,0.193s-0.032,0.188-0.081,0.314l-2.806,7.004
		C226.846,191.379,226.611,191.872,226.385,192.27z"/>
</g>
<g>
	<path fill="#FFFFFF" d="M240.525,196.264c-0.022,0.041-0.071,0.064-0.146,0.098c-0.073,0.017-0.162,0.039-0.283,0.05
		c-0.122,0.016-0.275,0.022-0.461,0.022s-0.332-0.009-0.445-0.022c-0.122-0.011-0.21-0.033-0.291-0.05
		c-0.063-0.031-0.122-0.057-0.146-0.098c-0.032-0.041-0.048-0.08-0.048-0.138v-2.467h-6.963v2.467c0,0.058-0.018,0.097-0.041,0.138
		c-0.032,0.041-0.081,0.064-0.162,0.098c-0.065,0.017-0.162,0.039-0.283,0.05c-0.121,0.016-0.269,0.022-0.453,0.022
		s-0.332-0.009-0.453-0.022c-0.122-0.011-0.218-0.033-0.283-0.05c-0.081-0.031-0.129-0.057-0.151-0.098
		c-0.024-0.041-0.041-0.08-0.041-0.138v-3.761c-0.01-0.153,0.016-0.268,0.081-0.34c0.071-0.064,0.17-0.099,0.308-0.099h0.485
		c0.13-0.187,0.251-0.37,0.372-0.565c0.111-0.193,0.227-0.42,0.332-0.694c0.104-0.259,0.219-0.582,0.313-0.954
		c0.113-0.363,0.21-0.816,0.315-1.352c0.104-0.533,0.2-1.164,0.313-1.899c0.099-0.729,0.21-1.585,0.324-2.571
		c0.032-0.242,0.097-0.42,0.186-0.533c0.091-0.104,0.234-0.162,0.422-0.162h5.346c0.186,0,0.339,0.058,0.445,0.162
		c0.104,0.113,0.16,0.283,0.16,0.51v8.063h0.892c0.146,0,0.25,0.039,0.307,0.112c0.059,0.081,0.089,0.192,0.089,0.331v3.753
		C240.565,196.184,240.549,196.223,240.525,196.264z M234.718,184.909c-0.097,0.815-0.194,1.536-0.283,2.167
		c-0.097,0.613-0.192,1.165-0.291,1.634c-0.089,0.47-0.186,0.873-0.283,1.213c-0.097,0.341-0.192,0.632-0.299,0.882
		c-0.097,0.25-0.202,0.461-0.307,0.639c-0.105,0.18-0.218,0.342-0.332,0.486h4.238v-7.021H234.718z"/>
	<path fill="#FFFFFF" d="M251.729,193.327c0.018,0.112-0.008,0.202-0.063,0.251c-0.059,0.064-0.162,0.098-0.315,0.113
		c-0.154,0.008-0.354,0.017-0.623,0.017c-0.273,0-0.483,0-0.646-0.017c-0.146,0-0.269-0.018-0.35-0.049
		c-0.081-0.018-0.137-0.059-0.17-0.099c-0.032-0.04-0.057-0.097-0.081-0.17l-0.704-2.104h-3.931l-0.663,2.047
		c-0.022,0.072-0.048,0.139-0.089,0.193c-0.032,0.049-0.089,0.09-0.162,0.113c-0.081,0.031-0.194,0.057-0.34,0.064
		c-0.137,0.008-0.323,0.017-0.558,0.017c-0.25,0-0.445-0.009-0.582-0.024c-0.14-0.017-0.235-0.057-0.291-0.121
		c-0.059-0.057-0.073-0.146-0.059-0.259c0.018-0.112,0.059-0.268,0.121-0.452l3.229-9.285c0.03-0.088,0.071-0.162,0.111-0.227
		c0.041-0.049,0.113-0.098,0.21-0.129c0.091-0.023,0.22-0.049,0.39-0.049c0.17-0.018,0.388-0.018,0.663-0.018
		c0.313,0,0.572,0,0.76,0.018c0.186,0,0.34,0.023,0.437,0.049c0.113,0.031,0.188,0.08,0.229,0.137
		c0.049,0.057,0.089,0.139,0.122,0.243l3.233,9.274C251.673,193.061,251.713,193.215,251.729,193.327z M246.796,185.191l-1.48,4.447
		h2.97l-1.48-4.447H246.796z"/>
	<path fill="#FFFFFF" d="M260.938,187.934c-0.186,0.453-0.453,0.834-0.801,1.148c-0.348,0.309-0.776,0.542-1.294,0.703
		c-0.501,0.162-1.108,0.242-1.795,0.242h-0.874v3.341c0,0.057-0.016,0.104-0.048,0.146c-0.041,0.041-0.099,0.082-0.18,0.105
		c-0.079,0.023-0.186,0.048-0.321,0.064c-0.14,0.016-0.309,0.022-0.52,0.022c-0.202,0-0.372-0.009-0.518-0.022
		c-0.129-0.019-0.243-0.041-0.323-0.064c-0.081-0.023-0.138-0.064-0.17-0.105c-0.033-0.039-0.049-0.089-0.049-0.146v-9.414
		c0-0.25,0.063-0.444,0.202-0.565c0.129-0.13,0.299-0.193,0.518-0.193h2.467c0.25,0,0.485,0.009,0.704,0.031
		c0.229,0.019,0.493,0.059,0.811,0.113c0.313,0.064,0.631,0.178,0.955,0.348c0.313,0.17,0.59,0.381,0.814,0.641
		c0.229,0.251,0.396,0.551,0.52,0.89c0.122,0.349,0.178,0.729,0.178,1.157C261.212,186.963,261.123,187.48,260.938,187.934z
		 M258.794,185.62c-0.129-0.234-0.291-0.412-0.479-0.524c-0.186-0.113-0.388-0.187-0.59-0.219c-0.21-0.023-0.429-0.041-0.646-0.041
		h-0.906v3.551h0.955c0.339,0,0.623-0.049,0.855-0.138c0.229-0.089,0.413-0.22,0.56-0.38c0.146-0.17,0.259-0.364,0.332-0.6
		c0.072-0.228,0.111-0.479,0.111-0.744C258.988,186.162,258.924,185.855,258.794,185.62z"/>
	<path fill="#FFFFFF" d="M271.06,192.414c0,0.097-0.017,0.178-0.032,0.242c-0.017,0.072-0.041,0.13-0.063,0.178
		c-0.023,0.049-0.072,0.105-0.129,0.162c-0.059,0.064-0.18,0.146-0.34,0.242c-0.18,0.098-0.382,0.193-0.633,0.275
		c-0.24,0.096-0.518,0.17-0.841,0.227c-0.308,0.057-0.653,0.089-1.019,0.089c-0.722,0-1.367-0.113-1.941-0.332
		c-0.574-0.218-1.065-0.55-1.472-0.985c-0.404-0.445-0.712-0.996-0.93-1.65c-0.22-0.653-0.324-1.424-0.324-2.297
		c0-0.89,0.122-1.683,0.354-2.369c0.235-0.688,0.566-1.271,0.995-1.737c0.429-0.469,0.938-0.825,1.537-1.065
		c0.59-0.244,1.246-0.365,1.965-0.365c0.291,0,0.574,0.023,0.841,0.074c0.269,0.047,0.52,0.111,0.752,0.191
		c0.228,0.073,0.431,0.162,0.615,0.27c0.188,0.104,0.309,0.186,0.39,0.267c0.063,0.063,0.119,0.129,0.146,0.178
		c0.025,0.05,0.049,0.113,0.065,0.187c0.016,0.072,0.03,0.162,0.03,0.269c0.018,0.104,0.018,0.228,0.018,0.38
		c0,0.162-0.008,0.301-0.018,0.413c-0.009,0.112-0.03,0.202-0.057,0.272c-0.024,0.074-0.057,0.121-0.098,0.154
		c-0.04,0.032-0.081,0.049-0.129,0.049c-0.081,0-0.188-0.049-0.31-0.139c-0.121-0.097-0.283-0.201-0.477-0.322
		c-0.202-0.112-0.438-0.22-0.711-0.309c-0.269-0.098-0.592-0.146-0.973-0.146c-0.413,0-0.782,0.082-1.114,0.261
		c-0.323,0.161-0.6,0.403-0.825,0.729c-0.234,0.307-0.404,0.694-0.525,1.141c-0.122,0.445-0.178,0.953-0.178,1.513
		c0,0.614,0.063,1.147,0.186,1.603c0.129,0.443,0.309,0.815,0.552,1.106c0.227,0.291,0.518,0.51,0.841,0.655
		c0.34,0.138,0.711,0.209,1.124,0.209c0.38,0,0.704-0.047,0.979-0.129c0.275-0.098,0.511-0.193,0.712-0.299
		c0.194-0.104,0.355-0.203,0.485-0.291c0.122-0.09,0.219-0.129,0.292-0.129c0.057,0,0.097,0.008,0.129,0.03s0.057,0.063,0.081,0.129
		c0.023,0.065,0.041,0.154,0.049,0.269c0.008,0.121,0.017,0.273,0.017,0.47C271.075,192.212,271.075,192.325,271.06,192.414z"/>
	<path fill="#FFFFFF" d="M280.525,184.473c-0.016,0.104-0.04,0.193-0.063,0.26c-0.024,0.072-0.064,0.121-0.099,0.152
		c-0.049,0.032-0.089,0.049-0.138,0.049h-2.62v8.437c0,0.057-0.017,0.104-0.057,0.146c-0.032,0.039-0.089,0.08-0.17,0.104
		c-0.081,0.022-0.188,0.048-0.332,0.063c-0.129,0.017-0.309,0.023-0.509,0.023c-0.202,0-0.383-0.009-0.512-0.023
		c-0.146-0.018-0.251-0.041-0.332-0.063c-0.078-0.024-0.137-0.065-0.17-0.104c-0.04-0.041-0.057-0.09-0.057-0.146v-8.437h-2.62
		c-0.057,0-0.097-0.017-0.137-0.049c-0.041-0.031-0.073-0.08-0.1-0.152c-0.022-0.064-0.048-0.153-0.063-0.26
		c-0.008-0.113-0.017-0.25-0.017-0.404c0-0.16,0.009-0.299,0.017-0.411c0.017-0.113,0.04-0.202,0.063-0.269
		c0.024-0.072,0.059-0.121,0.1-0.146c0.04-0.032,0.08-0.05,0.137-0.05h7.376c0.049,0,0.089,0.018,0.138,0.05
		c0.032,0.024,0.072,0.071,0.099,0.146c0.022,0.064,0.049,0.153,0.063,0.269c0.009,0.112,0.019,0.251,0.019,0.411
		C280.542,184.223,280.534,184.359,280.525,184.473z"/>
	<path fill="#FFFFFF" d="M290.179,191.532c-0.105,0.299-0.243,0.565-0.429,0.801c-0.18,0.233-0.391,0.429-0.647,0.599
		c-0.242,0.17-0.523,0.309-0.824,0.412c-0.3,0.105-0.623,0.188-0.971,0.234c-0.34,0.057-0.72,0.081-1.141,0.081h-2.781
		c-0.179,0-0.332-0.05-0.445-0.162c-0.129-0.097-0.186-0.274-0.186-0.509v-9.123c0-0.234,0.057-0.412,0.186-0.51
		c0.113-0.112,0.269-0.162,0.445-0.162h2.628c0.639,0,1.181,0.058,1.634,0.162c0.438,0.104,0.816,0.273,1.116,0.484
		c0.307,0.227,0.541,0.501,0.703,0.833c0.162,0.331,0.243,0.729,0.243,1.183c0,0.25-0.033,0.492-0.1,0.72
		c-0.063,0.218-0.159,0.42-0.281,0.606c-0.121,0.186-0.274,0.348-0.452,0.483c-0.188,0.137-0.391,0.25-0.623,0.339
		c0.299,0.059,0.574,0.146,0.814,0.283c0.261,0.138,0.472,0.308,0.663,0.52c0.181,0.219,0.332,0.469,0.438,0.752
		c0.104,0.281,0.161,0.604,0.161,0.963C290.332,190.895,290.283,191.232,290.179,191.532z M287.485,185.548
		c-0.063-0.17-0.161-0.308-0.291-0.412c-0.129-0.112-0.291-0.202-0.483-0.259c-0.202-0.057-0.461-0.09-0.792-0.09h-1.076v2.718
		h1.188c0.309,0,0.552-0.04,0.735-0.104c0.188-0.08,0.332-0.178,0.461-0.308c0.113-0.122,0.211-0.274,0.269-0.438
		c0.057-0.178,0.09-0.354,0.09-0.539C287.583,185.902,287.55,185.718,287.485,185.548z M288.003,189.939
		c-0.081-0.188-0.202-0.35-0.355-0.479c-0.152-0.129-0.354-0.228-0.599-0.299c-0.242-0.073-0.56-0.104-0.946-0.104h-1.262v2.977
		h1.537c0.299,0,0.542-0.032,0.752-0.09c0.192-0.063,0.372-0.16,0.518-0.273c0.153-0.13,0.269-0.275,0.355-0.453
		c0.081-0.186,0.121-0.388,0.121-0.623C288.124,190.352,288.084,190.133,288.003,189.939z"/>
	<path fill="#FFFFFF" d="M299.199,193.223c-0.017,0.098-0.041,0.188-0.063,0.252c-0.024,0.063-0.065,0.111-0.1,0.137
		c-0.049,0.031-0.089,0.05-0.138,0.05h-5.256c-0.179,0-0.332-0.05-0.443-0.162c-0.131-0.099-0.188-0.272-0.188-0.509v-9.123
		c0-0.234,0.057-0.412,0.188-0.51c0.111-0.112,0.267-0.162,0.443-0.162h5.224c0.051,0,0.089,0.018,0.13,0.039
		c0.04,0.024,0.072,0.074,0.099,0.14c0.022,0.071,0.049,0.162,0.057,0.259c0.019,0.113,0.024,0.243,0.024,0.404
		c0,0.152-0.008,0.273-0.024,0.389c-0.008,0.098-0.032,0.188-0.057,0.251c-0.025,0.064-0.059,0.112-0.099,0.138
		c-0.04,0.033-0.079,0.049-0.13,0.049h-3.734v2.557h3.162c0.049,0,0.098,0.016,0.13,0.049c0.048,0.023,0.081,0.072,0.104,0.129
		c0.024,0.064,0.049,0.146,0.059,0.26c0.017,0.098,0.022,0.228,0.022,0.379c0,0.154-0.008,0.283-0.022,0.391
		c-0.01,0.104-0.032,0.188-0.059,0.251c-0.021,0.058-0.057,0.104-0.104,0.129c-0.032,0.022-0.081,0.04-0.13,0.04h-3.162v2.952h3.769
		c0.049,0,0.089,0.019,0.138,0.049c0.032,0.022,0.073,0.072,0.1,0.14c0.021,0.063,0.048,0.151,0.063,0.25
		c0.01,0.111,0.018,0.242,0.018,0.396S299.209,193.109,299.199,193.223z"/>
	<path fill="#FFFFFF" d="M310.18,193.514c-0.032,0.041-0.089,0.082-0.17,0.105s-0.188,0.048-0.323,0.064
		c-0.138,0.016-0.308,0.022-0.51,0.022c-0.21,0-0.391-0.009-0.52-0.022c-0.146-0.019-0.251-0.041-0.321-0.064
		c-0.081-0.023-0.14-0.064-0.181-0.105c-0.032-0.039-0.048-0.089-0.048-0.146v-4.229h-3.914v4.229c0,0.057-0.017,0.104-0.049,0.146
		c-0.032,0.043-0.089,0.082-0.17,0.105s-0.188,0.048-0.323,0.064c-0.138,0.016-0.308,0.022-0.518,0.022
		c-0.202,0-0.38-0.009-0.512-0.022c-0.146-0.019-0.251-0.041-0.331-0.064c-0.079-0.023-0.138-0.064-0.17-0.105
		c-0.041-0.039-0.057-0.089-0.057-0.146v-9.884c0-0.058,0.016-0.104,0.057-0.146c0.032-0.04,0.091-0.081,0.17-0.104
		c0.08-0.023,0.188-0.049,0.331-0.064c0.132-0.016,0.31-0.023,0.512-0.023c0.21,0,0.38,0.01,0.518,0.023
		c0.138,0.018,0.242,0.041,0.323,0.064c0.081,0.022,0.138,0.063,0.17,0.104c0.032,0.041,0.049,0.089,0.049,0.146v3.843h3.914v-3.843
		c0-0.058,0.016-0.104,0.048-0.146c0.041-0.04,0.1-0.081,0.181-0.104c0.07-0.023,0.178-0.049,0.321-0.064
		c0.129-0.016,0.31-0.023,0.52-0.023c0.202,0,0.372,0.01,0.51,0.023c0.137,0.018,0.242,0.041,0.323,0.064
		c0.081,0.022,0.138,0.063,0.17,0.104c0.04,0.041,0.057,0.089,0.057,0.146v9.884C310.236,193.425,310.22,193.475,310.18,193.514z"/>
	<path fill="#FFFFFF" d="M321.604,193.514c-0.032,0.041-0.089,0.082-0.17,0.105s-0.188,0.048-0.323,0.064
		c-0.138,0.016-0.308,0.022-0.51,0.022c-0.21,0-0.389-0.009-0.52-0.022c-0.146-0.019-0.251-0.041-0.321-0.064
		c-0.081-0.023-0.14-0.064-0.181-0.105c-0.03-0.039-0.048-0.089-0.048-0.146v-4.229h-3.914v4.229c0,0.057-0.017,0.104-0.049,0.146
		c-0.032,0.043-0.089,0.082-0.17,0.105s-0.186,0.048-0.323,0.064c-0.138,0.016-0.308,0.022-0.518,0.022
		c-0.202,0-0.38-0.009-0.51-0.022c-0.146-0.019-0.251-0.041-0.331-0.064c-0.081-0.023-0.14-0.064-0.17-0.105
		c-0.041-0.039-0.059-0.089-0.059-0.146v-9.884c0-0.058,0.018-0.104,0.059-0.146c0.03-0.04,0.089-0.081,0.17-0.104
		c0.08-0.023,0.186-0.049,0.331-0.064c0.13-0.016,0.308-0.023,0.51-0.023c0.21,0,0.38,0.01,0.518,0.023
		c0.14,0.018,0.242,0.041,0.323,0.064c0.081,0.022,0.138,0.063,0.17,0.104c0.032,0.041,0.049,0.089,0.049,0.146v3.843h3.914v-3.843
		c0-0.058,0.018-0.104,0.048-0.146c0.041-0.04,0.1-0.081,0.181-0.104c0.07-0.023,0.178-0.049,0.321-0.064
		c0.131-0.016,0.31-0.023,0.52-0.023c0.202,0,0.372,0.01,0.51,0.023c0.137,0.018,0.242,0.041,0.323,0.064
		c0.081,0.022,0.138,0.063,0.17,0.104c0.04,0.041,0.057,0.089,0.057,0.146v9.884C321.658,193.425,321.644,193.475,321.604,193.514z"
		/>
	<path fill="#FFFFFF" d="M332.219,191.572c-0.146,0.404-0.391,0.769-0.722,1.076c-0.332,0.308-0.761,0.55-1.284,0.733
		c-0.534,0.188-1.264,0.275-2.178,0.275h-2.467c-0.089,0-0.178-0.019-0.259-0.032c-0.072-0.032-0.146-0.063-0.202-0.13
		c-0.057-0.048-0.104-0.121-0.137-0.21c-0.041-0.081-0.059-0.18-0.059-0.301v-9.519c0-0.057,0.018-0.098,0.059-0.146
		c0.032-0.033,0.089-0.073,0.178-0.098c0.081-0.024,0.194-0.05,0.323-0.064c0.146-0.008,0.308-0.018,0.51-0.018
		c0.21,0,0.38,0.01,0.52,0.018c0.138,0.017,0.24,0.04,0.321,0.064c0.081,0.022,0.14,0.063,0.17,0.098
		c0.032,0.048,0.051,0.089,0.051,0.146v3.614h1.315c0.785,0,1.407,0.064,1.868,0.202c0.47,0.138,0.866,0.331,1.197,0.599
		c0.321,0.268,0.572,0.592,0.76,0.987c0.179,0.396,0.268,0.841,0.268,1.334S332.38,191.152,332.219,191.572z M330.156,189.688
		c-0.073-0.201-0.192-0.379-0.348-0.523s-0.356-0.26-0.599-0.34c-0.243-0.081-0.601-0.121-1.075-0.121h-1.093v3.322h1.123
		c0.493,0,0.865-0.049,1.124-0.146c0.242-0.104,0.444-0.233,0.582-0.388c0.14-0.162,0.242-0.342,0.31-0.534
		c0.057-0.192,0.089-0.39,0.089-0.574C330.27,190.125,330.229,189.891,330.156,189.688z M335.809,193.529
		c-0.04,0.033-0.097,0.072-0.178,0.098c-0.08,0.023-0.193,0.049-0.323,0.064c-0.146,0.008-0.315,0.017-0.52,0.017
		c-0.201,0-0.37-0.009-0.51-0.017c-0.137-0.018-0.242-0.041-0.331-0.064c-0.081-0.023-0.138-0.064-0.178-0.098
		c-0.033-0.049-0.049-0.09-0.049-0.146v-9.912c0-0.059,0.016-0.1,0.049-0.146c0.04-0.033,0.097-0.073,0.178-0.098
		c0.089-0.024,0.194-0.05,0.34-0.064c0.131-0.008,0.301-0.018,0.501-0.018c0.202,0,0.372,0.01,0.52,0.018
		c0.13,0.018,0.243,0.04,0.323,0.064c0.081,0.022,0.138,0.063,0.178,0.098c0.033,0.048,0.049,0.089,0.049,0.146v9.912
		C335.857,193.439,335.842,193.48,335.809,193.529z"/>
</g>
<g>
	<path fill="#FFFFFF" d="M347.602,193.529c-0.04,0.033-0.097,0.072-0.178,0.098s-0.194,0.049-0.323,0.064
		c-0.146,0.008-0.315,0.017-0.52,0.017c-0.201,0-0.37-0.009-0.518-0.017c-0.13-0.018-0.243-0.041-0.324-0.064
		c-0.071-0.023-0.129-0.064-0.161-0.098c-0.03-0.049-0.049-0.09-0.049-0.146v-5.515c0-0.211,0-0.421,0.008-0.615
		c0.011-0.21,0.019-0.388,0.024-0.542h-0.016c-0.041,0.073-0.1,0.162-0.154,0.27c-0.058,0.097-0.121,0.201-0.188,0.307l-0.219,0.34
		c-0.072,0.121-0.153,0.234-0.227,0.34l-3.641,5.428c-0.041,0.058-0.089,0.112-0.138,0.152c-0.04,0.04-0.097,0.081-0.178,0.098
		c-0.064,0.032-0.162,0.049-0.26,0.049c-0.112,0.018-0.242,0.018-0.411,0.018c-0.211,0-0.382-0.009-0.512-0.018
		c-0.13-0.017-0.227-0.041-0.308-0.063c-0.064-0.022-0.121-0.063-0.146-0.104c-0.023-0.039-0.04-0.098-0.04-0.152v-9.898
		c0-0.057,0.017-0.098,0.058-0.146c0.032-0.033,0.089-0.073,0.178-0.099c0.081-0.023,0.188-0.047,0.323-0.063
		c0.138-0.008,0.308-0.017,0.51-0.017c0.21,0,0.38,0.009,0.52,0.017c0.138,0.017,0.24,0.04,0.321,0.063s0.14,0.063,0.17,0.099
		c0.032,0.048,0.051,0.089,0.051,0.146v5.549c0,0.168,0,0.354-0.011,0.55c-0.008,0.192-0.016,0.381-0.022,0.565h0.017
		c0.089-0.162,0.21-0.354,0.35-0.582c0.138-0.228,0.281-0.445,0.437-0.664l3.641-5.427c0.039-0.057,0.08-0.104,0.12-0.137
		c0.041-0.05,0.099-0.081,0.18-0.104c0.063-0.023,0.161-0.05,0.268-0.058c0.104-0.008,0.242-0.017,0.412-0.017
		c0.202,0,0.372,0.009,0.501,0.017c0.122,0.017,0.228,0.04,0.3,0.063s0.129,0.063,0.153,0.099c0.032,0.048,0.049,0.097,0.049,0.153
		v9.906C347.65,193.439,347.634,193.48,347.602,193.529z M346.259,181.236c-0.104,0.274-0.269,0.519-0.501,0.729
		c-0.229,0.202-0.525,0.372-0.906,0.493c-0.371,0.122-0.832,0.187-1.374,0.187c-0.526,0-0.979-0.057-1.351-0.17
		c-0.372-0.113-0.674-0.267-0.914-0.461c-0.229-0.201-0.404-0.437-0.512-0.712c-0.104-0.282-0.161-0.582-0.161-0.913
		c0-0.08,0.018-0.146,0.04-0.203c0.032-0.047,0.081-0.088,0.153-0.121c0.073-0.03,0.17-0.057,0.283-0.07
		c0.13-0.01,0.274-0.018,0.461-0.018c0.17,0,0.315,0.008,0.429,0.023c0.114,0.016,0.202,0.04,0.259,0.073
		c0.059,0.032,0.099,0.071,0.132,0.129c0.016,0.049,0.03,0.104,0.03,0.178c0,0.13,0.024,0.251,0.081,0.364
		c0.048,0.113,0.121,0.21,0.228,0.299c0.098,0.081,0.219,0.146,0.364,0.202c0.145,0.056,0.308,0.081,0.483,0.081
		c0.17,0,0.331-0.024,0.469-0.072c0.14-0.057,0.261-0.122,0.364-0.211c0.097-0.081,0.17-0.178,0.229-0.291
		c0.049-0.121,0.07-0.251,0.07-0.389c0-0.064,0.01-0.121,0.032-0.17c0.024-0.049,0.065-0.088,0.122-0.121
		c0.064-0.032,0.146-0.057,0.259-0.072c0.099-0.018,0.234-0.023,0.396-0.023c0.192,0,0.354,0.008,0.478,0.018
		c0.13,0.016,0.234,0.04,0.31,0.07c0.07,0.033,0.129,0.073,0.159,0.121c0.024,0.059,0.041,0.123,0.041,0.202
		C346.411,180.688,346.364,180.971,346.259,181.236z"/>
</g>
<g>
	<path fill="#FFFFFF" d="M199.348,208.852c-0.21,0.681-0.518,1.252-0.922,1.705c-0.412,0.453-0.906,0.793-1.504,1.012
		c-0.583,0.228-1.271,0.341-2.038,0.341c-0.267,0-0.534-0.017-0.809-0.063c-0.283-0.031-0.542-0.09-0.792-0.162
		c-0.243-0.063-0.463-0.146-0.647-0.233c-0.194-0.089-0.332-0.171-0.405-0.251c-0.071-0.064-0.129-0.129-0.146-0.178
		c-0.032-0.049-0.048-0.113-0.064-0.194c-0.016-0.072-0.032-0.169-0.032-0.274c-0.017-0.113-0.017-0.251-0.017-0.421
		c0-0.267,0.024-0.452,0.073-0.573c0.048-0.121,0.121-0.179,0.21-0.179c0.063,0,0.154,0.041,0.267,0.121
		c0.113,0.089,0.269,0.179,0.461,0.274c0.194,0.098,0.438,0.187,0.736,0.268c0.291,0.081,0.647,0.121,1.076,0.121
		c0.38,0,0.728-0.064,1.035-0.178c0.307-0.129,0.572-0.309,0.8-0.56c0.219-0.251,0.396-0.559,0.526-0.93
		c0.129-0.372,0.2-0.812,0.227-1.304h-4.343c-0.059,0-0.099-0.017-0.14-0.041c-0.041-0.03-0.071-0.079-0.097-0.146
		c-0.022-0.063-0.048-0.146-0.057-0.259c-0.018-0.098-0.024-0.227-0.024-0.38c0-0.154,0.008-0.283,0.024-0.39
		c0.008-0.104,0.032-0.193,0.057-0.25c0.024-0.064,0.057-0.113,0.097-0.146c0.041-0.023,0.081-0.04,0.14-0.04h4.316
		c-0.041-0.444-0.129-0.833-0.267-1.173c-0.138-0.331-0.324-0.614-0.55-0.85c-0.228-0.234-0.501-0.404-0.816-0.525
		c-0.313-0.113-0.671-0.17-1.052-0.17c-0.348,0-0.663,0.041-0.93,0.121c-0.269,0.08-0.501,0.17-0.704,0.268
		c-0.194,0.098-0.356,0.186-0.479,0.268c-0.122,0.088-0.219,0.129-0.273,0.129c-0.032,0-0.064-0.017-0.089-0.031
		c-0.032-0.032-0.059-0.063-0.081-0.129c-0.024-0.051-0.041-0.131-0.051-0.229c-0.016-0.097-0.022-0.218-0.022-0.363
		c0-0.161,0.008-0.299,0.008-0.411c0.016-0.113,0.024-0.212,0.041-0.274c0.016-0.081,0.041-0.138,0.057-0.193
		c0.032-0.049,0.064-0.099,0.113-0.146c0.057-0.049,0.162-0.113,0.315-0.211c0.151-0.08,0.354-0.169,0.59-0.242
		c0.243-0.081,0.518-0.146,0.825-0.21c0.299-0.049,0.631-0.081,0.993-0.081c0.722,0,1.367,0.113,1.949,0.34
		c0.574,0.219,1.067,0.559,1.474,1.004c0.402,0.443,0.712,1.002,0.938,1.664c0.21,0.674,0.323,1.44,0.323,2.321
		C199.671,207.348,199.566,208.154,199.348,208.852z"/>
	<path fill="#FFFFFF" d="M210.075,211.602c-0.032,0.031-0.091,0.071-0.172,0.098c-0.089,0.023-0.2,0.049-0.34,0.063
		c-0.137,0.008-0.321,0.019-0.542,0.019c-0.233,0-0.421-0.011-0.558-0.019c-0.146-0.016-0.259-0.039-0.348-0.063
		c-0.091-0.032-0.154-0.073-0.194-0.131c-0.041-0.049-0.073-0.112-0.097-0.187l-0.843-2.329c-0.121-0.34-0.241-0.623-0.372-0.85
		c-0.129-0.234-0.273-0.42-0.429-0.564c-0.153-0.139-0.332-0.244-0.534-0.301s-0.42-0.089-0.671-0.089H204.5v4.188
		c0,0.058-0.018,0.112-0.048,0.146c-0.032,0.049-0.091,0.081-0.171,0.112c-0.08,0.023-0.187,0.05-0.322,0.063
		c-0.14,0.009-0.31,0.017-0.52,0.017c-0.201,0-0.38-0.008-0.51-0.017c-0.146-0.016-0.25-0.04-0.332-0.063
		c-0.081-0.031-0.137-0.063-0.17-0.112c-0.041-0.032-0.057-0.089-0.057-0.146v-9.892c0-0.057,0.016-0.104,0.057-0.151
		c0.033-0.033,0.089-0.074,0.17-0.1s0.188-0.048,0.332-0.063c0.129-0.008,0.309-0.019,0.51-0.019c0.21,0,0.38,0.011,0.52,0.019
		c0.137,0.017,0.242,0.039,0.322,0.063s0.139,0.063,0.171,0.1c0.03,0.047,0.048,0.097,0.048,0.151v3.933h0.477
		c0.243,0,0.453-0.033,0.641-0.1c0.186-0.064,0.348-0.17,0.501-0.309c0.146-0.137,0.273-0.322,0.402-0.54
		c0.113-0.229,0.234-0.503,0.35-0.835l0.704-2.086c0.022-0.071,0.057-0.139,0.097-0.187c0.041-0.057,0.097-0.098,0.178-0.13
		c0.089-0.023,0.194-0.048,0.34-0.064c0.129-0.008,0.315-0.017,0.551-0.017c0.211,0,0.389,0.009,0.519,0.017
		c0.146,0.019,0.25,0.033,0.323,0.064c0.081,0.018,0.138,0.049,0.162,0.098c0.022,0.032,0.041,0.09,0.041,0.146
		c0,0.072-0.01,0.152-0.041,0.259c-0.018,0.104-0.065,0.233-0.122,0.404l-0.704,1.858c-0.129,0.349-0.259,0.641-0.39,0.883
		c-0.129,0.242-0.267,0.443-0.402,0.623c-0.146,0.16-0.299,0.307-0.453,0.412c-0.162,0.104-0.34,0.192-0.534,0.267v0.009
		c0.218,0.089,0.412,0.193,0.582,0.314c0.178,0.113,0.34,0.26,0.501,0.438c0.146,0.178,0.299,0.396,0.438,0.655
		c0.138,0.259,0.281,0.573,0.429,0.954l0.855,2.166c0.091,0.22,0.139,0.373,0.153,0.462c0.017,0.081,0.024,0.146,0.024,0.202
		C210.121,211.501,210.107,211.552,210.075,211.602z"/>
	<path fill="#FFFFFF" d="M218.602,210.096c-0.202,0.396-0.483,0.736-0.855,1.004c-0.364,0.274-0.811,0.479-1.326,0.613
		c-0.509,0.139-1.083,0.202-1.707,0.202c-0.35,0-0.663-0.022-0.946-0.072c-0.292-0.049-0.542-0.112-0.76-0.178
		c-0.21-0.081-0.38-0.146-0.51-0.22c-0.129-0.071-0.22-0.129-0.275-0.17c-0.057-0.047-0.097-0.096-0.121-0.146
		c-0.022-0.048-0.049-0.111-0.063-0.21c-0.018-0.081-0.032-0.192-0.032-0.332c-0.018-0.137-0.018-0.299-0.018-0.501
		c0-0.229,0.018-0.38,0.064-0.461c0.033-0.073,0.097-0.111,0.178-0.111c0.064,0,0.153,0.03,0.275,0.096
		c0.121,0.074,0.267,0.146,0.453,0.233c0.186,0.091,0.402,0.162,0.663,0.235c0.259,0.07,0.564,0.104,0.914,0.104
		c0.291,0,0.558-0.033,0.792-0.104c0.233-0.073,0.437-0.17,0.604-0.301c0.162-0.129,0.292-0.282,0.38-0.461
		c0.089-0.187,0.139-0.389,0.139-0.605c0-0.242-0.04-0.461-0.131-0.654c-0.081-0.193-0.21-0.354-0.388-0.492
		c-0.178-0.14-0.404-0.234-0.679-0.315c-0.269-0.063-0.601-0.104-0.979-0.104h-1.106c-0.081,0-0.146-0.009-0.194-0.033
		c-0.049-0.021-0.089-0.063-0.113-0.119c-0.031-0.059-0.049-0.146-0.063-0.242c0-0.113-0.008-0.251-0.008-0.421
		c0-0.153,0.008-0.283,0.016-0.39c0.008-0.098,0.032-0.179,0.057-0.233c0.032-0.058,0.073-0.104,0.113-0.121
		c0.048-0.032,0.105-0.04,0.169-0.04h1.125c0.332,0,0.623-0.032,0.873-0.1c0.251-0.063,0.469-0.159,0.631-0.28
		c0.18-0.13,0.31-0.283,0.39-0.472c0.097-0.178,0.138-0.379,0.138-0.612c0-0.194-0.033-0.372-0.089-0.534
		c-0.064-0.161-0.162-0.299-0.291-0.402c-0.129-0.113-0.291-0.203-0.493-0.261c-0.202-0.063-0.438-0.097-0.712-0.097
		c-0.323,0-0.614,0.031-0.873,0.104s-0.485,0.146-0.671,0.228c-0.194,0.079-0.356,0.153-0.485,0.233
		c-0.137,0.064-0.232,0.104-0.299,0.104c-0.04,0-0.073-0.009-0.097-0.032c-0.024-0.023-0.05-0.057-0.073-0.121
		c-0.024-0.049-0.033-0.13-0.049-0.227c0-0.098-0.008-0.227-0.008-0.381c0-0.104,0-0.209,0.008-0.299s0.016-0.18,0.032-0.25
		c0.017-0.074,0.04-0.14,0.063-0.203c0.024-0.049,0.064-0.104,0.129-0.162c0.048-0.057,0.17-0.12,0.34-0.209
		c0.18-0.09,0.396-0.162,0.647-0.243c0.25-0.063,0.542-0.129,0.855-0.179c0.315-0.049,0.655-0.071,1.013-0.071
		c0.558,0,1.051,0.057,1.463,0.178c0.421,0.121,0.769,0.291,1.051,0.511c0.283,0.227,0.494,0.5,0.631,0.823
		c0.138,0.332,0.21,0.704,0.21,1.124c0,0.332-0.048,0.641-0.138,0.914c-0.089,0.275-0.218,0.518-0.396,0.729
		c-0.161,0.211-0.372,0.39-0.599,0.533c-0.243,0.139-0.501,0.242-0.784,0.31v0.016c0.332,0.041,0.631,0.13,0.897,0.275
		c0.273,0.138,0.51,0.321,0.704,0.541c0.192,0.219,0.348,0.478,0.451,0.753c0.105,0.29,0.162,0.59,0.162,0.912
		C218.901,209.223,218.804,209.691,218.602,210.096z"/>
	<path fill="#FFFFFF" d="M230.227,211.396c0.018,0.112-0.008,0.203-0.063,0.252c-0.058,0.063-0.162,0.098-0.315,0.112
		c-0.154,0.009-0.354,0.017-0.623,0.017c-0.273,0-0.484,0-0.646-0.017c-0.146,0-0.269-0.017-0.35-0.05
		c-0.081-0.018-0.138-0.057-0.17-0.097s-0.057-0.099-0.081-0.171l-0.704-2.104h-3.931l-0.663,2.047
		c-0.023,0.072-0.048,0.137-0.089,0.193c-0.032,0.049-0.089,0.089-0.162,0.113c-0.081,0.031-0.194,0.057-0.34,0.063
		c-0.137,0.01-0.323,0.018-0.559,0.018c-0.25,0-0.444-0.008-0.581-0.023c-0.14-0.018-0.234-0.057-0.291-0.121
		c-0.059-0.057-0.073-0.146-0.059-0.259c0.018-0.113,0.059-0.269,0.121-0.453l3.229-9.284c0.031-0.089,0.071-0.162,0.111-0.227
		c0.041-0.049,0.113-0.098,0.21-0.129c0.089-0.024,0.22-0.049,0.39-0.049c0.17-0.019,0.388-0.019,0.663-0.019
		c0.313,0,0.572,0,0.76,0.019c0.186,0,0.34,0.022,0.437,0.049c0.113,0.031,0.188,0.08,0.229,0.137
		c0.048,0.057,0.089,0.139,0.122,0.243l3.233,9.274C230.17,211.131,230.211,211.285,230.227,211.396z M225.294,203.264l-1.48,4.446
		h2.97l-1.48-4.446H225.294z"/>
	<path fill="#FFFFFF" d="M244.65,211.584c-0.031,0.04-0.089,0.081-0.162,0.105c-0.079,0.021-0.186,0.047-0.313,0.063
		s-0.292,0.023-0.494,0.023c-0.194,0-0.355-0.01-0.485-0.023c-0.13-0.018-0.233-0.041-0.308-0.063
		c-0.073-0.024-0.129-0.065-0.162-0.105s-0.048-0.089-0.048-0.146v-8.516h-0.017l-3.033,8.508c-0.024,0.072-0.058,0.129-0.105,0.17
		c-0.048,0.049-0.111,0.09-0.192,0.112c-0.091,0.024-0.194,0.049-0.324,0.049c-0.129,0.017-0.283,0.017-0.469,0.017
		c-0.188,0-0.342-0.008-0.471-0.017c-0.129-0.016-0.232-0.04-0.322-0.063c-0.081-0.032-0.146-0.073-0.194-0.113
		s-0.081-0.099-0.097-0.151l-2.93-8.51h-0.016v8.518c0,0.057-0.018,0.104-0.048,0.146c-0.024,0.04-0.081,0.081-0.162,0.104
		c-0.081,0.022-0.188,0.049-0.31,0.063c-0.129,0.017-0.291,0.022-0.491,0.022c-0.194,0-0.356-0.008-0.485-0.022
		c-0.129-0.019-0.234-0.041-0.315-0.063c-0.071-0.023-0.129-0.064-0.16-0.104c-0.024-0.04-0.041-0.089-0.041-0.146v-9.324
		c0-0.275,0.071-0.485,0.218-0.631c0.146-0.146,0.34-0.219,0.583-0.219h1.391c0.25,0,0.461,0.017,0.64,0.063
		c0.179,0.031,0.331,0.104,0.462,0.193c0.129,0.098,0.233,0.228,0.322,0.371c0.09,0.162,0.162,0.35,0.228,0.574l2.265,6.235h0.032
		l2.345-6.22c0.073-0.228,0.146-0.42,0.229-0.573c0.089-0.154,0.186-0.283,0.291-0.382c0.111-0.096,0.241-0.17,0.396-0.201
		c0.154-0.049,0.323-0.064,0.526-0.064h1.431c0.146,0,0.268,0.019,0.38,0.057c0.099,0.041,0.188,0.091,0.259,0.172
		c0.064,0.063,0.113,0.16,0.146,0.259c0.04,0.113,0.057,0.228,0.057,0.364v9.322C244.69,211.495,244.674,211.544,244.65,211.584z"/>
	<path fill="#FFFFFF" d="M254.082,211.293c-0.019,0.098-0.041,0.186-0.065,0.251c-0.022,0.063-0.063,0.112-0.097,0.138
		c-0.048,0.031-0.089,0.049-0.137,0.049h-5.259c-0.178,0-0.332-0.049-0.443-0.162c-0.129-0.098-0.188-0.273-0.188-0.51v-9.123
		c0-0.232,0.059-0.412,0.188-0.509c0.111-0.112,0.267-0.161,0.443-0.161h5.227c0.048,0,0.089,0.018,0.129,0.039
		c0.04,0.024,0.073,0.073,0.097,0.139c0.024,0.072,0.049,0.162,0.059,0.26c0.016,0.111,0.022,0.242,0.022,0.402
		c0,0.154-0.008,0.275-0.022,0.391c-0.01,0.097-0.032,0.188-0.059,0.251c-0.022,0.063-0.057,0.11-0.097,0.137
		c-0.041,0.032-0.081,0.05-0.129,0.05h-3.736v2.557h3.162c0.048,0,0.097,0.016,0.129,0.049c0.048,0.023,0.081,0.072,0.105,0.129
		c0.022,0.064,0.048,0.146,0.057,0.259c0.016,0.097,0.024,0.229,0.024,0.38c0,0.154-0.01,0.283-0.024,0.39
		c-0.008,0.104-0.032,0.187-0.057,0.252c-0.024,0.056-0.059,0.104-0.105,0.129c-0.033,0.022-0.081,0.04-0.129,0.04h-3.162v2.951
		h3.771c0.048,0,0.089,0.018,0.137,0.05c0.033,0.022,0.073,0.071,0.097,0.138c0.024,0.063,0.048,0.153,0.065,0.25
		c0.008,0.113,0.016,0.243,0.016,0.396C254.099,211.052,254.09,211.18,254.082,211.293z"/>
</g>
<g>
	<path fill="#FFFFFF" d="M265.167,211.584c-0.032,0.04-0.089,0.081-0.169,0.105c-0.081,0.021-0.188,0.047-0.324,0.063
		c-0.137,0.018-0.307,0.023-0.509,0.023c-0.21,0-0.39-0.01-0.52-0.023c-0.146-0.018-0.251-0.041-0.324-0.063
		c-0.079-0.024-0.137-0.065-0.178-0.105c-0.032-0.04-0.049-0.089-0.049-0.146v-4.229h-3.914v4.229c0,0.059-0.016,0.105-0.048,0.146
		s-0.089,0.081-0.17,0.105c-0.081,0.021-0.188,0.047-0.323,0.063c-0.138,0.018-0.308,0.023-0.518,0.023
		c-0.203,0-0.382-0.01-0.512-0.023c-0.146-0.018-0.25-0.041-0.332-0.063c-0.081-0.024-0.138-0.065-0.17-0.105
		c-0.041-0.04-0.057-0.089-0.057-0.146v-9.883c0-0.057,0.016-0.104,0.057-0.146c0.032-0.04,0.089-0.081,0.17-0.104
		c0.081-0.022,0.188-0.049,0.332-0.063c0.129-0.017,0.309-0.024,0.512-0.024c0.21,0,0.38,0.01,0.518,0.024
		c0.137,0.017,0.242,0.041,0.323,0.063c0.081,0.023,0.138,0.064,0.17,0.104c0.032,0.041,0.048,0.089,0.048,0.146v3.842h3.914v-3.842
		c0-0.057,0.017-0.104,0.049-0.146c0.041-0.04,0.097-0.081,0.178-0.104c0.073-0.022,0.18-0.049,0.324-0.063
		c0.129-0.017,0.309-0.024,0.52-0.024c0.202,0,0.372,0.01,0.509,0.024c0.138,0.017,0.243,0.041,0.324,0.063
		c0.081,0.023,0.137,0.064,0.169,0.104c0.041,0.041,0.057,0.089,0.057,0.146v9.883C265.224,211.495,265.208,211.544,265.167,211.584
		z"/>
</g>
<path fill="#FFFFFF" d="M248.83,104.463c-6.388,0-12.269,2.219-16.927,5.91v-3.84c3.754-0.868,6.563-4.229,6.563-8.24
	c0-4.592-3.8-8.39-8.466-8.39c-4.67,0-8.468,3.798-8.468,8.39c0,2.899,1.465,5.457,3.689,6.984c-4.613,1.154-8.79,3.48-12.151,6.626
	c-3.329-3.169-7.525-5.504-12.174-6.65c2.209-1.529,3.659-4.078,3.659-6.96c0-4.592-3.797-8.39-8.467-8.39s-8.467,3.798-8.467,8.39
	c0,4.06,2.875,7.458,6.693,8.274v3.859c-4.67-3.725-10.579-5.964-16.994-5.964h-0.079v16.539h0.079
	c5.618,0,10.207,4.59,10.207,10.208v4.193c0,13.701,7.76,15.521,17.074,15.587v0.003h17.015v-0.004
	c9.282-0.075,17.005-1.917,17.005-15.585v-4.193c0-5.617,4.589-10.208,10.208-10.208h0.08v-16.539H248.83z"/>
<g>
	<g>
		<g>
			<defs>
				<rect id="SVGID_1_" x="175.839" y="88.5" width="176.669" height="63.895"/>
			</defs>
			<clipPath id="SVGID_2_">
				<use xlink:href="#SVGID_1_"  overflow="visible"/>
			</clipPath>
			<path clip-path="url(#SVGID_2_)" fill="none" stroke="#0071BB" stroke-width="1.2795" stroke-miterlimit="10" d="M248.83,104.463
				c-6.388,0-12.269,2.219-16.927,5.91v-3.84c3.754-0.868,6.563-4.229,6.563-8.24c0-4.592-3.8-8.39-8.466-8.39
				c-4.67,0-8.468,3.798-8.468,8.39c0,2.899,1.465,5.457,3.689,6.984c-4.613,1.154-8.79,3.48-12.151,6.626
				c-3.329-3.169-7.525-5.504-12.174-6.65c2.209-1.529,3.659-4.078,3.659-6.96c0-4.592-3.797-8.39-8.467-8.39
				s-8.467,3.798-8.467,8.39c0,4.06,2.875,7.458,6.693,8.274v3.859c-4.67-3.725-10.579-5.964-16.994-5.964h-0.079v16.539h0.079
				c5.618,0,10.207,4.59,10.207,10.208v4.193c0,13.701,7.76,15.521,17.074,15.587v0.003h17.015v-0.004
				c9.282-0.075,17.005-1.917,17.005-15.585v-4.193c0-5.617,4.589-10.208,10.208-10.208h0.08v-16.539H248.83L248.83,104.463z
				 M212.992,106.759c4.668,0,8.465-3.798,8.465-8.466c0-4.592-3.797-8.39-8.465-8.39c-4.671,0-8.39,3.798-8.39,8.39
				C204.604,102.96,208.323,106.759,212.992,106.759L212.992,106.759z"/>
		</g>
	</g>
</g>
<path fill="#EC1C24" d="M221.496,131.685v19.306c9.32-0.064,17.092-1.877,17.092-15.587v-4.192c0-5.618,4.59-10.207,10.208-10.207
	h0.08v-16.54h-0.08C233.761,104.464,221.496,116.729,221.496,131.685 M238.43,98.294c0-4.592-3.798-8.39-8.466-8.39
	c-4.669,0-8.468,3.797-8.468,8.39c0,4.668,3.798,8.466,8.468,8.466C234.632,106.76,238.43,102.962,238.43,98.294"/>
<path fill="#0071BB" d="M194.362,104.464c7.2,0,13.85,2.848,18.678,7.439c4.902-4.591,11.551-7.439,18.753-7.439h0.08v16.539h-0.08
	c-5.619,0-10.207,4.59-10.207,10.208v19.783h-17.017v-19.783c0-5.617-4.59-10.208-10.207-10.208h-0.081v-16.539H194.362z
	 M212.958,106.76c4.667,0,8.467-3.798,8.467-8.466c0-4.592-3.8-8.39-8.467-8.39c-4.668,0-8.391,3.798-8.391,8.39
	C204.569,102.962,208.29,106.76,212.958,106.76"/>
<path fill="#FFFFFF" d="M283.229,143.644c-0.171-0.408-0.402-0.725-0.695-0.94c-0.311-0.225-0.658-0.339-1.035-0.339h-15.254
	v-10.981h12.671c0.363,0,0.706-0.102,1.01-0.304c0.3-0.199,0.541-0.507,0.718-0.913c0.147-0.333,0.249-0.748,0.317-1.268
	c0.063-0.466,0.098-1.057,0.098-1.751c0-0.674-0.033-1.257-0.098-1.739c-0.068-0.528-0.169-0.949-0.317-1.284
	c-0.172-0.395-0.397-0.701-0.688-0.909c-0.312-0.226-0.668-0.346-1.04-0.346h-12.671v-9.29h15.115c0.386,0,0.744-0.125,1.044-0.36
	c0.267-0.207,0.487-0.519,0.655-0.922c0.146-0.344,0.245-0.765,0.313-1.289c0.06-0.481,0.092-1.063,0.092-1.735
	c0-0.717-0.032-1.325-0.092-1.808c-0.068-0.519-0.167-0.941-0.312-1.298c-0.175-0.432-0.398-0.743-0.688-0.952
	c-0.301-0.211-0.643-0.321-1.015-0.321h-22.247c-0.948,0-1.768,0.292-2.429,0.866c-0.697,0.606-1.052,1.542-1.052,2.791v38.843
	c0,1.244,0.354,2.183,1.052,2.785c0.661,0.574,1.479,0.869,2.429,0.869h22.386c0.378,0,0.727-0.119,1.038-0.344
	c0.289-0.213,0.521-0.529,0.695-0.942c0.142-0.342,0.243-0.763,0.312-1.289c0.063-0.481,0.093-1.078,0.093-1.768
	c0-0.695-0.028-1.292-0.093-1.773C283.476,144.411,283.372,143.988,283.229,143.644"/>
<path fill="#FFFFFF" d="M313.324,104.896h-21.18c-1.011,0-1.848,0.313-2.493,0.926c-0.65,0.626-0.986,1.543-0.986,2.729v40.529
	c0,0.418,0.146,0.81,0.418,1.125c0.247,0.283,0.604,0.5,1.09,0.662c0.402,0.135,0.918,0.23,1.569,0.297
	c0.613,0.06,1.375,0.089,2.266,0.089c0.916,0,1.681-0.029,2.284-0.089c0.64-0.067,1.146-0.162,1.549-0.297
	c0.482-0.16,0.842-0.377,1.089-0.661c0.273-0.317,0.42-0.708,0.42-1.126v-35.155h13.977c0.401,0,0.766-0.116,1.07-0.346
	c0.294-0.212,0.531-0.537,0.703-0.966c0.141-0.354,0.239-0.79,0.31-1.333c0.06-0.505,0.089-1.123,0.089-1.836
	c0-1.47-0.131-2.512-0.4-3.19C314.622,105.073,313.782,104.896,313.324,104.896"/>
<path fill="#FFFFFF" d="M351.072,117.515c-0.958-2.927-2.352-5.417-4.144-7.398c-1.797-1.989-4.013-3.502-6.588-4.498
	c-2.55-0.981-5.434-1.483-8.566-1.483c-1.581,0-3.059,0.129-4.399,0.377c-1.32,0.246-2.524,0.546-3.575,0.89
	c-1.07,0.346-1.974,0.726-2.682,1.13c-0.736,0.419-1.207,0.736-1.477,0.994c-0.292,0.269-0.51,0.566-0.657,0.873
	c-0.131,0.276-0.229,0.59-0.313,0.958c-0.079,0.351-0.138,0.777-0.171,1.304c-0.035,0.499-0.059,1.107-0.059,1.814
	c0,0.664,0.03,1.206,0.093,1.659c0.065,0.475,0.153,0.856,0.271,1.154c0.145,0.376,0.328,0.655,0.564,0.851
	c0.271,0.219,0.579,0.335,0.9,0.335c0.429,0,0.929-0.207,1.614-0.671c0.499-0.334,1.159-0.706,1.956-1.098
	c0.796-0.394,1.757-0.759,2.856-1.09c1.067-0.32,2.322-0.481,3.73-0.481c1.527,0,2.94,0.231,4.204,0.689
	c1.233,0.451,2.308,1.135,3.182,2.031c0.887,0.913,1.622,2.05,2.178,3.384c0.471,1.131,0.799,2.431,0.986,3.875H323.47
	c-0.406,0-0.776,0.124-1.074,0.358c-0.268,0.207-0.483,0.508-0.652,0.892c-0.146,0.34-0.251,0.766-0.317,1.307
	c-0.063,0.488-0.088,1.075-0.088,1.751c0,0.675,0.024,1.259,0.088,1.737c0.066,0.523,0.171,0.948,0.313,1.289
	c0.172,0.407,0.389,0.712,0.653,0.92c0.303,0.236,0.674,0.362,1.08,0.362h17.648c-0.13,1.686-0.42,3.192-0.872,4.487
	c-0.514,1.477-1.217,2.716-2.099,3.687c-0.863,0.962-1.903,1.686-3.089,2.153c-1.209,0.478-2.594,0.72-4.117,0.72
	c-1.731,0-3.209-0.164-4.384-0.489c-1.198-0.329-2.196-0.691-2.977-1.08c-0.778-0.392-1.399-0.754-1.847-1.081
	c-0.635-0.471-1.146-0.69-1.604-0.69c-0.42,0-1.188,0.165-1.633,1.252c-0.25,0.607-0.371,1.506-0.371,2.745
	c0,0.727,0.021,1.343,0.056,1.833c0.039,0.5,0.095,0.938,0.17,1.309c0.083,0.404,0.188,0.734,0.324,1.002
	c0.146,0.297,0.403,0.609,0.796,0.995c0.388,0.372,1.014,0.762,1.912,1.191c0.854,0.411,1.836,0.77,2.925,1.067
	c1.075,0.295,2.229,0.533,3.438,0.709c1.214,0.176,2.418,0.266,3.574,0.266c3.362,0,6.383-0.498,8.979-1.478
	c2.621-0.998,4.868-2.52,6.681-4.537c1.801-2.006,3.191-4.556,4.127-7.579c0.927-2.992,1.396-6.553,1.396-10.584
	C352.508,123.82,352.028,120.417,351.072,117.515"/>
</svg>
