<?xml version="1.0" encoding="utf-8"?>
<!-- Generator: Adobe Illustrator 16.0.0, SVG Export Plug-In . SVG Version: 6.00 Build 0)  -->
<!DOCTYPE svg PUBLIC "-//W3C//DTD SVG 1.1//EN" "http://www.w3.org/Graphics/SVG/1.1/DTD/svg11.dtd">
<svg version="1.1" id="Layer_1" xmlns="http://www.w3.org/2000/svg" xmlns:xlink="http://www.w3.org/1999/xlink" x="0px" y="0px"
	 width="512px" height="512px" viewBox="0 0 512 512" enable-background="new 0 0 512 512" xml:space="preserve">
<path fill="none" d="M0,512C0,341.365,0,170.73,0,0c170.592,0,341.22,0,512,0c0,170.603,0,341.3,0,512
	C341.409,512,170.723,512,0,512z M230.342,284.91c-2.482,4.925-4.722,9.484-7.09,13.97c-0.5,0.95-1.32,1.92-2.245,2.435
	c-8.532,4.746-22.555,2.262-28.925-5.135c-3.152-3.654-6.007-7.574-9.237-11.16c-3.475-3.858-7.828-6.369-13.188-5.99
	c-1.773,0.125-3.461,1.441-5.186,2.212c1.055,1.385,1.842,3.17,3.212,4.085c6.022,4.033,10.205,9.435,13.13,16
	c6.476,14.529,15.613,20.1,31.485,19.363c3.08-0.145,6.153-0.334,9.595-0.523c0,4.061-0.115,7.545,0.022,11.021
	c0.368,9.205,1.478,18.563-8.925,23.85c-1.75,0.891-2.365,3.3,0.479,4.029c8.297,2.121,22.917-3.564,22.237-14.779
	c-0.572-9.471-0.3-19-0.03-28.49c0.1-3.475,1.271-6.92,1.95-10.375c0.508,0.1,1.015,0.205,1.521,0.305
	c0.127,0.806,0.375,1.615,0.363,2.42c-0.218,14.32-0.271,28.65-0.875,42.961c-0.123,2.886-2.377,5.664-3.587,8.521
	c-0.59,1.392-1.033,2.845-1.543,4.271c1.525,0.396,3.095,1.256,4.568,1.104c6.79-0.68,13.877-7.37,14.981-14.25
	c0.69-4.267,1.101-8.608,1.175-12.925c0.17-10.165,0.025-20.335,0.115-30.495c0.015-1.54,0.635-3.069,0.976-4.604
	c0.71,0.109,1.414,0.221,2.124,0.33c0,1.926-0.015,3.85,0,5.779c0.104,12.319,0.159,24.646,0.346,36.965
	c0.141,9.557,5.319,15.525,14.035,18.53c1.805,0.62,4.034,0.015,6.069-0.024c-0.45-1.939-0.711-3.949-1.399-5.801
	c-1.325-3.521-4.045-6.91-4.16-10.42c-0.455-14.14-0.141-28.311-0.074-42.465c0-0.155,0.459-0.311,1.734-1.109
	c0.66,3.881,1.649,7.319,1.76,10.784c0.305,9.66,0.235,19.33,0.34,28.995c0.065,5.898,2.846,10.2,8.035,12.83
	c5.195,2.635,10.555,3.109,17.319,0.79c-2.335-2.149-3.596-3.655-5.169-4.695c-4.767-3.14-6.66-7.311-6.445-13.104
	c0.38-9.984,0.35-20,0.024-29.984c-0.301-9.26-1.465-18.404-10.225-25.02c7.1-1.392,13.479-2.381,19.725-3.92
	c13.585-3.355,25.08-9.762,32.101-22.621c0.699-1.279,3.135-2.375,4.705-2.299c18.989,0.92,37.92,2.454,56.35,7.604
	c1.235,0.345,2.556,0.404,3.84,0.6c0.096-0.64,0.19-1.273,0.285-1.908c-20.175-6.375-41.189-7.866-62.22-9.045
	c-0.354-4.375,2.216-4.663,5.095-4.45c17.431,1.275,34.86,2.59,52.295,3.85c1.771,0.13,3.556,0.02,5.336,0.02
	c0.01-0.485,0.024-0.97,0.039-1.455c-19.944-4.25-40.274-4.755-60.93-4.985c0.495-3.038,0.96-5.627,1.33-8.232
	c2.88-20.08,2.005-39.298-12.29-55.645c-1.085-1.243-1.065-3.645-1.149-5.525c-0.351-7.932,0.08-15.955-0.996-23.777
	c-0.885-6.467-3.273-7.925-9.465-5.825c-8.295,2.817-16.114,7.02-24.27,10.287c-2.73,1.095-5.995,1.973-8.8,1.545
	c-17.971-2.745-35.884-3.027-53.65,0.99c-3.64,0.825-6.04,0.103-9.193-1.455c-8.292-4.092-16.842-7.708-25.47-11.052
	c-4.502-1.748-7.35,0.195-8.67,5.182c-2.26,8.56-2.785,17.115-0.963,25.715c0.72,3.402,0.283,5.96-1.99,8.637
	c-7.075,8.325-10.723,18.12-10.39,28.995c0.303,9.895,1.484,19.765,2.319,30.165c-18.883,0.743-38.574,1.072-57.77,5.835
	c1.472,0.89,2.847,0.8,4.222,0.7c17.436-1.31,34.873-2.59,52.304-3.953c3.104-0.243,4.675,0.855,4.677,4.013
	c-10.547,1.06-20.979,1.88-31.337,3.225c-10.141,1.32-20.19,3.265-30.627,6.834c1.314,1.07,1.595,1.476,1.802,1.439
	c1.628-0.273,3.263-0.555,4.863-0.97c17.498-4.55,35.319-6.83,53.359-7.38c1.792-0.056,4.42,0.885,5.325,2.25
	c8.647,13.034,21.25,19.854,35.95,23.45C220.533,283.205,225.79,284.02,230.342,284.91z"/>
<path fill="#FFFFFF" d="M226.917,288.852c-5.168-1.012-11.138-1.937-16.986-3.366c-16.691-4.083-30.999-11.827-40.819-26.626
	c-1.028-1.551-4.012-2.619-6.046-2.555c-20.483,0.624-40.718,3.213-60.585,8.379c-1.817,0.472-3.673,0.79-5.522,1.103
	c-0.235,0.038-0.553-0.422-2.045-1.637c11.851-4.052,23.26-6.261,34.774-7.759c11.762-1.527,23.605-2.459,35.581-3.662
	c-0.002-3.586-1.785-4.832-5.31-4.557c-19.791,1.546-39.59,3.001-59.387,4.489c-1.561,0.113-3.123,0.215-4.793-0.795
	c21.795-5.408,44.153-5.781,65.593-6.625c-0.948-11.808-2.291-23.015-2.633-34.25c-0.378-12.348,3.763-23.469,11.796-32.922
	c2.581-3.039,3.077-5.944,2.26-9.806c-2.069-9.765-1.472-19.479,1.093-29.197c1.5-5.663,4.731-7.869,9.844-5.884
	c9.795,3.797,19.503,7.902,28.919,12.548c3.58,1.769,6.306,2.589,10.438,1.652c20.172-4.562,40.512-4.24,60.916-1.124
	c3.185,0.486,6.89-0.511,9.991-1.755c9.26-3.71,18.138-8.481,27.556-11.68c7.029-2.384,9.742-0.73,10.747,6.614
	c1.222,8.883,0.734,17.991,1.131,26.997c0.096,2.135,0.073,4.863,1.306,6.274c16.23,18.56,17.224,40.381,13.954,63.181
	c-0.421,2.958-0.948,5.898-1.511,9.347c23.452,0.261,46.535,0.834,69.182,5.66c-0.017,0.551-0.033,1.102-0.045,1.652
	c-2.021,0-4.047,0.125-6.059-0.023c-19.795-1.431-39.585-2.924-59.377-4.372c-3.269-0.24-6.187,0.085-5.784,5.053
	c23.877,1.339,47.738,3.031,70.646,10.27c-0.107,0.721-0.215,1.442-0.324,2.167c-1.458-0.221-2.956-0.289-4.359-0.681
	c-20.926-5.848-42.419-7.59-63.98-8.634c-1.783-0.086-4.549,1.158-5.343,2.609c-7.971,14.603-21.022,21.876-36.447,25.685
	c-7.09,1.748-14.335,2.872-22.396,4.451c9.945,7.51,11.268,17.895,11.609,28.409c0.367,11.335,0.402,22.708-0.028,34.043
	c-0.244,6.58,1.907,11.317,7.318,14.881c1.786,1.181,3.218,2.89,5.869,5.331c-7.682,2.635-13.767,2.095-19.665-0.897
	c-5.893-2.985-9.049-7.869-9.123-14.567c-0.118-10.974-0.04-21.953-0.386-32.922c-0.125-3.934-1.249-7.839-1.998-12.245
	c-1.448,0.909-1.97,1.084-1.97,1.261c-0.073,16.072-0.433,32.161,0.084,48.215c0.131,3.985,3.22,7.834,4.724,11.831
	c0.782,2.102,1.079,4.384,1.589,6.586c-2.311,0.045-4.843,0.733-6.891,0.028c-9.896-3.412-15.777-10.189-15.937-21.039
	c-0.211-13.988-0.272-27.983-0.393-41.972c-0.017-2.191,0-4.376,0-6.563c-0.806-0.124-1.605-0.25-2.412-0.375
	c-0.386,1.743-1.09,3.48-1.107,5.229c-0.102,11.536,0.062,23.083-0.131,34.625c-0.084,4.899-0.55,9.831-1.333,14.675
	c-1.254,7.812-9.301,15.408-17.011,16.18c-1.673,0.171-3.454-0.806-5.187-1.255c0.579-1.618,1.083-3.269,1.752-4.848
	c1.374-3.242,3.934-6.398,4.073-9.674c0.686-16.249,0.746-32.521,0.994-48.778c0.013-0.915-0.267-1.834-0.413-2.748
	c-0.575-0.114-1.152-0.232-1.728-0.347c-0.773,3.923-2.101,7.834-2.214,11.78c-0.306,10.775-0.615,21.596,0.035,32.348
	c0.771,12.734-15.829,19.188-25.249,16.78c-3.23-0.827-2.531-3.565-0.544-4.574c11.81-6.001,10.55-16.629,10.133-27.08
	c-0.157-3.946-0.025-7.904-0.025-12.514c-3.907,0.217-7.397,0.432-10.894,0.596c-18.021,0.834-28.396-5.488-35.749-21.987
	c-3.321-7.454-8.069-13.586-14.908-18.167c-1.556-1.038-2.45-3.064-3.646-4.637c1.958-0.876,3.874-2.369,5.887-2.511
	c6.086-0.431,11.028,2.42,14.974,6.802c3.668,4.071,6.909,8.522,10.488,12.67c7.233,8.397,23.154,11.22,32.842,5.831
	c1.05-0.585,1.981-1.686,2.549-2.765C221.555,299.62,224.098,294.443,226.917,288.852z M257.213,281.596
	c0.004-0.368,0.018-0.742,0.022-1.111c9.453,0,18.904,0.147,28.353-0.08c3.366-0.077,6.755-0.857,10.054-1.646
	c24.587-5.897,36.589-28.061,28.23-51.977c-3.661-10.491-10.831-17.276-21.715-19.469c-4.933-0.994-10.128-1-15.197-0.958
	c-16.628,0.142-33.251,0.647-49.881,0.732c-6.985,0.038-13.983-1.052-20.958-0.886c-15.797,0.371-27.833,10.458-31.255,25.604
	c-4.063,17.978,4.593,35.65,21.59,42.883c5.671,2.413,11.843,4.251,17.946,4.938C235.277,280.853,246.271,281,257.213,281.596z"/>
<path fill="none" d="M257.213,281.596c-10.943-0.595-21.936-0.742-32.811-1.969c-6.103-0.687-12.275-2.526-17.946-4.939
	c-16.997-7.234-25.651-24.906-21.59-42.882c3.423-15.146,15.459-25.232,31.255-25.604c6.975-0.167,13.971,0.923,20.958,0.885
	c16.63-0.085,33.254-0.59,49.881-0.732c5.069-0.043,10.265-0.036,15.197,0.957c10.884,2.194,18.054,8.978,21.715,19.47
	c8.357,23.916-3.644,46.079-28.23,51.976c-3.299,0.789-6.688,1.567-10.054,1.646c-9.447,0.228-18.899,0.08-28.353,0.08
	C257.231,280.853,257.217,281.228,257.213,281.596z M226.604,240.206c-0.073-8.039-4.427-14.277-10.002-14.333
	c-5.53-0.053-10.083,6.243-10.261,14.185c-0.18,8.001,4.467,14.849,10.122,14.91C222.197,255.033,226.681,248.504,226.604,240.206z
	 M286.494,240.212c-0.072,8.294,4.413,14.826,10.135,14.757c5.75-0.068,10.127-6.6,9.975-14.899
	c-0.148-8.132-4.514-14.258-10.117-14.199C290.924,225.932,286.564,232.19,286.494,240.212z"/>
<path fill="#FFFFFF" d="M226.604,240.206c0.077,8.298-4.407,14.827-10.142,14.763c-5.655-0.062-10.301-6.909-10.123-14.91
	c0.179-7.942,4.731-14.238,10.261-14.185C222.177,225.93,226.531,232.167,226.604,240.206z"/>
<path fill="#FFFFFF" d="M286.494,240.212c0.069-8.022,4.429-14.281,9.992-14.341c5.604-0.059,9.969,6.067,10.117,14.199
	c0.152,8.299-4.225,14.832-9.975,14.899C290.907,255.038,286.422,248.506,286.494,240.212z"/>
</svg>
