<?xml version="1.0" encoding="utf-8"?>
<!-- Generator: Adobe Illustrator 16.0.0, SVG Export Plug-In . SVG Version: 6.00 Build 0)  -->
<!DOCTYPE svg PUBLIC "-//W3C//DTD SVG 1.1//EN" "http://www.w3.org/Graphics/SVG/1.1/DTD/svg11.dtd">
<svg version="1.1" id="Layer_1" xmlns="http://www.w3.org/2000/svg" xmlns:xlink="http://www.w3.org/1999/xlink" x="0px" y="0px"
	 width="256px" height="256px" viewBox="0 0 256 256" enable-background="new 0 0 256 256" xml:space="preserve">
<g>
	<path fill-rule="evenodd" clip-rule="evenodd" fill="#FFFFFF" d="M131.141,238.739c-21.463,0-31.443-2.487-48.7-9.558
		c-5.16-2.113-12.646-6.609-16.955-9.579c-27.458-18.928-47.945-52.624-47.945-86.46c0-22.645,0.885-31.812,10.248-52.786
		c2.417-5.417,6.031-11.185,9.389-16.069c1.708-2.483,3.711-5.331,5.709-7.535l6.119-7.128c2.272-2.573,4.101-3.415,6.631-5.606
		c16.546-14.32,41.918-26.625,65.272-26.625c29.632,0,48.935,3.623,72.663,21.321c5.938,4.428,8.757,7.208,14.075,12.438
		c31.779,31.243,38.872,80.431,21.319,122.185c-2.63,6.26-6.055,11.611-9.6,16.873C200.56,218.102,166.798,238.739,131.141,238.739
		L131.141,238.739z M126.024,256c21.066,0,39.971-4.358,55.622-11.832c15.747-7.522,23.72-13.768,35.359-24.823
		c0.152-0.145,0.373-0.353,0.521-0.501l0.992-1.044C241.765,192.855,256,165.047,256,128.066c0-31.891-14.072-66.475-35.545-88.609
		c-5.077-5.237-10.405-9.844-16.348-14.242c-5.518-4.083-13.02-9.178-19.377-12.251C142.758-7.32,90.855-3.86,53.642,23.764
		c-10.586,7.858-7.211,5.081-16.398,14.19c-5.684,5.634-9.384,9.707-13.974,16.598C-38.577,147.406,32.207,256,126.024,256
		L126.024,256z"/>
	<path fill-rule="evenodd" clip-rule="evenodd" fill="#FFFFFF" d="M126.024,213.355c4.426-2.941,33.194-37.08,39.133-43.418
		l19.721-22.064c1.547-3.854,0.505-34.438,0.505-41.129c-4.118,2.734-21.817,24.16-27.393,29.684
		c-2.548,2.525-2.883,3.598-5.107,6.099l-11.505,11.938V42.776c-37.417,0-30.705-6.187-30.705,25.384v86.305l-21.924-23.939
		c-3.784-4.854-19.447-22.813-23.107-23.781c0,8.727-1.791,35.217,0.991,40.645L126.024,213.355L126.024,213.355z"/>
</g>
</svg>
