<?xml version="1.0" encoding="utf-8"?>
<!-- Generator: Adobe Illustrator 16.0.0, SVG Export Plug-In . SVG Version: 6.00 Build 0)  -->
<!DOCTYPE svg PUBLIC "-//W3C//DTD SVG 1.1//EN" "http://www.w3.org/Graphics/SVG/1.1/DTD/svg11.dtd">
<svg version="1.1" id="Layer_1" xmlns="http://www.w3.org/2000/svg" xmlns:xlink="http://www.w3.org/1999/xlink" x="0px" y="0px"
	 width="256px" height="256px" viewBox="0 0 256 256" enable-background="new 0 0 256 256" xml:space="preserve">
<g>
	<path fill-rule="evenodd" clip-rule="evenodd" fill="#FFFFFF" d="M17.255,129.069c0-44.83,23.936-81.019,62.587-100.666
		c18.158-9.23,32.042-10.912,53.129-10.912c26.395,0,54.217,13.19,72.322,31.476c9.6,9.695,15.76,17.183,22.09,29.931
		c28.355,57.1,1.215,127.28-54.955,150.357C93.579,261.65,17.255,202.933,17.255,129.069L17.255,129.069z M0,124.973
		c0,21.76,3.723,40.42,11.835,56.65c11.39,22.789,16.975,28.284,34.098,44.432C65.236,244.263,101.781,256,127.896,256
		c19.73,0,36.018-4.755,50.465-10.527c7.692-3.073,13.435-6.24,19.995-10.545c5.963-3.915,12.808-9.088,17.604-13.98
		c11.208-11.433,19.263-20.697,26.647-35.567c20.98-42.244,17.24-95.114-10.739-132.501c-8.668-11.58-19.223-21.922-30.891-30.268
		C151.136-13.03,80.043-5.452,37.303,37.708c-9.392,9.485-20.558,23.886-25.711,36.514C5.508,89.124,0,104.479,0,124.973L0,124.973z
		"/>
	<path fill-rule="evenodd" clip-rule="evenodd" fill="#FFFFFF" d="M176.619,108.595c-22.98,0-21.688,36.281,0.902,35.494
		C199.25,143.331,200.231,108.595,176.619,108.595L176.619,108.595z"/>
	<path fill-rule="evenodd" clip-rule="evenodd" fill="#FFFFFF" d="M61.917,125.997c0,21.576,34.513,24.537,34.513-1.024
		C96.43,102.291,61.917,102.406,61.917,125.997L61.917,125.997z"/>
	<path fill-rule="evenodd" clip-rule="evenodd" fill="#FFFFFF" d="M110.64,125.997c0,20.684,34.514,25.999,34.514-1.024
		C145.154,102.418,110.64,103.985,110.64,125.997L110.64,125.997z"/>
</g>
</svg>
