<?xml version="1.0" encoding="utf-8"?>
<!-- Generator: Adobe Illustrator 16.0.0, SVG Export Plug-In . SVG Version: 6.00 Build 0)  -->
<!DOCTYPE svg PUBLIC "-//W3C//DTD SVG 1.1//EN" "http://www.w3.org/Graphics/SVG/1.1/DTD/svg11.dtd">
<svg version="1.1" id="Layer_1" xmlns="http://www.w3.org/2000/svg" xmlns:xlink="http://www.w3.org/1999/xlink" x="0px" y="0px"
	 width="256px" height="256px" viewBox="0 0 256 256" enable-background="new 0 0 256 256" xml:space="preserve">
<g>
	<path fill-rule="evenodd" clip-rule="evenodd" fill="#FFFFFF" d="M238.739,124.859c0,21.463-2.487,31.443-9.558,48.7
		c-2.113,5.16-6.609,12.646-9.579,16.955c-18.928,27.458-52.624,47.944-86.46,47.944c-22.645,0-31.812-0.885-52.786-10.247
		c-5.417-2.417-11.185-6.031-16.069-9.389c-2.483-1.708-5.331-3.712-7.535-5.709l-7.128-6.118c-2.573-2.273-3.415-4.102-5.606-6.632
		c-14.32-16.546-26.625-41.919-26.625-65.272c0-29.632,3.623-48.935,21.321-72.662c4.428-5.938,7.208-8.757,12.438-14.075
		c31.243-31.779,80.431-38.872,122.185-21.319c6.26,2.63,11.611,6.055,16.873,9.6C218.102,55.44,238.739,89.202,238.739,124.859
		L238.739,124.859z M256,129.977c0-21.066-4.358-39.972-11.832-55.622c-7.522-15.747-13.768-23.72-24.823-35.359
		c-0.145-0.152-0.353-0.373-0.501-0.521l-1.044-0.992C192.855,14.235,165.047,0,128.066,0C96.176,0,61.592,14.072,39.457,35.545
		c-5.237,5.077-9.844,10.405-14.242,16.348c-4.083,5.518-9.178,13.02-12.251,19.377c-20.284,41.973-16.824,93.875,10.8,131.089
		c7.858,10.586,5.081,7.211,14.19,16.398c5.634,5.684,9.707,9.384,16.598,13.974C147.406,294.576,256,223.793,256,129.977
		L256,129.977z"/>
	<path fill-rule="evenodd" clip-rule="evenodd" fill="#FFFFFF" d="M213.355,129.977c-2.941-4.427-37.08-33.194-43.418-39.134
		l-22.064-19.721c-3.854-1.547-34.438-0.505-41.129-0.505c2.734,4.118,24.16,21.817,29.684,27.393
		c2.525,2.548,3.598,2.883,6.099,5.107l11.938,11.505H42.776c0,37.417-6.187,30.705,25.384,30.705h86.305l-23.939,21.924
		c-4.854,3.784-22.813,19.447-23.781,23.107c8.727,0,35.217,1.791,40.645-0.991L213.355,129.977L213.355,129.977z"/>
</g>
</svg>
