<?xml version="1.0" encoding="utf-8"?>
<!-- Generator: Adobe Illustrator 16.0.0, SVG Export Plug-In . SVG Version: 6.00 Build 0)  -->
<!DOCTYPE svg PUBLIC "-//W3C//DTD SVG 1.1//EN" "http://www.w3.org/Graphics/SVG/1.1/DTD/svg11.dtd">
<svg version="1.1" id="Layer_1" xmlns="http://www.w3.org/2000/svg" xmlns:xlink="http://www.w3.org/1999/xlink" x="0px" y="0px"
	 width="256px" height="256px" viewBox="0 0 256 256" enable-background="new 0 0 256 256" xml:space="preserve">
<g>
	<path fill-rule="evenodd" clip-rule="evenodd" fill="#FFFFFF" d="M17.261,131.141c0-21.463,2.488-31.443,9.558-48.7
		c2.113-5.16,6.61-12.646,9.579-16.955c18.928-27.458,52.624-47.945,86.459-47.945c22.645,0,31.812,0.885,52.787,10.248
		c5.417,2.417,11.185,6.031,16.069,9.389c2.483,1.708,5.331,3.711,7.535,5.709l7.128,6.119c2.573,2.272,3.415,4.101,5.606,6.631
		c14.32,16.546,26.625,41.918,26.625,65.272c0,29.632-3.623,48.935-21.321,72.663c-4.428,5.938-7.208,8.757-12.438,14.075
		c-31.243,31.779-80.431,38.872-122.185,21.319c-6.259-2.63-11.611-6.055-16.873-9.6C37.899,200.56,17.261,166.798,17.261,131.141
		L17.261,131.141z M0,126.024c0,21.066,4.358,39.971,11.832,55.622c7.522,15.747,13.768,23.72,24.823,35.359
		c0.145,0.152,0.353,0.373,0.5,0.521l1.044,0.992C63.144,241.765,90.954,256,127.934,256c31.891,0,66.475-14.072,88.609-35.545
		c5.237-5.077,9.844-10.405,14.242-16.348c4.083-5.518,9.178-13.02,12.251-19.377c20.284-41.973,16.824-93.875-10.8-131.089
		c-7.858-10.586-5.081-7.211-14.19-16.398c-5.634-5.684-9.707-9.384-16.598-13.974C108.593-38.577,0,32.207,0,126.024L0,126.024z"/>
	<path fill-rule="evenodd" clip-rule="evenodd" fill="#FFFFFF" d="M42.645,126.024c2.941,4.426,37.081,33.194,43.418,39.133
		l22.065,19.721c3.853,1.547,34.437,0.505,41.128,0.505c-2.734-4.118-24.161-21.817-29.683-27.393
		c-2.525-2.548-3.599-2.883-6.099-5.107l-11.938-11.505h111.688c0-37.417,6.187-30.705-25.384-30.705h-86.305l23.939-21.924
		c4.854-3.784,22.813-19.447,23.781-23.107c-8.727,0-35.216-1.791-40.645,0.991L42.645,126.024L42.645,126.024z"/>
</g>
</svg>
