<?xml version="1.0" encoding="utf-8"?>
<!-- Generator: Adobe Illustrator 16.0.0, SVG Export Plug-In . SVG Version: 6.00 Build 0)  -->
<!DOCTYPE svg PUBLIC "-//W3C//DTD SVG 1.1//EN" "http://www.w3.org/Graphics/SVG/1.1/DTD/svg11.dtd">
<svg version="1.1" id="Layer_1" xmlns="http://www.w3.org/2000/svg" xmlns:xlink="http://www.w3.org/1999/xlink" x="0px" y="0px"
	 width="256px" height="256px" viewBox="0 0 256 256" enable-background="new 0 0 256 256" xml:space="preserve">
<g>
	<path fill-rule="evenodd" clip-rule="evenodd" fill="#FFFFFF" d="M17.261,131.143c0-21.465,2.488-31.444,9.557-48.703
		c2.114-5.159,6.61-12.646,9.58-16.954c18.928-27.459,52.624-47.944,86.459-47.944c22.644,0,31.812,0.883,52.787,10.247
		c5.418,2.418,11.186,6.031,16.069,9.389c2.484,1.708,5.331,3.711,7.536,5.709l7.127,6.119c2.574,2.271,3.415,4.1,5.605,6.631
		c14.322,16.546,26.625,41.919,26.625,65.271c0,29.634-3.622,48.937-21.321,72.665c-4.428,5.936-7.207,8.755-12.436,14.073
		c-31.244,31.778-80.432,38.873-122.186,21.322c-6.259-2.632-11.611-6.057-16.873-9.603
		C37.899,200.561,17.261,166.798,17.261,131.143L17.261,131.143z M0,126.024c0,21.065,4.358,39.973,11.832,55.62
		c7.522,15.749,13.768,23.721,24.823,35.361c0.145,0.151,0.353,0.37,0.5,0.52l1.044,0.994C63.144,241.766,90.954,256,127.934,256
		c31.889,0,66.475-14.072,88.609-35.544c5.236-5.079,9.845-10.405,14.242-16.348c4.084-5.519,9.178-13.021,12.25-19.379
		c20.285-41.972,16.825-93.873-10.799-131.087c-7.857-10.586-5.08-7.211-14.19-16.4c-5.635-5.683-9.707-9.383-16.597-13.973
		C108.593-38.577,0,32.207,0,126.024L0,126.024z"/>
	<path fill-rule="evenodd" clip-rule="evenodd" fill="#FFFFFF" d="M109.658,109.649c0-11.927,0.595-18.737,10.377-28.43
		c20.965-20.772,64.758-11.082,64.758,27.407c0,29.618-40.92,45.915-62.715,25.348C116.105,128.339,109.658,120.884,109.658,109.649
		L109.658,109.649z M91.381,103.509c0,12.544,1.234,18.492,7.107,29.68l-30.706,30.456c-5.256,5.359-12.114,8.325-14.047,16.568
		c-2.12,9.04,3.654,16.428,16.323,16.428c5.917,0,10.151-5.62,13.454-8.955l35.283-35.052
		c58.358,31.125,111.826-39.322,68.312-83.184c-26.138-26.347-72.634-19.418-89.98,13.241
		C94.714,87.234,91.381,97.048,91.381,103.509L91.381,103.509z"/>
</g>
</svg>
