<?xml version="1.0" encoding="utf-8"?>
<!-- Generator: Adobe Illustrator 16.0.0, SVG Export Plug-In . SVG Version: 6.00 Build 0)  -->
<!DOCTYPE svg PUBLIC "-//W3C//DTD SVG 1.1//EN" "http://www.w3.org/Graphics/SVG/1.1/DTD/svg11.dtd">
<svg version="1.1" id="Layer_1" xmlns="http://www.w3.org/2000/svg" xmlns:xlink="http://www.w3.org/1999/xlink" x="0px" y="0px"
	 width="256px" height="256px" viewBox="0 0 256 256" enable-background="new 0 0 256 256" xml:space="preserve">
<g>
	<path fill-rule="evenodd" clip-rule="evenodd" fill="#FFFFFF" d="M124.859,17.261c21.463,0,31.443,2.487,48.7,9.558
		c5.16,2.113,12.646,6.609,16.955,9.579c27.458,18.928,47.944,52.624,47.944,86.46c0,22.645-0.885,31.812-10.247,52.786
		c-2.417,5.417-6.031,11.185-9.389,16.069c-1.708,2.483-3.712,5.331-5.709,7.535l-6.118,7.128c-2.273,2.573-4.102,3.415-6.632,5.606
		c-16.546,14.32-41.919,26.625-65.272,26.625c-29.632,0-48.935-3.623-72.662-21.321c-5.938-4.428-8.757-7.208-14.075-12.438
		C16.575,173.605,9.482,124.418,27.035,82.664c2.63-6.26,6.055-11.611,9.6-16.873C55.44,37.898,89.202,17.261,124.859,17.261
		L124.859,17.261z M129.977,0C108.91,0,90.005,4.358,74.354,11.832C58.607,19.354,50.635,25.6,38.995,36.655
		c-0.152,0.145-0.373,0.353-0.521,0.501L37.482,38.2C14.235,63.145,0,90.953,0,127.934c0,31.891,14.072,66.475,35.545,88.609
		c5.077,5.237,10.405,9.844,16.348,14.242c5.518,4.083,13.02,9.178,19.377,12.251c41.973,20.284,93.875,16.824,131.089-10.8
		c10.586-7.858,7.211-5.081,16.398-14.19c5.684-5.634,9.384-9.707,13.974-16.598C294.576,108.594,223.793,0,129.977,0L129.977,0z"/>
	<path fill-rule="evenodd" clip-rule="evenodd" fill="#FFFFFF" d="M129.977,42.645c-4.427,2.941-33.194,37.08-39.134,43.418
		l-19.721,22.064c-1.547,3.854-0.505,34.438-0.505,41.129c4.118-2.734,21.817-24.16,27.393-29.684
		c2.548-2.525,2.883-3.598,5.107-6.099l11.505-11.938v111.688c37.417,0,30.705,6.187,30.705-25.384v-86.305l21.924,23.939
		c3.784,4.854,19.447,22.813,23.107,23.781c0-8.727,1.791-35.217-0.991-40.645L129.977,42.645L129.977,42.645z"/>
</g>
</svg>
