<?xml version="1.0" encoding="utf-8"?>
<!-- Generator: Adobe Illustrator 16.0.0, SVG Export Plug-In . SVG Version: 6.00 Build 0)  -->
<!DOCTYPE svg PUBLIC "-//W3C//DTD SVG 1.1//EN" "http://www.w3.org/Graphics/SVG/1.1/DTD/svg11.dtd">
<svg version="1.1" id="Layer_1" xmlns="http://www.w3.org/2000/svg" xmlns:xlink="http://www.w3.org/1999/xlink" x="0px" y="0px"
	 width="256px" height="256px" viewBox="0 0 256 256" enable-background="new 0 0 256 256" xml:space="preserve">
<g>
	<path fill-rule="evenodd" clip-rule="evenodd" fill="#FFFFFF" d="M129.068,238.745c-44.829,0-81.018-23.936-100.666-62.587
		c-9.23-18.157-10.911-32.042-10.911-53.129c0-26.395,13.19-54.217,31.476-72.322c9.695-9.6,17.183-15.76,29.931-22.09
		c57.1-28.355,127.28-1.215,150.357,54.955C261.648,162.421,202.933,238.745,129.068,238.745L129.068,238.745z M124.972,256
		c21.759,0,40.421-3.723,56.651-11.836c22.789-11.39,28.284-16.975,44.432-34.098C244.263,190.764,256,154.219,256,128.104
		c0-19.73-4.755-36.018-10.527-50.465c-3.075-7.692-6.24-13.435-10.545-19.995c-3.915-5.963-9.088-12.808-13.98-17.604
		c-11.433-11.208-20.697-19.263-35.567-26.647C143.136-7.588,90.266-3.848,52.879,24.131c-11.58,8.668-21.922,19.223-30.268,30.891
		C-13.03,104.864-5.452,175.957,37.708,218.698c9.485,9.391,23.886,20.557,36.514,25.711C89.124,250.493,104.479,256,124.972,256
		L124.972,256z"/>
	<path fill-rule="evenodd" clip-rule="evenodd" fill="#FFFFFF" d="M108.595,79.381c0,22.98,36.279,21.688,35.494-0.902
		C143.329,56.75,108.595,55.769,108.595,79.381L108.595,79.381z"/>
	<path fill-rule="evenodd" clip-rule="evenodd" fill="#FFFFFF" d="M125.996,194.083c21.575,0,24.538-34.513-1.023-34.513
		C102.291,159.57,102.406,194.083,125.996,194.083L125.996,194.083z"/>
	<path fill-rule="evenodd" clip-rule="evenodd" fill="#FFFFFF" d="M125.996,145.36c20.686,0,25.998-34.514-1.023-34.514
		C102.418,110.846,103.985,145.36,125.996,145.36L125.996,145.36z"/>
</g>
</svg>
