<?xml version="1.0" encoding="utf-8"?>
<!-- Generator: Adobe Illustrator 16.0.0, SVG Export Plug-In . SVG Version: 6.00 Build 0)  -->
<!DOCTYPE svg PUBLIC "-//W3C//DTD SVG 1.1//EN" "http://www.w3.org/Graphics/SVG/1.1/DTD/svg11.dtd">
<svg version="1.1" id="Layer_1" xmlns="http://www.w3.org/2000/svg" xmlns:xlink="http://www.w3.org/1999/xlink" x="0px" y="0px"
	 width="512px" height="512px" viewBox="0 0 512 512" enable-background="new 0 0 512 512" xml:space="preserve">
<rect fill="none" width="512" height="512"/>
<path fill="#FFFFFF" d="M271.496,132C331.422,132,380,162.072,380,199.166c0,23.524-19.531,44.225-49.112,56.221
	c6.309,12.172,17.371,25.566,28.446,42.428c-23.023-8.029-57.441-15.797-77.864-31.76l-9.974,0.28
	c-59.92,0-108.497-30.071-108.497-67.169C162.999,162.072,211.576,132,271.496,132z M297.33,292.168
	c0,31.391-37.011,56.829-82.663,56.829l-6.283-0.159C191.58,364.394,168.256,380,142.333,380
	c6.035-12.075,19.127-24.145,26.908-40.344C146.806,329.498,132,312.025,132,292.168c0-19.844,14.793-37.317,37.215-47.481
	c19.193,18.92,53.2,31.499,91.951,31.499l9.973-0.28c7.31,5.71,16.415,10.374,26.152,14.376L297.33,292.168z"/>
</svg>
