<?xml version="1.0" encoding="utf-8"?>
<!-- Generator: Adobe Illustrator 16.0.0, SVG Export Plug-In . SVG Version: 6.00 Build 0)  -->
<!DOCTYPE svg PUBLIC "-//W3C//DTD SVG 1.1//EN" "http://www.w3.org/Graphics/SVG/1.1/DTD/svg11.dtd">
<svg version="1.1" id="Layer_1" xmlns="http://www.w3.org/2000/svg" xmlns:xlink="http://www.w3.org/1999/xlink" x="0px" y="0px"
	 width="512px" height="512px" viewBox="0 0 512 512" enable-background="new 0 0 512 512" xml:space="preserve">
<g id="Layer_1_1_">
</g>
<path fill="#FFFFFF" d="M327.986,264.742c-3.545-7.117-13.36-13.041-26.403-2.764c-17.63,13.893-45.948,13.893-45.948,13.893
	s-28.32,0-45.95-13.893c-13.044-10.277-22.859-4.354-26.401,2.764c-6.178,12.411,0.802,18.409,16.553,28.521
	c13.455,8.637,31.942,11.864,43.88,13.069l-9.964,9.966c-14.038,14.035-27.588,27.586-36.989,36.988
	c-5.62,5.619-5.62,14.731,0,20.354l1.697,1.694c2.803,2.804,6.475,4.209,10.149,4.214h0.053c3.676-0.006,7.349-1.412,10.151-4.214
	l36.987-36.987c14.037,14.035,27.586,27.586,36.988,36.987c5.619,5.619,14.733,5.619,20.353,0l1.695-1.696
	c5.622-5.621,5.621-14.732,0-20.354l-36.986-36.989l-9.995-9.995c11.947-1.229,30.236-4.474,43.578-13.038
	C327.183,283.151,334.162,277.153,327.986,264.742L327.986,264.742z M255.633,163.437c17.054,0,30.88,13.827,30.88,30.88
	s-13.826,30.878-30.88,30.878c-17.055,0-30.88-13.824-30.88-30.878S238.578,163.437,255.633,163.437L255.633,163.437z
	 M255.633,257.082c34.664,0,62.767-28.1,62.767-62.765c0-34.664-28.103-62.766-62.767-62.766c-34.666,0-62.766,28.102-62.766,62.766
	C192.867,228.982,220.968,257.082,255.633,257.082L255.633,257.082z"/>
<rect x="0" fill="none" width="512" height="512"/>
</svg>
