<?xml version="1.0" encoding="utf-8"?>
<!-- Generator: Adobe Illustrator 16.0.0, SVG Export Plug-In . SVG Version: 6.00 Build 0)  -->
<!DOCTYPE svg PUBLIC "-//W3C//DTD SVG 1.1//EN" "http://www.w3.org/Graphics/SVG/1.1/DTD/svg11.dtd">
<svg version="1.1" id="Layer_1" xmlns="http://www.w3.org/2000/svg" xmlns:xlink="http://www.w3.org/1999/xlink" x="0px" y="0px"
	 width="512px" height="512px" viewBox="0 0 512 512" enable-background="new 0 0 512 512" xml:space="preserve">
<rect fill="none" width="512" height="512"/>
<path fill="#FFFFFF" d="M132,132c136.964,0,248,111.033,248,248h-51.662c0-108.437-85.592-196.334-191.172-196.334l-5.166,0.07V132z
	 M132,214.666c91.311,0,165.338,74.022,165.338,165.334h-51.672c0-62.777-50.889-113.662-113.666-113.662V214.666z M168.166,307.662
	c19.974,0,36.168,16.201,36.168,36.176c0,19.974-16.194,36.162-36.168,36.162C148.191,380,132,363.812,132,343.838
	C132,323.863,148.191,307.662,168.166,307.662z"/>
</svg>
