<?xml version="1.0" encoding="utf-8"?>
<!-- Generator: Adobe Illustrator 16.0.0, SVG Export Plug-In . SVG Version: 6.00 Build 0)  -->
<!DOCTYPE svg PUBLIC "-//W3C//DTD SVG 1.1//EN" "http://www.w3.org/Graphics/SVG/1.1/DTD/svg11.dtd">
<svg version="1.1" id="Layer_1" xmlns="http://www.w3.org/2000/svg" xmlns:xlink="http://www.w3.org/1999/xlink" x="0px" y="0px"
	 width="512px" height="512px" viewBox="-383.361 -258.332 512 512" enable-background="new -383.361 -258.332 512 512"
	 xml:space="preserve">
<g id="Layer_1_1_">
</g>
<rect x="-383.361" y="-258.332" fill="none" width="512" height="512"/>
<path fill="#FFFFFF" d="M-71.557-6.826C-75.37-3.275-79.33,0.166-82.956,3.919c-16.678,17.218-33.052,34.705-49.949,51.678
	c-8.163,8.218-16.979,15.925-27.743,20.891c-5.796,2.697-11.871,4.176-18.204,2.575c-10.228-2.615-15.624-11.052-15.035-23.004
	c0.57-11.314,4.413-21.797,8.883-32.004c6.486-14.914,13.572-29.592,20.402-44.373c8.257-17.928,16.738-35.785,24.719-53.834
	c2.615-5.915,3.948-12.381,5.8-18.635c0.34-1.247,0.252-2.635,0.34-3.96c-0.282-0.19-0.549-0.396-0.831-0.589
	c-1.998,2.003-4.317,3.806-5.987,6.064c-8.431,11.416-16.649,22.958-25.007,34.414c-8.922,12.191-17.621,24.598-27.067,36.413
	c-3.858,4.828-9,8.977-14.364,12.214c-10.342,6.261-22.184,0.805-25.809-11.033c-2.698-8.8-0.217-16.953,3.55-24.622
	c6.052-12.231,12.881-24.087,19.136-36.219c3.243-6.262,5.987-12.803,5.591-20.089c-0.295-4.759-2.426-8.699-6.179-11.622
	c-2.991-2.297-6.28-1.434-9.357-0.02c-6.83,3.135-11.845,8.339-16.27,14.197c-2.317,3.09-5.456,4.074-8.176,2.497
	c-3.394-1.935-4.611-5.476-2.359-8.925c5.966-9.125,13.598-16.603,24.068-20.599c11.639-4.424,21.227,0.383,27.783,10.657
	c5.001,7.795,5.94,16.282,3.224,24.794c-2.572,8.064-6.005,15.899-9.612,23.538c-4.51,9.606-9.844,18.834-14.315,28.415
	c-1.625,3.43-2.065,7.446-2.507,11.239c-0.167,1.394,0.884,3.247,1.997,4.265c0.448,0.422,2.825-0.51,3.715-1.415
	c4.831-4.994,10.015-9.772,13.975-15.398c10.764-15.268,20.838-31.019,31.51-46.376c5.394-7.747,11.192-15.241,17.365-22.386
	c3.921-4.522,8.807-8.339,15.035-9.563c9.524-1.826,18.439,5.878,19.241,16.325c0.572,7.141-0.272,14.131-2.759,20.74
	c-5.397,14.377-10.793,28.715-16.858,42.782c-9.403,21.662-19.634,43.004-28.991,64.716c-3.391,7.854-5.348,16.321-7.815,24.529
	c-0.501,1.558-0.379,3.26-0.589,5.901c3.178-1.849,5.838-3.125,8.136-4.828c10.878-7.982,19.983-17.794,29.085-27.648
	c14.685-15.837,29.422-31.678,44.484-47.193c5.103-5.24,11.04-9.799,18.112-12.594c12.816-5.06,24.7,1.202,27.648,14.59
	c1.28,5.851,0.609,11.644-0.716,17.443c-3.44,15.241-10.202,29.314-16.021,43.679c-5.227,12.83-10.202,25.74-15.048,38.71
	c-1.267,3.41-1.542,7.158-2.279,10.741c-0.375,1.833,0.639,3.12,2.279,3.03c2.991-0.127,6.195-0.167,8.915-1.26
	c8.922-3.538,15.975-9.838,22.91-16.201c5.053-4.65,9.867-9.537,14.799-14.325c4.131-4.045,7.381-4.062,11.469-0.085
	c3.204,3.077,6.407,6.172,9.484,9.357c3.051,3.116,3.333,6.756,0.256,9.747c-12.856,12.492-25.502,25.309-41.688,33.809
	c-10.86,5.724-22.256,8.833-34.568,4.778c-16.393-5.417-23.505-18.069-20.147-35.336c2.74-14.027,8.432-26.998,14.076-40.017
	c6.493-14.921,12.767-29.927,19.093-44.899c0.766-1.816,1.143-3.774,1.69-5.646C-70.818-6.322-71.194-6.577-71.557-6.826z"/>
</svg>
