<?xml version="1.0" encoding="utf-8"?>
<!-- Generator: Adobe Illustrator 16.0.0, SVG Export Plug-In . SVG Version: 6.00 Build 0)  -->
<!DOCTYPE svg PUBLIC "-//W3C//DTD SVG 1.1//EN" "http://www.w3.org/Graphics/SVG/1.1/DTD/svg11.dtd">
<svg version="1.1" id="Layer_1" xmlns="http://www.w3.org/2000/svg" xmlns:xlink="http://www.w3.org/1999/xlink" x="0px" y="0px"
	 width="512px" height="512px" viewBox="0 0 512 512" enable-background="new 0 0 512 512" xml:space="preserve">
<rect fill="none" width="512" height="512"/>
<g>
	<path fill="#FFFFFF" d="M174.759,157.652l-17.104,76.966c0,0,17.104-8.552,51.312-8.552c13.215,0,25.153,6.381,36.799,14.213
		l24.42-84.208c-10.809-8.417-23.199-15.523-44.115-15.523C183.311,140.548,174.759,157.652,174.759,157.652z"/>
	<path fill="#FFFFFF" d="M328.688,183.308c-21.269,0-33.723-7.349-44.667-15.954l-24.047,82.92
		c13.657,9.67,27.472,18.557,43.065,18.557c34.208,0,51.312-17.107,51.312-17.107L380,166.204
		C380,166.204,371.455,183.308,328.688,183.308z"/>
	<path fill="#FFFFFF" d="M149.104,260.271L132,337.244c0,0,17.104-8.559,51.311-8.559c11.916,0,22.79,5.191,33.354,11.948
		l24.498-84.476c-10.064-7.259-21.971-12.987-40.748-12.987C157.655,243.171,149.104,260.271,149.104,260.271z"/>
	<path fill="#FFFFFF" d="M303.04,285.934c-23.455,0-36.187-8.937-48.003-18.642l-24.125,83.183
		c14.779,10.553,29.583,20.978,46.466,20.978c34.207,0,51.311-17.104,51.311-17.104l25.663-85.519
		C354.352,268.83,345.792,285.934,303.04,285.934z"/>
</g>
</svg>
