<?xml version="1.0" encoding="utf-8"?>
<!-- Generator: Adobe Illustrator 16.0.0, SVG Export Plug-In . SVG Version: 6.00 Build 0)  -->
<!DOCTYPE svg PUBLIC "-//W3C//DTD SVG 1.1//EN" "http://www.w3.org/Graphics/SVG/1.1/DTD/svg11.dtd">
<svg version="1.1" id="Layer_1" xmlns="http://www.w3.org/2000/svg" xmlns:xlink="http://www.w3.org/1999/xlink" x="0px" y="0px"
	 width="512px" height="512px" viewBox="0 0 512 512" enable-background="new 0 0 512 512" xml:space="preserve">
<path fill="none" d="M512,512c-170.636,0-341.271,0-512,0C0,341.404,0,170.783,0,0c170.604,0,341.305,0,512,0
	C512,170.595,512,341.279,512,512z M271.41,256.445c0-23.005,0-46.01,0-69.015c-0.007-9.667-0.011-19.335-0.04-29.005
	c-0.016-4.215-1.762-8.18-5.695-9.07c-3.5-0.792-7.575,0.35-11.26,1.225c-1.59,0.377-2.84,2.22-4.23,3.42
	c-19.29,16.678-38.524,33.417-57.945,49.945c-1.93,1.645-4.96,2.785-7.494,2.818c-17.995,0.24-36,0.095-54,0.145
	c-9.235,0.025-13.061,3.887-13.07,13.075c-0.021,23.505-0.015,47.008-0.005,70.513c0.005,10.01,3.56,13.63,13.46,13.641
	c17.33,0.024,34.665-0.131,51.995,0.149c2.845,0.045,6.24,1.26,8.395,3.09c20.195,17.165,40.235,34.505,60.16,51.976
	c4.29,3.771,8.78,5.729,14.08,3.396c5.21-2.29,5.7-7.175,5.69-12.285C271.37,319.125,271.41,287.785,271.41,256.445z M394.21,251.52
	c-0.631-5.385-1.319-15.72-3.136-25.853c-4.796-26.732-15.931-50.725-32.734-72.05c-4.23-5.373-10.091-6.225-14.92-2.558
	c-4.745,3.603-5.415,9.665-1.65,15.095c0.666,0.958,1.405,1.863,2.104,2.795c37.841,50.245,39.115,118.994,3.15,170.6
	c-1.905,2.735-4.061,5.315-5.76,8.165c-3.301,5.525-1.195,12.08,4.51,14.735c4.965,2.31,9.629,0.76,13.8-4.721
	C382.335,327.814,393.67,293.99,394.21,251.52z M357.445,256.555c-0.016-17.137-2.234-31.97-9.16-47.707
	c-4.52-10.283-10.449-20.01-16.42-29.563c-3.266-5.213-9.354-5.74-14.08-2.49c-4.77,3.288-5.85,9.263-2.6,14.575
	c0.604,0.992,1.334,1.91,1.984,2.877c17.63,26.188,23.35,54.725,16.846,85.657c-2.986,14.201-8.756,27.195-17.121,39.031
	c-2.504,3.539-4.85,7.5-2.42,11.483c1.711,2.82,4.875,5.5,7.965,6.552c4.58,1.559,8.211-1.285,10.916-5.132
	C349.25,309.255,357.404,284.205,357.445,256.555z M318.445,254.84c0.024-15.16-4.646-32.087-13.096-45.455
	c-3.99-6.315-9.765-8.147-15.154-4.81c-5.311,3.292-6.284,9.417-2.67,15.735c13.619,23.81,13.66,47.725,0.375,71.68
	c-3.771,6.795-2.654,12.85,3.035,16c5.476,3.029,11.234,0.965,15.004-5.516C314.141,288.38,318.555,273.23,318.445,254.84z"/>
<g>
	<path fill="#FFFFFF" d="M269.813,256.429c0,28.105-0.036,56.21,0.036,84.31c0.009,4.583-0.431,8.964-5.104,11.018
		c-4.752,2.094-8.779,0.336-12.626-3.045c-17.868-15.667-35.839-31.217-53.95-46.61c-1.932-1.642-4.977-2.73-7.528-2.771
		c-15.541-0.251-31.086-0.112-46.627-0.135c-8.878-0.009-12.066-3.256-12.07-12.231c-0.009-21.079-0.014-42.156,0.004-63.235
		c0.009-8.239,3.439-11.702,11.722-11.725c16.142-0.045,32.288,0.085,48.425-0.13c2.273-0.03,4.99-1.052,6.721-2.527
		c17.416-14.821,34.665-29.833,51.964-44.789c1.247-1.076,2.368-2.728,3.794-3.067c3.304-0.785,6.958-1.81,10.098-1.099
		c3.528,0.798,5.094,4.354,5.106,8.134c0.026,8.671,0.03,17.341,0.036,26.011C269.813,215.169,269.813,235.799,269.813,256.429z"/>
	<path fill="#FFFFFF" d="M379.936,252.013c-0.484,38.086-10.649,68.419-31.06,95.246c-3.741,4.913-7.924,6.303-12.376,4.232
		c-5.116-2.381-7.004-8.26-4.044-13.214c1.523-2.556,3.455-4.869,5.165-7.322c32.252-46.277,31.108-107.931-2.824-152.989
		c-0.628-0.836-1.291-1.648-1.888-2.506c-3.376-4.87-2.775-10.306,1.479-13.537c4.331-3.289,9.585-2.524,13.38,2.294
		c15.069,19.124,25.055,40.639,29.354,64.612C378.753,237.915,379.37,247.183,379.936,252.013z"/>
	<path fill="#FFFFFF" d="M346.966,256.528c-0.037,24.796-7.349,47.259-21.604,67.513c-2.426,3.448-5.682,5.999-9.789,4.602
		c-2.771-0.942-5.608-3.345-7.143-5.875c-2.179-3.573-0.075-7.125,2.17-10.299c7.502-10.614,12.676-22.267,15.354-35.002
		c5.833-27.738,0.703-53.329-15.106-76.814c-0.583-0.868-1.238-1.69-1.779-2.58c-2.915-4.765-1.946-10.123,2.331-13.071
		c4.238-2.915,9.698-2.442,12.627,2.233c5.354,8.566,10.671,17.29,14.725,26.511C344.962,227.858,346.952,241.159,346.966,256.528z"
		/>
	<path fill="#FFFFFF" d="M311.991,254.99c0.098,16.492-3.86,30.078-11.214,42.717c-3.382,5.812-8.546,7.663-13.456,4.947
		c-5.102-2.825-6.103-8.255-2.722-14.348c11.913-21.482,11.877-42.929-0.336-64.281c-3.241-5.665-2.368-11.158,2.395-14.111
		c4.834-2.994,10.012-1.35,13.59,4.313C307.826,226.214,312.014,241.395,311.991,254.99z"/>
</g>
</svg>
