<?xml version="1.0" encoding="utf-8"?>
<!-- Generator: Adobe Illustrator 16.0.0, SVG Export Plug-In . SVG Version: 6.00 Build 0)  -->
<!DOCTYPE svg PUBLIC "-//W3C//DTD SVG 1.1//EN" "http://www.w3.org/Graphics/SVG/1.1/DTD/svg11.dtd">
<svg version="1.1" id="Layer_1" xmlns="http://www.w3.org/2000/svg" xmlns:xlink="http://www.w3.org/1999/xlink" x="0px" y="0px"
	 width="512px" height="512px" viewBox="0 0 512 512" enable-background="new 0 0 512 512" xml:space="preserve">
<rect fill="none" width="512" height="512"/>
<path fill="#FFFFFF" d="M168.166,157.833h175.667v41.333H380v139.501h-36.167v15.5H168.166v-15.5H132V199.166h36.166V157.833z
	 M209.5,178.5v67.166h93V178.5H209.5z M302.5,266.333h-93V333.5h93V266.333z M188.834,245.666c-5.707,0-10.334,4.627-10.334,10.334
	s4.627,10.333,10.334,10.333c5.706,0,10.332-4.626,10.332-10.333S194.54,245.666,188.834,245.666z M188.834,209.5
	c-5.707,0-10.334,4.627-10.334,10.333c0,5.707,4.627,10.333,10.334,10.333c5.706,0,10.332-4.626,10.332-10.333
	C199.166,214.127,194.54,209.5,188.834,209.5z M188.834,173.333c-5.707,0-10.334,4.627-10.334,10.333
	c0,5.707,4.627,10.334,10.334,10.334c5.706,0,10.332-4.627,10.332-10.334C199.166,177.96,194.54,173.333,188.834,173.333z
	 M188.834,318c-5.707,0-10.334,4.627-10.334,10.333c0,5.707,4.627,10.334,10.334,10.334c5.706,0,10.332-4.627,10.332-10.334
	C199.166,322.627,194.54,318,188.834,318z M188.834,281.833c-5.707,0-10.334,4.627-10.334,10.334
	c0,5.706,4.627,10.333,10.334,10.333c5.706,0,10.332-4.627,10.332-10.333C199.166,286.46,194.54,281.833,188.834,281.833z
	 M323.167,245.666c-5.707,0-10.334,4.627-10.334,10.334s4.627,10.333,10.334,10.333c5.706,0,10.333-4.626,10.333-10.333
	S328.873,245.666,323.167,245.666z M323.167,209.5c-5.707,0-10.334,4.627-10.334,10.333c0,5.707,4.627,10.333,10.334,10.333
	c5.706,0,10.333-4.626,10.333-10.333C333.5,214.127,328.873,209.5,323.167,209.5z M323.167,173.333
	c-5.707,0-10.334,4.627-10.334,10.333c0,5.707,4.627,10.334,10.334,10.334c5.706,0,10.333-4.627,10.333-10.334
	C333.5,177.96,328.873,173.333,323.167,173.333z M323.167,318c-5.707,0-10.334,4.627-10.334,10.333
	c0,5.707,4.627,10.334,10.334,10.334c5.706,0,10.333-4.627,10.333-10.334C333.5,322.627,328.873,318,323.167,318z M323.167,281.833
	c-5.707,0-10.334,4.627-10.334,10.334c0,5.706,4.627,10.333,10.334,10.333c5.706,0,10.333-4.627,10.333-10.333
	C333.5,286.46,328.873,281.833,323.167,281.833z M157.834,276.667v46.5h10.332v-46.5H157.834z M168.166,214.666h-10.332v46.501
	h10.332V214.666z M144.916,312.833c-4.28,0-7.75,3.472-7.75,7.75c0,4.279,3.47,7.75,7.75,7.75c4.281,0,7.75-3.471,7.75-7.75
	C152.666,316.305,149.197,312.833,144.916,312.833z M144.916,287c-4.28,0-7.75,3.472-7.75,7.75s3.47,7.75,7.75,7.75
	c4.281,0,7.75-3.472,7.75-7.75S149.197,287,144.916,287z M144.916,261.167c-4.28,0-7.75,3.471-7.75,7.75
	c0,4.278,3.47,7.75,7.75,7.75c4.281,0,7.75-3.472,7.75-7.75C152.666,264.638,149.197,261.167,144.916,261.167z M144.916,235.333
	c-4.28,0-7.75,3.472-7.75,7.75s3.47,7.75,7.75,7.75c4.281,0,7.75-3.472,7.75-7.75S149.197,235.333,144.916,235.333z M144.916,209.5
	c-4.28,0-7.75,3.471-7.75,7.75c0,4.278,3.47,7.75,7.75,7.75c4.281,0,7.75-3.472,7.75-7.75
	C152.666,212.971,149.197,209.5,144.916,209.5z M354.167,261.167v-46.501h-10.334v46.501H354.167z M343.833,323.167h10.334v-46.5
	h-10.334V323.167z M367.083,225c4.279,0,7.75-3.472,7.75-7.75c0-4.279-3.471-7.75-7.75-7.75c-4.278,0-7.75,3.471-7.75,7.75
	C359.333,221.528,362.805,225,367.083,225z M367.083,250.833c4.279,0,7.75-3.472,7.75-7.75s-3.471-7.75-7.75-7.75
	c-4.278,0-7.75,3.472-7.75,7.75S362.805,250.833,367.083,250.833z M367.083,276.667c4.279,0,7.75-3.472,7.75-7.75
	c0-4.279-3.471-7.75-7.75-7.75c-4.278,0-7.75,3.471-7.75,7.75C359.333,273.195,362.805,276.667,367.083,276.667z M367.083,302.5
	c4.279,0,7.75-3.472,7.75-7.75s-3.471-7.75-7.75-7.75c-4.278,0-7.75,3.472-7.75,7.75S362.805,302.5,367.083,302.5z M367.083,328.333
	c4.279,0,7.75-3.471,7.75-7.75c0-4.278-3.471-7.75-7.75-7.75c-4.278,0-7.75,3.472-7.75,7.75
	C359.333,324.862,362.805,328.333,367.083,328.333z"/>
</svg>
