<?xml version="1.0" encoding="utf-8"?>
<!-- Generator: Adobe Illustrator 16.0.0, SVG Export Plug-In . SVG Version: 6.00 Build 0)  -->
<!DOCTYPE svg PUBLIC "-//W3C//DTD SVG 1.1//EN" "http://www.w3.org/Graphics/SVG/1.1/DTD/svg11.dtd">
<svg version="1.1" id="Layer_1" xmlns="http://www.w3.org/2000/svg" xmlns:xlink="http://www.w3.org/1999/xlink" x="0px" y="0px"
	 width="512px" height="512px" viewBox="0 0 512 512" enable-background="new 0 0 512 512" xml:space="preserve">
<rect fill="none" width="512" height="512"/>
<path fill="#FFFFFF" d="M132,132h248v248H132V132z M183.666,163v82.666h144.672V163H183.666z M183.666,266.338V349h144.672v-82.662
	H183.666z M157.834,152.666c-8.563,0-15.5,6.939-15.5,15.5c0,8.563,6.938,15.5,15.5,15.5c8.561,0,15.5-6.938,15.5-15.5
	C173.334,159.605,166.395,152.666,157.834,152.666z M157.834,328.338c-8.563,0-15.5,6.934-15.5,15.5c0,8.553,6.938,15.5,15.5,15.5
	c8.561,0,15.5-6.947,15.5-15.5C173.334,335.271,166.395,328.338,157.834,328.338z M157.834,284.412c-8.563,0-15.5,6.947-15.5,15.5
	c0,8.566,6.938,15.5,15.5,15.5c8.561,0,15.5-6.934,15.5-15.5C173.334,291.359,166.395,284.412,157.834,284.412z M157.834,240.5
	c-8.563,0-15.5,6.94-15.5,15.5s6.938,15.5,15.5,15.5c8.561,0,15.5-6.94,15.5-15.5S166.395,240.5,157.834,240.5z M157.834,196.584
	c-8.563,0-15.5,6.938-15.5,15.5c0,8.561,6.938,15.5,15.5,15.5c8.561,0,15.5-6.939,15.5-15.5
	C173.334,203.521,166.395,196.584,157.834,196.584z M354.162,152.666c-8.553,0-15.5,6.939-15.5,15.5c0,8.563,6.947,15.5,15.5,15.5
	c8.566,0,15.5-6.938,15.5-15.5C369.662,159.605,362.729,152.666,354.162,152.666z M354.162,328.338c-8.553,0-15.5,6.934-15.5,15.5
	c0,8.553,6.947,15.5,15.5,15.5c8.566,0,15.5-6.947,15.5-15.5C369.662,335.271,362.729,328.338,354.162,328.338z M354.162,284.412
	c-8.553,0-15.5,6.947-15.5,15.5c0,8.566,6.947,15.5,15.5,15.5c8.566,0,15.5-6.934,15.5-15.5
	C369.662,291.359,362.729,284.412,354.162,284.412z M354.162,240.5c-8.553,0-15.5,6.94-15.5,15.5s6.947,15.5,15.5,15.5
	c8.566,0,15.5-6.94,15.5-15.5S362.729,240.5,354.162,240.5z M354.162,196.584c-8.553,0-15.5,6.938-15.5,15.5
	c0,8.561,6.947,15.5,15.5,15.5c8.566,0,15.5-6.939,15.5-15.5C369.662,203.521,362.729,196.584,354.162,196.584z"/>
</svg>
