<?xml version="1.0" encoding="utf-8"?>
<!-- Generator: Adobe Illustrator 16.0.0, SVG Export Plug-In . SVG Version: 6.00 Build 0)  -->
<!DOCTYPE svg PUBLIC "-//W3C//DTD SVG 1.1//EN" "http://www.w3.org/Graphics/SVG/1.1/DTD/svg11.dtd">
<svg version="1.1" id="Layer_1" xmlns="http://www.w3.org/2000/svg" xmlns:xlink="http://www.w3.org/1999/xlink" x="0px" y="0px"
	 width="512px" height="512px" viewBox="0 0 512 512" enable-background="new 0 0 512 512" xml:space="preserve">
<g id="Layer_1_1_">
</g>
<rect x="0" fill="none" width="512" height="512"/>
<path fill="#FFFFFF" d="M157.701,132.277h112.621c37.06,0,68.604,18.153,68.572,54.864c-0.029,30.653-11.128,42.575-33.931,56.058
	c1.95,1.606,15.018,5.504,19.404,7.666c7.025,3.462,11.159,6.963,15.781,11.663c12.936,13.152,15.349,25.179,15.349,45.811
	c0,47.869-46.302,71.938-90.89,71.938H157.227L157.701,132.277L157.701,132.277z M218.9,197.432l-0.008,32.205
	c29.008,0,56.265,3.821,56.265-27.631c0-29.121-30.835-24.321-56.286-24.321L218.9,197.432L218.9,197.432z M218.884,334.624
	c31.785,0,71.053,5.236,71.745-30.85c0.72-37.645-40.34-30.849-71.727-30.849L218.884,334.624L218.884,334.624z"/>
</svg>
