<?xml version="1.0" encoding="utf-8"?>
<!-- Generator: Adobe Illustrator 16.0.0, SVG Export Plug-In . SVG Version: 6.00 Build 0)  -->
<!DOCTYPE svg PUBLIC "-//W3C//DTD SVG 1.1//EN" "http://www.w3.org/Graphics/SVG/1.1/DTD/svg11.dtd">
<svg version="1.1" id="Layer_1" xmlns="http://www.w3.org/2000/svg" xmlns:xlink="http://www.w3.org/1999/xlink" x="0px" y="0px"
	 width="256px" height="256px" viewBox="0 0 256 256" enable-background="new 0 0 256 256" xml:space="preserve">
<path fill="#59ABE3" d="M92.17,157.186c5.365-3.75,19.752-41.946,20.24-46.563c0.291-2.746-6.179-18.034-6.426-26.616
	c-0.297-10.312,5.584-24.876,13.029-11.014c3.982,7.414,6.639,18.628,4.359,28.464c-1.406,6.064-3.96,6.366-1.578,11.599
	c5.568,12.232,13.547,20.256,22.711,28.446c4.75,4.242,4.654,4.305,12.459,4.324c11.363,0.027,35.445,0.852,34.854,15.229
	c-10.101,9.271-27.771,2.277-39.506-3.365c-6.187-2.975-4.935-4.196-12.498-2.881c-53.151,9.25-31.816,1.625-46.76,21.271
	c-2.549,3.353-14.308,12.086-21.27,12.498c-5.148,0.305-8.243-3.009-7.594-8.349C65.872,166.391,91.327,157.775,92.17,157.186
	L92.17,157.186z M256,119.825v18.581c-1.139,15.654-5.184,31.07-12.332,45.262c-14.338,28.473-32.369,46.037-60.664,60.336
	C161.813,254.713,144.959,256,121,256c-45.668,0-89.5-32.432-109.347-73.654C1.673,161.615,0,145.631,0,122
	C0,75.729,31.774,32.204,72.984,11.984C93.366,1.985,110.292,0,134,0c31.604,0,64.086,16.583,84.75,37.25
	C240.936,59.435,253.811,89.355,256,119.825L256,119.825z"/>
<path fill="#FEFEFE" d="M89.167,163.266c-0.73,8.107-11.023,20.127-16.322,14.846c-2.487-2.479,3.305-7.643,5.151-9.088
	C80.453,167.102,85.357,164.182,89.167,163.266L89.167,163.266z M186.287,158c-6.094,4.004-21.611-0.852-26.494-7.258
	C166.568,150.545,182.359,151.006,186.287,158L186.287,158z M106.015,151.166c4.091-9.869,7.933-17.227,9.871-29.659l11.25,13.36
	c3.704,4.324,7.84,7.479,11.293,11.629L106.015,151.166L106.015,151.166z M118.602,100.672c-2.247-5.089-5.734-18.605-1.602-23.305
	C122.07,82.145,120.538,93.955,118.602,100.672L118.602,100.672z M191.818,161.055c0.592-14.377-23.49-15.201-34.854-15.229
	c-7.805-0.02-7.709-0.082-12.459-4.324c-9.164-8.189-17.143-16.214-22.711-28.446c-2.382-5.233,0.172-5.535,1.578-11.599
	c2.28-9.836-0.377-21.05-4.359-28.464c-7.445-13.862-13.327,0.703-13.029,11.014c0.248,8.583,6.717,23.87,6.426,26.616
	c-0.488,4.616-14.875,42.813-20.24,46.563c-0.843,0.59-26.298,9.205-27.979,23.043c-0.649,5.34,2.446,8.652,7.594,8.349
	c6.962-0.412,18.721-9.146,21.27-12.498c14.943-19.646-6.392-12.021,46.759-21.271c7.564-1.315,6.313-0.094,12.498,2.881
	C164.049,163.332,181.719,170.324,191.818,161.055L191.818,161.055z"/>
<path fill="#59ABE3" d="M106.015,151.166l32.415-4.67c-3.453-4.15-7.59-7.305-11.292-11.629l-11.25-13.36
	C113.948,133.939,110.106,141.297,106.015,151.166L106.015,151.166z"/>
<path fill="#59ABE3" d="M186.287,158c-3.928-6.994-19.719-7.455-26.494-7.258C164.676,157.148,180.193,162.004,186.287,158
	L186.287,158z"/>
<path fill="#59ABE3" d="M89.167,163.266c-3.81,0.916-8.715,3.836-11.171,5.758c-1.847,1.445-7.639,6.609-5.151,9.088
	C78.145,183.393,88.437,171.373,89.167,163.266L89.167,163.266z"/>
<path fill="#59ABE3" d="M118.602,100.672c1.936-6.717,3.468-18.528-1.602-23.305C112.868,82.067,116.355,95.583,118.602,100.672
	L118.602,100.672z"/>
</svg>
