<?xml version="1.0" encoding="utf-8"?>
<!-- Generator: Adobe Illustrator 16.0.0, SVG Export Plug-In . SVG Version: 6.00 Build 0)  -->
<!DOCTYPE svg PUBLIC "-//W3C//DTD SVG 1.1//EN" "http://www.w3.org/Graphics/SVG/1.1/DTD/svg11.dtd">
<svg version="1.1" id="Layer_1" xmlns="http://www.w3.org/2000/svg" xmlns:xlink="http://www.w3.org/1999/xlink" x="0px" y="0px"
	 width="256px" height="256px" viewBox="0 0 256 256" enable-background="new 0 0 256 256" xml:space="preserve">
<path fill="#59ABE3" d="M89.321,64.321L88,63.995h80l-1.322,0.326l0.008,127.441l-3.186,0.256l-70.507,0.066l-3.673-0.406
	L89.321,64.321L89.321,64.321z M256,119.825v18.579c-1.141,15.658-5.186,31.072-12.333,45.264
	c-14.337,28.473-32.367,46.037-60.664,60.337C161.811,254.713,144.958,256,121,256c-45.668,0-89.5-32.43-109.347-73.652
	C1.673,161.615,0,145.63,0,122C0,75.729,31.774,32.204,72.983,11.985C93.366,1.985,110.291,0,134,0
	c31.604,0,64.082,16.584,84.75,37.249C240.936,59.435,253.811,89.355,256,119.825L256,119.825z"/>
<path fill="#FDFDFD" d="M111.496,159c-2.732-22.51,30.32-25.105,32.947-4.605C147.275,176.508,113.935,179.094,111.496,159
	L111.496,159z M97.5,73.833h60.896l0.104,47.15H97.605L97.5,73.833L97.5,73.833z M89.321,191.678l3.673,0.407l70.507-0.067
	l3.187-0.254L166.68,64.322l1.32-0.327H88l1.321,0.326V191.678L89.321,191.678z"/>
<polygon fill="#59ABE3" points="97.605,120.982 158.5,120.982 158.396,73.833 97.5,73.833 "/>
<path fill="#59ABE3" d="M111.496,159c2.438,20.094,35.779,17.508,32.947-4.605C141.816,133.895,108.764,136.49,111.496,159
	L111.496,159z"/>
</svg>
