<?xml version="1.0" standalone="no"?>
<!DOCTYPE svg PUBLIC "-//W3C//DTD SVG 1.1//EN" "http://www.w3.org/Graphics/SVG/1.1/DTD/svg11.dtd" >
<svg>
<metadata>
Created by FontForge 20110222 at Wed Sep  3 04:51:20 2014
 By Orthosie Webhosting
(c) 2011 Microsoft Corporation. All Rights Reserved.
</metadata>
<defs>
<font id="SegoeUI-Light" horiz-adv-x="0" >
  <font-face 
    font-family="Segoe UI Light"
    font-weight="300"
    font-stretch="normal"
    units-per-em="1000"
    panose-1="2 11 5 2 4 2 4 2 2 3"
    ascent="800"
    descent="-200"
    x-height="500"
    cap-height="700"
    bbox="-435 -317 1924 1108"
    underline-thickness="58"
    underline-position="-58"
    stemh="41"
    stemv="45"
    unicode-range="U+000D-FFFD"
  />
<missing-glyph horiz-adv-x="645" 
d="M81 0v683h483v-683h-483zM153 72h339v538h-339v-538z" />
    <glyph glyph-name="uni0627064406440647" unicode="&#x627;&#xfedf;&#xfee0;&#x651;&#x670;&#xfeea;" horiz-adv-x="1203" arabic-form="isolated" 
d="M1087 740h41v-740h-41v740zM479 40c79 0 119 40 119 121v452h41v-453c0 -78 34 -120 108 -120c80 0 114 45 114 126v521h41v-525c0 -106 -54 -169 -158 -169c-63 0 -105 27 -128 70h-2c-28 -43 -71 -70 -137 -70c-61 0 -102 25 -125 65c-8 15 -15 32 -17 52
c-30 -13 -70 -25 -114 -25c-66 0 -114 24 -135 68c-7 14 -11 30 -11 48c0 53 27 88 61 115c48 38 116 60 197 72v54h43v-292c0 -73 33 -110 103 -110zM226 127c43 0 78 10 107 23v197c-65 -8 -121 -24 -162 -52c-28 -19 -54 -46 -54 -87c0 -58 46 -81 109 -81zM757 819
c1 -7 2 -19 2 -27c0 -60 -24 -110 -79 -110c-31 0 -53 16 -61 40h-3c-10 -22 -30 -40 -61 -40c-54 0 -73 48 -73 104c0 11 1 24 3 33h37c-2 -17 -3 -22 -3 -35c0 -35 7 -65 40 -65c12 0 23 5 31 16s13 29 13 53c0 9 -1 23 -1 31h37c-1 -6 -1 -24 -1 -31c0 -42 8 -69 44 -69
c31 0 41 31 41 67c0 9 -2 25 -3 33h37zM639 859h-37v156h37v-156z" />
    <glyph glyph-name="uni064406440647" unicode="&#xfedf;&#xfee0;&#x651;&#x670;&#xfeea;" horiz-adv-x="977" 
d="M479 40c79 0 119 40 119 121v452h41v-453c0 -78 34 -120 108 -120c80 0 114 45 114 126v521h41v-525c0 -106 -54 -169 -158 -169c-63 0 -105 27 -128 70h-2c-28 -43 -71 -70 -137 -70c-61 0 -102 25 -125 65c-8 15 -15 32 -17 52c-30 -13 -70 -25 -114 -25
c-66 0 -114 24 -135 68c-7 14 -11 30 -11 48c0 53 27 88 61 115c48 38 116 60 197 72v54h43v-292c0 -73 33 -110 103 -110zM226 127c43 0 78 10 107 23v197c-65 -8 -121 -24 -162 -52c-28 -19 -54 -46 -54 -87c0 -58 46 -81 109 -81zM757 819c1 -7 2 -19 2 -27
c0 -60 -24 -110 -79 -110c-31 0 -53 16 -61 40h-3c-10 -22 -30 -40 -61 -40c-54 0 -73 48 -73 104c0 11 1 24 3 33h37c-2 -17 -3 -22 -3 -35c0 -35 7 -65 40 -65c12 0 23 5 31 16s13 29 13 53c0 9 -1 23 -1 31h37c-1 -6 -1 -24 -1 -31c0 -42 8 -69 44 -69c31 0 41 31 41 67
c0 9 -2 25 -3 33h37zM639 859h-37v156h37v-156z" />
    <glyph glyph-name="uni0620.init" unicode="&#x620;" horiz-adv-x="263" 
d="M38 40c79 0 109 39 109 119v179h41v-176c0 -106 -45 -169 -150 -169h-38c-19 0 -34 7 -34 24s15 23 34 23h38zM102 34c36 0 60 -22 71 -48c4 -10 7 -20 7 -31c0 -35 -23 -60 -48 -71c-9 -4 -20 -6 -30 -6c-37 0 -61 21 -73 47c-4 9 -6 19 -6 30c0 37 20 62 47 73
c10 4 21 6 32 6zM59 -45c0 -23 20 -41 43 -41s41 18 41 41s-18 43 -41 43c-24 0 -43 -19 -43 -43z" />
    <glyph glyph-name="uni0620.medi" unicode="&#x620;" horiz-adv-x="300" 
d="M47 40c66 0 100 25 100 91v207h41v-207c0 -70 42 -91 113 -91v-47h-24c-41 0 -72 16 -93 37c-7 8 -13 16 -17 25h-2c-17 -38 -55 -62 -111 -62h-54c-19 0 -34 7 -34 24s15 23 34 23h47zM102 34c36 0 60 -22 71 -48c4 -10 7 -20 7 -31c0 -35 -23 -60 -48 -71
c-9 -4 -20 -6 -30 -6c-37 0 -61 21 -73 47c-4 9 -6 19 -6 30c0 37 20 62 47 73c10 4 21 6 32 6zM59 -45c0 -23 20 -41 43 -41s41 18 41 41s-18 43 -41 43c-24 0 -43 -19 -43 -43z" />
    <glyph glyph-name="uni0620.fina" unicode="&#x620;" horiz-adv-x="827" 
d="M132 241c-9 -39 -16 -71 -16 -116c0 -150 86 -201 238 -201c58 0 109 7 147 24c25 11 51 29 51 60c0 19 -9 32 -19 43c-23 26 -56 46 -56 94c0 47 28 80 62 94c12 5 26 8 39 8c48 0 72 -27 92 -58c26 -40 44 -103 79 -130c20 -15 42 -19 78 -19v-47h-11
c-91 0 -124 54 -153 119c-12 28 -23 52 -40 71c-11 12 -22 20 -42 20c-28 0 -49 -15 -59 -34c-3 -7 -4 -14 -4 -21c0 -18 10 -31 19 -42c18 -20 40 -37 51 -63c4 -9 5 -18 5 -29c0 -46 -29 -77 -63 -97c-47 -28 -115 -40 -194 -40c-169 0 -261 72 -261 239c0 47 7 84 17 125
h40zM374 -86c36 0 60 -22 71 -48c4 -10 7 -20 7 -31c0 -35 -23 -60 -48 -71c-9 -4 -20 -6 -30 -6c-37 0 -61 21 -73 47c-4 9 -6 19 -6 30c0 37 20 62 47 73c10 4 21 6 32 6zM331 -165c0 -23 20 -41 43 -41s41 18 41 41s-18 43 -41 43c-24 0 -43 -19 -43 -43z" />
    <glyph glyph-name="uni0621" unicode="&#x621;" horiz-adv-x="413" arabic-form="isolated" 
d="M313 263c-13 4 -42 9 -60 9c-63 0 -108 -29 -127 -72c-6 -14 -10 -29 -10 -45c0 -56 38 -88 83 -101c17 -5 36 -7 56 -7h93v-47h-296l-14 42h105l1 3c-38 22 -69 64 -69 122c0 46 23 82 50 106c29 26 73 46 126 46c20 0 48 -5 62 -9v-47z" />
    <glyph glyph-name="uni0622" unicode="&#x622;" horiz-adv-x="187" arabic-form="isolated" 
d="M75 740h41v-740h-41v740zM261 845c-21 -24 -45 -42 -86 -42c-64 0 -103 37 -167 37c-26 0 -45 -9 -61 -22l-22 23c21 20 46 37 83 37c66 0 101 -38 167 -38c32 0 48 10 65 27z" />
    <glyph glyph-name="uni0623" unicode="&#x623;" horiz-adv-x="187" arabic-form="isolated" 
d="M75 740h41v-740h-41v740zM156 948c-8 2 -18 3 -28 3c-28 0 -47 -11 -57 -29c-3 -6 -5 -13 -5 -21c0 -34 27 -48 63 -48h50v-38h-168v35h46l1 3c-14 12 -27 31 -27 56c0 39 26 62 56 73c12 4 24 7 38 7c10 0 20 -1 31 -3v-38z" />
    <glyph glyph-name="uni0624" unicode="&#x624;" horiz-adv-x="413" arabic-form="isolated" 
d="M0 -160c38 -14 86 -19 137 -19c91 0 139 32 160 102c7 24 13 55 15 90c-26 -12 -63 -20 -99 -20c-69 0 -119 37 -142 85c-8 17 -12 37 -12 58c0 45 20 85 42 112c21 26 55 53 98 53c26 0 47 -8 66 -24c58 -50 88 -141 88 -248c0 -159 -59 -255 -216 -255
c-49 0 -104 8 -137 22v44zM197 254c-29 0 -50 -17 -64 -34c-15 -19 -28 -47 -28 -80c0 -50 30 -80 68 -93c14 -5 29 -7 46 -7c36 0 66 6 90 17c-1 54 -17 105 -37 140c-15 26 -40 57 -75 57zM258 547c-8 2 -18 3 -28 3c-28 0 -47 -11 -57 -29c-3 -6 -5 -13 -5 -21
c0 -34 27 -48 63 -48h50v-38h-168v35h46l1 3c-14 12 -27 31 -27 56c0 39 26 62 56 73c12 4 24 7 38 7c10 0 20 -1 31 -3v-38z" />
    <glyph glyph-name="uni0625" unicode="&#x625;" horiz-adv-x="187" arabic-form="isolated" 
d="M75 740h41v-740h-41v740zM151 -119c-8 2 -18 4 -28 4c-34 0 -63 -18 -63 -51c0 -34 28 -47 64 -47h50v-38h-168v35h46l1 2c-14 12 -27 32 -27 57c0 39 26 62 56 73c12 4 24 6 38 6c10 0 20 -1 31 -3v-38z" />
    <glyph glyph-name="uni0626" unicode="&#x626;" horiz-adv-x="714" arabic-form="isolated" 
d="M116 164c0 -124 76 -165 201 -165c77 0 146 14 195 39c23 12 40 26 53 41s19 31 19 48c0 24 -13 40 -27 52c-43 37 -111 50 -136 105c-5 11 -7 23 -7 37c0 52 32 86 67 108c45 29 108 46 176 55v-44c-62 -5 -114 -18 -152 -42c-25 -16 -50 -40 -50 -74
c0 -31 23 -48 44 -61c26 -16 58 -29 82 -47c23 -18 44 -42 44 -82c0 -60 -40 -100 -82 -127c-57 -36 -138 -55 -233 -55c-148 0 -235 60 -235 202c0 56 19 114 37 155h38c-20 -45 -34 -87 -34 -145zM221 547c-8 2 -18 3 -28 3c-28 0 -47 -11 -57 -29c-3 -6 -5 -13 -5 -21
c0 -34 27 -48 63 -48h50v-38h-168v35h46l1 3c-14 12 -27 31 -27 56c0 39 26 62 56 73c12 4 24 7 38 7c10 0 20 -1 31 -3v-38z" />
    <glyph glyph-name="uni0627" unicode="&#x627;" horiz-adv-x="187" arabic-form="isolated" 
d="M75 740h41v-740h-41v740z" />
    <glyph glyph-name="uni0628" unicode="&#x628;" horiz-adv-x="864" arabic-form="isolated" 
d="M129 263c-7 -24 -13 -56 -13 -88c0 -93 58 -118 141 -129c63 -9 130 -10 210 -10c55 0 102 2 138 6c84 9 144 29 144 117v179h41v-175c0 -114 -70 -148 -174 -164c-44 -7 -99 -10 -165 -10c-83 0 -151 2 -214 13c-71 12 -118 35 -145 88c-11 21 -17 47 -17 77
c0 33 6 70 14 96h40zM467 -150h-53v51h53v-51z" />
    <glyph glyph-name="uni0629" unicode="&#x629;" horiz-adv-x="488" arabic-form="isolated" 
d="M222 392c-18 18 -44 35 -66 49l22 32c71 -47 130 -97 174 -160c30 -43 52 -90 52 -154c0 -82 -42 -134 -102 -157c-21 -8 -42 -12 -66 -12c-76 0 -126 41 -149 95c-8 20 -12 41 -12 65c0 51 17 94 38 129c27 45 64 83 109 113zM116 158c0 -78 48 -121 125 -121
c58 0 96 28 113 69c6 15 9 32 9 51c0 96 -52 165 -113 211c-41 -26 -75 -59 -100 -99c-19 -30 -34 -67 -34 -111zM225 564h-53v51h53v-51zM322 564h-54v51h54v-51z" />
    <glyph glyph-name="uni062A" unicode="&#x62a;" horiz-adv-x="864" arabic-form="isolated" 
d="M129 263c-7 -24 -13 -56 -13 -88c0 -93 58 -118 141 -129c63 -9 130 -10 210 -10c55 0 102 2 138 6c84 9 144 29 144 117v179h41v-175c0 -114 -70 -148 -174 -164c-44 -7 -99 -10 -165 -10c-83 0 -151 2 -214 13c-71 12 -118 35 -145 88c-11 21 -17 47 -17 77
c0 33 6 70 14 96h40zM429 414h-53v51h53v-51zM526 414h-54v51h54v-51z" />
    <glyph glyph-name="uni062B" unicode="&#x62b;" horiz-adv-x="864" arabic-form="isolated" 
d="M129 263c-7 -24 -13 -56 -13 -88c0 -93 58 -118 141 -129c63 -9 130 -10 210 -10c55 0 102 2 138 6c84 9 144 29 144 117v179h41v-175c0 -114 -70 -148 -174 -164c-44 -7 -99 -10 -165 -10c-83 0 -151 2 -214 13c-71 12 -118 35 -145 88c-11 21 -17 47 -17 77
c0 33 6 70 14 96h40zM408 414h-53v51h53v-51zM505 414h-54v51h54v-51zM457 503h-54v51h54v-51z" />
    <glyph glyph-name="uni062C" unicode="&#x62c;" horiz-adv-x="563" arabic-form="isolated" 
d="M97 353c31 11 75 23 115 23c57 0 105 -21 148 -39c45 -18 93 -39 151 -42l-12 -44c-113 -19 -211 -54 -282 -109c-31 -24 -55 -51 -71 -79s-24 -56 -24 -86c0 -88 52 -136 121 -158c27 -8 59 -13 95 -13c73 0 135 12 188 34v-44c-50 -23 -116 -37 -188 -37
c-122 0 -210 42 -246 126c-11 26 -17 53 -17 84c0 34 8 66 25 98c37 71 105 122 183 159c43 20 93 36 146 46v4c-57 12 -105 34 -160 47c-17 4 -35 6 -54 6c-44 0 -85 -8 -118 -20v44zM376 -13h-53v51h53v-51z" />
    <glyph glyph-name="uni062D" unicode="&#x62d;" horiz-adv-x="563" arabic-form="isolated" 
d="M97 353c31 11 75 23 115 23c57 0 105 -21 148 -39c45 -18 93 -39 151 -42l-12 -44c-113 -19 -211 -54 -282 -109c-31 -24 -55 -51 -71 -79s-24 -56 -24 -86c0 -88 52 -136 121 -158c27 -8 59 -13 95 -13c73 0 135 12 188 34v-44c-50 -23 -116 -37 -188 -37
c-122 0 -210 42 -246 126c-11 26 -17 53 -17 84c0 34 8 66 25 98c37 71 105 122 183 159c43 20 93 36 146 46v4c-57 12 -105 34 -160 47c-17 4 -35 6 -54 6c-44 0 -85 -8 -118 -20v44z" />
    <glyph glyph-name="uni062E" unicode="&#x62e;" horiz-adv-x="563" arabic-form="isolated" 
d="M97 353c31 11 75 23 115 23c57 0 105 -21 148 -39c45 -18 93 -39 151 -42l-12 -44c-113 -19 -211 -54 -282 -109c-31 -24 -55 -51 -71 -79s-24 -56 -24 -86c0 -88 52 -136 121 -158c27 -8 59 -13 95 -13c73 0 135 12 188 34v-44c-50 -23 -116 -37 -188 -37
c-122 0 -210 42 -246 126c-11 26 -17 53 -17 84c0 34 8 66 25 98c37 71 105 122 183 159c43 20 93 36 146 46v4c-57 12 -105 34 -160 47c-17 4 -35 6 -54 6c-44 0 -85 -8 -118 -20v44zM300 489h-53v51h53v-51z" />
    <glyph glyph-name="uni062F" unicode="&#x62f;" horiz-adv-x="451" arabic-form="isolated" 
d="M38 47c46 -7 99 -11 151 -11c85 0 146 16 146 99c0 50 -15 89 -35 128c-30 61 -70 114 -115 170h50c44 -54 81 -107 109 -168c18 -40 32 -79 32 -130c0 -107 -71 -146 -182 -146c-43 0 -98 5 -138 11z" />
    <glyph glyph-name="uni0630" unicode="&#x630;" horiz-adv-x="451" arabic-form="isolated" 
d="M38 47c46 -7 99 -11 151 -11c85 0 146 16 146 99c0 50 -15 89 -35 128c-30 61 -70 114 -115 170h50c44 -54 81 -107 109 -168c18 -40 32 -79 32 -130c0 -107 -71 -146 -182 -146c-43 0 -98 5 -138 11zM204 564h-53v51h53v-51z" />
    <glyph glyph-name="uni0631" unicode="&#x631;" horiz-adv-x="375" arabic-form="isolated" 
d="M0 -160c30 -11 65 -19 104 -19c120 0 154 85 154 208c0 100 -28 195 -61 272h49c24 -61 43 -131 51 -206c3 -23 4 -45 4 -66c0 -117 -32 -207 -112 -240c-23 -10 -48 -15 -76 -15c-42 0 -83 10 -113 22v44z" />
    <glyph glyph-name="uni0632" unicode="&#x632;" horiz-adv-x="375" arabic-form="isolated" 
d="M0 -160c30 -11 65 -19 104 -19c120 0 154 85 154 208c0 100 -28 195 -61 272h49c24 -61 43 -131 51 -206c3 -23 4 -45 4 -66c0 -117 -32 -207 -112 -240c-23 -10 -48 -15 -76 -15c-42 0 -83 10 -113 22v44zM226 414h-53v51h53v-51z" />
    <glyph glyph-name="uni0633" unicode="&#x633;" horiz-adv-x="1127" arabic-form="isolated" 
d="M129 113c-8 -37 -13 -72 -13 -113c0 -125 58 -179 184 -179c128 0 185 71 185 200c0 65 -10 128 -23 187h40c3 -13 4 -13 6 -23c5 -20 8 -37 11 -59c8 -59 52 -86 120 -86c74 0 110 42 110 117v106h41v-105c0 -81 40 -118 119 -118c75 0 103 37 103 113v185h41v-186
c0 -98 -49 -159 -146 -159c-72 0 -114 27 -138 74h-2c-23 -44 -62 -74 -128 -74c-49 0 -86 15 -110 39l-3 -1c0 -163 -73 -257 -233 -257c-141 0 -218 73 -218 216c0 44 7 84 16 123h38z" />
    <glyph glyph-name="uni0634" unicode="&#x634;" horiz-adv-x="1127" arabic-form="isolated" 
d="M129 113c-8 -37 -13 -72 -13 -113c0 -125 58 -179 184 -179c128 0 185 71 185 200c0 65 -10 128 -23 187h40c3 -13 4 -13 6 -23c5 -20 8 -37 11 -59c8 -59 52 -86 120 -86c74 0 110 42 110 117v106h41v-105c0 -81 40 -118 119 -118c75 0 103 37 103 113v185h41v-186
c0 -98 -49 -159 -146 -159c-72 0 -114 27 -138 74h-2c-23 -44 -62 -74 -128 -74c-49 0 -86 15 -110 39l-3 -1c0 -163 -73 -257 -233 -257c-141 0 -218 73 -218 216c0 44 7 84 16 123h38zM749 376h-53v51h53v-51zM846 376h-54v51h54v-51zM798 465h-54v51h54v-51z" />
    <glyph glyph-name="uni0635" unicode="&#x635;" horiz-adv-x="1240" arabic-form="isolated" 
d="M129 113c-8 -37 -13 -72 -13 -113c0 -125 58 -179 184 -179c128 0 185 71 185 200c0 65 -10 128 -23 187h40c6 -29 12 -51 17 -82c7 -53 35 -82 83 -86c42 90 97 168 167 223c54 42 118 75 204 75c91 0 151 -44 178 -110c10 -24 15 -51 15 -82c0 -90 -38 -128 -115 -144
c-29 -6 -66 -9 -111 -9c-95 0 -175 0 -261 2c-63 1 -122 2 -150 37c-1 0 -2 -1 -3 -1c0 -163 -73 -257 -233 -257c-141 0 -218 73 -218 216c0 44 7 84 16 123h38zM970 40c69 0 128 7 147 54c5 13 8 29 8 48c0 74 -37 121 -92 140c-19 7 -39 10 -62 10
c-76 0 -135 -28 -182 -65c-60 -46 -107 -112 -142 -187h323z" />
    <glyph glyph-name="uni0636" unicode="&#x636;" horiz-adv-x="1240" arabic-form="isolated" 
d="M129 113c-8 -37 -13 -72 -13 -113c0 -125 58 -179 184 -179c128 0 185 71 185 200c0 65 -10 128 -23 187h40c6 -29 12 -51 17 -82c7 -53 35 -82 83 -86c42 90 97 168 167 223c54 42 118 75 204 75c91 0 151 -44 178 -110c10 -24 15 -51 15 -82c0 -90 -38 -128 -115 -144
c-29 -6 -66 -9 -111 -9c-95 0 -175 0 -261 2c-63 1 -122 2 -150 37c-1 0 -2 -1 -3 -1c0 -163 -73 -257 -233 -257c-141 0 -218 73 -218 216c0 44 7 84 16 123h38zM970 40c69 0 128 7 147 54c5 13 8 29 8 48c0 74 -37 121 -92 140c-19 7 -39 10 -62 10
c-76 0 -135 -28 -182 -65c-60 -46 -107 -112 -142 -187h323zM843 414h-53v51h53v-51z" />
    <glyph glyph-name="uni0637" unicode="&#x637;" horiz-adv-x="789" arabic-form="isolated" 
d="M150 43c7 15 18 34 26 49v648h41v-586l2 -1c50 74 117 140 210 171c29 10 60 14 93 14c91 0 151 -44 178 -110c10 -24 14 -51 14 -82c0 -90 -37 -128 -114 -144c-29 -6 -66 -9 -111 -9c-150 0 -275 -2 -412 5c-12 1 -25 1 -39 2l-16 51c39 -5 85 -7 128 -8zM519 40
c69 0 128 7 147 54c5 13 7 29 7 48c0 74 -36 121 -91 140c-19 7 -39 10 -62 10c-76 0 -135 -28 -182 -65c-60 -46 -107 -112 -142 -187h323z" />
    <glyph glyph-name="uni0638" unicode="&#x638;" horiz-adv-x="789" arabic-form="isolated" 
d="M150 43c7 15 18 34 26 49v648h41v-586l2 -1c50 74 117 140 210 171c29 10 60 14 93 14c91 0 151 -44 178 -110c10 -24 14 -51 14 -82c0 -90 -37 -128 -114 -144c-29 -6 -66 -9 -111 -9c-150 0 -275 -2 -412 5c-12 1 -25 1 -39 2l-16 51c39 -5 85 -7 128 -8zM519 40
c69 0 128 7 147 54c5 13 7 29 7 48c0 74 -36 121 -91 140c-19 7 -39 10 -62 10c-76 0 -135 -28 -182 -65c-60 -46 -107 -112 -142 -187h323zM505 414h-53v51h53v-51z" />
    <glyph glyph-name="uni0639" unicode="&#x639;" horiz-adv-x="488" arabic-form="isolated" 
d="M354 426c-25 6 -54 11 -85 11c-66 0 -112 -32 -131 -79c-7 -16 -10 -32 -10 -50c0 -52 25 -91 60 -109c55 30 119 57 188 73v-46c-94 -23 -173 -55 -228 -107c-37 -35 -64 -78 -64 -140c0 -91 53 -140 125 -161c27 -8 58 -12 92 -12c73 0 140 12 188 34v-44
c-49 -22 -116 -37 -188 -37c-121 0 -209 43 -246 125c-12 26 -17 54 -17 85c0 69 29 121 63 160c14 17 31 31 50 45c-36 29 -68 74 -68 136c0 53 23 94 52 122c31 30 78 52 138 52c29 0 57 -4 81 -10v-48z" />
    <glyph glyph-name="uni063A" unicode="&#x63a;" horiz-adv-x="488" arabic-form="isolated" 
d="M354 426c-25 6 -54 11 -85 11c-66 0 -112 -32 -131 -79c-7 -16 -10 -32 -10 -50c0 -52 25 -91 60 -109c55 30 119 57 188 73v-46c-94 -23 -173 -55 -228 -107c-37 -35 -64 -78 -64 -140c0 -91 53 -140 125 -161c27 -8 58 -12 92 -12c73 0 140 12 188 34v-44
c-49 -22 -116 -37 -188 -37c-121 0 -209 43 -246 125c-12 26 -17 54 -17 85c0 69 29 121 63 160c14 17 31 31 50 45c-36 29 -68 74 -68 136c0 53 23 94 52 122c31 30 78 52 138 52c29 0 57 -4 81 -10v-48zM241 564h-53v51h53v-51z" />
    <glyph glyph-name="uni063B.init" unicode="&#x63b;" horiz-adv-x="451" 
d="M376 153c0 -120 -92 -160 -223 -160h-153c-16 0 -24 8 -24 23s8 24 24 24h138c67 0 120 6 157 30c26 17 40 43 40 83c0 20 -5 39 -15 59s-29 40 -54 62s-60 46 -103 71s-97 52 -163 83v56l414 268v-52l-376 -242c82 -38 151 -74 215 -119c42 -29 75 -59 99 -98
c16 -26 24 -51 24 -88zM91 714h-53v51h53v-51zM188 714h-54v51h54v-51z" />
    <glyph glyph-name="uni063B.medi" unicode="&#x63b;" horiz-adv-x="488" 
d="M0 -7c-15 0 -24 9 -24 24c0 13 9 23 24 23h138c102 0 197 15 197 113c0 20 -5 39 -15 59s-29 40 -54 62s-60 46 -103 71s-97 52 -163 83v56l414 268v-52l-376 -242c81 -38 149 -72 212 -115c41 -28 73 -55 97 -93c17 -28 25 -57 31 -94c8 -53 19 -96 64 -110
c13 -4 28 -6 47 -6v-47h-11c-64 0 -106 32 -123 82h-1c-34 -56 -106 -82 -201 -82h-153zM91 714h-53v51h53v-51zM188 714h-54v51h54v-51z" />
    <glyph glyph-name="uni063B.fina" unicode="&#x63b;" horiz-adv-x="902" 
d="M129 263c-7 -24 -13 -56 -13 -88c0 -92 58 -118 141 -129c63 -9 130 -10 210 -10c50 0 93 1 126 4c63 5 105 17 135 51c14 16 21 36 21 62c0 20 -6 39 -16 59s-28 41 -53 63s-60 46 -103 71s-97 53 -163 83v57l413 266v-52l-376 -241c81 -38 150 -71 213 -115
c41 -29 72 -56 96 -94c17 -28 26 -57 32 -94c8 -53 18 -96 63 -110c13 -4 28 -6 47 -6v-47h-9c-64 0 -107 32 -124 82h-1c-51 -84 -185 -86 -322 -86c-81 0 -147 2 -209 13c-70 12 -118 36 -145 88c-11 21 -17 47 -17 77c0 33 6 70 14 96h40zM505 714h-53v51h53v-51z
M602 714h-54v51h54v-51z" />
    <glyph glyph-name="uni063C.init" unicode="&#x63c;" horiz-adv-x="451" 
d="M376 153c0 -120 -92 -160 -223 -160h-153c-16 0 -24 8 -24 23s8 24 24 24h138c67 0 120 6 157 30c26 17 40 43 40 83c0 20 -5 39 -15 59s-29 40 -54 62s-60 46 -103 71s-97 52 -163 83v56l414 268v-52l-376 -242c82 -38 151 -74 215 -119c42 -29 75 -59 99 -98
c16 -26 24 -51 24 -88zM167 -150h-54v51h54v-51zM263 -150h-54v51h54v-51zM216 -231h-54v51h54v-51z" />
    <glyph glyph-name="uni063C.medi" unicode="&#x63c;" horiz-adv-x="488" 
d="M0 -7c-15 0 -24 9 -24 24c0 13 9 23 24 23h138c102 0 197 15 197 113c0 20 -5 39 -15 59s-29 40 -54 62s-60 46 -103 71s-97 52 -163 83v56l414 268v-52l-376 -242c81 -38 149 -72 212 -115c41 -28 73 -55 97 -93c17 -28 25 -57 31 -94c8 -53 19 -96 64 -110
c13 -4 28 -6 47 -6v-47h-11c-64 0 -106 32 -123 82h-1c-34 -56 -106 -82 -201 -82h-153zM242 -150h-54v51h54v-51zM338 -150h-54v51h54v-51zM291 -231h-54v51h54v-51z" />
    <glyph glyph-name="uni063C.fina" unicode="&#x63c;" horiz-adv-x="902" 
d="M129 263c-7 -24 -13 -56 -13 -88c0 -92 58 -118 141 -129c63 -9 130 -10 210 -10c50 0 93 1 126 4c63 5 105 17 135 51c14 16 21 36 21 62c0 20 -6 39 -16 59s-28 41 -53 63s-60 46 -103 71s-97 53 -163 83v57l413 266v-52l-376 -241c81 -38 150 -71 213 -115
c41 -29 72 -56 96 -94c17 -28 26 -57 32 -94c8 -53 18 -96 63 -110c13 -4 28 -6 47 -6v-47h-9c-64 0 -107 32 -124 82h-1c-51 -84 -185 -86 -322 -86c-81 0 -147 2 -209 13c-70 12 -118 36 -145 88c-11 21 -17 47 -17 77c0 33 6 70 14 96h40zM430 -150h-54v51h54v-51z
M526 -150h-54v51h54v-51zM479 -231h-54v51h54v-51z" />
    <glyph glyph-name="uni063D.init" unicode="&#x63d;" horiz-adv-x="300" 
d="M38 40c79 0 109 39 109 119v179h41v-176c0 -106 -45 -169 -150 -169h-38c-19 0 -34 7 -34 24s15 23 34 23h38zM129 -150h-53v51h53v-51zM226 -150h-54v51h54v-51zM189 586l112 -171h-41l-90 133l-90 -133h-42l113 171h38z" />
    <glyph glyph-name="uni063D.medi" unicode="&#x63d;" horiz-adv-x="300" 
d="M47 40c66 0 100 25 100 91v207h41v-207c0 -70 42 -91 113 -91v-47h-24c-41 0 -72 16 -93 37c-7 8 -13 16 -17 25h-2c-17 -38 -55 -62 -111 -62h-54c-19 0 -34 7 -34 24s15 23 34 23h47zM189 586l112 -171h-41l-90 133l-90 -133h-42l113 171h38zM143 -150h-53v51h53v-51z
M240 -150h-54v51h54v-51z" />
    <glyph glyph-name="uni063D.fina" unicode="&#x63d;" horiz-adv-x="827" 
d="M132 241c-9 -39 -16 -71 -16 -116c0 -150 86 -201 238 -201c58 0 109 7 147 24c25 11 51 29 51 60c0 19 -9 32 -19 43c-23 26 -56 46 -56 94c0 47 28 80 62 94c12 5 26 8 39 8c48 0 72 -27 92 -58c26 -40 44 -103 79 -130c20 -15 42 -19 78 -19v-47h-11
c-91 0 -124 54 -153 119c-12 28 -23 52 -40 71c-11 12 -22 20 -42 20c-28 0 -49 -15 -59 -34c-3 -7 -4 -14 -4 -21c0 -18 10 -31 19 -42c18 -20 40 -37 51 -63c4 -9 5 -18 5 -29c0 -46 -29 -77 -63 -97c-47 -28 -115 -40 -194 -40c-169 0 -261 72 -261 239c0 47 7 84 17 125
h40zM377 510l112 -171h-41l-90 133l-90 -133h-42l113 171h38z" />
    <glyph glyph-name="uni063E.init" unicode="&#x63e;" horiz-adv-x="263" 
d="M38 40c79 0 109 39 109 119v179h41v-176c0 -106 -45 -169 -150 -169h-38c-19 0 -34 7 -34 24s15 23 34 23h38zM147 414h-53v51h53v-51zM244 414h-54v51h54v-51zM129 -150h-53v51h53v-51zM226 -150h-54v51h54v-51z" />
    <glyph glyph-name="uni063E.medi" unicode="&#x63e;" horiz-adv-x="300" 
d="M47 40c66 0 100 25 100 91v207h41v-207c0 -70 42 -91 113 -91v-47h-24c-41 0 -72 16 -93 37c-7 8 -13 16 -17 25h-2c-17 -38 -55 -62 -111 -62h-54c-19 0 -34 7 -34 24s15 23 34 23h47zM147 414h-53v51h53v-51zM244 414h-54v51h54v-51zM147 -150h-53v51h53v-51zM244 -150
h-54v51h54v-51z" />
    <glyph glyph-name="uni063E.fina" unicode="&#x63e;" horiz-adv-x="827" 
d="M132 241c-9 -39 -16 -71 -16 -116c0 -150 86 -201 238 -201c58 0 109 7 147 24c25 11 51 29 51 60c0 19 -9 32 -19 43c-23 26 -56 46 -56 94c0 47 28 80 62 94c12 5 26 8 39 8c48 0 72 -27 92 -58c26 -40 44 -103 79 -130c20 -15 42 -19 78 -19v-47h-11
c-91 0 -124 54 -153 119c-12 28 -23 52 -40 71c-11 12 -22 20 -42 20c-28 0 -49 -15 -59 -34c-3 -7 -4 -14 -4 -21c0 -18 10 -31 19 -42c18 -20 40 -37 51 -63c4 -9 5 -18 5 -29c0 -46 -29 -77 -63 -97c-47 -28 -115 -40 -194 -40c-169 0 -261 72 -261 239c0 47 7 84 17 125
h40zM317 338h-53v51h53v-51zM414 338h-54v51h54v-51z" />
    <glyph glyph-name="uni063F.init" unicode="&#x63f;" horiz-adv-x="263" 
d="M38 40c79 0 109 39 109 119v179h41v-176c0 -106 -45 -169 -150 -169h-38c-19 0 -34 7 -34 24s15 23 34 23h38zM129 -150h-53v51h53v-51zM226 -150h-54v51h54v-51zM147 414h-53v51h53v-51zM244 414h-54v51h54v-51zM196 503h-54v51h54v-51z" />
    <glyph glyph-name="uni063F.medi" unicode="&#x63f;" horiz-adv-x="300" 
d="M47 40c66 0 100 25 100 91v207h41v-207c0 -70 42 -91 113 -91v-47h-24c-41 0 -72 16 -93 37c-7 8 -13 16 -17 25h-2c-17 -38 -55 -62 -111 -62h-54c-19 0 -34 7 -34 24s15 23 34 23h47zM147 -150h-53v51h53v-51zM244 -150h-54v51h54v-51zM147 414h-53v51h53v-51zM244 414
h-54v51h54v-51zM196 503h-54v51h54v-51z" />
    <glyph glyph-name="uni063F.fina" unicode="&#x63f;" horiz-adv-x="827" 
d="M132 241c-9 -39 -16 -71 -16 -116c0 -150 86 -201 238 -201c58 0 109 7 147 24c25 11 51 29 51 60c0 19 -9 32 -19 43c-23 26 -56 46 -56 94c0 47 28 80 62 94c12 5 26 8 39 8c48 0 72 -27 92 -58c26 -40 44 -103 79 -130c20 -15 42 -19 78 -19v-47h-11
c-91 0 -124 54 -153 119c-12 28 -23 52 -40 71c-11 12 -22 20 -42 20c-28 0 -49 -15 -59 -34c-3 -7 -4 -14 -4 -21c0 -18 10 -31 19 -42c18 -20 40 -37 51 -63c4 -9 5 -18 5 -29c0 -46 -29 -77 -63 -97c-47 -28 -115 -40 -194 -40c-169 0 -261 72 -261 239c0 47 7 84 17 125
h40zM317 338h-53v51h53v-51zM414 338h-54v51h54v-51zM366 427h-54v51h54v-51z" />
    <glyph glyph-name="uni0641" unicode="&#x641;" horiz-adv-x="939" arabic-form="isolated" 
d="M129 263c-7 -24 -13 -56 -13 -88c0 -92 58 -118 141 -129c63 -9 130 -10 210 -10c90 0 160 -3 238 4v2s1 0 1 1c-32 16 -57 36 -76 58s-28 47 -28 75c0 48 19 92 41 122c19 26 50 56 90 56c17 0 35 -6 53 -18c36 -24 68 -67 84 -113c8 -23 11 -46 11 -67
c0 -90 -52 -132 -127 -153c-33 -9 -74 -14 -124 -14h-179c-83 0 -150 2 -214 13c-71 12 -118 35 -145 88c-11 21 -17 47 -17 77c0 33 6 70 14 96h40zM840 154c0 39 -18 77 -36 102c-16 22 -43 51 -75 51c-25 0 -46 -24 -58 -42c-14 -22 -28 -53 -28 -86c0 -21 10 -43 30 -64
s52 -42 95 -63c31 12 56 37 67 69c4 11 5 21 5 33zM759 451h-53v51h53v-51z" />
    <glyph glyph-name="uni0642" unicode="&#x642;" horiz-adv-x="676" arabic-form="isolated" 
d="M578 13c-25 -11 -62 -20 -98 -20c-70 0 -120 37 -143 85c-8 17 -12 37 -12 58c0 45 20 85 42 112c21 26 55 53 98 53c26 0 47 -8 66 -24c58 -50 88 -141 88 -248c0 -134 -51 -210 -157 -239c-36 -10 -80 -16 -131 -16c-171 0 -256 72 -256 215c0 48 6 92 14 137h38
c-6 -42 -11 -81 -11 -124c0 -138 81 -181 221 -181c113 0 192 22 223 102c10 24 16 55 18 90zM463 254c-29 0 -50 -17 -64 -34c-15 -19 -28 -47 -28 -80c0 -50 30 -80 68 -93c14 -5 29 -7 46 -7c36 0 66 6 90 17c-1 54 -17 105 -37 140c-15 26 -40 57 -75 57zM429 414h-53
v51h53v-51zM526 414h-54v51h54v-51z" />
    <glyph glyph-name="uni0643" unicode="&#x643;" horiz-adv-x="789" arabic-form="isolated" 
d="M129 263c-7 -24 -13 -56 -13 -88c0 -114 89 -128 200 -133c29 -1 66 -2 110 -2c47 0 85 2 117 6c81 10 130 36 130 124v568h41v-573c0 -110 -64 -148 -162 -163c-38 -6 -84 -9 -138 -9c-75 0 -132 1 -189 11c-63 11 -109 37 -134 85c-11 21 -16 47 -16 78
c0 33 6 69 14 96h40zM327 331c35 0 64 4 86 15c12 6 27 15 27 29c0 13 -13 19 -22 25c-6 4 -13 8 -22 13c-17 9 -29 18 -36 26s-10 18 -10 27c0 24 16 40 33 52c27 18 63 29 106 35v-38c-31 -4 -58 -10 -79 -20c-10 -5 -23 -11 -23 -22c0 -14 10 -19 20 -25
c5 -3 13 -8 21 -13c19 -11 32 -20 39 -29s11 -19 11 -28c0 -28 -18 -46 -38 -58c-28 -17 -68 -25 -113 -27v38z" />
    <glyph glyph-name="uni0644" unicode="&#x644;" horiz-adv-x="639" arabic-form="isolated" 
d="M129 172c-8 -37 -13 -71 -13 -112c0 -128 64 -179 193 -179c143 0 214 57 214 200v659h41v-656c0 -130 -47 -207 -147 -236c-33 -10 -71 -14 -115 -14c-144 0 -227 72 -227 216c0 44 7 83 16 122h38z" />
    <glyph glyph-name="uni0645" unicode="&#x645;" horiz-adv-x="526" arabic-form="isolated" 
d="M64 -250c-14 54 -26 115 -26 175c0 88 37 132 115 143c12 72 33 133 69 176c25 31 60 57 109 57c46 0 79 -23 101 -49c22 -27 39 -65 39 -111c0 -67 -31 -114 -78 -136c-30 -14 -75 -14 -112 -7c-30 6 -59 14 -88 20c-14 3 -28 4 -41 4c-50 0 -73 -42 -73 -92
c0 -49 11 -95 21 -136c4 -16 8 -30 13 -44h-49zM197 59c43 -6 78 -19 126 -19c66 0 104 32 104 97c0 54 -24 93 -62 109c-12 5 -24 8 -37 8c-39 0 -65 -22 -84 -48c-26 -36 -41 -87 -47 -147z" />
    <glyph glyph-name="uni0646" unicode="&#x646;" horiz-adv-x="601" arabic-form="isolated" 
d="M502 208c14 -56 24 -108 24 -177c0 -163 -73 -257 -233 -257c-141 0 -218 73 -218 216c0 44 7 84 16 123h38c-8 -37 -13 -72 -13 -113c0 -125 58 -179 184 -179c128 0 185 71 185 200c0 65 -10 128 -23 187h40zM338 287h-53v51h53v-51z" />
    <glyph glyph-name="uni0647" unicode="&#x647;" horiz-adv-x="488" arabic-form="isolated" 
d="M222 392c-18 18 -44 35 -66 49l22 32c71 -47 130 -97 174 -160c30 -43 52 -90 52 -154c0 -82 -42 -134 -102 -157c-21 -8 -42 -12 -66 -12c-76 0 -126 41 -149 95c-8 20 -12 41 -12 65c0 51 17 94 38 129c27 45 64 83 109 113zM116 158c0 -78 48 -121 125 -121
c58 0 96 28 113 69c6 15 9 32 9 51c0 96 -52 165 -113 211c-41 -26 -75 -59 -100 -99c-19 -30 -34 -67 -34 -111z" />
    <glyph glyph-name="uni0648" unicode="&#x648;" horiz-adv-x="413" arabic-form="isolated" 
d="M0 -160c38 -14 86 -19 137 -19c91 0 139 32 160 102c7 24 13 55 15 90c-26 -12 -63 -20 -99 -20c-69 0 -119 37 -142 85c-8 17 -12 37 -12 58c0 45 20 85 42 112c21 26 55 53 98 53c26 0 47 -8 66 -24c58 -50 88 -141 88 -248c0 -159 -59 -255 -216 -255
c-49 0 -104 8 -137 22v44zM197 254c-29 0 -50 -17 -64 -34c-15 -19 -28 -47 -28 -80c0 -50 30 -80 68 -93c14 -5 29 -7 46 -7c36 0 66 6 90 17c-1 54 -17 105 -37 140c-15 26 -40 57 -75 57z" />
    <glyph glyph-name="uni0649" unicode="&#x649;" horiz-adv-x="714" arabic-form="isolated" 
d="M116 164c0 -124 76 -165 201 -165c77 0 146 14 195 39c23 12 40 26 53 41s19 31 19 48c0 24 -13 40 -27 52c-43 37 -111 50 -136 105c-5 11 -7 23 -7 37c0 52 32 86 67 108c45 29 108 46 176 55v-44c-62 -5 -114 -18 -152 -42c-25 -16 -50 -40 -50 -74
c0 -31 23 -48 44 -61c26 -16 58 -29 82 -47c23 -18 44 -42 44 -82c0 -60 -40 -100 -82 -127c-57 -36 -138 -55 -233 -55c-148 0 -235 60 -235 202c0 56 19 114 37 155h38c-20 -45 -34 -87 -34 -145z" />
    <glyph glyph-name="uni064A" unicode="&#x64a;" horiz-adv-x="714" arabic-form="isolated" 
d="M116 164c0 -124 76 -165 201 -165c77 0 146 14 195 39c23 12 40 26 53 41s19 31 19 48c0 24 -13 40 -27 52c-43 37 -111 50 -136 105c-5 11 -7 23 -7 37c0 52 32 86 67 108c45 29 108 46 176 55v-44c-62 -5 -114 -18 -152 -42c-25 -16 -50 -40 -50 -74
c0 -31 23 -48 44 -61c26 -16 58 -29 82 -47c23 -18 44 -42 44 -82c0 -60 -40 -100 -82 -127c-57 -36 -138 -55 -233 -55c-148 0 -235 60 -235 202c0 56 19 114 37 155h38c-20 -45 -34 -87 -34 -145zM317 -201h-53v51h53v-51zM414 -201h-54v51h54v-51z" />
    <glyph glyph-name="uni066E.init" unicode="&#x66e;" horiz-adv-x="263" 
d="M38 40c79 0 109 39 109 119v179h41v-176c0 -106 -45 -169 -150 -169h-38c-19 0 -34 7 -34 24s15 23 34 23h38z" />
    <glyph glyph-name="uni066E.medi" unicode="&#x66e;" horiz-adv-x="300" 
d="M47 40c66 0 100 25 100 91v207h41v-207c0 -70 42 -91 113 -91v-47h-24c-41 0 -72 16 -93 37c-7 8 -13 16 -17 25h-2c-17 -38 -55 -62 -111 -62h-54c-19 0 -34 7 -34 24s15 23 34 23h47z" />
    <glyph glyph-name="uni066E.fina" unicode="&#x66e;" horiz-adv-x="902" 
d="M129 263c-7 -24 -13 -56 -13 -88c0 -93 58 -118 141 -129c63 -9 130 -10 210 -10c66 0 124 1 175 10c50 9 90 24 102 69c3 13 5 28 5 44v179h41v-207c0 -69 39 -91 112 -91v-47h-15c-63 0 -104 24 -123 67h-2c-39 -44 -101 -59 -183 -66c-35 -3 -78 -5 -128 -5
c-83 0 -151 2 -214 13c-71 12 -118 35 -145 88c-11 21 -17 47 -17 77c0 33 6 70 14 96h40z" />
    <glyph glyph-name="uni066F.init" unicode="&#x66f;" horiz-adv-x="413" 
d="M-34 17c0 17 15 23 34 23h65h29c15 0 15 1 30 1c18 0 38 1 54 2l1 4c-32 16 -56 36 -75 58s-29 47 -29 75c0 48 20 92 42 122c19 26 50 56 90 56c17 0 35 -6 53 -18c36 -24 67 -69 83 -114c8 -23 12 -45 12 -66c0 -94 -57 -136 -136 -155c-32 -8 -70 -12 -115 -12h-104
c-23 0 -34 8 -34 24zM314 158c0 39 -19 77 -37 102c-16 22 -42 51 -74 51c-25 0 -46 -24 -58 -42c-14 -22 -29 -53 -29 -86c0 -21 10 -43 30 -64s53 -42 96 -63c31 12 55 37 66 69c4 11 6 21 6 33z" />
    <glyph glyph-name="uni066F.medi" unicode="&#x66f;" horiz-adv-x="413" 
d="M-34 17c0 17 15 23 34 23h86c35 0 69 1 96 3l1 3c-44 19 -83 50 -100 94c-5 13 -8 26 -8 40c0 48 20 92 42 122c19 26 50 56 90 56c17 0 35 -6 53 -18c36 -24 67 -68 83 -114c8 -23 12 -46 12 -68c0 -54 -26 -90 -62 -114c37 -6 76 -4 121 -4v-47h-16
c-62 0 -109 8 -153 25c-43 -19 -104 -25 -170 -25h-75c-23 0 -34 8 -34 24zM242 56c39 16 72 50 72 102c0 39 -19 77 -37 102c-16 22 -42 51 -74 51c-25 0 -46 -24 -58 -42c-14 -22 -29 -53 -29 -86c0 -22 10 -44 30 -66s53 -42 96 -61z" />
    <glyph glyph-name="uni066F.fina" unicode="&#x66f;" horiz-adv-x="676" 
d="M127 126c-6 -42 -11 -81 -11 -124c0 -138 81 -181 221 -181c109 0 189 11 221 85c10 22 15 52 18 87h-84c-79 0 -134 34 -157 89c-7 17 -10 35 -10 54c0 45 20 85 42 112c21 26 55 53 98 53c26 0 47 -8 66 -24c48 -41 77 -113 86 -195c2 -15 2 -29 2 -42h58v-47h-59
c-7 -78 -26 -135 -73 -171c-50 -38 -122 -48 -214 -48c-171 0 -256 72 -256 215c0 48 6 92 14 137h38zM371 140c0 -68 47 -100 118 -100h87c0 79 -22 146 -60 187c-13 14 -30 27 -53 27c-29 0 -50 -17 -64 -34c-15 -19 -28 -47 -28 -80z" />
    <glyph glyph-name="uni0671" unicode="&#x671;" horiz-adv-x="187" arabic-form="isolated" 
d="M75 740h41v-740h-41v740zM-38 849c19 15 40 29 70 29c9 0 14 -1 21 -3c13 37 29 63 47 80s39 25 62 25c38 0 61 -20 72 -48c4 -9 6 -20 6 -30c0 -41 -23 -68 -53 -81c-11 -5 -24 -8 -37 -8c-38 0 -66 14 -95 23c-8 3 -16 4 -24 4c-18 0 -38 -11 -50 -21zM83 865
c18 -8 39 -14 63 -14c34 0 56 19 56 51c0 24 -20 41 -44 41c-31 0 -56 -26 -75 -78z" />
    <glyph glyph-name="uni0672.fina" unicode="&#x672;" horiz-adv-x="225" 
d="M216 -7c-95 0 -141 45 -141 138v609h41v-580c0 -62 9 -104 57 -115c14 -3 32 -5 53 -5v-47h-10zM-23 849c11 11 22 21 41 21c13 0 21 -6 30 -10c11 -5 24 -9 41 -9l1 2c-14 12 -27 32 -27 57c0 39 26 62 56 73c12 4 24 6 38 6c10 0 20 -1 31 -3v-38c-8 2 -18 4 -28 4
c-33 0 -63 -17 -63 -50c0 -34 28 -48 64 -48h50v-38h-106c-32 0 -53 8 -73 19c-5 2 -9 4 -14 4c-17 0 -29 -12 -40 -22h-1v32z" />
    <glyph glyph-name="uni0673.fina" unicode="&#x673;" horiz-adv-x="225" 
d="M216 -7c-95 0 -141 45 -141 138v609h41v-580c0 -62 9 -104 57 -115c14 -3 32 -5 53 -5v-47h-10zM-23 -213c11 11 22 21 41 21c13 0 21 -6 30 -10c11 -5 24 -9 41 -9l1 2c-14 12 -27 32 -27 57c0 39 26 62 56 73c12 4 24 6 38 6c10 0 20 -1 31 -3v-38c-8 2 -18 4 -28 4
c-33 0 -63 -17 -63 -50c0 -34 28 -48 64 -48h50v-38h-106c-32 0 -53 8 -73 19c-5 2 -9 4 -14 4c-17 0 -29 -12 -40 -22h-1v32z" />
    <glyph glyph-name="uni0675.fina" unicode="&#x675;" horiz-adv-x="375" 
d="M216 -7c-95 0 -141 45 -141 138v609h41v-580c0 -62 9 -104 57 -115c14 -3 32 -5 53 -5v-47h-10zM226 -7c-19 0 -34 7 -34 24c0 15 11 23 34 23h150v-47h-150zM315 697c-8 2 -18 3 -28 3c-28 0 -47 -11 -57 -29c-3 -6 -5 -13 -5 -21c0 -34 27 -48 63 -48h50v-38h-168v35
h46l1 3c-14 12 -27 31 -27 56c0 39 26 62 56 73c12 4 24 7 38 7c10 0 20 -1 31 -3v-38z" />
    <glyph glyph-name="uni0676.fina" unicode="&#x676;" horiz-adv-x="413" 
d="M0 -160c38 -14 86 -19 137 -19c70 0 116 17 142 61c16 28 26 68 31 111h-84c-79 0 -134 34 -157 89c-7 17 -10 35 -10 54c0 45 20 85 42 112c21 26 55 53 98 53c26 0 47 -8 66 -24c56 -48 85 -135 88 -237h61v-47h-62c-10 -139 -67 -219 -215 -219c-49 0 -104 8 -137 22
v44zM197 254c-29 0 -50 -17 -64 -34c-15 -19 -28 -47 -28 -80c0 -69 54 -100 124 -100h81c0 63 -15 116 -38 156c-12 21 -27 40 -47 51c-9 5 -19 7 -28 7zM353 547c-8 2 -18 3 -28 3c-28 0 -47 -11 -57 -29c-3 -6 -5 -13 -5 -21c0 -34 27 -48 63 -48h50v-38h-168v35h46l1 3
c-14 12 -27 31 -27 56c0 39 26 62 56 73c12 4 24 7 38 7c10 0 20 -1 31 -3v-38z" />
    <glyph glyph-name="uni0677" unicode="&#x677;" horiz-adv-x="413" arabic-form="isolated" 
d="M0 -160c38 -14 86 -19 137 -19c91 0 139 32 160 102c7 24 13 55 15 90c-26 -12 -63 -20 -99 -20c-69 0 -119 37 -142 85c-8 17 -12 37 -12 58c0 45 20 85 42 112c21 26 55 53 98 53c26 0 47 -8 66 -24c58 -50 88 -141 88 -248c0 -159 -59 -255 -216 -255
c-49 0 -104 8 -137 22v44zM197 254c-29 0 -50 -17 -64 -34c-15 -19 -28 -47 -28 -80c0 -50 30 -80 68 -93c14 -5 29 -7 46 -7c36 0 66 6 90 17c-1 54 -17 105 -37 140c-15 26 -40 57 -75 57zM96 425c-16 -4 -32 -5 -50 -5c-35 0 -71 5 -99 13c3 11 5 22 8 33
c28 -7 61 -13 95 -13c7 0 13 1 19 2v1c-17 18 -30 40 -30 70c0 39 24 63 53 74c10 4 22 6 33 6c39 0 63 -23 74 -51c4 -10 6 -21 6 -33c0 -18 -6 -34 -17 -49s-29 -28 -55 -38c6 -6 20 -19 26 -24l-26 -20c-7 6 -14 11 -20 17zM109 461c29 7 59 26 59 59c0 28 -20 48 -48 48
c-25 0 -44 -18 -44 -44s17 -52 33 -63zM390 547c-8 2 -18 3 -28 3c-28 0 -47 -11 -57 -29c-3 -6 -5 -13 -5 -21c0 -34 27 -48 63 -48h50v-38h-168v35h46l1 3c-14 12 -27 31 -27 56c0 39 26 62 56 73c12 4 24 7 38 7c10 0 20 -1 31 -3v-38z" />
    <glyph glyph-name="uni0678.init" unicode="&#x678;" horiz-adv-x="413" 
d="M38 40c79 0 109 39 109 119v179h41v-176c0 -106 -45 -169 -150 -169h-38c-19 0 -34 7 -34 24s15 23 34 23h38zM371 547c-8 2 -18 3 -28 3c-28 0 -47 -11 -57 -29c-3 -6 -5 -13 -5 -21c0 -34 27 -48 63 -48h50v-38h-168v35h46l1 3c-14 12 -27 31 -27 56c0 39 26 62 56 73
c12 4 24 7 38 7c10 0 20 -1 31 -3v-38z" />
    <glyph glyph-name="uni0678.medi" unicode="&#x678;" horiz-adv-x="451" 
d="M47 40c66 0 100 25 100 91v207h41v-207c0 -70 42 -91 113 -91v-47h-24c-41 0 -72 16 -93 37c-7 8 -13 16 -17 25h-2c-17 -38 -55 -62 -111 -62h-54c-19 0 -34 7 -34 24s15 23 34 23h47zM301 -7c-19 0 -34 7 -34 24c0 15 11 23 34 23h150v-47h-150zM371 547
c-8 2 -18 3 -28 3c-28 0 -47 -11 -57 -29c-3 -6 -5 -13 -5 -21c0 -34 27 -48 63 -48h50v-38h-168v35h46l1 3c-14 12 -27 31 -27 56c0 39 26 62 56 73c12 4 24 7 38 7c10 0 20 -1 31 -3v-38z" />
    <glyph glyph-name="uni0678.fina" unicode="&#x678;" horiz-adv-x="827" 
d="M132 241c-9 -39 -16 -71 -16 -116c0 -150 86 -201 238 -201c58 0 109 7 147 24c25 11 51 29 51 60c0 19 -9 32 -19 43c-23 26 -56 46 -56 94c0 47 28 80 62 94c12 5 26 8 39 8c48 0 72 -27 92 -58c26 -40 44 -103 79 -130c20 -15 42 -19 78 -19v-47h-11
c-91 0 -124 54 -153 119c-12 28 -23 52 -40 71c-11 12 -22 20 -42 20c-28 0 -49 -15 -59 -34c-3 -7 -4 -14 -4 -21c0 -18 10 -31 19 -42c18 -20 40 -37 51 -63c4 -9 5 -18 5 -29c0 -46 -29 -77 -63 -97c-47 -28 -115 -40 -194 -40c-169 0 -261 72 -261 239c0 47 7 84 17 125
h40zM822 547c-8 2 -18 3 -28 3c-28 0 -47 -11 -57 -29c-3 -6 -5 -13 -5 -21c0 -34 27 -48 63 -48h50v-38h-168v35h46l1 3c-14 12 -27 31 -27 56c0 39 26 62 56 73c12 4 24 7 38 7c10 0 20 -1 31 -3v-38z" />
    <glyph glyph-name="uni0679" unicode="&#x679;" horiz-adv-x="864" arabic-form="isolated" 
d="M129 263c-7 -24 -13 -56 -13 -88c0 -93 58 -118 141 -129c63 -9 130 -10 210 -10c55 0 102 2 138 6c84 9 144 29 144 117v179h41v-175c0 -114 -70 -148 -174 -164c-44 -7 -99 -10 -165 -10c-83 0 -151 2 -214 13c-71 12 -118 35 -145 88c-11 21 -17 47 -17 77
c0 33 6 70 14 96h40zM297 454c14 -1 37 -2 52 -2v225h37v-164h2c20 34 53 65 101 65c37 0 60 -25 70 -53c4 -10 5 -21 5 -32c0 -53 -23 -71 -71 -76c-17 -2 -38 -3 -62 -3c-46 0 -86 0 -127 3zM527 496c0 26 -21 44 -47 44c-22 0 -40 -11 -53 -23c-18 -16 -33 -39 -43 -65
h59c34 0 70 -4 80 19c3 6 4 15 4 25z" />
    <glyph glyph-name="uni067A" unicode="&#x67a;" horiz-adv-x="864" arabic-form="isolated" 
d="M129 263c-7 -24 -13 -56 -13 -88c0 -93 58 -118 141 -129c63 -9 130 -10 210 -10c55 0 102 2 138 6c84 9 144 29 144 117v179h41v-175c0 -114 -70 -148 -174 -164c-44 -7 -99 -10 -165 -10c-83 0 -151 2 -214 13c-71 12 -118 35 -145 88c-11 21 -17 47 -17 77
c0 33 6 70 14 96h40zM467 414h-54v51h54v-51zM467 503h-54v51h54v-51z" />
    <glyph glyph-name="uni067B" unicode="&#x67b;" horiz-adv-x="864" arabic-form="isolated" 
d="M129 263c-7 -24 -13 -56 -13 -88c0 -93 58 -118 141 -129c63 -9 130 -10 210 -10c55 0 102 2 138 6c84 9 144 29 144 117v179h41v-175c0 -114 -70 -148 -174 -164c-44 -7 -99 -10 -165 -10c-83 0 -151 2 -214 13c-71 12 -118 35 -145 88c-11 21 -17 47 -17 77
c0 33 6 70 14 96h40zM467 -239h-54v51h54v-51zM467 -150h-54v51h54v-51z" />
    <glyph glyph-name="uni067C.init" unicode="&#x67c;" horiz-adv-x="263" 
d="M38 40c79 0 109 39 109 119v179h41v-176c0 -106 -45 -169 -150 -169h-38c-19 0 -34 7 -34 24s15 23 34 23h38zM102 34c36 0 60 -22 71 -48c4 -10 7 -20 7 -31c0 -35 -23 -60 -48 -71c-9 -4 -20 -6 -30 -6c-37 0 -61 21 -73 47c-4 9 -6 19 -6 30c0 37 20 62 47 73
c10 4 21 6 32 6zM59 -45c0 -23 20 -41 43 -41s41 18 41 41s-18 43 -41 43c-24 0 -43 -19 -43 -43z" />
    <glyph glyph-name="uni067C.medi" unicode="&#x67c;" horiz-adv-x="300" 
d="M47 40c66 0 100 25 100 91v207h41v-207c0 -70 42 -91 113 -91v-47h-24c-41 0 -72 16 -93 37c-7 8 -13 16 -17 25h-2c-17 -38 -55 -62 -111 -62h-54c-19 0 -34 7 -34 24s15 23 34 23h47zM102 34c36 0 60 -22 71 -48c4 -10 7 -20 7 -31c0 -35 -23 -60 -48 -71
c-9 -4 -20 -6 -30 -6c-37 0 -61 21 -73 47c-4 9 -6 19 -6 30c0 37 20 62 47 73c10 4 21 6 32 6zM59 -45c0 -23 20 -41 43 -41s41 18 41 41s-18 43 -41 43c-24 0 -43 -19 -43 -43z" />
    <glyph glyph-name="uni067C.fina" unicode="&#x67c;" horiz-adv-x="902" 
d="M129 263c-7 -24 -13 -56 -13 -88c0 -93 58 -118 141 -129c63 -9 130 -10 210 -10c66 0 124 1 175 10c50 9 90 24 102 69c3 13 5 28 5 44v179h41v-207c0 -69 39 -91 112 -91v-47h-15c-63 0 -104 24 -123 67h-2c-39 -44 -101 -59 -183 -66c-35 -3 -78 -5 -128 -5
c-83 0 -151 2 -214 13c-71 12 -118 35 -145 88c-11 21 -17 47 -17 77c0 33 6 70 14 96h40zM455 24c36 0 60 -22 71 -48c4 -10 7 -20 7 -31c0 -35 -23 -60 -48 -71c-9 -4 -20 -6 -30 -6c-37 0 -61 21 -73 47c-4 9 -6 19 -6 30c0 37 20 62 47 73c10 4 21 6 32 6zM412 -55
c0 -23 20 -41 43 -41s41 18 41 41s-18 43 -41 43c-24 0 -43 -19 -43 -43z" />
    <glyph glyph-name="uni067D.init" unicode="&#x67d;" horiz-adv-x="263" 
d="M38 40c79 0 109 39 109 119v179h41v-176c0 -106 -45 -169 -150 -169h-38c-19 0 -34 7 -34 24s15 23 34 23h38zM147 494h-54v51h54v-51zM243 494h-54v51h54v-51zM196 413h-54v51h54v-51z" />
    <glyph glyph-name="uni067D.medi" unicode="&#x67d;" horiz-adv-x="300" 
d="M47 40c66 0 100 25 100 91v207h41v-207c0 -70 42 -91 113 -91v-47h-24c-41 0 -72 16 -93 37c-7 8 -13 16 -17 25h-2c-17 -38 -55 -62 -111 -62h-54c-19 0 -34 7 -34 24s15 23 34 23h47zM147 494h-54v51h54v-51zM243 494h-54v51h54v-51zM196 413h-54v51h54v-51z" />
    <glyph glyph-name="uni067D.fina" unicode="&#x67d;" horiz-adv-x="902" 
d="M129 263c-7 -24 -13 -56 -13 -88c0 -93 58 -118 141 -129c63 -9 130 -10 210 -10c66 0 124 1 175 10c50 9 90 24 102 69c3 13 5 28 5 44v179h41v-207c0 -69 39 -91 112 -91v-47h-15c-63 0 -104 24 -123 67h-2c-39 -44 -101 -59 -183 -66c-35 -3 -78 -5 -128 -5
c-83 0 -151 2 -214 13c-71 12 -118 35 -145 88c-11 21 -17 47 -17 77c0 33 6 70 14 96h40zM411 494h-54v51h54v-51zM507 494h-54v51h54v-51zM460 413h-54v51h54v-51z" />
    <glyph glyph-name="uni067E" unicode="&#x67e;" horiz-adv-x="864" arabic-form="isolated" 
d="M129 263c-7 -24 -13 -56 -13 -88c0 -93 58 -118 141 -129c63 -9 130 -10 210 -10c55 0 102 2 138 6c84 9 144 29 144 117v179h41v-175c0 -114 -70 -148 -174 -164c-44 -7 -99 -10 -165 -10c-83 0 -151 2 -214 13c-71 12 -118 35 -145 88c-11 21 -17 47 -17 77
c0 33 6 70 14 96h40zM393 -150h-54v51h54v-51zM489 -150h-54v51h54v-51zM442 -231h-54v51h54v-51z" />
    <glyph glyph-name="uni067F" unicode="&#x67f;" horiz-adv-x="864" arabic-form="isolated" 
d="M129 263c-7 -24 -13 -56 -13 -88c0 -93 58 -118 141 -129c63 -9 130 -10 210 -10c55 0 102 2 138 6c84 9 144 29 144 117v179h41v-175c0 -114 -70 -148 -174 -164c-44 -7 -99 -10 -165 -10c-83 0 -151 2 -214 13c-71 12 -118 35 -145 88c-11 21 -17 47 -17 77
c0 33 6 70 14 96h40zM429 414h-53v51h53v-51zM526 414h-54v51h54v-51zM429 513h-53v51h53v-51zM526 513h-54v51h54v-51z" />
    <glyph glyph-name="uni0680" unicode="&#x680;" horiz-adv-x="864" arabic-form="isolated" 
d="M129 263c-7 -24 -13 -56 -13 -88c0 -93 58 -118 141 -129c63 -9 130 -10 210 -10c55 0 102 2 138 6c84 9 144 29 144 117v179h41v-175c0 -114 -70 -148 -174 -164c-44 -7 -99 -10 -165 -10c-83 0 -151 2 -214 13c-71 12 -118 35 -145 88c-11 21 -17 47 -17 77
c0 33 6 70 14 96h40zM392 -248h-53v51h53v-51zM489 -248h-54v51h54v-51zM392 -149h-53v51h53v-51zM489 -149h-54v51h54v-51z" />
    <glyph glyph-name="uni0681.init" unicode="&#x681;" horiz-adv-x="601" 
d="M75 314c33 12 73 24 117 24c39 0 73 -9 105 -18c55 -16 109 -36 169 -47c20 -4 39 -6 60 -6l-7 -44c-20 -4 -39 -13 -58 -26c-43 -30 -84 -65 -128 -98c-51 -39 -111 -70 -183 -90c-37 -10 -79 -16 -126 -16h-24c-23 0 -34 8 -34 24c0 17 15 23 34 23h29
c175 0 268 78 365 155c18 14 37 28 57 40v2c-66 10 -128 34 -193 47c-22 4 -43 7 -64 7c-44 0 -86 -8 -119 -20v43zM296 584c-8 2 -18 3 -28 3c-28 0 -47 -11 -57 -29c-3 -6 -5 -13 -5 -21c0 -34 27 -48 63 -48h50v-38h-168v35h46l1 3c-14 12 -27 31 -27 56
c0 39 26 62 56 73c12 4 24 7 38 7c10 0 20 -1 31 -3v-38z" />
    <glyph glyph-name="uni0681.medi" unicode="&#x681;" horiz-adv-x="584" 
d="M75 314c33 12 73 24 117 24c39 0 73 -9 105 -18c55 -16 109 -36 169 -47c20 -4 39 -6 60 -6l-7 -44c-26 -4 -48 -15 -68 -29c0 -96 39 -154 133 -154v-47h-9c-111 0 -154 75 -158 183c-32 -17 -62 -44 -93 -67c-59 -44 -125 -85 -208 -105c-28 -7 -59 -11 -92 -11h-24
c-23 0 -34 8 -34 24c0 17 15 23 34 23h20c137 0 219 58 300 115c42 29 82 58 131 80v2c-66 10 -128 34 -193 47c-22 4 -43 7 -64 7c-44 0 -86 -8 -119 -20v43zM296 584c-8 2 -18 3 -28 3c-28 0 -47 -11 -57 -29c-3 -6 -5 -13 -5 -21c0 -34 27 -48 63 -48h50v-38h-168v35h46
l1 3c-14 12 -27 31 -27 56c0 39 26 62 56 73c12 4 24 7 38 7c10 0 20 -1 31 -3v-38z" />
    <glyph glyph-name="uni0681.fina" unicode="&#x681;" horiz-adv-x="563" 
d="M97 353c31 11 75 23 115 23c57 0 105 -21 148 -39c45 -18 93 -39 151 -42l-7 -44c-16 -1 -39 -4 -53 -7c0 -37 1 -69 3 -95c5 -68 22 -109 93 -109h17v-47h-4c-93 0 -125 47 -136 130c-4 31 -7 68 -7 113c-91 -20 -168 -58 -222 -110c-25 -23 -43 -48 -55 -74
c-22 -46 -25 -97 -5 -144c30 -69 103 -102 203 -102c73 0 135 12 188 34v-44c-50 -23 -116 -37 -188 -37c-122 0 -210 42 -246 126c-11 26 -17 53 -17 84c0 82 45 144 94 187c64 57 155 96 260 116v4c-57 12 -105 34 -160 47c-17 4 -35 6 -54 6c-44 0 -85 -8 -118 -20v44z
M353 622c-8 2 -18 3 -28 3c-28 0 -47 -11 -57 -29c-3 -6 -5 -13 -5 -21c0 -34 27 -48 63 -48h50v-38h-168v35h46l1 3c-14 12 -27 31 -27 56c0 39 26 62 56 73c12 4 24 7 38 7c10 0 20 -1 31 -3v-38z" />
    <glyph glyph-name="uni0682.init" unicode="&#x682;" horiz-adv-x="601" 
d="M75 314c33 12 73 24 117 24c39 0 73 -9 105 -18c55 -16 109 -36 169 -47c20 -4 39 -6 60 -6l-7 -44c-20 -4 -39 -13 -58 -26c-43 -30 -84 -65 -128 -98c-51 -39 -111 -70 -183 -90c-37 -10 -79 -16 -126 -16h-24c-23 0 -34 8 -34 24c0 17 15 23 34 23h29
c175 0 268 78 365 155c18 14 37 28 57 40v2c-66 10 -128 34 -193 47c-22 4 -43 7 -64 7c-44 0 -86 -8 -119 -20v43zM317 414h-54v51h54v-51zM317 503h-54v51h54v-51z" />
    <glyph glyph-name="uni0682.medi" unicode="&#x682;" horiz-adv-x="584" 
d="M75 314c33 12 73 24 117 24c39 0 73 -9 105 -18c55 -16 109 -36 169 -47c20 -4 39 -6 60 -6l-7 -44c-26 -4 -48 -15 -68 -29c0 -96 39 -154 133 -154v-47h-9c-111 0 -154 75 -158 183c-32 -17 -62 -44 -93 -67c-59 -44 -125 -85 -208 -105c-28 -7 -59 -11 -92 -11h-24
c-23 0 -34 8 -34 24c0 17 15 23 34 23h20c137 0 219 58 300 115c42 29 82 58 131 80v2c-66 10 -128 34 -193 47c-22 4 -43 7 -64 7c-44 0 -86 -8 -119 -20v43zM317 414h-54v51h54v-51zM317 503h-54v51h54v-51z" />
    <glyph glyph-name="uni0682.fina" unicode="&#x682;" horiz-adv-x="563" 
d="M97 353c31 11 75 23 115 23c57 0 105 -21 148 -39c45 -18 93 -39 151 -42l-7 -44c-16 -1 -39 -4 -53 -7c0 -37 1 -69 3 -95c5 -68 22 -109 93 -109h17v-47h-4c-93 0 -125 47 -136 130c-4 31 -7 68 -7 113c-91 -20 -168 -58 -222 -110c-25 -23 -43 -48 -55 -74
c-22 -46 -25 -97 -5 -144c30 -69 103 -102 203 -102c73 0 135 12 188 34v-44c-50 -23 -116 -37 -188 -37c-122 0 -210 42 -246 126c-11 26 -17 53 -17 84c0 82 45 144 94 187c64 57 155 96 260 116v4c-57 12 -105 34 -160 47c-17 4 -35 6 -54 6c-44 0 -85 -8 -118 -20v44z
M317 489h-54v51h54v-51zM317 578h-54v51h54v-51z" />
    <glyph glyph-name="uni0683" unicode="&#x683;" horiz-adv-x="563" arabic-form="isolated" 
d="M97 353c31 11 75 23 115 23c57 0 105 -21 148 -39c45 -18 93 -39 151 -42l-12 -44c-113 -19 -211 -54 -282 -109c-31 -24 -55 -51 -71 -79s-24 -56 -24 -86c0 -88 52 -136 121 -158c27 -8 59 -13 95 -13c73 0 135 12 188 34v-44c-50 -23 -116 -37 -188 -37
c-122 0 -210 42 -246 126c-11 26 -17 53 -17 84c0 34 8 66 25 98c37 71 105 122 183 159c43 20 93 36 146 46v4c-57 12 -105 34 -160 47c-17 4 -35 6 -54 6c-44 0 -85 -8 -118 -20v44zM317 -13h-53v51h53v-51zM414 -13h-54v51h54v-51z" />
    <glyph glyph-name="uni0684" unicode="&#x684;" horiz-adv-x="563" arabic-form="isolated" 
d="M97 353c31 11 75 23 115 23c57 0 105 -21 148 -39c45 -18 93 -39 151 -42l-12 -44c-113 -19 -211 -54 -282 -109c-31 -24 -55 -51 -71 -79s-24 -56 -24 -86c0 -88 52 -136 121 -158c27 -8 59 -13 95 -13c73 0 135 12 188 34v-44c-50 -23 -116 -37 -188 -37
c-122 0 -210 42 -246 126c-11 26 -17 53 -17 84c0 34 8 66 25 98c37 71 105 122 183 159c43 20 93 36 146 46v4c-57 12 -105 34 -160 47c-17 4 -35 6 -54 6c-44 0 -85 -8 -118 -20v44zM376 -64h-54v51h54v-51zM376 25h-54v51h54v-51z" />
    <glyph glyph-name="uni0685.init" unicode="&#x685;" horiz-adv-x="601" 
d="M75 314c33 12 73 24 117 24c39 0 73 -9 105 -18c55 -16 109 -36 169 -47c20 -4 39 -6 60 -6l-7 -44c-20 -4 -39 -13 -58 -26c-43 -30 -84 -65 -128 -98c-51 -39 -111 -70 -183 -90c-37 -10 -79 -16 -126 -16h-24c-23 0 -34 8 -34 24c0 17 15 23 34 23h29
c175 0 268 78 365 155c18 14 37 28 57 40v2c-66 10 -128 34 -193 47c-22 4 -43 7 -64 7c-44 0 -86 -8 -119 -20v43zM241 414h-53v51h53v-51zM338 414h-54v51h54v-51zM290 503h-54v51h54v-51z" />
    <glyph glyph-name="uni0685.medi" unicode="&#x685;" horiz-adv-x="584" 
d="M75 314c33 12 73 24 117 24c39 0 73 -9 105 -18c55 -16 109 -36 169 -47c20 -4 39 -6 60 -6l-7 -44c-26 -4 -48 -15 -68 -29c0 -96 39 -154 133 -154v-47h-9c-111 0 -154 75 -158 183c-32 -17 -62 -44 -93 -67c-59 -44 -125 -85 -208 -105c-28 -7 -59 -11 -92 -11h-24
c-23 0 -34 8 -34 24c0 17 15 23 34 23h20c137 0 219 58 300 115c42 29 82 58 131 80v2c-66 10 -128 34 -193 47c-22 4 -43 7 -64 7c-44 0 -86 -8 -119 -20v43zM241 414h-53v51h53v-51zM338 414h-54v51h54v-51zM290 503h-54v51h54v-51z" />
    <glyph glyph-name="uni0685.fina" unicode="&#x685;" horiz-adv-x="563" 
d="M97 353c31 11 75 23 115 23c57 0 105 -21 148 -39c45 -18 93 -39 151 -42l-7 -44c-16 -1 -39 -4 -53 -7c0 -37 1 -69 3 -95c5 -68 22 -109 93 -109h17v-47h-4c-93 0 -125 47 -136 130c-4 31 -7 68 -7 113c-91 -20 -168 -58 -222 -110c-25 -23 -43 -48 -55 -74
c-22 -46 -25 -97 -5 -144c30 -69 103 -102 203 -102c73 0 135 12 188 34v-44c-50 -23 -116 -37 -188 -37c-122 0 -210 42 -246 126c-11 26 -17 53 -17 84c0 82 45 144 94 187c64 57 155 96 260 116v4c-57 12 -105 34 -160 47c-17 4 -35 6 -54 6c-44 0 -85 -8 -118 -20v44z
M279 489h-53v51h53v-51zM376 489h-54v51h54v-51zM328 578h-54v51h54v-51z" />
    <glyph glyph-name="uni0686" unicode="&#x686;" horiz-adv-x="563" arabic-form="isolated" 
d="M97 353c31 11 75 23 115 23c57 0 105 -21 148 -39c45 -18 93 -39 151 -42l-12 -44c-113 -19 -211 -54 -282 -109c-31 -24 -55 -51 -71 -79s-24 -56 -24 -86c0 -88 52 -136 121 -158c27 -8 59 -13 95 -13c73 0 135 12 188 34v-44c-50 -23 -116 -37 -188 -37
c-122 0 -210 42 -246 126c-11 26 -17 53 -17 84c0 34 8 66 25 98c37 71 105 122 183 159c43 20 93 36 146 46v4c-57 12 -105 34 -160 47c-17 4 -35 6 -54 6c-44 0 -85 -8 -118 -20v44zM337 16h-54v51h54v-51zM433 16h-54v51h54v-51zM386 -65h-54v51h54v-51z" />
    <glyph glyph-name="uni0687" unicode="&#x687;" horiz-adv-x="563" arabic-form="isolated" 
d="M97 353c31 11 75 23 115 23c57 0 105 -21 148 -39c45 -18 93 -39 151 -42l-12 -44c-113 -19 -211 -54 -282 -109c-31 -24 -55 -51 -71 -79s-24 -56 -24 -86c0 -88 52 -136 121 -158c27 -8 59 -13 95 -13c73 0 135 12 188 34v-44c-50 -23 -116 -37 -188 -37
c-122 0 -210 42 -246 126c-11 26 -17 53 -17 84c0 34 8 66 25 98c37 71 105 122 183 159c43 20 93 36 146 46v4c-57 12 -105 34 -160 47c-17 4 -35 6 -54 6c-44 0 -85 -8 -118 -20v44zM317 -74h-53v51h53v-51zM414 -74h-54v51h54v-51zM317 25h-53v51h53v-51zM414 25h-54v51
h54v-51z" />
    <glyph glyph-name="uni0688" unicode="&#x688;" horiz-adv-x="451" arabic-form="isolated" 
d="M38 47c46 -7 99 -11 151 -11c85 0 146 16 146 99c0 50 -15 89 -35 128c-30 61 -70 114 -115 170h50c44 -54 81 -107 109 -168c18 -40 32 -79 32 -130c0 -107 -71 -146 -182 -146c-43 0 -98 5 -138 11zM61 604c14 -1 37 -2 52 -2v225h37v-164h2c20 34 53 65 101 65
c37 0 60 -25 70 -53c4 -10 5 -21 5 -32c0 -53 -23 -71 -71 -76c-17 -2 -38 -3 -62 -3c-46 0 -86 0 -127 3zM291 646c0 26 -21 44 -47 44c-22 0 -40 -11 -53 -23c-18 -16 -33 -39 -43 -65h59c34 0 70 -4 80 19c3 6 4 15 4 25z" />
    <glyph glyph-name="uni0689.fina" unicode="&#x689;" horiz-adv-x="488" 
d="M38 47c47 -7 100 -11 153 -11c73 0 143 6 143 76c0 22 -6 59 -20 111s-34 120 -61 205h46c27 -90 50 -182 77 -274c11 -38 22 -70 44 -92c17 -16 37 -22 69 -22v-47h-19c-54 0 -88 33 -103 73h-3c-26 -60 -80 -77 -168 -77c-45 0 -98 5 -140 11zM209 25
c36 0 60 -22 71 -48c4 -10 7 -20 7 -31c0 -35 -23 -60 -48 -71c-9 -4 -20 -6 -30 -6c-37 0 -61 21 -73 47c-4 9 -6 19 -6 30c0 37 20 62 47 73c10 4 21 6 32 6zM166 -54c0 -23 20 -41 43 -41s41 18 41 41s-18 43 -41 43c-24 0 -43 -19 -43 -43z" />
    <glyph glyph-name="uni068A.fina" unicode="&#x68a;" horiz-adv-x="488" 
d="M38 47c47 -7 100 -11 153 -11c73 0 143 6 143 76c0 22 -6 59 -20 111s-34 120 -61 205h46c27 -90 50 -182 77 -274c11 -38 22 -70 44 -92c17 -16 37 -22 69 -22v-47h-19c-54 0 -88 33 -103 73h-3c-26 -60 -80 -77 -168 -77c-45 0 -98 5 -140 11zM241 -150h-53v51h53v-51z
" />
    <glyph glyph-name="uni068B.fina" unicode="&#x68b;" horiz-adv-x="488" 
d="M38 47c47 -7 100 -11 153 -11c73 0 143 6 143 76c0 22 -6 59 -20 111s-34 120 -61 205h46c27 -90 50 -182 77 -274c11 -38 22 -70 44 -92c17 -16 37 -22 69 -22v-47h-19c-54 0 -88 33 -103 73h-3c-26 -60 -80 -77 -168 -77c-45 0 -98 5 -140 11zM300 564h-53v51h53v-51z
M241 -150h-53v51h53v-51z" />
    <glyph glyph-name="uni068C" unicode="&#x68c;" horiz-adv-x="451" arabic-form="isolated" 
d="M38 47c46 -7 99 -11 151 -11c85 0 146 16 146 99c0 50 -15 89 -35 128c-30 61 -70 114 -115 170h50c44 -54 81 -107 109 -168c18 -40 32 -79 32 -130c0 -107 -71 -146 -182 -146c-43 0 -98 5 -138 11zM166 564h-53v51h53v-51zM263 564h-54v51h54v-51z" />
    <glyph glyph-name="uni068D" unicode="&#x68d;" horiz-adv-x="451" arabic-form="isolated" 
d="M38 47c46 -7 99 -11 151 -11c85 0 146 16 146 99c0 50 -15 89 -35 128c-30 61 -70 114 -115 170h50c44 -54 81 -107 109 -168c18 -40 32 -79 32 -130c0 -107 -71 -146 -182 -146c-43 0 -98 5 -138 11zM188 -150h-53v51h53v-51zM285 -150h-54v51h54v-51z" />
    <glyph glyph-name="uni068E" unicode="&#x68e;" horiz-adv-x="451" arabic-form="isolated" 
d="M38 47c46 -7 99 -11 151 -11c85 0 146 16 146 99c0 50 -15 89 -35 128c-30 61 -70 114 -115 170h50c44 -54 81 -107 109 -168c18 -40 32 -79 32 -130c0 -107 -71 -146 -182 -146c-43 0 -98 5 -138 11zM166 564h-53v51h53v-51zM263 564h-54v51h54v-51zM215 653h-54v51h54
v-51z" />
    <glyph glyph-name="uni068F.fina" unicode="&#x68f;" horiz-adv-x="488" 
d="M38 47c47 -7 100 -11 153 -11c73 0 143 6 143 76c0 22 -6 59 -20 111s-34 120 -61 205h46c27 -90 50 -182 77 -274c11 -38 22 -70 44 -92c17 -16 37 -22 69 -22v-47h-19c-54 0 -88 33 -103 73h-3c-26 -60 -80 -77 -168 -77c-45 0 -98 5 -140 11zM252 645h-54v51h54v-51z
M348 645h-54v51h54v-51zM301 564h-54v51h54v-51z" />
    <glyph glyph-name="uni0690.fina" unicode="&#x690;" horiz-adv-x="488" 
d="M38 47c47 -7 100 -11 153 -11c73 0 143 6 143 76c0 22 -6 59 -20 111s-34 120 -61 205h46c27 -90 50 -182 77 -274c11 -38 22 -70 44 -92c17 -16 37 -22 69 -22v-47h-19c-54 0 -88 33 -103 73h-3c-26 -60 -80 -77 -168 -77c-45 0 -98 5 -140 11zM249 564h-53v51h53v-51z
M346 564h-54v51h54v-51zM249 663h-53v51h53v-51zM346 663h-54v51h54v-51z" />
    <glyph glyph-name="uni0691" unicode="&#x691;" horiz-adv-x="375" arabic-form="isolated" 
d="M0 -160c30 -11 65 -19 104 -19c120 0 154 85 154 208c0 100 -28 195 -61 272h49c24 -61 43 -131 51 -206c3 -23 4 -45 4 -66c0 -117 -32 -207 -112 -240c-23 -10 -48 -15 -76 -15c-42 0 -83 10 -113 22v44zM61 454c14 -1 37 -2 52 -2v225h37v-164h2c20 34 53 65 101 65
c37 0 60 -25 70 -53c4 -10 5 -21 5 -32c0 -53 -23 -71 -71 -76c-17 -2 -38 -3 -62 -3c-46 0 -86 0 -127 3zM291 496c0 26 -21 44 -47 44c-22 0 -40 -11 -53 -23c-18 -16 -33 -39 -43 -65h59c34 0 70 -4 80 19c3 6 4 15 4 25z" />
    <glyph glyph-name="uni0692.fina" unicode="&#x692;" horiz-adv-x="375" 
d="M258 29c0 100 -28 195 -61 272h49c16 -48 35 -109 44 -164c7 -42 25 -77 58 -91c9 -4 19 -6 28 -6v-47h-2c-38 0 -56 12 -71 36c-1 0 -1 -1 -2 -1c0 -85 -16 -150 -52 -195c-30 -37 -74 -59 -136 -59c-42 0 -83 10 -113 22v44c30 -11 65 -19 104 -19
c120 0 154 85 154 208zM188 415l-113 171h42l90 -133l90 133h41l-112 -171h-38z" />
    <glyph glyph-name="uni0693.fina" unicode="&#x693;" horiz-adv-x="375" 
d="M258 29c0 100 -28 195 -61 272h49c16 -48 35 -109 44 -164c7 -42 25 -77 58 -91c9 -4 19 -6 28 -6v-47h-2c-38 0 -56 12 -71 36c-1 0 -1 -1 -2 -1c0 -85 -16 -150 -52 -195c-30 -37 -74 -59 -136 -59c-42 0 -83 10 -113 22v44c30 -11 65 -19 104 -19
c120 0 154 85 154 208zM298 -94c36 0 60 -22 71 -48c4 -10 7 -20 7 -31c0 -35 -23 -60 -48 -71c-9 -4 -20 -6 -30 -6c-37 0 -61 21 -73 47c-4 9 -6 19 -6 30c0 37 20 62 47 73c10 4 21 6 32 6zM255 -173c0 -23 20 -41 43 -41s41 18 41 41s-18 43 -41 43
c-24 0 -43 -19 -43 -43z" />
    <glyph glyph-name="uni0694.fina" unicode="&#x694;" horiz-adv-x="375" 
d="M258 29c0 100 -28 195 -61 272h49c16 -48 35 -109 44 -164c7 -42 25 -77 58 -91c9 -4 19 -6 28 -6v-47h-2c-38 0 -56 12 -71 36c-1 0 -1 -1 -2 -1c0 -85 -16 -150 -52 -195c-30 -37 -74 -59 -136 -59c-42 0 -83 10 -113 22v44c30 -11 65 -19 104 -19
c120 0 154 85 154 208zM354 -225h-53v51h53v-51z" />
    <glyph glyph-name="uni0695.fina" unicode="&#x695;" horiz-adv-x="375" 
d="M258 29c0 100 -28 195 -61 272h49c16 -48 35 -109 44 -164c7 -42 25 -77 58 -91c9 -4 19 -6 28 -6v-47h-2c-38 0 -56 12 -71 36c-1 0 -1 -1 -2 -1c0 -85 -16 -150 -52 -195c-30 -37 -74 -59 -136 -59c-42 0 -83 10 -113 22v44c30 -11 65 -19 104 -19
c120 0 154 85 154 208zM354 -265l-113 171h42l90 -133l90 133h41l-112 -171h-38z" />
    <glyph glyph-name="uni0696.fina" unicode="&#x696;" horiz-adv-x="375" 
d="M258 29c0 100 -28 195 -61 272h49c16 -48 35 -109 44 -164c7 -42 25 -77 58 -91c9 -4 19 -6 28 -6v-47h-2c-38 0 -56 12 -71 36c-1 0 -1 -1 -2 -1c0 -85 -16 -150 -52 -195c-30 -37 -74 -59 -136 -59c-42 0 -83 10 -113 22v44c30 -11 65 -19 104 -19
c120 0 154 85 154 208zM226 414h-53v51h53v-51zM354 -225h-53v51h53v-51z" />
    <glyph glyph-name="uni0697.fina" unicode="&#x697;" horiz-adv-x="375" 
d="M258 29c0 100 -28 195 -61 272h49c16 -48 35 -109 44 -164c7 -42 25 -77 58 -91c9 -4 19 -6 28 -6v-47h-2c-38 0 -56 12 -71 36c-1 0 -1 -1 -2 -1c0 -85 -16 -150 -52 -195c-30 -37 -74 -59 -136 -59c-42 0 -83 10 -113 22v44c30 -11 65 -19 104 -19
c120 0 154 85 154 208zM188 414h-53v51h53v-51zM285 414h-54v51h54v-51z" />
    <glyph glyph-name="uni0698" unicode="&#x698;" horiz-adv-x="375" arabic-form="isolated" 
d="M0 -160c30 -11 65 -19 104 -19c120 0 154 85 154 208c0 100 -28 195 -61 272h49c24 -61 43 -131 51 -206c3 -23 4 -45 4 -66c0 -117 -32 -207 -112 -240c-23 -10 -48 -15 -76 -15c-42 0 -83 10 -113 22v44zM182 414h-53v51h53v-51zM279 414h-54v51h54v-51zM231 503h-54
v51h54v-51z" />
    <glyph glyph-name="uni0699.fina" unicode="&#x699;" horiz-adv-x="375" 
d="M258 29c0 100 -28 195 -61 272h49c16 -48 35 -109 44 -164c7 -42 25 -77 58 -91c9 -4 19 -6 28 -6v-47h-2c-38 0 -56 12 -71 36c-1 0 -1 -1 -2 -1c0 -85 -16 -150 -52 -195c-30 -37 -74 -59 -136 -59c-42 0 -83 10 -113 22v44c30 -11 65 -19 104 -19
c120 0 154 85 154 208zM180 414h-53v51h53v-51zM277 414h-54v51h54v-51zM180 513h-53v51h53v-51zM277 513h-54v51h54v-51z" />
    <glyph glyph-name="uni069A.init" unicode="&#x69a;" horiz-adv-x="789" 
d="M37 40c76 0 110 34 110 113v110h41v-106c0 -78 36 -117 113 -117c74 0 109 42 109 117v106h41v-105c0 -81 40 -118 119 -118c75 0 103 37 103 113v185h41v-186c0 -98 -48 -159 -145 -159c-72 0 -114 27 -138 74h-2c-25 -45 -61 -74 -128 -74s-113 23 -133 70h-2
c-20 -45 -55 -70 -117 -70h-49c-23 0 -34 8 -34 24c0 17 15 23 34 23h37zM459 -150h-53v51h53v-51zM460 376h-53v51h53v-51z" />
    <glyph glyph-name="uni069A.medi" unicode="&#x69a;" horiz-adv-x="827" 
d="M37 40c76 0 110 34 110 113v110h41v-106c0 -78 36 -117 113 -117c74 0 109 42 109 117v106h41v-105c0 -81 40 -118 119 -118c75 0 103 37 103 113v148h41v-170c0 -69 40 -91 113 -91v-47h-15c-58 0 -101 23 -118 62h-3c-23 -38 -63 -62 -122 -62c-72 0 -114 27 -138 74
h-2c-25 -45 -61 -74 -128 -74s-113 23 -133 70h-2c-20 -45 -55 -70 -117 -70h-49c-23 0 -34 8 -34 24c0 17 15 23 34 23h37zM459 -150h-53v51h53v-51zM460 376h-53v51h53v-51z" />
    <glyph glyph-name="uni069A.fina" unicode="&#x69a;" horiz-adv-x="1165" 
d="M129 113c-8 -37 -13 -72 -13 -113c0 -125 58 -179 184 -179c128 0 185 71 185 200c0 65 -10 128 -23 187h40c3 -13 4 -13 6 -23c5 -20 8 -37 11 -59c8 -59 52 -86 120 -86c74 0 110 42 110 117v106h41v-105c0 -81 40 -118 119 -118c75 0 103 37 103 113v148h41v-170
c0 -69 40 -91 113 -91v-47h-16c-59 0 -100 21 -119 62h-2c-23 -38 -63 -62 -122 -62c-72 0 -114 27 -138 74h-2c-23 -44 -62 -74 -128 -74c-49 0 -86 15 -110 39c-1 0 -2 -1 -3 -1c0 -163 -73 -257 -233 -257c-141 0 -218 73 -218 216c0 44 7 84 16 123h38zM797 -150h-53v51
h53v-51zM798 376h-53v51h53v-51z" />
    <glyph glyph-name="uni069B.init" unicode="&#x69b;" horiz-adv-x="789" 
d="M37 40c76 0 110 34 110 113v110h41v-106c0 -78 36 -117 113 -117c74 0 109 42 109 117v106h41v-105c0 -81 40 -118 119 -118c75 0 103 37 103 113v185h41v-186c0 -98 -48 -159 -145 -159c-72 0 -114 27 -138 74h-2c-25 -45 -61 -74 -128 -74s-113 23 -133 70h-2
c-20 -45 -55 -70 -117 -70h-49c-23 0 -34 8 -34 24c0 17 15 23 34 23h37zM412 -150h-54v51h54v-51zM508 -150h-54v51h54v-51zM461 -231h-54v51h54v-51z" />
    <glyph glyph-name="uni069B.medi" unicode="&#x69b;" horiz-adv-x="827" 
d="M37 40c76 0 110 34 110 113v110h41v-106c0 -78 36 -117 113 -117c74 0 109 42 109 117v106h41v-105c0 -81 40 -118 119 -118c75 0 103 37 103 113v148h41v-170c0 -69 40 -91 113 -91v-47h-15c-58 0 -101 23 -118 62h-3c-23 -38 -63 -62 -122 -62c-72 0 -114 27 -138 74
h-2c-25 -45 -61 -74 -128 -74s-113 23 -133 70h-2c-20 -45 -55 -70 -117 -70h-49c-23 0 -34 8 -34 24c0 17 15 23 34 23h37zM412 -150h-54v51h54v-51zM508 -150h-54v51h54v-51zM461 -231h-54v51h54v-51z" />
    <glyph glyph-name="uni069B.fina" unicode="&#x69b;" horiz-adv-x="1165" 
d="M129 113c-8 -37 -13 -72 -13 -113c0 -125 58 -179 184 -179c128 0 185 71 185 200c0 65 -10 128 -23 187h40c3 -13 4 -13 6 -23c5 -20 8 -37 11 -59c8 -59 52 -86 120 -86c74 0 110 42 110 117v106h41v-105c0 -81 40 -118 119 -118c75 0 103 37 103 113v148h41v-170
c0 -69 40 -91 113 -91v-47h-16c-59 0 -100 21 -119 62h-2c-23 -38 -63 -62 -122 -62c-72 0 -114 27 -138 74h-2c-23 -44 -62 -74 -128 -74c-49 0 -86 15 -110 39c-1 0 -2 -1 -3 -1c0 -163 -73 -257 -233 -257c-141 0 -218 73 -218 216c0 44 7 84 16 123h38zM750 -150h-54v51
h54v-51zM846 -150h-54v51h54v-51zM799 -231h-54v51h54v-51z" />
    <glyph glyph-name="uni069C.init" unicode="&#x69c;" horiz-adv-x="789" 
d="M37 40c76 0 110 34 110 113v110h41v-106c0 -78 36 -117 113 -117c74 0 109 42 109 117v106h41v-105c0 -81 40 -118 119 -118c75 0 103 37 103 113v185h41v-186c0 -98 -48 -159 -145 -159c-72 0 -114 27 -138 74h-2c-25 -45 -61 -74 -128 -74s-113 23 -133 70h-2
c-20 -45 -55 -70 -117 -70h-49c-23 0 -34 8 -34 24c0 17 15 23 34 23h37zM410 -150h-54v51h54v-51zM506 -150h-54v51h54v-51zM459 -231h-54v51h54v-51zM411 376h-53v51h53v-51zM508 376h-54v51h54v-51zM460 465h-54v51h54v-51z" />
    <glyph glyph-name="uni069C.medi" unicode="&#x69c;" horiz-adv-x="827" 
d="M37 40c76 0 110 34 110 113v110h41v-106c0 -78 36 -117 113 -117c74 0 109 42 109 117v106h41v-105c0 -81 40 -118 119 -118c75 0 103 37 103 113v148h41v-170c0 -69 40 -91 113 -91v-47h-15c-58 0 -101 23 -118 62h-3c-23 -38 -63 -62 -122 -62c-72 0 -114 27 -138 74
h-2c-25 -45 -61 -74 -128 -74s-113 23 -133 70h-2c-20 -45 -55 -70 -117 -70h-49c-23 0 -34 8 -34 24c0 17 15 23 34 23h37zM411 376h-53v51h53v-51zM508 376h-54v51h54v-51zM460 465h-54v51h54v-51zM410 -150h-54v51h54v-51zM506 -150h-54v51h54v-51zM459 -231h-54v51h54
v-51z" />
    <glyph glyph-name="uni069C.fina" unicode="&#x69c;" horiz-adv-x="1165" 
d="M129 113c-8 -37 -13 -72 -13 -113c0 -125 58 -179 184 -179c128 0 185 71 185 200c0 65 -10 128 -23 187h40c3 -13 4 -13 6 -23c5 -20 8 -37 11 -59c8 -59 52 -86 120 -86c74 0 110 42 110 117v106h41v-105c0 -81 40 -118 119 -118c75 0 103 37 103 113v148h41v-170
c0 -69 40 -91 113 -91v-47h-16c-59 0 -100 21 -119 62h-2c-23 -38 -63 -62 -122 -62c-72 0 -114 27 -138 74h-2c-23 -44 -62 -74 -128 -74c-49 0 -86 15 -110 39c-1 0 -2 -1 -3 -1c0 -163 -73 -257 -233 -257c-141 0 -218 73 -218 216c0 44 7 84 16 123h38zM750 -150h-54v51
h54v-51zM846 -150h-54v51h54v-51zM799 -231h-54v51h54v-51zM749 376h-53v51h53v-51zM846 376h-54v51h54v-51zM798 465h-54v51h54v-51z" />
    <glyph glyph-name="uni069D.init" unicode="&#x69d;" horiz-adv-x="902" 
d="M140 101c0 37 -10 73 -17 107h41c6 -29 11 -51 16 -82c8 -53 35 -82 83 -86c42 90 97 168 167 223c54 42 119 75 205 75c91 0 150 -44 177 -110c10 -24 15 -51 15 -82c0 -90 -37 -128 -114 -144c-29 -6 -66 -9 -111 -9c-109 0 -214 -1 -312 4c-20 1 -34 2 -43 4
c-38 9 -65 26 -80 52h-1c-19 -41 -57 -60 -117 -60h-49c-23 0 -34 8 -34 24c0 17 15 23 34 23h37c53 0 103 15 103 61zM631 40c69 0 128 7 147 54c5 13 8 29 8 48c0 74 -36 121 -91 140c-19 7 -39 10 -62 10c-76 0 -136 -28 -183 -65c-60 -46 -106 -112 -141 -187h322z
M505 -150h-53v51h53v-51zM602 -150h-54v51h54v-51z" />
    <glyph glyph-name="uni069D.medi" unicode="&#x69d;" horiz-adv-x="902" 
d="M140 101c0 37 -10 73 -17 107h41c6 -29 11 -51 16 -82c8 -53 35 -82 83 -86c42 90 97 168 167 223c54 42 119 75 205 75c91 0 150 -44 177 -110c10 -24 15 -51 15 -82c0 -49 6 -89 41 -101c9 -3 21 -5 34 -5v-47h-6c-46 0 -77 28 -89 63h-3c-40 -52 -108 -63 -202 -63
c-109 0 -214 -1 -312 4c-20 1 -34 2 -43 4c-38 9 -65 26 -80 52h-1c-19 -41 -57 -60 -117 -60h-49c-23 0 -34 8 -34 24c0 17 15 23 34 23h38c53 0 102 14 102 61zM631 40c69 0 128 7 147 54c5 13 8 29 8 48c0 96 -58 150 -153 150c-76 0 -136 -28 -183 -65
c-60 -46 -106 -112 -141 -187h322zM504 -150h-53v51h53v-51zM601 -150h-54v51h54v-51z" />
    <glyph glyph-name="uni069D.fina" unicode="&#x69d;" horiz-adv-x="1240" 
d="M129 113c-8 -37 -13 -72 -13 -113c0 -125 58 -179 184 -179c128 0 185 71 185 200c0 65 -10 128 -23 187h40c6 -29 12 -51 17 -82c7 -53 35 -82 83 -86c42 90 97 168 167 223c54 42 118 75 204 75c91 0 151 -44 178 -110c10 -24 15 -52 15 -82c0 -49 6 -89 41 -101
c9 -3 21 -5 34 -5v-47h-6c-46 0 -77 28 -89 63h-3c-40 -52 -109 -63 -203 -63c-108 0 -214 -1 -311 4c-39 2 -55 4 -78 17c-10 6 -17 12 -22 18l-3 -1c0 -163 -73 -257 -233 -257c-141 0 -218 73 -218 216c0 44 7 84 16 123h38zM970 40c69 0 128 7 147 54c5 13 8 29 8 48
c0 96 -59 150 -154 150c-76 0 -135 -28 -182 -65c-60 -46 -107 -112 -142 -187h323zM843 -150h-53v51h53v-51zM940 -150h-54v51h54v-51z" />
    <glyph glyph-name="uni069E.init" unicode="&#x69e;" horiz-adv-x="902" 
d="M140 101c0 37 -10 73 -17 107h41c6 -29 11 -51 16 -82c8 -53 35 -82 83 -86c42 90 97 168 167 223c54 42 119 75 205 75c91 0 150 -44 177 -110c10 -24 15 -51 15 -82c0 -90 -37 -128 -114 -144c-29 -6 -66 -9 -111 -9c-109 0 -214 -1 -312 4c-20 1 -34 2 -43 4
c-38 9 -65 26 -80 52h-1c-19 -41 -57 -60 -117 -60h-49c-23 0 -34 8 -34 24c0 17 15 23 34 23h37c53 0 103 15 103 61zM631 40c69 0 128 7 147 54c5 13 8 29 8 48c0 74 -36 121 -91 140c-19 7 -39 10 -62 10c-76 0 -136 -28 -183 -65c-60 -46 -106 -112 -141 -187h322z
M429 414h-53v51h53v-51zM526 414h-54v51h54v-51zM478 503h-54v51h54v-51z" />
    <glyph glyph-name="uni069E.medi" unicode="&#x69e;" horiz-adv-x="902" 
d="M140 101c0 37 -10 73 -17 107h41c6 -29 11 -51 16 -82c8 -53 35 -82 83 -86c42 90 97 168 167 223c54 42 119 75 205 75c91 0 150 -44 177 -110c10 -24 15 -51 15 -82c0 -49 6 -89 41 -101c9 -3 21 -5 34 -5v-47h-6c-46 0 -77 28 -89 63h-3c-40 -52 -108 -63 -202 -63
c-109 0 -214 -1 -312 4c-20 1 -34 2 -43 4c-38 9 -65 26 -80 52h-1c-19 -41 -57 -60 -117 -60h-49c-23 0 -34 8 -34 24c0 17 15 23 34 23h38c53 0 102 14 102 61zM631 40c69 0 128 7 147 54c5 13 8 29 8 48c0 96 -58 150 -153 150c-76 0 -136 -28 -183 -65
c-60 -46 -106 -112 -141 -187h322zM429 414h-53v51h53v-51zM526 414h-54v51h54v-51zM478 503h-54v51h54v-51z" />
    <glyph glyph-name="uni069E.fina" unicode="&#x69e;" horiz-adv-x="1240" 
d="M129 113c-8 -37 -13 -72 -13 -113c0 -125 58 -179 184 -179c128 0 185 71 185 200c0 65 -10 128 -23 187h40c6 -29 12 -51 17 -82c7 -53 35 -82 83 -86c42 90 97 168 167 223c54 42 118 75 204 75c91 0 151 -44 178 -110c10 -24 15 -52 15 -82c0 -49 6 -89 41 -101
c9 -3 21 -5 34 -5v-47h-6c-46 0 -77 28 -89 63h-3c-40 -52 -109 -63 -203 -63c-108 0 -214 -1 -311 4c-39 2 -55 4 -78 17c-10 6 -17 12 -22 18l-3 -1c0 -163 -73 -257 -233 -257c-141 0 -218 73 -218 216c0 44 7 84 16 123h38zM970 40c69 0 128 7 147 54c5 13 8 29 8 48
c0 96 -59 150 -154 150c-76 0 -135 -28 -182 -65c-60 -46 -107 -112 -142 -187h323zM768 414h-53v51h53v-51zM865 414h-54v51h54v-51zM817 503h-54v51h54v-51z" />
    <glyph glyph-name="uni069F.init" unicode="&#x69f;" horiz-adv-x="751" 
d="M113 40c6 14 18 39 26 52v648h41v-586l1 -1c50 74 117 140 210 171c29 10 60 14 93 14c91 0 151 -44 178 -110c10 -24 15 -51 15 -82c0 -90 -38 -128 -115 -144c-29 -6 -66 -9 -111 -9h-451c-23 0 -34 8 -34 24c0 17 15 23 34 23h113zM481 40c69 0 128 7 147 54
c5 13 8 29 8 48c0 74 -36 121 -91 140c-19 7 -40 10 -63 10c-76 0 -135 -29 -182 -66c-59 -46 -106 -111 -141 -186h322zM410 414h-53v51h53v-51zM507 414h-54v51h54v-51zM459 503h-54v51h54v-51z" />
    <glyph glyph-name="uni069F.medi" unicode="&#x69f;" horiz-adv-x="751" 
d="M113 40c7 16 18 36 26 52v648h41v-586l1 -1c50 74 117 140 210 171c29 10 60 14 93 14c91 0 151 -44 178 -110c10 -24 15 -52 15 -82c0 -49 6 -89 41 -101c9 -3 21 -5 34 -5v-47h-6c-46 0 -77 28 -89 63h-3c-40 -52 -109 -63 -203 -63h-451c-23 0 -34 8 -34 24
c0 17 15 23 34 23h113zM481 40c69 0 128 7 147 54c5 13 8 29 8 48c0 74 -36 121 -91 140c-19 7 -40 10 -63 10c-76 0 -135 -29 -182 -66c-59 -46 -106 -111 -141 -186h322zM410 414h-53v51h53v-51zM507 414h-54v51h54v-51zM459 503h-54v51h54v-51z" />
    <glyph glyph-name="uni069F.fina" unicode="&#x69f;" horiz-adv-x="789" 
d="M150 43c7 15 18 34 26 49v648h41v-586c1 0 1 -1 2 -1c50 74 117 140 210 171c29 10 60 14 93 14c91 0 151 -44 178 -110c10 -24 14 -51 14 -82c0 -49 6 -89 41 -101c9 -3 22 -5 35 -5v-47h-6c-46 0 -78 28 -90 63h-3c-40 -52 -108 -63 -202 -63c-161 0 -302 0 -451 7
l-16 51c39 -5 85 -7 128 -8zM519 40c69 0 128 7 147 54c5 13 7 29 7 48c0 74 -36 121 -91 140c-19 7 -39 10 -62 10c-76 0 -136 -29 -183 -66c-59 -46 -106 -111 -141 -186h323zM448 414h-53v51h53v-51zM545 414h-54v51h54v-51zM497 503h-54v51h54v-51z" />
    <glyph glyph-name="uni06A0.init" unicode="&#x6a0;" horiz-adv-x="563" 
d="M489 75c-102 -48 -201 -82 -348 -82h-141c-23 0 -34 8 -34 24c0 17 15 23 34 23h172v3c-43 21 -74 59 -89 108c-5 17 -8 34 -8 53c0 64 28 111 64 142c35 31 88 55 151 55c34 0 56 -4 86 -10v-47c-30 5 -56 10 -92 10c-76 0 -128 -39 -152 -92c-8 -18 -12 -37 -12 -58
c0 -43 18 -77 40 -102c23 -26 57 -47 96 -56c89 13 161 43 233 75v-46zM222 489h-53v51h53v-51zM319 489h-54v51h54v-51zM271 578h-54v51h54v-51z" />
    <glyph glyph-name="uni06A0.medi" unicode="&#x6a0;" horiz-adv-x="526" 
d="M75 308c72 17 150 30 233 30c48 0 84 -7 108 -22s35 -34 35 -58c0 -35 -17 -66 -34 -92c-25 -38 -59 -73 -97 -101c34 -16 88 -20 137 -23c22 -1 44 -2 69 -2v-47h-37c-83 0 -155 16 -210 46c-63 -30 -139 -46 -233 -46h-46c-23 0 -34 8 -34 24c0 17 15 23 34 23h38
c88 0 153 9 197 27c-48 37 -93 96 -128 148c-13 20 -24 38 -32 54v39zM309 294c-67 0 -133 -8 -188 -20v-5c30 -53 70 -104 113 -146c15 -14 30 -27 45 -38c34 19 66 52 90 82c12 16 23 31 30 46s11 28 11 39c0 13 -8 24 -25 31s-42 11 -76 11zM254 451h-53v51h53v-51z
M351 451h-54v51h54v-51zM303 540h-54v51h54v-51z" />
    <glyph glyph-name="uni06A0.fina" unicode="&#x6a0;" horiz-adv-x="526" 
d="M75 363c72 18 147 30 237 30c47 0 82 -8 105 -23s34 -36 34 -60c0 -35 -17 -60 -38 -83c-36 -40 -83 -71 -139 -101c56 -52 116 -86 222 -86h30v-47h-37c-127 0 -194 51 -258 117c-43 -17 -76 -38 -99 -65s-35 -59 -35 -96c0 -44 24 -76 52 -98c37 -29 92 -45 160 -45
c71 0 134 12 180 34v-44c-48 -22 -109 -37 -179 -37c-116 0 -205 37 -243 113c-11 23 -17 47 -17 73c0 44 13 82 41 115s67 60 117 81c-49 54 -97 118 -133 183v39zM304 349c-66 0 -130 -6 -183 -20v-5c28 -44 63 -93 96 -133c12 -14 23 -26 32 -34c49 26 91 51 125 84
c13 12 22 23 28 34s8 21 8 30c0 13 -9 23 -26 31s-44 13 -80 13zM244 489h-53v51h53v-51zM341 489h-54v51h54v-51zM293 578h-54v51h54v-51z" />
    <glyph glyph-name="uni06A1.init" unicode="&#x6a1;" horiz-adv-x="413" 
d="M-34 17c0 17 15 23 34 23h65h29c15 0 15 1 30 1c18 0 38 1 54 2l1 4c-32 16 -56 36 -75 58s-29 47 -29 75c0 48 20 92 42 122c19 26 50 56 90 56c17 0 35 -6 53 -18c36 -24 67 -69 83 -114c8 -23 12 -45 12 -66c0 -94 -57 -136 -136 -155c-32 -8 -70 -12 -115 -12h-104
c-23 0 -34 8 -34 24zM314 158c0 39 -19 77 -37 102c-16 22 -42 51 -74 51c-25 0 -46 -24 -58 -42c-14 -22 -29 -53 -29 -86c0 -21 10 -43 30 -64s53 -42 96 -63c31 12 55 37 66 69c4 11 6 21 6 33z" />
    <glyph glyph-name="uni06A1.medi" unicode="&#x6a1;" horiz-adv-x="413" 
d="M-34 17c0 17 15 23 34 23h86c35 0 69 1 96 3l1 3c-44 19 -83 50 -100 94c-5 13 -8 26 -8 40c0 48 20 92 42 122c19 26 50 56 90 56c17 0 35 -6 53 -18c36 -24 67 -68 83 -114c8 -23 12 -46 12 -68c0 -54 -26 -90 -62 -114c37 -6 76 -4 121 -4v-47h-16
c-62 0 -109 8 -153 25c-43 -19 -104 -25 -170 -25h-75c-23 0 -34 8 -34 24zM242 56c39 16 72 50 72 102c0 39 -19 77 -37 102c-16 22 -42 51 -74 51c-25 0 -46 -24 -58 -42c-14 -22 -29 -53 -29 -86c0 -22 10 -44 30 -66s53 -42 96 -61z" />
    <glyph glyph-name="uni06A1.fina" unicode="&#x6a1;" horiz-adv-x="977" 
d="M129 263c-7 -24 -13 -56 -13 -88c0 -92 58 -118 141 -129c63 -9 130 -10 210 -10c82 0 145 0 216 3c11 0 20 1 27 2c0 1 1 2 1 2v1c-35 16 -61 36 -80 59s-29 49 -29 77c0 48 19 92 41 122c19 26 50 56 90 56c17 0 35 -6 53 -18c36 -24 67 -68 83 -114
c8 -23 12 -46 12 -68c0 -54 -25 -90 -61 -114c32 -4 64 -4 102 -4h56v-47h-54c-62 0 -109 7 -153 24c-24 -11 -56 -17 -89 -21c-38 -5 -83 -7 -126 -7h-105c-83 0 -150 2 -214 13c-71 12 -118 35 -145 88c-11 21 -17 47 -17 77c0 33 6 70 14 96h40zM768 56
c39 16 72 50 72 102c0 39 -18 77 -36 102c-16 22 -43 51 -75 51c-25 0 -46 -24 -58 -42c-14 -21 -28 -53 -28 -86c0 -21 9 -43 29 -65s52 -42 96 -62z" />
    <glyph glyph-name="uni06A2.init" unicode="&#x6a2;" horiz-adv-x="414" 
d="M-34 17c0 17 15 23 34 23h65h29c15 0 15 1 30 1c18 0 38 1 54 2l1 4c-32 16 -56 36 -75 58s-29 47 -29 75c0 48 20 92 42 122c19 26 50 56 90 56c17 0 35 -6 53 -18c36 -24 67 -69 83 -114c8 -23 12 -45 12 -66c0 -94 -57 -136 -136 -155c-32 -8 -70 -12 -115 -12h-104
c-23 0 -34 8 -34 24zM314 158c0 39 -19 77 -37 102c-16 22 -42 51 -74 51c-25 0 -46 -24 -58 -42c-14 -22 -29 -53 -29 -86c0 -21 10 -43 30 -64s53 -42 96 -63c31 12 55 37 66 69c4 11 6 21 6 33zM279 -150h-53v51h53v-51z" />
    <glyph glyph-name="uni06A2.medi" unicode="&#x6a2;" horiz-adv-x="413" 
d="M-34 17c0 17 15 23 34 23h86c35 0 69 1 96 3l1 3c-44 19 -83 50 -100 94c-5 13 -8 26 -8 40c0 48 20 92 42 122c19 26 50 56 90 56c17 0 35 -6 53 -18c36 -24 67 -68 83 -114c8 -23 12 -46 12 -68c0 -54 -26 -90 -62 -114c37 -6 76 -4 121 -4v-47h-16
c-62 0 -109 8 -153 25c-43 -19 -104 -25 -170 -25h-75c-23 0 -34 8 -34 24zM242 56c39 16 72 50 72 102c0 39 -19 77 -37 102c-16 22 -42 51 -74 51c-25 0 -46 -24 -58 -42c-14 -22 -29 -53 -29 -86c0 -22 10 -44 30 -66s53 -42 96 -61zM279 -150h-53v51h53v-51z" />
    <glyph glyph-name="uni06A2.fina" unicode="&#x6a2;" horiz-adv-x="977" 
d="M129 263c-7 -24 -13 -56 -13 -88c0 -92 58 -118 141 -129c63 -9 130 -10 210 -10c82 0 145 0 216 3c11 0 20 1 27 2c0 1 1 2 1 2v1c-35 16 -61 36 -80 59s-29 49 -29 77c0 48 19 92 41 122c19 26 50 56 90 56c17 0 35 -6 53 -18c36 -24 67 -68 83 -114
c8 -23 12 -46 12 -68c0 -54 -25 -90 -61 -114c32 -4 64 -4 102 -4h56v-47h-54c-62 0 -109 7 -153 24c-24 -11 -56 -17 -89 -21c-38 -5 -83 -7 -126 -7h-105c-83 0 -150 2 -214 13c-71 12 -118 35 -145 88c-11 21 -17 47 -17 77c0 33 6 70 14 96h40zM768 56
c39 16 72 50 72 102c0 39 -18 77 -36 102c-16 22 -43 51 -75 51c-25 0 -46 -24 -58 -42c-14 -21 -28 -53 -28 -86c0 -21 9 -43 29 -65s52 -42 96 -62zM789 -150h-53v51h53v-51z" />
    <glyph glyph-name="uni06A3.init" unicode="&#x6a3;" horiz-adv-x="413" 
d="M-34 17c0 17 15 23 34 23h65h29c15 0 15 1 30 1c18 0 38 1 54 2l1 4c-32 16 -56 36 -75 58s-29 47 -29 75c0 48 20 92 42 122c19 26 50 56 90 56c17 0 35 -6 53 -18c36 -24 67 -69 83 -114c8 -23 12 -45 12 -66c0 -94 -57 -136 -136 -155c-32 -8 -70 -12 -115 -12h-104
c-23 0 -34 8 -34 24zM314 158c0 39 -19 77 -37 102c-16 22 -42 51 -74 51c-25 0 -46 -24 -58 -42c-14 -22 -29 -53 -29 -86c0 -21 10 -43 30 -64s53 -42 96 -63c31 12 55 37 66 69c4 11 6 21 6 33zM225 451h-53v51h53v-51zM279 -150h-53v51h53v-51z" />
    <glyph glyph-name="uni06A3.medi" unicode="&#x6a3;" horiz-adv-x="413" 
d="M-34 17c0 17 15 23 34 23h86c35 0 69 1 96 3l1 3c-44 19 -83 50 -100 94c-5 13 -8 26 -8 40c0 48 20 92 42 122c19 26 50 56 90 56c17 0 35 -6 53 -18c36 -24 67 -68 83 -114c8 -23 12 -46 12 -68c0 -54 -26 -90 -62 -114c37 -6 76 -4 121 -4v-47h-16
c-62 0 -109 8 -153 25c-43 -19 -104 -25 -170 -25h-75c-23 0 -34 8 -34 24zM242 56c39 16 72 50 72 102c0 39 -19 77 -37 102c-16 22 -42 51 -74 51c-25 0 -46 -24 -58 -42c-14 -22 -29 -53 -29 -86c0 -22 10 -44 30 -66s53 -42 96 -61zM225 451h-53v51h53v-51zM279 -150
h-53v51h53v-51z" />
    <glyph glyph-name="uni06A3.fina" unicode="&#x6a3;" horiz-adv-x="977" 
d="M129 263c-7 -24 -13 -56 -13 -88c0 -92 58 -118 141 -129c63 -9 130 -10 210 -10c82 0 145 0 216 3c11 0 20 1 27 2c0 1 1 2 1 2v1c-35 16 -61 36 -80 59s-29 49 -29 77c0 48 19 92 41 122c19 26 50 56 90 56c17 0 35 -6 53 -18c36 -24 67 -68 83 -114
c8 -23 12 -46 12 -68c0 -54 -25 -90 -61 -114c32 -4 64 -4 102 -4h56v-47h-54c-62 0 -109 7 -153 24c-24 -11 -56 -17 -89 -21c-38 -5 -83 -7 -126 -7h-105c-83 0 -150 2 -214 13c-71 12 -118 35 -145 88c-11 21 -17 47 -17 77c0 33 6 70 14 96h40zM768 56
c39 16 72 50 72 102c0 39 -18 77 -36 102c-16 22 -43 51 -75 51c-25 0 -46 -24 -58 -42c-14 -21 -28 -53 -28 -86c0 -21 9 -43 29 -65s52 -42 96 -62zM505 -150h-53v51h53v-51zM759 451h-53v51h53v-51z" />
    <glyph glyph-name="uni06A4" unicode="&#x6a4;" horiz-adv-x="939" arabic-form="isolated" 
d="M129 263c-7 -24 -13 -56 -13 -88c0 -92 58 -118 141 -129c63 -9 130 -10 210 -10c90 0 160 -3 238 4v2s1 0 1 1c-32 16 -57 36 -76 58s-28 47 -28 75c0 48 19 92 41 122c19 26 50 56 90 56c17 0 35 -6 53 -18c36 -24 68 -67 84 -113c8 -23 11 -46 11 -67
c0 -90 -52 -132 -127 -153c-33 -9 -74 -14 -124 -14h-179c-83 0 -150 2 -214 13c-71 12 -118 35 -145 88c-11 21 -17 47 -17 77c0 33 6 70 14 96h40zM840 154c0 39 -18 77 -36 102c-16 22 -43 51 -75 51c-25 0 -46 -24 -58 -42c-14 -22 -28 -53 -28 -86c0 -21 10 -43 30 -64
s52 -42 95 -63c31 12 56 37 67 69c4 11 5 21 5 33zM712 451h-53v51h53v-51zM809 451h-54v51h54v-51zM761 540h-54v51h54v-51z" />
    <glyph glyph-name="uni06A5.init" unicode="&#x6a5;" horiz-adv-x="414" 
d="M-34 17c0 17 15 23 34 23h65h29c15 0 15 1 30 1c18 0 38 1 54 2l1 4c-32 16 -56 36 -75 58s-29 47 -29 75c0 48 20 92 42 122c19 26 50 56 90 56c17 0 35 -6 53 -18c36 -24 67 -69 83 -114c8 -23 12 -45 12 -66c0 -94 -57 -136 -136 -155c-32 -8 -70 -12 -115 -12h-104
c-23 0 -34 8 -34 24zM314 158c0 39 -19 77 -37 102c-16 22 -42 51 -74 51c-25 0 -46 -24 -58 -42c-14 -22 -29 -53 -29 -86c0 -21 10 -43 30 -64s53 -42 96 -63c31 12 55 37 66 69c4 11 6 21 6 33zM224 -150h-54v51h54v-51zM320 -150h-54v51h54v-51zM273 -231h-54v51h54v-51
z" />
    <glyph glyph-name="uni06A5.medi" unicode="&#x6a5;" horiz-adv-x="413" 
d="M-34 17c0 17 15 23 34 23h86c35 0 69 1 96 3l1 3c-44 19 -83 50 -100 94c-5 13 -8 26 -8 40c0 48 20 92 42 122c19 26 50 56 90 56c17 0 35 -6 53 -18c36 -24 67 -68 83 -114c8 -23 12 -46 12 -68c0 -54 -26 -90 -62 -114c37 -6 76 -4 121 -4v-47h-16
c-62 0 -109 8 -153 25c-43 -19 -104 -25 -170 -25h-75c-23 0 -34 8 -34 24zM242 56c39 16 72 50 72 102c0 39 -19 77 -37 102c-16 22 -42 51 -74 51c-25 0 -46 -24 -58 -42c-14 -22 -29 -53 -29 -86c0 -22 10 -44 30 -66s53 -42 96 -61zM224 -150h-54v51h54v-51zM320 -150
h-54v51h54v-51zM273 -231h-54v51h54v-51z" />
    <glyph glyph-name="uni06A5.fina" unicode="&#x6a5;" horiz-adv-x="977" 
d="M129 263c-7 -24 -13 -56 -13 -88c0 -92 58 -118 141 -129c63 -9 130 -10 210 -10c82 0 145 0 216 3c11 0 20 1 27 2c0 1 1 2 1 2v1c-35 16 -61 36 -80 59s-29 49 -29 77c0 48 19 92 41 122c19 26 50 56 90 56c17 0 35 -6 53 -18c36 -24 67 -68 83 -114
c8 -23 12 -46 12 -68c0 -54 -25 -90 -61 -114c32 -4 64 -4 102 -4h56v-47h-54c-62 0 -109 7 -153 24c-24 -11 -56 -17 -89 -21c-38 -5 -83 -7 -126 -7h-105c-83 0 -150 2 -214 13c-71 12 -118 35 -145 88c-11 21 -17 47 -17 77c0 33 6 70 14 96h40zM768 56
c39 16 72 50 72 102c0 39 -18 77 -36 102c-16 22 -43 51 -75 51c-25 0 -46 -24 -58 -42c-14 -21 -28 -53 -28 -86c0 -21 9 -43 29 -65s52 -42 96 -62zM750 -150h-54v51h54v-51zM846 -150h-54v51h54v-51zM799 -231h-54v51h54v-51z" />
    <glyph glyph-name="uni06A6" unicode="&#x6a6;" horiz-adv-x="939" arabic-form="isolated" 
d="M129 263c-7 -24 -13 -56 -13 -88c0 -92 58 -118 141 -129c63 -9 130 -10 210 -10c90 0 160 -3 238 4v2s1 0 1 1c-32 16 -57 36 -76 58s-28 47 -28 75c0 48 19 92 41 122c19 26 50 56 90 56c17 0 35 -6 53 -18c36 -24 68 -67 84 -113c8 -23 11 -46 11 -67
c0 -90 -52 -132 -127 -153c-33 -9 -74 -14 -124 -14h-179c-83 0 -150 2 -214 13c-71 12 -118 35 -145 88c-11 21 -17 47 -17 77c0 33 6 70 14 96h40zM840 154c0 39 -18 77 -36 102c-16 22 -43 51 -75 51c-25 0 -46 -24 -58 -42c-14 -22 -28 -53 -28 -86c0 -21 10 -43 30 -64
s52 -42 95 -63c31 12 56 37 67 69c4 11 5 21 5 33zM712 451h-53v51h53v-51zM809 451h-54v51h54v-51zM712 550h-53v51h53v-51zM809 550h-54v51h54v-51z" />
    <glyph glyph-name="uni06A7.init" unicode="&#x6a7;" horiz-adv-x="414" 
d="M-34 17c0 17 15 23 34 23h65h29c15 0 15 1 30 1c18 0 38 1 54 2l1 4c-32 16 -56 36 -75 58s-29 47 -29 75c0 48 20 92 42 122c19 26 50 56 90 56c17 0 35 -6 53 -18c36 -24 67 -69 83 -114c8 -23 12 -45 12 -66c0 -94 -57 -136 -136 -155c-32 -8 -70 -12 -115 -12h-104
c-23 0 -34 8 -34 24zM314 158c0 39 -19 77 -37 102c-16 22 -42 51 -74 51c-25 0 -46 -24 -58 -42c-14 -22 -29 -53 -29 -86c0 -21 10 -43 30 -64s53 -42 96 -63c31 12 55 37 66 69c4 11 6 21 6 33zM225 451h-53v51h53v-51z" />
    <glyph glyph-name="uni06A7.medi" unicode="&#x6a7;" horiz-adv-x="413" 
d="M-34 17c0 17 15 23 34 23h86c35 0 69 1 96 3l1 3c-44 19 -83 50 -100 94c-5 13 -8 26 -8 40c0 48 20 92 42 122c19 26 50 56 90 56c17 0 35 -6 53 -18c36 -24 67 -68 83 -114c8 -23 12 -46 12 -68c0 -54 -26 -90 -62 -114c37 -6 76 -4 121 -4v-47h-16
c-62 0 -109 8 -153 25c-43 -19 -104 -25 -170 -25h-75c-23 0 -34 8 -34 24zM242 56c39 16 72 50 72 102c0 39 -19 77 -37 102c-16 22 -42 51 -74 51c-25 0 -46 -24 -58 -42c-14 -22 -29 -53 -29 -86c0 -22 10 -44 30 -66s53 -42 96 -61zM225 451h-53v51h53v-51z" />
    <glyph glyph-name="uni06A7.fina" unicode="&#x6a7;" horiz-adv-x="676" 
d="M127 126c-6 -42 -11 -81 -11 -124c0 -138 81 -181 221 -181c109 0 189 11 221 85c10 22 15 52 18 87h-84c-79 0 -134 34 -157 89c-7 17 -10 35 -10 54c0 45 20 85 42 112c21 26 55 53 98 53c26 0 47 -8 66 -24c48 -41 77 -113 86 -195c2 -15 2 -29 2 -42h58v-47h-59
c-7 -78 -26 -135 -73 -171c-50 -38 -122 -48 -214 -48c-171 0 -256 72 -256 215c0 48 6 92 14 137h38zM371 140c0 -68 47 -100 118 -100h87c0 79 -22 146 -60 187c-13 14 -30 27 -53 27c-29 0 -50 -17 -64 -34c-15 -19 -28 -47 -28 -80zM488 414h-53v51h53v-51z" />
    <glyph glyph-name="uni06A8.init" unicode="&#x6a8;" horiz-adv-x="414" 
d="M-34 17c0 17 15 23 34 23h65h29c15 0 15 1 30 1c18 0 38 1 54 2l1 4c-32 16 -56 36 -75 58s-29 47 -29 75c0 48 20 92 42 122c19 26 50 56 90 56c17 0 35 -6 53 -18c36 -24 67 -69 83 -114c8 -23 12 -45 12 -66c0 -94 -57 -136 -136 -155c-32 -8 -70 -12 -115 -12h-104
c-23 0 -34 8 -34 24zM314 158c0 39 -19 77 -37 102c-16 22 -42 51 -74 51c-25 0 -46 -24 -58 -42c-14 -22 -29 -53 -29 -86c0 -21 10 -43 30 -64s53 -42 96 -63c31 12 55 37 66 69c4 11 6 21 6 33zM166 451h-53v51h53v-51zM263 451h-54v51h54v-51zM215 540h-54v51h54v-51z
" />
    <glyph glyph-name="uni06A8.medi" unicode="&#x6a8;" horiz-adv-x="413" 
d="M-34 17c0 17 15 23 34 23h86c35 0 69 1 96 3l1 3c-44 19 -83 50 -100 94c-5 13 -8 26 -8 40c0 48 20 92 42 122c19 26 50 56 90 56c17 0 35 -6 53 -18c36 -24 67 -68 83 -114c8 -23 12 -46 12 -68c0 -54 -26 -90 -62 -114c37 -6 76 -4 121 -4v-47h-16
c-62 0 -109 8 -153 25c-43 -19 -104 -25 -170 -25h-75c-23 0 -34 8 -34 24zM242 56c39 16 72 50 72 102c0 39 -19 77 -37 102c-16 22 -42 51 -74 51c-25 0 -46 -24 -58 -42c-14 -22 -29 -53 -29 -86c0 -22 10 -44 30 -66s53 -42 96 -61zM166 451h-53v51h53v-51zM263 451h-54
v51h54v-51zM215 540h-54v51h54v-51z" />
    <glyph glyph-name="uni06A8.fina" unicode="&#x6a8;" horiz-adv-x="676" 
d="M127 126c-6 -42 -11 -81 -11 -124c0 -138 81 -181 221 -181c109 0 189 11 221 85c10 22 15 52 18 87h-84c-79 0 -134 34 -157 89c-7 17 -10 35 -10 54c0 45 20 85 42 112c21 26 55 53 98 53c26 0 47 -8 66 -24c48 -41 77 -113 86 -195c2 -15 2 -29 2 -42h58v-47h-59
c-7 -78 -26 -135 -73 -171c-50 -38 -122 -48 -214 -48c-171 0 -256 72 -256 215c0 48 6 92 14 137h38zM371 140c0 -68 47 -100 118 -100h87c0 79 -22 146 -60 187c-13 14 -30 27 -53 27c-29 0 -50 -17 -64 -34c-15 -19 -28 -47 -28 -80zM429 414h-53v51h53v-51zM526 414h-54
v51h54v-51zM478 503h-54v51h54v-51z" />
    <glyph glyph-name="uni06A9" unicode="&#x6a9;" horiz-adv-x="864" arabic-form="isolated" 
d="M129 263c-7 -24 -13 -56 -13 -88c0 -92 58 -118 141 -129c63 -9 130 -10 210 -10c50 0 93 1 126 4c62 5 106 17 135 51c14 16 21 37 21 64c0 20 -6 38 -16 58s-28 41 -53 63s-60 45 -103 70s-97 53 -163 83v57l413 266v-52l-376 -241c80 -39 150 -74 213 -119
c42 -30 76 -58 100 -97c16 -25 26 -51 26 -88c0 -165 -178 -166 -344 -166c-81 0 -147 2 -209 13c-70 12 -118 36 -145 88c-11 21 -17 47 -17 77c0 33 6 70 14 96h40z" />
    <glyph glyph-name="uni06AA.init" unicode="&#x6aa;" horiz-adv-x="977" 
d="M449 -11c-142 0 -282 2 -424 4h-25c-17 0 -29 8 -29 24c0 15 12 23 29 23h38c140 0 287 -2 430 -2c128 0 262 0 383 8c7 18 10 32 10 56c0 26 -17 44 -35 55c-23 14 -56 22 -93 22h-554c-43 0 -80 13 -96 39c-5 8 -8 17 -8 27c0 36 18 67 37 92c63 84 171 134 302 152
v-47c-114 -17 -208 -57 -267 -126c-10 -12 -17 -23 -22 -33s-8 -18 -8 -25c0 -12 6 -21 18 -26s32 -6 59 -6h530c79 0 144 -21 168 -73c7 -15 10 -31 10 -49c0 -36 -12 -71 -37 -104c-132 -9 -277 -11 -416 -11z" />
    <glyph glyph-name="uni06AA.medi" unicode="&#x6aa;" horiz-adv-x="977" 
d="M449 -11c-142 0 -282 2 -424 4h-25c-17 0 -29 8 -29 24c0 15 12 23 29 23h38c140 0 287 -2 430 -2c128 0 262 0 383 8c7 18 10 32 10 56c0 26 -17 44 -35 55c-23 14 -56 22 -93 22h-554c-43 0 -80 13 -96 39c-5 8 -8 17 -8 27c0 36 18 67 37 92c63 84 171 134 302 152
v-47c-114 -17 -208 -57 -267 -126c-10 -12 -17 -23 -22 -33s-8 -18 -8 -25c0 -31 43 -32 82 -32h525c79 0 144 -21 168 -73c7 -15 10 -31 10 -49c0 -22 -4 -42 -11 -59c26 -5 55 -5 87 -5v-47h-19c-40 0 -59 9 -78 30h-1c-5 -8 -9 -16 -15 -23c-132 -9 -277 -11 -416 -11z
" />
    <glyph glyph-name="uni06AA.fina" unicode="&#x6aa;" horiz-adv-x="1052" 
d="M38 47c115 -4 218 -7 329 -7h143c116 0 244 0 356 4c25 1 45 1 60 2c7 18 11 32 11 56c0 26 -18 44 -36 55c-23 14 -56 22 -93 22h-554c-43 0 -80 13 -96 39c-5 8 -8 17 -8 27c0 36 18 67 37 92c63 84 171 134 302 152v-47c-114 -17 -208 -57 -267 -126
c-10 -12 -17 -23 -22 -33s-8 -18 -8 -25c0 -31 43 -32 82 -32h525c79 0 144 -21 168 -73c7 -15 11 -31 11 -49c0 -22 -5 -42 -12 -59c26 -5 55 -5 87 -5v-47h-23c-37 0 -54 8 -73 30h-1c-5 -8 -10 -16 -16 -23c-101 -7 -221 -5 -329 -6c-63 -1 -133 -1 -193 -1h-101
c-96 0 -176 1 -264 7z" />
    <glyph glyph-name="uni06AB.init" unicode="&#x6ab;" horiz-adv-x="451" 
d="M376 153c0 -120 -92 -160 -223 -160h-153c-16 0 -24 8 -24 23s8 24 24 24h138c67 0 120 6 157 30c26 17 40 43 40 83c0 20 -5 39 -15 59s-29 40 -54 62s-60 46 -103 71s-97 52 -163 83v56l414 268v-52l-376 -242c82 -38 151 -74 215 -119c42 -29 75 -59 99 -98
c16 -26 24 -51 24 -88zM261 629c36 0 60 -22 71 -48c4 -10 7 -20 7 -31c0 -35 -23 -60 -48 -71c-9 -4 -20 -6 -30 -6c-37 0 -61 21 -73 47c-4 9 -6 19 -6 30c0 37 20 62 47 73c10 4 21 6 32 6zM218 550c0 -23 20 -41 43 -41s41 18 41 41s-18 43 -41 43
c-24 0 -43 -19 -43 -43z" />
    <glyph glyph-name="uni06AB.medi" unicode="&#x6ab;" horiz-adv-x="488" 
d="M0 -7c-15 0 -24 9 -24 24c0 13 9 23 24 23h138c102 0 197 15 197 113c0 20 -5 39 -15 59s-29 40 -54 62s-60 46 -103 71s-97 52 -163 83v56l414 268v-52l-376 -242c81 -38 149 -72 212 -115c41 -28 73 -55 97 -93c17 -28 25 -57 31 -94c8 -53 19 -96 64 -110
c13 -4 28 -6 47 -6v-47h-11c-64 0 -106 32 -123 82h-1c-34 -56 -106 -82 -201 -82h-153zM261 629c36 0 60 -22 71 -48c4 -10 7 -20 7 -31c0 -35 -23 -60 -48 -71c-9 -4 -20 -6 -30 -6c-37 0 -61 21 -73 47c-4 9 -6 19 -6 30c0 37 20 62 47 73c10 4 21 6 32 6zM218 550
c0 -23 20 -41 43 -41s41 18 41 41s-18 43 -41 43c-24 0 -43 -19 -43 -43z" />
    <glyph glyph-name="uni06AB.fina" unicode="&#x6ab;" horiz-adv-x="902" 
d="M129 263c-7 -24 -13 -56 -13 -88c0 -92 58 -118 141 -129c63 -9 130 -10 210 -10c50 0 93 1 126 4c63 5 105 17 135 51c14 16 21 36 21 62c0 20 -6 39 -16 59s-28 41 -53 63s-60 46 -103 71s-97 53 -163 83v57l413 266v-52l-376 -241c81 -38 150 -71 213 -115
c41 -29 72 -56 96 -94c17 -28 26 -57 32 -94c8 -53 18 -96 63 -110c13 -4 28 -6 47 -6v-47h-9c-64 0 -107 32 -124 82h-1c-51 -84 -185 -86 -322 -86c-81 0 -147 2 -209 13c-70 12 -118 36 -145 88c-11 21 -17 47 -17 77c0 33 6 70 14 96h40zM674 629c36 0 60 -22 71 -48
c4 -10 7 -20 7 -31c0 -35 -23 -60 -48 -71c-9 -4 -20 -6 -30 -6c-37 0 -61 21 -73 47c-4 9 -6 19 -6 30c0 37 20 62 47 73c10 4 21 6 32 6zM631 550c0 -23 20 -41 43 -41s41 18 41 41s-18 43 -41 43c-24 0 -43 -19 -43 -43z" />
    <glyph glyph-name="uni06AC.init" unicode="&#x6ac;" horiz-adv-x="451" 
d="M376 153c0 -120 -92 -160 -223 -160h-153c-16 0 -24 8 -24 23s8 24 24 24h138c67 0 120 6 157 30c26 17 40 43 40 83c0 20 -5 39 -15 59s-29 40 -54 62s-60 46 -103 71s-97 52 -163 83v56l414 268v-52l-376 -242c82 -38 151 -74 215 -119c42 -29 75 -59 99 -98
c16 -26 24 -51 24 -88zM204 714h-53v51h53v-51z" />
    <glyph glyph-name="uni06AC.medi" unicode="&#x6ac;" horiz-adv-x="488" 
d="M0 -7c-15 0 -24 9 -24 24c0 13 9 23 24 23h138c102 0 197 15 197 113c0 20 -5 39 -15 59s-29 40 -54 62s-60 46 -103 71s-97 52 -163 83v56l414 268v-52l-376 -242c81 -38 149 -72 212 -115c41 -28 73 -55 97 -93c17 -28 25 -57 31 -94c8 -53 19 -96 64 -110
c13 -4 28 -6 47 -6v-47h-11c-64 0 -106 32 -123 82h-1c-34 -56 -106 -82 -201 -82h-153zM204 714h-53v51h53v-51z" />
    <glyph glyph-name="uni06AC.fina" unicode="&#x6ac;" horiz-adv-x="827" 
d="M129 263c-7 -24 -13 -56 -13 -88c0 -113 90 -128 200 -133c29 -1 66 -2 110 -2c48 0 87 3 119 7c79 11 128 37 128 123v568h41v-577c0 -81 35 -121 113 -121v-47h-14c-63 0 -108 32 -122 82h-1c-46 -73 -154 -82 -276 -82c-75 0 -132 1 -189 11c-64 11 -108 37 -133 86
c-11 21 -17 47 -17 77c0 33 6 70 14 96h40zM327 331c35 0 64 4 86 15c12 6 27 15 27 29c0 13 -13 19 -22 25c-6 4 -13 8 -22 13c-17 9 -29 18 -36 26s-10 18 -10 27c0 24 16 40 33 52c27 18 63 29 106 35v-38c-31 -4 -58 -10 -79 -20c-10 -5 -23 -11 -23 -22
c0 -14 10 -19 20 -25c5 -3 13 -8 21 -13c19 -11 32 -20 39 -29s11 -19 11 -28c0 -28 -18 -46 -38 -58c-28 -17 -68 -25 -113 -27v38zM440 714h-53v51h53v-51z" />
    <glyph glyph-name="uni06AD" unicode="&#x6ad;" horiz-adv-x="789" arabic-form="isolated" 
d="M129 263c-7 -24 -13 -56 -13 -88c0 -114 89 -128 200 -133c29 -1 66 -2 110 -2c47 0 85 2 117 6c81 10 130 36 130 124v568h41v-573c0 -110 -64 -148 -162 -163c-38 -6 -84 -9 -138 -9c-75 0 -132 1 -189 11c-63 11 -109 37 -134 85c-11 21 -16 47 -16 78
c0 33 6 69 14 96h40zM327 331c35 0 64 4 86 15c12 6 27 15 27 29c0 13 -13 19 -22 25c-6 4 -13 8 -22 13c-17 9 -29 18 -36 26s-10 18 -10 27c0 24 16 40 33 52c27 18 63 29 106 35v-38c-31 -4 -58 -10 -79 -20c-10 -5 -23 -11 -23 -22c0 -14 10 -19 20 -25
c5 -3 13 -8 21 -13c19 -11 32 -20 39 -29s11 -19 11 -28c0 -28 -18 -46 -38 -58c-28 -17 -68 -25 -113 -27v38zM392 714h-53v51h53v-51zM489 714h-54v51h54v-51zM441 803h-54v51h54v-51z" />
    <glyph glyph-name="uni06AE.init" unicode="&#x6ae;" horiz-adv-x="451" 
d="M376 153c0 -120 -92 -160 -223 -160h-153c-16 0 -24 8 -24 23s8 24 24 24h138c67 0 120 6 157 30c26 17 40 43 40 83c0 20 -5 39 -15 59s-29 40 -54 62s-60 46 -103 71s-97 52 -163 83v56l414 268v-52l-376 -242c82 -38 151 -74 215 -119c42 -29 75 -59 99 -98
c16 -26 24 -51 24 -88zM167 -150h-54v51h54v-51zM263 -150h-54v51h54v-51zM216 -231h-54v51h54v-51z" />
    <glyph glyph-name="uni06AE.medi" unicode="&#x6ae;" horiz-adv-x="488" 
d="M0 -7c-15 0 -24 9 -24 24c0 13 9 23 24 23h138c102 0 197 15 197 113c0 20 -5 39 -15 59s-29 40 -54 62s-60 46 -103 71s-97 52 -163 83v56l414 268v-52l-376 -242c81 -38 149 -72 212 -115c41 -28 73 -55 97 -93c17 -28 25 -57 31 -94c8 -53 19 -96 64 -110
c13 -4 28 -6 47 -6v-47h-11c-64 0 -106 32 -123 82h-1c-34 -56 -106 -82 -201 -82h-153zM242 -150h-54v51h54v-51zM338 -150h-54v51h54v-51zM291 -231h-54v51h54v-51z" />
    <glyph glyph-name="uni06AE.fina" unicode="&#x6ae;" horiz-adv-x="827" 
d="M129 263c-7 -24 -13 -56 -13 -88c0 -113 90 -128 200 -133c29 -1 66 -2 110 -2c48 0 87 3 119 7c79 11 128 37 128 123v568h41v-577c0 -81 35 -121 113 -121v-47h-14c-63 0 -108 32 -122 82h-1c-46 -73 -154 -82 -276 -82c-75 0 -132 1 -189 11c-64 11 -108 37 -133 86
c-11 21 -17 47 -17 77c0 33 6 70 14 96h40zM327 331c35 0 64 4 86 15c12 6 27 15 27 29c0 13 -13 19 -22 25c-6 4 -13 8 -22 13c-17 9 -29 18 -36 26s-10 18 -10 27c0 24 16 40 33 52c27 18 63 29 106 35v-38c-31 -4 -58 -10 -79 -20c-10 -5 -23 -11 -23 -22
c0 -14 10 -19 20 -25c5 -3 13 -8 21 -13c19 -11 32 -20 39 -29s11 -19 11 -28c0 -28 -18 -46 -38 -58c-28 -17 -68 -25 -113 -27v38zM376 -150h-54v51h54v-51zM472 -150h-54v51h54v-51zM425 -231h-54v51h54v-51z" />
    <glyph glyph-name="uni06AF" unicode="&#x6af;" horiz-adv-x="864" arabic-form="isolated" 
d="M129 263c-7 -24 -13 -56 -13 -88c0 -92 58 -118 141 -129c63 -9 130 -10 210 -10c50 0 93 1 126 4c62 5 106 17 135 51c14 16 21 37 21 64c0 20 -6 38 -16 58s-28 41 -53 63s-60 45 -103 70s-97 53 -163 83v57l413 266v-52l-376 -241c80 -39 150 -74 213 -119
c42 -30 76 -58 100 -97c16 -25 26 -51 26 -88c0 -165 -178 -166 -344 -166c-81 0 -147 2 -209 13c-70 12 -118 36 -145 88c-11 21 -17 47 -17 77c0 33 6 70 14 96h40zM414 564v49l414 263v-49z" />
    <glyph glyph-name="uni06B0.init" unicode="&#x6b0;" horiz-adv-x="451" 
d="M376 153c0 -120 -92 -160 -223 -160h-153c-16 0 -24 8 -24 23s8 24 24 24h138c67 0 120 6 157 30c26 17 40 43 40 83c0 20 -5 39 -15 59s-29 40 -54 62s-60 46 -103 71s-97 52 -163 83v56l414 268v-52l-376 -242c82 -38 151 -74 215 -119c42 -29 75 -59 99 -98
c16 -26 24 -51 24 -88zM0 564v49l414 263v-49zM261 629c36 0 60 -22 71 -48c4 -10 7 -20 7 -31c0 -35 -23 -60 -48 -71c-9 -4 -20 -6 -30 -6c-37 0 -61 21 -73 47c-4 9 -6 19 -6 30c0 37 20 62 47 73c10 4 21 6 32 6zM218 550c0 -23 20 -41 43 -41s41 18 41 41
s-18 43 -41 43c-24 0 -43 -19 -43 -43z" />
    <glyph glyph-name="uni06B0.medi" unicode="&#x6b0;" horiz-adv-x="488" 
d="M0 -7c-15 0 -24 9 -24 24c0 13 9 23 24 23h138c102 0 197 15 197 113c0 20 -5 39 -15 59s-29 40 -54 62s-60 46 -103 71s-97 52 -163 83v56l414 268v-52l-376 -242c81 -38 149 -72 212 -115c41 -28 73 -55 97 -93c17 -28 25 -57 31 -94c8 -53 19 -96 64 -110
c13 -4 28 -6 47 -6v-47h-11c-64 0 -106 32 -123 82h-1c-34 -56 -106 -82 -201 -82h-153zM0 564v49l414 263v-49zM261 629c36 0 60 -22 71 -48c4 -10 7 -20 7 -31c0 -35 -23 -60 -48 -71c-9 -4 -20 -6 -30 -6c-37 0 -61 21 -73 47c-4 9 -6 19 -6 30c0 37 20 62 47 73
c10 4 21 6 32 6zM218 550c0 -23 20 -41 43 -41s41 18 41 41s-18 43 -41 43c-24 0 -43 -19 -43 -43z" />
    <glyph glyph-name="uni06B0.fina" unicode="&#x6b0;" horiz-adv-x="902" 
d="M129 263c-7 -24 -13 -56 -13 -88c0 -92 58 -118 141 -129c63 -9 130 -10 210 -10c50 0 93 1 126 4c63 5 105 17 135 51c14 16 21 36 21 62c0 20 -6 39 -16 59s-28 41 -53 63s-60 46 -103 71s-97 53 -163 83v57l413 266v-52l-376 -241c81 -38 150 -71 213 -115
c41 -29 72 -56 96 -94c17 -28 26 -57 32 -94c8 -53 18 -96 63 -110c13 -4 28 -6 47 -6v-47h-9c-64 0 -107 32 -124 82h-1c-51 -84 -185 -86 -322 -86c-81 0 -147 2 -209 13c-70 12 -118 36 -145 88c-11 21 -17 47 -17 77c0 33 6 70 14 96h40zM414 564v49l414 263v-49z
M674 629c36 0 60 -22 71 -48c4 -10 7 -20 7 -31c0 -35 -23 -60 -48 -71c-9 -4 -20 -6 -30 -6c-37 0 -61 21 -73 47c-4 9 -6 19 -6 30c0 37 20 62 47 73c10 4 21 6 32 6zM631 550c0 -23 20 -41 43 -41s41 18 41 41s-18 43 -41 43c-24 0 -43 -19 -43 -43z" />
    <glyph glyph-name="uni06B1" unicode="&#x6b1;" horiz-adv-x="864" arabic-form="isolated" 
d="M129 263c-7 -24 -13 -56 -13 -88c0 -92 58 -118 141 -129c63 -9 130 -10 210 -10c50 0 93 1 126 4c62 5 106 17 135 51c14 16 21 37 21 64c0 20 -6 38 -16 58s-28 41 -53 63s-60 45 -103 70s-97 53 -163 83v57l413 266v-52l-376 -241c80 -39 150 -74 213 -119
c42 -30 76 -58 100 -97c16 -25 26 -51 26 -88c0 -165 -178 -166 -344 -166c-81 0 -147 2 -209 13c-70 12 -118 36 -145 88c-11 21 -17 47 -17 77c0 33 6 70 14 96h40zM414 564v49l414 263v-49zM542 827h-53v51h53v-51zM639 827h-54v51h54v-51z" />
    <glyph glyph-name="uni06B2.init" unicode="&#x6b2;" horiz-adv-x="451" 
d="M376 153c0 -120 -92 -160 -223 -160h-153c-16 0 -24 8 -24 23s8 24 24 24h138c67 0 120 6 157 30c26 17 40 43 40 83c0 20 -5 39 -15 59s-29 40 -54 62s-60 46 -103 71s-97 52 -163 83v56l414 268v-52l-376 -242c82 -38 151 -74 215 -119c42 -29 75 -59 99 -98
c16 -26 24 -51 24 -88zM0 564v49l414 263v-49zM166 -150h-53v51h53v-51zM263 -150h-54v51h54v-51z" />
    <glyph glyph-name="uni06B2.medi" unicode="&#x6b2;" horiz-adv-x="488" 
d="M0 -7c-15 0 -24 9 -24 24c0 13 9 23 24 23h138c102 0 197 15 197 113c0 20 -5 39 -15 59s-29 40 -54 62s-60 46 -103 71s-97 52 -163 83v56l414 268v-52l-376 -242c81 -38 149 -72 212 -115c41 -28 73 -55 97 -93c17 -28 25 -57 31 -94c8 -53 19 -96 64 -110
c13 -4 28 -6 47 -6v-47h-11c-64 0 -106 32 -123 82h-1c-34 -56 -106 -82 -201 -82h-153zM0 564v49l414 263v-49zM204 -150h-53v51h53v-51zM301 -150h-54v51h54v-51z" />
    <glyph glyph-name="uni06B2.fina" unicode="&#x6b2;" horiz-adv-x="902" 
d="M129 263c-7 -24 -13 -56 -13 -88c0 -92 58 -118 141 -129c63 -9 130 -10 210 -10c50 0 93 1 126 4c63 5 105 17 135 51c14 16 21 36 21 62c0 20 -6 39 -16 59s-28 41 -53 63s-60 46 -103 71s-97 53 -163 83v57l413 266v-52l-376 -241c81 -38 150 -71 213 -115
c41 -29 72 -56 96 -94c17 -28 26 -57 32 -94c8 -53 18 -96 63 -110c13 -4 28 -6 47 -6v-47h-9c-64 0 -107 32 -124 82h-1c-51 -84 -185 -86 -322 -86c-81 0 -147 2 -209 13c-70 12 -118 36 -145 88c-11 21 -17 47 -17 77c0 33 6 70 14 96h40zM392 -150h-53v51h53v-51z
M489 -150h-54v51h54v-51zM414 564v49l414 263v-49z" />
    <glyph glyph-name="uni06B3" unicode="&#x6b3;" horiz-adv-x="864" arabic-form="isolated" 
d="M447 -239h-54v51h54v-51zM447 -150h-54v51h54v-51zM129 263c-7 -24 -13 -56 -13 -88c0 -92 58 -118 141 -129c63 -9 130 -10 210 -10c50 0 93 1 126 4c62 5 106 17 135 51c14 16 21 37 21 64c0 20 -6 38 -16 58s-28 41 -53 63s-60 45 -103 70s-97 53 -163 83v57l413 266
v-52l-376 -241c80 -39 150 -74 213 -119c42 -30 76 -58 100 -97c16 -25 26 -51 26 -88c0 -165 -178 -166 -344 -166c-81 0 -147 2 -209 13c-70 12 -118 36 -145 88c-11 21 -17 47 -17 77c0 33 6 70 14 96h40zM414 564v49l414 263v-49z" />
    <glyph glyph-name="uni06B4.init" unicode="&#x6b4;" horiz-adv-x="451" 
d="M376 153c0 -120 -92 -160 -223 -160h-153c-16 0 -24 8 -24 23s8 24 24 24h138c67 0 120 6 157 30c26 17 40 43 40 83c0 20 -5 39 -15 59s-29 40 -54 62s-60 46 -103 71s-97 52 -163 83v56l414 268v-52l-376 -242c82 -38 151 -74 215 -119c42 -29 75 -59 99 -98
c16 -26 24 -51 24 -88zM0 564v49l414 263v-49zM91 790h-53v51h53v-51zM188 790h-54v51h54v-51zM140 879h-54v51h54v-51z" />
    <glyph glyph-name="uni06B4.medi" unicode="&#x6b4;" horiz-adv-x="488" 
d="M0 -7c-15 0 -24 9 -24 24c0 13 9 23 24 23h138c102 0 197 15 197 113c0 20 -5 39 -15 59s-29 40 -54 62s-60 46 -103 71s-97 52 -163 83v56l414 268v-52l-376 -242c81 -38 149 -72 212 -115c41 -28 73 -55 97 -93c17 -28 25 -57 31 -94c8 -53 19 -96 64 -110
c13 -4 28 -6 47 -6v-47h-11c-64 0 -106 32 -123 82h-1c-34 -56 -106 -82 -201 -82h-153zM0 564v49l414 263v-49zM91 790h-53v51h53v-51zM188 790h-54v51h54v-51zM140 879h-54v51h54v-51z" />
    <glyph glyph-name="uni06B4.fina" unicode="&#x6b4;" horiz-adv-x="902" 
d="M129 263c-7 -24 -13 -56 -13 -88c0 -92 58 -118 141 -129c63 -9 130 -10 210 -10c50 0 93 1 126 4c63 5 105 17 135 51c14 16 21 36 21 62c0 20 -6 39 -16 59s-28 41 -53 63s-60 46 -103 71s-97 53 -163 83v57l413 266v-52l-376 -241c81 -38 150 -71 213 -115
c41 -29 72 -56 96 -94c17 -28 26 -57 32 -94c8 -53 18 -96 63 -110c13 -4 28 -6 47 -6v-47h-9c-64 0 -107 32 -124 82h-1c-51 -84 -185 -86 -322 -86c-81 0 -147 2 -209 13c-70 12 -118 36 -145 88c-11 21 -17 47 -17 77c0 33 6 70 14 96h40zM414 564v49l414 263v-49z
M505 790h-53v51h53v-51zM602 790h-54v51h54v-51zM554 879h-54v51h54v-51z" />
    <glyph glyph-name="uni06B5.init" unicode="&#x6b5;" horiz-adv-x="263" 
d="M-34 17c0 22 12 23 34 23h37c57 0 92 12 104 56c4 14 6 30 6 50v594h41v-600c0 -103 -47 -147 -150 -147h-38c-22 0 -34 2 -34 24zM150 828l-113 171h42l90 -133l90 133h41l-112 -171h-38z" />
    <glyph glyph-name="uni06B5.medi" unicode="&#x6b5;" horiz-adv-x="263" 
d="M63 40c60 0 84 24 84 85v615h41v-616c0 -56 19 -84 75 -84v-47h-15c-41 0 -68 18 -82 47h-2c-16 -28 -45 -47 -89 -47h-75c-22 0 -34 2 -34 24c0 19 14 23 34 23h63zM150 828l-113 171h42l90 -133l90 133h41l-112 -171h-38z" />
    <glyph glyph-name="uni06B5.fina" unicode="&#x6b5;" horiz-adv-x="639" 
d="M129 172c-8 -37 -13 -71 -13 -112c0 -128 64 -179 193 -179c108 0 175 32 201 113c8 26 13 58 13 95v651h41v-598c0 -62 15 -102 75 -102v-47h-14c-31 0 -54 14 -65 35h-2c-16 -132 -107 -194 -256 -194c-144 0 -227 72 -227 216c0 44 7 83 16 122h38zM526 828l-113 171
h42l90 -133l90 133h41l-112 -171h-38z" />
    <glyph glyph-name="uni06B6.init" unicode="&#x6b6;" horiz-adv-x="263" 
d="M-34 17c0 22 12 23 34 23h37c57 0 92 12 104 56c4 14 6 30 6 50v594h41v-600c0 -103 -47 -147 -150 -147h-38c-22 0 -34 2 -34 24zM195 827h-53v51h53v-51z" />
    <glyph glyph-name="uni06B6.medi" unicode="&#x6b6;" horiz-adv-x="263" 
d="M63 40c60 0 84 24 84 85v615h41v-616c0 -56 19 -84 75 -84v-47h-15c-41 0 -68 18 -82 47h-2c-16 -28 -45 -47 -89 -47h-75c-22 0 -34 2 -34 24c0 19 14 23 34 23h63zM195 827h-53v51h53v-51z" />
    <glyph glyph-name="uni06B6.fina" unicode="&#x6b6;" horiz-adv-x="639" 
d="M129 172c-8 -37 -13 -71 -13 -112c0 -128 64 -179 193 -179c108 0 175 32 201 113c8 26 13 58 13 95v651h41v-598c0 -62 15 -102 75 -102v-47h-14c-31 0 -54 14 -65 35h-2c-16 -132 -107 -194 -256 -194c-144 0 -227 72 -227 216c0 44 7 83 16 122h38zM571 827h-53v51h53
v-51z" />
    <glyph glyph-name="uni06B7.init" unicode="&#x6b7;" horiz-adv-x="263" 
d="M-34 17c0 22 12 23 34 23h37c57 0 92 12 104 56c4 14 6 30 6 50v594h41v-600c0 -103 -47 -147 -150 -147h-38c-22 0 -34 2 -34 24zM147 827h-53v51h53v-51zM244 827h-54v51h54v-51zM196 916h-54v51h54v-51z" />
    <glyph glyph-name="uni06B7.medi" unicode="&#x6b7;" horiz-adv-x="263" 
d="M63 40c60 0 84 24 84 85v615h41v-616c0 -56 19 -84 75 -84v-47h-15c-41 0 -68 18 -82 47h-2c-16 -28 -45 -47 -89 -47h-75c-22 0 -34 2 -34 24c0 19 14 23 34 23h63zM147 827h-53v51h53v-51zM244 827h-54v51h54v-51zM196 916h-54v51h54v-51z" />
    <glyph glyph-name="uni06B7.fina" unicode="&#x6b7;" horiz-adv-x="639" 
d="M129 172c-8 -37 -13 -71 -13 -112c0 -128 64 -179 193 -179c108 0 175 32 201 113c8 26 13 58 13 95v651h41v-598c0 -62 15 -102 75 -102v-47h-14c-31 0 -54 14 -65 35h-2c-16 -132 -107 -194 -256 -194c-144 0 -227 72 -227 216c0 44 7 83 16 122h38zM523 827h-53v51h53
v-51zM620 827h-54v51h54v-51zM572 916h-54v51h54v-51z" />
    <glyph glyph-name="uni06B8.init" unicode="&#x6b8;" horiz-adv-x="263" 
d="M-34 17c0 22 12 23 34 23h37c57 0 92 12 104 56c4 14 6 30 6 50v594h41v-600c0 -103 -47 -147 -150 -147h-38c-22 0 -34 2 -34 24zM130 -150h-54v51h54v-51zM226 -150h-54v51h54v-51zM179 -231h-54v51h54v-51z" />
    <glyph glyph-name="uni06B8.medi" unicode="&#x6b8;" horiz-adv-x="263" 
d="M63 40c60 0 84 24 84 85v615h41v-616c0 -56 19 -84 75 -84v-47h-15c-41 0 -68 18 -82 47h-2c-16 -28 -45 -47 -89 -47h-75c-22 0 -34 2 -34 24c0 19 14 23 34 23h63zM130 -150h-54v51h54v-51zM226 -150h-54v51h54v-51zM179 -231h-54v51h54v-51z" />
    <glyph glyph-name="uni06B8.fina" unicode="&#x6b8;" horiz-adv-x="639" 
d="M309 40c128 0 214 50 214 172v528h41v-577c0 -67 10 -123 75 -123v-47h-14c-43 0 -69 31 -83 61c-6 13 -10 27 -12 43h-2c-41 -65 -118 -104 -226 -104c-144 0 -227 72 -227 216c0 44 7 84 16 123h38c-8 -37 -13 -72 -13 -113c0 -128 64 -179 193 -179zM296 -150h-54v51
h54v-51zM392 -150h-54v51h54v-51zM345 -231h-54v51h54v-51z" />
    <glyph glyph-name="uni06B9.init" unicode="&#x6b9;" horiz-adv-x="263" 
d="M38 40c79 0 109 39 109 119v179h41v-176c0 -106 -45 -169 -150 -169h-38c-19 0 -34 7 -34 24s15 23 34 23h38zM194 -150h-53v51h53v-51zM194 414h-53v51h53v-51z" />
    <glyph glyph-name="uni06B9.medi" unicode="&#x6b9;" horiz-adv-x="300" 
d="M47 40c66 0 100 25 100 91v207h41v-207c0 -70 42 -91 113 -91v-47h-24c-41 0 -72 16 -93 37c-7 8 -13 16 -17 25h-2c-17 -38 -55 -62 -111 -62h-54c-19 0 -34 7 -34 24s15 23 34 23h47zM196 -150h-53v51h53v-51zM196 414h-53v51h53v-51z" />
    <glyph glyph-name="uni06B9.fina" unicode="&#x6b9;" horiz-adv-x="639" 
d="M500 163c0 65 -10 128 -23 187h41c16 -52 21 -122 21 -189c0 -61 11 -103 59 -116c12 -3 26 -5 41 -5v-47h-15c-47 0 -81 21 -98 52h-3c-31 -81 -101 -128 -214 -128c-141 0 -219 72 -219 215c0 44 7 84 16 123h38c-8 -37 -13 -72 -13 -113c0 -125 58 -179 184 -179
c128 0 185 71 185 200zM354 414h-53v51h53v-51zM354 -239h-53v51h53v-51z" />
    <glyph glyph-name="uni06BA" unicode="&#x6ba;" horiz-adv-x="601" arabic-form="isolated" 
d="M502 208c14 -56 24 -108 24 -177c0 -163 -73 -257 -233 -257c-141 0 -218 73 -218 216c0 44 7 84 16 123h38c-8 -37 -13 -72 -13 -113c0 -125 58 -179 184 -179c128 0 185 71 185 200c0 65 -10 128 -23 187h40z" />
    <glyph glyph-name="uni06BB" unicode="&#x6bb;" horiz-adv-x="601" arabic-form="isolated" 
d="M502 208c14 -56 24 -108 24 -177c0 -163 -73 -257 -233 -257c-141 0 -218 73 -218 216c0 44 7 84 16 123h38c-8 -37 -13 -72 -13 -113c0 -125 58 -179 184 -179c128 0 185 71 185 200c0 65 -10 128 -23 187h40zM151 378c14 -1 37 -2 52 -2v225h37v-164h2
c20 34 53 65 101 65c37 0 60 -25 70 -53c4 -10 5 -21 5 -32c0 -53 -23 -71 -71 -76c-17 -2 -38 -3 -62 -3c-46 0 -86 0 -127 3zM381 420c0 26 -21 44 -47 44c-22 0 -40 -11 -53 -23c-18 -16 -33 -39 -43 -65h59c34 0 70 -4 80 19c3 6 4 15 4 25z" />
    <glyph glyph-name="uni06BC.init" unicode="&#x6bc;" horiz-adv-x="263" 
d="M38 40c79 0 109 39 109 119v179h41v-176c0 -106 -45 -169 -150 -169h-38c-19 0 -34 7 -34 24s15 23 34 23h38zM196 414h-53v51h53v-51zM117 37c36 0 60 -22 71 -48c4 -10 7 -20 7 -31c0 -35 -23 -60 -48 -71c-9 -4 -20 -6 -30 -6c-37 0 -61 21 -73 47c-4 9 -6 19 -6 30
c0 37 20 62 47 73c10 4 21 6 32 6zM74 -42c0 -23 20 -41 43 -41s41 18 41 41s-18 43 -41 43c-24 0 -43 -19 -43 -43z" />
    <glyph glyph-name="uni06BC.medi" unicode="&#x6bc;" horiz-adv-x="300" 
d="M47 40c66 0 100 25 100 91v207h41v-207c0 -70 42 -91 113 -91v-47h-24c-41 0 -72 16 -93 37c-7 8 -13 16 -17 25h-2c-17 -38 -55 -62 -111 -62h-54c-19 0 -34 7 -34 24s15 23 34 23h47zM196 414h-53v51h53v-51zM117 37c36 0 60 -22 71 -48c4 -10 7 -20 7 -31
c0 -35 -23 -60 -48 -71c-9 -4 -20 -6 -30 -6c-37 0 -61 21 -73 47c-4 9 -6 19 -6 30c0 37 20 62 47 73c10 4 21 6 32 6zM74 -42c0 -23 20 -41 43 -41s41 18 41 41s-18 43 -41 43c-24 0 -43 -19 -43 -43z" />
    <glyph glyph-name="uni06BC.fina" unicode="&#x6bc;" horiz-adv-x="639" 
d="M266 -81c-114 14 -176 85 -176 213c0 44 7 84 16 123h38c-8 -37 -13 -72 -13 -113c0 -125 58 -179 184 -179c128 0 185 71 185 200c0 65 -10 128 -23 187h41c14 -47 21 -101 21 -166v-44c0 -68 33 -100 100 -100v-47h-15c-47 0 -81 21 -98 52h-3
c-24 -61 -70 -103 -139 -120c15 -16 22 -34 22 -56c0 -35 -23 -60 -48 -71c-9 -4 -19 -6 -29 -6c-37 0 -61 21 -73 47c-4 9 -6 19 -6 30c0 20 5 36 16 50zM286 -131c0 -23 20 -41 43 -41s41 18 41 41s-18 43 -41 43c-24 0 -43 -19 -43 -43zM354 465v-51h-53v51h53z" />
    <glyph glyph-name="uni06BD.init" unicode="&#x6bd;" horiz-adv-x="263" 
d="M38 40c79 0 109 39 109 119v179h41v-176c0 -106 -45 -169 -150 -169h-38c-19 0 -34 7 -34 24s15 23 34 23h38zM148 414h-53v51h53v-51zM245 414h-54v51h54v-51zM197 503h-54v51h54v-51z" />
    <glyph glyph-name="uni06BD.medi" unicode="&#x6bd;" horiz-adv-x="300" 
d="M47 40c66 0 100 25 100 91v207h41v-207c0 -70 42 -91 113 -91v-47h-24c-41 0 -72 16 -93 37c-7 8 -13 16 -17 25h-2c-17 -38 -55 -62 -111 -62h-54c-19 0 -34 7 -34 24s15 23 34 23h47zM148 414h-53v51h53v-51zM245 414h-54v51h54v-51zM197 503h-54v51h54v-51z" />
    <glyph glyph-name="uni06BD.fina" unicode="&#x6bd;" horiz-adv-x="620" 
d="M485 21c0 65 -10 128 -23 187h40c7 -29 13 -55 18 -90c8 -53 40 -78 101 -78v-47h-12c-35 0 -65 14 -80 34h-3c0 -161 -74 -253 -233 -253c-141 0 -218 73 -218 216c0 44 7 84 16 123h38c-8 -37 -13 -72 -13 -113c0 -125 58 -179 184 -179c128 0 185 71 185 200zM279 287
h-53v51h53v-51zM376 287h-54v51h54v-51zM328 376h-54v51h54v-51z" />
    <glyph glyph-name="uni06BE" unicode="&#x6be;" horiz-adv-x="713" arabic-form="isolated" 
d="M204 40c43 0 79 5 107 19v1c-41 21 -72 45 -92 70s-31 53 -31 84c0 41 19 78 38 105c23 32 56 61 98 72v3l-74 38v55c74 -41 136 -80 186 -115s90 -69 120 -100s51 -59 64 -86s19 -53 19 -76c0 -49 -21 -88 -51 -107c-10 -7 -20 -10 -31 -10c-75 0 -142 19 -196 42
c-48 -31 -104 -42 -184 -42c-27 0 -63 3 -86 7c-4 14 -10 30 -16 47c42 -4 83 -7 129 -7zM348 89c37 33 62 73 62 137c0 51 -13 97 -41 118c-8 6 -15 8 -23 8c-20 0 -37 -11 -50 -21c-26 -19 -49 -47 -61 -80c-4 -11 -6 -22 -6 -32c0 -30 12 -48 28 -66
c24 -26 55 -45 91 -64zM437 314c10 -24 14 -59 14 -94c0 -62 -26 -114 -57 -149c48 -20 111 -31 179 -31c13 15 25 38 25 65c0 15 -4 31 -11 48c-18 41 -48 75 -81 107c-20 19 -42 38 -67 57z" />
    <glyph glyph-name="uni06BF.init" unicode="&#x6bf;" horiz-adv-x="601" 
d="M75 314c33 12 73 24 117 24c39 0 73 -9 105 -18c55 -16 109 -36 169 -47c20 -4 39 -6 60 -6l-7 -44c-20 -4 -39 -13 -58 -26c-43 -30 -84 -65 -128 -98c-51 -39 -111 -70 -183 -90c-37 -10 -79 -16 -126 -16h-24c-23 0 -34 8 -34 24c0 17 15 23 34 23h29
c175 0 268 78 365 155c18 14 37 28 57 40v2c-66 10 -128 34 -193 47c-22 4 -43 7 -64 7c-44 0 -86 -8 -119 -20v43zM279 451h-53v51h53v-51zM280 -150h-54v51h54v-51zM376 -150h-54v51h54v-51zM329 -231h-54v51h54v-51z" />
    <glyph glyph-name="uni06BF.medi" unicode="&#x6bf;" horiz-adv-x="584" 
d="M75 314c33 12 73 24 117 24c39 0 73 -9 105 -18c55 -16 109 -36 169 -47c20 -4 39 -6 60 -6l-7 -44c-26 -4 -48 -15 -68 -29c0 -96 39 -154 133 -154v-47h-9c-111 0 -154 75 -158 183c-32 -17 -62 -44 -93 -67c-59 -44 -125 -85 -208 -105c-28 -7 -59 -11 -92 -11h-24
c-23 0 -34 8 -34 24c0 17 15 23 34 23h20c137 0 219 58 300 115c42 29 82 58 131 80v2c-66 10 -128 34 -193 47c-22 4 -43 7 -64 7c-44 0 -86 -8 -119 -20v43zM279 451h-53v51h53v-51zM280 -150h-54v51h54v-51zM376 -150h-54v51h54v-51zM329 -231h-54v51h54v-51z" />
    <glyph glyph-name="uni06BF.fina" unicode="&#x6bf;" horiz-adv-x="563" 
d="M97 353c31 11 75 23 115 23c57 0 105 -21 148 -39c45 -18 93 -39 151 -42l-7 -44c-16 -1 -39 -4 -53 -7c0 -37 1 -69 3 -95c5 -68 22 -109 93 -109h17v-47h-4c-93 0 -125 47 -136 130c-4 31 -7 68 -7 113c-91 -20 -168 -58 -222 -110c-25 -23 -43 -48 -55 -74
c-22 -46 -25 -97 -5 -144c30 -69 103 -102 203 -102c73 0 135 12 188 34v-44c-50 -23 -116 -37 -188 -37c-122 0 -210 42 -246 126c-11 26 -17 53 -17 84c0 82 45 144 94 187c64 57 155 96 260 116v4c-57 12 -105 34 -160 47c-17 4 -35 6 -54 6c-44 0 -85 -8 -118 -20v44z
M300 489h-53v51h53v-51zM285 2h-54v51h54v-51zM381 2h-54v51h54v-51zM334 -79h-54v51h54v-51z" />
    <glyph glyph-name="uni06C0" unicode="&#x6c0;" horiz-adv-x="488" arabic-form="isolated" 
d="M222 392c-18 18 -44 35 -66 49l22 32c71 -47 130 -97 174 -160c30 -43 52 -90 52 -154c0 -82 -42 -134 -102 -157c-21 -8 -42 -12 -66 -12c-76 0 -126 41 -149 95c-8 20 -12 41 -12 65c0 51 17 94 38 129c27 45 64 83 109 113zM116 158c0 -78 48 -121 125 -121
c58 0 96 28 113 69c6 15 9 32 9 51c0 96 -52 165 -113 211c-41 -26 -75 -59 -100 -99c-19 -30 -34 -67 -34 -111zM296 697c-8 2 -18 3 -28 3c-28 0 -47 -11 -57 -29c-3 -6 -5 -13 -5 -21c0 -34 27 -48 63 -48h50v-38h-168v35h46l1 3c-14 12 -27 31 -27 56c0 39 26 62 56 73
c12 4 24 7 38 7c10 0 20 -1 31 -3v-38z" />
    <glyph glyph-name="uni06C1" unicode="&#x6c1;" horiz-adv-x="488" arabic-form="isolated" 
d="M222 392c-18 18 -44 35 -66 49l22 32c71 -47 130 -97 174 -160c30 -43 52 -90 52 -154c0 -82 -42 -134 -102 -157c-21 -8 -42 -12 -66 -12c-76 0 -126 41 -149 95c-8 20 -12 41 -12 65c0 51 17 94 38 129c27 45 64 83 109 113zM116 158c0 -78 48 -121 125 -121
c58 0 96 28 113 69c6 15 9 32 9 51c0 96 -52 165 -113 211c-41 -26 -75 -59 -100 -99c-19 -30 -34 -67 -34 -111z" />
    <glyph glyph-name="uni06C2.fina" unicode="&#x6c2;" horiz-adv-x="488" 
d="M40 -38c-1 10 -2 19 -2 28c0 87 39 152 97 182c20 11 42 16 67 16c43 0 73 -18 99 -38c44 -33 79 -76 132 -99c17 -7 35 -11 56 -11v-47h-6c-45 0 -80 18 -108 38c-44 31 -81 74 -129 99c-14 7 -28 11 -43 11c-65 0 -101 -41 -116 -92c-6 -19 -8 -40 -8 -63v-24h-39z
M258 471c-8 2 -18 3 -28 3c-28 0 -47 -11 -57 -29c-3 -6 -5 -13 -5 -21c0 -34 27 -48 63 -48h50v-38h-168v35h46l1 3c-14 12 -27 31 -27 56c0 39 26 62 56 73c12 4 24 7 38 7c10 0 20 -1 31 -3v-38z" />
    <glyph glyph-name="uni06C3.fina" unicode="&#x6c3;" horiz-adv-x="488" 
d="M40 -38c-1 10 -2 19 -2 28c0 87 39 152 97 182c20 11 42 16 67 16c43 0 73 -18 99 -38c44 -33 79 -76 132 -99c17 -7 35 -11 56 -11v-47h-6c-45 0 -80 18 -108 38c-44 31 -81 74 -129 99c-14 7 -28 11 -43 11c-65 0 -101 -41 -116 -92c-6 -19 -8 -40 -8 -63v-24h-39z
M166 338h-53v51h53v-51zM263 338h-54v51h54v-51z" />
    <glyph glyph-name="uni06C4.fina" unicode="&#x6c4;" horiz-adv-x="413" 
d="M0 -160c38 -14 86 -19 137 -19c70 0 116 17 142 61c16 28 26 68 31 111h-84c-79 0 -134 34 -157 89c-7 17 -10 35 -10 54c0 45 20 85 42 112c21 26 55 53 98 53c26 0 47 -8 66 -24c56 -48 85 -135 88 -237h61v-47h-62c-10 -139 -67 -219 -215 -219c-49 0 -104 8 -137 22
v44zM197 254c-29 0 -50 -17 -64 -34c-15 -19 -28 -47 -28 -80c0 -69 54 -100 124 -100h81c0 63 -15 116 -38 156c-12 21 -27 40 -47 51c-9 5 -19 7 -28 7zM191 -53c36 0 60 -22 71 -48c4 -10 7 -20 7 -31c0 -35 -23 -60 -48 -71c-9 -4 -20 -6 -30 -6c-37 0 -61 21 -73 47
c-4 9 -6 19 -6 30c0 37 20 62 47 73c10 4 21 6 32 6zM148 -132c0 -23 20 -41 43 -41s41 18 41 41s-18 43 -41 43c-24 0 -43 -19 -43 -43z" />
    <glyph glyph-name="uni06C5" unicode="&#x6c5;" horiz-adv-x="413" arabic-form="isolated" 
d="M226 82c35 0 59 6 82 17c0 35 -9 74 -18 103c-13 38 -34 74 -67 91c-9 5 -19 8 -28 8c-26 0 -46 -17 -58 -34c-14 -19 -25 -48 -25 -80c0 -52 29 -83 68 -97c14 -5 29 -8 46 -8zM0 -160c38 -14 86 -19 137 -19c71 0 118 17 143 63c8 14 14 31 19 50h-238v42h245
c3 24 5 53 5 80c-23 -12 -53 -18 -91 -18c-71 0 -121 36 -143 86c-8 18 -12 38 -12 59c0 47 20 87 42 114c21 26 54 51 97 51c20 0 38 -7 56 -20c42 -31 67 -86 82 -149c8 -36 13 -77 13 -123c0 -171 -47 -282 -218 -282c-49 0 -104 8 -137 22v44z" />
    <glyph glyph-name="uni06C6" unicode="&#x6c6;" horiz-adv-x="413" arabic-form="isolated" 
d="M0 -160c38 -14 86 -19 137 -19c91 0 139 32 160 102c7 24 13 55 15 90c-26 -12 -63 -20 -99 -20c-69 0 -119 37 -142 85c-8 17 -12 37 -12 58c0 45 20 85 42 112c21 26 55 53 98 53c26 0 47 -8 66 -24c58 -50 88 -141 88 -248c0 -159 -59 -255 -216 -255
c-49 0 -104 8 -137 22v44zM197 254c-29 0 -50 -17 -64 -34c-15 -19 -28 -47 -28 -80c0 -50 30 -80 68 -93c14 -5 29 -7 46 -7c36 0 66 6 90 17c-1 54 -17 105 -37 140c-15 26 -40 57 -75 57zM188 415l-113 171h42l90 -133l90 133h41l-112 -171h-38z" />
    <glyph glyph-name="uni06C7" unicode="&#x6c7;" horiz-adv-x="413" arabic-form="isolated" 
d="M0 -160c38 -14 86 -19 137 -19c91 0 139 32 160 102c7 24 13 55 15 90c-26 -12 -63 -20 -99 -20c-69 0 -119 37 -142 85c-8 17 -12 37 -12 58c0 45 20 85 42 112c21 26 55 53 98 53c26 0 47 -8 66 -24c58 -50 88 -141 88 -248c0 -159 -59 -255 -216 -255
c-49 0 -104 8 -137 22v44zM197 254c-29 0 -50 -17 -64 -34c-15 -19 -28 -47 -28 -80c0 -50 30 -80 68 -93c14 -5 29 -7 46 -7c36 0 66 6 90 17c-1 54 -17 105 -37 140c-15 26 -40 57 -75 57zM208 425c-16 -4 -32 -5 -50 -5c-35 0 -71 5 -99 13c3 11 5 22 8 33
c28 -7 61 -13 95 -13c7 0 13 1 19 2v1c-17 18 -30 40 -30 70c0 39 24 63 53 74c10 4 22 6 33 6c39 0 63 -23 74 -51c4 -10 6 -21 6 -33c0 -18 -6 -34 -17 -49s-29 -28 -55 -38c6 -6 20 -19 26 -24l-26 -20c-7 6 -14 11 -20 17zM221 461c29 7 59 26 59 59c0 28 -20 48 -48 48
c-25 0 -44 -18 -44 -44s17 -52 33 -63z" />
    <glyph glyph-name="uni06C8" unicode="&#x6c8;" horiz-adv-x="413" arabic-form="isolated" 
d="M0 -160c38 -14 86 -19 137 -19c91 0 139 32 160 102c7 24 13 55 15 90c-26 -12 -63 -20 -99 -20c-69 0 -119 37 -142 85c-8 17 -12 37 -12 58c0 45 20 85 42 112c21 26 55 53 98 53c26 0 47 -8 66 -24c58 -50 88 -141 88 -248c0 -159 -59 -255 -216 -255
c-49 0 -104 8 -137 22v44zM197 254c-29 0 -50 -17 -64 -34c-15 -19 -28 -47 -28 -80c0 -50 30 -80 68 -93c14 -5 29 -7 46 -7c36 0 66 6 90 17c-1 54 -17 105 -37 140c-15 26 -40 57 -75 57zM213 415h-37v191h37v-191z" />
    <glyph glyph-name="uni06C9" unicode="&#x6c9;" horiz-adv-x="413" arabic-form="isolated" 
d="M0 -160c38 -14 86 -19 137 -19c91 0 139 32 160 102c7 24 13 55 15 90c-26 -12 -63 -20 -99 -20c-69 0 -119 37 -142 85c-8 17 -12 37 -12 58c0 45 20 85 42 112c21 26 55 53 98 53c26 0 47 -8 66 -24c58 -50 88 -141 88 -248c0 -159 -59 -255 -216 -255
c-49 0 -104 8 -137 22v44zM197 254c-29 0 -50 -17 -64 -34c-15 -19 -28 -47 -28 -80c0 -50 30 -80 68 -93c14 -5 29 -7 46 -7c36 0 66 6 90 17c-1 54 -17 105 -37 140c-15 26 -40 57 -75 57zM209 586l112 -171h-41l-90 133l-90 -133h-42l113 171h38z" />
    <glyph glyph-name="uni06CA.fina" unicode="&#x6ca;" horiz-adv-x="413" 
d="M0 -160c38 -14 86 -19 137 -19c70 0 116 17 142 61c16 28 26 68 31 111h-84c-79 0 -134 34 -157 89c-7 17 -10 35 -10 54c0 45 20 85 42 112c21 26 55 53 98 53c26 0 47 -8 66 -24c56 -48 85 -135 88 -237h61v-47h-62c-10 -139 -67 -219 -215 -219c-49 0 -104 8 -137 22
v44zM197 254c-29 0 -50 -17 -64 -34c-15 -19 -28 -47 -28 -80c0 -69 54 -100 124 -100h81c0 63 -15 116 -38 156c-12 21 -27 40 -47 51c-9 5 -19 7 -28 7zM166 414h-53v51h53v-51zM263 414h-54v51h54v-51z" />
    <glyph glyph-name="uni06CB" unicode="&#x6cb;" horiz-adv-x="413" arabic-form="isolated" 
d="M0 -160c38 -14 86 -19 137 -19c91 0 139 32 160 102c7 24 13 55 15 90c-26 -12 -63 -20 -99 -20c-69 0 -119 37 -142 85c-8 17 -12 37 -12 58c0 45 20 85 42 112c21 26 55 53 98 53c26 0 47 -8 66 -24c58 -50 88 -141 88 -248c0 -159 -59 -255 -216 -255
c-49 0 -104 8 -137 22v44zM197 254c-29 0 -50 -17 -64 -34c-15 -19 -28 -47 -28 -80c0 -50 30 -80 68 -93c14 -5 29 -7 46 -7c36 0 66 6 90 17c-1 54 -17 105 -37 140c-15 26 -40 57 -75 57zM166 414h-53v51h53v-51zM263 414h-54v51h54v-51zM215 503h-54v51h54v-51z" />
    <glyph glyph-name="uni06CC" unicode="&#x6cc;" horiz-adv-x="714" arabic-form="isolated" 
d="M116 164c0 -124 76 -165 201 -165c77 0 146 14 195 39c23 12 40 26 53 41s19 31 19 48c0 24 -13 40 -27 52c-43 37 -111 50 -136 105c-5 11 -7 23 -7 37c0 52 32 86 67 108c45 29 108 46 176 55v-44c-62 -5 -114 -18 -152 -42c-25 -16 -50 -40 -50 -74
c0 -31 23 -48 44 -61c26 -16 58 -29 82 -47c23 -18 44 -42 44 -82c0 -60 -40 -100 -82 -127c-57 -36 -138 -55 -233 -55c-148 0 -235 60 -235 202c0 56 19 114 37 155h38c-20 -45 -34 -87 -34 -145z" />
    <glyph glyph-name="uni06CD.fina" unicode="&#x6cd;" horiz-adv-x="902" 
d="M208 242c-10 -38 -17 -72 -17 -117c0 -150 86 -201 238 -201c58 0 109 7 147 24c25 11 51 29 51 60c0 19 -9 32 -19 43c-23 26 -56 46 -56 94c0 47 29 80 63 94c12 5 25 8 38 8c48 0 72 -27 92 -58c26 -40 44 -103 79 -130c20 -15 42 -19 78 -19v-47h-10
c-91 0 -125 54 -154 119c-12 28 -23 52 -40 71c-11 12 -22 20 -42 20c-28 0 -48 -15 -58 -34c-3 -7 -5 -14 -5 -21c0 -18 10 -31 19 -42c18 -20 40 -37 51 -63c4 -9 5 -18 5 -29c0 -46 -29 -77 -63 -97c-47 -28 -114 -40 -193 -40c-169 0 -262 72 -262 239c0 28 2 53 7 77
l-119 -25v40z" />
    <glyph glyph-name="uni06CE.init" unicode="&#x6ce;" horiz-adv-x="300" 
d="M38 40c79 0 109 39 109 119v179h41v-176c0 -106 -45 -169 -150 -169h-38c-19 0 -34 7 -34 24s15 23 34 23h38zM148 413l-113 171h42l90 -133l90 133h41l-112 -171h-38z" />
    <glyph glyph-name="uni06CE.medi" unicode="&#x6ce;" horiz-adv-x="300" 
d="M47 40c66 0 100 25 100 91v207h41v-207c0 -70 42 -91 113 -91v-47h-24c-41 0 -72 16 -93 37c-7 8 -13 16 -17 25h-2c-17 -38 -55 -62 -111 -62h-54c-19 0 -34 7 -34 24s15 23 34 23h47zM148 413l-113 171h42l90 -133l90 133h41l-112 -171h-38z" />
    <glyph glyph-name="uni06CE.fina" unicode="&#x6ce;" horiz-adv-x="827" 
d="M132 241c-9 -39 -16 -71 -16 -116c0 -150 86 -201 238 -201c58 0 109 7 147 24c25 11 51 29 51 60c0 19 -9 32 -19 43c-23 26 -56 46 -56 94c0 47 28 80 62 94c12 5 26 8 39 8c48 0 72 -27 92 -58c26 -40 44 -103 79 -130c20 -15 42 -19 78 -19v-47h-11
c-91 0 -124 54 -153 119c-12 28 -23 52 -40 71c-11 12 -22 20 -42 20c-28 0 -49 -15 -59 -34c-3 -7 -4 -14 -4 -21c0 -18 10 -31 19 -42c18 -20 40 -37 51 -63c4 -9 5 -18 5 -29c0 -46 -29 -77 -63 -97c-47 -28 -115 -40 -194 -40c-169 0 -261 72 -261 239c0 47 7 84 17 125
h40zM338 339l-113 171h42l90 -133l90 133h41l-112 -171h-38z" />
    <glyph glyph-name="uni06CF.fina" unicode="&#x6cf;" horiz-adv-x="413" 
d="M0 -160c38 -14 86 -19 137 -19c70 0 116 17 142 61c16 28 26 68 31 111h-84c-79 0 -134 34 -157 89c-7 17 -10 35 -10 54c0 45 20 85 42 112c21 26 55 53 98 53c26 0 47 -8 66 -24c56 -48 85 -135 88 -237h61v-47h-62c-10 -139 -67 -219 -215 -219c-49 0 -104 8 -137 22
v44zM197 254c-29 0 -50 -17 -64 -34c-15 -19 -28 -47 -28 -80c0 -69 54 -100 124 -100h81c0 63 -15 116 -38 156c-12 21 -27 40 -47 51c-9 5 -19 7 -28 7zM214 414h-53v51h53v-51z" />
    <glyph glyph-name="uni06D0" unicode="&#x6d0;" horiz-adv-x="714" arabic-form="isolated" 
d="M116 201c0 -124 76 -165 201 -165c77 0 146 14 195 39c23 12 40 26 53 41s19 31 19 48c0 24 -13 40 -27 52c-43 37 -111 50 -136 105c-5 11 -7 23 -7 37c0 52 32 86 67 108c45 29 108 46 176 55v-44c-62 -5 -114 -18 -152 -42c-25 -16 -50 -40 -50 -74
c0 -31 23 -48 44 -61c26 -16 58 -29 82 -47c23 -18 44 -42 44 -82c0 -60 -40 -100 -82 -127c-57 -36 -138 -55 -233 -55c-148 0 -235 60 -235 202c0 56 19 114 37 155h38c-20 -45 -34 -87 -34 -145zM355 -239h-54v51h54v-51zM355 -150h-54v51h54v-51z" />
    <glyph glyph-name="uni06D1.init" unicode="&#x6d1;" horiz-adv-x="263" 
d="M38 40c79 0 109 39 109 119v179h41v-176c0 -106 -45 -169 -150 -169h-38c-19 0 -34 7 -34 24s15 23 34 23h38zM146 -150h-54v51h54v-51zM242 -150h-54v51h54v-51zM195 -231h-54v51h54v-51z" />
    <glyph glyph-name="uni06D1.medi" unicode="&#x6d1;" horiz-adv-x="300" 
d="M47 40c66 0 100 25 100 91v207h41v-207c0 -70 42 -91 113 -91v-47h-24c-41 0 -72 16 -93 37c-7 8 -13 16 -17 25h-2c-17 -38 -55 -62 -111 -62h-54c-19 0 -34 7 -34 24s15 23 34 23h47zM146 -150h-54v51h54v-51zM242 -150h-54v51h54v-51zM195 -231h-54v51h54v-51z" />
    <glyph glyph-name="uni06D1.fina" unicode="&#x6d1;" horiz-adv-x="827" 
d="M129 338c-7 -35 -13 -80 -13 -120c0 -148 92 -194 242 -194c56 0 102 6 135 24c20 11 35 26 35 52c0 22 -12 37 -21 52c-10 17 -22 34 -22 61c0 41 24 68 54 80c11 4 22 6 33 6c56 0 82 -47 99 -86c15 -34 26 -81 38 -112c17 -42 41 -61 100 -61h18v-47h-23
c-72 0 -113 40 -133 91c-12 32 -21 63 -31 93c-9 28 -21 52 -40 67c-8 7 -18 10 -30 10c-24 0 -44 -15 -44 -39c0 -21 13 -37 22 -51c11 -17 21 -36 21 -64c0 -43 -26 -70 -57 -88c-42 -24 -101 -34 -170 -34c-173 0 -267 68 -267 239c0 47 6 81 16 121h38zM318 -150h-54v51
h54v-51zM414 -150h-54v51h54v-51zM367 -231h-54v51h54v-51z" />
    <glyph glyph-name="uni06D2" unicode="&#x6d2;" horiz-adv-x="902" arabic-form="isolated" 
d="M865 13c-154 -16 -316 -20 -489 -20c-94 0 -174 7 -233 35c-40 19 -68 47 -68 99c0 27 9 53 26 77s42 47 77 67c67 40 132 77 189 127l25 -35c-64 -53 -133 -91 -204 -135c-25 -16 -44 -32 -55 -48s-17 -33 -17 -52c0 -13 5 -24 14 -35c24 -28 72 -39 125 -46
c33 -4 73 -7 121 -7c183 0 339 3 489 19v-46z" />
    <glyph glyph-name="uni06D3" unicode="&#x6d3;" horiz-adv-x="902" arabic-form="isolated" 
d="M865 13c-154 -16 -316 -20 -489 -20c-94 0 -174 7 -233 35c-40 19 -68 47 -68 99c0 27 9 53 26 77s42 47 77 67c67 40 132 77 189 127l25 -35c-64 -53 -133 -91 -204 -135c-25 -16 -44 -32 -55 -48s-17 -33 -17 -52c0 -13 5 -24 14 -35c24 -28 72 -39 125 -46
c33 -4 73 -7 121 -7c183 0 339 3 489 19v-46zM278 584c-8 2 -18 3 -28 3c-28 0 -47 -11 -57 -29c-3 -6 -5 -13 -5 -21c0 -34 27 -48 63 -48h50v-38h-168v35h46l1 3c-14 12 -27 31 -27 56c0 39 26 62 56 73c12 4 24 7 38 7c10 0 20 -1 31 -3v-38z" />
    <glyph glyph-name="uni06D5.fina" unicode="&#x6d5;" horiz-adv-x="451" 
d="M335 110c-30 -13 -70 -24 -114 -24c-66 0 -113 23 -135 67c-7 14 -11 30 -11 48c0 53 27 88 61 115c48 38 116 60 197 72v54h43v-292c0 -51 6 -92 41 -105c9 -3 21 -5 34 -5v-47h-11c-52 0 -83 30 -97 69c-5 14 -8 30 -8 48zM226 128c40 0 82 9 107 22v197
c-65 -8 -121 -24 -162 -52c-28 -19 -54 -46 -54 -87c0 -58 46 -80 109 -80z" />
    <glyph glyph-name="uni06EE.fina" unicode="&#x6ee;" horiz-adv-x="488" 
d="M38 47c47 -7 100 -11 153 -11c73 0 143 6 143 76c0 22 -6 59 -20 111s-34 120 -61 205h46c27 -90 50 -182 77 -274c11 -38 22 -70 44 -92c17 -16 37 -22 69 -22v-47h-19c-54 0 -88 33 -103 73h-3c-26 -60 -80 -77 -168 -77c-45 0 -98 5 -140 11zM301 736l112 -171h-41
l-90 133l-90 -133h-42l113 171h38z" />
    <glyph glyph-name="uni06EF.fina" unicode="&#x6ef;" horiz-adv-x="375" 
d="M258 29c0 100 -28 195 -61 272h49c16 -48 35 -109 44 -164c7 -42 25 -77 58 -91c9 -4 19 -6 28 -6v-47h-2c-38 0 -56 12 -71 36c-1 0 -1 -1 -2 -1c0 -85 -16 -150 -52 -195c-30 -37 -74 -59 -136 -59c-42 0 -83 10 -113 22v44c30 -11 65 -19 104 -19
c120 0 154 85 154 208zM226 586l112 -171h-41l-90 133l-90 -133h-42l113 171h38z" />
    <glyph glyph-name="uni06FA.init" unicode="&#x6fa;" horiz-adv-x="789" 
d="M37 40c76 0 110 34 110 113v110h41v-106c0 -78 36 -117 113 -117c74 0 109 42 109 117v106h41v-105c0 -81 40 -118 119 -118c75 0 103 37 103 113v185h41v-186c0 -98 -48 -159 -145 -159c-72 0 -114 27 -138 74h-2c-25 -45 -61 -74 -128 -74s-113 23 -133 70h-2
c-20 -45 -55 -70 -117 -70h-49c-23 0 -34 8 -34 24c0 17 15 23 34 23h37zM459 -150h-53v51h53v-51zM411 376h-53v51h53v-51zM508 376h-54v51h54v-51zM460 465h-54v51h54v-51z" />
    <glyph glyph-name="uni06FA.medi" unicode="&#x6fa;" horiz-adv-x="827" 
d="M37 40c76 0 110 34 110 113v110h41v-106c0 -78 36 -117 113 -117c74 0 109 42 109 117v106h41v-105c0 -81 40 -118 119 -118c75 0 103 37 103 113v148h41v-170c0 -69 40 -91 113 -91v-47h-15c-58 0 -101 23 -118 62h-3c-23 -38 -63 -62 -122 -62c-72 0 -114 27 -138 74
h-2c-25 -45 -61 -74 -128 -74s-113 23 -133 70h-2c-20 -45 -55 -70 -117 -70h-49c-23 0 -34 8 -34 24c0 17 15 23 34 23h37zM459 -150h-53v51h53v-51zM411 376h-53v51h53v-51zM508 376h-54v51h54v-51zM460 465h-54v51h54v-51z" />
    <glyph glyph-name="uni06FA.fina" unicode="&#x6fa;" horiz-adv-x="1165" 
d="M129 113c-8 -37 -13 -72 -13 -113c0 -125 58 -179 184 -179c128 0 185 71 185 200c0 65 -10 128 -23 187h40c3 -13 4 -13 6 -23c5 -20 8 -37 11 -59c8 -59 52 -86 120 -86c74 0 110 42 110 117v106h41v-105c0 -81 40 -118 119 -118c75 0 103 37 103 113v148h41v-170
c0 -69 40 -91 113 -91v-47h-16c-59 0 -100 21 -119 62h-2c-23 -38 -63 -62 -122 -62c-72 0 -114 27 -138 74h-2c-23 -44 -62 -74 -128 -74c-49 0 -86 15 -110 39c-1 0 -2 -1 -3 -1c0 -163 -73 -257 -233 -257c-141 0 -218 73 -218 216c0 44 7 84 16 123h38zM797 -150h-53v51
h53v-51zM749 376h-53v51h53v-51zM846 376h-54v51h54v-51zM798 465h-54v51h54v-51z" />
    <glyph glyph-name="uni06FB.init" unicode="&#x6fb;" horiz-adv-x="902" 
d="M140 101c0 37 -10 73 -17 107h41c6 -29 11 -51 16 -82c8 -53 35 -82 83 -86c42 90 97 168 167 223c54 42 119 75 205 75c91 0 150 -44 177 -110c10 -24 15 -51 15 -82c0 -90 -37 -128 -114 -144c-29 -6 -66 -9 -111 -9c-109 0 -214 -1 -312 4c-20 1 -34 2 -43 4
c-38 9 -65 26 -80 52h-1c-19 -41 -57 -60 -117 -60h-49c-23 0 -34 8 -34 24c0 17 15 23 34 23h37c53 0 103 15 103 61zM631 40c69 0 128 7 147 54c5 13 8 29 8 48c0 74 -36 121 -91 140c-19 7 -39 10 -62 10c-76 0 -136 -28 -183 -65c-60 -46 -106 -112 -141 -187h322z
M505 -150h-53v51h53v-51zM505 414h-53v51h53v-51z" />
    <glyph glyph-name="uni06FB.medi" unicode="&#x6fb;" horiz-adv-x="902" 
d="M140 101c0 37 -10 73 -17 107h41c6 -29 11 -51 16 -82c8 -53 35 -82 83 -86c42 90 97 168 167 223c54 42 119 75 205 75c91 0 150 -44 177 -110c10 -24 15 -51 15 -82c0 -49 6 -89 41 -101c9 -3 21 -5 34 -5v-47h-6c-46 0 -77 28 -89 63h-3c-40 -52 -108 -63 -202 -63
c-109 0 -214 -1 -312 4c-20 1 -34 2 -43 4c-38 9 -65 26 -80 52h-1c-19 -41 -57 -60 -117 -60h-49c-23 0 -34 8 -34 24c0 17 15 23 34 23h38c53 0 102 14 102 61zM631 40c69 0 128 7 147 54c5 13 8 29 8 48c0 96 -58 150 -153 150c-76 0 -136 -28 -183 -65
c-60 -46 -106 -112 -141 -187h322zM504 -150h-53v51h53v-51zM505 414h-53v51h53v-51z" />
    <glyph glyph-name="uni06FB.fina" unicode="&#x6fb;" horiz-adv-x="1240" 
d="M129 113c-8 -37 -13 -72 -13 -113c0 -125 58 -179 184 -179c128 0 185 71 185 200c0 65 -10 128 -23 187h40c6 -29 12 -51 17 -82c7 -53 35 -82 83 -86c42 90 97 168 167 223c54 42 118 75 204 75c91 0 151 -44 178 -110c10 -24 15 -52 15 -82c0 -49 6 -89 41 -101
c9 -3 21 -5 34 -5v-47h-6c-46 0 -77 28 -89 63h-3c-40 -52 -109 -63 -203 -63c-108 0 -214 -1 -311 4c-39 2 -55 4 -78 17c-10 6 -17 12 -22 18l-3 -1c0 -163 -73 -257 -233 -257c-141 0 -218 73 -218 216c0 44 7 84 16 123h38zM970 40c69 0 128 7 147 54c5 13 8 29 8 48
c0 96 -59 150 -154 150c-76 0 -135 -28 -182 -65c-60 -46 -107 -112 -142 -187h323zM881 -150h-53v51h53v-51zM881 414h-53v51h53v-51z" />
    <glyph glyph-name="uni06FC.init" unicode="&#x6fc;" horiz-adv-x="563" 
d="M489 75c-102 -48 -201 -82 -348 -82h-141c-23 0 -34 8 -34 24c0 17 15 23 34 23h172v3c-43 21 -74 59 -89 108c-5 17 -8 34 -8 53c0 64 28 111 64 142c35 31 88 55 151 55c34 0 56 -4 86 -10v-47c-30 5 -56 10 -92 10c-76 0 -128 -39 -152 -92c-8 -18 -12 -37 -12 -58
c0 -43 18 -77 40 -102c23 -26 57 -47 96 -56c89 13 161 43 233 75v-46zM317 -150h-53v51h53v-51zM279 489h-53v51h53v-51z" />
    <glyph glyph-name="uni06FC.medi" unicode="&#x6fc;" horiz-adv-x="526" 
d="M75 308c72 17 150 30 233 30c48 0 84 -7 108 -22s35 -34 35 -58c0 -35 -17 -66 -34 -92c-25 -38 -59 -73 -97 -101c34 -16 88 -20 137 -23c22 -1 44 -2 69 -2v-47h-37c-83 0 -155 16 -210 46c-63 -30 -139 -46 -233 -46h-46c-23 0 -34 8 -34 24c0 17 15 23 34 23h38
c88 0 153 9 197 27c-48 37 -93 96 -128 148c-13 20 -24 38 -32 54v39zM309 294c-67 0 -133 -8 -188 -20v-5c30 -53 70 -104 113 -146c15 -14 30 -27 45 -38c34 19 66 52 90 82c12 16 23 31 30 46s11 28 11 39c0 13 -8 24 -25 31s-42 11 -76 11zM300 -150h-53v51h53v-51z
M300 451h-53v51h53v-51z" />
    <glyph glyph-name="uni06FC.fina" unicode="&#x6fc;" horiz-adv-x="526" 
d="M75 363c72 18 147 30 237 30c47 0 82 -8 105 -23s34 -36 34 -60c0 -35 -17 -60 -38 -83c-36 -40 -83 -71 -139 -101c56 -52 116 -86 222 -86h30v-47h-37c-127 0 -194 51 -258 117c-43 -17 -76 -38 -99 -65s-35 -59 -35 -96c0 -44 24 -76 52 -98c37 -29 92 -45 160 -45
c71 0 134 12 180 34v-44c-48 -22 -109 -37 -179 -37c-116 0 -205 37 -243 113c-11 23 -17 47 -17 73c0 44 13 82 41 115s67 60 117 81c-49 54 -97 118 -133 183v39zM304 349c-66 0 -130 -6 -183 -20v-5c28 -44 63 -93 96 -133c12 -14 23 -26 32 -34c49 26 91 51 125 84
c13 12 22 23 28 34s8 21 8 30c0 13 -9 23 -26 31s-44 13 -80 13zM279 -99h-53v51h53v-51zM300 489h-53v51h53v-51z" />
    <glyph glyph-name="uni06FF.init" unicode="&#x6ff;" horiz-adv-x="601" 
d="M211 394c-25 13 -48 25 -73 38v55c74 -41 135 -80 185 -115s90 -69 120 -100s51 -59 64 -86s19 -53 19 -76c0 -49 -20 -88 -50 -107c-10 -7 -21 -10 -32 -10c-75 0 -142 19 -196 42c-34 -23 -66 -36 -119 -40c-18 -1 -40 -2 -65 -2h-64c-16 0 -24 10 -24 25s8 22 24 22
h75c48 0 93 5 123 19v1c-41 21 -72 45 -92 70s-31 53 -31 84c0 41 19 78 38 105c23 32 56 61 98 72v3zM235 89c37 33 62 73 62 137c0 51 -13 97 -41 118c-8 6 -15 8 -23 8c-20 0 -37 -11 -50 -21c-26 -19 -49 -47 -61 -80c-4 -11 -6 -22 -6 -32c0 -30 12 -48 28 -66
c24 -26 55 -45 91 -64zM324 314c10 -24 14 -59 14 -94c0 -62 -26 -114 -57 -149c48 -20 111 -31 179 -31c13 15 25 38 25 65c0 15 -3 31 -10 48c-18 41 -49 75 -82 107c-20 19 -42 38 -67 57zM302 736l112 -171h-41l-90 133l-90 -133h-42l113 171h38z" />
    <glyph glyph-name="uni06FF.medi" unicode="&#x6ff;" horiz-adv-x="451" 
d="M-24 17c0 15 9 23 24 23h75c11 92 38 175 77 238c22 35 47 67 81 86c14 8 28 12 42 12c31 0 54 -21 69 -42c19 -27 32 -65 32 -111c0 -81 -38 -144 -86 -180c1 -2 1 -3 1 -3h161v-47h-154l-1 -3c43 -23 79 -68 79 -133c0 -50 -23 -84 -59 -99c-13 -5 -27 -8 -43 -8
c-60 0 -105 31 -135 67c-36 42 -61 102 -64 176h-75c-15 0 -24 9 -24 24zM188 40c44 0 79 26 102 52c25 29 45 71 45 123c0 46 -16 87 -43 106c-8 6 -16 8 -24 8c-13 0 -27 -8 -43 -23c-38 -36 -66 -95 -86 -155c-12 -35 -19 -72 -23 -111h72zM270 -204c42 0 65 26 65 69
c0 38 -20 68 -42 88c-24 22 -61 40 -105 40h-72c3 -86 38 -152 96 -182c18 -9 37 -15 58 -15zM302 623l112 -171h-41l-90 133l-90 -133h-42l113 171h38z" />
    <glyph glyph-name="uni06FF.fina" unicode="&#x6ff;" horiz-adv-x="601" 
d="M66 48c52 -6 101 -8 159 -8c11 92 38 175 77 238c22 35 47 67 81 86c14 8 28 11 42 11c30 0 54 -21 69 -41c19 -26 32 -65 32 -111c0 -81 -39 -144 -87 -180l1 -3h162v-47h-154c0 -1 -1 -2 -1 -3c43 -23 79 -68 79 -133c0 -50 -23 -84 -59 -99c-13 -5 -27 -8 -43 -8
c-60 0 -105 31 -135 67c-36 42 -61 102 -64 176c-38 0 -85 2 -122 4c-13 1 -23 2 -29 3c-3 16 -5 33 -8 48zM338 40c44 0 78 26 101 52c25 29 46 71 46 123c0 46 -16 87 -43 106c-8 6 -16 8 -24 8c-13 0 -27 -8 -43 -23c-38 -36 -66 -95 -86 -155c-12 -35 -19 -72 -23 -111
h72zM419 -204c42 0 66 26 66 69c0 38 -20 68 -42 88c-24 22 -61 40 -105 40h-72c3 -86 38 -152 96 -182c18 -9 36 -15 57 -15zM452 623l112 -171h-41l-90 133l-90 -133h-42l113 171h38z" />
    <glyph glyph-name="uni0671.fina" unicode="&#x671;" horiz-adv-x="225" arabic-form="final" 
d="M216 -7c-95 0 -141 45 -141 138v609h41v-580c0 -62 9 -104 57 -115c14 -3 32 -5 53 -5v-47h-10zM-38 849c19 15 40 29 70 29c9 0 14 -1 21 -3c13 37 29 63 47 80s39 25 62 25c38 0 61 -20 72 -48c4 -9 6 -20 6 -30c0 -41 -23 -68 -53 -81c-11 -5 -24 -8 -37 -8
c-38 0 -66 14 -95 23c-8 3 -16 4 -24 4c-18 0 -38 -11 -50 -21zM83 865c18 -8 39 -14 63 -14c34 0 56 19 56 51c0 24 -20 41 -44 41c-31 0 -56 -26 -75 -78z" />
    <glyph glyph-name="uni067B.fina" unicode="&#x67b;" horiz-adv-x="902" arabic-form="final" 
d="M129 263c-7 -24 -13 -56 -13 -88c0 -93 58 -118 141 -129c63 -9 130 -10 210 -10c66 0 124 1 175 10c50 9 90 24 102 69c3 13 5 28 5 44v179h41v-207c0 -69 39 -91 112 -91v-47h-15c-63 0 -104 24 -123 67h-2c-39 -44 -101 -59 -183 -66c-35 -3 -78 -5 -128 -5
c-83 0 -151 2 -214 13c-71 12 -118 35 -145 88c-11 21 -17 47 -17 77c0 33 6 70 14 96h40zM467 -239h-54v51h54v-51zM467 -150h-54v51h54v-51z" />
    <glyph glyph-name="uni067B.init" unicode="&#x67b;" horiz-adv-x="263" arabic-form="initial" 
d="M38 40c79 0 109 39 109 119v179h41v-176c0 -106 -45 -169 -150 -169h-38c-19 0 -34 7 -34 24s15 23 34 23h38zM195 -239h-54v51h54v-51zM195 -150h-54v51h54v-51z" />
    <glyph glyph-name="uni067B.medi" unicode="&#x67b;" horiz-adv-x="300" arabic-form="medial" 
d="M47 40c66 0 100 25 100 91v207h41v-207c0 -70 42 -91 113 -91v-47h-24c-41 0 -72 16 -93 37c-7 8 -13 16 -17 25h-2c-17 -38 -55 -62 -111 -62h-54c-19 0 -34 7 -34 24s15 23 34 23h47zM196 -239h-54v51h54v-51zM196 -150h-54v51h54v-51z" />
    <glyph glyph-name="uni067E.fina" unicode="&#x67e;" horiz-adv-x="902" arabic-form="final" 
d="M129 263c-7 -24 -13 -56 -13 -88c0 -93 58 -118 141 -129c63 -9 130 -10 210 -10c66 0 124 1 175 10c50 9 90 24 102 69c3 13 5 28 5 44v179h41v-207c0 -69 39 -91 112 -91v-47h-15c-63 0 -104 24 -123 67h-2c-39 -44 -101 -59 -183 -66c-35 -3 -78 -5 -128 -5
c-83 0 -151 2 -214 13c-71 12 -118 35 -145 88c-11 21 -17 47 -17 77c0 33 6 70 14 96h40zM393 -150h-54v51h54v-51zM489 -150h-54v51h54v-51zM442 -231h-54v51h54v-51z" />
    <glyph glyph-name="uni067E.init" unicode="&#x67e;" horiz-adv-x="263" arabic-form="initial" 
d="M38 40c79 0 109 39 109 119v179h41v-176c0 -106 -45 -169 -150 -169h-38c-19 0 -34 7 -34 24s15 23 34 23h38zM130 -150h-54v51h54v-51zM226 -150h-54v51h54v-51zM179 -231h-54v51h54v-51z" />
    <glyph glyph-name="uni067E.medi" unicode="&#x67e;" horiz-adv-x="300" arabic-form="medial" 
d="M47 40c66 0 100 25 100 91v207h41v-207c0 -70 42 -91 113 -91v-47h-24c-41 0 -72 16 -93 37c-7 8 -13 16 -17 25h-2c-17 -38 -55 -62 -111 -62h-54c-19 0 -34 7 -34 24s15 23 34 23h47zM146 -150h-54v51h54v-51zM242 -150h-54v51h54v-51zM195 -231h-54v51h54v-51z" />
    <glyph glyph-name="uni0680.fina" unicode="&#x680;" horiz-adv-x="902" arabic-form="final" 
d="M129 263c-7 -24 -13 -56 -13 -88c0 -93 58 -118 141 -129c63 -9 130 -10 210 -10c66 0 124 1 175 10c50 9 90 24 102 69c3 13 5 28 5 44v179h41v-207c0 -69 39 -91 112 -91v-47h-15c-63 0 -104 24 -123 67h-2c-39 -44 -101 -59 -183 -66c-35 -3 -78 -5 -128 -5
c-83 0 -151 2 -214 13c-71 12 -118 35 -145 88c-11 21 -17 47 -17 77c0 33 6 70 14 96h40zM392 -248h-53v51h53v-51zM489 -248h-54v51h54v-51zM392 -149h-53v51h53v-51zM489 -149h-54v51h54v-51z" />
    <glyph glyph-name="uni0680.init" unicode="&#x680;" horiz-adv-x="263" arabic-form="initial" 
d="M38 40c79 0 109 39 109 119v179h41v-176c0 -106 -45 -169 -150 -169h-38c-19 0 -34 7 -34 24s15 23 34 23h38zM145 -248h-53v51h53v-51zM242 -248h-54v51h54v-51zM145 -149h-53v51h53v-51zM242 -149h-54v51h54v-51z" />
    <glyph glyph-name="uni0680.medi" unicode="&#x680;" horiz-adv-x="300" arabic-form="medial" 
d="M47 40c66 0 100 25 100 91v207h41v-207c0 -70 42 -91 113 -91v-47h-24c-41 0 -72 16 -93 37c-7 8 -13 16 -17 25h-2c-17 -38 -55 -62 -111 -62h-54c-19 0 -34 7 -34 24s15 23 34 23h47zM145 -248h-53v51h53v-51zM242 -248h-54v51h54v-51zM145 -149h-53v51h53v-51z
M242 -149h-54v51h54v-51z" />
    <glyph glyph-name="uni067A.fina" unicode="&#x67a;" horiz-adv-x="902" arabic-form="final" 
d="M129 263c-7 -24 -13 -56 -13 -88c0 -93 58 -118 141 -129c63 -9 130 -10 210 -10c66 0 124 1 175 10c50 9 90 24 102 69c3 13 5 28 5 44v179h41v-207c0 -69 39 -91 112 -91v-47h-15c-63 0 -104 24 -123 67h-2c-39 -44 -101 -59 -183 -66c-35 -3 -78 -5 -128 -5
c-83 0 -151 2 -214 13c-71 12 -118 35 -145 88c-11 21 -17 47 -17 77c0 33 6 70 14 96h40zM467 414h-54v51h54v-51zM467 503h-54v51h54v-51z" />
    <glyph glyph-name="uni067A.init" unicode="&#x67a;" horiz-adv-x="263" arabic-form="initial" 
d="M38 40c79 0 109 39 109 119v179h41v-176c0 -106 -45 -169 -150 -169h-38c-19 0 -34 7 -34 24s15 23 34 23h38zM195 414h-54v51h54v-51zM195 503h-54v51h54v-51z" />
    <glyph glyph-name="uni067A.medi" unicode="&#x67a;" horiz-adv-x="300" arabic-form="medial" 
d="M47 40c66 0 100 25 100 91v207h41v-207c0 -70 42 -91 113 -91v-47h-24c-41 0 -72 16 -93 37c-7 8 -13 16 -17 25h-2c-17 -38 -55 -62 -111 -62h-54c-19 0 -34 7 -34 24s15 23 34 23h47zM195 414h-54v51h54v-51zM195 503h-54v51h54v-51z" />
    <glyph glyph-name="uni067F.fina" unicode="&#x67f;" horiz-adv-x="902" arabic-form="final" 
d="M129 263c-7 -24 -13 -56 -13 -88c0 -93 58 -118 141 -129c63 -9 130 -10 210 -10c66 0 124 1 175 10c50 9 90 24 102 69c3 13 5 28 5 44v179h41v-207c0 -69 39 -91 112 -91v-47h-15c-63 0 -104 24 -123 67h-2c-39 -44 -101 -59 -183 -66c-35 -3 -78 -5 -128 -5
c-83 0 -151 2 -214 13c-71 12 -118 35 -145 88c-11 21 -17 47 -17 77c0 33 6 70 14 96h40zM429 414h-53v51h53v-51zM526 414h-54v51h54v-51zM429 513h-53v51h53v-51zM526 513h-54v51h54v-51z" />
    <glyph glyph-name="uni067F.init" unicode="&#x67f;" horiz-adv-x="263" arabic-form="initial" 
d="M38 40c79 0 109 39 109 119v179h41v-176c0 -106 -45 -169 -150 -169h-38c-19 0 -34 7 -34 24s15 23 34 23h38zM147 414h-53v51h53v-51zM244 414h-54v51h54v-51zM147 513h-53v51h53v-51zM244 513h-54v51h54v-51z" />
    <glyph glyph-name="uni067F.medi" unicode="&#x67f;" horiz-adv-x="300" arabic-form="medial" 
d="M47 40c66 0 100 25 100 91v207h41v-207c0 -70 42 -91 113 -91v-47h-24c-41 0 -72 16 -93 37c-7 8 -13 16 -17 25h-2c-17 -38 -55 -62 -111 -62h-54c-19 0 -34 7 -34 24s15 23 34 23h47zM148 414h-53v51h53v-51zM245 414h-54v51h54v-51zM148 513h-53v51h53v-51zM245 513
h-54v51h54v-51z" />
    <glyph glyph-name="uni0679.fina" unicode="&#x679;" horiz-adv-x="902" arabic-form="final" 
d="M129 263c-7 -24 -13 -56 -13 -88c0 -93 58 -118 141 -129c63 -9 130 -10 210 -10c66 0 124 1 175 10c50 9 90 24 102 69c3 13 5 28 5 44v179h41v-207c0 -69 39 -91 112 -91v-47h-15c-63 0 -104 24 -123 67h-2c-39 -44 -101 -59 -183 -66c-35 -3 -78 -5 -128 -5
c-83 0 -151 2 -214 13c-71 12 -118 35 -145 88c-11 21 -17 47 -17 77c0 33 6 70 14 96h40zM297 454c14 -1 37 -2 52 -2v225h37v-164h2c20 34 53 65 101 65c37 0 60 -25 70 -53c4 -10 5 -21 5 -32c0 -53 -23 -71 -71 -76c-17 -2 -38 -3 -62 -3c-46 0 -86 0 -127 3zM527 496
c0 26 -21 44 -47 44c-22 0 -40 -11 -53 -23c-18 -16 -33 -39 -43 -65h59c34 0 70 -4 80 19c3 6 4 15 4 25z" />
    <glyph glyph-name="uni0679.init" unicode="&#x679;" horiz-adv-x="301" arabic-form="initial" 
d="M38 40c79 0 109 39 109 119v179h41v-176c0 -106 -45 -169 -150 -169h-38c-19 0 -34 7 -34 24s15 23 34 23h38zM23 492c14 -1 37 -2 52 -2v225h37v-164h2c20 34 53 65 101 65c37 0 60 -25 70 -53c4 -10 5 -21 5 -32c0 -53 -23 -71 -71 -76c-17 -2 -38 -3 -62 -3
c-46 0 -86 0 -127 3zM253 534c0 26 -21 44 -47 44c-22 0 -40 -11 -53 -23c-18 -16 -33 -39 -43 -65h59c34 0 70 -4 80 19c3 6 4 15 4 25z" />
    <glyph glyph-name="uni0679.medi" unicode="&#x679;" horiz-adv-x="300" arabic-form="medial" 
d="M47 40c66 0 100 25 100 91v207h41v-207c0 -70 42 -91 113 -91v-47h-24c-41 0 -72 16 -93 37c-7 8 -13 16 -17 25h-2c-17 -38 -55 -62 -111 -62h-54c-19 0 -34 7 -34 24s15 23 34 23h47zM23 492c14 -1 37 -2 52 -2v225h37v-164h2c20 34 53 65 101 65c37 0 60 -25 70 -53
c4 -10 5 -21 5 -32c0 -53 -23 -71 -71 -76c-17 -2 -38 -3 -62 -3c-46 0 -86 0 -127 3zM253 534c0 26 -21 44 -47 44c-22 0 -40 -11 -53 -23c-18 -16 -33 -39 -43 -65h59c34 0 70 -4 80 19c3 6 4 15 4 25z" />
    <glyph glyph-name="uni06A4.fina" unicode="&#x6a4;" horiz-adv-x="977" arabic-form="final" 
d="M129 263c-7 -24 -13 -56 -13 -88c0 -92 58 -118 141 -129c63 -9 130 -10 210 -10c82 0 145 0 216 3c11 0 20 1 27 2c0 1 1 2 1 2v1c-35 16 -61 36 -80 59s-29 49 -29 77c0 48 19 92 41 122c19 26 50 56 90 56c17 0 35 -6 53 -18c36 -24 67 -68 83 -114
c8 -23 12 -46 12 -68c0 -54 -25 -90 -61 -114c32 -4 64 -4 102 -4h56v-47h-54c-62 0 -109 7 -153 24c-24 -11 -56 -17 -89 -21c-38 -5 -83 -7 -126 -7h-105c-83 0 -150 2 -214 13c-71 12 -118 35 -145 88c-11 21 -17 47 -17 77c0 33 6 70 14 96h40zM768 56
c39 16 72 50 72 102c0 39 -18 77 -36 102c-16 22 -43 51 -75 51c-25 0 -46 -24 -58 -42c-14 -21 -28 -53 -28 -86c0 -21 9 -43 29 -65s52 -42 96 -62zM712 451h-53v51h53v-51zM809 451h-54v51h54v-51zM761 540h-54v51h54v-51z" />
    <glyph glyph-name="uni06A4.init" unicode="&#x6a4;" horiz-adv-x="414" arabic-form="initial" 
d="M-34 17c0 17 15 23 34 23h65h29c15 0 15 1 30 1c18 0 38 1 54 2l1 4c-32 16 -56 36 -75 58s-29 47 -29 75c0 48 20 92 42 122c19 26 50 56 90 56c17 0 35 -6 53 -18c36 -24 67 -69 83 -114c8 -23 12 -45 12 -66c0 -94 -57 -136 -136 -155c-32 -8 -70 -12 -115 -12h-104
c-23 0 -34 8 -34 24zM314 158c0 39 -19 77 -37 102c-16 22 -42 51 -74 51c-25 0 -46 -24 -58 -42c-14 -22 -29 -53 -29 -86c0 -21 10 -43 30 -64s53 -42 96 -63c31 12 55 37 66 69c4 11 6 21 6 33zM185 451h-53v51h53v-51zM282 451h-54v51h54v-51zM234 540h-54v51h54v-51z
" />
    <glyph glyph-name="uni06A4.medi" unicode="&#x6a4;" horiz-adv-x="413" arabic-form="medial" 
d="M-34 17c0 17 15 23 34 23h86c35 0 69 1 96 3l1 3c-44 19 -83 50 -100 94c-5 13 -8 26 -8 40c0 48 20 92 42 122c19 26 50 56 90 56c17 0 35 -6 53 -18c36 -24 67 -68 83 -114c8 -23 12 -46 12 -68c0 -54 -26 -90 -62 -114c37 -6 76 -4 121 -4v-47h-16
c-62 0 -109 8 -153 25c-43 -19 -104 -25 -170 -25h-75c-23 0 -34 8 -34 24zM242 56c39 16 72 50 72 102c0 39 -19 77 -37 102c-16 22 -42 51 -74 51c-25 0 -46 -24 -58 -42c-14 -22 -29 -53 -29 -86c0 -22 10 -44 30 -66s53 -42 96 -61zM185 451h-53v51h53v-51zM282 451h-54
v51h54v-51zM234 540h-54v51h54v-51z" />
    <glyph glyph-name="uni06A6.fina" unicode="&#x6a6;" horiz-adv-x="977" arabic-form="final" 
d="M129 263c-7 -24 -13 -56 -13 -88c0 -92 58 -118 141 -129c63 -9 130 -10 210 -10c82 0 145 0 216 3c11 0 20 1 27 2c0 1 1 2 1 2v1c-35 16 -61 36 -80 59s-29 49 -29 77c0 48 19 92 41 122c19 26 50 56 90 56c17 0 35 -6 53 -18c36 -24 67 -68 83 -114
c8 -23 12 -46 12 -68c0 -54 -25 -90 -61 -114c32 -4 64 -4 102 -4h56v-47h-54c-62 0 -109 7 -153 24c-24 -11 -56 -17 -89 -21c-38 -5 -83 -7 -126 -7h-105c-83 0 -150 2 -214 13c-71 12 -118 35 -145 88c-11 21 -17 47 -17 77c0 33 6 70 14 96h40zM768 56
c39 16 72 50 72 102c0 39 -18 77 -36 102c-16 22 -43 51 -75 51c-25 0 -46 -24 -58 -42c-14 -21 -28 -53 -28 -86c0 -21 9 -43 29 -65s52 -42 96 -62zM712 451h-53v51h53v-51zM809 451h-54v51h54v-51zM712 550h-53v51h53v-51zM809 550h-54v51h54v-51z" />
    <glyph glyph-name="uni06A6.init" unicode="&#x6a6;" horiz-adv-x="414" arabic-form="initial" 
d="M-34 17c0 17 15 23 34 23h65h29c15 0 15 1 30 1c18 0 38 1 54 2l1 4c-32 16 -56 36 -75 58s-29 47 -29 75c0 48 20 92 42 122c19 26 50 56 90 56c17 0 35 -6 53 -18c36 -24 67 -69 83 -114c8 -23 12 -45 12 -66c0 -94 -57 -136 -136 -155c-32 -8 -70 -12 -115 -12h-104
c-23 0 -34 8 -34 24zM314 158c0 39 -19 77 -37 102c-16 22 -42 51 -74 51c-25 0 -46 -24 -58 -42c-14 -22 -29 -53 -29 -86c0 -21 10 -43 30 -64s53 -42 96 -63c31 12 55 37 66 69c4 11 6 21 6 33zM185 451h-53v51h53v-51zM282 451h-54v51h54v-51zM185 550h-53v51h53v-51z
M282 550h-54v51h54v-51z" />
    <glyph glyph-name="uni06A6.medi" unicode="&#x6a6;" horiz-adv-x="413" arabic-form="medial" 
d="M-34 17c0 17 15 23 34 23h86c35 0 69 1 96 3l1 3c-44 19 -83 50 -100 94c-5 13 -8 26 -8 40c0 48 20 92 42 122c19 26 50 56 90 56c17 0 35 -6 53 -18c36 -24 67 -68 83 -114c8 -23 12 -46 12 -68c0 -54 -26 -90 -62 -114c37 -6 76 -4 121 -4v-47h-16
c-62 0 -109 8 -153 25c-43 -19 -104 -25 -170 -25h-75c-23 0 -34 8 -34 24zM242 56c39 16 72 50 72 102c0 39 -19 77 -37 102c-16 22 -42 51 -74 51c-25 0 -46 -24 -58 -42c-14 -22 -29 -53 -29 -86c0 -22 10 -44 30 -66s53 -42 96 -61zM185 451h-53v51h53v-51zM282 451h-54
v51h54v-51zM185 550h-53v51h53v-51zM282 550h-54v51h54v-51z" />
    <glyph glyph-name="uni0684.fina" unicode="&#x684;" horiz-adv-x="563" arabic-form="final" 
d="M97 353c31 11 75 23 115 23c57 0 105 -21 148 -39c45 -18 93 -39 151 -42l-7 -44c-16 -1 -39 -4 -53 -7c0 -37 1 -69 3 -95c5 -68 22 -109 93 -109h17v-47h-4c-93 0 -125 47 -136 130c-4 31 -7 68 -7 113c-91 -20 -168 -58 -222 -110c-25 -23 -43 -48 -55 -74
c-22 -46 -25 -97 -5 -144c30 -69 103 -102 203 -102c73 0 135 12 188 34v-44c-50 -23 -116 -37 -188 -37c-122 0 -210 42 -246 126c-11 26 -17 53 -17 84c0 82 45 144 94 187c64 57 155 96 260 116v4c-57 12 -105 34 -160 47c-17 4 -35 6 -54 6c-44 0 -85 -8 -118 -20v44z
M338 -64h-54v51h54v-51zM338 25h-54v51h54v-51z" />
    <glyph glyph-name="uni0684.init" unicode="&#x684;" horiz-adv-x="601" arabic-form="initial" 
d="M75 314c33 12 73 24 117 24c39 0 73 -9 105 -18c55 -16 109 -36 169 -47c20 -4 39 -6 60 -6l-7 -44c-20 -4 -39 -13 -58 -26c-43 -30 -84 -65 -128 -98c-51 -39 -111 -70 -183 -90c-37 -10 -79 -16 -126 -16h-24c-23 0 -34 8 -34 24c0 17 15 23 34 23h29
c175 0 268 78 365 155c18 14 37 28 57 40v2c-66 10 -128 34 -193 47c-22 4 -43 7 -64 7c-44 0 -86 -8 -119 -20v43zM317 -239h-54v51h54v-51zM317 -150h-54v51h54v-51z" />
    <glyph glyph-name="uni0684.medi" unicode="&#x684;" horiz-adv-x="584" arabic-form="medial" 
d="M75 314c33 12 73 24 117 24c39 0 73 -9 105 -18c55 -16 109 -36 169 -47c20 -4 39 -6 60 -6l-7 -44c-26 -4 -48 -15 -68 -29c0 -96 39 -154 133 -154v-47h-9c-111 0 -154 75 -158 183c-32 -17 -62 -44 -93 -67c-59 -44 -125 -85 -208 -105c-28 -7 -59 -11 -92 -11h-24
c-23 0 -34 8 -34 24c0 17 15 23 34 23h20c137 0 219 58 300 115c42 29 82 58 131 80v2c-66 10 -128 34 -193 47c-22 4 -43 7 -64 7c-44 0 -86 -8 -119 -20v43zM317 -239h-54v51h54v-51zM317 -150h-54v51h54v-51z" />
    <glyph glyph-name="uni0683.fina" unicode="&#x683;" horiz-adv-x="563" arabic-form="final" 
d="M97 353c31 11 75 23 115 23c57 0 105 -21 148 -39c45 -18 93 -39 151 -42l-7 -44c-16 -1 -39 -4 -53 -7c0 -37 1 -69 3 -95c5 -68 22 -109 93 -109h17v-47h-4c-93 0 -125 47 -136 130c-4 31 -7 68 -7 113c-91 -20 -168 -58 -222 -110c-25 -23 -43 -48 -55 -74
c-22 -46 -25 -97 -5 -144c30 -69 103 -102 203 -102c73 0 135 12 188 34v-44c-50 -23 -116 -37 -188 -37c-122 0 -210 42 -246 126c-11 26 -17 53 -17 84c0 82 45 144 94 187c64 57 155 96 260 116v4c-57 12 -105 34 -160 47c-17 4 -35 6 -54 6c-44 0 -85 -8 -118 -20v44z
M279 -13h-53v51h53v-51zM376 -13h-54v51h54v-51z" />
    <glyph glyph-name="uni0683.init" unicode="&#x683;" horiz-adv-x="601" arabic-form="initial" 
d="M75 314c33 12 73 24 117 24c39 0 73 -9 105 -18c55 -16 109 -36 169 -47c20 -4 39 -6 60 -6l-7 -44c-20 -4 -39 -13 -58 -26c-43 -30 -84 -65 -128 -98c-51 -39 -111 -70 -183 -90c-37 -10 -79 -16 -126 -16h-24c-23 0 -34 8 -34 24c0 17 15 23 34 23h29
c175 0 268 78 365 155c18 14 37 28 57 40v2c-66 10 -128 34 -193 47c-22 4 -43 7 -64 7c-44 0 -86 -8 -119 -20v43zM279 -150h-53v51h53v-51zM376 -150h-54v51h54v-51z" />
    <glyph glyph-name="uni0683.medi" unicode="&#x683;" horiz-adv-x="584" arabic-form="medial" 
d="M75 314c33 12 73 24 117 24c39 0 73 -9 105 -18c55 -16 109 -36 169 -47c20 -4 39 -6 60 -6l-7 -44c-26 -4 -48 -15 -68 -29c0 -96 39 -154 133 -154v-47h-9c-111 0 -154 75 -158 183c-32 -17 -62 -44 -93 -67c-59 -44 -125 -85 -208 -105c-28 -7 -59 -11 -92 -11h-24
c-23 0 -34 8 -34 24c0 17 15 23 34 23h20c137 0 219 58 300 115c42 29 82 58 131 80v2c-66 10 -128 34 -193 47c-22 4 -43 7 -64 7c-44 0 -86 -8 -119 -20v43zM279 -150h-53v51h53v-51zM376 -150h-54v51h54v-51z" />
    <glyph glyph-name="uni0686.fina" unicode="&#x686;" horiz-adv-x="563" arabic-form="final" 
d="M97 353c31 11 75 23 115 23c57 0 105 -21 148 -39c45 -18 93 -39 151 -42l-7 -44c-16 -1 -39 -4 -53 -7c0 -37 1 -69 3 -95c5 -68 22 -109 93 -109h17v-47h-4c-93 0 -125 47 -136 130c-4 31 -7 68 -7 113c-91 -20 -168 -58 -222 -110c-25 -23 -43 -48 -55 -74
c-22 -46 -25 -97 -5 -144c30 -69 103 -102 203 -102c73 0 135 12 188 34v-44c-50 -23 -116 -37 -188 -37c-122 0 -210 42 -246 126c-11 26 -17 53 -17 84c0 82 45 144 94 187c64 57 155 96 260 116v4c-57 12 -105 34 -160 47c-17 4 -35 6 -54 6c-44 0 -85 -8 -118 -20v44z
M285 2h-54v51h54v-51zM381 2h-54v51h54v-51zM334 -79h-54v51h54v-51z" />
    <glyph glyph-name="uni0686.init" unicode="&#x686;" horiz-adv-x="601" arabic-form="initial" 
d="M75 314c33 12 73 24 117 24c39 0 73 -9 105 -18c55 -16 109 -36 169 -47c20 -4 39 -6 60 -6l-7 -44c-20 -4 -39 -13 -58 -26c-43 -30 -84 -65 -128 -98c-51 -39 -111 -70 -183 -90c-37 -10 -79 -16 -126 -16h-24c-23 0 -34 8 -34 24c0 17 15 23 34 23h29
c175 0 268 78 365 155c18 14 37 28 57 40v2c-66 10 -128 34 -193 47c-22 4 -43 7 -64 7c-44 0 -86 -8 -119 -20v43zM280 -150h-54v51h54v-51zM376 -150h-54v51h54v-51zM329 -231h-54v51h54v-51z" />
    <glyph glyph-name="uni0686.medi" unicode="&#x686;" horiz-adv-x="584" arabic-form="medial" 
d="M75 314c33 12 73 24 117 24c39 0 73 -9 105 -18c55 -16 109 -36 169 -47c20 -4 39 -6 60 -6l-7 -44c-26 -4 -48 -15 -68 -29c0 -96 39 -154 133 -154v-47h-9c-111 0 -154 75 -158 183c-32 -17 -62 -44 -93 -67c-59 -44 -125 -85 -208 -105c-28 -7 -59 -11 -92 -11h-24
c-23 0 -34 8 -34 24c0 17 15 23 34 23h20c137 0 219 58 300 115c42 29 82 58 131 80v2c-66 10 -128 34 -193 47c-22 4 -43 7 -64 7c-44 0 -86 -8 -119 -20v43zM280 -150h-54v51h54v-51zM376 -150h-54v51h54v-51zM329 -231h-54v51h54v-51z" />
    <glyph glyph-name="uni0687.fina" unicode="&#x687;" horiz-adv-x="563" arabic-form="final" 
d="M97 353c31 11 75 23 115 23c57 0 105 -21 148 -39c45 -18 93 -39 151 -42l-7 -44c-16 -1 -39 -4 -53 -7c0 -37 1 -69 3 -95c5 -68 22 -109 93 -109h17v-47h-4c-93 0 -125 47 -136 130c-4 31 -7 68 -7 113c-91 -20 -168 -58 -222 -110c-25 -23 -43 -48 -55 -74
c-22 -46 -25 -97 -5 -144c30 -69 103 -102 203 -102c73 0 135 12 188 34v-44c-50 -23 -116 -37 -188 -37c-122 0 -210 42 -246 126c-11 26 -17 53 -17 84c0 82 45 144 94 187c64 57 155 96 260 116v4c-57 12 -105 34 -160 47c-17 4 -35 6 -54 6c-44 0 -85 -8 -118 -20v44z
M285 -80h-53v51h53v-51zM382 -80h-54v51h54v-51zM285 19h-53v51h53v-51zM382 19h-54v51h54v-51z" />
    <glyph glyph-name="uni0687.init" unicode="&#x687;" horiz-adv-x="601" arabic-form="initial" 
d="M75 314c33 12 73 24 117 24c39 0 73 -9 105 -18c55 -16 109 -36 169 -47c20 -4 39 -6 60 -6l-7 -44c-20 -4 -39 -13 -58 -26c-43 -30 -84 -65 -128 -98c-51 -39 -111 -70 -183 -90c-37 -10 -79 -16 -126 -16h-24c-23 0 -34 8 -34 24c0 17 15 23 34 23h29
c175 0 268 78 365 155c18 14 37 28 57 40v2c-66 10 -128 34 -193 47c-22 4 -43 7 -64 7c-44 0 -86 -8 -119 -20v43zM295 -248h-53v51h53v-51zM392 -248h-54v51h54v-51zM295 -149h-53v51h53v-51zM392 -149h-54v51h54v-51z" />
    <glyph glyph-name="uni0687.medi" unicode="&#x687;" horiz-adv-x="584" arabic-form="medial" 
d="M75 314c33 12 73 24 117 24c39 0 73 -9 105 -18c55 -16 109 -36 169 -47c20 -4 39 -6 60 -6l-7 -44c-26 -4 -48 -15 -68 -29c0 -96 39 -154 133 -154v-47h-9c-111 0 -154 75 -158 183c-32 -17 -62 -44 -93 -67c-59 -44 -125 -85 -208 -105c-28 -7 -59 -11 -92 -11h-24
c-23 0 -34 8 -34 24c0 17 15 23 34 23h20c137 0 219 58 300 115c42 29 82 58 131 80v2c-66 10 -128 34 -193 47c-22 4 -43 7 -64 7c-44 0 -86 -8 -119 -20v43zM295 -248h-53v51h53v-51zM392 -248h-54v51h54v-51zM295 -149h-53v51h53v-51zM392 -149h-54v51h54v-51z" />
    <glyph glyph-name="uni068D.fina" unicode="&#x68d;" horiz-adv-x="488" arabic-form="final" 
d="M38 47c47 -7 100 -11 153 -11c73 0 143 6 143 76c0 22 -6 59 -20 111s-34 120 -61 205h46c27 -90 50 -182 77 -274c11 -38 22 -70 44 -92c17 -16 37 -22 69 -22v-47h-19c-54 0 -88 33 -103 73h-3c-26 -60 -80 -77 -168 -77c-45 0 -98 5 -140 11zM188 -150h-53v51h53v-51z
M285 -150h-54v51h54v-51z" />
    <glyph glyph-name="uni068C.fina" unicode="&#x68c;" horiz-adv-x="488" arabic-form="final" 
d="M38 47c47 -7 100 -11 153 -11c73 0 143 6 143 76c0 22 -6 59 -20 111s-34 120 -61 205h46c27 -90 50 -182 77 -274c11 -38 22 -70 44 -92c17 -16 37 -22 69 -22v-47h-19c-54 0 -88 33 -103 73h-3c-26 -60 -80 -77 -168 -77c-45 0 -98 5 -140 11zM250 564h-53v51h53v-51z
M347 564h-54v51h54v-51z" />
    <glyph glyph-name="uni068E.fina" unicode="&#x68e;" horiz-adv-x="488" arabic-form="final" 
d="M38 47c47 -7 100 -11 153 -11c73 0 143 6 143 76c0 22 -6 59 -20 111s-34 120 -61 205h46c27 -90 50 -182 77 -274c11 -38 22 -70 44 -92c17 -16 37 -22 69 -22v-47h-19c-54 0 -88 33 -103 73h-3c-26 -60 -80 -77 -168 -77c-45 0 -98 5 -140 11zM241 564h-53v51h53v-51z
M338 564h-54v51h54v-51zM290 653h-54v51h54v-51z" />
    <glyph glyph-name="uni0688.fina" unicode="&#x688;" horiz-adv-x="488" arabic-form="final" 
d="M38 47c47 -7 100 -11 153 -11c73 0 143 6 143 76c0 22 -6 59 -20 111s-34 120 -61 205h46c27 -90 50 -182 77 -274c11 -38 22 -70 44 -92c17 -16 37 -22 69 -22v-47h-19c-54 0 -88 33 -103 73h-3c-26 -60 -80 -77 -168 -77c-45 0 -98 5 -140 11zM136 604
c14 -1 37 -2 52 -2v225h37v-164h2c20 34 53 65 101 65c37 0 60 -25 70 -53c4 -10 5 -21 5 -32c0 -53 -23 -71 -71 -76c-17 -2 -38 -3 -62 -3c-46 0 -86 0 -127 3zM366 646c0 26 -21 44 -47 44c-22 0 -40 -11 -53 -23c-18 -16 -33 -39 -43 -65h59c34 0 70 -4 80 19
c3 6 4 15 4 25z" />
    <glyph glyph-name="uni0698.fina" unicode="&#x698;" horiz-adv-x="375" arabic-form="final" 
d="M258 29c0 100 -28 195 -61 272h49c16 -48 35 -109 44 -164c7 -42 25 -77 58 -91c9 -4 19 -6 28 -6v-47h-2c-38 0 -56 12 -71 36c-1 0 -1 -1 -2 -1c0 -85 -16 -150 -52 -195c-30 -37 -74 -59 -136 -59c-42 0 -83 10 -113 22v44c30 -11 65 -19 104 -19
c120 0 154 85 154 208zM182 414h-53v51h53v-51zM279 414h-54v51h54v-51zM231 503h-54v51h54v-51z" />
    <glyph glyph-name="uni0691.fina" unicode="&#x691;" horiz-adv-x="375" arabic-form="final" 
d="M258 29c0 100 -28 195 -61 272h49c16 -48 35 -109 44 -164c7 -42 25 -77 58 -91c9 -4 19 -6 28 -6v-47h-2c-38 0 -56 12 -71 36c-1 0 -1 -1 -2 -1c0 -85 -16 -150 -52 -195c-30 -37 -74 -59 -136 -59c-42 0 -83 10 -113 22v44c30 -11 65 -19 104 -19
c120 0 154 85 154 208zM61 454c14 -1 37 -2 52 -2v225h37v-164h2c20 34 53 65 101 65c37 0 60 -25 70 -53c4 -10 5 -21 5 -32c0 -53 -23 -71 -71 -76c-17 -2 -38 -3 -62 -3c-46 0 -86 0 -127 3zM291 496c0 26 -21 44 -47 44c-22 0 -40 -11 -53 -23c-18 -16 -33 -39 -43 -65
h59c34 0 70 -4 80 19c3 6 4 15 4 25z" />
    <glyph glyph-name="uni06A9.fina" unicode="&#x6a9;" horiz-adv-x="902" arabic-form="final" 
d="M129 263c-7 -24 -13 -56 -13 -88c0 -92 58 -118 141 -129c63 -9 130 -10 210 -10c50 0 93 1 126 4c63 5 105 17 135 51c14 16 21 36 21 62c0 20 -6 39 -16 59s-28 41 -53 63s-60 46 -103 71s-97 53 -163 83v57l413 266v-52l-376 -241c81 -38 150 -71 213 -115
c41 -29 72 -56 96 -94c17 -28 26 -57 32 -94c8 -53 18 -96 63 -110c13 -4 28 -6 47 -6v-47h-9c-64 0 -107 32 -124 82h-1c-51 -84 -185 -86 -322 -86c-81 0 -147 2 -209 13c-70 12 -118 36 -145 88c-11 21 -17 47 -17 77c0 33 6 70 14 96h40z" />
    <glyph glyph-name="uni06A9.init" unicode="&#x6a9;" horiz-adv-x="451" arabic-form="initial" 
d="M376 153c0 -120 -92 -160 -223 -160h-153c-16 0 -24 8 -24 23s8 24 24 24h138c67 0 120 6 157 30c26 17 40 43 40 83c0 20 -5 39 -15 59s-29 40 -54 62s-60 46 -103 71s-97 52 -163 83v56l414 268v-52l-376 -242c82 -38 151 -74 215 -119c42 -29 75 -59 99 -98
c16 -26 24 -51 24 -88z" />
    <glyph glyph-name="uni06A9.medi" unicode="&#x6a9;" horiz-adv-x="488" arabic-form="medial" 
d="M0 -7c-15 0 -24 9 -24 24c0 13 9 23 24 23h138c102 0 197 15 197 113c0 20 -5 39 -15 59s-29 40 -54 62s-60 46 -103 71s-97 52 -163 83v56l414 268v-52l-376 -242c81 -38 149 -72 212 -115c41 -28 73 -55 97 -93c17 -28 25 -57 31 -94c8 -53 19 -96 64 -110
c13 -4 28 -6 47 -6v-47h-11c-64 0 -106 32 -123 82h-1c-34 -56 -106 -82 -201 -82h-153z" />
    <glyph glyph-name="uni06AF.fina" unicode="&#x6af;" horiz-adv-x="902" arabic-form="final" 
d="M129 263c-7 -24 -13 -56 -13 -88c0 -92 58 -118 141 -129c63 -9 130 -10 210 -10c50 0 93 1 126 4c63 5 105 17 135 51c14 16 21 36 21 62c0 20 -6 39 -16 59s-28 41 -53 63s-60 46 -103 71s-97 53 -163 83v57l413 266v-52l-376 -241c81 -38 150 -71 213 -115
c41 -29 72 -56 96 -94c17 -28 26 -57 32 -94c8 -53 18 -96 63 -110c13 -4 28 -6 47 -6v-47h-9c-64 0 -107 32 -124 82h-1c-51 -84 -185 -86 -322 -86c-81 0 -147 2 -209 13c-70 12 -118 36 -145 88c-11 21 -17 47 -17 77c0 33 6 70 14 96h40zM414 564v49l414 263v-49z" />
    <glyph glyph-name="uni06AF.init" unicode="&#x6af;" horiz-adv-x="451" arabic-form="initial" 
d="M376 153c0 -120 -92 -160 -223 -160h-153c-16 0 -24 8 -24 23s8 24 24 24h138c67 0 120 6 157 30c26 17 40 43 40 83c0 20 -5 39 -15 59s-29 40 -54 62s-60 46 -103 71s-97 52 -163 83v56l414 268v-52l-376 -242c82 -38 151 -74 215 -119c42 -29 75 -59 99 -98
c16 -26 24 -51 24 -88zM0 564v49l414 263v-49z" />
    <glyph glyph-name="uni06AF.medi" unicode="&#x6af;" horiz-adv-x="488" arabic-form="medial" 
d="M0 -7c-15 0 -24 9 -24 24c0 13 9 23 24 23h138c102 0 197 15 197 113c0 20 -5 39 -15 59s-29 40 -54 62s-60 46 -103 71s-97 52 -163 83v56l414 268v-52l-376 -242c81 -38 149 -72 212 -115c41 -28 73 -55 97 -93c17 -28 25 -57 31 -94c8 -53 19 -96 64 -110
c13 -4 28 -6 47 -6v-47h-11c-64 0 -106 32 -123 82h-1c-34 -56 -106 -82 -201 -82h-153zM0 564v49l414 263v-49z" />
    <glyph glyph-name="uni06B3.fina" unicode="&#x6b3;" horiz-adv-x="902" arabic-form="final" 
d="M129 263c-7 -24 -13 -56 -13 -88c0 -92 58 -118 141 -129c63 -9 130 -10 210 -10c50 0 93 1 126 4c63 5 105 17 135 51c14 16 21 36 21 62c0 20 -6 39 -16 59s-28 41 -53 63s-60 46 -103 71s-97 53 -163 83v57l413 266v-52l-376 -241c81 -38 150 -71 213 -115
c41 -29 72 -56 96 -94c17 -28 26 -57 32 -94c8 -53 18 -96 63 -110c13 -4 28 -6 47 -6v-47h-9c-64 0 -107 32 -124 82h-1c-51 -84 -185 -86 -322 -86c-81 0 -147 2 -209 13c-70 12 -118 36 -145 88c-11 21 -17 47 -17 77c0 33 6 70 14 96h40zM414 564v49l414 263v-49z
M447 -239h-54v51h54v-51zM447 -150h-54v51h54v-51z" />
    <glyph glyph-name="uni06B3.init" unicode="&#x6b3;" horiz-adv-x="451" arabic-form="initial" 
d="M376 153c0 -120 -92 -160 -223 -160h-153c-16 0 -24 8 -24 23s8 24 24 24h138c67 0 120 6 157 30c26 17 40 43 40 83c0 20 -5 39 -15 59s-29 40 -54 62s-60 46 -103 71s-97 52 -163 83v56l414 268v-52l-376 -242c82 -38 151 -74 215 -119c42 -29 75 -59 99 -98
c16 -26 24 -51 24 -88zM0 564v49l414 263v-49zM184 -239h-54v51h54v-51zM184 -150h-54v51h54v-51z" />
    <glyph glyph-name="uni06B3.medi" unicode="&#x6b3;" horiz-adv-x="488" arabic-form="medial" 
d="M0 -7c-15 0 -24 9 -24 24c0 13 9 23 24 23h138c102 0 197 15 197 113c0 20 -5 39 -15 59s-29 40 -54 62s-60 46 -103 71s-97 52 -163 83v56l414 268v-52l-376 -242c81 -38 149 -72 212 -115c41 -28 73 -55 97 -93c17 -28 25 -57 31 -94c8 -53 19 -96 64 -110
c13 -4 28 -6 47 -6v-47h-11c-64 0 -106 32 -123 82h-1c-34 -56 -106 -82 -201 -82h-153zM0 564v49l414 263v-49zM259 -239h-54v51h54v-51zM259 -150h-54v51h54v-51z" />
    <glyph glyph-name="uni06B1.fina" unicode="&#x6b1;" horiz-adv-x="902" arabic-form="final" 
d="M129 263c-7 -24 -13 -56 -13 -88c0 -92 58 -118 141 -129c63 -9 130 -10 210 -10c50 0 93 1 126 4c63 5 105 17 135 51c14 16 21 36 21 62c0 20 -6 39 -16 59s-28 41 -53 63s-60 46 -103 71s-97 53 -163 83v57l413 266v-52l-376 -241c81 -38 150 -71 213 -115
c41 -29 72 -56 96 -94c17 -28 26 -57 32 -94c8 -53 18 -96 63 -110c13 -4 28 -6 47 -6v-47h-9c-64 0 -107 32 -124 82h-1c-51 -84 -185 -86 -322 -86c-81 0 -147 2 -209 13c-70 12 -118 36 -145 88c-11 21 -17 47 -17 77c0 33 6 70 14 96h40zM414 564v49l414 263v-49z
M542 827h-53v51h53v-51zM639 827h-54v51h54v-51z" />
    <glyph glyph-name="uni06B1.init" unicode="&#x6b1;" horiz-adv-x="451" arabic-form="initial" 
d="M376 153c0 -120 -92 -160 -223 -160h-153c-16 0 -24 8 -24 23s8 24 24 24h138c67 0 120 6 157 30c26 17 40 43 40 83c0 20 -5 39 -15 59s-29 40 -54 62s-60 46 -103 71s-97 52 -163 83v56l414 268v-52l-376 -242c82 -38 151 -74 215 -119c42 -29 75 -59 99 -98
c16 -26 24 -51 24 -88zM0 564v49l414 263v-49zM129 827h-53v51h53v-51zM226 827h-54v51h54v-51z" />
    <glyph glyph-name="uni06B1.medi" unicode="&#x6b1;" horiz-adv-x="488" arabic-form="medial" 
d="M0 -7c-15 0 -24 9 -24 24c0 13 9 23 24 23h138c102 0 197 15 197 113c0 20 -5 39 -15 59s-29 40 -54 62s-60 46 -103 71s-97 52 -163 83v56l414 268v-52l-376 -242c81 -38 149 -72 212 -115c41 -28 73 -55 97 -93c17 -28 25 -57 31 -94c8 -53 19 -96 64 -110
c13 -4 28 -6 47 -6v-47h-11c-64 0 -106 32 -123 82h-1c-34 -56 -106 -82 -201 -82h-153zM0 564v49l414 263v-49zM129 827h-53v51h53v-51zM226 827h-54v51h54v-51z" />
    <glyph glyph-name="uni06BA.fina" unicode="&#x6ba;" horiz-adv-x="620" arabic-form="final" 
d="M485 21c0 65 -10 128 -23 187h40c7 -29 13 -55 18 -90c8 -53 40 -78 101 -78v-47h-12c-35 0 -65 14 -80 34h-3c0 -161 -74 -253 -233 -253c-141 0 -218 73 -218 216c0 44 7 84 16 123h38c-8 -37 -13 -72 -13 -113c0 -125 58 -179 184 -179c128 0 185 71 185 200z" />
    <glyph glyph-name="uni06BB.fina" unicode="&#x6bb;" horiz-adv-x="620" arabic-form="final" 
d="M485 21c0 65 -10 128 -23 187h40c7 -29 13 -55 18 -90c8 -53 40 -78 101 -78v-47h-12c-35 0 -65 14 -80 34h-3c0 -161 -74 -253 -233 -253c-141 0 -218 73 -218 216c0 44 7 84 16 123h38c-8 -37 -13 -72 -13 -113c0 -125 58 -179 184 -179c128 0 185 71 185 200zM151 378
c14 -1 37 -2 52 -2v225h37v-164h2c20 34 53 65 101 65c37 0 60 -25 70 -53c4 -10 5 -21 5 -32c0 -53 -23 -71 -71 -76c-17 -2 -38 -3 -62 -3c-46 0 -86 0 -127 3zM381 420c0 26 -21 44 -47 44c-22 0 -40 -11 -53 -23c-18 -16 -33 -39 -43 -65h59c34 0 70 -4 80 19
c3 6 4 15 4 25z" />
    <glyph glyph-name="uni06BB.init" unicode="&#x6bb;" horiz-adv-x="300" arabic-form="initial" 
d="M38 40c79 0 109 39 109 119v179h41v-176c0 -106 -45 -169 -150 -169h-38c-19 0 -34 7 -34 24s15 23 34 23h38zM33 454c14 -1 37 -2 52 -2v225h37v-164h2c20 34 53 65 101 65c37 0 60 -25 70 -53c4 -10 5 -21 5 -32c0 -53 -23 -71 -71 -76c-17 -2 -38 -3 -62 -3
c-46 0 -86 0 -127 3zM263 496c0 26 -21 44 -47 44c-22 0 -40 -11 -53 -23c-18 -16 -33 -39 -43 -65h59c34 0 70 -4 80 19c3 6 4 15 4 25z" />
    <glyph glyph-name="uni06BB.medi" unicode="&#x6bb;" horiz-adv-x="300" arabic-form="medial" 
d="M47 40c66 0 100 25 100 91v207h41v-207c0 -70 42 -91 113 -91v-47h-24c-41 0 -72 16 -93 37c-7 8 -13 16 -17 25h-2c-17 -38 -55 -62 -111 -62h-54c-19 0 -34 7 -34 24s15 23 34 23h47zM33 454c14 -1 37 -2 52 -2v225h37v-164h2c20 34 53 65 101 65c37 0 60 -25 70 -53
c4 -10 5 -21 5 -32c0 -53 -23 -71 -71 -76c-17 -2 -38 -3 -62 -3c-46 0 -86 0 -127 3zM263 496c0 26 -21 44 -47 44c-22 0 -40 -11 -53 -23c-18 -16 -33 -39 -43 -65h59c34 0 70 -4 80 19c3 6 4 15 4 25z" />
    <glyph glyph-name="uni06C0.fina" unicode="&#x6c0;" horiz-adv-x="451" arabic-form="final" 
d="M335 110c-30 -13 -70 -24 -114 -24c-66 0 -113 23 -135 67c-7 14 -11 30 -11 48c0 53 27 88 61 115c48 38 116 60 197 72v54h43v-292c0 -51 6 -92 41 -105c9 -3 21 -5 34 -5v-47h-11c-52 0 -83 30 -97 69c-5 14 -8 30 -8 48zM226 128c40 0 82 9 107 22v197
c-65 -8 -121 -24 -162 -52c-28 -19 -54 -46 -54 -87c0 -58 46 -80 109 -80zM315 697c-8 2 -18 3 -28 3c-28 0 -47 -11 -57 -29c-3 -6 -5 -13 -5 -21c0 -34 27 -48 63 -48h50v-38h-168v35h46l1 3c-14 12 -27 31 -27 56c0 39 26 62 56 73c12 4 24 7 38 7c10 0 20 -1 31 -3v-38
z" />
    <glyph glyph-name="uni06C1.fina" unicode="&#x6c1;" horiz-adv-x="488" arabic-form="final" 
d="M40 -38c-1 10 -2 19 -2 28c0 87 39 152 97 182c20 11 42 16 67 16c43 0 73 -18 99 -38c44 -33 79 -76 132 -99c17 -7 35 -11 56 -11v-47h-6c-45 0 -80 18 -108 38c-44 31 -81 74 -129 99c-14 7 -28 11 -43 11c-65 0 -101 -41 -116 -92c-6 -19 -8 -40 -8 -63v-24h-39z" />
    <glyph glyph-name="uni06C1.init" unicode="&#x6c1;" horiz-adv-x="263" arabic-form="initial" 
d="M38 40c79 0 109 39 109 119v179h41v-176c0 -106 -45 -169 -150 -169h-38c-19 0 -34 7 -34 24s15 23 34 23h38zM170 -34c-32 -13 -57 -43 -57 -86c0 -7 1 -17 3 -23c9 4 18 7 27 7c26 0 45 -20 45 -46c0 -27 -19 -44 -47 -44c-44 0 -66 41 -66 88c0 66 37 109 83 131z" />
    <glyph glyph-name="uni06C1.medi" unicode="&#x6c1;" horiz-adv-x="488" arabic-form="medial" 
d="M-24 17c0 15 9 23 24 23h41c37 0 66 2 85 19c22 19 33 48 45 80c14 37 27 72 45 111h47c-36 -73 -70 -150 -86 -237c-4 -23 -7 -44 -7 -64c0 -80 39 -117 105 -137c7 106 49 183 130 214c25 9 53 14 84 14v-47c-133 0 -173 -84 -173 -219v-13c-87 8 -149 47 -175 115
c-8 21 -12 42 -12 65c0 29 2 46 9 69l-1 1h-1c-20 -10 -47 -18 -79 -18h-57c-15 0 -24 9 -24 24z" />
    <glyph glyph-name="uni06BE.fina" unicode="&#x6be;" horiz-adv-x="601" arabic-form="final" 
d="M66 48c52 -6 101 -8 159 -8c11 92 38 175 77 238c22 35 47 67 81 86c14 8 28 11 42 11c30 0 54 -21 69 -41c19 -26 32 -65 32 -111c0 -81 -39 -144 -87 -180l1 -3h162v-47h-154c0 -1 -1 -2 -1 -3c43 -23 79 -68 79 -133c0 -50 -23 -84 -59 -99c-13 -5 -27 -8 -43 -8
c-60 0 -105 31 -135 67c-36 42 -61 102 -64 176c-38 0 -85 2 -122 4c-13 1 -23 2 -29 3c-3 16 -5 33 -8 48zM338 40c44 0 78 26 101 52c25 29 46 71 46 123c0 46 -16 87 -43 106c-8 6 -16 8 -24 8c-13 0 -27 -8 -43 -23c-38 -36 -66 -95 -86 -155c-12 -35 -19 -72 -23 -111
h72zM419 -204c42 0 66 26 66 69c0 38 -20 68 -42 88c-24 22 -61 40 -105 40h-72c3 -86 38 -152 96 -182c18 -9 36 -15 57 -15z" />
    <glyph glyph-name="uni06BE.init" unicode="&#x6be;" horiz-adv-x="601" arabic-form="initial" 
d="M211 394c-25 13 -48 25 -73 38v55c74 -41 135 -80 185 -115s90 -69 120 -100s51 -59 64 -86s19 -53 19 -76c0 -49 -20 -88 -50 -107c-10 -7 -21 -10 -32 -10c-75 0 -142 19 -196 42c-34 -23 -66 -36 -119 -40c-18 -1 -40 -2 -65 -2h-64c-16 0 -24 10 -24 25s8 22 24 22
h75c48 0 93 5 123 19v1c-41 21 -72 45 -92 70s-31 53 -31 84c0 41 19 78 38 105c23 32 56 61 98 72v3zM235 89c37 33 62 73 62 137c0 51 -13 97 -41 118c-8 6 -15 8 -23 8c-20 0 -37 -11 -50 -21c-26 -19 -49 -47 -61 -80c-4 -11 -6 -22 -6 -32c0 -30 12 -48 28 -66
c24 -26 55 -45 91 -64zM324 314c10 -24 14 -59 14 -94c0 -62 -26 -114 -57 -149c48 -20 111 -31 179 -31c13 15 25 38 25 65c0 15 -3 31 -10 48c-18 41 -49 75 -82 107c-20 19 -42 38 -67 57z" />
    <glyph glyph-name="uni06BE.medi" unicode="&#x6be;" horiz-adv-x="451" arabic-form="medial" 
d="M-24 17c0 15 9 23 24 23h75c11 92 38 175 77 238c22 35 47 67 81 86c14 8 28 12 42 12c31 0 54 -21 69 -42c19 -27 32 -65 32 -111c0 -81 -38 -144 -86 -180c1 -2 1 -3 1 -3h161v-47h-154l-1 -3c43 -23 79 -68 79 -133c0 -50 -23 -84 -59 -99c-13 -5 -27 -8 -43 -8
c-60 0 -105 31 -135 67c-36 42 -61 102 -64 176h-75c-15 0 -24 9 -24 24zM188 40c44 0 79 26 102 52c25 29 45 71 45 123c0 46 -16 87 -43 106c-8 6 -16 8 -24 8c-13 0 -27 -8 -43 -23c-38 -36 -66 -95 -86 -155c-12 -35 -19 -72 -23 -111h72zM270 -204c42 0 65 26 65 69
c0 38 -20 68 -42 88c-24 22 -61 40 -105 40h-72c3 -86 38 -152 96 -182c18 -9 37 -15 58 -15z" />
    <glyph glyph-name="uni06D2.fina" unicode="&#x6d2;" horiz-adv-x="338" arabic-form="final" 
d="M828 -195c-127 -15 -256 -22 -398 -22c-69 0 -127 3 -173 9s-82 15 -109 27s-45 26 -56 42s-17 35 -17 55c0 75 60 102 126 115c29 6 64 9 106 9h31v-47h-38c-54 0 -101 -4 -136 -19c-23 -10 -42 -26 -42 -56c0 -14 5 -26 15 -37s26 -20 51 -27s59 -14 101 -18
s97 -6 162 -6c136 0 264 6 377 20v-45z" />
    <glyph glyph-name="uni06D3.fina" unicode="&#x6d3;" horiz-adv-x="338" arabic-form="final" 
d="M828 -195c-127 -15 -256 -22 -398 -22c-69 0 -127 3 -173 9s-82 15 -109 27s-45 26 -56 42s-17 35 -17 55c0 75 60 102 126 115c29 6 64 9 106 9h31v-47h-38c-54 0 -101 -4 -136 -19c-23 -10 -42 -26 -42 -56c0 -14 5 -26 15 -37s26 -20 51 -27s59 -14 101 -18
s97 -6 162 -6c136 0 264 6 377 20v-45zM278 359c-8 2 -18 3 -28 3c-28 0 -47 -11 -57 -29c-3 -6 -5 -13 -5 -21c0 -34 27 -48 63 -48h50v-38h-168v35h46l1 3c-14 12 -27 31 -27 56c0 39 26 62 56 73c12 4 24 7 38 7c10 0 20 -1 31 -3v-38z" />
    <glyph glyph-name="uni06AD.fina" unicode="&#x6ad;" horiz-adv-x="827" arabic-form="final" 
d="M129 263c-7 -24 -13 -56 -13 -88c0 -113 90 -128 200 -133c29 -1 66 -2 110 -2c48 0 87 3 119 7c79 11 128 37 128 123v568h41v-577c0 -81 35 -121 113 -121v-47h-14c-63 0 -108 32 -122 82h-1c-46 -73 -154 -82 -276 -82c-75 0 -132 1 -189 11c-64 11 -108 37 -133 86
c-11 21 -17 47 -17 77c0 33 6 70 14 96h40zM327 331c35 0 64 4 86 15c12 6 27 15 27 29c0 13 -13 19 -22 25c-6 4 -13 8 -22 13c-17 9 -29 18 -36 26s-10 18 -10 27c0 24 16 40 33 52c27 18 63 29 106 35v-38c-31 -4 -58 -10 -79 -20c-10 -5 -23 -11 -23 -22
c0 -14 10 -19 20 -25c5 -3 13 -8 21 -13c19 -11 32 -20 39 -29s11 -19 11 -28c0 -28 -18 -46 -38 -58c-28 -17 -68 -25 -113 -27v38zM392 714h-53v51h53v-51zM489 714h-54v51h54v-51zM441 803h-54v51h54v-51z" />
    <glyph glyph-name="uni06AD.init" unicode="&#x6ad;" horiz-adv-x="451" arabic-form="initial" 
d="M376 153c0 -120 -92 -160 -223 -160h-153c-16 0 -24 8 -24 23s8 24 24 24h138c67 0 120 6 157 30c26 17 40 43 40 83c0 20 -5 39 -15 59s-29 40 -54 62s-60 46 -103 71s-97 52 -163 83v56l414 268v-52l-376 -242c82 -38 151 -74 215 -119c42 -29 75 -59 99 -98
c16 -26 24 -51 24 -88zM91 714h-53v51h53v-51zM188 714h-54v51h54v-51zM140 803h-54v51h54v-51z" />
    <glyph glyph-name="uni06AD.medi" unicode="&#x6ad;" horiz-adv-x="488" arabic-form="medial" 
d="M0 -7c-15 0 -24 9 -24 24c0 13 9 23 24 23h138c102 0 197 15 197 113c0 20 -5 39 -15 59s-29 40 -54 62s-60 46 -103 71s-97 52 -163 83v56l414 268v-52l-376 -242c81 -38 149 -72 212 -115c41 -28 73 -55 97 -93c17 -28 25 -57 31 -94c8 -53 19 -96 64 -110
c13 -4 28 -6 47 -6v-47h-11c-64 0 -106 32 -123 82h-1c-34 -56 -106 -82 -201 -82h-153zM91 714h-53v51h53v-51zM188 714h-54v51h54v-51zM140 803h-54v51h54v-51z" />
    <glyph glyph-name="uni06C7.fina" unicode="&#x6c7;" horiz-adv-x="413" arabic-form="final" 
d="M0 -160c38 -14 86 -19 137 -19c70 0 116 17 142 61c16 28 26 68 31 111h-84c-79 0 -134 34 -157 89c-7 17 -10 35 -10 54c0 45 20 85 42 112c21 26 55 53 98 53c26 0 47 -8 66 -24c56 -48 85 -135 88 -237h61v-47h-62c-10 -139 -67 -219 -215 -219c-49 0 -104 8 -137 22
v44zM197 254c-29 0 -50 -17 -64 -34c-15 -19 -28 -47 -28 -80c0 -69 54 -100 124 -100h81c0 63 -15 116 -38 156c-12 21 -27 40 -47 51c-9 5 -19 7 -28 7zM208 425c-16 -4 -32 -5 -50 -5c-35 0 -71 5 -99 13c3 11 5 22 8 33c28 -7 61 -13 95 -13c7 0 13 1 19 2v1
c-17 18 -30 40 -30 70c0 39 24 63 53 74c10 4 22 6 33 6c39 0 63 -23 74 -51c4 -10 6 -21 6 -33c0 -18 -6 -34 -17 -49s-29 -28 -55 -38c6 -6 20 -19 26 -24l-26 -20c-7 6 -14 11 -20 17zM221 461c29 7 59 26 59 59c0 28 -20 48 -48 48c-25 0 -44 -18 -44 -44s17 -52 33 -63
z" />
    <glyph glyph-name="uni06C6.fina" unicode="&#x6c6;" horiz-adv-x="413" arabic-form="final" 
d="M0 -160c38 -14 86 -19 137 -19c70 0 116 17 142 61c16 28 26 68 31 111h-84c-79 0 -134 34 -157 89c-7 17 -10 35 -10 54c0 45 20 85 42 112c21 26 55 53 98 53c26 0 47 -8 66 -24c56 -48 85 -135 88 -237h61v-47h-62c-10 -139 -67 -219 -215 -219c-49 0 -104 8 -137 22
v44zM197 254c-29 0 -50 -17 -64 -34c-15 -19 -28 -47 -28 -80c0 -69 54 -100 124 -100h81c0 63 -15 116 -38 156c-12 21 -27 40 -47 51c-9 5 -19 7 -28 7zM188 415l-113 171h42l90 -133l90 133h41l-112 -171h-38z" />
    <glyph glyph-name="uni06C8.fina" unicode="&#x6c8;" horiz-adv-x="413" arabic-form="final" 
d="M0 -160c38 -14 86 -19 137 -19c70 0 116 17 142 61c16 28 26 68 31 111h-84c-79 0 -134 34 -157 89c-7 17 -10 35 -10 54c0 45 20 85 42 112c21 26 55 53 98 53c26 0 47 -8 66 -24c56 -48 85 -135 88 -237h61v-47h-62c-10 -139 -67 -219 -215 -219c-49 0 -104 8 -137 22
v44zM197 254c-29 0 -50 -17 -64 -34c-15 -19 -28 -47 -28 -80c0 -69 54 -100 124 -100h81c0 63 -15 116 -38 156c-12 21 -27 40 -47 51c-9 5 -19 7 -28 7zM213 415h-37v191h37v-191z" />
    <glyph glyph-name="uni06CB.fina" unicode="&#x6cb;" horiz-adv-x="413" arabic-form="final" 
d="M0 -160c38 -14 86 -19 137 -19c70 0 116 17 142 61c16 28 26 68 31 111h-84c-79 0 -134 34 -157 89c-7 17 -10 35 -10 54c0 45 20 85 42 112c21 26 55 53 98 53c26 0 47 -8 66 -24c56 -48 85 -135 88 -237h61v-47h-62c-10 -139 -67 -219 -215 -219c-49 0 -104 8 -137 22
v44zM197 254c-29 0 -50 -17 -64 -34c-15 -19 -28 -47 -28 -80c0 -69 54 -100 124 -100h81c0 63 -15 116 -38 156c-12 21 -27 40 -47 51c-9 5 -19 7 -28 7zM166 414h-53v51h53v-51zM263 414h-54v51h54v-51zM215 503h-54v51h54v-51z" />
    <glyph glyph-name="uni06C5.fina" unicode="&#x6c5;" horiz-adv-x="413" arabic-form="final" 
d="M0 -160c38 -14 86 -19 137 -19c71 0 118 17 143 63c8 14 14 31 19 50h-238v42h245c3 24 5 53 5 80c-23 -12 -53 -18 -91 -18c-71 0 -121 36 -143 86c-8 18 -12 38 -12 59c0 47 20 87 42 114c21 26 54 51 97 51c20 0 38 -7 56 -20c42 -31 67 -86 82 -149
c8 -36 13 -77 13 -123v-16h59v-47h-61c-11 -138 -69 -219 -216 -219c-49 0 -104 8 -137 22v44zM226 82c35 0 59 6 82 17c0 35 -9 74 -18 103c-13 38 -34 74 -67 91c-9 5 -19 8 -28 8c-26 0 -46 -17 -58 -34c-14 -19 -25 -48 -25 -80c0 -52 29 -83 68 -97c14 -5 29 -8 46 -8z
" />
    <glyph glyph-name="uni06C9.fina" unicode="&#x6c9;" horiz-adv-x="413" arabic-form="final" 
d="M0 -160c38 -14 86 -19 137 -19c70 0 116 17 142 61c16 28 26 68 31 111h-84c-79 0 -134 34 -157 89c-7 17 -10 35 -10 54c0 45 20 85 42 112c21 26 55 53 98 53c26 0 47 -8 66 -24c56 -48 85 -135 88 -237h61v-47h-62c-10 -139 -67 -219 -215 -219c-49 0 -104 8 -137 22
v44zM197 254c-29 0 -50 -17 -64 -34c-15 -19 -28 -47 -28 -80c0 -69 54 -100 124 -100h81c0 63 -15 116 -38 156c-12 21 -27 40 -47 51c-9 5 -19 7 -28 7zM209 586l112 -171h-41l-90 133l-90 -133h-42l113 171h38z" />
    <glyph glyph-name="uni06D0.fina" unicode="&#x6d0;" horiz-adv-x="827" arabic-form="final" 
d="M129 338c-7 -35 -13 -80 -13 -120c0 -148 92 -194 242 -194c56 0 102 6 135 24c20 11 35 26 35 52c0 22 -12 37 -21 52c-10 17 -22 34 -22 61c0 41 24 68 54 80c11 4 22 6 33 6c56 0 82 -47 99 -86c15 -34 26 -81 38 -112c17 -42 41 -61 100 -61h18v-47h-23
c-72 0 -113 40 -133 91c-12 32 -21 63 -31 93c-9 28 -21 52 -40 67c-8 7 -18 10 -30 10c-24 0 -44 -15 -44 -39c0 -21 13 -37 22 -51c11 -17 21 -36 21 -64c0 -43 -26 -70 -57 -88c-42 -24 -101 -34 -170 -34c-173 0 -267 68 -267 239c0 47 6 81 16 121h38zM355 -239h-54v51
h54v-51zM355 -150h-54v51h54v-51z" />
    <glyph glyph-name="uni06D0.init" unicode="&#x6d0;" horiz-adv-x="263" arabic-form="initial" 
d="M38 40c79 0 109 39 109 119v179h41v-176c0 -106 -45 -169 -150 -169h-38c-19 0 -34 7 -34 24s15 23 34 23h38zM188 -239h-54v51h54v-51zM188 -150h-54v51h54v-51z" />
    <glyph glyph-name="uni06D0.medi" unicode="&#x6d0;" horiz-adv-x="300" arabic-form="medial" 
d="M47 40c66 0 100 25 100 91v207h41v-207c0 -70 42 -91 113 -91v-47h-24c-41 0 -72 16 -93 37c-7 8 -13 16 -17 25h-2c-17 -38 -55 -62 -111 -62h-54c-19 0 -34 7 -34 24s15 23 34 23h47zM193 -239h-54v51h54v-51zM193 -150h-54v51h54v-51z" />
    <glyph glyph-name="uni0649.init" unicode="&#x649;" horiz-adv-x="263" arabic-form="initial" 
d="M38 40c79 0 109 39 109 119v179h41v-176c0 -106 -45 -169 -150 -169h-38c-19 0 -34 7 -34 24s15 23 34 23h38z" />
    <glyph glyph-name="uni0649.medi" unicode="&#x649;" horiz-adv-x="300" arabic-form="medial" 
d="M47 40c66 0 100 25 100 91v207h41v-207c0 -70 42 -91 113 -91v-47h-24c-41 0 -72 16 -93 37c-7 8 -13 16 -17 25h-2c-17 -38 -55 -62 -111 -62h-54c-19 0 -34 7 -34 24s15 23 34 23h47z" />
    <glyph glyph-name="uniFBEA" unicode="&#xfbea;" horiz-adv-x="488" arabic-form="isolated" 
d="M216 -7c-95 0 -141 45 -141 138v609h41v-580c0 -62 9 -104 57 -115c14 -3 32 -5 53 -5v-47h-10zM264 40c79 0 109 39 109 119v179h41v-176c0 -106 -45 -169 -150 -169h-38c-19 0 -34 7 -34 24s15 23 34 23h38zM446 547c-8 2 -18 3 -28 3c-28 0 -47 -11 -57 -29
c-3 -6 -5 -13 -5 -21c0 -34 27 -48 63 -48h50v-38h-168v35h46l1 3c-14 12 -27 31 -27 56c0 39 26 62 56 73c12 4 24 7 38 7c10 0 20 -1 31 -3v-38z" />
    <glyph glyph-name="uniFBEB" unicode="&#xfbeb;" horiz-adv-x="526" arabic-form="final" 
d="M216 -7c-95 0 -141 45 -141 138v609h41v-580c0 -62 9 -104 57 -115c14 -3 32 -5 53 -5v-47h-10zM273 40c66 0 100 25 100 91v207h41v-207c0 -70 42 -91 113 -91v-47h-24c-41 0 -72 16 -93 37c-7 8 -13 16 -17 25h-2c-17 -38 -55 -62 -111 -62h-54c-19 0 -34 7 -34 24
s15 23 34 23h47zM446 547c-8 2 -18 3 -28 3c-28 0 -47 -11 -57 -29c-3 -6 -5 -13 -5 -21c0 -34 27 -48 63 -48h50v-38h-168v35h46l1 3c-14 12 -27 31 -27 56c0 39 26 62 56 73c12 4 24 7 38 7c10 0 20 -1 31 -3v-38z" />
    <glyph glyph-name="uniFBEC" unicode="&#xfbec;" horiz-adv-x="714" arabic-form="isolated" 
d="M335 110c-30 -13 -70 -24 -114 -24c-66 0 -113 23 -135 67c-7 14 -11 30 -11 48c0 53 27 88 61 115c48 38 116 60 197 72v54h43v-292c0 -51 6 -92 41 -105c9 -3 21 -5 34 -5v-47h-11c-52 0 -83 30 -97 69c-5 14 -8 30 -8 48zM226 128c40 0 82 9 107 22v197
c-65 -8 -121 -24 -162 -52c-28 -19 -54 -46 -54 -87c0 -58 46 -80 109 -80zM489 40c79 0 109 39 109 119v179h41v-176c0 -106 -45 -169 -150 -169h-38c-19 0 -34 7 -34 24s15 23 34 23h38zM672 547c-8 2 -18 3 -28 3c-28 0 -47 -11 -57 -29c-3 -6 -5 -13 -5 -21
c0 -34 27 -48 63 -48h50v-38h-168v35h46l1 3c-14 12 -27 31 -27 56c0 39 26 62 56 73c12 4 24 7 38 7c10 0 20 -1 31 -3v-38z" />
    <glyph glyph-name="uniFBED" unicode="&#xfbed;" horiz-adv-x="751" arabic-form="final" 
d="M335 110c-30 -13 -70 -24 -114 -24c-66 0 -113 23 -135 67c-7 14 -11 30 -11 48c0 53 27 88 61 115c48 38 116 60 197 72v54h43v-292c0 -51 6 -92 41 -105c9 -3 21 -5 34 -5v-47h-11c-52 0 -83 30 -97 69c-5 14 -8 30 -8 48zM226 128c40 0 82 9 107 22v197
c-65 -8 -121 -24 -162 -52c-28 -19 -54 -46 -54 -87c0 -58 46 -80 109 -80zM498 40c66 0 100 25 100 91v207h41v-207c0 -70 42 -91 113 -91v-47h-24c-41 0 -72 16 -93 37c-7 8 -13 16 -17 25h-2c-17 -38 -55 -62 -111 -62h-54c-19 0 -34 7 -34 24s15 23 34 23h47zM672 547
c-8 2 -18 3 -28 3c-28 0 -47 -11 -57 -29c-3 -6 -5 -13 -5 -21c0 -34 27 -48 63 -48h50v-38h-168v35h46l1 3c-14 12 -27 31 -27 56c0 39 26 62 56 73c12 4 24 7 38 7c10 0 20 -1 31 -3v-38z" />
    <glyph glyph-name="uniFBEE" unicode="&#xfbee;" horiz-adv-x="676" arabic-form="isolated" 
d="M0 -160c38 -14 86 -19 137 -19c70 0 116 17 142 61c16 28 26 68 31 111h-84c-79 0 -134 34 -157 89c-7 17 -10 35 -10 54c0 45 20 85 42 112c21 26 55 53 98 53c26 0 47 -8 66 -24c56 -48 85 -135 88 -237h61v-47h-62c-10 -139 -67 -219 -215 -219c-49 0 -104 8 -137 22
v44zM197 254c-29 0 -50 -17 -64 -34c-15 -19 -28 -47 -28 -80c0 -69 54 -100 124 -100h81c0 63 -15 116 -38 156c-12 21 -27 40 -47 51c-9 5 -19 7 -28 7zM452 40c79 0 109 39 109 119v179h41v-176c0 -106 -45 -169 -150 -169h-38c-19 0 -34 7 -34 24s15 23 34 23h38z
M634 547c-8 2 -18 3 -28 3c-28 0 -47 -11 -57 -29c-3 -6 -5 -13 -5 -21c0 -34 27 -48 63 -48h50v-38h-168v35h46l1 3c-14 12 -27 31 -27 56c0 39 26 62 56 73c12 4 24 7 38 7c10 0 20 -1 31 -3v-38z" />
    <glyph glyph-name="uniFBEF" unicode="&#xfbef;" horiz-adv-x="714" arabic-form="final" 
d="M0 -160c38 -14 86 -19 137 -19c70 0 116 17 142 61c16 28 26 68 31 111h-84c-79 0 -134 34 -157 89c-7 17 -10 35 -10 54c0 45 20 85 42 112c21 26 55 53 98 53c26 0 47 -8 66 -24c56 -48 85 -135 88 -237h61v-47h-62c-10 -139 -67 -219 -215 -219c-49 0 -104 8 -137 22
v44zM197 254c-29 0 -50 -17 -64 -34c-15 -19 -28 -47 -28 -80c0 -69 54 -100 124 -100h81c0 63 -15 116 -38 156c-12 21 -27 40 -47 51c-9 5 -19 7 -28 7zM461 40c66 0 100 25 100 91v207h41v-207c0 -70 42 -91 113 -91v-47h-24c-41 0 -72 16 -93 37c-7 8 -13 16 -17 25h-2
c-17 -38 -55 -62 -111 -62h-54c-19 0 -34 7 -34 24s15 23 34 23h47zM634 547c-8 2 -18 3 -28 3c-28 0 -47 -11 -57 -29c-3 -6 -5 -13 -5 -21c0 -34 27 -48 63 -48h50v-38h-168v35h46l1 3c-14 12 -27 31 -27 56c0 39 26 62 56 73c12 4 24 7 38 7c10 0 20 -1 31 -3v-38z" />
    <glyph glyph-name="uniFBF0" unicode="&#xfbf0;" horiz-adv-x="676" arabic-form="isolated" 
d="M0 -160c38 -14 86 -19 137 -19c70 0 116 17 142 61c16 28 26 68 31 111h-84c-79 0 -134 34 -157 89c-7 17 -10 35 -10 54c0 45 20 85 42 112c21 26 55 53 98 53c26 0 47 -8 66 -24c56 -48 85 -135 88 -237h61v-47h-62c-10 -139 -67 -219 -215 -219c-49 0 -104 8 -137 22
v44zM197 254c-29 0 -50 -17 -64 -34c-15 -19 -28 -47 -28 -80c0 -69 54 -100 124 -100h81c0 63 -15 116 -38 156c-12 21 -27 40 -47 51c-9 5 -19 7 -28 7zM208 425c-16 -4 -32 -5 -50 -5c-35 0 -71 5 -99 13c3 11 5 22 8 33c28 -7 61 -13 95 -13c7 0 13 1 19 2v1
c-17 18 -30 40 -30 70c0 39 24 63 53 74c10 4 22 6 33 6c39 0 63 -23 74 -51c4 -10 6 -21 6 -33c0 -18 -6 -34 -17 -49s-29 -28 -55 -38c6 -6 20 -19 26 -24l-26 -20c-7 6 -14 11 -20 17zM221 461c29 7 59 26 59 59c0 28 -20 48 -48 48c-25 0 -44 -18 -44 -44s17 -52 33 -63
zM452 40c79 0 109 39 109 119v179h41v-176c0 -106 -45 -169 -150 -169h-38c-19 0 -34 7 -34 24s15 23 34 23h38zM634 547c-8 2 -18 3 -28 3c-28 0 -47 -11 -57 -29c-3 -6 -5 -13 -5 -21c0 -34 27 -48 63 -48h50v-38h-168v35h46l1 3c-14 12 -27 31 -27 56c0 39 26 62 56 73
c12 4 24 7 38 7c10 0 20 -1 31 -3v-38z" />
    <glyph glyph-name="uniFBF1" unicode="&#xfbf1;" horiz-adv-x="714" arabic-form="final" 
d="M0 -160c38 -14 86 -19 137 -19c70 0 116 17 142 61c16 28 26 68 31 111h-84c-79 0 -134 34 -157 89c-7 17 -10 35 -10 54c0 45 20 85 42 112c21 26 55 53 98 53c26 0 47 -8 66 -24c56 -48 85 -135 88 -237h61v-47h-62c-10 -139 -67 -219 -215 -219c-49 0 -104 8 -137 22
v44zM197 254c-29 0 -50 -17 -64 -34c-15 -19 -28 -47 -28 -80c0 -69 54 -100 124 -100h81c0 63 -15 116 -38 156c-12 21 -27 40 -47 51c-9 5 -19 7 -28 7zM208 425c-16 -4 -32 -5 -50 -5c-35 0 -71 5 -99 13c3 11 5 22 8 33c28 -7 61 -13 95 -13c7 0 13 1 19 2v1
c-17 18 -30 40 -30 70c0 39 24 63 53 74c10 4 22 6 33 6c39 0 63 -23 74 -51c4 -10 6 -21 6 -33c0 -18 -6 -34 -17 -49s-29 -28 -55 -38c6 -6 20 -19 26 -24l-26 -20c-7 6 -14 11 -20 17zM221 461c29 7 59 26 59 59c0 28 -20 48 -48 48c-25 0 -44 -18 -44 -44s17 -52 33 -63
zM461 40c66 0 100 25 100 91v207h41v-207c0 -70 42 -91 113 -91v-47h-24c-41 0 -72 16 -93 37c-7 8 -13 16 -17 25h-2c-17 -38 -55 -62 -111 -62h-54c-19 0 -34 7 -34 24s15 23 34 23h47zM634 547c-8 2 -18 3 -28 3c-28 0 -47 -11 -57 -29c-3 -6 -5 -13 -5 -21
c0 -34 27 -48 63 -48h50v-38h-168v35h46l1 3c-14 12 -27 31 -27 56c0 39 26 62 56 73c12 4 24 7 38 7c10 0 20 -1 31 -3v-38z" />
    <glyph glyph-name="uniFBF2" unicode="&#xfbf2;" horiz-adv-x="676" arabic-form="isolated" 
d="M0 -160c38 -14 86 -19 137 -19c70 0 116 17 142 61c16 28 26 68 31 111h-84c-79 0 -134 34 -157 89c-7 17 -10 35 -10 54c0 45 20 85 42 112c21 26 55 53 98 53c26 0 47 -8 66 -24c56 -48 85 -135 88 -237h61v-47h-62c-10 -139 -67 -219 -215 -219c-49 0 -104 8 -137 22
v44zM197 254c-29 0 -50 -17 -64 -34c-15 -19 -28 -47 -28 -80c0 -69 54 -100 124 -100h81c0 63 -15 116 -38 156c-12 21 -27 40 -47 51c-9 5 -19 7 -28 7zM188 415l-113 171h42l90 -133l90 133h41l-112 -171h-38zM452 40c79 0 109 39 109 119v179h41v-176
c0 -106 -45 -169 -150 -169h-38c-19 0 -34 7 -34 24s15 23 34 23h38zM634 547c-8 2 -18 3 -28 3c-28 0 -47 -11 -57 -29c-3 -6 -5 -13 -5 -21c0 -34 27 -48 63 -48h50v-38h-168v35h46l1 3c-14 12 -27 31 -27 56c0 39 26 62 56 73c12 4 24 7 38 7c10 0 20 -1 31 -3v-38z" />
    <glyph glyph-name="uniFBF3" unicode="&#xfbf3;" horiz-adv-x="714" arabic-form="final" 
d="M0 -160c38 -14 86 -19 137 -19c70 0 116 17 142 61c16 28 26 68 31 111h-84c-79 0 -134 34 -157 89c-7 17 -10 35 -10 54c0 45 20 85 42 112c21 26 55 53 98 53c26 0 47 -8 66 -24c56 -48 85 -135 88 -237h61v-47h-62c-10 -139 -67 -219 -215 -219c-49 0 -104 8 -137 22
v44zM197 254c-29 0 -50 -17 -64 -34c-15 -19 -28 -47 -28 -80c0 -69 54 -100 124 -100h81c0 63 -15 116 -38 156c-12 21 -27 40 -47 51c-9 5 -19 7 -28 7zM188 415l-113 171h42l90 -133l90 133h41l-112 -171h-38zM461 40c66 0 100 25 100 91v207h41v-207
c0 -70 42 -91 113 -91v-47h-24c-41 0 -72 16 -93 37c-7 8 -13 16 -17 25h-2c-17 -38 -55 -62 -111 -62h-54c-19 0 -34 7 -34 24s15 23 34 23h47zM634 547c-8 2 -18 3 -28 3c-28 0 -47 -11 -57 -29c-3 -6 -5 -13 -5 -21c0 -34 27 -48 63 -48h50v-38h-168v35h46l1 3
c-14 12 -27 31 -27 56c0 39 26 62 56 73c12 4 24 7 38 7c10 0 20 -1 31 -3v-38z" />
    <glyph glyph-name="uniFBF4" unicode="&#xfbf4;" horiz-adv-x="676" arabic-form="isolated" 
d="M0 -160c38 -14 86 -19 137 -19c70 0 116 17 142 61c16 28 26 68 31 111h-84c-79 0 -134 34 -157 89c-7 17 -10 35 -10 54c0 45 20 85 42 112c21 26 55 53 98 53c26 0 47 -8 66 -24c56 -48 85 -135 88 -237h61v-47h-62c-10 -139 -67 -219 -215 -219c-49 0 -104 8 -137 22
v44zM197 254c-29 0 -50 -17 -64 -34c-15 -19 -28 -47 -28 -80c0 -69 54 -100 124 -100h81c0 63 -15 116 -38 156c-12 21 -27 40 -47 51c-9 5 -19 7 -28 7zM213 415h-37v191h37v-191zM452 40c79 0 109 39 109 119v179h41v-176c0 -106 -45 -169 -150 -169h-38
c-19 0 -34 7 -34 24s15 23 34 23h38zM634 547c-8 2 -18 3 -28 3c-28 0 -47 -11 -57 -29c-3 -6 -5 -13 -5 -21c0 -34 27 -48 63 -48h50v-38h-168v35h46l1 3c-14 12 -27 31 -27 56c0 39 26 62 56 73c12 4 24 7 38 7c10 0 20 -1 31 -3v-38z" />
    <glyph glyph-name="uniFBF5" unicode="&#xfbf5;" horiz-adv-x="714" arabic-form="final" 
d="M0 -160c38 -14 86 -19 137 -19c70 0 116 17 142 61c16 28 26 68 31 111h-84c-79 0 -134 34 -157 89c-7 17 -10 35 -10 54c0 45 20 85 42 112c21 26 55 53 98 53c26 0 47 -8 66 -24c56 -48 85 -135 88 -237h61v-47h-62c-10 -139 -67 -219 -215 -219c-49 0 -104 8 -137 22
v44zM197 254c-29 0 -50 -17 -64 -34c-15 -19 -28 -47 -28 -80c0 -69 54 -100 124 -100h81c0 63 -15 116 -38 156c-12 21 -27 40 -47 51c-9 5 -19 7 -28 7zM213 415h-37v191h37v-191zM461 40c66 0 100 25 100 91v207h41v-207c0 -70 42 -91 113 -91v-47h-24
c-41 0 -72 16 -93 37c-7 8 -13 16 -17 25h-2c-17 -38 -55 -62 -111 -62h-54c-19 0 -34 7 -34 24s15 23 34 23h47zM634 547c-8 2 -18 3 -28 3c-28 0 -47 -11 -57 -29c-3 -6 -5 -13 -5 -21c0 -34 27 -48 63 -48h50v-38h-168v35h46l1 3c-14 12 -27 31 -27 56c0 39 26 62 56 73
c12 4 24 7 38 7c10 0 20 -1 31 -3v-38z" />
    <glyph glyph-name="uniFBF6" unicode="&#xfbf6;" horiz-adv-x="1090" arabic-form="isolated" 
d="M129 338c-7 -35 -13 -80 -13 -120c0 -148 92 -194 242 -194c56 0 102 6 135 24c20 11 35 26 35 52c0 22 -12 37 -21 52c-10 17 -22 34 -22 61c0 41 24 68 54 80c11 4 22 6 33 6c56 0 82 -47 99 -86c15 -34 26 -81 38 -112c17 -42 41 -61 100 -61h18v-47h-23
c-72 0 -113 40 -133 91c-12 32 -21 63 -31 93c-9 28 -21 52 -40 67c-8 7 -18 10 -30 10c-24 0 -44 -15 -44 -39c0 -21 13 -37 22 -51c11 -17 21 -36 21 -64c0 -43 -26 -70 -57 -88c-42 -24 -101 -34 -170 -34c-173 0 -267 68 -267 239c0 47 6 81 16 121h38zM355 -238h-54v51
h54v-51zM355 -149h-54v51h54v-51zM865 40c79 0 109 39 109 119v179h41v-176c0 -106 -45 -169 -150 -169h-38c-19 0 -34 7 -34 24s15 23 34 23h38zM1048 547c-8 2 -18 3 -28 3c-28 0 -47 -11 -57 -29c-3 -6 -5 -13 -5 -21c0 -34 27 -48 63 -48h50v-38h-168v35h46l1 3
c-14 12 -27 31 -27 56c0 39 26 62 56 73c12 4 24 7 38 7c10 0 20 -1 31 -3v-38z" />
    <glyph glyph-name="uniFBF7" unicode="&#xfbf7;" horiz-adv-x="1127" arabic-form="final" 
d="M129 338c-7 -35 -13 -80 -13 -120c0 -148 92 -194 242 -194c56 0 102 6 135 24c20 11 35 26 35 52c0 22 -12 37 -21 52c-10 17 -22 34 -22 61c0 41 24 68 54 80c11 4 22 6 33 6c56 0 82 -47 99 -86c15 -34 26 -81 38 -112c17 -42 41 -61 100 -61h18v-47h-23
c-72 0 -113 40 -133 91c-12 32 -21 63 -31 93c-9 28 -21 52 -40 67c-8 7 -18 10 -30 10c-24 0 -44 -15 -44 -39c0 -21 13 -37 22 -51c11 -17 21 -36 21 -64c0 -43 -26 -70 -57 -88c-42 -24 -101 -34 -170 -34c-173 0 -267 68 -267 239c0 47 6 81 16 121h38zM355 -238h-54v51
h54v-51zM355 -149h-54v51h54v-51zM874 40c66 0 100 25 100 91v207h41v-207c0 -70 42 -91 113 -91v-47h-24c-41 0 -72 16 -93 37c-7 8 -13 16 -17 25h-2c-17 -38 -55 -62 -111 -62h-54c-19 0 -34 7 -34 24s15 23 34 23h47zM1048 547c-8 2 -18 3 -28 3c-28 0 -47 -11 -57 -29
c-3 -6 -5 -13 -5 -21c0 -34 27 -48 63 -48h50v-38h-168v35h46l1 3c-14 12 -27 31 -27 56c0 39 26 62 56 73c12 4 24 7 38 7c10 0 20 -1 31 -3v-38z" />
    <glyph glyph-name="uniFBF8" unicode="&#xfbf8;" horiz-adv-x="563" arabic-form="initial" 
d="M47 40c66 0 100 25 100 91v207h41v-207c0 -70 42 -91 113 -91v-47h-24c-41 0 -72 16 -93 37c-7 8 -13 16 -17 25h-2c-17 -38 -55 -62 -111 -62h-54c-19 0 -34 7 -34 24s15 23 34 23h47zM193 -238h-54v51h54v-51zM193 -149h-54v51h54v-51zM339 40c79 0 109 39 109 119v179
h41v-176c0 -106 -45 -169 -150 -169h-38c-19 0 -34 7 -34 24s15 23 34 23h38zM521 547c-8 2 -18 3 -28 3c-28 0 -47 -11 -57 -29c-3 -6 -5 -13 -5 -21c0 -34 27 -48 63 -48h50v-38h-168v35h46l1 3c-14 12 -27 31 -27 56c0 39 26 62 56 73c12 4 24 7 38 7c10 0 20 -1 31 -3
v-38z" />
    <glyph glyph-name="uniFBF9" unicode="&#xfbf9;" horiz-adv-x="1090" arabic-form="isolated" 
d="M132 241c-9 -39 -16 -71 -16 -116c0 -150 86 -201 238 -201c58 0 109 7 147 24c25 11 51 29 51 60c0 19 -9 32 -19 43c-23 26 -56 46 -56 94c0 47 28 80 62 94c12 5 26 8 39 8c48 0 72 -27 92 -58c26 -40 44 -103 79 -130c20 -15 42 -19 78 -19v-47h-11
c-91 0 -124 54 -153 119c-12 28 -23 52 -40 71c-11 12 -22 20 -42 20c-28 0 -49 -15 -59 -34c-3 -7 -4 -14 -4 -21c0 -18 10 -31 19 -42c18 -20 40 -37 51 -63c4 -9 5 -18 5 -29c0 -46 -29 -77 -63 -97c-47 -28 -115 -40 -194 -40c-169 0 -261 72 -261 239c0 47 7 84 17 125
h40zM865 40c79 0 109 39 109 119v179h41v-176c0 -106 -45 -169 -150 -169h-38c-19 0 -34 7 -34 24s15 23 34 23h38zM1048 547c-8 2 -18 3 -28 3c-28 0 -47 -11 -57 -29c-3 -6 -5 -13 -5 -21c0 -34 27 -48 63 -48h50v-38h-168v35h46l1 3c-14 12 -27 31 -27 56
c0 39 26 62 56 73c12 4 24 7 38 7c10 0 20 -1 31 -3v-38z" />
    <glyph glyph-name="uniFBFA" unicode="&#xfbfa;" horiz-adv-x="1127" arabic-form="final" 
d="M132 241c-9 -39 -16 -71 -16 -116c0 -150 86 -201 238 -201c58 0 109 7 147 24c25 11 51 29 51 60c0 19 -9 32 -19 43c-23 26 -56 46 -56 94c0 47 28 80 62 94c12 5 26 8 39 8c48 0 72 -27 92 -58c26 -40 44 -103 79 -130c20 -15 42 -19 78 -19v-47h-11
c-91 0 -124 54 -153 119c-12 28 -23 52 -40 71c-11 12 -22 20 -42 20c-28 0 -49 -15 -59 -34c-3 -7 -4 -14 -4 -21c0 -18 10 -31 19 -42c18 -20 40 -37 51 -63c4 -9 5 -18 5 -29c0 -46 -29 -77 -63 -97c-47 -28 -115 -40 -194 -40c-169 0 -261 72 -261 239c0 47 7 84 17 125
h40zM874 40c66 0 100 25 100 91v207h41v-207c0 -70 42 -91 113 -91v-47h-24c-41 0 -72 16 -93 37c-7 8 -13 16 -17 25h-2c-17 -38 -55 -62 -111 -62h-54c-19 0 -34 7 -34 24s15 23 34 23h47zM1048 547c-8 2 -18 3 -28 3c-28 0 -47 -11 -57 -29c-3 -6 -5 -13 -5 -21
c0 -34 27 -48 63 -48h50v-38h-168v35h46l1 3c-14 12 -27 31 -27 56c0 39 26 62 56 73c12 4 24 7 38 7c10 0 20 -1 31 -3v-38z" />
    <glyph glyph-name="uniFBFB" unicode="&#xfbfb;" horiz-adv-x="563" arabic-form="initial" 
d="M47 40c66 0 100 25 100 91v207h41v-207c0 -70 42 -91 113 -91v-47h-24c-41 0 -72 16 -93 37c-7 8 -13 16 -17 25h-2c-17 -38 -55 -62 -111 -62h-54c-19 0 -34 7 -34 24s15 23 34 23h47zM339 40c79 0 109 39 109 119v179h41v-176c0 -106 -45 -169 -150 -169h-38
c-19 0 -34 7 -34 24s15 23 34 23h38zM521 547c-8 2 -18 3 -28 3c-28 0 -47 -11 -57 -29c-3 -6 -5 -13 -5 -21c0 -34 27 -48 63 -48h50v-38h-168v35h46l1 3c-14 12 -27 31 -27 56c0 39 26 62 56 73c12 4 24 7 38 7c10 0 20 -1 31 -3v-38z" />
    <glyph glyph-name="uni06CC.fina" unicode="&#x6cc;" horiz-adv-x="827" arabic-form="final" 
d="M132 241c-9 -39 -16 -71 -16 -116c0 -150 86 -201 238 -201c58 0 109 7 147 24c25 11 51 29 51 60c0 19 -9 32 -19 43c-23 26 -56 46 -56 94c0 47 28 80 62 94c12 5 26 8 39 8c48 0 72 -27 92 -58c26 -40 44 -103 79 -130c20 -15 42 -19 78 -19v-47h-11
c-91 0 -124 54 -153 119c-12 28 -23 52 -40 71c-11 12 -22 20 -42 20c-28 0 -49 -15 -59 -34c-3 -7 -4 -14 -4 -21c0 -18 10 -31 19 -42c18 -20 40 -37 51 -63c4 -9 5 -18 5 -29c0 -46 -29 -77 -63 -97c-47 -28 -115 -40 -194 -40c-169 0 -261 72 -261 239c0 47 7 84 17 125
h40z" />
    <glyph glyph-name="uni06CC.init" unicode="&#x6cc;" horiz-adv-x="263" arabic-form="initial" 
d="M38 40c79 0 109 39 109 119v179h41v-176c0 -106 -45 -169 -150 -169h-38c-19 0 -34 7 -34 24s15 23 34 23h38zM129 -150h-53v51h53v-51zM226 -150h-54v51h54v-51z" />
    <glyph glyph-name="uni06CC.medi" unicode="&#x6cc;" horiz-adv-x="300" arabic-form="medial" 
d="M47 40c66 0 100 25 100 91v207h41v-207c0 -70 42 -91 113 -91v-47h-24c-41 0 -72 16 -93 37c-7 8 -13 16 -17 25h-2c-17 -38 -55 -62 -111 -62h-54c-19 0 -34 7 -34 24s15 23 34 23h47zM145 -150h-53v51h53v-51zM242 -150h-54v51h54v-51z" />
    <glyph glyph-name="uni064C0651" unicode="&#xfc5e;" arabic-form="isolated" 
d="M23 776c-2 -19 -3 -24 -3 -38c0 -37 11 -60 45 -60c31 0 44 27 44 63c0 10 -1 25 -1 35h38c-1 -8 -1 -26 -1 -35c0 -39 11 -63 45 -63c32 0 44 25 44 61c0 11 -2 28 -3 37h37c1 -10 2 -22 2 -32c0 -61 -26 -103 -82 -103c-29 0 -52 16 -62 36h-2c-11 -20 -35 -36 -63 -36
c-54 0 -78 41 -78 97c0 14 1 27 3 38h37zM5 871c-16 -16 -33 -31 -49 -47l-24 23l75 73c17 -21 32 -37 47 -49s32 -17 50 -17c6 0 13 0 18 1v1c-17 18 -31 41 -31 71c0 38 23 63 50 74c10 4 20 6 31 6c39 0 64 -24 75 -53c4 -11 6 -23 6 -35c0 -18 -5 -33 -15 -48
s-29 -27 -55 -37c6 -6 19 -17 25 -22l-26 -22c-11 9 -23 24 -33 34c-12 -4 -29 -6 -43 -6c-44 0 -80 25 -101 53zM169 969c-24 0 -42 -20 -42 -45c0 -26 19 -49 35 -62c37 11 55 30 55 57c0 28 -20 50 -48 50z" />
    <glyph glyph-name="uni064D0651" unicode="&#xfc5f;" arabic-form="isolated" 
d="M23 958c-2 -19 -3 -24 -3 -38c0 -37 11 -60 45 -60c31 0 44 27 44 63c0 10 -1 25 -1 35h38c-1 -8 -1 -26 -1 -35c0 -39 11 -63 45 -63c32 0 44 25 44 61c0 11 -2 28 -3 37h37c1 -10 2 -22 2 -32c0 -61 -26 -103 -82 -103c-29 0 -52 16 -62 36h-2c-11 -20 -35 -36 -63 -36
c-54 0 -78 41 -78 97c0 14 1 27 3 38h37zM250 773v-38h-248v38h248zM250 688v-38h-248v38h248z" />
    <glyph glyph-name="uni064E0651" unicode="&#xfc60;" arabic-form="isolated" 
d="M268 776c1 -10 2 -22 2 -32c0 -61 -26 -103 -82 -103c-29 0 -52 16 -62 36h-2c-11 -20 -35 -36 -63 -36c-54 0 -78 41 -78 97c0 14 1 27 3 38h37c-2 -19 -3 -24 -3 -38c0 -37 11 -60 45 -60c31 0 44 27 44 63c0 10 -1 25 -1 35h38c-1 -8 -1 -26 -1 -35
c0 -39 11 -63 45 -63c32 0 44 25 44 61c0 11 -2 28 -3 37h37zM2 868h248v-37h-248v37z" />
    <glyph glyph-name="uni064F0651" unicode="&#xfc61;" arabic-form="isolated" 
d="M23 776c-2 -19 -3 -24 -3 -38c0 -37 11 -60 45 -60c31 0 44 27 44 63c0 10 -1 25 -1 35h38c-1 -8 -1 -26 -1 -35c0 -39 11 -63 45 -63c32 0 44 25 44 61c0 11 -2 28 -3 37h37c1 -10 2 -22 2 -32c0 -61 -26 -103 -82 -103c-29 0 -52 16 -62 36h-2c-11 -20 -35 -36 -63 -36
c-54 0 -78 41 -78 97c0 14 1 27 3 38h37zM1 867c28 -7 62 -13 96 -13c7 0 13 1 19 2v1c-17 18 -30 40 -30 70c0 39 24 63 53 74c10 4 21 6 32 6c39 0 64 -23 75 -51c4 -10 5 -21 5 -33c0 -18 -5 -34 -16 -49s-29 -28 -55 -38c6 -6 20 -19 26 -24l-26 -20c-7 6 -14 11 -20 17
l-17 17c-16 -4 -32 -5 -50 -5c-35 0 -71 5 -99 13c3 11 4 22 7 33zM156 862c29 7 59 26 59 59c0 28 -20 48 -48 48c-25 0 -44 -18 -44 -44s17 -52 33 -63z" />
    <glyph glyph-name="uni06500651" unicode="&#xfc62;" arabic-form="isolated" 
d="M268 873c1 -10 2 -22 2 -32c0 -61 -26 -104 -82 -104c-29 0 -52 16 -62 36h-2c-11 -20 -35 -36 -63 -36c-54 0 -78 42 -78 98c0 14 1 27 3 38h37c-2 -19 -3 -25 -3 -39c0 -37 11 -59 45 -59c31 0 44 26 44 62c0 10 -1 26 -1 36h38c-1 -8 -1 -26 -1 -35
c0 -39 11 -63 45 -63c32 0 44 24 44 60c0 11 -2 29 -3 38h37zM2 688h248v-38h-248v38z" />
    <glyph glyph-name="uniFDFC" unicode="&#xfdfc;" horiz-adv-x="1278" arabic-form="isolated" 
d="M827 40c84 0 110 48 110 136v125h41v-128c0 -109 -46 -180 -151 -180c-108 0 -151 63 -151 174v573h41v-545c0 -73 6 -132 58 -148c14 -4 31 -7 52 -7zM129 172c-8 -37 -13 -71 -13 -112c0 -128 64 -179 193 -179c143 0 214 57 214 200v659h41v-656
c0 -130 -47 -207 -147 -236c-33 -10 -71 -14 -115 -14c-144 0 -227 72 -227 216c0 44 7 83 16 122h38zM902 -131h-53v51h53v-51zM806 -131h-54v51h54v-51zM940 -155c30 -11 65 -19 104 -19c120 0 154 85 154 208c0 100 -27 190 -60 267h49c24 -60 42 -128 50 -202
c2 -23 4 -44 4 -65c0 -117 -32 -207 -112 -240c-23 -10 -48 -15 -76 -15c-42 0 -83 10 -113 22v44z" />
    <glyph glyph-name="uni0622.fina" unicode="&#x622;" horiz-adv-x="225" arabic-form="final" 
d="M216 -7c-95 0 -141 45 -141 138v609h41v-580c0 -62 9 -104 57 -115c14 -3 32 -5 53 -5v-47h-10zM268 845c-21 -24 -45 -42 -86 -42c-64 0 -103 37 -167 37c-26 0 -45 -9 -61 -22l-22 23c21 20 46 37 83 37c66 0 101 -38 167 -38c32 0 48 10 65 27z" />
    <glyph glyph-name="uni0623.fina" unicode="&#x623;" horiz-adv-x="225" arabic-form="final" 
d="M216 -7c-95 0 -141 45 -141 138v609h41v-580c0 -62 9 -104 57 -115c14 -3 32 -5 53 -5v-47h-10zM156 948c-8 2 -18 3 -28 3c-28 0 -47 -11 -57 -29c-3 -6 -5 -13 -5 -21c0 -34 27 -48 63 -48h50v-38h-168v35h46l1 3c-14 12 -27 31 -27 56c0 39 26 62 56 73
c12 4 24 7 38 7c10 0 20 -1 31 -3v-38z" />
    <glyph glyph-name="uni0624.fina" unicode="&#x624;" horiz-adv-x="413" arabic-form="final" 
d="M0 -160c38 -14 86 -19 137 -19c70 0 116 17 142 61c16 28 26 68 31 111h-84c-79 0 -134 34 -157 89c-7 17 -10 35 -10 54c0 45 20 85 42 112c21 26 55 53 98 53c26 0 47 -8 66 -24c56 -48 85 -135 88 -237h61v-47h-62c-10 -139 -67 -219 -215 -219c-49 0 -104 8 -137 22
v44zM197 254c-29 0 -50 -17 -64 -34c-15 -19 -28 -47 -28 -80c0 -69 54 -100 124 -100h81c0 63 -15 116 -38 156c-12 21 -27 40 -47 51c-9 5 -19 7 -28 7zM258 547c-8 2 -18 3 -28 3c-28 0 -47 -11 -57 -29c-3 -6 -5 -13 -5 -21c0 -34 27 -48 63 -48h50v-38h-168v35h46l1 3
c-14 12 -27 31 -27 56c0 39 26 62 56 73c12 4 24 7 38 7c10 0 20 -1 31 -3v-38z" />
    <glyph glyph-name="uni0625.fina" unicode="&#x625;" horiz-adv-x="225" arabic-form="final" 
d="M216 -7c-95 0 -141 45 -141 138v609h41v-580c0 -62 9 -104 57 -115c14 -3 32 -5 53 -5v-47h-10zM165 -119c-8 2 -18 4 -28 4c-34 0 -63 -18 -63 -51c0 -34 28 -47 64 -47h50v-38h-168v35h46l1 2c-14 12 -27 32 -27 57c0 39 26 62 56 73c12 4 24 6 38 6c10 0 20 -1 31 -3
v-38z" />
    <glyph glyph-name="uni0626.fina" unicode="&#x626;" horiz-adv-x="827" arabic-form="final" 
d="M132 241c-9 -39 -16 -71 -16 -116c0 -150 86 -201 238 -201c58 0 109 7 147 24c25 11 51 29 51 60c0 19 -9 32 -19 43c-23 26 -56 46 -56 94c0 47 28 80 62 94c12 5 26 8 39 8c48 0 72 -27 92 -58c26 -40 44 -103 79 -130c20 -15 42 -19 78 -19v-47h-11
c-91 0 -124 54 -153 119c-12 28 -23 52 -40 71c-11 12 -22 20 -42 20c-28 0 -49 -15 -59 -34c-3 -7 -4 -14 -4 -21c0 -18 10 -31 19 -42c18 -20 40 -37 51 -63c4 -9 5 -18 5 -29c0 -46 -29 -77 -63 -97c-47 -28 -115 -40 -194 -40c-169 0 -261 72 -261 239c0 47 7 84 17 125
h40zM221 471c-8 2 -18 3 -28 3c-28 0 -47 -11 -57 -29c-3 -6 -5 -13 -5 -21c0 -34 27 -48 63 -48h50v-38h-168v35h46l1 3c-14 12 -27 31 -27 56c0 39 26 62 56 73c12 4 24 7 38 7c10 0 20 -1 31 -3v-38z" />
    <glyph glyph-name="uni0626.init" unicode="&#x626;" horiz-adv-x="263" arabic-form="initial" 
d="M38 40c79 0 109 39 109 119v179h41v-176c0 -106 -45 -169 -150 -169h-38c-19 0 -34 7 -34 24s15 23 34 23h38zM221 547c-8 2 -18 3 -28 3c-28 0 -47 -11 -57 -29c-3 -6 -5 -13 -5 -21c0 -34 27 -48 63 -48h50v-38h-168v35h46l1 3c-14 12 -27 31 -27 56c0 39 26 62 56 73
c12 4 24 7 38 7c10 0 20 -1 31 -3v-38z" />
    <glyph glyph-name="uni0626.medi" unicode="&#x626;" horiz-adv-x="300" arabic-form="medial" 
d="M47 40c66 0 100 25 100 91v207h41v-207c0 -70 42 -91 113 -91v-47h-24c-41 0 -72 16 -93 37c-7 8 -13 16 -17 25h-2c-17 -38 -55 -62 -111 -62h-54c-19 0 -34 7 -34 24s15 23 34 23h47zM221 547c-8 2 -18 3 -28 3c-28 0 -47 -11 -57 -29c-3 -6 -5 -13 -5 -21
c0 -34 27 -48 63 -48h50v-38h-168v35h46l1 3c-14 12 -27 31 -27 56c0 39 26 62 56 73c12 4 24 7 38 7c10 0 20 -1 31 -3v-38z" />
    <glyph glyph-name="uni0627.fina" unicode="&#x627;" horiz-adv-x="225" arabic-form="final" 
d="M216 -7c-95 0 -141 45 -141 138v609h41v-580c0 -62 9 -104 57 -115c14 -3 32 -5 53 -5v-47h-10z" />
    <glyph glyph-name="uni0628.fina" unicode="&#x628;" horiz-adv-x="902" arabic-form="final" 
d="M129 263c-7 -24 -13 -56 -13 -88c0 -93 58 -118 141 -129c63 -9 130 -10 210 -10c66 0 124 1 175 10c50 9 90 24 102 69c3 13 5 28 5 44v179h41v-207c0 -69 39 -91 112 -91v-47h-15c-63 0 -104 24 -123 67h-2c-39 -44 -101 -59 -183 -66c-35 -3 -78 -5 -128 -5
c-83 0 -151 2 -214 13c-71 12 -118 35 -145 88c-11 21 -17 47 -17 77c0 33 6 70 14 96h40zM467 -150h-53v51h53v-51z" />
    <glyph glyph-name="uni0628.init" unicode="&#x628;" horiz-adv-x="263" arabic-form="initial" 
d="M38 40c79 0 109 39 109 119v179h41v-176c0 -106 -45 -169 -150 -169h-38c-19 0 -34 7 -34 24s15 23 34 23h38zM188 -150h-53v51h53v-51z" />
    <glyph glyph-name="uni0628.medi" unicode="&#x628;" horiz-adv-x="300" arabic-form="medial" 
d="M47 40c66 0 100 25 100 91v207h41v-207c0 -70 42 -91 113 -91v-47h-24c-41 0 -72 16 -93 37c-7 8 -13 16 -17 25h-2c-17 -38 -55 -62 -111 -62h-54c-19 0 -34 7 -34 24s15 23 34 23h47zM188 -150h-53v51h53v-51z" />
    <glyph glyph-name="uni0629.fina" unicode="&#x629;" horiz-adv-x="451" arabic-form="final" 
d="M335 110c-30 -13 -70 -24 -114 -24c-66 0 -113 23 -135 67c-7 14 -11 30 -11 48c0 53 27 88 61 115c48 38 116 60 197 72v54h43v-292c0 -51 6 -92 41 -105c9 -3 21 -5 34 -5v-47h-11c-52 0 -83 30 -97 69c-5 14 -8 30 -8 48zM226 128c40 0 82 9 107 22v197
c-65 -8 -121 -24 -162 -52c-28 -19 -54 -46 -54 -87c0 -58 46 -80 109 -80zM241 564h-53v51h53v-51zM338 564h-54v51h54v-51z" />
    <glyph glyph-name="uni062A.fina" unicode="&#x62a;" horiz-adv-x="902" arabic-form="final" 
d="M129 263c-7 -24 -13 -56 -13 -88c0 -93 58 -118 141 -129c63 -9 130 -10 210 -10c66 0 124 1 175 10c50 9 90 24 102 69c3 13 5 28 5 44v179h41v-207c0 -69 39 -91 112 -91v-47h-15c-63 0 -104 24 -123 67h-2c-39 -44 -101 -59 -183 -66c-35 -3 -78 -5 -128 -5
c-83 0 -151 2 -214 13c-71 12 -118 35 -145 88c-11 21 -17 47 -17 77c0 33 6 70 14 96h40zM408 414h-53v51h53v-51zM505 414h-54v51h54v-51z" />
    <glyph glyph-name="uni062A.init" unicode="&#x62a;" horiz-adv-x="263" arabic-form="initial" 
d="M38 40c79 0 109 39 109 119v179h41v-176c0 -106 -45 -169 -150 -169h-38c-19 0 -34 7 -34 24s15 23 34 23h38zM145 414h-53v51h53v-51zM242 414h-54v51h54v-51z" />
    <glyph glyph-name="uni062A.medi" unicode="&#x62a;" horiz-adv-x="300" arabic-form="medial" 
d="M47 40c66 0 100 25 100 91v207h41v-207c0 -70 42 -91 113 -91v-47h-24c-41 0 -72 16 -93 37c-7 8 -13 16 -17 25h-2c-17 -38 -55 -62 -111 -62h-54c-19 0 -34 7 -34 24s15 23 34 23h47zM145 414h-53v51h53v-51zM242 414h-54v51h54v-51z" />
    <glyph glyph-name="uni062B.fina" unicode="&#x62b;" horiz-adv-x="902" arabic-form="final" 
d="M129 263c-7 -24 -13 -56 -13 -88c0 -93 58 -118 141 -129c63 -9 130 -10 210 -10c66 0 124 1 175 10c50 9 90 24 102 69c3 13 5 28 5 44v179h41v-207c0 -69 39 -91 112 -91v-47h-15c-63 0 -104 24 -123 67h-2c-39 -44 -101 -59 -183 -66c-35 -3 -78 -5 -128 -5
c-83 0 -151 2 -214 13c-71 12 -118 35 -145 88c-11 21 -17 47 -17 77c0 33 6 70 14 96h40zM408 414h-53v51h53v-51zM505 414h-54v51h54v-51zM457 503h-54v51h54v-51z" />
    <glyph glyph-name="uni062B.init" unicode="&#x62b;" horiz-adv-x="263" arabic-form="initial" 
d="M38 40c79 0 109 39 109 119v179h41v-176c0 -106 -45 -169 -150 -169h-38c-19 0 -34 7 -34 24s15 23 34 23h38zM145 414h-53v51h53v-51zM242 414h-54v51h54v-51zM194 503h-54v51h54v-51z" />
    <glyph glyph-name="uni062B.medi" unicode="&#x62b;" horiz-adv-x="300" arabic-form="medial" 
d="M47 40c66 0 100 25 100 91v207h41v-207c0 -70 42 -91 113 -91v-47h-24c-41 0 -72 16 -93 37c-7 8 -13 16 -17 25h-2c-17 -38 -55 -62 -111 -62h-54c-19 0 -34 7 -34 24s15 23 34 23h47zM145 414h-53v51h53v-51zM242 414h-54v51h54v-51zM194 503h-54v51h54v-51z" />
    <glyph glyph-name="uni062C.fina" unicode="&#x62c;" horiz-adv-x="563" arabic-form="final" 
d="M97 353c31 11 75 23 115 23c57 0 105 -21 148 -39c45 -18 93 -39 151 -42l-7 -44c-16 -1 -39 -4 -53 -7c0 -37 1 -69 3 -95c5 -68 22 -109 93 -109h17v-47h-4c-93 0 -125 47 -136 130c-4 31 -7 68 -7 113c-91 -20 -168 -58 -222 -110c-25 -23 -43 -48 -55 -74
c-22 -46 -25 -97 -5 -144c30 -69 103 -102 203 -102c73 0 135 12 188 34v-44c-50 -23 -116 -37 -188 -37c-122 0 -210 42 -246 126c-11 26 -17 53 -17 84c0 82 45 144 94 187c64 57 155 96 260 116v4c-57 12 -105 34 -160 47c-17 4 -35 6 -54 6c-44 0 -85 -8 -118 -20v44z
M354 -13h-53v51h53v-51z" />
    <glyph glyph-name="uni062C.init" unicode="&#x62c;" horiz-adv-x="601" arabic-form="initial" 
d="M75 314c33 12 73 24 117 24c39 0 73 -9 105 -18c55 -16 109 -36 169 -47c20 -4 39 -6 60 -6l-7 -44c-20 -4 -39 -13 -58 -26c-43 -30 -84 -65 -128 -98c-51 -39 -111 -70 -183 -90c-37 -10 -79 -16 -126 -16h-24c-23 0 -34 8 -34 24c0 17 15 23 34 23h29
c175 0 268 78 365 155c18 14 37 28 57 40v2c-66 10 -128 34 -193 47c-22 4 -43 7 -64 7c-44 0 -86 -8 -119 -20v43zM354 -150h-53v51h53v-51z" />
    <glyph glyph-name="uni062C.medi" unicode="&#x62c;" horiz-adv-x="584" arabic-form="medial" 
d="M75 314c33 12 73 24 117 24c39 0 73 -9 105 -18c55 -16 109 -36 169 -47c20 -4 39 -6 60 -6l-7 -44c-26 -4 -48 -15 -68 -29c0 -96 39 -154 133 -154v-47h-9c-111 0 -154 75 -158 183c-32 -17 -62 -44 -93 -67c-59 -44 -125 -85 -208 -105c-28 -7 -59 -11 -92 -11h-24
c-23 0 -34 8 -34 24c0 17 15 23 34 23h20c137 0 219 58 300 115c42 29 82 58 131 80v2c-66 10 -128 34 -193 47c-22 4 -43 7 -64 7c-44 0 -86 -8 -119 -20v43zM354 -150h-53v51h53v-51z" />
    <glyph glyph-name="uni062D.fina" unicode="&#x62d;" horiz-adv-x="563" arabic-form="final" 
d="M97 353c31 11 75 23 115 23c57 0 105 -21 148 -39c45 -18 93 -39 151 -42l-7 -44c-16 -1 -39 -4 -53 -7c0 -37 1 -69 3 -95c5 -68 22 -109 93 -109h17v-47h-4c-93 0 -125 47 -136 130c-4 31 -7 68 -7 113c-91 -20 -168 -58 -222 -110c-25 -23 -43 -48 -55 -74
c-22 -46 -25 -97 -5 -144c30 -69 103 -102 203 -102c73 0 135 12 188 34v-44c-50 -23 -116 -37 -188 -37c-122 0 -210 42 -246 126c-11 26 -17 53 -17 84c0 82 45 144 94 187c64 57 155 96 260 116v4c-57 12 -105 34 -160 47c-17 4 -35 6 -54 6c-44 0 -85 -8 -118 -20v44z
" />
    <glyph glyph-name="uni062D.init" unicode="&#x62d;" horiz-adv-x="601" arabic-form="initial" 
d="M75 314c33 12 73 24 117 24c39 0 73 -9 105 -18c55 -16 109 -36 169 -47c20 -4 39 -6 60 -6l-7 -44c-20 -4 -39 -13 -58 -26c-43 -30 -84 -65 -128 -98c-51 -39 -111 -70 -183 -90c-37 -10 -79 -16 -126 -16h-24c-23 0 -34 8 -34 24c0 17 15 23 34 23h29
c175 0 268 78 365 155c18 14 37 28 57 40v2c-66 10 -128 34 -193 47c-22 4 -43 7 -64 7c-44 0 -86 -8 -119 -20v43z" />
    <glyph glyph-name="uni062D.medi" unicode="&#x62d;" horiz-adv-x="584" arabic-form="medial" 
d="M75 314c33 12 73 24 117 24c39 0 73 -9 105 -18c55 -16 109 -36 169 -47c20 -4 39 -6 60 -6l-7 -44c-26 -4 -48 -15 -68 -29c0 -96 39 -154 133 -154v-47h-9c-111 0 -154 75 -158 183c-32 -17 -62 -44 -93 -67c-59 -44 -125 -85 -208 -105c-28 -7 -59 -11 -92 -11h-24
c-23 0 -34 8 -34 24c0 17 15 23 34 23h20c137 0 219 58 300 115c42 29 82 58 131 80v2c-66 10 -128 34 -193 47c-22 4 -43 7 -64 7c-44 0 -86 -8 -119 -20v43z" />
    <glyph glyph-name="uni062E.fina" unicode="&#x62e;" horiz-adv-x="563" arabic-form="final" 
d="M97 353c31 11 75 23 115 23c57 0 105 -21 148 -39c45 -18 93 -39 151 -42l-7 -44c-16 -1 -39 -4 -53 -7c0 -37 1 -69 3 -95c5 -68 22 -109 93 -109h17v-47h-4c-93 0 -125 47 -136 130c-4 31 -7 68 -7 113c-91 -20 -168 -58 -222 -110c-25 -23 -43 -48 -55 -74
c-22 -46 -25 -97 -5 -144c30 -69 103 -102 203 -102c73 0 135 12 188 34v-44c-50 -23 -116 -37 -188 -37c-122 0 -210 42 -246 126c-11 26 -17 53 -17 84c0 82 45 144 94 187c64 57 155 96 260 116v4c-57 12 -105 34 -160 47c-17 4 -35 6 -54 6c-44 0 -85 -8 -118 -20v44z
M317 489h-53v51h53v-51z" />
    <glyph glyph-name="uni062E.init" unicode="&#x62e;" horiz-adv-x="601" arabic-form="initial" 
d="M75 314c33 12 73 24 117 24c39 0 73 -9 105 -18c55 -16 109 -36 169 -47c20 -4 39 -6 60 -6l-7 -44c-20 -4 -39 -13 -58 -26c-43 -30 -84 -65 -128 -98c-51 -39 -111 -70 -183 -90c-37 -10 -79 -16 -126 -16h-24c-23 0 -34 8 -34 24c0 17 15 23 34 23h29
c175 0 268 78 365 155c18 14 37 28 57 40v2c-66 10 -128 34 -193 47c-22 4 -43 7 -64 7c-44 0 -86 -8 -119 -20v43zM279 451h-53v51h53v-51z" />
    </font>
</defs>
</svg>
