<?xml version="1.0" standalone="no"?>
<!DOCTYPE svg PUBLIC "-//W3C//DTD SVG 1.1//EN" "http://www.w3.org/Graphics/SVG/1.1/DTD/svg11.dtd" >
<svg>
<metadata>
Created by FontForge 20110222 at Wed Sep  3 05:13:19 2014
 By Orthosie Webhosting
(c) 2011 Microsoft Corporation. All Rights Reserved.
</metadata>
<defs>
<font id="SegoeUI-Semibold" horiz-adv-x="0" >
  <font-face 
    font-family="Segoe UI Semibold"
    font-weight="600"
    font-stretch="normal"
    units-per-em="1000"
    panose-1="2 11 7 2 4 2 4 2 2 3"
    ascent="800"
    descent="-200"
    x-height="500"
    cap-height="700"
    bbox="-433 -325 1419 1112"
    underline-thickness="58"
    underline-position="-58"
    stemh="99"
    stemv="113"
    unicode-range="U+000D-FFFD"
  />
<missing-glyph horiz-adv-x="645" 
d="M81 0v683h483v-683h-483zM153 72h339v538h-339v-538z" />
    <glyph glyph-name="uniFDF2" unicode="&#x627;&#xfedf;&#xfee0;&#x651;&#x670;&#xfeea;" horiz-adv-x="1252" arabic-form="isolated" 
d="M332 86c-24 -7 -50 -10 -79 -10c-82 0 -139 32 -167 88c-10 20 -15 44 -15 71c0 71 34 119 75 153c44 36 106 62 174 73v57h97v-313c0 -45 3 -78 35 -90c10 -4 24 -6 41 -6c53 0 78 18 78 72v436h97v-404c0 -47 1 -84 34 -98c10 -4 24 -6 42 -6c53 0 77 19 77 72v509h97
v-513c0 -125 -58 -188 -180 -188c-59 0 -103 17 -122 57h-2c-26 -36 -70 -57 -130 -57c-83 0 -130 34 -152 97zM254 190c25 0 46 4 66 9v149c-57 -10 -114 -28 -143 -65c-8 -11 -12 -24 -12 -38c0 -46 43 -55 89 -55zM654 855h-68v171h68v-171zM616 709
c-14 -17 -37 -26 -66 -26c-63 0 -86 45 -86 108c0 10 0 21 1 30h61c-1 -14 -3 -22 -3 -33c0 -29 9 -52 36 -52c29 0 32 26 32 60v12c0 4 -1 8 -1 13h61c-1 -9 -1 -21 -1 -30c0 -32 4 -55 33 -55s35 22 35 52c0 12 -1 22 -2 33h60c1 -7 1 -18 1 -25c0 -67 -32 -113 -96 -113
c-28 0 -50 9 -62 26h-3zM1071 0v740h98v-740h-98z" />
    <glyph glyph-name="uniFEDF_uniFEE0_afii57457_uni0670_uniFEEA.liga" unicode="&#xfedf;&#xfee0;&#x651;&#x670;&#xfeea;" horiz-adv-x="1001" 
d="M332 86c-24 -7 -50 -10 -79 -10c-82 0 -139 32 -167 88c-10 20 -15 44 -15 71c0 71 34 119 75 153c44 36 106 62 174 73v57h97v-313c0 -45 3 -78 35 -90c10 -4 24 -6 41 -6c53 0 78 18 78 72v436h97v-404c0 -47 1 -84 34 -98c10 -4 24 -6 42 -6c53 0 77 19 77 72v509h97
v-513c0 -125 -58 -188 -180 -188c-59 0 -103 17 -122 57h-2c-26 -36 -70 -57 -130 -57c-83 0 -130 34 -152 97zM254 190c25 0 46 4 66 9v149c-57 -10 -114 -28 -143 -65c-8 -11 -12 -24 -12 -38c0 -46 43 -55 89 -55zM654 855h-68v171h68v-171zM616 709
c-14 -17 -37 -26 -66 -26c-63 0 -86 45 -86 108c0 10 0 21 1 30h61c-1 -14 -3 -22 -3 -33c0 -29 9 -52 36 -52c29 0 32 26 32 60v12c0 4 -1 8 -1 13h61c-1 -9 -1 -21 -1 -30c0 -32 4 -55 33 -55s35 22 35 52c0 12 -1 22 -2 33h60c1 -7 1 -18 1 -25c0 -67 -32 -113 -96 -113
c-28 0 -50 9 -62 26h-3z" />
    <glyph glyph-name="uni0620.init" unicode="&#x620;" horiz-adv-x="333" 
d="M-34 49c0 29 8 60 34 60h73c40 0 65 4 75 33c3 10 5 23 5 39v228h97v-232c0 -72 -17 -121 -55 -152c-31 -25 -74 -36 -127 -36h-68c-26 0 -34 31 -34 60zM139 33c38 0 65 -22 76 -50c4 -10 6 -21 6 -33c0 -38 -23 -63 -50 -75c-10 -4 -21 -6 -32 -6c-39 0 -65 21 -77 49
c-4 10 -7 21 -7 32c0 39 23 65 51 77c10 4 21 6 33 6zM100 -50c0 -23 16 -41 39 -41c22 0 38 19 38 41c0 23 -15 43 -38 43c-24 0 -39 -19 -39 -43z" />
    <glyph glyph-name="uni0620.medi" unicode="&#x620;" horiz-adv-x="333" 
d="M-34 49c0 29 8 60 34 60h73c39 0 64 6 75 34c4 9 5 22 5 38v228h97v-195c0 -50 0 -85 36 -99c11 -4 27 -6 48 -6v-120h-18c-59 0 -99 18 -118 57h-3c-26 -36 -69 -57 -129 -57h-66c-27 0 -34 30 -34 60zM129 33c38 0 65 -22 76 -50c4 -10 6 -21 6 -33
c0 -38 -23 -63 -50 -75c-10 -4 -21 -6 -32 -6c-39 0 -65 21 -77 49c-4 10 -7 21 -7 32c0 39 23 65 51 77c10 4 21 6 33 6zM90 -50c0 -23 16 -41 39 -41c22 0 38 19 38 41c0 23 -15 43 -38 43c-24 0 -39 -19 -39 -43z" />
    <glyph glyph-name="uni0620.fina" unicode="&#x620;" horiz-adv-x="834" 
d="M188 271c-12 -45 -21 -82 -21 -135c0 -112 68 -149 184 -149c57 0 117 2 146 28c7 7 11 15 11 25c0 24 -16 41 -27 57c-12 18 -20 39 -20 66c0 57 34 94 75 111c15 6 31 10 49 10c61 0 90 -34 113 -73c24 -40 42 -81 88 -96c13 -4 29 -6 49 -6v-120h-10
c-114 0 -149 68 -192 141c-9 16 -18 27 -26 33s-16 8 -25 8c-16 0 -27 -11 -27 -28c0 -7 3 -14 7 -21s9 -15 16 -23c16 -21 25 -44 25 -69c0 -64 -42 -102 -87 -125c-48 -24 -115 -37 -184 -37c-173 0 -263 86 -263 255c0 55 10 103 22 148h97zM376 -93c38 0 65 -22 76 -50
c4 -10 6 -21 6 -33c0 -38 -23 -63 -50 -75c-10 -4 -21 -6 -32 -6c-39 0 -65 21 -77 49c-4 10 -7 21 -7 32c0 39 23 65 51 77c10 4 21 6 33 6zM337 -176c0 -23 16 -41 39 -41c22 0 38 19 38 41c0 23 -15 43 -38 43c-24 0 -39 -19 -39 -43z" />
    <glyph glyph-name="afii57409" unicode="&#x621;" horiz-adv-x="417" arabic-form="isolated" 
d="M334 246c-20 4 -47 8 -71 8c-52 0 -96 -16 -96 -68c0 -51 39 -68 91 -68h111v-118h-317l-22 113h71l1 3c-17 26 -31 57 -31 95c0 82 54 129 117 150c25 8 52 13 82 13c24 0 42 -3 64 -7v-121z" />
    <glyph glyph-name="afii57410" unicode="&#x622;" horiz-adv-x="250" arabic-form="isolated" 
d="M69 0v740h98v-740h-98zM296 836c-23 -24 -49 -44 -93 -44c-36 0 -66 12 -92 23c-24 10 -50 23 -81 23c-23 0 -37 -12 -52 -25l-37 41c23 24 50 44 94 44c36 0 65 -12 91 -23c24 -10 50 -23 81 -23c25 0 38 11 53 26z" />
    <glyph glyph-name="afii57411" unicode="&#x623;" horiz-adv-x="250" arabic-form="isolated" 
d="M69 0v740h98v-740h-98zM184 928c-10 3 -24 5 -35 5c-25 0 -45 -10 -45 -35c0 -30 25 -38 57 -38h45v-54h-180v51h40v2c-14 17 -20 34 -20 51c0 53 46 79 100 79c10 0 23 -1 38 -4v-57z" />
    <glyph glyph-name="afii57412" unicode="&#x624;" horiz-adv-x="500" arabic-form="isolated" 
d="M168 -254c-68 0 -118 17 -168 38v120c35 -14 65 -23 92 -29s52 -8 76 -8c98 0 143 51 151 139c-23 -9 -48 -13 -73 -13c-78 0 -133 36 -159 90c-10 21 -15 46 -15 76c0 60 22 109 48 145c18 26 42 48 72 61c14 6 29 9 44 9c25 0 47 -8 67 -22c47 -33 85 -101 101 -171
c9 -41 13 -85 13 -131c0 -135 -46 -234 -136 -280c-31 -16 -69 -24 -113 -24zM167 165c0 -44 41 -60 86 -60c24 0 47 5 64 13c-7 45 -29 92 -55 119c-9 9 -19 14 -30 14c-21 0 -37 -17 -46 -31s-19 -35 -19 -55zM300 640c-10 3 -24 5 -35 5c-25 0 -45 -10 -45 -35
c0 -30 25 -38 57 -38h45v-54h-180v51h40v2c-14 17 -20 34 -20 51c0 53 46 79 100 79c10 0 23 -1 38 -4v-57z" />
    <glyph glyph-name="afii57413" unicode="&#x625;" horiz-adv-x="250" arabic-form="isolated" 
d="M69 0v740h98v-740h-98zM184 -131c-10 3 -24 5 -35 5c-25 0 -45 -10 -45 -35c0 -30 25 -39 57 -39h45v-54h-180v51h40v2c-14 17 -20 34 -20 51c0 53 46 79 100 79c11 0 24 -1 38 -4v-56z" />
    <glyph glyph-name="afii57414" unicode="&#x626;" horiz-adv-x="751" arabic-form="isolated" 
d="M68 167c0 76 17 139 38 201h96c-14 -51 -27 -96 -33 -150c-1 -13 -2 -26 -2 -39c0 -106 59 -146 168 -146c62 0 122 14 165 33c22 10 40 20 53 32s19 25 19 37c0 17 -11 27 -23 34c-29 19 -68 33 -95 54c-33 25 -58 59 -58 115c0 68 36 111 81 141c57 38 135 58 221 70
v-117c-57 -8 -111 -16 -155 -32c-18 -7 -31 -14 -40 -22s-14 -18 -14 -29c0 -17 10 -25 21 -33c17 -12 36 -21 57 -31c50 -25 101 -52 101 -126c0 -47 -19 -86 -41 -116c-45 -60 -115 -101 -201 -120c-30 -7 -63 -10 -98 -10c-172 0 -260 84 -260 254zM217 597
c-10 3 -24 5 -35 5c-25 0 -45 -10 -45 -35c0 -30 25 -38 57 -38h45v-54h-180v51h40v2c-14 17 -20 34 -20 51c0 53 46 79 100 79c10 0 23 -1 38 -4v-57z" />
    <glyph glyph-name="afii57415" unicode="&#x627;" horiz-adv-x="250" arabic-form="isolated" 
d="M69 0v740h98v-740h-98z" />
    <glyph glyph-name="afii57416" unicode="&#x628;" horiz-adv-x="918" arabic-form="isolated" 
d="M183 317c-8 -34 -16 -65 -16 -105c0 -78 51 -96 124 -103c59 -6 120 -5 193 -5c49 0 89 1 122 2c74 3 132 9 132 82v221h97v-225c0 -192 -181 -199 -373 -199c-148 0 -303 -7 -362 84c-20 31 -32 71 -32 122c0 47 7 87 17 126h98zM514 -179h-109v99h109v-99z" />
    <glyph glyph-name="afii57417" unicode="&#x629;" horiz-adv-x="500" arabic-form="isolated" 
d="M188 401c-16 14 -33 26 -51 39l64 81c71 -49 131 -104 174 -173c31 -50 54 -108 54 -181c0 -87 -43 -142 -107 -166c-23 -9 -48 -13 -76 -13c-83 0 -139 35 -162 95c-8 20 -12 42 -12 67c0 88 34 157 74 207c14 17 28 32 42 44zM248 108c50 0 86 15 86 60
c0 25 -6 52 -19 80s-33 58 -61 89c-36 -28 -66 -71 -80 -121c-5 -16 -7 -32 -7 -49c0 -45 36 -59 81 -59zM222 620h-108v99h108v-99zM387 620h-109v99h109v-99z" />
    <glyph glyph-name="afii57418" unicode="&#x62a;" horiz-adv-x="918" arabic-form="isolated" 
d="M183 317c-8 -34 -16 -65 -16 -105c0 -78 51 -96 124 -103c59 -6 120 -5 193 -5c49 0 89 1 122 2c74 3 132 9 132 82v221h97v-225c0 -192 -181 -199 -373 -199c-148 0 -303 -7 -362 84c-20 31 -32 71 -32 122c0 47 7 87 17 126h98zM431 517h-108v99h108v-99zM596 517h-109
v99h109v-99z" />
    <glyph glyph-name="afii57419" unicode="&#x62b;" horiz-adv-x="918" arabic-form="isolated" 
d="M183 317c-8 -34 -16 -65 -16 -105c0 -78 51 -96 124 -103c59 -6 120 -5 193 -5c49 0 89 1 122 2c74 3 132 9 132 82v221h97v-225c0 -192 -181 -199 -373 -199c-148 0 -303 -7 -362 84c-20 31 -32 71 -32 122c0 47 7 87 17 126h98zM431 517h-109v99h109v-99zM596 517h-109
v99h109v-99zM514 654h-109v99h109v-99z" />
    <glyph glyph-name="afii57420" unicode="&#x62c;" horiz-adv-x="584" arabic-form="isolated" 
d="M83 438c39 12 77 20 127 20c68 0 114 -19 160 -41c48 -23 98 -40 169 -41l-22 -128c-71 -19 -130 -39 -176 -60s-83 -42 -110 -63s-46 -43 -56 -65s-15 -43 -15 -64c0 -70 42 -106 97 -125c24 -8 55 -12 91 -12c76 0 134 16 197 39v-114c-61 -21 -121 -38 -201 -38
c-133 0 -227 48 -264 142c-11 29 -18 60 -18 95c0 76 26 132 61 177c53 69 136 113 232 144v5c-30 15 -55 28 -95 32c-12 1 -26 2 -42 2c-49 0 -97 -6 -135 -17v112zM432 -17h-109v99h109v-99z" />
    <glyph glyph-name="afii57421" unicode="&#x62d;" horiz-adv-x="584" arabic-form="isolated" 
d="M83 438c39 12 77 20 127 20c68 0 114 -19 160 -41c48 -23 98 -40 169 -41l-22 -128c-71 -19 -130 -39 -176 -60s-83 -42 -110 -63s-46 -43 -56 -65s-15 -43 -15 -64c0 -70 42 -106 97 -125c24 -8 55 -12 91 -12c76 0 134 16 197 39v-114c-61 -21 -121 -38 -201 -38
c-133 0 -227 48 -264 142c-11 29 -18 60 -18 95c0 76 26 132 61 177c53 69 136 113 232 144v5c-30 15 -55 28 -95 32c-12 1 -26 2 -42 2c-49 0 -97 -6 -135 -17v112z" />
    <glyph glyph-name="afii57422" unicode="&#x62e;" horiz-adv-x="584" arabic-form="isolated" 
d="M83 438c39 12 77 20 127 20c68 0 114 -19 160 -41c48 -23 98 -40 169 -41l-22 -128c-71 -19 -130 -39 -176 -60s-83 -42 -110 -63s-46 -43 -56 -65s-15 -43 -15 -64c0 -70 42 -106 97 -125c24 -8 55 -12 91 -12c76 0 134 16 197 39v-114c-61 -21 -121 -38 -201 -38
c-133 0 -227 48 -264 142c-11 29 -18 60 -18 95c0 76 26 132 61 177c53 69 136 113 232 144v5c-30 15 -55 28 -95 32c-12 1 -26 2 -42 2c-49 0 -97 -6 -135 -17v112zM363 561h-109v99h109v-99z" />
    <glyph glyph-name="afii57423" unicode="&#x62f;" horiz-adv-x="500" arabic-form="isolated" 
d="M199 107c64 0 112 10 112 68c0 23 -5 46 -14 71c-22 59 -58 111 -96 161c-22 29 -46 60 -72 93h124c52 -59 94 -115 122 -170s42 -110 42 -162c0 -136 -89 -181 -223 -181c-47 0 -99 5 -145 13l-23 121c59 -8 115 -14 173 -14z" />
    <glyph glyph-name="afii57424" unicode="&#x630;" horiz-adv-x="500" arabic-form="isolated" 
d="M199 107c64 0 112 10 112 68c0 23 -5 46 -14 71c-22 59 -58 111 -96 161c-22 29 -46 60 -72 93h124c52 -59 94 -115 122 -170s42 -110 42 -162c0 -136 -89 -181 -223 -181c-47 0 -99 5 -145 13l-23 121c59 -8 115 -14 173 -14zM234 616h-109v99h109v-99z" />
    <glyph glyph-name="afii57425" unicode="&#x631;" horiz-adv-x="417" arabic-form="isolated" 
d="M0 -114c36 -11 62 -19 100 -19c103 0 134 74 134 177c0 80 -18 143 -39 206c-8 25 -18 52 -28 80h106c26 -67 48 -141 57 -223c3 -24 4 -47 4 -69c0 -96 -25 -171 -69 -221c-36 -42 -90 -71 -162 -71c-41 0 -69 7 -103 20v120z" />
    <glyph glyph-name="afii57426" unicode="&#x632;" horiz-adv-x="417" arabic-form="isolated" 
d="M0 -114c36 -11 62 -19 100 -19c103 0 134 74 134 177c0 80 -18 143 -39 206c-8 25 -18 52 -28 80h106c26 -67 48 -141 57 -223c3 -24 4 -47 4 -69c0 -96 -25 -171 -69 -221c-36 -42 -90 -71 -162 -71c-41 0 -69 7 -103 20v120zM255 449h-109v99h109v-99z" />
    <glyph glyph-name="afii57427" unicode="&#x633;" horiz-adv-x="1168" arabic-form="isolated" 
d="M182 161c-8 -49 -15 -93 -15 -146c0 -76 17 -122 75 -140c19 -6 42 -9 71 -9c96 0 150 34 168 112c6 26 9 57 9 93c0 80 -11 145 -21 221h97c6 -50 12 -90 16 -136c4 -41 35 -47 81 -47c51 0 75 20 75 72v136h97v-103c0 -49 1 -85 35 -99c11 -4 25 -6 44 -6
c52 0 74 18 74 72v228h97v-235c0 -121 -53 -185 -171 -185c-62 0 -106 18 -128 59h-3c-22 -33 -62 -59 -116 -59c-37 0 -64 10 -83 29c-1 0 -2 -1 -3 -1c-10 -173 -88 -271 -270 -271c-128 0 -202 48 -228 148c-8 32 -13 69 -13 110c0 58 7 107 17 157h95z" />
    <glyph glyph-name="afii57428" unicode="&#x634;" horiz-adv-x="1168" arabic-form="isolated" 
d="M182 161c-8 -49 -15 -93 -15 -146c0 -76 17 -122 75 -140c19 -6 42 -9 71 -9c96 0 150 34 168 112c6 26 9 57 9 93c0 80 -11 145 -21 221h97c6 -50 12 -90 16 -136c4 -41 35 -47 81 -47c51 0 75 20 75 72v136h97v-103c0 -49 1 -85 35 -99c11 -4 25 -6 44 -6
c52 0 74 18 74 72v228h97v-235c0 -121 -53 -185 -171 -185c-62 0 -106 18 -128 59h-3c-22 -33 -62 -59 -116 -59c-37 0 -64 10 -83 29c-1 0 -2 -1 -3 -1c-10 -173 -88 -271 -270 -271c-128 0 -202 48 -228 148c-8 32 -13 69 -13 110c0 58 7 107 17 157h95zM751 434h-109v99
h109v-99zM916 434h-109v99h109v-99zM834 571h-109v99h109v-99z" />
    <glyph glyph-name="afii57429" unicode="&#x635;" horiz-adv-x="1336" arabic-form="isolated" 
d="M182 161c-7 -50 -15 -93 -15 -147c0 -75 19 -121 76 -139c19 -6 43 -9 72 -9c97 0 149 33 166 113c6 26 8 59 8 96c0 81 -13 147 -28 217h101c8 -46 13 -89 20 -131c5 -35 21 -46 58 -51c31 83 78 159 134 220c40 44 91 81 152 103c29 10 60 16 93 16
c120 0 191 -63 219 -156c10 -32 14 -66 14 -103c0 -91 -30 -148 -91 -176c-57 -26 -135 -29 -218 -29c-90 0 -158 -1 -232 2c-49 2 -83 4 -110 24c-6 5 -12 9 -17 15c-1 0 -1 -1 -1 -1h-1c-8 -178 -87 -279 -272 -279c-127 0 -202 47 -228 147c-8 32 -12 69 -12 111
c0 58 7 107 17 157h95zM736 107c49 -3 111 -2 164 -2h56c40 0 72 1 98 2c42 2 78 8 92 34c6 11 9 25 9 44c0 94 -53 143 -146 143c-74 0 -129 -32 -170 -69c-43 -39 -79 -95 -103 -152z" />
    <glyph glyph-name="afii57430" unicode="&#x636;" horiz-adv-x="1336" arabic-form="isolated" 
d="M182 161c-7 -50 -15 -93 -15 -147c0 -75 19 -121 76 -139c19 -6 43 -9 72 -9c97 0 149 33 166 113c6 26 8 59 8 96c0 81 -13 147 -28 217h101c8 -46 13 -89 20 -131c5 -35 21 -46 58 -51c31 83 78 159 134 220c40 44 91 81 152 103c29 10 60 16 93 16
c120 0 191 -63 219 -156c10 -32 14 -66 14 -103c0 -91 -30 -148 -91 -176c-57 -26 -135 -29 -218 -29c-90 0 -158 -1 -232 2c-49 2 -83 4 -110 24c-6 5 -12 9 -17 15c-1 0 -1 -1 -1 -1h-1c-8 -178 -87 -279 -272 -279c-127 0 -202 47 -228 147c-8 32 -12 69 -12 111
c0 58 7 107 17 157h95zM736 107c49 -3 111 -2 164 -2h56c40 0 72 1 98 2c42 2 78 8 92 34c6 11 9 25 9 44c0 94 -53 143 -146 143c-74 0 -129 -32 -170 -69c-43 -39 -79 -95 -103 -152zM899 536h-109v99h109v-99z" />
    <glyph glyph-name="afii57431" unicode="&#x637;" horiz-adv-x="834" arabic-form="isolated" 
d="M148 109c1 5 3 10 5 15v616h97v-441l2 -1c45 62 105 116 186 142c25 8 52 12 80 12c121 0 191 -63 219 -157c10 -32 14 -67 14 -105c0 -91 -30 -148 -91 -176c-57 -26 -134 -29 -217 -29c-155 0 -285 1 -419 15l-23 121c44 -8 97 -11 147 -12zM236 107
c48 -3 111 -2 163 -2h56c40 0 72 1 98 2c42 2 79 8 93 34c6 11 8 25 8 44c0 95 -51 147 -146 147c-74 0 -128 -33 -169 -71c-43 -40 -79 -96 -103 -154z" />
    <glyph glyph-name="afii57432" unicode="&#x638;" horiz-adv-x="834" arabic-form="isolated" 
d="M148 109c1 5 3 10 5 15v616h97v-441l2 -1c45 62 105 116 186 142c25 8 52 12 80 12c121 0 191 -63 219 -157c10 -32 14 -67 14 -105c0 -91 -30 -148 -91 -176c-57 -26 -134 -29 -217 -29c-155 0 -285 1 -419 15l-23 121c44 -8 97 -11 147 -12zM236 107
c48 -3 111 -2 163 -2h56c40 0 72 1 98 2c42 2 79 8 93 34c6 11 8 25 8 44c0 95 -51 147 -146 147c-74 0 -128 -33 -169 -71c-43 -40 -79 -96 -103 -154zM542 537h-109v99h109v-99z" />
    <glyph glyph-name="afii57433" unicode="&#x639;" horiz-adv-x="500" arabic-form="isolated" 
d="M304 436c-72 0 -123 -27 -123 -99c0 -44 17 -80 41 -104c59 32 123 54 196 73v-116c-55 -15 -100 -29 -135 -46s-64 -34 -84 -52s-34 -34 -42 -52s-11 -35 -11 -52c0 -67 45 -100 100 -117c25 -8 55 -12 93 -12c69 0 128 12 186 31v-113c-61 -19 -115 -31 -188 -31
c-136 0 -233 45 -271 140c-12 29 -18 60 -18 94c0 95 41 155 98 202c-34 40 -63 92 -63 161c0 68 30 118 68 151c39 34 96 59 167 59c20 0 40 -2 61 -6v-117c-22 3 -50 6 -75 6z" />
    <glyph glyph-name="afii57434" unicode="&#x63a;" horiz-adv-x="500" arabic-form="isolated" 
d="M304 436c-72 0 -123 -27 -123 -99c0 -44 17 -80 41 -104c59 32 123 54 196 73v-116c-55 -15 -100 -29 -135 -46s-64 -34 -84 -52s-34 -34 -42 -52s-11 -35 -11 -52c0 -67 45 -100 100 -117c25 -8 55 -12 93 -12c69 0 128 12 186 31v-113c-61 -19 -115 -31 -188 -31
c-136 0 -233 45 -271 140c-12 29 -18 60 -18 94c0 95 41 155 98 202c-34 40 -63 92 -63 161c0 68 30 118 68 151c39 34 96 59 167 59c20 0 40 -2 61 -6v-117c-22 3 -50 6 -75 6zM291 640h-109v99h109v-99z" />
    <glyph glyph-name="uni063B.init" unicode="&#x63b;" horiz-adv-x="500" 
d="M-34 49c0 29 8 60 34 60h144c50 0 90 0 122 13c21 9 33 22 33 50c0 20 -6 39 -19 58s-32 40 -57 60c-62 50 -140 90 -223 131v100l425 271v-126l-304 -187c75 -37 146 -79 199 -132c42 -42 77 -94 77 -170c0 -110 -66 -159 -159 -179c-27 -6 -59 -9 -96 -9h-142
c-27 0 -34 30 -34 60zM112 743h-108v99h108v-99zM277 743h-109v99h109v-99z" />
    <glyph glyph-name="uni063B.medi" unicode="&#x63b;" horiz-adv-x="500" 
d="M-34 49c0 29 8 60 34 60h144c50 0 90 0 122 13c21 9 33 22 33 50c0 20 -6 39 -19 58s-32 40 -57 60c-62 50 -140 90 -223 131v100l425 271v-126l-304 -187c74 -37 141 -76 193 -127c41 -40 73 -86 82 -151c10 -57 37 -92 105 -92v-120h-11c-64 0 -106 31 -129 74h-3
c-41 -54 -120 -74 -216 -74h-142c-27 0 -34 30 -34 60zM112 743h-108v99h108v-99zM277 743h-109v99h109v-99z" />
    <glyph glyph-name="uni063B.fina" unicode="&#x63b;" horiz-adv-x="918" 
d="M183 317c-7 -34 -16 -65 -16 -105c0 -79 50 -96 124 -103c55 -5 112 -5 178 -5c72 0 139 -1 191 13c31 9 56 19 56 56c0 38 -25 77 -76 117s-125 84 -223 131v100l426 271v-126l-304 -187c74 -36 141 -76 193 -127c41 -40 71 -86 81 -151c9 -57 39 -91 105 -92v-120h-10
c-64 0 -107 31 -130 74h-3c-65 -80 -205 -78 -353 -78c-136 0 -268 2 -322 84c-21 31 -32 72 -32 123c0 45 7 89 17 125h98zM530 743h-108v99h108v-99zM695 743h-109v99h109v-99z" />
    <glyph glyph-name="uni063C.init" unicode="&#x63c;" horiz-adv-x="500" 
d="M-34 49c0 29 8 60 34 60h144c50 0 90 0 122 13c21 9 33 22 33 50c0 20 -6 39 -19 58s-32 40 -57 60c-62 50 -140 90 -223 131v100l425 271v-126l-304 -187c75 -37 146 -79 199 -132c42 -42 77 -94 77 -170c0 -110 -66 -159 -159 -179c-27 -6 -59 -9 -96 -9h-142
c-27 0 -34 30 -34 60zM180 -150h-109v99h109v-99zM345 -150h-109v99h109v-99zM262 -287h-109v99h109v-99z" />
    <glyph glyph-name="uni063C.medi" unicode="&#x63c;" horiz-adv-x="500" 
d="M-34 49c0 29 8 60 34 60h144c50 0 90 0 122 13c21 9 33 22 33 50c0 20 -6 39 -19 58s-32 40 -57 60c-62 50 -140 90 -223 131v100l425 271v-126l-304 -187c74 -37 141 -76 193 -127c41 -40 73 -86 82 -151c10 -57 37 -92 105 -92v-120h-11c-64 0 -106 31 -129 74h-3
c-41 -54 -120 -74 -216 -74h-142c-27 0 -34 30 -34 60zM180 -150h-109v99h109v-99zM345 -150h-109v99h109v-99zM262 -287h-109v99h109v-99z" />
    <glyph glyph-name="uni063C.fina" unicode="&#x63c;" horiz-adv-x="918" 
d="M183 317c-7 -34 -16 -65 -16 -105c0 -79 50 -96 124 -103c55 -5 112 -5 178 -5c72 0 139 -1 191 13c31 9 56 19 56 56c0 38 -25 77 -76 117s-125 84 -223 131v100l426 271v-126l-304 -187c74 -36 141 -76 193 -127c41 -40 71 -86 81 -151c9 -57 39 -91 105 -92v-120h-10
c-64 0 -107 31 -130 74h-3c-65 -80 -205 -78 -353 -78c-136 0 -268 2 -322 84c-21 31 -32 72 -32 123c0 45 7 89 17 125h98zM431 -150h-109v99h109v-99zM596 -150h-109v99h109v-99zM513 -287h-109v99h109v-99z" />
    <glyph glyph-name="uni063D.init" unicode="&#x63d;" horiz-adv-x="333" 
d="M-34 49c0 29 8 60 34 60h73c40 0 65 4 75 33c3 10 5 23 5 39v228h97v-232c0 -72 -17 -121 -55 -152c-31 -25 -74 -36 -127 -36h-68c-26 0 -34 31 -34 60zM166 694h67l119 -176h-81l-72 107l-70 -107h-79zM133 -179h-108v99h108v-99zM298 -179h-109v99h109v-99z" />
    <glyph glyph-name="uni063D.medi" unicode="&#x63d;" horiz-adv-x="333" 
d="M-34 49c0 29 8 60 34 60h73c39 0 64 6 75 34c4 9 5 22 5 38v228h97v-195c0 -50 0 -85 36 -99c11 -4 27 -6 48 -6v-120h-18c-59 0 -99 18 -118 57h-3c-26 -36 -69 -57 -129 -57h-66c-27 0 -34 30 -34 60zM166 694h67l119 -176h-81l-72 107l-70 -107h-79zM133 -179h-108v99
h108v-99zM298 -179h-109v99h109v-99z" />
    <glyph glyph-name="uni063D.fina" unicode="&#x63d;" horiz-adv-x="834" 
d="M188 271c-12 -45 -21 -82 -21 -135c0 -112 68 -149 184 -149c57 0 117 2 146 28c7 7 11 15 11 25c0 24 -16 41 -27 57c-12 18 -20 39 -20 66c0 57 34 94 75 111c15 6 31 10 49 10c61 0 90 -34 113 -73c24 -40 42 -81 88 -96c13 -4 29 -6 49 -6v-120h-10
c-114 0 -149 68 -192 141c-9 16 -18 27 -26 33s-16 8 -25 8c-16 0 -27 -11 -27 -28c0 -7 3 -14 7 -21s9 -15 16 -23c16 -21 25 -44 25 -69c0 -64 -42 -102 -87 -125c-48 -24 -115 -37 -184 -37c-173 0 -263 86 -263 255c0 55 10 103 22 148h97zM343 561h67l119 -176h-81
l-72 107l-70 -107h-79z" />
    <glyph glyph-name="uni063E.init" unicode="&#x63e;" horiz-adv-x="333" 
d="M-34 49c0 29 8 60 34 60h73c40 0 65 4 75 33c3 10 5 23 5 39v228h97v-232c0 -72 -17 -121 -55 -152c-31 -25 -74 -36 -127 -36h-68c-26 0 -34 31 -34 60zM133 -179h-108v99h108v-99zM298 -179h-109v99h109v-99zM171 517h-108v99h108v-99zM336 517h-109v99h109v-99z" />
    <glyph glyph-name="uni063E.medi" unicode="&#x63e;" horiz-adv-x="333" 
d="M-34 49c0 29 8 60 34 60h73c39 0 64 6 75 34c4 9 5 22 5 38v228h97v-195c0 -50 0 -85 36 -99c11 -4 27 -6 48 -6v-120h-18c-59 0 -99 18 -118 57h-3c-26 -36 -69 -57 -129 -57h-66c-27 0 -34 30 -34 60zM133 -179h-108v99h108v-99zM298 -179h-109v99h109v-99zM171 517
h-108v99h108v-99zM336 517h-109v99h109v-99z" />
    <glyph glyph-name="uni063E.fina" unicode="&#x63e;" horiz-adv-x="834" 
d="M188 271c-12 -45 -21 -82 -21 -135c0 -112 68 -149 184 -149c57 0 117 2 146 28c7 7 11 15 11 25c0 24 -16 41 -27 57c-12 18 -20 39 -20 66c0 57 34 94 75 111c15 6 31 10 49 10c61 0 90 -34 113 -73c24 -40 42 -81 88 -96c13 -4 29 -6 49 -6v-120h-10
c-114 0 -149 68 -192 141c-9 16 -18 27 -26 33s-16 8 -25 8c-16 0 -27 -11 -27 -28c0 -7 3 -14 7 -21s9 -15 16 -23c16 -21 25 -44 25 -69c0 -64 -42 -102 -87 -125c-48 -24 -115 -37 -184 -37c-173 0 -263 86 -263 255c0 55 10 103 22 148h97zM329 410h-108v99h108v-99z
M494 410h-109v99h109v-99z" />
    <glyph glyph-name="uni063F.init" unicode="&#x63f;" horiz-adv-x="333" 
d="M-34 49c0 29 8 60 34 60h73c40 0 65 4 75 33c3 10 5 23 5 39v228h97v-232c0 -72 -17 -121 -55 -152c-31 -25 -74 -36 -127 -36h-68c-26 0 -34 31 -34 60zM133 -179h-108v99h108v-99zM298 -179h-109v99h109v-99zM171 517h-109v99h109v-99zM336 517h-109v99h109v-99z
M254 654h-109v99h109v-99z" />
    <glyph glyph-name="uni063F.medi" unicode="&#x63f;" horiz-adv-x="333" 
d="M-34 49c0 29 8 60 34 60h73c39 0 64 6 75 34c4 9 5 22 5 38v228h97v-195c0 -50 0 -85 36 -99c11 -4 27 -6 48 -6v-120h-18c-59 0 -99 18 -118 57h-3c-26 -36 -69 -57 -129 -57h-66c-27 0 -34 30 -34 60zM133 -179h-108v99h108v-99zM298 -179h-109v99h109v-99zM171 517
h-109v99h109v-99zM336 517h-109v99h109v-99zM254 654h-109v99h109v-99z" />
    <glyph glyph-name="uni063F.fina" unicode="&#x63f;" horiz-adv-x="834" 
d="M188 271c-12 -45 -21 -82 -21 -135c0 -112 68 -149 184 -149c57 0 117 2 146 28c7 7 11 15 11 25c0 24 -16 41 -27 57c-12 18 -20 39 -20 66c0 57 34 94 75 111c15 6 31 10 49 10c61 0 90 -34 113 -73c24 -40 42 -81 88 -96c13 -4 29 -6 49 -6v-120h-10
c-114 0 -149 68 -192 141c-9 16 -18 27 -26 33s-16 8 -25 8c-16 0 -27 -11 -27 -28c0 -7 3 -14 7 -21s9 -15 16 -23c16 -21 25 -44 25 -69c0 -64 -42 -102 -87 -125c-48 -24 -115 -37 -184 -37c-173 0 -263 86 -263 255c0 55 10 103 22 148h97zM329 410h-109v99h109v-99z
M494 410h-109v99h109v-99zM412 547h-109v99h109v-99z" />
    <glyph glyph-name="afii57441" unicode="&#x641;" horiz-adv-x="1001" arabic-form="isolated" 
d="M183 317c-8 -34 -16 -65 -16 -105c0 -60 27 -85 77 -96s111 -12 179 -12h143c32 0 60 0 90 2l2 4c-50 31 -89 73 -89 145c0 60 24 108 50 144c19 26 45 48 75 61c14 6 29 9 44 9c40 0 69 -20 91 -42c41 -41 70 -100 83 -168c4 -22 6 -45 6 -67
c0 -197 -188 -207 -386 -207h-56c-106 0 -208 -3 -288 21c-78 23 -120 84 -120 185c0 47 7 87 17 126h98zM732 346c-21 0 -36 -17 -46 -31s-20 -36 -20 -58s10 -36 24 -51c28 -29 64 -49 110 -71c15 12 23 40 20 67c-5 53 -27 103 -58 131c-9 8 -20 13 -30 13zM779 588h-109
v99h109v-99z" />
    <glyph glyph-name="afii57442" unicode="&#x642;" horiz-adv-x="751" arabic-form="isolated" 
d="M181 151c-7 -44 -14 -85 -14 -133c0 -84 29 -125 97 -143c25 -7 57 -10 96 -10c104 0 185 21 204 105c3 12 5 23 6 36c-23 -9 -48 -13 -74 -13c-78 0 -132 36 -158 90c-10 21 -16 45 -16 74c0 58 22 111 48 147c25 34 63 69 117 69c25 0 47 -7 68 -22
c47 -34 83 -103 99 -171c9 -40 14 -82 14 -128c0 -157 -54 -253 -175 -289c-39 -12 -86 -17 -139 -17c-142 0 -235 39 -270 144c-11 32 -16 70 -16 114c0 54 6 95 15 147h98zM481 250c-21 0 -36 -16 -45 -30s-19 -35 -19 -56c0 -43 43 -59 86 -59c24 0 47 5 64 13
c-7 45 -28 93 -55 119c-10 9 -20 13 -31 13zM446 494h-108v99h108v-99zM611 494h-109v99h109v-99z" />
    <glyph glyph-name="afii57443" unicode="&#x643;" horiz-adv-x="834" arabic-form="isolated" 
d="M183 317c-7 -34 -16 -65 -16 -105c0 -97 83 -104 179 -107c27 -1 59 -1 96 -1c41 0 75 1 102 2c45 2 84 8 100 35c7 11 10 27 10 47v552h97v-556c0 -148 -95 -191 -237 -197c-28 -1 -56 -2 -85 -2c-138 0 -275 1 -329 84c-20 31 -32 72 -32 122c0 47 7 87 17 126h98z
M422 379c0 5 -3 8 -9 11c-16 8 -41 21 -53 35c-7 9 -11 20 -11 35c0 31 23 51 45 64c28 16 67 27 107 33v-58c-30 -4 -52 -9 -65 -15s-20 -14 -20 -22c0 -5 3 -10 9 -13s15 -7 25 -12c22 -10 39 -23 39 -54c0 -28 -19 -47 -38 -61c-28 -20 -69 -32 -117 -34v59
c59 3 88 14 88 32z" />
    <glyph glyph-name="afii57444" unicode="&#x644;" horiz-adv-x="667" arabic-form="isolated" 
d="M181 240c-7 -47 -14 -89 -14 -140c0 -76 17 -123 74 -141c19 -6 42 -8 71 -8c97 0 149 34 167 113c6 26 8 59 8 96v580h97v-590c0 -203 -75 -320 -278 -320c-126 0 -198 50 -224 149c-8 32 -12 69 -12 111c0 56 6 102 15 150h96z" />
    <glyph glyph-name="afii57445" unicode="&#x645;" horiz-adv-x="584" arabic-form="isolated" 
d="M182 20c-48 0 -62 -30 -62 -78c0 -71 16 -136 34 -193h-102c-9 40 -17 76 -22 108s-8 59 -8 84c0 98 44 166 124 184c14 65 33 119 61 164c20 32 44 57 73 74c17 10 36 17 58 17c40 0 71 -18 94 -39c37 -34 65 -86 77 -144c4 -18 5 -35 5 -51c0 -74 -35 -124 -88 -146
c-19 -8 -39 -11 -62 -11c-52 0 -97 16 -141 26c-15 3 -29 5 -41 5zM231 126c41 -7 83 -22 130 -22c33 0 56 10 56 43c0 25 -13 53 -24 71c-13 20 -33 44 -63 44c-28 0 -46 -18 -59 -37c-18 -27 -30 -62 -40 -99z" />
    <glyph glyph-name="afii57446" unicode="&#x646;" horiz-adv-x="667" arabic-form="isolated" 
d="M565 254c12 -64 19 -120 19 -189c0 -203 -76 -319 -279 -319c-126 0 -200 49 -226 148c-8 32 -13 69 -13 111c0 57 6 101 17 156h96c-8 -49 -15 -93 -15 -146c0 -76 17 -122 75 -140c19 -6 43 -9 72 -9c97 0 148 33 165 113c6 26 9 59 9 96c0 65 -10 120 -20 179h100z
M383 350h-109v99h109v-99z" />
    <glyph glyph-name="afii57470" unicode="&#x647;" horiz-adv-x="500" arabic-form="isolated" 
d="M188 401c-16 14 -33 26 -51 39l64 81c71 -49 131 -104 174 -173c31 -50 54 -108 54 -181c0 -87 -43 -142 -107 -166c-23 -9 -48 -13 -76 -13c-83 0 -139 35 -162 95c-8 20 -12 42 -12 67c0 88 34 157 74 207c14 17 28 32 42 44zM248 108c50 0 86 15 86 60
c0 25 -6 52 -19 80s-33 58 -61 89c-36 -28 -66 -71 -80 -121c-5 -16 -7 -32 -7 -49c0 -45 36 -59 81 -59z" />
    <glyph glyph-name="afii57448" unicode="&#x648;" horiz-adv-x="500" arabic-form="isolated" 
d="M168 -254c-68 0 -118 17 -168 38v120c35 -14 65 -23 92 -29s52 -8 76 -8c98 0 143 51 151 139c-23 -9 -48 -13 -73 -13c-78 0 -133 36 -159 90c-10 21 -15 46 -15 76c0 60 22 109 48 145c18 26 42 48 72 61c14 6 29 9 44 9c25 0 47 -8 67 -22c47 -33 85 -101 101 -171
c9 -41 13 -85 13 -131c0 -135 -46 -234 -136 -280c-31 -16 -69 -24 -113 -24zM167 165c0 -44 41 -60 86 -60c24 0 47 5 64 13c-7 45 -29 92 -55 119c-9 9 -19 14 -30 14c-21 0 -37 -17 -46 -31s-19 -35 -19 -55z" />
    <glyph glyph-name="afii57449" unicode="&#x649;" horiz-adv-x="751" arabic-form="isolated" 
d="M68 167c0 76 17 139 38 201h96c-14 -51 -27 -96 -33 -150c-1 -13 -2 -26 -2 -39c0 -106 59 -146 168 -146c62 0 122 14 165 33c22 10 40 20 53 32s19 25 19 37c0 17 -11 27 -23 34c-29 19 -68 33 -95 54c-33 25 -58 59 -58 115c0 68 36 111 81 141c57 38 135 58 221 70
v-117c-57 -8 -111 -16 -155 -32c-18 -7 -31 -14 -40 -22s-14 -18 -14 -29c0 -17 10 -25 21 -33c17 -12 36 -21 57 -31c50 -25 101 -52 101 -126c0 -47 -19 -86 -41 -116c-45 -60 -115 -101 -201 -120c-30 -7 -63 -10 -98 -10c-172 0 -260 84 -260 254z" />
    <glyph glyph-name="afii57450" unicode="&#x64a;" horiz-adv-x="751" arabic-form="isolated" 
d="M68 167c0 76 17 139 38 201h96c-14 -51 -27 -96 -33 -150c-1 -13 -2 -26 -2 -39c0 -106 59 -146 168 -146c62 0 122 14 165 33c22 10 40 20 53 32s19 25 19 37c0 17 -11 27 -23 34c-29 19 -68 33 -95 54c-33 25 -58 59 -58 115c0 68 36 111 81 141c57 38 135 58 221 70
v-117c-57 -8 -111 -16 -155 -32c-18 -7 -31 -14 -40 -22s-14 -18 -14 -29c0 -17 10 -25 21 -33c17 -12 36 -21 57 -31c50 -25 101 -52 101 -126c0 -47 -19 -86 -41 -116c-45 -60 -115 -101 -201 -120c-30 -7 -63 -10 -98 -10c-172 0 -260 84 -260 254zM347 -263h-108v99h108
v-99zM512 -263h-109v99h109v-99z" />
    <glyph glyph-name="uni066E.init" unicode="&#x66e;" horiz-adv-x="333" 
d="M-34 49c0 29 8 60 34 60h73c40 0 65 4 75 33c3 10 5 23 5 39v228h97v-232c0 -72 -17 -121 -55 -152c-31 -25 -74 -36 -127 -36h-68c-26 0 -34 31 -34 60z" />
    <glyph glyph-name="uni066E.medi" unicode="&#x66e;" horiz-adv-x="333" 
d="M-34 49c0 29 8 60 34 60h73c39 0 64 6 75 34c4 9 5 22 5 38v228h97v-195c0 -50 0 -85 36 -99c11 -4 27 -6 48 -6v-120h-18c-59 0 -99 18 -118 57h-3c-26 -36 -69 -57 -129 -57h-66c-27 0 -34 30 -34 60z" />
    <glyph glyph-name="uni066E.fina" unicode="&#x66e;" horiz-adv-x="918" 
d="M183 317c-7 -34 -16 -65 -16 -105c0 -78 51 -96 124 -103c59 -6 120 -5 193 -5c49 0 89 1 122 2c74 3 132 9 132 82v221h97v-195c0 -50 0 -85 36 -99c11 -4 26 -6 47 -6v-120h-19c-58 0 -94 19 -113 58h-3c-67 -63 -197 -62 -328 -62c-98 0 -195 0 -269 23
c-77 24 -118 84 -118 183c0 47 7 87 17 126h98z" />
    <glyph glyph-name="uni066F.init" unicode="&#x66f;" horiz-adv-x="500" 
d="M299 135c12 13 20 30 20 54c0 45 -14 83 -32 113c-11 18 -31 44 -56 44c-21 0 -36 -17 -45 -31s-19 -36 -19 -58s9 -36 23 -51c27 -30 63 -49 109 -71zM157 110c-51 31 -86 72 -86 145c0 59 23 108 49 144c19 26 43 48 73 61c14 6 29 9 44 9c39 0 69 -20 91 -42
c41 -41 70 -100 83 -168c4 -22 6 -45 6 -67c0 -177 -151 -203 -328 -203h-89c-27 0 -34 30 -34 60c0 29 8 60 34 60h63c7 0 14 -1 23 -1c13 0 13 -1 26 -1c14 -1 30 -1 43 -1z" />
    <glyph glyph-name="uni066F.medi" unicode="&#x66f;" horiz-adv-x="500" 
d="M299 134c12 10 20 32 20 54c1 10 -1 19 -2 29c-7 45 -28 91 -56 116c-9 8 -19 13 -29 13c-21 0 -37 -17 -46 -31c-10 -14 -19 -36 -19 -58s9 -36 23 -51c9 -10 23 -21 40 -33s40 -25 69 -39zM157 110c-51 31 -86 73 -86 145c0 59 23 109 49 144c19 26 43 48 73 61
c14 6 29 9 44 9c39 0 69 -20 91 -42c41 -40 70 -101 83 -168c4 -22 6 -45 6 -67c0 -32 -5 -57 -15 -79c31 -4 64 -4 99 -4v-120h-16c-67 0 -132 10 -182 29c-60 -24 -138 -29 -221 -29h-82c-27 0 -34 30 -34 60c0 29 8 60 34 60h63c7 0 14 -1 23 -1c13 0 14 -1 27 -1
c14 -1 30 -1 43 -1z" />
    <glyph glyph-name="uni066F.fina" unicode="&#x66f;" horiz-adv-x="751" 
d="M181 151c-7 -44 -14 -85 -14 -133c0 -84 31 -125 99 -143c25 -7 57 -10 96 -10c71 0 125 9 162 37c28 20 41 50 46 89h-49c-119 0 -199 53 -199 168c0 59 23 108 49 144c19 26 43 48 73 61c14 6 29 9 44 9c25 0 48 -7 68 -21c40 -28 76 -88 93 -146c9 -30 15 -62 18 -97
h84v-120h-84c-19 -170 -122 -243 -311 -243c-142 0 -237 40 -272 144c-11 32 -16 70 -16 114c0 54 6 95 15 147h98zM417 167c0 -51 46 -60 102 -60h51c-8 45 -20 82 -42 113c-10 14 -24 30 -44 30c-21 0 -36 -16 -46 -29s-21 -34 -21 -54z" />
    <glyph glyph-name="uni0671" unicode="&#x671;" horiz-adv-x="250" arabic-form="isolated" 
d="M69 0v740h98v-740h-98zM-65 850c25 17 49 34 89 34h6c2 0 5 0 7 -1c12 36 27 64 47 81s43 25 69 25c51 0 86 -32 86 -82c0 -47 -32 -78 -66 -92c-13 -5 -27 -8 -41 -8c-34 0 -61 14 -88 22c-8 3 -16 4 -23 4s-14 -2 -23 -6s-21 -10 -35 -21zM83 870c14 -5 30 -11 47 -11
c28 0 49 19 49 47c0 19 -13 32 -31 32c-12 0 -23 -6 -34 -16s-22 -28 -31 -52z" />
    <glyph glyph-name="uni0672.fina" unicode="&#x672;" horiz-adv-x="250" 
d="M231 -11c-122 0 -161 77 -161 197v554h97v-526c0 -51 1 -86 38 -99c11 -4 25 -6 45 -6v-120h-19zM184 931c-10 3 -24 5 -35 5c-25 0 -45 -10 -45 -35c0 -30 24 -39 57 -39h45v-54h-107c-38 0 -60 8 -84 19c-5 2 -10 4 -16 4c-18 0 -29 -10 -41 -21h-1v47
c14 12 26 21 47 21c17 0 30 -7 43 -13c5 -2 12 -4 19 -6v2c-14 17 -20 34 -20 51c0 53 46 79 100 79c11 0 24 -1 38 -4v-56z" />
    <glyph glyph-name="uni0673.fina" unicode="&#x673;" horiz-adv-x="250" 
d="M231 -11c-122 0 -161 77 -161 197v554h97v-526c0 -51 1 -86 38 -99c11 -4 25 -6 45 -6v-120h-19zM184 -131c-10 3 -24 5 -35 5c-25 0 -45 -10 -45 -35c0 -30 24 -39 57 -39h45v-54h-107c-38 0 -60 8 -84 19c-5 2 -10 4 -16 4c-18 0 -29 -10 -41 -21h-1v47
c14 12 26 21 47 21c17 0 30 -7 43 -13c5 -2 12 -4 19 -6v2c-14 17 -20 34 -20 51c0 53 46 79 100 79c11 0 24 -1 38 -4v-56z" />
    <glyph glyph-name="uni0675.fina" unicode="&#x675;" horiz-adv-x="417" 
d="M231 -11c-122 0 -161 77 -161 197v554h97v-526c0 -51 1 -86 38 -99c11 -4 25 -6 45 -6v-120h-19zM216 49c0 29 8 60 34 60h167v-120h-167c-27 0 -34 30 -34 60zM366 678c-10 3 -24 5 -35 5c-25 0 -45 -10 -45 -35c0 -30 25 -38 57 -38h45v-54h-180v51h40v2
c-14 17 -20 34 -20 51c0 53 46 79 100 79c10 0 23 -1 38 -4v-57z" />
    <glyph glyph-name="uni0676.fina" unicode="&#x676;" horiz-adv-x="500" 
d="M0 -96c52 -20 103 -37 171 -37c89 0 135 45 144 124h-47c-119 0 -198 53 -198 168c0 57 22 110 48 145c24 34 63 70 116 70c25 0 48 -8 68 -22c40 -28 76 -88 93 -146c9 -30 15 -62 18 -97h88v-120h-89c-12 -108 -58 -188 -142 -225c-28 -12 -61 -18 -98 -18
c-70 0 -121 17 -172 38v120zM165 167c0 -51 43 -60 100 -60h51c-8 45 -20 83 -42 114c-10 14 -24 30 -44 30c-21 0 -36 -17 -46 -30s-19 -34 -19 -54zM444 640c-10 3 -24 5 -35 5c-25 0 -45 -10 -45 -35c0 -30 25 -38 57 -38h45v-54h-180v51h40v2c-14 17 -20 34 -20 51
c0 53 46 79 100 79c10 0 23 -1 38 -4v-57z" />
    <glyph glyph-name="uni0677" unicode="&#x677;" horiz-adv-x="500" arabic-form="isolated" 
d="M168 -254c-68 0 -118 17 -168 38v120c35 -14 65 -23 92 -29s52 -8 76 -8c98 0 143 51 151 139c-23 -9 -48 -13 -73 -13c-78 0 -133 36 -159 90c-10 21 -15 46 -15 76c0 60 22 109 48 145c18 26 42 48 72 61c14 6 29 9 44 9c25 0 47 -8 67 -22c47 -33 85 -101 101 -171
c9 -41 13 -85 13 -131c0 -135 -46 -234 -136 -280c-31 -16 -69 -24 -113 -24zM167 165c0 -44 41 -60 86 -60c24 0 47 5 64 13c-7 45 -29 92 -55 119c-9 9 -19 14 -30 14c-21 0 -37 -17 -46 -31s-19 -35 -19 -55zM444 640c-10 3 -24 5 -35 5c-25 0 -45 -10 -45 -35
c0 -30 25 -38 57 -38h45v-54h-180v51h40v2c-14 17 -20 34 -20 51c0 53 46 79 100 79c10 0 23 -1 38 -4v-57zM128 532c-9 -2 -22 -3 -32 -3h-6c-45 0 -75 5 -112 15l10 48c29 -8 52 -14 85 -15c5 0 10 -1 16 -1v1l-1 1c-15 21 -22 41 -22 61c0 41 28 65 59 75c11 4 22 5 33 5
c51 0 87 -30 87 -82c0 -46 -27 -72 -61 -88c5 -7 8 -9 18 -16l-32 -36c-16 12 -29 23 -42 35zM148 586c21 8 41 22 41 50c0 21 -13 34 -32 34s-34 -12 -34 -32c0 -21 13 -39 25 -52z" />
    <glyph glyph-name="uni0678.init" unicode="&#x678;" horiz-adv-x="500" 
d="M-34 49c0 29 8 60 34 60h73c40 0 65 4 75 33c3 10 5 23 5 39v228h97v-232c0 -72 -17 -121 -55 -152c-31 -25 -74 -36 -127 -36h-68c-26 0 -34 31 -34 60zM444 638c-10 3 -24 5 -35 5c-25 0 -45 -10 -45 -35c0 -30 25 -38 57 -38h45v-54h-180v51h40v2
c-14 17 -20 34 -20 51c0 53 46 79 100 79c10 0 23 -1 38 -4v-57z" />
    <glyph glyph-name="uni0678.medi" unicode="&#x678;" horiz-adv-x="500" 
d="M-34 49c0 29 8 60 34 60h73c39 0 64 6 75 34c4 9 5 22 5 38v228h97v-195c0 -50 0 -85 36 -99c11 -4 27 -6 48 -6v-120h-18c-59 0 -99 18 -118 57h-3c-26 -36 -69 -57 -129 -57h-66c-27 0 -34 30 -34 60zM444 638c-10 3 -24 5 -35 5c-25 0 -45 -10 -45 -35
c0 -30 25 -38 57 -38h45v-54h-180v51h40v2c-14 17 -20 34 -20 51c0 53 46 79 100 79c10 0 23 -1 38 -4v-57zM300 49c0 29 8 60 34 60h167v-120h-167c-27 0 -34 30 -34 60z" />
    <glyph glyph-name="uni0678.fina" unicode="&#x678;" horiz-adv-x="834" 
d="M188 271c-12 -45 -21 -82 -21 -135c0 -112 68 -149 184 -149c57 0 117 2 146 28c7 7 11 15 11 25c0 24 -16 41 -27 57c-12 18 -20 39 -20 66c0 57 34 94 75 111c15 6 31 10 49 10c61 0 90 -34 113 -73c24 -40 42 -81 88 -96c13 -4 29 -6 49 -6v-120h-10
c-114 0 -149 68 -192 141c-9 16 -18 27 -26 33s-16 8 -25 8c-16 0 -27 -11 -27 -28c0 -7 3 -14 7 -21s9 -15 16 -23c16 -21 25 -44 25 -69c0 -64 -42 -102 -87 -125c-48 -24 -115 -37 -184 -37c-173 0 -263 86 -263 255c0 55 10 103 22 148h97zM852 638c-10 3 -24 5 -35 5
c-25 0 -45 -10 -45 -35c0 -30 25 -38 57 -38h45v-54h-180v51h40v2c-14 17 -20 34 -20 51c0 53 46 79 100 79c10 0 23 -1 38 -4v-57z" />
    <glyph glyph-name="afii57511" unicode="&#x679;" horiz-adv-x="918" arabic-form="isolated" 
d="M183 317c-8 -34 -16 -65 -16 -105c0 -78 51 -96 124 -103c59 -6 120 -5 193 -5c49 0 89 1 122 2c74 3 132 9 132 82v221h97v-225c0 -192 -181 -199 -373 -199c-148 0 -303 -7 -362 84c-20 31 -32 71 -32 122c0 47 7 87 17 126h98zM361 498v241h56v-157l2 -1
c12 17 26 31 41 42s34 16 55 16c65 0 94 -50 94 -114c0 -57 -26 -82 -78 -85c-16 -1 -33 -2 -51 -2c-63 0 -118 0 -173 6l-8 57c20 -3 39 -3 62 -3zM556 526c0 32 -18 55 -47 55c-23 0 -40 -13 -53 -26c-15 -16 -28 -38 -38 -59h57c37 0 81 -8 81 30z" />
    <glyph glyph-name="uni067A" unicode="&#x67a;" horiz-adv-x="918" arabic-form="isolated" 
d="M183 317c-8 -34 -16 -65 -16 -105c0 -78 51 -96 124 -103c59 -6 120 -5 193 -5c49 0 89 1 122 2c74 3 132 9 132 82v221h97v-225c0 -192 -181 -199 -373 -199c-148 0 -303 -7 -362 84c-20 31 -32 71 -32 122c0 47 7 87 17 126h98zM514 517h-109v99h109v-99zM514 654h-109
v99h109v-99z" />
    <glyph glyph-name="uni067B" unicode="&#x67b;" horiz-adv-x="918" arabic-form="isolated" 
d="M183 317c-8 -34 -16 -65 -16 -105c0 -78 51 -96 124 -103c59 -6 120 -5 193 -5c49 0 89 1 122 2c74 3 132 9 132 82v221h97v-225c0 -192 -181 -199 -373 -199c-148 0 -303 -7 -362 84c-20 31 -32 71 -32 122c0 47 7 87 17 126h98zM514 -287h-109v99h109v-99zM514 -150
h-109v99h109v-99z" />
    <glyph glyph-name="uni067C.init" unicode="&#x67c;" horiz-adv-x="333" 
d="M-34 49c0 29 8 60 34 60h73c40 0 65 4 75 33c3 10 5 23 5 39v228h97v-232c0 -72 -17 -121 -55 -152c-31 -25 -74 -36 -127 -36h-68c-26 0 -34 31 -34 60zM139 33c38 0 65 -22 76 -50c4 -10 6 -21 6 -33c0 -38 -23 -63 -50 -75c-10 -4 -21 -6 -32 -6c-39 0 -65 21 -77 49
c-4 10 -7 21 -7 32c0 39 23 65 51 77c10 4 21 6 33 6zM100 -50c0 -23 16 -41 39 -41c22 0 38 19 38 41c0 23 -15 43 -38 43c-24 0 -39 -19 -39 -43z" />
    <glyph glyph-name="uni067C.medi" unicode="&#x67c;" horiz-adv-x="333" 
d="M-34 49c0 29 8 60 34 60h73c39 0 64 6 75 34c4 9 5 22 5 38v228h97v-195c0 -50 0 -85 36 -99c11 -4 27 -6 48 -6v-120h-18c-59 0 -99 18 -118 57h-3c-26 -36 -69 -57 -129 -57h-66c-27 0 -34 30 -34 60zM125 33c38 0 65 -22 76 -50c4 -10 6 -21 6 -33
c0 -38 -23 -63 -50 -75c-10 -4 -21 -6 -32 -6c-39 0 -65 21 -77 49c-4 10 -7 21 -7 32c0 39 23 65 51 77c10 4 21 6 33 6zM86 -50c0 -23 16 -41 39 -41c22 0 38 19 38 41c0 23 -15 43 -38 43c-24 0 -39 -19 -39 -43z" />
    <glyph glyph-name="uni067C.fina" unicode="&#x67c;" horiz-adv-x="918" 
d="M183 317c-7 -34 -16 -65 -16 -105c0 -78 51 -96 124 -103c59 -6 120 -5 193 -5c49 0 89 1 122 2c74 3 132 9 132 82v221h97v-195c0 -50 0 -85 36 -99c11 -4 26 -6 47 -6v-120h-19c-58 0 -94 19 -113 58h-3c-67 -63 -197 -62 -328 -62c-98 0 -195 0 -269 23
c-77 24 -118 84 -118 183c0 47 7 87 17 126h98zM460 21c38 0 65 -22 76 -50c4 -10 6 -21 6 -33c0 -38 -23 -63 -50 -75c-10 -4 -21 -6 -32 -6c-39 0 -65 21 -77 49c-4 10 -7 21 -7 32c0 39 23 65 51 77c10 4 21 6 33 6zM421 -62c0 -23 16 -41 39 -41c22 0 38 19 38 41
c0 23 -15 43 -38 43c-24 0 -39 -19 -39 -43z" />
    <glyph glyph-name="uni067D.init" unicode="&#x67d;" horiz-adv-x="333" 
d="M-34 49c0 29 8 60 34 60h73c40 0 65 4 75 33c3 10 5 23 5 39v228h97v-232c0 -72 -17 -121 -55 -152c-31 -25 -74 -36 -127 -36h-68c-26 0 -34 31 -34 60zM171 654h-109v99h109v-99zM336 654h-109v99h109v-99zM253 517h-109v99h109v-99z" />
    <glyph glyph-name="uni067D.medi" unicode="&#x67d;" horiz-adv-x="333" 
d="M-34 49c0 29 8 60 34 60h73c39 0 64 6 75 34c4 9 5 22 5 38v228h97v-195c0 -50 0 -85 36 -99c11 -4 27 -6 48 -6v-120h-18c-59 0 -99 18 -118 57h-3c-26 -36 -69 -57 -129 -57h-66c-27 0 -34 30 -34 60zM171 654h-109v99h109v-99zM336 654h-109v99h109v-99zM253 517h-109
v99h109v-99z" />
    <glyph glyph-name="uni067D.fina" unicode="&#x67d;" horiz-adv-x="918" 
d="M183 317c-7 -34 -16 -65 -16 -105c0 -78 51 -96 124 -103c59 -6 120 -5 193 -5c49 0 89 1 122 2c74 3 132 9 132 82v221h97v-195c0 -50 0 -85 36 -99c11 -4 26 -6 47 -6v-120h-19c-58 0 -94 19 -113 58h-3c-67 -63 -197 -62 -328 -62c-98 0 -195 0 -269 23
c-77 24 -118 84 -118 183c0 47 7 87 17 126h98zM431 654h-109v99h109v-99zM596 654h-109v99h109v-99zM513 517h-109v99h109v-99z" />
    <glyph glyph-name="afii57506" unicode="&#x67e;" horiz-adv-x="918" arabic-form="isolated" 
d="M183 317c-8 -34 -16 -65 -16 -105c0 -78 51 -96 124 -103c59 -6 120 -5 193 -5c49 0 89 1 122 2c74 3 132 9 132 82v221h97v-225c0 -192 -181 -199 -373 -199c-148 0 -303 -7 -362 84c-20 31 -32 71 -32 122c0 47 7 87 17 126h98zM431 -150h-109v99h109v-99zM596 -150
h-109v99h109v-99zM513 -287h-109v99h109v-99z" />
    <glyph glyph-name="uni067F" unicode="&#x67f;" horiz-adv-x="918" arabic-form="isolated" 
d="M183 317c-8 -34 -16 -65 -16 -105c0 -78 51 -96 124 -103c59 -6 120 -5 193 -5c49 0 89 1 122 2c74 3 132 9 132 82v221h97v-225c0 -192 -181 -199 -373 -199c-148 0 -303 -7 -362 84c-20 31 -32 71 -32 122c0 47 7 87 17 126h98zM431 517h-109v99h109v-99zM596 517h-109
v99h109v-99zM431 654h-109v99h109v-99zM596 654h-109v99h109v-99z" />
    <glyph glyph-name="uni0680" unicode="&#x680;" horiz-adv-x="918" arabic-form="isolated" 
d="M183 317c-8 -34 -16 -65 -16 -105c0 -78 51 -96 124 -103c59 -6 120 -5 193 -5c49 0 89 1 122 2c74 3 132 9 132 82v221h97v-225c0 -192 -181 -199 -373 -199c-148 0 -303 -7 -362 84c-20 31 -32 71 -32 122c0 47 7 87 17 126h98zM431 -287h-109v99h109v-99zM596 -287
h-109v99h109v-99zM431 -150h-109v99h109v-99zM596 -150h-109v99h109v-99z" />
    <glyph glyph-name="uni0681.init" unicode="&#x681;" horiz-adv-x="584" 
d="M83 400c43 13 81 20 134 20c68 0 117 -18 161 -42c43 -23 85 -45 145 -52c13 -1 28 -3 44 -4l-22 -131c-16 -4 -33 -10 -52 -22c-73 -44 -147 -97 -234 -132c-66 -27 -144 -48 -237 -48h-22c-27 0 -34 30 -34 60c0 29 8 60 34 60h26c81 0 150 18 209 43
c63 26 119 60 173 95v3c-55 32 -109 55 -197 55c-50 0 -88 -5 -128 -16v111zM366 631c-10 3 -24 5 -35 5c-25 0 -45 -10 -45 -35c0 -30 25 -38 57 -38h45v-54h-180v51h40v2c-14 17 -20 34 -20 51c0 53 46 79 100 79c10 0 23 -1 38 -4v-57z" />
    <glyph glyph-name="uni0681.medi" unicode="&#x681;" horiz-adv-x="584" 
d="M83 400c43 13 81 20 134 20c92 0 145 -34 206 -65c40 -21 85 -29 144 -33l-22 -131c-31 -7 -59 -26 -86 -43c5 -36 32 -39 74 -39h51v-120h-25c-75 0 -128 20 -149 72c-6 15 -10 30 -13 47c-75 -46 -159 -87 -261 -108c-36 -7 -73 -11 -114 -11h-22c-27 0 -34 30 -34 60
c0 29 8 60 34 60h26c81 0 150 18 209 43c63 26 119 60 173 95v3c-55 32 -109 55 -197 55c-50 0 -88 -5 -128 -16v111zM366 631c-10 3 -24 5 -35 5c-25 0 -45 -10 -45 -35c0 -30 25 -38 57 -38h45v-54h-180v51h40v2c-14 17 -20 34 -20 51c0 53 46 79 100 79c10 0 23 -1 38 -4
v-57z" />
    <glyph glyph-name="uni0681.fina" unicode="&#x681;" horiz-adv-x="584" 
d="M83 438c39 12 77 20 127 20c68 0 114 -19 160 -41c48 -23 98 -40 169 -41l-22 -128c-18 -5 -36 -11 -54 -16c7 -61 20 -109 73 -119c14 -3 29 -4 48 -4v-120h-14c-134 0 -173 91 -185 217c-74 -28 -135 -58 -179 -104c-27 -28 -46 -59 -46 -106c0 -70 42 -106 97 -125
c24 -8 55 -12 91 -12c76 0 134 16 197 39v-114c-61 -21 -121 -38 -201 -38c-133 0 -227 48 -264 142c-11 29 -18 60 -18 95c0 76 26 132 61 177c53 69 136 113 232 144v5c-30 15 -55 28 -95 32c-12 1 -26 2 -42 2c-49 0 -97 -6 -135 -17v112zM375 683c-10 3 -24 5 -35 5
c-25 0 -45 -10 -45 -35c0 -30 25 -38 57 -38h45v-54h-180v51h40v2c-14 17 -20 34 -20 51c0 53 46 79 100 79c10 0 23 -1 38 -4v-57z" />
    <glyph glyph-name="uni0682.init" unicode="&#x682;" horiz-adv-x="584" 
d="M83 400c43 13 81 20 134 20c68 0 117 -18 161 -42c43 -23 85 -45 145 -52c13 -1 28 -3 44 -4l-22 -131c-16 -4 -33 -10 -52 -22c-73 -44 -147 -97 -234 -132c-66 -27 -144 -48 -237 -48h-22c-27 0 -34 30 -34 60c0 29 8 60 34 60h26c81 0 150 18 209 43
c63 26 119 60 173 95v3c-55 32 -109 55 -197 55c-50 0 -88 -5 -128 -16v111zM347 507h-109v99h109v-99zM347 644h-109v99h109v-99z" />
    <glyph glyph-name="uni0682.medi" unicode="&#x682;" horiz-adv-x="584" 
d="M83 400c43 13 81 20 134 20c92 0 145 -34 206 -65c40 -21 85 -29 144 -33l-22 -131c-31 -7 -59 -26 -86 -43c5 -36 32 -39 74 -39h51v-120h-25c-75 0 -128 20 -149 72c-6 15 -10 30 -13 47c-75 -46 -159 -87 -261 -108c-36 -7 -73 -11 -114 -11h-22c-27 0 -34 30 -34 60
c0 29 8 60 34 60h26c81 0 150 18 209 43c63 26 119 60 173 95v3c-55 32 -109 55 -197 55c-50 0 -88 -5 -128 -16v111zM347 507h-109v99h109v-99zM347 644h-109v99h109v-99z" />
    <glyph glyph-name="uni0682.fina" unicode="&#x682;" horiz-adv-x="584" 
d="M83 438c39 12 77 20 127 20c68 0 114 -19 160 -41c48 -23 98 -40 169 -41l-22 -128c-18 -5 -36 -11 -54 -16c7 -61 20 -109 73 -119c14 -3 29 -4 48 -4v-120h-14c-134 0 -173 91 -185 217c-74 -28 -135 -58 -179 -104c-27 -28 -46 -59 -46 -106c0 -70 42 -106 97 -125
c24 -8 55 -12 91 -12c76 0 134 16 197 39v-114c-61 -21 -121 -38 -201 -38c-133 0 -227 48 -264 142c-11 29 -18 60 -18 95c0 76 26 132 61 177c53 69 136 113 232 144v5c-30 15 -55 28 -95 32c-12 1 -26 2 -42 2c-49 0 -97 -6 -135 -17v112zM363 561h-109v99h109v-99z
M363 698h-109v99h109v-99z" />
    <glyph glyph-name="uni0683" unicode="&#x683;" horiz-adv-x="584" arabic-form="isolated" 
d="M83 438c39 12 77 20 127 20c68 0 114 -19 160 -41c48 -23 98 -40 169 -41l-22 -128c-71 -19 -130 -39 -176 -60s-83 -42 -110 -63s-46 -43 -56 -65s-15 -43 -15 -64c0 -70 42 -106 97 -125c24 -8 55 -12 91 -12c76 0 134 16 197 39v-114c-61 -21 -121 -38 -201 -38
c-133 0 -227 48 -264 142c-11 29 -18 60 -18 95c0 76 26 132 61 177c53 69 136 113 232 144v5c-30 15 -55 28 -95 32c-12 1 -26 2 -42 2c-49 0 -97 -6 -135 -17v112zM348 -17h-108v99h108v-99zM513 -17h-109v99h109v-99z" />
    <glyph glyph-name="uni0684" unicode="&#x684;" horiz-adv-x="584" arabic-form="isolated" 
d="M407 38h-89v87h89v-87zM407 -83h-89v88h89v-88zM83 438c39 12 77 20 127 20c68 0 114 -19 160 -41c48 -23 98 -40 169 -41l-22 -128c-71 -19 -130 -39 -176 -60s-83 -42 -110 -63s-46 -43 -56 -65s-15 -43 -15 -64c0 -70 42 -106 97 -125c24 -8 55 -12 91 -12
c76 0 134 16 197 39v-114c-61 -21 -121 -38 -201 -38c-133 0 -227 48 -264 142c-11 29 -18 60 -18 95c0 76 26 132 61 177c53 69 136 113 232 144v5c-30 15 -55 28 -95 32c-12 1 -26 2 -42 2c-49 0 -97 -6 -135 -17v112z" />
    <glyph glyph-name="uni0685.init" unicode="&#x685;" horiz-adv-x="584" 
d="M83 400c43 13 81 20 134 20c68 0 117 -18 161 -42c43 -23 85 -45 145 -52c13 -1 28 -3 44 -4l-22 -131c-16 -4 -33 -10 -52 -22c-73 -44 -147 -97 -234 -132c-66 -27 -144 -48 -237 -48h-22c-27 0 -34 30 -34 60c0 29 8 60 34 60h26c81 0 150 18 209 43
c63 26 119 60 173 95v3c-55 32 -109 55 -197 55c-50 0 -88 -5 -128 -16v111zM264 507h-109v99h109v-99zM429 507h-109v99h109v-99zM347 644h-109v99h109v-99z" />
    <glyph glyph-name="uni0685.medi" unicode="&#x685;" horiz-adv-x="584" 
d="M83 400c43 13 81 20 134 20c92 0 145 -34 206 -65c40 -21 85 -29 144 -33l-22 -131c-31 -7 -59 -26 -86 -43c5 -36 32 -39 74 -39h51v-120h-25c-75 0 -128 20 -149 72c-6 15 -10 30 -13 47c-75 -46 -159 -87 -261 -108c-36 -7 -73 -11 -114 -11h-22c-27 0 -34 30 -34 60
c0 29 8 60 34 60h26c81 0 150 18 209 43c63 26 119 60 173 95v3c-55 32 -109 55 -197 55c-50 0 -88 -5 -128 -16v111zM264 507h-109v99h109v-99zM429 507h-109v99h109v-99zM347 644h-109v99h109v-99z" />
    <glyph glyph-name="uni0685.fina" unicode="&#x685;" horiz-adv-x="584" 
d="M83 438c39 12 77 20 127 20c68 0 114 -19 160 -41c48 -23 98 -40 169 -41l-22 -128c-18 -5 -36 -11 -54 -16c7 -61 20 -109 73 -119c14 -3 29 -4 48 -4v-120h-14c-134 0 -173 91 -185 217c-74 -28 -135 -58 -179 -104c-27 -28 -46 -59 -46 -106c0 -70 42 -106 97 -125
c24 -8 55 -12 91 -12c76 0 134 16 197 39v-114c-61 -21 -121 -38 -201 -38c-133 0 -227 48 -264 142c-11 29 -18 60 -18 95c0 76 26 132 61 177c53 69 136 113 232 144v5c-30 15 -55 28 -95 32c-12 1 -26 2 -42 2c-49 0 -97 -6 -135 -17v112zM279 561h-109v99h109v-99z
M444 561h-109v99h109v-99zM362 698h-109v99h109v-99z" />
    <glyph glyph-name="afii57507" unicode="&#x686;" horiz-adv-x="584" arabic-form="isolated" 
d="M340 26h-89v88h89v-88zM486 26h-89v88h89v-88zM413 -102h-89v88h89v-88zM83 438c39 12 77 20 127 20c68 0 114 -19 160 -41c48 -23 98 -40 169 -41l-22 -125c-71 -19 -130 -38 -177 -59s-84 -43 -111 -64s-46 -43 -57 -65s-16 -45 -16 -67c0 -72 44 -109 101 -128
c25 -8 55 -13 91 -13c76 0 134 17 197 40v-111c-61 -21 -121 -38 -201 -38c-133 0 -227 48 -264 142c-11 29 -18 60 -18 95c0 76 26 132 61 177c53 69 136 113 232 144v5c-30 15 -55 28 -95 32c-12 1 -26 2 -42 2c-49 0 -97 -6 -135 -17v112z" />
    <glyph glyph-name="uni0687" unicode="&#x687;" horiz-adv-x="584" arabic-form="isolated" 
d="M342 33h-88v87h88v-87zM483 33h-88v87h88v-87zM83 438c39 12 77 20 127 20c68 0 114 -19 160 -41c48 -23 98 -40 169 -41l-22 -125c-71 -19 -130 -38 -177 -59s-84 -43 -111 -64s-46 -43 -57 -65s-16 -45 -16 -67c0 -72 44 -109 101 -128c25 -8 55 -13 91 -13
c76 0 134 17 197 40v-111c-61 -21 -121 -38 -201 -38c-133 0 -227 48 -264 142c-11 29 -18 60 -18 95c0 76 26 132 61 177c53 69 136 113 232 144v5c-30 15 -55 28 -95 32c-12 1 -26 2 -42 2c-49 0 -97 -6 -135 -17v112zM342 -97h-88v88h88v-88zM483 -97h-88v88h88v-88z" />
    <glyph glyph-name="afii57512" unicode="&#x688;" horiz-adv-x="500" arabic-form="isolated" 
d="M199 107c64 0 112 10 112 68c0 23 -5 46 -14 71c-22 59 -58 111 -96 161c-22 29 -46 60 -72 93h124c52 -59 94 -115 122 -170s42 -110 42 -162c0 -136 -89 -181 -223 -181c-47 0 -99 5 -145 13l-23 121c59 -8 115 -14 173 -14zM81 676v241h56v-157l2 -1
c12 17 26 31 41 42s34 16 55 16c65 0 94 -50 94 -114c0 -57 -26 -82 -78 -85c-16 -1 -33 -2 -51 -2c-63 0 -118 0 -173 6l-8 57c20 -3 39 -3 62 -3zM276 704c0 32 -18 55 -47 55c-23 0 -40 -13 -53 -26c-15 -16 -28 -38 -38 -59h57c37 0 81 -8 81 30z" />
    <glyph glyph-name="uni0689.fina" unicode="&#x689;" horiz-adv-x="500" 
d="M24 121c60 -8 113 -14 172 -14c49 0 93 5 104 40c3 9 4 19 4 31c0 15 -2 34 -7 58c-19 90 -50 182 -81 264h113c33 -98 57 -185 79 -283c13 -54 25 -108 93 -108v-120h-14c-55 0 -85 29 -103 68h-2c-36 -50 -105 -70 -190 -70c-47 0 -98 5 -144 13zM209 24
c38 0 65 -22 76 -50c4 -10 6 -21 6 -33c0 -38 -23 -63 -50 -75c-10 -4 -21 -6 -32 -6c-39 0 -65 21 -77 49c-4 10 -7 21 -7 32c0 39 23 65 51 77c10 4 21 6 33 6zM170 -59c0 -23 16 -41 39 -41c22 0 38 19 38 41c0 23 -15 43 -38 43c-24 0 -39 -19 -39 -43z" />
    <glyph glyph-name="uni068A.fina" unicode="&#x68a;" horiz-adv-x="500" 
d="M24 121c60 -8 113 -14 172 -14c49 0 93 5 104 40c3 9 4 19 4 31c0 15 -2 34 -7 58c-19 90 -50 182 -81 264h113c33 -98 57 -185 79 -283c13 -54 25 -108 93 -108v-120h-14c-55 0 -85 29 -103 68h-2c-36 -50 -105 -70 -190 -70c-47 0 -98 5 -144 13zM263 -175h-109v99h109
v-99z" />
    <glyph glyph-name="uni068B.fina" unicode="&#x68b;" horiz-adv-x="500" 
d="M24 121c60 -8 113 -14 172 -14c49 0 93 5 104 40c3 9 4 19 4 31c0 15 -2 34 -7 58c-19 90 -50 182 -81 264h113c33 -98 57 -185 79 -283c13 -54 25 -108 93 -108v-120h-14c-55 0 -85 29 -103 68h-2c-36 -50 -105 -70 -190 -70c-47 0 -98 5 -144 13zM263 -179h-109v99h109
v-99zM290 616h-109v99h109v-99z" />
    <glyph glyph-name="uni068C" unicode="&#x68c;" horiz-adv-x="500" arabic-form="isolated" 
d="M199 107c64 0 112 10 112 68c0 23 -5 46 -14 71c-22 59 -58 111 -96 161c-22 29 -46 60 -72 93h124c52 -59 94 -115 122 -170s42 -110 42 -162c0 -136 -89 -181 -223 -181c-47 0 -99 5 -145 13l-23 121c59 -8 115 -14 173 -14zM151 616h-108v99h108v-99zM316 616h-109v99
h109v-99z" />
    <glyph glyph-name="uni068D" unicode="&#x68d;" horiz-adv-x="500" arabic-form="isolated" 
d="M199 107c64 0 112 10 112 68c0 23 -5 46 -14 71c-22 59 -58 111 -96 161c-22 29 -46 60 -72 93h124c52 -59 94 -115 122 -170s42 -110 42 -162c0 -136 -89 -181 -223 -181c-47 0 -99 5 -145 13l-23 121c59 -8 115 -14 173 -14zM180 -175h-108v99h108v-99zM345 -175h-109
v99h109v-99z" />
    <glyph glyph-name="uni068E" unicode="&#x68e;" horiz-adv-x="500" arabic-form="isolated" 
d="M199 107c64 0 112 10 112 68c0 23 -5 46 -14 71c-22 59 -58 111 -96 161c-22 29 -46 60 -72 93h124c52 -59 94 -115 122 -170s42 -110 42 -162c0 -136 -89 -181 -223 -181c-47 0 -99 5 -145 13l-23 121c59 -8 115 -14 173 -14zM151 616h-109v99h109v-99zM316 616h-109v99
h109v-99zM234 753h-109v99h109v-99z" />
    <glyph glyph-name="uni068F.fina" unicode="&#x68f;" horiz-adv-x="500" 
d="M24 121c60 -8 113 -14 172 -14c49 0 93 5 104 40c3 9 4 19 4 31c0 15 -2 34 -7 58c-19 90 -50 182 -81 264h113c33 -98 57 -185 79 -283c13 -54 25 -108 93 -108v-120h-14c-55 0 -85 29 -103 68h-2c-36 -50 -105 -70 -190 -70c-47 0 -98 5 -144 13zM207 753h-109v99h109
v-99zM372 753h-109v99h109v-99zM289 616h-109v99h109v-99z" />
    <glyph glyph-name="uni0690.fina" unicode="&#x690;" horiz-adv-x="500" 
d="M24 121c60 -8 113 -14 172 -14c49 0 93 5 104 40c3 9 4 19 4 31c0 15 -2 34 -7 58c-19 90 -50 182 -81 264h113c33 -98 57 -185 79 -283c13 -54 25 -108 93 -108v-120h-14c-55 0 -85 29 -103 68h-2c-36 -50 -105 -70 -190 -70c-47 0 -98 5 -144 13zM207 616h-109v99h109
v-99zM372 616h-109v99h109v-99zM207 753h-109v99h109v-99zM372 753h-109v99h109v-99z" />
    <glyph glyph-name="afii57513" unicode="&#x691;" horiz-adv-x="417" arabic-form="isolated" 
d="M0 -114c36 -11 62 -19 100 -19c103 0 134 74 134 177c0 80 -18 143 -39 206c-8 25 -18 52 -28 80h106c26 -67 48 -141 57 -223c3 -24 4 -47 4 -69c0 -96 -25 -171 -69 -221c-36 -42 -90 -71 -162 -71c-41 0 -69 7 -103 20v120zM102 513v241h56v-157l2 -1
c12 17 26 31 41 42s34 16 55 16c65 0 94 -50 94 -114c0 -57 -26 -82 -78 -85c-16 -1 -33 -2 -51 -2c-63 0 -118 0 -173 6l-8 57c20 -3 39 -3 62 -3zM297 541c0 32 -18 55 -47 55c-23 0 -40 -13 -53 -26c-15 -16 -28 -38 -38 -59h57c37 0 81 -8 81 30z" />
    <glyph glyph-name="uni0692.fina" unicode="&#x692;" horiz-adv-x="417" 
d="M100 -133c103 0 132 75 132 177c0 80 -18 143 -38 206c-8 25 -17 52 -27 80h106c21 -53 37 -108 48 -169c7 -43 44 -52 96 -52v-120h-12c-37 0 -55 10 -71 30c-1 0 -1 -1 -2 -1c-4 -89 -29 -159 -72 -206c-36 -39 -88 -66 -157 -66c-41 0 -69 7 -103 20v120
c36 -11 62 -19 100 -19zM275 625h79l-116 -176h-67l-119 176h81l72 -106z" />
    <glyph glyph-name="uni0693.fina" unicode="&#x693;" horiz-adv-x="417" 
d="M100 -133c103 0 132 75 132 177c0 80 -18 143 -38 206c-8 25 -17 52 -27 80h106c21 -53 37 -108 48 -169c7 -43 44 -52 96 -52v-120h-12c-37 0 -55 10 -71 30c-1 0 -1 -1 -2 -1c-4 -89 -29 -159 -72 -206c-36 -39 -88 -66 -157 -66c-41 0 -69 7 -103 20v120
c36 -11 62 -19 100 -19zM321 -92c38 0 65 -22 76 -50c4 -10 6 -21 6 -33c0 -38 -23 -63 -50 -75c-10 -4 -21 -6 -32 -6c-39 0 -65 21 -77 49c-4 10 -7 21 -7 32c0 39 23 65 51 77c10 4 21 6 33 6zM282 -175c0 -23 16 -41 39 -41c22 0 38 19 38 41c0 23 -15 43 -38 43
c-24 0 -39 -19 -39 -43z" />
    <glyph glyph-name="uni0694.fina" unicode="&#x694;" horiz-adv-x="417" 
d="M100 -133c103 0 132 75 132 177c0 80 -18 143 -38 206c-8 25 -17 52 -27 80h106c21 -53 37 -108 48 -169c7 -43 44 -52 96 -52v-120h-12c-37 0 -55 10 -71 30c-1 0 -1 -1 -2 -1c-4 -89 -29 -159 -72 -206c-36 -39 -88 -66 -157 -66c-41 0 -69 7 -103 20v120
c36 -11 62 -19 100 -19zM423 -263h-109v99h109v-99z" />
    <glyph glyph-name="uni0695.fina" unicode="&#x695;" horiz-adv-x="417" 
d="M100 -133c103 0 132 75 132 177c0 80 -18 143 -38 206c-8 25 -17 52 -27 80h106c21 -53 37 -108 48 -169c7 -43 44 -52 96 -52v-120h-12c-37 0 -55 10 -71 30c-1 0 -1 -1 -2 -1c-4 -89 -29 -159 -72 -206c-36 -39 -88 -66 -157 -66c-41 0 -69 7 -103 20v120
c36 -11 62 -19 100 -19zM453 -98h79l-116 -176h-67l-119 176h81l72 -106z" />
    <glyph glyph-name="uni0696.fina" unicode="&#x696;" horiz-adv-x="417" 
d="M100 -133c103 0 132 75 132 177c0 80 -18 143 -38 206c-8 25 -17 52 -27 80h106c21 -53 37 -108 48 -169c7 -43 44 -52 96 -52v-120h-12c-37 0 -55 10 -71 30c-1 0 -1 -1 -2 -1c-4 -89 -29 -159 -72 -206c-36 -39 -88 -66 -157 -66c-41 0 -69 7 -103 20v120
c36 -11 62 -19 100 -19zM423 -263h-109v99h109v-99zM255 449h-109v99h109v-99z" />
    <glyph glyph-name="uni0697.fina" unicode="&#x697;" horiz-adv-x="417" 
d="M100 -133c103 0 132 75 132 177c0 80 -18 143 -38 206c-8 25 -17 52 -27 80h106c21 -53 37 -108 48 -169c7 -43 44 -52 96 -52v-120h-12c-37 0 -55 10 -71 30c-1 0 -1 -1 -2 -1c-4 -89 -29 -159 -72 -206c-36 -39 -88 -66 -157 -66c-41 0 -69 7 -103 20v120
c36 -11 62 -19 100 -19zM172 449h-108v99h108v-99zM337 449h-109v99h109v-99z" />
    <glyph glyph-name="afii57508" unicode="&#x698;" horiz-adv-x="417" arabic-form="isolated" 
d="M0 -114c36 -11 62 -19 100 -19c103 0 134 74 134 177c0 80 -18 143 -39 206c-8 25 -18 52 -28 80h106c26 -67 48 -141 57 -223c3 -24 4 -47 4 -69c0 -96 -25 -171 -69 -221c-36 -42 -90 -71 -162 -71c-41 0 -69 7 -103 20v120zM172 449h-109v99h109v-99zM337 449h-109v99
h109v-99zM255 586h-109v99h109v-99z" />
    <glyph glyph-name="uni0699.fina" unicode="&#x699;" horiz-adv-x="417" 
d="M100 -133c103 0 132 75 132 177c0 80 -18 143 -38 206c-8 25 -17 52 -27 80h106c21 -53 37 -108 48 -169c7 -43 44 -52 96 -52v-120h-12c-37 0 -55 10 -71 30c-1 0 -1 -1 -2 -1c-4 -89 -29 -159 -72 -206c-36 -39 -88 -66 -157 -66c-41 0 -69 7 -103 20v120
c36 -11 62 -19 100 -19zM172 449h-109v99h109v-99zM337 449h-109v99h109v-99zM172 586h-109v99h109v-99zM337 586h-109v99h109v-99z" />
    <glyph glyph-name="uni069A.init" unicode="&#x69a;" horiz-adv-x="834" 
d="M67 109c50 0 87 21 87 72v136h96v-104c0 -47 0 -85 33 -98c10 -4 24 -6 41 -6c52 0 80 19 80 72v136h97v-103c0 -49 1 -85 35 -99c11 -4 25 -6 44 -6c52 0 74 18 74 72v228h97v-235c0 -122 -54 -185 -172 -185c-61 0 -104 17 -127 56h-2c-27 -34 -72 -56 -131 -56
c-62 0 -99 17 -122 56h-2c-28 -34 -73 -56 -133 -56h-62c-27 0 -34 30 -34 60c0 29 8 60 34 60h67zM505 434h-109v99h109v-99zM505 -179h-109v99h109v-99z" />
    <glyph glyph-name="uni069A.medi" unicode="&#x69a;" horiz-adv-x="834" 
d="M69 109c49 0 85 21 85 72v136h96v-104c0 -47 0 -85 33 -98c10 -4 24 -6 41 -6c52 0 80 19 80 72v136h97v-103c0 -49 1 -85 35 -99c11 -4 25 -6 44 -6c52 0 74 18 74 72v228h97v-192c0 -50 0 -88 36 -102c11 -4 27 -6 48 -6v-120h-18c-57 0 -89 16 -111 52h-2
c-26 -33 -67 -52 -125 -52c-61 0 -104 17 -127 56h-2c-27 -34 -72 -56 -131 -56c-62 0 -99 17 -122 56h-2c-28 -33 -72 -56 -131 -56h-64c-27 0 -34 30 -34 60c0 29 8 60 34 60h69zM505 434h-109v99h109v-99zM505 -179h-109v99h109v-99z" />
    <glyph glyph-name="uni069A.fina" unicode="&#x69a;" horiz-adv-x="1168" 
d="M182 161c-8 -49 -15 -93 -15 -146c0 -76 17 -122 75 -140c19 -6 42 -9 71 -9c96 0 150 34 168 112c6 26 9 57 9 93c0 80 -11 145 -21 221h97c6 -50 12 -90 16 -136c4 -41 35 -47 81 -47c51 0 75 20 75 72v136h97v-103c0 -49 1 -85 35 -99c11 -4 25 -6 44 -6
c52 0 74 18 74 72v228h97v-192c0 -50 0 -88 36 -102c11 -4 27 -6 48 -6v-120h-18c-56 0 -91 15 -111 52h-2c-26 -33 -67 -52 -125 -52c-61 0 -105 18 -127 59h-3c-22 -33 -62 -59 -116 -59c-37 0 -64 10 -83 29l-3 -1c-10 -173 -88 -271 -270 -271c-128 0 -202 48 -228 148
c-8 32 -13 69 -13 110c0 58 7 107 17 157h95zM839 434h-109v99h109v-99zM839 -179h-109v99h109v-99z" />
    <glyph glyph-name="uni069B.init" unicode="&#x69b;" horiz-adv-x="834" 
d="M67 109c50 0 87 21 87 72v136h96v-104c0 -47 0 -85 33 -98c10 -4 24 -6 41 -6c52 0 80 19 80 72v136h97v-103c0 -49 1 -85 35 -99c11 -4 25 -6 44 -6c52 0 74 18 74 72v228h97v-235c0 -122 -54 -185 -172 -185c-61 0 -104 17 -127 56h-2c-27 -34 -72 -56 -131 -56
c-62 0 -99 17 -122 56h-2c-28 -34 -73 -56 -133 -56h-62c-27 0 -34 30 -34 60c0 29 8 60 34 60h67zM422 -150h-109v99h109v-99zM587 -150h-109v99h109v-99zM504 -287h-109v99h109v-99z" />
    <glyph glyph-name="uni069B.medi" unicode="&#x69b;" horiz-adv-x="834" 
d="M69 109c49 0 85 21 85 72v136h96v-104c0 -47 0 -85 33 -98c10 -4 24 -6 41 -6c52 0 80 19 80 72v136h97v-103c0 -49 1 -85 35 -99c11 -4 25 -6 44 -6c52 0 74 18 74 72v228h97v-192c0 -50 0 -88 36 -102c11 -4 27 -6 48 -6v-120h-18c-57 0 -89 16 -111 52h-2
c-26 -33 -67 -52 -125 -52c-61 0 -104 17 -127 56h-2c-27 -34 -72 -56 -131 -56c-62 0 -99 17 -122 56h-2c-28 -33 -72 -56 -131 -56h-64c-27 0 -34 30 -34 60c0 29 8 60 34 60h69zM422 -150h-109v99h109v-99zM587 -150h-109v99h109v-99zM504 -287h-109v99h109v-99z" />
    <glyph glyph-name="uni069B.fina" unicode="&#x69b;" horiz-adv-x="1168" 
d="M182 161c-8 -49 -15 -93 -15 -146c0 -76 17 -122 75 -140c19 -6 42 -9 71 -9c96 0 150 34 168 112c6 26 9 57 9 93c0 80 -11 145 -21 221h97c6 -50 12 -90 16 -136c4 -41 35 -47 81 -47c51 0 75 20 75 72v136h97v-103c0 -49 1 -85 35 -99c11 -4 25 -6 44 -6
c52 0 74 18 74 72v228h97v-192c0 -50 0 -88 36 -102c11 -4 27 -6 48 -6v-120h-18c-56 0 -91 15 -111 52h-2c-26 -33 -67 -52 -125 -52c-61 0 -105 18 -127 59h-3c-22 -33 -62 -59 -116 -59c-37 0 -64 10 -83 29l-3 -1c-10 -173 -88 -271 -270 -271c-128 0 -202 48 -228 148
c-8 32 -13 69 -13 110c0 58 7 107 17 157h95zM756 -150h-109v99h109v-99zM921 -150h-109v99h109v-99zM838 -287h-109v99h109v-99z" />
    <glyph glyph-name="uni069C.init" unicode="&#x69c;" horiz-adv-x="834" 
d="M67 109c50 0 87 21 87 72v136h96v-104c0 -47 0 -85 33 -98c10 -4 24 -6 41 -6c52 0 80 19 80 72v136h97v-103c0 -49 1 -85 35 -99c11 -4 25 -6 44 -6c52 0 74 18 74 72v228h97v-235c0 -122 -54 -185 -172 -185c-61 0 -104 17 -127 56h-2c-27 -34 -72 -56 -131 -56
c-62 0 -99 17 -122 56h-2c-28 -34 -73 -56 -133 -56h-62c-27 0 -34 30 -34 60c0 29 8 60 34 60h67zM422 -150h-109v99h109v-99zM587 -150h-109v99h109v-99zM504 -287h-109v99h109v-99zM422 434h-109v99h109v-99zM587 434h-109v99h109v-99zM505 571h-109v99h109v-99z" />
    <glyph glyph-name="uni069C.medi" unicode="&#x69c;" horiz-adv-x="834" 
d="M69 109c49 0 85 21 85 72v136h96v-104c0 -47 0 -85 33 -98c10 -4 24 -6 41 -6c52 0 80 19 80 72v136h97v-103c0 -49 1 -85 35 -99c11 -4 25 -6 44 -6c52 0 74 18 74 72v228h97v-192c0 -50 0 -88 36 -102c11 -4 27 -6 48 -6v-120h-18c-57 0 -89 16 -111 52h-2
c-26 -33 -67 -52 -125 -52c-61 0 -104 17 -127 56h-2c-27 -34 -72 -56 -131 -56c-62 0 -99 17 -122 56h-2c-28 -33 -72 -56 -131 -56h-64c-27 0 -34 30 -34 60c0 29 8 60 34 60h69zM422 -150h-109v99h109v-99zM587 -150h-109v99h109v-99zM504 -287h-109v99h109v-99zM422 434
h-109v99h109v-99zM587 434h-109v99h109v-99zM505 571h-109v99h109v-99z" />
    <glyph glyph-name="uni069C.fina" unicode="&#x69c;" horiz-adv-x="1168" 
d="M182 161c-8 -49 -15 -93 -15 -146c0 -76 17 -122 75 -140c19 -6 42 -9 71 -9c96 0 150 34 168 112c6 26 9 57 9 93c0 80 -11 145 -21 221h97c6 -50 12 -90 16 -136c4 -41 35 -47 81 -47c51 0 75 20 75 72v136h97v-103c0 -49 1 -85 35 -99c11 -4 25 -6 44 -6
c52 0 74 18 74 72v228h97v-192c0 -50 0 -88 36 -102c11 -4 27 -6 48 -6v-120h-18c-56 0 -91 15 -111 52h-2c-26 -33 -67 -52 -125 -52c-61 0 -105 18 -127 59h-3c-22 -33 -62 -59 -116 -59c-37 0 -64 10 -83 29l-3 -1c-10 -173 -88 -271 -270 -271c-128 0 -202 48 -228 148
c-8 32 -13 69 -13 110c0 58 7 107 17 157h95zM756 -150h-109v99h109v-99zM921 -150h-109v99h109v-99zM838 -287h-109v99h109v-99zM751 434h-109v99h109v-99zM916 434h-109v99h109v-99zM834 571h-109v99h109v-99z" />
    <glyph glyph-name="uni069D.init" unicode="&#x69d;" horiz-adv-x="1001" 
d="M-34 49c0 29 8 60 34 60h73c31 0 57 10 69 29c4 6 6 13 6 21c0 14 -2 31 -5 52s-8 48 -15 81h100c8 -48 15 -91 21 -136c5 -30 24 -43 58 -46c31 83 78 159 134 220c40 44 90 81 151 103c29 10 60 16 93 16c120 0 191 -63 219 -156c10 -32 14 -66 14 -103
c0 -91 -30 -148 -91 -176c-57 -26 -134 -29 -217 -29c-97 0 -175 0 -256 3c-29 1 -52 2 -69 4c-48 6 -69 22 -87 56h-2c-25 -36 -69 -59 -127 -59h-69c-27 0 -34 30 -34 60zM821 185c0 94 -53 143 -146 143c-74 0 -129 -32 -170 -69c-43 -39 -78 -95 -102 -152
c48 -3 110 -2 163 -2h56c40 0 72 1 98 2c42 2 78 8 92 34c6 11 9 25 9 44zM537 -179h-108v99h108v-99zM702 -179h-109v99h109v-99z" />
    <glyph glyph-name="uni069D.medi" unicode="&#x69d;" horiz-adv-x="1001" 
d="M-34 49c0 29 8 60 34 60h73c31 0 57 10 69 29c4 6 6 13 6 21c0 14 -2 31 -5 52s-8 48 -15 81h100c8 -48 15 -91 21 -136c5 -30 24 -43 58 -46c31 83 78 159 134 220c40 44 90 81 151 103c29 10 60 16 93 16c118 0 188 -61 217 -151c10 -31 15 -63 16 -99
c1 -44 6 -73 39 -84c11 -4 26 -6 45 -6v-120h-18c-59 0 -96 19 -113 61h-3c-49 -61 -148 -65 -258 -65c-97 0 -175 -1 -256 2c-29 1 -52 3 -69 5c-47 6 -69 22 -87 56h-2c-25 -35 -69 -59 -127 -59h-69c-27 0 -34 30 -34 60zM821 185c0 94 -53 143 -146 143
c-74 0 -129 -32 -170 -69c-43 -39 -78 -95 -102 -152c48 -3 110 -2 163 -2h56c40 0 72 1 98 2c42 2 78 8 92 34c6 11 9 25 9 44zM537 -179h-108v99h108v-99zM702 -179h-109v99h109v-99z" />
    <glyph glyph-name="uni069D.fina" unicode="&#x69d;" horiz-adv-x="1335" 
d="M182 161c-7 -50 -15 -93 -15 -147c0 -75 19 -121 76 -139c19 -6 43 -9 72 -9c97 0 149 33 166 113c6 26 8 59 8 96c0 81 -13 147 -28 217h101c8 -46 13 -89 20 -131c5 -35 21 -46 58 -51c31 83 78 159 134 220c40 44 91 81 152 103c29 10 60 16 93 16
c119 0 187 -61 217 -151c10 -31 15 -63 16 -99c1 -43 6 -73 39 -84c11 -4 26 -6 45 -6v-120h-18c-59 0 -96 19 -113 61h-3c-49 -61 -149 -65 -259 -65c-90 0 -158 -1 -232 2c-49 2 -83 4 -110 24c-6 5 -12 9 -17 15c-1 0 -1 -1 -1 -1h-1c-8 -178 -87 -279 -272 -279
c-127 0 -202 47 -228 147c-8 32 -12 69 -12 111c0 58 7 107 17 157h95zM1155 185c0 94 -53 143 -146 143c-74 0 -129 -32 -170 -69c-43 -39 -79 -95 -103 -152c49 -3 111 -2 164 -2h56c40 0 72 1 98 2c42 2 78 8 92 34c6 11 9 25 9 44zM876 -179h-108v99h108v-99zM1041 -179
h-109v99h109v-99z" />
    <glyph glyph-name="uni069E.init" unicode="&#x69e;" horiz-adv-x="1001" 
d="M-34 49c0 29 8 60 34 60h73c31 0 57 10 69 29c4 6 6 13 6 21c0 14 -2 31 -5 52s-8 48 -15 81h100c8 -48 15 -91 21 -136c5 -30 24 -43 58 -46c31 83 78 159 134 220c40 44 90 81 151 103c29 10 60 16 93 16c120 0 191 -63 219 -156c10 -32 14 -66 14 -103
c0 -91 -30 -148 -91 -176c-57 -26 -134 -29 -217 -29c-97 0 -175 0 -256 3c-29 1 -52 2 -69 4c-48 6 -69 22 -87 56h-2c-25 -36 -69 -59 -127 -59h-69c-27 0 -34 30 -34 60zM821 185c0 94 -53 143 -146 143c-74 0 -129 -32 -170 -69c-43 -39 -78 -95 -102 -152
c48 -3 110 -2 163 -2h56c40 0 72 1 98 2c42 2 78 8 92 34c6 11 9 25 9 44zM482 532h-109v99h109v-99zM647 532h-109v99h109v-99zM565 669h-109v99h109v-99z" />
    <glyph glyph-name="uni069E.medi" unicode="&#x69e;" horiz-adv-x="1001" 
d="M-34 49c0 29 8 60 34 60h73c31 0 57 10 69 29c4 6 6 13 6 21c0 14 -2 31 -5 52s-8 48 -15 81h100c8 -48 15 -91 21 -136c5 -30 24 -43 58 -46c31 83 78 159 134 220c40 44 90 81 151 103c29 10 60 16 93 16c118 0 188 -61 217 -151c10 -31 15 -63 16 -99
c1 -44 6 -73 39 -84c11 -4 26 -6 45 -6v-120h-18c-59 0 -96 19 -113 61h-3c-49 -61 -148 -65 -258 -65c-97 0 -175 -1 -256 2c-29 1 -52 3 -69 5c-47 6 -69 22 -87 56h-2c-25 -35 -69 -59 -127 -59h-69c-27 0 -34 30 -34 60zM821 185c0 94 -53 143 -146 143
c-74 0 -129 -32 -170 -69c-43 -39 -78 -95 -102 -152c48 -3 110 -2 163 -2h56c40 0 72 1 98 2c42 2 78 8 92 34c6 11 9 25 9 44zM482 532h-109v99h109v-99zM647 532h-109v99h109v-99zM565 669h-109v99h109v-99z" />
    <glyph glyph-name="uni069E.fina" unicode="&#x69e;" horiz-adv-x="1335" 
d="M182 161c-7 -50 -15 -93 -15 -147c0 -75 19 -121 76 -139c19 -6 43 -9 72 -9c97 0 149 33 166 113c6 26 8 59 8 96c0 81 -13 147 -28 217h101c8 -46 13 -89 20 -131c5 -35 21 -46 58 -51c31 83 78 159 134 220c40 44 91 81 152 103c29 10 60 16 93 16
c119 0 187 -61 217 -151c10 -31 15 -63 16 -99c1 -43 6 -73 39 -84c11 -4 26 -6 45 -6v-120h-18c-59 0 -96 19 -113 61h-3c-49 -61 -149 -65 -259 -65c-90 0 -158 -1 -232 2c-49 2 -83 4 -110 24c-6 5 -12 9 -17 15c-1 0 -1 -1 -1 -1h-1c-8 -178 -87 -279 -272 -279
c-127 0 -202 47 -228 147c-8 32 -12 69 -12 111c0 58 7 107 17 157h95zM1155 185c0 94 -53 143 -146 143c-74 0 -129 -32 -170 -69c-43 -39 -79 -95 -103 -152c49 -3 111 -2 164 -2h56c40 0 72 1 98 2c42 2 78 8 92 34c6 11 9 25 9 44zM816 532h-109v99h109v-99zM981 532
h-109v99h109v-99zM899 669h-109v99h109v-99z" />
    <glyph glyph-name="uni069F.init" unicode="&#x69f;" horiz-adv-x="834" 
d="M-34 49c0 29 8 60 34 60h147c1 4 3 9 6 15v616h97v-441l2 -1c45 62 105 116 186 142c25 8 52 12 80 12c121 0 191 -63 219 -157c10 -32 14 -67 14 -105c0 -91 -30 -148 -91 -176c-57 -26 -134 -29 -217 -29c-138 0 -283 4 -422 4h-21c-27 0 -34 30 -34 60zM236 107
c48 -3 111 -2 163 -2h56c40 0 72 1 98 2c42 2 79 8 93 34c6 11 8 25 8 44c0 95 -51 147 -146 147c-74 0 -128 -33 -169 -71c-43 -40 -79 -96 -103 -154zM459 537h-109v99h109v-99zM624 537h-109v99h109v-99zM542 674h-109v99h109v-99z" />
    <glyph glyph-name="uni069F.medi" unicode="&#x69f;" horiz-adv-x="834" 
d="M146 109c2 7 4 11 7 17v614h97v-441l2 -1c45 62 105 116 186 142c25 8 52 12 80 12c119 0 188 -62 217 -152c10 -31 15 -65 16 -101c1 -43 6 -73 39 -84c11 -4 26 -6 45 -6v-120h-12c-60 0 -97 18 -117 59h-3c-51 -58 -151 -63 -260 -63c-137 0 -282 4 -420 4h-23
c-27 0 -34 30 -34 60c0 29 8 60 34 60h146zM236 107c48 -3 111 -2 163 -2h56c40 0 72 1 98 2c42 2 79 8 93 34c6 11 8 25 8 44c0 95 -51 147 -146 147c-74 0 -128 -33 -169 -71c-43 -40 -79 -96 -103 -154zM459 537h-109v99h109v-99zM624 537h-109v99h109v-99zM542 674h-109
v99h109v-99z" />
    <glyph glyph-name="uni069F.fina" unicode="&#x69f;" horiz-adv-x="834" 
d="M147 109c2 5 4 8 6 13v618h97v-441l2 -1c45 62 105 116 186 142c25 8 52 12 80 12c119 0 188 -62 217 -152c10 -31 15 -65 16 -101c1 -44 6 -73 39 -84c11 -4 26 -6 45 -6v-120h-14c-60 0 -95 17 -115 59h-3c-51 -59 -150 -63 -260 -63c-155 0 -285 1 -419 15l-23 121
c44 -8 96 -11 146 -12zM236 107c48 -3 111 -2 163 -2h56c40 0 72 1 98 2c42 2 79 8 93 34c6 11 8 25 8 44c0 95 -51 147 -146 147c-74 0 -128 -33 -169 -71c-43 -40 -79 -96 -103 -154zM459 537h-109v99h109v-99zM624 537h-109v99h109v-99zM542 674h-109v99h109v-99z" />
    <glyph glyph-name="uni06A0.init" unicode="&#x6a0;" horiz-adv-x="584" 
d="M530 78c-122 -53 -243 -89 -413 -89h-117c-27 0 -34 30 -34 60c0 29 8 60 34 60h141l1 3c-26 24 -46 48 -60 79c-9 22 -14 44 -14 72c0 68 32 116 73 148c45 35 110 57 189 57c32 0 57 -3 87 -9v-121c-33 5 -62 10 -98 10c-80 0 -154 -11 -154 -91c0 -22 9 -39 20 -56
c21 -32 52 -56 90 -79c95 18 175 49 255 85v-129zM236 556h-109v99h109v-99zM401 556h-109v99h109v-99zM319 693h-109v99h109v-99z" />
    <glyph glyph-name="uni06A0.medi" unicode="&#x6a0;" horiz-adv-x="584" 
d="M229 135c-61 53 -107 108 -153 177v115c55 10 117 19 178 25c21 2 42 3 62 3c73 0 135 -16 167 -58c12 -16 18 -36 18 -62c0 -34 -10 -65 -21 -93c-15 -37 -36 -74 -61 -103c48 -20 98 -30 165 -30v-120h-32c-96 0 -170 27 -227 70h-3c-67 -44 -151 -70 -262 -70h-60
c-27 0 -34 30 -34 60c0 29 8 60 34 60h64c66 0 118 9 165 26zM184 330c40 -56 84 -102 141 -141h2c30 24 58 58 72 96c3 9 5 17 5 23c0 35 -50 38 -92 38s-91 -5 -128 -12v-4zM264 556h-109v99h109v-99zM429 556h-109v99h109v-99zM347 693h-109v99h109v-99z" />
    <glyph glyph-name="uni06A0.fina" unicode="&#x6a0;" horiz-adv-x="584" 
d="M366 171c56 -38 125 -62 214 -62h4v-120h-25c-99 0 -174 34 -236 75c-24 15 -46 33 -67 52c-44 -20 -80 -41 -105 -72c-16 -19 -26 -39 -26 -68c0 -41 20 -69 47 -87c36 -24 90 -35 154 -35c77 0 137 15 196 36v-115c-60 -20 -119 -34 -197 -34c-135 0 -237 39 -277 132
c-12 28 -19 60 -19 95c0 83 34 135 80 176c19 17 43 34 71 50c-38 45 -74 98 -104 152v114c73 12 153 29 238 29c82 0 152 -16 177 -74c5 -13 8 -28 8 -45c0 -36 -11 -66 -26 -94c-24 -43 -61 -78 -107 -105zM184 364c29 -46 60 -86 96 -124c39 19 72 37 97 62
c9 9 15 17 19 24s5 14 5 19c0 32 -50 35 -90 35c-42 0 -90 -5 -127 -12v-4zM264 588h-109v99h109v-99zM429 588h-109v99h109v-99zM347 725h-109v99h109v-99z" />
    <glyph glyph-name="uni06A1.init" unicode="&#x6a1;" horiz-adv-x="500" 
d="M299 135c12 13 20 30 20 54c0 45 -14 83 -32 113c-11 18 -31 44 -56 44c-21 0 -36 -17 -45 -31s-19 -36 -19 -58s9 -36 23 -51c27 -30 63 -49 109 -71zM157 110c-51 31 -86 72 -86 145c0 59 23 108 49 144c19 26 43 48 73 61c14 6 29 9 44 9c39 0 69 -20 91 -42
c41 -41 70 -100 83 -168c4 -22 6 -45 6 -67c0 -177 -151 -203 -328 -203h-89c-27 0 -34 30 -34 60c0 29 8 60 34 60h63c7 0 14 -1 23 -1c13 0 13 -1 26 -1c14 -1 30 -1 43 -1z" />
    <glyph glyph-name="uni06A1.medi" unicode="&#x6a1;" horiz-adv-x="500" 
d="M299 134c12 10 20 32 20 54c1 10 -1 19 -2 29c-7 45 -28 91 -56 116c-9 8 -19 13 -29 13c-21 0 -37 -17 -46 -31c-10 -14 -19 -36 -19 -58s9 -36 23 -51c9 -10 23 -21 40 -33s40 -25 69 -39zM157 110c-51 31 -86 73 -86 145c0 59 23 109 49 144c19 26 43 48 73 61
c14 6 29 9 44 9c39 0 69 -20 91 -42c41 -40 70 -101 83 -168c4 -22 6 -45 6 -67c0 -32 -5 -57 -15 -79c31 -4 64 -4 99 -4v-120h-16c-67 0 -132 10 -182 29c-60 -24 -138 -29 -221 -29h-82c-27 0 -34 30 -34 60c0 29 8 60 34 60h63c7 0 14 -1 23 -1c13 0 14 -1 27 -1
c14 -1 30 -1 43 -1z" />
    <glyph glyph-name="uni06A1.fina" unicode="&#x6a1;" horiz-adv-x="1001" 
d="M732 346c-21 0 -36 -17 -45 -31c-10 -14 -19 -36 -19 -58s9 -36 23 -51c27 -30 63 -49 109 -71c15 12 23 39 20 67c-5 53 -27 103 -58 131c-9 8 -20 13 -30 13zM183 317c-8 -34 -16 -65 -16 -105c0 -33 7 -56 25 -72c21 -20 53 -27 93 -31c58 -6 121 -5 192 -5h92
c32 0 60 0 90 2l1 4c-50 31 -88 73 -88 145c0 59 23 108 49 144c19 26 43 48 73 61c14 6 29 9 44 9c39 0 69 -20 91 -42c41 -40 70 -100 83 -168c4 -22 6 -45 6 -67c0 -32 -5 -57 -15 -79c31 -4 64 -4 99 -4v-120h-16c-67 0 -132 10 -182 29c-70 -30 -172 -33 -272 -33h-56
c-106 0 -208 -3 -288 21c-78 23 -120 85 -120 185c0 47 7 87 17 126h98z" />
    <glyph glyph-name="uni06A2.init" unicode="&#x6a2;" horiz-adv-x="500" 
d="M299 135c12 13 20 30 20 54c0 45 -14 83 -32 113c-11 18 -31 44 -56 44c-21 0 -36 -17 -45 -31s-19 -36 -19 -58s9 -36 23 -51c27 -30 63 -49 109 -71zM157 110c-51 31 -86 72 -86 145c0 59 23 108 49 144c19 26 43 48 73 61c14 6 29 9 44 9c39 0 69 -20 91 -42
c41 -41 70 -100 83 -168c4 -22 6 -45 6 -67c0 -177 -151 -203 -328 -203h-89c-27 0 -34 30 -34 60c0 29 8 60 34 60h63c7 0 14 -1 23 -1c13 0 13 -1 26 -1c14 -1 30 -1 43 -1zM312 -179h-109v99h109v-99z" />
    <glyph glyph-name="uni06A2.medi" unicode="&#x6a2;" horiz-adv-x="500" 
d="M299 134c12 10 20 32 20 54c1 10 -1 19 -2 29c-7 45 -28 91 -56 116c-9 8 -19 13 -29 13c-21 0 -37 -17 -46 -31c-10 -14 -19 -36 -19 -58s9 -36 23 -51c9 -10 23 -21 40 -33s40 -25 69 -39zM157 110c-51 31 -86 73 -86 145c0 59 23 109 49 144c19 26 43 48 73 61
c14 6 29 9 44 9c39 0 69 -20 91 -42c41 -40 70 -101 83 -168c4 -22 6 -45 6 -67c0 -32 -5 -57 -15 -79c31 -4 64 -4 99 -4v-120h-16c-67 0 -132 10 -182 29c-60 -24 -138 -29 -221 -29h-82c-27 0 -34 30 -34 60c0 29 8 60 34 60h63c7 0 14 -1 23 -1c13 0 14 -1 27 -1
c14 -1 30 -1 43 -1zM312 -179h-109v99h109v-99z" />
    <glyph glyph-name="uni06A2.fina" unicode="&#x6a2;" horiz-adv-x="1001" 
d="M732 346c-21 0 -36 -17 -45 -31c-10 -14 -19 -36 -19 -58s9 -36 23 -51c27 -30 63 -49 109 -71c15 12 23 39 20 67c-5 53 -27 103 -58 131c-9 8 -20 13 -30 13zM183 317c-8 -34 -16 -65 -16 -105c0 -33 7 -56 25 -72c21 -20 53 -27 93 -31c58 -6 121 -5 192 -5h92
c32 0 60 0 90 2l1 4c-50 31 -88 73 -88 145c0 59 23 108 49 144c19 26 43 48 73 61c14 6 29 9 44 9c39 0 69 -20 91 -42c41 -40 70 -100 83 -168c4 -22 6 -45 6 -67c0 -32 -5 -57 -15 -79c31 -4 64 -4 99 -4v-120h-16c-67 0 -132 10 -182 29c-70 -30 -172 -33 -272 -33h-56
c-106 0 -208 -3 -288 21c-78 23 -120 85 -120 185c0 47 7 87 17 126h98zM813 -179h-109v99h109v-99z" />
    <glyph glyph-name="uni06A3.init" unicode="&#x6a3;" horiz-adv-x="500" 
d="M299 135c12 13 20 30 20 54c0 45 -14 83 -32 113c-11 18 -31 44 -56 44c-21 0 -36 -17 -45 -31s-19 -36 -19 -58s9 -36 23 -51c27 -30 63 -49 109 -71zM157 110c-51 31 -86 72 -86 145c0 59 23 108 49 144c19 26 43 48 73 61c14 6 29 9 44 9c39 0 69 -20 91 -42
c41 -41 70 -100 83 -168c4 -22 6 -45 6 -67c0 -177 -151 -203 -328 -203h-89c-27 0 -34 30 -34 60c0 29 8 60 34 60h63c7 0 14 -1 23 -1c13 0 13 -1 26 -1c14 -1 30 -1 43 -1zM312 -179h-109v99h109v-99zM279 588h-109v99h109v-99z" />
    <glyph glyph-name="uni06A3.medi" unicode="&#x6a3;" horiz-adv-x="500" 
d="M299 134c12 10 20 32 20 54c1 10 -1 19 -2 29c-7 45 -28 91 -56 116c-9 8 -19 13 -29 13c-21 0 -37 -17 -46 -31c-10 -14 -19 -36 -19 -58s9 -36 23 -51c9 -10 23 -21 40 -33s40 -25 69 -39zM157 110c-51 31 -86 73 -86 145c0 59 23 109 49 144c19 26 43 48 73 61
c14 6 29 9 44 9c39 0 69 -20 91 -42c41 -40 70 -101 83 -168c4 -22 6 -45 6 -67c0 -32 -5 -57 -15 -79c31 -4 64 -4 99 -4v-120h-16c-67 0 -132 10 -182 29c-60 -24 -138 -29 -221 -29h-82c-27 0 -34 30 -34 60c0 29 8 60 34 60h63c7 0 14 -1 23 -1c13 0 14 -1 27 -1
c14 -1 30 -1 43 -1zM312 -179h-109v99h109v-99zM279 588h-109v99h109v-99z" />
    <glyph glyph-name="uni06A3.fina" unicode="&#x6a3;" horiz-adv-x="1001" 
d="M732 346c-21 0 -36 -17 -45 -31c-10 -14 -19 -36 -19 -58s9 -36 23 -51c27 -30 63 -49 109 -71c15 12 23 39 20 67c-5 53 -27 103 -58 131c-9 8 -20 13 -30 13zM183 317c-8 -34 -16 -65 -16 -105c0 -33 7 -56 25 -72c21 -20 53 -27 93 -31c58 -6 121 -5 192 -5h92
c32 0 60 0 90 2l1 4c-50 31 -88 73 -88 145c0 59 23 108 49 144c19 26 43 48 73 61c14 6 29 9 44 9c39 0 69 -20 91 -42c41 -40 70 -100 83 -168c4 -22 6 -45 6 -67c0 -32 -5 -57 -15 -79c31 -4 64 -4 99 -4v-120h-16c-67 0 -132 10 -182 29c-70 -30 -172 -33 -272 -33h-56
c-106 0 -208 -3 -288 21c-78 23 -120 85 -120 185c0 47 7 87 17 126h98zM542 -179h-109v99h109v-99zM779 588h-109v99h109v-99z" />
    <glyph glyph-name="afii57505" unicode="&#x6a4;" horiz-adv-x="1001" arabic-form="isolated" 
d="M183 317c-8 -34 -16 -65 -16 -105c0 -60 27 -85 77 -96s111 -12 179 -12h143c32 0 60 0 90 2l2 4c-50 31 -89 73 -89 145c0 60 24 108 50 144c19 26 45 48 75 61c14 6 29 9 44 9c40 0 69 -20 91 -42c41 -41 70 -100 83 -168c4 -22 6 -45 6 -67
c0 -197 -188 -207 -386 -207h-56c-106 0 -208 -3 -288 21c-78 23 -120 84 -120 185c0 47 7 87 17 126h98zM732 346c-21 0 -36 -17 -46 -31s-20 -36 -20 -58s10 -36 24 -51c28 -29 64 -49 110 -71c15 12 23 40 20 67c-5 53 -27 103 -58 131c-9 8 -20 13 -30 13zM696 588h-109
v99h109v-99zM861 588h-109v99h109v-99zM779 725h-109v99h109v-99z" />
    <glyph glyph-name="uni06A5.init" unicode="&#x6a5;" horiz-adv-x="500" 
d="M299 135c12 13 20 30 20 54c0 45 -14 83 -32 113c-11 18 -31 44 -56 44c-21 0 -36 -17 -45 -31s-19 -36 -19 -58s9 -36 23 -51c27 -30 63 -49 109 -71zM157 110c-51 31 -86 72 -86 145c0 59 23 108 49 144c19 26 43 48 73 61c14 6 29 9 44 9c39 0 69 -20 91 -42
c41 -41 70 -100 83 -168c4 -22 6 -45 6 -67c0 -177 -151 -203 -328 -203h-89c-27 0 -34 30 -34 60c0 29 8 60 34 60h63c7 0 14 -1 23 -1c13 0 13 -1 26 -1c14 -1 30 -1 43 -1zM229 -150h-109v99h109v-99zM394 -150h-109v99h109v-99zM311 -287h-109v99h109v-99z" />
    <glyph glyph-name="uni06A5.medi" unicode="&#x6a5;" horiz-adv-x="500" 
d="M299 134c12 10 20 32 20 54c1 10 -1 19 -2 29c-7 45 -28 91 -56 116c-9 8 -19 13 -29 13c-21 0 -37 -17 -46 -31c-10 -14 -19 -36 -19 -58s9 -36 23 -51c9 -10 23 -21 40 -33s40 -25 69 -39zM157 110c-51 31 -86 73 -86 145c0 59 23 109 49 144c19 26 43 48 73 61
c14 6 29 9 44 9c39 0 69 -20 91 -42c41 -40 70 -101 83 -168c4 -22 6 -45 6 -67c0 -32 -5 -57 -15 -79c31 -4 64 -4 99 -4v-120h-16c-67 0 -132 10 -182 29c-60 -24 -138 -29 -221 -29h-82c-27 0 -34 30 -34 60c0 29 8 60 34 60h63c7 0 14 -1 23 -1c13 0 14 -1 27 -1
c14 -1 30 -1 43 -1zM229 -150h-109v99h109v-99zM394 -150h-109v99h109v-99zM311 -287h-109v99h109v-99z" />
    <glyph glyph-name="uni06A5.fina" unicode="&#x6a5;" horiz-adv-x="1001" 
d="M732 346c-21 0 -36 -17 -45 -31c-10 -14 -19 -36 -19 -58s9 -36 23 -51c27 -30 63 -49 109 -71c15 12 23 39 20 67c-5 53 -27 103 -58 131c-9 8 -20 13 -30 13zM183 317c-8 -34 -16 -65 -16 -105c0 -33 7 -56 25 -72c21 -20 53 -27 93 -31c58 -6 121 -5 192 -5h92
c32 0 60 0 90 2l1 4c-50 31 -88 73 -88 145c0 59 23 108 49 144c19 26 43 48 73 61c14 6 29 9 44 9c39 0 69 -20 91 -42c41 -40 70 -100 83 -168c4 -22 6 -45 6 -67c0 -32 -5 -57 -15 -79c31 -4 64 -4 99 -4v-120h-16c-67 0 -132 10 -182 29c-70 -30 -172 -33 -272 -33h-56
c-106 0 -208 -3 -288 21c-78 23 -120 85 -120 185c0 47 7 87 17 126h98zM730 -150h-109v99h109v-99zM895 -150h-109v99h109v-99zM812 -287h-109v99h109v-99z" />
    <glyph glyph-name="uni06A6" unicode="&#x6a6;" horiz-adv-x="1001" arabic-form="isolated" 
d="M183 317c-8 -34 -16 -65 -16 -105c0 -60 27 -85 77 -96s111 -12 179 -12h143c32 0 60 0 90 2l2 4c-50 31 -89 73 -89 145c0 60 24 108 50 144c19 26 45 48 75 61c14 6 29 9 44 9c40 0 69 -20 91 -42c41 -41 70 -100 83 -168c4 -22 6 -45 6 -67
c0 -197 -188 -207 -386 -207h-56c-106 0 -208 -3 -288 21c-78 23 -120 84 -120 185c0 47 7 87 17 126h98zM732 346c-21 0 -36 -17 -46 -31s-20 -36 -20 -58s10 -36 24 -51c28 -29 64 -49 110 -71c15 12 23 40 20 67c-5 53 -27 103 -58 131c-9 8 -20 13 -30 13zM696 588h-109
v99h109v-99zM861 588h-109v99h109v-99zM696 725h-109v99h109v-99zM861 725h-109v99h109v-99z" />
    <glyph glyph-name="uni06A7.init" unicode="&#x6a7;" horiz-adv-x="500" 
d="M299 135c12 13 20 30 20 54c0 45 -14 83 -32 113c-11 18 -31 44 -56 44c-21 0 -36 -17 -45 -31s-19 -36 -19 -58s9 -36 23 -51c27 -30 63 -49 109 -71zM157 110c-51 31 -86 72 -86 145c0 59 23 108 49 144c19 26 43 48 73 61c14 6 29 9 44 9c39 0 69 -20 91 -42
c41 -41 70 -100 83 -168c4 -22 6 -45 6 -67c0 -177 -151 -203 -328 -203h-89c-27 0 -34 30 -34 60c0 29 8 60 34 60h63c7 0 14 -1 23 -1c13 0 13 -1 26 -1c14 -1 30 -1 43 -1zM279 588h-109v99h109v-99z" />
    <glyph glyph-name="uni06A7.medi" unicode="&#x6a7;" horiz-adv-x="500" 
d="M299 134c12 10 20 32 20 54c1 10 -1 19 -2 29c-7 45 -28 91 -56 116c-9 8 -19 13 -29 13c-21 0 -37 -17 -46 -31c-10 -14 -19 -36 -19 -58s9 -36 23 -51c9 -10 23 -21 40 -33s40 -25 69 -39zM157 110c-51 31 -86 73 -86 145c0 59 23 109 49 144c19 26 43 48 73 61
c14 6 29 9 44 9c39 0 69 -20 91 -42c41 -40 70 -101 83 -168c4 -22 6 -45 6 -67c0 -32 -5 -57 -15 -79c31 -4 64 -4 99 -4v-120h-16c-67 0 -132 10 -182 29c-60 -24 -138 -29 -221 -29h-82c-27 0 -34 30 -34 60c0 29 8 60 34 60h63c7 0 14 -1 23 -1c13 0 14 -1 27 -1
c14 -1 30 -1 43 -1zM279 588h-109v99h109v-99z" />
    <glyph glyph-name="uni06A7.fina" unicode="&#x6a7;" horiz-adv-x="751" 
d="M181 151c-7 -44 -14 -85 -14 -133c0 -84 31 -125 99 -143c25 -7 57 -10 96 -10c71 0 125 9 162 37c28 20 41 50 46 89h-49c-119 0 -199 53 -199 168c0 59 23 108 49 144c19 26 43 48 73 61c14 6 29 9 44 9c25 0 48 -7 68 -21c40 -28 76 -88 93 -146c9 -30 15 -62 18 -97
h84v-120h-84c-19 -170 -122 -243 -311 -243c-142 0 -237 40 -272 144c-11 32 -16 70 -16 114c0 54 6 95 15 147h98zM417 167c0 -51 46 -60 102 -60h51c-8 45 -20 82 -42 113c-10 14 -24 30 -44 30c-21 0 -36 -16 -46 -29s-21 -34 -21 -54zM529 494h-109v99h109v-99z" />
    <glyph glyph-name="uni06A8.init" unicode="&#x6a8;" horiz-adv-x="500" 
d="M299 135c12 13 20 30 20 54c0 45 -14 83 -32 113c-11 18 -31 44 -56 44c-21 0 -36 -17 -45 -31s-19 -36 -19 -58s9 -36 23 -51c27 -30 63 -49 109 -71zM157 110c-51 31 -86 72 -86 145c0 59 23 108 49 144c19 26 43 48 73 61c14 6 29 9 44 9c39 0 69 -20 91 -42
c41 -41 70 -100 83 -168c4 -22 6 -45 6 -67c0 -177 -151 -203 -328 -203h-89c-27 0 -34 30 -34 60c0 29 8 60 34 60h63c7 0 14 -1 23 -1c13 0 13 -1 26 -1c14 -1 30 -1 43 -1zM196 588h-109v99h109v-99zM361 588h-109v99h109v-99zM279 725h-109v99h109v-99z" />
    <glyph glyph-name="uni06A8.medi" unicode="&#x6a8;" horiz-adv-x="500" 
d="M299 134c12 10 20 32 20 54c1 10 -1 19 -2 29c-7 45 -28 91 -56 116c-9 8 -19 13 -29 13c-21 0 -37 -17 -46 -31c-10 -14 -19 -36 -19 -58s9 -36 23 -51c9 -10 23 -21 40 -33s40 -25 69 -39zM157 110c-51 31 -86 73 -86 145c0 59 23 109 49 144c19 26 43 48 73 61
c14 6 29 9 44 9c39 0 69 -20 91 -42c41 -40 70 -101 83 -168c4 -22 6 -45 6 -67c0 -32 -5 -57 -15 -79c31 -4 64 -4 99 -4v-120h-16c-67 0 -132 10 -182 29c-60 -24 -138 -29 -221 -29h-82c-27 0 -34 30 -34 60c0 29 8 60 34 60h63c7 0 14 -1 23 -1c13 0 14 -1 27 -1
c14 -1 30 -1 43 -1zM196 588h-109v99h109v-99zM361 588h-109v99h109v-99zM279 725h-109v99h109v-99z" />
    <glyph glyph-name="uni06A8.fina" unicode="&#x6a8;" horiz-adv-x="751" 
d="M181 151c-7 -44 -14 -85 -14 -133c0 -84 31 -125 99 -143c25 -7 57 -10 96 -10c71 0 125 9 162 37c28 20 41 50 46 89h-49c-119 0 -199 53 -199 168c0 59 23 108 49 144c19 26 43 48 73 61c14 6 29 9 44 9c25 0 48 -7 68 -21c40 -28 76 -88 93 -146c9 -30 15 -62 18 -97
h84v-120h-84c-19 -170 -122 -243 -311 -243c-142 0 -237 40 -272 144c-11 32 -16 70 -16 114c0 54 6 95 15 147h98zM417 167c0 -51 46 -60 102 -60h51c-8 45 -20 82 -42 113c-10 14 -24 30 -44 30c-21 0 -36 -16 -46 -29s-21 -34 -21 -54zM446 494h-109v99h109v-99zM611 494
h-109v99h109v-99zM529 631h-109v99h109v-99z" />
    <glyph glyph-name="uni06A9" unicode="&#x6a9;" horiz-adv-x="918" arabic-form="isolated" 
d="M183 317c-8 -34 -16 -65 -16 -105c0 -78 48 -96 120 -103c55 -6 115 -5 182 -5c71 0 139 -1 191 13c31 9 56 19 56 56c0 19 -6 38 -19 57s-31 40 -56 60c-62 50 -140 91 -224 131v100l426 271v-126l-304 -187c75 -37 146 -79 199 -133c41 -42 76 -94 76 -170
c0 -64 -24 -107 -61 -138c-40 -33 -101 -45 -176 -49c-44 -2 -95 -4 -155 -4c-136 0 -268 2 -322 84c-21 31 -32 72 -32 123c0 45 7 89 17 125h98z" />
    <glyph glyph-name="uni06AA.init" unicode="&#x6aa;" horiz-adv-x="1001" 
d="M266 188c-97 0 -183 9 -183 104c0 32 10 63 28 92c42 68 118 113 205 146c50 19 108 34 172 45v-120c-77 -13 -158 -33 -219 -59c-29 -12 -52 -25 -69 -38s-25 -25 -25 -37c0 -13 11 -14 27 -16c39 -5 77 -3 130 -3h437c80 0 137 -39 164 -94c10 -20 15 -43 15 -68
c0 -64 -27 -117 -66 -144c-90 -8 -195 -9 -297 -10c-45 0 -91 -1 -139 -1c-141 0 -290 4 -428 4h-18c-27 0 -34 30 -34 60c0 29 8 60 34 60h23c93 0 197 -4 300 -5h165c104 0 201 0 297 3c24 1 46 2 66 4c0 6 1 11 1 16c0 46 -45 61 -92 61h-494z" />
    <glyph glyph-name="uni06AA.medi" unicode="&#x6aa;" horiz-adv-x="1001" 
d="M266 188c-97 0 -183 9 -183 104c0 32 10 63 28 92c42 68 118 113 205 146c50 19 108 34 172 45v-120c-77 -13 -158 -33 -219 -59c-29 -12 -52 -25 -69 -38s-25 -25 -25 -37c0 -13 11 -14 27 -16c39 -5 77 -3 130 -3h437c80 0 137 -39 164 -94c10 -20 15 -43 15 -68
c0 -10 -2 -20 -3 -29c19 -2 35 -2 57 -2v-120h-12c-39 0 -57 17 -73 42h-2c-9 -14 -21 -26 -33 -35c-90 -8 -195 -9 -297 -10c-45 0 -91 -1 -139 -1c-141 0 -290 4 -428 4h-18c-27 0 -34 30 -34 60c0 29 8 60 34 60h23c93 0 197 -4 300 -5h165c104 0 201 0 297 3
c24 1 46 2 66 4c1 5 1 8 1 13c0 50 -42 64 -92 64h-494z" />
    <glyph glyph-name="uni06AA.fina" unicode="&#x6aa;" horiz-adv-x="1085" 
d="M350 188c-97 0 -183 9 -183 104c0 32 9 63 27 92c42 68 119 113 206 146c50 19 107 34 171 45v-120c-77 -13 -157 -33 -218 -59c-29 -12 -52 -25 -69 -38s-26 -25 -26 -37c0 -13 11 -14 27 -16c39 -5 78 -3 131 -3h437c80 0 137 -39 164 -94c10 -20 14 -43 14 -68
c0 -10 -1 -20 -2 -29c20 -2 34 -2 56 -2v-120h-11c-39 0 -57 17 -73 42h-3c-8 -14 -19 -26 -32 -35c-91 -8 -196 -9 -299 -10c-45 0 -92 -1 -142 -1c-146 0 -300 1 -438 10c-24 1 -43 3 -59 5l-24 119c66 -8 148 -11 229 -13c105 -2 222 -2 334 -2c129 0 250 -2 368 7
c1 4 1 7 1 12c0 46 -46 65 -92 65h-494z" />
    <glyph glyph-name="uni06AB.init" unicode="&#x6ab;" horiz-adv-x="500" 
d="M-34 49c0 29 8 60 34 60h144c50 0 90 0 122 13c21 9 33 22 33 50c0 20 -6 39 -19 58s-32 40 -57 60c-62 50 -140 90 -223 131v100l425 271v-126l-304 -187c75 -37 146 -79 199 -132c42 -42 77 -94 77 -170c0 -110 -66 -159 -159 -179c-27 -6 -59 -9 -96 -9h-142
c-27 0 -34 30 -34 60zM304 622c38 0 65 -22 76 -50c4 -10 6 -21 6 -33c0 -38 -23 -63 -50 -75c-10 -4 -21 -6 -32 -6c-39 0 -65 21 -77 49c-4 10 -7 21 -7 32c0 39 23 65 51 77c10 4 21 6 33 6zM265 539c0 -23 16 -41 39 -41c22 0 38 19 38 41c0 23 -15 43 -38 43
c-24 0 -39 -19 -39 -43z" />
    <glyph glyph-name="uni06AB.medi" unicode="&#x6ab;" horiz-adv-x="500" 
d="M-34 49c0 29 8 60 34 60h144c50 0 90 0 122 13c21 9 33 22 33 50c0 20 -6 39 -19 58s-32 40 -57 60c-62 50 -140 90 -223 131v100l425 271v-126l-304 -187c74 -37 141 -76 193 -127c41 -40 73 -86 82 -151c10 -57 37 -92 105 -92v-120h-11c-64 0 -106 31 -129 74h-3
c-41 -54 -120 -74 -216 -74h-142c-27 0 -34 30 -34 60zM304 622c38 0 65 -22 76 -50c4 -10 6 -21 6 -33c0 -38 -23 -63 -50 -75c-10 -4 -21 -6 -32 -6c-39 0 -65 21 -77 49c-4 10 -7 21 -7 32c0 39 23 65 51 77c10 4 21 6 33 6zM265 539c0 -23 16 -41 39 -41
c22 0 38 19 38 41c0 23 -15 43 -38 43c-24 0 -39 -19 -39 -43z" />
    <glyph glyph-name="uni06AB.fina" unicode="&#x6ab;" horiz-adv-x="918" 
d="M183 317c-7 -34 -16 -65 -16 -105c0 -79 50 -96 124 -103c55 -5 112 -5 178 -5c72 0 139 -1 191 13c31 9 56 19 56 56c0 38 -25 77 -76 117s-125 84 -223 131v100l426 271v-126l-304 -187c74 -36 141 -76 193 -127c41 -40 71 -86 81 -151c9 -57 39 -91 105 -92v-120h-10
c-64 0 -107 31 -130 74h-3c-65 -80 -205 -78 -353 -78c-136 0 -268 2 -322 84c-21 31 -32 72 -32 123c0 45 7 89 17 125h98zM722 622c38 0 65 -22 76 -50c4 -10 6 -21 6 -33c0 -38 -23 -63 -50 -75c-10 -4 -21 -6 -32 -6c-39 0 -65 21 -77 49c-4 10 -7 21 -7 32
c0 39 23 65 51 77c10 4 21 6 33 6zM683 539c0 -23 16 -41 39 -41c22 0 38 19 38 41c0 23 -15 43 -38 43c-24 0 -39 -19 -39 -43z" />
    <glyph glyph-name="uni06AC.init" unicode="&#x6ac;" horiz-adv-x="500" 
d="M-34 49c0 29 8 60 34 60h144c50 0 90 0 122 13c21 9 33 22 33 50c0 20 -6 39 -19 58s-32 40 -57 60c-62 50 -140 90 -223 131v100l425 271v-126l-304 -187c75 -37 146 -79 199 -132c42 -42 77 -94 77 -170c0 -110 -66 -159 -159 -179c-27 -6 -59 -9 -96 -9h-142
c-27 0 -34 30 -34 60zM203 743h-109v99h109v-99z" />
    <glyph glyph-name="uni06AC.medi" unicode="&#x6ac;" horiz-adv-x="500" 
d="M-34 49c0 29 8 60 34 60h144c50 0 90 0 122 13c21 9 33 22 33 50c0 20 -6 39 -19 58s-32 40 -57 60c-62 50 -140 90 -223 131v100l425 271v-126l-304 -187c74 -37 141 -76 193 -127c41 -40 73 -86 82 -151c10 -57 37 -92 105 -92v-120h-11c-64 0 -106 31 -129 74h-3
c-41 -54 -120 -74 -216 -74h-142c-27 0 -34 30 -34 60zM203 743h-109v99h109v-99z" />
    <glyph glyph-name="uni06AC.fina" unicode="&#x6ac;" horiz-adv-x="834" 
d="M422 379c0 3 -2 5 -6 9s-11 9 -23 14c-25 11 -44 25 -44 58c0 31 23 51 45 64c28 16 67 27 107 33v-58c-30 -4 -51 -9 -65 -15s-20 -14 -20 -22c0 -4 1 -7 6 -11s14 -8 28 -14c23 -11 39 -22 39 -54c0 -28 -19 -47 -38 -61c-28 -20 -69 -32 -117 -34v59c59 3 88 14 88 32
zM183 317c-7 -34 -16 -65 -16 -105c0 -97 83 -104 179 -107c27 -1 59 -1 96 -1c41 0 75 1 102 2c45 2 84 8 100 35c7 11 10 27 10 47v552h97v-526c0 -50 0 -85 36 -99c11 -4 27 -6 48 -6v-120h-20c-59 0 -94 19 -113 58h-3c-54 -58 -157 -62 -270 -62c-91 0 -179 1 -247 23
c-75 24 -114 85 -114 183c0 47 7 87 17 126h98zM486 743h-109v99h109v-99z" />
    <glyph glyph-name="uni06AD" unicode="&#x6ad;" horiz-adv-x="834" arabic-form="isolated" 
d="M183 317c-7 -34 -16 -65 -16 -105c0 -97 83 -104 179 -107c27 -1 59 -1 96 -1c41 0 75 1 102 2c45 2 84 8 100 35c7 11 10 27 10 47v552h97v-556c0 -148 -95 -191 -237 -197c-28 -1 -56 -2 -85 -2c-138 0 -275 1 -329 84c-20 31 -32 72 -32 122c0 47 7 87 17 126h98z
M422 379c0 5 -3 8 -9 11c-16 8 -41 21 -53 35c-7 9 -11 20 -11 35c0 31 23 51 45 64c28 16 67 27 107 33v-58c-30 -4 -52 -9 -65 -15s-20 -14 -20 -22c0 -5 3 -10 9 -13s15 -7 25 -12c22 -10 39 -23 39 -54c0 -28 -19 -47 -38 -61c-28 -20 -69 -32 -117 -34v59
c59 3 88 14 88 32zM403 743h-109v99h109v-99zM568 743h-109v99h109v-99zM486 880h-109v99h109v-99z" />
    <glyph glyph-name="uni06AE.init" unicode="&#x6ae;" horiz-adv-x="500" 
d="M-34 49c0 29 8 60 34 60h144c50 0 90 0 122 13c21 9 33 22 33 50c0 20 -6 39 -19 58s-32 40 -57 60c-62 50 -140 90 -223 131v100l425 271v-126l-304 -187c75 -37 146 -79 199 -132c42 -42 77 -94 77 -170c0 -110 -66 -159 -159 -179c-27 -6 -59 -9 -96 -9h-142
c-27 0 -34 30 -34 60zM180 -150h-109v99h109v-99zM345 -150h-109v99h109v-99zM262 -287h-109v99h109v-99z" />
    <glyph glyph-name="uni06AE.medi" unicode="&#x6ae;" horiz-adv-x="500" 
d="M-34 49c0 29 8 60 34 60h144c50 0 90 0 122 13c21 9 33 22 33 50c0 20 -6 39 -19 58s-32 40 -57 60c-62 50 -140 90 -223 131v100l425 271v-126l-304 -187c74 -37 141 -76 193 -127c41 -40 73 -86 82 -151c10 -57 37 -92 105 -92v-120h-11c-64 0 -106 31 -129 74h-3
c-41 -54 -120 -74 -216 -74h-142c-27 0 -34 30 -34 60zM180 -150h-109v99h109v-99zM345 -150h-109v99h109v-99zM262 -287h-109v99h109v-99z" />
    <glyph glyph-name="uni06AE.fina" unicode="&#x6ae;" horiz-adv-x="834" 
d="M422 379c0 3 -2 5 -6 9s-11 9 -23 14c-25 11 -44 25 -44 58c0 31 23 51 45 64c28 16 67 27 107 33v-58c-30 -4 -51 -9 -65 -15s-20 -14 -20 -22c0 -4 1 -7 6 -11s14 -8 28 -14c23 -11 39 -22 39 -54c0 -28 -19 -47 -38 -61c-28 -20 -69 -32 -117 -34v59c59 3 88 14 88 32
zM183 317c-7 -34 -16 -65 -16 -105c0 -97 83 -104 179 -107c27 -1 59 -1 96 -1c41 0 75 1 102 2c45 2 84 8 100 35c7 11 10 27 10 47v552h97v-526c0 -50 0 -85 36 -99c11 -4 27 -6 48 -6v-120h-20c-59 0 -94 19 -113 58h-3c-54 -58 -157 -62 -270 -62c-91 0 -179 1 -247 23
c-75 24 -114 85 -114 183c0 47 7 87 17 126h98zM404 -150h-109v99h109v-99zM569 -150h-109v99h109v-99zM486 -287h-109v99h109v-99z" />
    <glyph glyph-name="afii57509" unicode="&#x6af;" horiz-adv-x="918" arabic-form="isolated" 
d="M183 317c-8 -34 -16 -65 -16 -105c0 -78 48 -96 120 -103c55 -6 115 -5 182 -5c71 0 139 -1 191 13c31 9 56 19 56 56c0 19 -6 38 -19 57s-31 40 -56 60c-62 50 -140 91 -224 131v100l426 271v-126l-304 -187c75 -37 146 -79 199 -133c41 -42 76 -94 76 -170
c0 -64 -24 -107 -61 -138c-40 -33 -101 -45 -176 -49c-44 -2 -95 -4 -155 -4c-136 0 -268 2 -322 84c-21 31 -32 72 -32 123c0 45 7 89 17 125h98zM842 944v-84l-425 -270v83z" />
    <glyph glyph-name="uni06B0.init" unicode="&#x6b0;" horiz-adv-x="500" 
d="M-34 49c0 29 8 60 34 60h144c50 0 90 0 122 13c21 9 33 22 33 50c0 20 -6 39 -19 58s-32 40 -57 60c-62 50 -140 90 -223 131v100l425 271v-126l-304 -187c75 -37 146 -79 199 -132c42 -42 77 -94 77 -170c0 -110 -66 -159 -159 -179c-27 -6 -59 -9 -96 -9h-142
c-27 0 -34 30 -34 60zM304 622c38 0 65 -22 76 -50c4 -10 6 -21 6 -33c0 -38 -23 -63 -50 -75c-10 -4 -21 -6 -32 -6c-39 0 -65 21 -77 49c-4 10 -7 21 -7 32c0 39 23 65 51 77c10 4 21 6 33 6zM265 539c0 -23 16 -41 39 -41c22 0 38 19 38 41c0 23 -15 43 -38 43
c-24 0 -39 -19 -39 -43zM425 944v-84l-425 -270v83z" />
    <glyph glyph-name="uni06B0.medi" unicode="&#x6b0;" horiz-adv-x="500" 
d="M-34 49c0 29 8 60 34 60h144c50 0 90 0 122 13c21 9 33 22 33 50c0 20 -6 39 -19 58s-32 40 -57 60c-62 50 -140 90 -223 131v100l425 271v-126l-304 -187c74 -37 141 -76 193 -127c41 -40 73 -86 82 -151c10 -57 37 -92 105 -92v-120h-11c-64 0 -106 31 -129 74h-3
c-41 -54 -120 -74 -216 -74h-142c-27 0 -34 30 -34 60zM304 622c38 0 65 -22 76 -50c4 -10 6 -21 6 -33c0 -38 -23 -63 -50 -75c-10 -4 -21 -6 -32 -6c-39 0 -65 21 -77 49c-4 10 -7 21 -7 32c0 39 23 65 51 77c10 4 21 6 33 6zM265 539c0 -23 16 -41 39 -41
c22 0 38 19 38 41c0 23 -15 43 -38 43c-24 0 -39 -19 -39 -43zM425 944v-84l-425 -270v83z" />
    <glyph glyph-name="uni06B0.fina" unicode="&#x6b0;" horiz-adv-x="918" 
d="M183 317c-7 -34 -16 -65 -16 -105c0 -79 50 -96 124 -103c55 -5 112 -5 178 -5c72 0 139 -1 191 13c31 9 56 19 56 56c0 38 -25 77 -76 117s-125 84 -223 131v100l426 271v-126l-304 -187c74 -36 141 -76 193 -127c41 -40 71 -86 81 -151c9 -57 39 -91 105 -92v-120h-10
c-64 0 -107 31 -130 74h-3c-65 -80 -205 -78 -353 -78c-136 0 -268 2 -322 84c-21 31 -32 72 -32 123c0 45 7 89 17 125h98zM722 622c38 0 65 -22 76 -50c4 -10 6 -21 6 -33c0 -38 -23 -63 -50 -75c-10 -4 -21 -6 -32 -6c-39 0 -65 21 -77 49c-4 10 -7 21 -7 32
c0 39 23 65 51 77c10 4 21 6 33 6zM683 539c0 -23 16 -41 39 -41c22 0 38 19 38 41c0 23 -15 43 -38 43c-24 0 -39 -19 -39 -43zM842 944v-84l-425 -270v83z" />
    <glyph glyph-name="uni06B1" unicode="&#x6b1;" horiz-adv-x="918" arabic-form="isolated" 
d="M183 317c-8 -34 -16 -65 -16 -105c0 -78 48 -96 120 -103c55 -6 115 -5 182 -5c71 0 139 -1 191 13c31 9 56 19 56 56c0 19 -6 38 -19 57s-31 40 -56 60c-62 50 -140 91 -224 131v100l426 271v-126l-304 -187c75 -37 146 -79 199 -133c41 -42 76 -94 76 -170
c0 -64 -24 -107 -61 -138c-40 -33 -101 -45 -176 -49c-44 -2 -95 -4 -155 -4c-136 0 -268 2 -322 84c-21 31 -32 72 -32 123c0 45 7 89 17 125h98zM842 944v-84l-425 -270v83zM530 886h-108v99h108v-99zM695 886h-109v99h109v-99z" />
    <glyph glyph-name="uni06B2.init" unicode="&#x6b2;" horiz-adv-x="500" 
d="M-34 49c0 29 8 60 34 60h144c50 0 90 0 122 13c21 9 33 22 33 50c0 20 -6 39 -19 58s-32 40 -57 60c-62 50 -140 90 -223 131v100l425 271v-126l-304 -187c75 -37 146 -79 199 -132c42 -42 77 -94 77 -170c0 -110 -66 -159 -159 -179c-27 -6 -59 -9 -96 -9h-142
c-27 0 -34 30 -34 60zM425 944v-84l-425 -270v83zM180 -179h-108v99h108v-99zM345 -179h-109v99h109v-99z" />
    <glyph glyph-name="uni06B2.medi" unicode="&#x6b2;" horiz-adv-x="500" 
d="M-34 49c0 29 8 60 34 60h144c50 0 90 0 122 13c21 9 33 22 33 50c0 20 -6 39 -19 58s-32 40 -57 60c-62 50 -140 90 -223 131v100l425 271v-126l-304 -187c74 -37 141 -76 193 -127c41 -40 73 -86 82 -151c10 -57 37 -92 105 -92v-120h-11c-64 0 -106 31 -129 74h-3
c-41 -54 -120 -74 -216 -74h-142c-27 0 -34 30 -34 60zM425 944v-84l-425 -270v83zM180 -179h-108v99h108v-99zM345 -179h-109v99h109v-99z" />
    <glyph glyph-name="uni06B2.fina" unicode="&#x6b2;" horiz-adv-x="918" 
d="M183 317c-7 -34 -16 -65 -16 -105c0 -79 50 -96 124 -103c55 -5 112 -5 178 -5c72 0 139 -1 191 13c31 9 56 19 56 56c0 38 -25 77 -76 117s-125 84 -223 131v100l426 271v-126l-304 -187c74 -36 141 -76 193 -127c41 -40 71 -86 81 -151c9 -57 39 -91 105 -92v-120h-10
c-64 0 -107 31 -130 74h-3c-65 -80 -205 -78 -353 -78c-136 0 -268 2 -322 84c-21 31 -32 72 -32 123c0 45 7 89 17 125h98zM842 944v-84l-425 -270v83zM431 -179h-108v99h108v-99zM596 -179h-109v99h109v-99z" />
    <glyph glyph-name="uni06B3" unicode="&#x6b3;" horiz-adv-x="918" arabic-form="isolated" 
d="M183 317c-8 -34 -16 -65 -16 -105c0 -78 48 -96 120 -103c55 -6 115 -5 182 -5c71 0 139 -1 191 13c31 9 56 19 56 56c0 19 -6 38 -19 57s-31 40 -56 60c-62 50 -140 91 -224 131v100l426 271v-126l-304 -187c75 -37 146 -79 199 -133c41 -42 76 -94 76 -170
c0 -64 -24 -107 -61 -138c-40 -33 -101 -45 -176 -49c-44 -2 -95 -4 -155 -4c-136 0 -268 2 -322 84c-21 31 -32 72 -32 123c0 45 7 89 17 125h98zM514 -287h-109v99h109v-99zM514 -150h-109v99h109v-99zM842 944v-84l-425 -270v83z" />
    <glyph glyph-name="uni06B4.init" unicode="&#x6b4;" horiz-adv-x="500" 
d="M-34 49c0 29 8 60 34 60h144c50 0 90 0 122 13c21 9 33 22 33 50c0 20 -6 39 -19 58s-32 40 -57 60c-62 50 -140 90 -223 131v100l425 271v-126l-304 -187c75 -37 146 -79 199 -132c42 -42 77 -94 77 -170c0 -110 -66 -159 -159 -179c-27 -6 -59 -9 -96 -9h-142
c-27 0 -34 30 -34 60zM425 944v-84l-425 -270v83zM97 871h-109v99h109v-99zM262 871h-109v99h109v-99zM180 1008h-109v99h109v-99z" />
    <glyph glyph-name="uni06B4.medi" unicode="&#x6b4;" horiz-adv-x="500" 
d="M-34 49c0 29 8 60 34 60h144c50 0 90 0 122 13c21 9 33 22 33 50c0 20 -6 39 -19 58s-32 40 -57 60c-62 50 -140 90 -223 131v100l425 271v-126l-304 -187c74 -37 141 -76 193 -127c41 -40 73 -86 82 -151c10 -57 37 -92 105 -92v-120h-11c-64 0 -106 31 -129 74h-3
c-41 -54 -120 -74 -216 -74h-142c-27 0 -34 30 -34 60zM425 944v-84l-425 -270v83zM97 871h-109v99h109v-99zM262 871h-109v99h109v-99zM180 1008h-109v99h109v-99z" />
    <glyph glyph-name="uni06B4.fina" unicode="&#x6b4;" horiz-adv-x="918" 
d="M183 317c-7 -34 -16 -65 -16 -105c0 -79 50 -96 124 -103c55 -5 112 -5 178 -5c72 0 139 -1 191 13c31 9 56 19 56 56c0 38 -25 77 -76 117s-125 84 -223 131v100l426 271v-126l-304 -187c74 -36 141 -76 193 -127c41 -40 71 -86 81 -151c9 -57 39 -91 105 -92v-120h-10
c-64 0 -107 31 -130 74h-3c-65 -80 -205 -78 -353 -78c-136 0 -268 2 -322 84c-21 31 -32 72 -32 123c0 45 7 89 17 125h98zM842 944v-84l-425 -270v83zM514 871h-109v99h109v-99zM679 871h-109v99h109v-99zM597 1008h-109v99h109v-99z" />
    <glyph glyph-name="uni06B5.init" unicode="&#x6b5;" horiz-adv-x="333" 
d="M-34 49c0 29 8 60 34 60h67c41 0 68 4 80 33c4 10 6 23 6 39v559h97v-563c0 -128 -63 -188 -188 -188h-62c-27 0 -34 30 -34 60zM271 1007h79l-116 -176h-67l-119 176h81l72 -106z" />
    <glyph glyph-name="uni06B5.medi" unicode="&#x6b5;" horiz-adv-x="333" 
d="M-34 49c0 29 8 60 34 60h73c39 0 64 6 75 34c4 9 5 22 5 38v559h97v-526c0 -50 0 -85 36 -99c11 -4 27 -6 48 -6v-120h-20c-58 0 -96 18 -115 57h-3c-26 -35 -69 -57 -128 -57h-68c-27 0 -34 30 -34 60zM271 1007h79l-116 -176h-67l-119 176h81l72 -106z" />
    <glyph glyph-name="uni06B5.fina" unicode="&#x6b5;" horiz-adv-x="667" 
d="M182 240c-8 -47 -15 -89 -15 -140c0 -76 17 -123 74 -141c19 -6 42 -8 71 -8c97 0 149 34 167 113c6 26 8 59 8 96v580h97v-524c0 -50 0 -87 36 -101c11 -4 27 -6 48 -6v-120h-18c-42 0 -64 14 -80 43h-4c-23 -134 -105 -202 -260 -202c-126 0 -198 50 -224 149
c-8 32 -12 69 -12 111c0 57 5 96 16 150h96zM605 1007h79l-116 -176h-67l-119 176h81l72 -106z" />
    <glyph glyph-name="uni06B6.init" unicode="&#x6b6;" horiz-adv-x="333" 
d="M-34 49c0 29 8 60 34 60h67c41 0 68 4 80 33c4 10 6 23 6 39v559h97v-563c0 -128 -63 -188 -188 -188h-62c-27 0 -34 30 -34 60zM257 831h-109v99h109v-99z" />
    <glyph glyph-name="uni06B6.medi" unicode="&#x6b6;" horiz-adv-x="333" 
d="M-34 49c0 29 8 60 34 60h73c39 0 64 6 75 34c4 9 5 22 5 38v559h97v-526c0 -50 0 -85 36 -99c11 -4 27 -6 48 -6v-120h-20c-58 0 -96 18 -115 57h-3c-26 -35 -69 -57 -128 -57h-68c-27 0 -34 30 -34 60zM257 831h-109v99h109v-99z" />
    <glyph glyph-name="uni06B6.fina" unicode="&#x6b6;" horiz-adv-x="667" 
d="M182 240c-8 -47 -15 -89 -15 -140c0 -76 17 -123 74 -141c19 -6 42 -8 71 -8c97 0 149 34 167 113c6 26 8 59 8 96v580h97v-524c0 -50 0 -87 36 -101c11 -4 27 -6 48 -6v-120h-18c-42 0 -64 14 -80 43h-4c-23 -134 -105 -202 -260 -202c-126 0 -198 50 -224 149
c-8 32 -12 69 -12 111c0 57 5 96 16 150h96zM590 831h-109v99h109v-99z" />
    <glyph glyph-name="uni06B7.init" unicode="&#x6b7;" horiz-adv-x="333" 
d="M-34 49c0 29 8 60 34 60h67c41 0 68 4 80 33c4 10 6 23 6 39v559h97v-563c0 -128 -63 -188 -188 -188h-62c-27 0 -34 30 -34 60zM174 831h-109v99h109v-99zM339 831h-109v99h109v-99zM257 968h-109v99h109v-99z" />
    <glyph glyph-name="uni06B7.medi" unicode="&#x6b7;" horiz-adv-x="333" 
d="M-34 49c0 29 8 60 34 60h73c39 0 64 6 75 34c4 9 5 22 5 38v559h97v-526c0 -50 0 -85 36 -99c11 -4 27 -6 48 -6v-120h-20c-58 0 -96 18 -115 57h-3c-26 -35 -69 -57 -128 -57h-68c-27 0 -34 30 -34 60zM174 831h-109v99h109v-99zM339 831h-109v99h109v-99zM257 968h-109
v99h109v-99z" />
    <glyph glyph-name="uni06B7.fina" unicode="&#x6b7;" horiz-adv-x="667" 
d="M182 240c-8 -47 -15 -89 -15 -140c0 -76 17 -123 74 -141c19 -6 42 -8 71 -8c97 0 149 34 167 113c6 26 8 59 8 96v580h97v-524c0 -50 0 -87 36 -101c11 -4 27 -6 48 -6v-120h-18c-42 0 -64 14 -80 43h-4c-23 -134 -105 -202 -260 -202c-126 0 -198 50 -224 149
c-8 32 -12 69 -12 111c0 57 5 96 16 150h96zM507 831h-109v99h109v-99zM672 831h-109v99h109v-99zM590 968h-109v99h109v-99z" />
    <glyph glyph-name="uni06B8.init" unicode="&#x6b8;" horiz-adv-x="333" 
d="M-34 49c0 29 8 60 34 60h67c41 0 68 4 80 33c4 10 6 23 6 39v559h97v-563c0 -128 -63 -188 -188 -188h-62c-27 0 -34 30 -34 60zM133 -150h-109v99h109v-99zM298 -150h-109v99h109v-99zM215 -287h-109v99h109v-99z" />
    <glyph glyph-name="uni06B8.medi" unicode="&#x6b8;" horiz-adv-x="333" 
d="M-34 49c0 29 8 60 34 60h73c39 0 64 6 75 34c4 9 5 22 5 38v559h97v-526c0 -50 0 -85 36 -99c11 -4 27 -6 48 -6v-120h-20c-58 0 -96 18 -115 57h-3c-26 -35 -69 -57 -128 -57h-68c-27 0 -34 30 -34 60zM133 -150h-109v99h109v-99zM298 -150h-109v99h109v-99zM215 -287
h-109v99h109v-99z" />
    <glyph glyph-name="uni06B8.fina" unicode="&#x6b8;" horiz-adv-x="667" 
d="M182 396c-7 -48 -15 -89 -15 -140c0 -76 17 -122 74 -140c19 -6 42 -9 71 -9c96 0 149 33 167 111c6 26 8 57 8 94v428h97v-524c0 -50 0 -87 36 -101c11 -4 27 -6 48 -6v-120h-15c-68 0 -107 31 -129 81h-3c-45 -57 -113 -84 -215 -84c-126 0 -198 50 -224 149
c-8 32 -12 69 -12 111c0 57 5 96 16 150h96zM271 -184h111l-2 -100h-111zM188 -47h110v-100h-110v100zM355 -47h111v-100h-111v100z" />
    <glyph glyph-name="uni06B9.init" unicode="&#x6b9;" horiz-adv-x="333" 
d="M-34 49c0 29 8 60 34 60h73c40 0 65 4 75 33c3 10 5 23 5 39v228h97v-232c0 -72 -17 -121 -55 -152c-31 -25 -74 -36 -127 -36h-68c-26 0 -34 31 -34 60zM254 517h-109v99h109v-99zM244 -179h-109v99h109v-99z" />
    <glyph glyph-name="uni06B9.medi" unicode="&#x6b9;" horiz-adv-x="333" 
d="M-34 49c0 29 8 60 34 60h73c39 0 64 6 75 34c4 9 5 22 5 38v228h97v-195c0 -50 0 -85 36 -99c11 -4 27 -6 48 -6v-120h-18c-59 0 -99 18 -118 57h-3c-26 -36 -69 -57 -129 -57h-66c-27 0 -34 30 -34 60zM254 517h-109v99h109v-99zM244 -179h-109v99h109v-99z" />
    <glyph glyph-name="uni06B9.fina" unicode="&#x6b9;" horiz-adv-x="667" 
d="M565 420c12 -64 19 -120 19 -189v-15c0 -50 0 -88 37 -101c11 -4 27 -6 47 -6v-120h-13c-49 0 -82 18 -102 48l-5 1c-40 -83 -118 -126 -242 -126c-171 0 -240 90 -240 260c0 57 6 100 17 155h96c-8 -49 -15 -93 -15 -146c0 -76 18 -123 76 -140c19 -6 43 -8 72 -8
c97 0 147 33 164 113c6 26 9 58 9 95c0 66 -10 120 -20 179h100zM384 492h-111v100h111v-100zM384 -264h-111v100h111v-100z" />
    <glyph glyph-name="afii57514" unicode="&#x6ba;" horiz-adv-x="667" arabic-form="isolated" 
d="M565 254c12 -64 19 -120 19 -189c0 -203 -76 -319 -279 -319c-126 0 -200 49 -226 148c-8 32 -13 69 -13 111c0 57 6 101 17 156h96c-8 -49 -15 -93 -15 -146c0 -76 17 -122 75 -140c19 -6 43 -9 72 -9c97 0 148 33 165 113c6 26 9 59 9 96c0 65 -10 120 -20 179h100z
" />
    <glyph glyph-name="uni06BB" unicode="&#x6bb;" horiz-adv-x="667" arabic-form="isolated" 
d="M565 254c12 -64 19 -120 19 -189c0 -203 -76 -319 -279 -319c-126 0 -200 49 -226 148c-8 32 -13 69 -13 111c0 57 6 101 17 156h96c-8 -49 -15 -93 -15 -146c0 -76 17 -122 75 -140c19 -6 43 -9 72 -9c97 0 148 33 165 113c6 26 9 59 9 96c0 65 -10 120 -20 179h100z
M230 414v241h56v-157l2 -1c12 17 26 31 41 42s34 16 55 16c65 0 94 -50 94 -114c0 -57 -26 -82 -78 -85c-16 -1 -33 -2 -51 -2c-63 0 -118 0 -173 6l-8 57c20 -3 39 -3 62 -3zM425 442c0 32 -18 55 -47 55c-23 0 -40 -13 -53 -26c-15 -16 -28 -38 -38 -59h57
c37 0 81 -8 81 30z" />
    <glyph glyph-name="uni06BC.init" unicode="&#x6bc;" horiz-adv-x="333" 
d="M-34 49c0 29 8 60 34 60h73c40 0 65 4 75 33c3 10 5 23 5 39v228h97v-232c0 -72 -17 -121 -55 -152c-31 -25 -74 -36 -127 -36h-68c-26 0 -34 31 -34 60zM139 33c38 0 65 -22 76 -50c4 -10 6 -21 6 -33c0 -38 -23 -63 -50 -75c-10 -4 -21 -6 -32 -6c-39 0 -65 21 -77 49
c-4 10 -7 21 -7 32c0 39 23 65 51 77c10 4 21 6 33 6zM100 -50c0 -23 16 -41 39 -41c22 0 38 19 38 41c0 23 -15 43 -38 43c-24 0 -39 -19 -39 -43zM254 517h-109v99h109v-99z" />
    <glyph glyph-name="uni06BC.medi" unicode="&#x6bc;" horiz-adv-x="333" 
d="M-34 49c0 29 8 60 34 60h73c39 0 64 6 75 34c4 9 5 22 5 38v228h97v-195c0 -50 0 -85 36 -99c11 -4 27 -6 48 -6v-120h-18c-59 0 -99 18 -118 57h-3c-26 -36 -69 -57 -129 -57h-66c-27 0 -34 30 -34 60zM254 517h-109v99h109v-99zM134 33c38 0 65 -22 76 -50
c4 -10 6 -21 6 -33c0 -38 -23 -63 -50 -75c-10 -4 -21 -6 -32 -6c-39 0 -65 21 -77 49c-4 10 -7 21 -7 32c0 39 23 65 51 77c10 4 21 6 33 6zM95 -50c0 -23 16 -41 39 -41c22 0 38 19 38 41c0 23 -15 43 -38 43c-24 0 -39 -19 -39 -43z" />
    <glyph glyph-name="uni06BC.fina" unicode="&#x6bc;" horiz-adv-x="667" 
d="M565 420c12 -64 19 -120 19 -189v-15c0 -50 0 -88 37 -101c11 -4 27 -6 47 -6v-120h-13c-49 0 -82 18 -102 48l-5 1c-32 -62 -80 -102 -158 -119c10 -13 16 -29 16 -50c0 -38 -23 -63 -50 -75c-10 -4 -21 -6 -32 -6c-39 0 -65 21 -77 49c-4 10 -6 21 -6 32
c0 18 4 33 12 46c-134 17 -187 106 -187 257c0 57 6 100 17 155h96c-8 -49 -15 -93 -15 -146c0 -76 18 -123 76 -140c19 -6 43 -8 72 -8c97 0 147 33 164 113c6 26 9 58 9 95c0 66 -10 120 -20 179h100zM384 492h-111v100h111v-100zM285 -131c0 -23 16 -41 39 -41
c22 0 38 19 38 41c0 23 -15 43 -38 43s-39 -19 -39 -43z" />
    <glyph glyph-name="uni06BD.init" unicode="&#x6bd;" horiz-adv-x="333" 
d="M-34 49c0 29 8 60 34 60h73c40 0 65 4 75 33c3 10 5 23 5 39v228h97v-232c0 -72 -17 -121 -55 -152c-31 -25 -74 -36 -127 -36h-68c-26 0 -34 31 -34 60zM171 517h-109v99h109v-99zM336 517h-109v99h109v-99zM254 654h-109v99h109v-99z" />
    <glyph glyph-name="uni06BD.medi" unicode="&#x6bd;" horiz-adv-x="333" 
d="M-34 49c0 29 8 60 34 60h73c39 0 64 6 75 34c4 9 5 22 5 38v228h97v-195c0 -50 0 -85 36 -99c11 -4 27 -6 48 -6v-120h-18c-59 0 -99 18 -118 57h-3c-26 -36 -69 -57 -129 -57h-66c-27 0 -34 30 -34 60zM171 517h-109v99h109v-99zM336 517h-109v99h109v-99zM254 654h-109
v99h109v-99z" />
    <glyph glyph-name="uni06BD.fina" unicode="&#x6bd;" horiz-adv-x="667" 
d="M484 75c0 65 -8 120 -19 179h99c6 -36 10 -63 14 -98c6 -39 43 -47 90 -47v-120h-15c-35 0 -53 10 -70 27l-3 -1c-12 -173 -90 -269 -275 -269c-126 0 -200 49 -226 148c-8 32 -13 69 -13 111c0 57 6 101 17 156h96c-8 -49 -15 -93 -15 -146c0 -76 17 -122 75 -140
c19 -6 43 -9 72 -9c97 0 148 33 165 113c6 26 8 59 8 96zM300 350h-109v99h109v-99zM465 350h-109v99h109v-99zM383 487h-109v99h109v-99z" />
    <glyph glyph-name="uni06BE" unicode="&#x6be;" horiz-adv-x="751" arabic-form="isolated" 
d="M246 108c-50 23 -85 65 -85 136c0 66 28 115 62 149c13 14 29 26 46 35l1 3l-24 15v136c119 -65 228 -144 311 -234c36 -39 64 -77 83 -113s28 -69 28 -97c0 -57 -14 -111 -45 -137c-9 -8 -19 -12 -30 -12c-86 0 -163 18 -224 45c-46 -33 -111 -45 -190 -45
c-43 0 -93 4 -127 9l-23 120c57 -7 113 -12 176 -13h40zM355 150c20 32 30 59 30 101c0 35 -17 66 -37 82c-7 6 -14 8 -21 8c-22 0 -39 -19 -49 -33s-23 -36 -23 -57c0 -36 21 -52 45 -70c13 -10 32 -20 55 -31zM440 123c35 -12 78 -20 121 -23c5 9 7 18 7 26
c0 29 -16 53 -30 73c-19 27 -45 53 -70 76l-3 -2c1 -10 3 -19 3 -30c0 -48 -10 -88 -28 -120z" />
    <glyph glyph-name="uni06BF.init" unicode="&#x6bf;" horiz-adv-x="584" 
d="M83 400c43 13 81 20 134 20c68 0 117 -18 161 -42c43 -23 85 -45 145 -52c13 -1 28 -3 44 -4l-22 -131c-16 -4 -33 -10 -52 -22c-73 -44 -147 -97 -234 -132c-66 -27 -144 -48 -237 -48h-22c-27 0 -34 30 -34 60c0 29 8 60 34 60h26c81 0 150 18 209 43
c63 26 119 60 173 95v3c-55 32 -109 55 -197 55c-50 0 -88 -5 -128 -16v111zM264 -150h-109v99h109v-99zM429 -150h-109v99h109v-99zM346 -287h-109v99h109v-99zM347 507h-109v99h109v-99z" />
    <glyph glyph-name="uni06BF.medi" unicode="&#x6bf;" horiz-adv-x="584" 
d="M83 400c43 13 81 20 134 20c92 0 145 -34 206 -65c40 -21 85 -29 144 -33l-22 -131c-31 -7 -59 -26 -86 -43c5 -36 32 -39 74 -39h51v-120h-25c-75 0 -128 20 -149 72c-6 15 -10 30 -13 47c-75 -46 -159 -87 -261 -108c-36 -7 -73 -11 -114 -11h-22c-27 0 -34 30 -34 60
c0 29 8 60 34 60h26c81 0 150 18 209 43c63 26 119 60 173 95v3c-55 32 -109 55 -197 55c-50 0 -88 -5 -128 -16v111zM264 -150h-109v99h109v-99zM429 -150h-109v99h109v-99zM346 -287h-109v99h109v-99zM347 507h-109v99h109v-99z" />
    <glyph glyph-name="uni06BF.fina" unicode="&#x6bf;" horiz-adv-x="667" 
d="M325 23h-88v87h88v-87zM469 23h-89v87h89v-87zM397 -104h-88v87h88v-87zM83 438c39 12 77 20 127 20c68 0 114 -19 160 -41c48 -23 98 -40 169 -41l-22 -125c-71 -19 -130 -38 -177 -59s-84 -43 -111 -64s-46 -43 -57 -65s-16 -45 -16 -67c0 -72 44 -109 101 -128
c25 -8 55 -13 91 -13c76 0 134 17 197 40v-111c-61 -21 -121 -38 -201 -38c-133 0 -227 48 -264 142c-11 29 -18 60 -18 95c0 76 26 132 61 177c53 69 136 113 232 144v5c-30 15 -55 28 -95 32c-12 1 -26 2 -42 2c-49 0 -97 -6 -135 -17v112zM561 204c4 -63 29 -95 95 -95
h12v-120h-16c-115 0 -166 76 -173 190zM363 561h-109v99h109v-99z" />
    <glyph glyph-name="uni06C0" unicode="&#x6c0;" horiz-adv-x="500" arabic-form="isolated" 
d="M188 401c-16 14 -33 26 -51 39l64 81c71 -49 131 -104 174 -173c31 -50 54 -108 54 -181c0 -87 -43 -142 -107 -166c-23 -9 -48 -13 -76 -13c-83 0 -139 35 -162 95c-8 20 -12 42 -12 67c0 88 34 157 74 207c14 17 28 32 42 44zM248 108c50 0 86 15 86 60
c0 25 -6 52 -19 80s-33 58 -61 89c-36 -28 -66 -71 -80 -121c-5 -16 -7 -32 -7 -49c0 -45 36 -59 81 -59zM325 747c-10 3 -24 5 -35 5c-25 0 -45 -10 -45 -35c0 -30 25 -38 57 -38h45v-54h-180v51h40v2c-14 17 -20 34 -20 51c0 53 46 79 100 79c10 0 23 -1 38 -4v-57z" />
    <glyph glyph-name="uni06C1" unicode="&#x6c1;" horiz-adv-x="500" arabic-form="isolated" 
d="M188 401c-16 14 -33 26 -51 39l64 81c71 -49 131 -104 174 -173c31 -50 54 -108 54 -181c0 -87 -43 -142 -107 -166c-23 -9 -48 -13 -76 -13c-83 0 -139 35 -162 95c-8 20 -12 42 -12 67c0 88 34 157 74 207c14 17 28 32 42 44zM248 108c50 0 86 15 86 60
c0 25 -6 52 -19 80s-33 58 -61 89c-36 -28 -66 -71 -80 -121c-5 -16 -7 -32 -7 -49c0 -45 36 -59 81 -59z" />
    <glyph glyph-name="uni06C2.fina" unicode="&#x6c2;" horiz-adv-x="500" 
d="M127 -18c0 -9 0 -17 1 -25h-88c-2 19 -3 35 -3 49c0 83 21 146 59 187c28 31 69 54 122 54c45 0 79 -17 108 -36c44 -29 81 -69 130 -92c14 -7 29 -10 45 -10v-120h-11c-47 0 -83 17 -112 36c-43 28 -76 68 -122 92c-13 7 -27 10 -41 10c-72 0 -88 -69 -88 -145zM272 491
c-10 3 -24 5 -35 5c-25 0 -45 -10 -45 -35c0 -30 25 -38 57 -38h45v-54h-180v51h40v2c-14 17 -20 34 -20 51c0 53 46 79 100 79c10 0 23 -1 38 -4v-57z" />
    <glyph glyph-name="uni06C3.fina" unicode="&#x6c3;" horiz-adv-x="500" 
d="M127 -18c0 -9 0 -17 1 -25h-88c-2 19 -3 35 -3 49c0 83 21 146 59 187c28 31 69 54 122 54c45 0 79 -17 108 -36c44 -29 81 -69 130 -92c14 -7 29 -10 45 -10v-120h-11c-47 0 -83 17 -112 36c-43 28 -76 68 -122 92c-13 7 -27 10 -41 10c-72 0 -88 -69 -88 -145zM180 370
h-108v99h108v-99zM345 370h-109v99h109v-99z" />
    <glyph glyph-name="uni06C4.fina" unicode="&#x6c4;" horiz-adv-x="500" 
d="M0 -96c52 -20 103 -37 171 -37c89 0 135 45 144 124h-47c-119 0 -198 53 -198 168c0 57 22 110 48 145c24 34 63 70 116 70c25 0 48 -8 68 -22c40 -28 76 -88 93 -146c9 -30 15 -62 18 -97h88v-120h-89c-12 -108 -58 -188 -142 -225c-28 -12 -61 -18 -98 -18
c-70 0 -121 17 -172 38v120zM165 167c0 -51 43 -60 100 -60h51c-8 45 -20 83 -42 114c-10 14 -24 30 -44 30c-21 0 -36 -17 -46 -30s-19 -34 -19 -54zM138 -8c38 0 65 -22 76 -50c4 -10 6 -21 6 -33c0 -38 -23 -63 -50 -75c-10 -4 -21 -6 -32 -6c-39 0 -65 21 -77 49
c-4 10 -7 21 -7 32c0 39 23 65 51 77c10 4 21 6 33 6zM99 -91c0 -23 16 -41 39 -41c22 0 38 19 38 41c0 23 -15 43 -38 43c-24 0 -39 -19 -39 -43z" />
    <glyph glyph-name="uni06C5" unicode="&#x6c5;" horiz-adv-x="500" arabic-form="isolated" 
d="M168 -255c-71 0 -124 18 -175 40v113c36 -15 68 -25 96 -30s54 -8 78 -8c65 0 103 17 126 58h-210v56h230c4 17 5 35 6 54c-22 -9 -45 -13 -74 -13c-77 0 -130 32 -157 84c-10 20 -16 45 -16 74c0 56 23 109 48 144c24 34 62 69 115 69c25 0 47 -7 68 -21
c47 -33 84 -100 100 -169c9 -39 14 -83 14 -131c0 -139 -43 -244 -134 -294c-32 -17 -70 -26 -115 -26zM167 180c0 -45 41 -58 86 -58c23 0 46 3 63 11c-3 17 -8 36 -15 54c-10 28 -26 56 -50 70c-7 4 -13 6 -20 6c-21 0 -37 -16 -46 -30c-9 -13 -18 -33 -18 -53z" />
    <glyph glyph-name="uni06C6" unicode="&#x6c6;" horiz-adv-x="500" arabic-form="isolated" 
d="M168 -254c-68 0 -118 17 -168 38v120c35 -14 65 -23 92 -29s52 -8 76 -8c98 0 143 51 151 139c-23 -9 -48 -13 -73 -13c-78 0 -133 36 -159 90c-10 21 -15 46 -15 76c0 60 22 109 48 145c18 26 42 48 72 61c14 6 29 9 44 9c25 0 47 -8 67 -22c47 -33 85 -101 101 -171
c9 -41 13 -85 13 -131c0 -135 -46 -234 -136 -280c-31 -16 -69 -24 -113 -24zM167 165c0 -44 41 -60 86 -60c24 0 47 5 64 13c-7 45 -29 92 -55 119c-9 9 -19 14 -30 14c-21 0 -37 -17 -46 -31s-19 -35 -19 -55zM312 689h79l-116 -176h-67l-119 176h81l72 -106z" />
    <glyph glyph-name="uni06C7" unicode="&#x6c7;" horiz-adv-x="500" arabic-form="isolated" 
d="M168 -254c-68 0 -118 17 -168 38v120c35 -14 65 -23 92 -29s52 -8 76 -8c98 0 143 51 151 139c-23 -9 -48 -13 -73 -13c-78 0 -133 36 -159 90c-10 21 -15 46 -15 76c0 60 22 109 48 145c18 26 42 48 72 61c14 6 29 9 44 9c25 0 47 -8 67 -22c47 -33 85 -101 101 -171
c9 -41 13 -85 13 -131c0 -135 -46 -234 -136 -280c-31 -16 -69 -24 -113 -24zM167 165c0 -44 41 -60 86 -60c24 0 47 5 64 13c-7 45 -29 92 -55 119c-9 9 -19 14 -30 14c-21 0 -37 -17 -46 -31s-19 -35 -19 -55zM225 526c-9 -2 -22 -3 -32 -3h-6c-45 0 -75 5 -112 15l10 48
c29 -8 52 -14 85 -15c5 0 10 -1 16 -1v1l-1 1c-15 21 -22 41 -22 61c0 41 28 65 59 75c11 4 22 5 33 5c51 0 87 -30 87 -82c0 -46 -27 -72 -61 -88c5 -7 8 -9 18 -16l-32 -36c-16 12 -29 23 -42 35zM245 580c21 8 41 22 41 50c0 21 -13 34 -32 34s-34 -12 -34 -32
c0 -21 13 -39 25 -52z" />
    <glyph glyph-name="uni06C8" unicode="&#x6c8;" horiz-adv-x="500" arabic-form="isolated" 
d="M168 -254c-68 0 -118 17 -168 38v120c35 -14 65 -23 92 -29s52 -8 76 -8c98 0 143 51 151 139c-23 -9 -48 -13 -73 -13c-78 0 -133 36 -159 90c-10 21 -15 46 -15 76c0 60 22 109 48 145c18 26 42 48 72 61c14 6 29 9 44 9c25 0 47 -8 67 -22c47 -33 85 -101 101 -171
c9 -41 13 -85 13 -131c0 -135 -46 -234 -136 -280c-31 -16 -69 -24 -113 -24zM167 165c0 -44 41 -60 86 -60c24 0 47 5 64 13c-7 45 -29 92 -55 119c-9 9 -19 14 -30 14c-21 0 -37 -17 -46 -31s-19 -35 -19 -55zM277 512h-75v196h75v-196z" />
    <glyph glyph-name="uni06C9" unicode="&#x6c9;" horiz-adv-x="500" arabic-form="isolated" 
d="M168 -254c-68 0 -118 17 -168 38v120c35 -14 65 -23 92 -29s52 -8 76 -8c98 0 143 51 151 139c-23 -9 -48 -13 -73 -13c-78 0 -133 36 -159 90c-10 21 -15 46 -15 76c0 60 22 109 48 145c18 26 42 48 72 61c14 6 29 9 44 9c25 0 47 -8 67 -22c47 -33 85 -101 101 -171
c9 -41 13 -85 13 -131c0 -135 -46 -234 -136 -280c-31 -16 -69 -24 -113 -24zM167 165c0 -44 41 -60 86 -60c24 0 47 5 64 13c-7 45 -29 92 -55 119c-9 9 -19 14 -30 14c-21 0 -37 -17 -46 -31s-19 -35 -19 -55zM205 689h67l119 -176h-81l-72 107l-70 -107h-79z" />
    <glyph glyph-name="uni06CA.fina" unicode="&#x6ca;" horiz-adv-x="500" 
d="M0 -96c52 -20 103 -37 171 -37c89 0 135 45 144 124h-47c-119 0 -198 53 -198 168c0 57 22 110 48 145c24 34 63 70 116 70c25 0 48 -8 68 -22c40 -28 76 -88 93 -146c9 -30 15 -62 18 -97h88v-120h-89c-12 -108 -58 -188 -142 -225c-28 -12 -61 -18 -98 -18
c-70 0 -121 17 -172 38v120zM165 167c0 -51 43 -60 100 -60h51c-8 45 -20 83 -42 114c-10 14 -24 30 -44 30c-21 0 -36 -17 -46 -30s-19 -34 -19 -54zM201 504h-108v99h108v-99zM366 504h-109v99h109v-99z" />
    <glyph glyph-name="uni06CB" unicode="&#x6cb;" horiz-adv-x="500" arabic-form="isolated" 
d="M168 -254c-68 0 -118 17 -168 38v120c35 -14 65 -23 92 -29s52 -8 76 -8c98 0 143 51 151 139c-23 -9 -48 -13 -73 -13c-78 0 -133 36 -159 90c-10 21 -15 46 -15 76c0 60 22 109 48 145c18 26 42 48 72 61c14 6 29 9 44 9c25 0 47 -8 67 -22c47 -33 85 -101 101 -171
c9 -41 13 -85 13 -131c0 -135 -46 -234 -136 -280c-31 -16 -69 -24 -113 -24zM167 165c0 -44 41 -60 86 -60c24 0 47 5 64 13c-7 45 -29 92 -55 119c-9 9 -19 14 -30 14c-21 0 -37 -17 -46 -31s-19 -35 -19 -55zM201 504h-109v99h109v-99zM366 504h-109v99h109v-99zM284 641
h-109v99h109v-99z" />
    <glyph glyph-name="uni06CC" unicode="&#x6cc;" horiz-adv-x="751" arabic-form="isolated" 
d="M68 167c0 76 17 139 38 201h96c-14 -51 -27 -96 -33 -150c-1 -13 -2 -26 -2 -39c0 -106 59 -146 168 -146c62 0 122 14 165 33c22 10 40 20 53 32s19 25 19 37c0 17 -11 27 -23 34c-29 19 -68 33 -95 54c-33 25 -58 59 -58 115c0 68 36 111 81 141c57 38 135 58 221 70
v-117c-57 -8 -111 -16 -155 -32c-18 -7 -31 -14 -40 -22s-14 -18 -14 -29c0 -17 10 -25 21 -33c17 -12 36 -21 57 -31c50 -25 101 -52 101 -126c0 -47 -19 -86 -41 -116c-45 -60 -115 -101 -201 -120c-30 -7 -63 -10 -98 -10c-172 0 -260 84 -260 254z" />
    <glyph glyph-name="uni06CD.fina" unicode="&#x6cd;" horiz-adv-x="917" 
d="M272 274c-12 -46 -22 -84 -22 -138c0 -112 66 -149 182 -149c57 0 117 2 146 28c7 7 11 15 11 25c0 11 -3 21 -8 29c-17 26 -39 51 -39 94c0 57 34 94 75 111c15 6 32 10 50 10c78 0 104 -54 131 -105c22 -41 55 -70 120 -70v-120h-10c-77 0 -124 36 -155 81
c-15 22 -28 42 -42 64c-8 13 -18 25 -30 33c-5 3 -11 4 -18 4c-16 0 -27 -11 -27 -28c0 -8 2 -16 7 -23c17 -25 41 -48 41 -90s-18 -72 -41 -94c-49 -47 -132 -68 -226 -68c-171 0 -262 84 -262 253c0 17 1 34 3 50l-139 -39v73z" />
    <glyph glyph-name="uni06CE.init" unicode="&#x6ce;" horiz-adv-x="333" 
d="M-34 49c0 29 8 60 34 60h73c40 0 65 4 75 33c3 10 5 23 5 39v228h97v-232c0 -72 -17 -121 -55 -152c-31 -25 -74 -36 -127 -36h-68c-26 0 -34 31 -34 60zM271 694h79l-116 -176h-67l-119 176h81l72 -106z" />
    <glyph glyph-name="uni06CE.medi" unicode="&#x6ce;" horiz-adv-x="333" 
d="M-34 49c0 29 8 60 34 60h73c39 0 64 6 75 34c4 9 5 22 5 38v228h97v-195c0 -50 0 -85 36 -99c11 -4 27 -6 48 -6v-120h-18c-59 0 -99 18 -118 57h-3c-26 -36 -69 -57 -129 -57h-66c-27 0 -34 30 -34 60zM273 694h79l-116 -176h-67l-119 176h81l72 -106z" />
    <glyph glyph-name="uni06CE.fina" unicode="&#x6ce;" horiz-adv-x="834" 
d="M188 271c-12 -45 -21 -82 -21 -135c0 -112 68 -149 184 -149c57 0 117 2 146 28c7 7 11 15 11 25c0 24 -16 41 -27 57c-12 18 -20 39 -20 66c0 57 34 94 75 111c15 6 31 10 49 10c61 0 90 -34 113 -73c24 -40 42 -81 88 -96c13 -4 29 -6 49 -6v-120h-10
c-114 0 -149 68 -192 141c-9 16 -18 27 -26 33s-16 8 -25 8c-16 0 -27 -11 -27 -28c0 -7 3 -14 7 -21s9 -15 16 -23c16 -21 25 -44 25 -69c0 -64 -42 -102 -87 -125c-48 -24 -115 -37 -184 -37c-173 0 -263 86 -263 255c0 55 10 103 22 148h97zM450 561h79l-116 -176h-67
l-119 176h81l72 -106z" />
    <glyph glyph-name="uni06CF.fina" unicode="&#x6cf;" horiz-adv-x="500" 
d="M0 -96c52 -20 103 -37 171 -37c89 0 135 45 144 124h-47c-119 0 -198 53 -198 168c0 57 22 110 48 145c24 34 63 70 116 70c25 0 48 -8 68 -22c40 -28 76 -88 93 -146c9 -30 15 -62 18 -97h88v-120h-89c-12 -108 -58 -188 -142 -225c-28 -12 -61 -18 -98 -18
c-70 0 -121 17 -172 38v120zM165 167c0 -51 43 -60 100 -60h51c-8 45 -20 83 -42 114c-10 14 -24 30 -44 30c-21 0 -36 -17 -46 -30s-19 -34 -19 -54zM284 504h-109v99h109v-99z" />
    <glyph glyph-name="uni06D0" unicode="&#x6d0;" horiz-adv-x="751" arabic-form="isolated" 
d="M68 240c0 76 17 139 38 201h96c-14 -51 -27 -96 -33 -150c-1 -13 -2 -26 -2 -39c0 -106 59 -146 168 -146c62 0 122 14 165 33c22 10 40 20 53 32s19 25 19 37c0 17 -11 27 -23 34c-29 19 -68 33 -95 54c-33 25 -58 59 -58 115c0 68 36 111 81 141c57 38 135 58 221 70
v-117c-57 -8 -111 -16 -155 -32c-18 -7 -31 -14 -40 -22s-14 -18 -14 -29c0 -17 10 -25 21 -33c17 -12 36 -21 57 -31c50 -25 101 -52 101 -126c0 -47 -19 -86 -41 -116c-45 -60 -115 -101 -201 -120c-30 -7 -63 -10 -98 -10c-172 0 -260 84 -260 254zM430 -287h-109v99h109
v-99zM430 -150h-109v99h109v-99z" />
    <glyph glyph-name="uni06D1.init" unicode="&#x6d1;" horiz-adv-x="333" 
d="M-34 49c0 29 8 60 34 60h73c40 0 65 4 75 33c3 10 5 23 5 39v228h97v-232c0 -72 -17 -121 -55 -152c-31 -25 -74 -36 -127 -36h-68c-26 0 -34 31 -34 60zM161 -150h-109v99h109v-99zM326 -150h-109v99h109v-99zM243 -287h-109v99h109v-99z" />
    <glyph glyph-name="uni06D1.medi" unicode="&#x6d1;" horiz-adv-x="333" 
d="M-34 49c0 29 8 60 34 60h73c39 0 64 6 75 34c4 9 5 22 5 38v228h97v-195c0 -50 0 -85 36 -99c11 -4 27 -6 48 -6v-120h-18c-59 0 -99 18 -118 57h-3c-26 -36 -69 -57 -129 -57h-66c-27 0 -34 30 -34 60zM161 -150h-109v99h109v-99zM326 -150h-109v99h109v-99zM243 -287
h-109v99h109v-99z" />
    <glyph glyph-name="uni06D1.fina" unicode="&#x6d1;" horiz-adv-x="834" 
d="M188 371c-11 -41 -21 -80 -21 -131c0 -76 27 -115 88 -133c23 -7 54 -10 92 -10c45 0 82 -1 113 8c18 5 32 14 32 34c0 14 -6 26 -11 37c-7 14 -16 34 -16 55c0 49 34 81 71 95c15 6 31 8 49 8c64 0 91 -39 113 -82c24 -48 38 -102 82 -130c14 -9 32 -13 55 -13v-120h-10
c-124 0 -156 104 -197 187c-7 15 -15 26 -22 34s-15 13 -24 13c-16 0 -25 -12 -25 -28c0 -14 7 -29 12 -39c6 -13 15 -34 15 -52c0 -51 -39 -80 -78 -97c-44 -19 -106 -29 -167 -29c-173 0 -270 76 -270 247c0 55 11 100 23 146h96zM320 -153h-109v99h109v-99zM485 -153
h-109v99h109v-99zM402 -290h-109v99h109v-99z" />
    <glyph glyph-name="afii57519" unicode="&#x6d2;" horiz-adv-x="918" arabic-form="isolated" 
d="M862 8c-137 -14 -285 -23 -432 -23c-89 0 -166 5 -233 20c-50 11 -89 28 -116 57c-20 22 -32 50 -32 90c0 44 16 75 37 101c47 58 125 91 191 132c34 21 68 46 98 72l66 -93c-61 -51 -121 -93 -191 -129c-30 -16 -66 -32 -88 -48c-10 -7 -16 -16 -16 -26
c0 -12 5 -22 15 -29s25 -13 48 -17s54 -7 91 -8s83 -3 138 -3c150 0 292 9 424 22v-118z" />
    <glyph glyph-name="uni06D3" unicode="&#x6d3;" horiz-adv-x="918" arabic-form="isolated" 
d="M862 8c-137 -14 -285 -23 -432 -23c-89 0 -166 5 -233 20c-50 11 -89 28 -116 57c-20 22 -32 50 -32 90c0 44 16 75 37 101c47 58 125 91 191 132c34 21 68 46 98 72l66 -93c-61 -51 -121 -93 -191 -129c-30 -16 -66 -32 -88 -48c-10 -7 -16 -16 -16 -26
c0 -12 5 -22 15 -29s25 -13 48 -17s54 -7 91 -8s83 -3 138 -3c150 0 292 9 424 22v-118zM272 634c-10 3 -24 5 -35 5c-25 0 -45 -10 -45 -35c0 -30 25 -38 57 -38h45v-54h-180v51h40v2c-14 17 -20 34 -20 51c0 53 46 79 100 79c10 0 23 -1 38 -4v-57z" />
    <glyph glyph-name="afii57534.fina" unicode="&#x6d5;" horiz-adv-x="500" 
d="M333 86c-24 -7 -51 -10 -80 -10c-82 0 -139 32 -167 88c-10 20 -15 44 -15 71c0 71 35 119 76 153c44 36 106 62 174 73v57h96v-313c0 -47 4 -78 38 -90c11 -4 26 -6 46 -6v-120h-20c-82 0 -126 35 -148 97zM255 190c25 0 46 4 66 9v149c-56 -11 -114 -28 -143 -66
c-8 -11 -12 -23 -12 -37c0 -46 43 -55 89 -55z" />
    <glyph glyph-name="uni06EE.fina" unicode="&#x6ee;" horiz-adv-x="500" 
d="M24 121c60 -8 113 -14 172 -14c49 0 93 5 104 40c3 9 4 19 4 31c0 15 -2 34 -7 58c-19 90 -50 182 -81 264h113c33 -98 57 -185 79 -283c13 -54 25 -108 93 -108v-120h-14c-55 0 -85 29 -103 68h-2c-36 -50 -105 -70 -190 -70c-47 0 -98 5 -144 13zM193 792h67l119 -176
h-81l-72 107l-70 -107h-79z" />
    <glyph glyph-name="uni06EF.fina" unicode="&#x6ef;" horiz-adv-x="417" 
d="M100 -133c103 0 132 75 132 177c0 80 -18 143 -38 206c-8 25 -17 52 -27 80h106c21 -53 37 -108 48 -169c7 -43 44 -52 96 -52v-120h-12c-37 0 -55 10 -71 30c-1 0 -1 -1 -2 -1c-4 -89 -29 -159 -72 -206c-36 -39 -88 -66 -157 -66c-41 0 -69 7 -103 20v120
c36 -11 62 -19 100 -19zM168 625h67l119 -176h-81l-72 107l-70 -107h-79z" />
    <glyph glyph-name="uni06FA.init" unicode="&#x6fa;" horiz-adv-x="834" 
d="M67 109c50 0 87 21 87 72v136h96v-104c0 -47 0 -85 33 -98c10 -4 24 -6 41 -6c52 0 80 19 80 72v136h97v-103c0 -49 1 -85 35 -99c11 -4 25 -6 44 -6c52 0 74 18 74 72v228h97v-235c0 -122 -54 -185 -172 -185c-61 0 -104 17 -127 56h-2c-27 -34 -72 -56 -131 -56
c-62 0 -99 17 -122 56h-2c-28 -34 -73 -56 -133 -56h-62c-27 0 -34 30 -34 60c0 29 8 60 34 60h67zM422 434h-109v99h109v-99zM587 434h-109v99h109v-99zM505 571h-109v99h109v-99zM505 -179h-109v99h109v-99z" />
    <glyph glyph-name="uni06FA.medi" unicode="&#x6fa;" horiz-adv-x="834" 
d="M69 109c49 0 85 21 85 72v136h96v-104c0 -47 0 -85 33 -98c10 -4 24 -6 41 -6c52 0 80 19 80 72v136h97v-103c0 -49 1 -85 35 -99c11 -4 25 -6 44 -6c52 0 74 18 74 72v228h97v-192c0 -50 0 -88 36 -102c11 -4 27 -6 48 -6v-120h-18c-57 0 -89 16 -111 52h-2
c-26 -33 -67 -52 -125 -52c-61 0 -104 17 -127 56h-2c-27 -34 -72 -56 -131 -56c-62 0 -99 17 -122 56h-2c-28 -33 -72 -56 -131 -56h-64c-27 0 -34 30 -34 60c0 29 8 60 34 60h69zM422 434h-109v99h109v-99zM587 434h-109v99h109v-99zM505 571h-109v99h109v-99zM505 -179
h-109v99h109v-99z" />
    <glyph glyph-name="uni06FA.fina" unicode="&#x6fa;" horiz-adv-x="1168" 
d="M182 161c-8 -49 -15 -93 -15 -146c0 -76 17 -122 75 -140c19 -6 42 -9 71 -9c96 0 150 34 168 112c6 26 9 57 9 93c0 80 -11 145 -21 221h97c6 -50 12 -90 16 -136c4 -41 35 -47 81 -47c51 0 75 20 75 72v136h97v-103c0 -49 1 -85 35 -99c11 -4 25 -6 44 -6
c52 0 74 18 74 72v228h97v-192c0 -50 0 -88 36 -102c11 -4 27 -6 48 -6v-120h-18c-56 0 -91 15 -111 52h-2c-26 -33 -67 -52 -125 -52c-61 0 -105 18 -127 59h-3c-22 -33 -62 -59 -116 -59c-37 0 -64 10 -83 29l-3 -1c-10 -173 -88 -271 -270 -271c-128 0 -202 48 -228 148
c-8 32 -13 69 -13 110c0 58 7 107 17 157h95zM756 434h-109v99h109v-99zM921 434h-109v99h109v-99zM839 571h-109v99h109v-99zM839 -179h-109v99h109v-99z" />
    <glyph glyph-name="uni06FB.init" unicode="&#x6fb;" horiz-adv-x="1001" 
d="M-34 49c0 29 8 60 34 60h73c31 0 57 10 69 29c4 6 6 13 6 21c0 14 -2 31 -5 52s-8 48 -15 81h100c8 -48 15 -91 21 -136c5 -30 24 -43 58 -46c31 83 78 159 134 220c40 44 90 81 151 103c29 10 60 16 93 16c120 0 191 -63 219 -156c10 -32 14 -66 14 -103
c0 -91 -30 -148 -91 -176c-57 -26 -134 -29 -217 -29c-97 0 -175 0 -256 3c-29 1 -52 2 -69 4c-48 6 -69 22 -87 56h-2c-25 -36 -69 -59 -127 -59h-69c-27 0 -34 30 -34 60zM821 185c0 94 -53 143 -146 143c-74 0 -129 -32 -170 -69c-43 -39 -78 -95 -102 -152
c48 -3 110 -2 163 -2h56c40 0 72 1 98 2c42 2 78 8 92 34c6 11 9 25 9 44zM625 -179h-109v99h109v-99zM565 532h-109v99h109v-99z" />
    <glyph glyph-name="uni06FB.medi" unicode="&#x6fb;" horiz-adv-x="1001" 
d="M-34 49c0 29 8 60 34 60h73c31 0 57 10 69 29c4 6 6 13 6 21c0 14 -2 31 -5 52s-8 48 -15 81h100c8 -48 15 -91 21 -136c5 -30 24 -43 58 -46c31 83 78 159 134 220c40 44 90 81 151 103c29 10 60 16 93 16c118 0 188 -61 217 -151c10 -31 15 -63 16 -99
c1 -44 6 -73 39 -84c11 -4 26 -6 45 -6v-120h-18c-59 0 -96 19 -113 61h-3c-49 -61 -148 -65 -258 -65c-97 0 -175 -1 -256 2c-29 1 -52 3 -69 5c-47 6 -69 22 -87 56h-2c-25 -35 -69 -59 -127 -59h-69c-27 0 -34 30 -34 60zM821 185c0 94 -53 143 -146 143
c-74 0 -129 -32 -170 -69c-43 -39 -78 -95 -102 -152c48 -3 110 -2 163 -2h56c40 0 72 1 98 2c42 2 78 8 92 34c6 11 9 25 9 44zM565 532h-109v99h109v-99zM625 -179h-109v99h109v-99z" />
    <glyph glyph-name="uni06FB.fina" unicode="&#x6fb;" horiz-adv-x="1335" 
d="M182 161c-7 -50 -15 -93 -15 -147c0 -75 19 -121 76 -139c19 -6 43 -9 72 -9c97 0 149 33 166 113c6 26 8 59 8 96c0 81 -13 147 -28 217h101c8 -46 13 -89 20 -131c5 -35 21 -46 58 -51c31 83 78 159 134 220c40 44 91 81 152 103c29 10 60 16 93 16
c119 0 187 -61 217 -151c10 -31 15 -63 16 -99c1 -43 6 -73 39 -84c11 -4 26 -6 45 -6v-120h-18c-59 0 -96 19 -113 61h-3c-49 -61 -149 -65 -259 -65c-90 0 -158 -1 -232 2c-49 2 -83 4 -110 24c-6 5 -12 9 -17 15c-1 0 -1 -1 -1 -1h-1c-8 -178 -87 -279 -272 -279
c-127 0 -202 47 -228 147c-8 32 -12 69 -12 111c0 58 7 107 17 157h95zM1155 185c0 94 -53 143 -146 143c-74 0 -129 -32 -170 -69c-43 -39 -79 -95 -103 -152c49 -3 111 -2 164 -2h56c40 0 72 1 98 2c42 2 78 8 92 34c6 11 9 25 9 44zM899 532h-109v99h109v-99zM959 -179
h-109v99h109v-99z" />
    <glyph glyph-name="uni06FC.init" unicode="&#x6fc;" horiz-adv-x="584" 
d="M530 78c-122 -53 -243 -89 -413 -89h-117c-27 0 -34 30 -34 60c0 29 8 60 34 60h141l1 3c-26 24 -46 48 -60 79c-9 22 -14 44 -14 72c0 68 32 116 73 148c45 35 110 57 189 57c32 0 57 -3 87 -9v-121c-33 5 -62 10 -98 10c-80 0 -154 -11 -154 -91c0 -22 9 -39 20 -56
c21 -32 52 -56 90 -79c95 18 175 49 255 85v-129zM319 -179h-109v99h109v-99zM319 556h-109v99h109v-99z" />
    <glyph glyph-name="uni06FC.medi" unicode="&#x6fc;" horiz-adv-x="584" 
d="M229 135c-61 53 -107 108 -153 177v115c55 10 117 19 178 25c21 2 42 3 62 3c73 0 135 -16 167 -58c12 -16 18 -36 18 -62c0 -34 -10 -65 -21 -93c-15 -37 -36 -74 -61 -103c48 -20 98 -30 165 -30v-120h-32c-96 0 -170 27 -227 70h-3c-67 -44 -151 -70 -262 -70h-60
c-27 0 -34 30 -34 60c0 29 8 60 34 60h64c66 0 118 9 165 26zM184 330c40 -56 84 -102 141 -141h2c30 24 58 58 72 96c3 9 5 17 5 23c0 35 -50 38 -92 38s-91 -5 -128 -12v-4zM347 -179h-109v99h109v-99zM347 556h-109v99h109v-99z" />
    <glyph glyph-name="uni06FC.fina" unicode="&#x6fc;" horiz-adv-x="584" 
d="M366 171c56 -38 125 -62 214 -62h4v-120h-25c-99 0 -174 34 -236 75c-24 15 -46 33 -67 52c-44 -20 -80 -41 -105 -72c-16 -19 -26 -39 -26 -68c0 -41 20 -69 47 -87c36 -24 90 -35 154 -35c77 0 137 15 196 36v-115c-60 -20 -119 -34 -197 -34c-135 0 -237 39 -277 132
c-12 28 -19 60 -19 95c0 83 34 135 80 176c19 17 43 34 71 50c-38 45 -74 98 -104 152v114c73 12 153 29 238 29c82 0 152 -16 177 -74c5 -13 8 -28 8 -45c0 -36 -11 -66 -26 -94c-24 -43 -61 -78 -107 -105zM184 364c29 -46 60 -86 96 -124c39 19 72 37 97 62
c9 9 15 17 19 24s5 14 5 19c0 32 -50 35 -90 35c-42 0 -90 -5 -127 -12v-4zM318 -66h-109v99h109v-99zM347 588h-109v99h109v-99z" />
    <glyph glyph-name="uni06FF.init" unicode="&#x6ff;" horiz-adv-x="667" 
d="M163 108c-50 23 -85 64 -85 136c0 66 27 116 61 150c13 14 29 25 46 34l1 3l-23 15v136c119 -65 228 -144 311 -234c36 -39 63 -77 82 -113s28 -69 28 -97c0 -57 -13 -111 -44 -137c-9 -8 -19 -12 -30 -12c-86 0 -163 18 -224 45c-51 -35 -128 -45 -213 -45h-73
c-29 0 -44 28 -44 60c0 33 14 60 44 60c55 0 110 -4 162 -4zM357 123c35 -12 78 -20 121 -23c5 9 6 18 6 26c0 29 -15 53 -29 73c-19 27 -45 53 -70 76l-3 -2c1 -10 2 -19 2 -30c0 -48 -9 -88 -27 -120zM272 150c20 32 30 59 30 101c0 35 -17 66 -37 82c-7 6 -15 8 -22 8
c-22 0 -39 -19 -49 -33s-22 -36 -22 -57c0 -36 21 -53 45 -70c13 -10 32 -20 55 -31zM260 821h67l119 -176h-81l-72 107l-70 -107h-79z" />
    <glyph glyph-name="uni06FF.medi" unicode="&#x6ff;" horiz-adv-x="500" 
d="M-34 49c0 29 8 60 34 60h77c13 78 35 146 64 203c23 44 49 81 83 108c20 16 44 31 73 31c16 0 31 -6 46 -18c31 -26 53 -69 65 -115c7 -24 9 -48 9 -72c0 -59 -20 -107 -53 -135l1 -2h136v-120h-128l-1 -2c26 -25 45 -58 45 -103c0 -64 -38 -110 -84 -130
c-17 -8 -37 -11 -58 -11c-53 0 -93 23 -123 50c-47 43 -74 110 -81 196h-71c-27 0 -34 30 -34 60zM225 109c51 0 77 42 89 82c4 14 7 28 7 42c0 35 -11 70 -27 89c-5 6 -11 9 -16 9c-7 0 -14 -5 -24 -15c-26 -26 -44 -67 -59 -112c-9 -28 -17 -59 -22 -95h52zM274 -139
c29 0 48 16 48 42c0 24 -15 44 -29 57c-17 16 -44 29 -77 29h-49c8 -55 30 -100 71 -119c12 -6 24 -9 36 -9zM227 748h67l119 -176h-81l-72 107l-70 -107h-79z" />
    <glyph glyph-name="uni06FF.fina" unicode="&#x6ff;" horiz-adv-x="667" 
d="M33 122c68 -9 133 -13 210 -13c13 78 35 146 64 203c23 44 49 81 83 108c20 16 44 31 73 31c40 0 68 -36 85 -66c20 -35 36 -86 36 -139c0 -59 -21 -107 -54 -135l1 -2h137v-120h-129l-1 -1v-1c26 -25 46 -58 46 -103c0 -65 -39 -109 -85 -130c-17 -8 -36 -11 -57 -11
c-54 0 -94 23 -124 50c-48 43 -74 110 -81 196c-68 0 -127 0 -181 12c-8 40 -15 81 -23 121zM445 331c-7 0 -15 -5 -25 -15c-26 -26 -45 -68 -60 -112c-9 -28 -16 -59 -21 -95h52c34 0 57 20 72 42c14 21 25 50 25 82c0 35 -12 70 -28 89c-5 6 -10 9 -15 9zM441 -139
c29 0 48 16 48 42c0 24 -16 44 -30 57c-17 16 -44 29 -77 29h-49c8 -55 30 -100 72 -119c12 -6 24 -9 36 -9zM394 748h67l119 -176h-81l-72 107l-70 -107h-79z" />
    <glyph glyph-name="uniFB51" unicode="&#x671;" horiz-adv-x="250" arabic-form="final" 
d="M231 -11c-122 0 -161 77 -161 197v554h97v-526c0 -51 1 -86 38 -99c11 -4 25 -6 45 -6v-120h-19zM-65 850c25 17 49 34 89 34h6c2 0 5 0 7 -1c12 36 27 64 47 81s43 25 69 25c51 0 86 -32 86 -82c0 -47 -32 -78 -66 -92c-13 -5 -27 -8 -41 -8c-34 0 -61 14 -88 22
c-8 3 -16 4 -23 4s-14 -2 -23 -6s-21 -10 -35 -21zM83 870c14 -5 30 -11 47 -11c28 0 49 19 49 47c0 19 -13 32 -31 32c-12 0 -23 -6 -34 -16s-22 -28 -31 -52z" />
    <glyph glyph-name="uniFB53" unicode="&#x67b;" horiz-adv-x="918" arabic-form="final" 
d="M183 317c-7 -34 -16 -65 -16 -105c0 -78 51 -96 124 -103c59 -6 120 -5 193 -5c49 0 89 1 122 2c74 3 132 9 132 82v221h97v-195c0 -50 0 -85 36 -99c11 -4 26 -6 47 -6v-120h-19c-58 0 -94 19 -113 58h-3c-67 -63 -197 -62 -328 -62c-98 0 -195 0 -269 23
c-77 24 -118 84 -118 183c0 47 7 87 17 126h98zM514 -287h-109v99h109v-99zM514 -150h-109v99h109v-99z" />
    <glyph glyph-name="uniFB54" unicode="&#x67b;" horiz-adv-x="333" arabic-form="initial" 
d="M-34 49c0 29 8 60 34 60h73c40 0 65 4 75 33c3 10 5 23 5 39v228h97v-232c0 -72 -17 -121 -55 -152c-31 -25 -74 -36 -127 -36h-68c-26 0 -34 31 -34 60zM244 -287h-109v99h109v-99zM244 -150h-109v99h109v-99z" />
    <glyph glyph-name="uniFB55" unicode="&#x67b;" horiz-adv-x="333" arabic-form="medial" 
d="M-34 49c0 29 8 60 34 60h73c39 0 64 6 75 34c4 9 5 22 5 38v228h97v-195c0 -50 0 -85 36 -99c11 -4 27 -6 48 -6v-120h-18c-59 0 -99 18 -118 57h-3c-26 -36 -69 -57 -129 -57h-66c-27 0 -34 30 -34 60zM244 -287h-109v99h109v-99zM244 -150h-109v99h109v-99z" />
    <glyph glyph-name="uniFB57" unicode="&#x67e;" horiz-adv-x="918" arabic-form="final" 
d="M183 317c-7 -34 -16 -65 -16 -105c0 -78 51 -96 124 -103c59 -6 120 -5 193 -5c49 0 89 1 122 2c74 3 132 9 132 82v221h97v-195c0 -50 0 -85 36 -99c11 -4 26 -6 47 -6v-120h-19c-58 0 -94 19 -113 58h-3c-67 -63 -197 -62 -328 -62c-98 0 -195 0 -269 23
c-77 24 -118 84 -118 183c0 47 7 87 17 126h98zM431 -150h-109v99h109v-99zM596 -150h-109v99h109v-99zM513 -287h-109v99h109v-99z" />
    <glyph glyph-name="uniFB58" unicode="&#x67e;" horiz-adv-x="333" arabic-form="initial" 
d="M-34 49c0 29 8 60 34 60h73c40 0 65 4 75 33c3 10 5 23 5 39v228h97v-232c0 -72 -17 -121 -55 -152c-31 -25 -74 -36 -127 -36h-68c-26 0 -34 31 -34 60zM161 -150h-109v99h109v-99zM326 -150h-109v99h109v-99zM243 -287h-109v99h109v-99z" />
    <glyph glyph-name="uniFB59" unicode="&#x67e;" horiz-adv-x="333" arabic-form="medial" 
d="M-34 49c0 29 8 60 34 60h73c39 0 64 6 75 34c4 9 5 22 5 38v228h97v-195c0 -50 0 -85 36 -99c11 -4 27 -6 48 -6v-120h-18c-59 0 -99 18 -118 57h-3c-26 -36 -69 -57 -129 -57h-66c-27 0 -34 30 -34 60zM161 -150h-109v99h109v-99zM326 -150h-109v99h109v-99zM243 -287
h-109v99h109v-99z" />
    <glyph glyph-name="uniFB5B" unicode="&#x680;" horiz-adv-x="918" arabic-form="final" 
d="M183 317c-7 -34 -16 -65 -16 -105c0 -78 51 -96 124 -103c59 -6 120 -5 193 -5c49 0 89 1 122 2c74 3 132 9 132 82v221h97v-195c0 -50 0 -85 36 -99c11 -4 26 -6 47 -6v-120h-19c-58 0 -94 19 -113 58h-3c-67 -63 -197 -62 -328 -62c-98 0 -195 0 -269 23
c-77 24 -118 84 -118 183c0 47 7 87 17 126h98zM431 -287h-109v99h109v-99zM596 -287h-109v99h109v-99zM431 -150h-109v99h109v-99zM596 -150h-109v99h109v-99z" />
    <glyph glyph-name="uniFB5C" unicode="&#x680;" horiz-adv-x="333" arabic-form="initial" 
d="M-34 49c0 29 8 60 34 60h73c40 0 65 4 75 33c3 10 5 23 5 39v228h97v-232c0 -72 -17 -121 -55 -152c-31 -25 -74 -36 -127 -36h-68c-26 0 -34 31 -34 60zM161 -287h-109v99h109v-99zM326 -287h-109v99h109v-99zM161 -150h-109v99h109v-99zM326 -150h-109v99h109v-99z" />
    <glyph glyph-name="uniFB5D" unicode="&#x680;" horiz-adv-x="333" arabic-form="medial" 
d="M-34 49c0 29 8 60 34 60h73c39 0 64 6 75 34c4 9 5 22 5 38v228h97v-195c0 -50 0 -85 36 -99c11 -4 27 -6 48 -6v-120h-18c-59 0 -99 18 -118 57h-3c-26 -36 -69 -57 -129 -57h-66c-27 0 -34 30 -34 60zM161 -287h-109v99h109v-99zM326 -287h-109v99h109v-99zM161 -150
h-109v99h109v-99zM326 -150h-109v99h109v-99z" />
    <glyph glyph-name="uniFB5F" unicode="&#x67a;" horiz-adv-x="918" arabic-form="final" 
d="M183 317c-7 -34 -16 -65 -16 -105c0 -78 51 -96 124 -103c59 -6 120 -5 193 -5c49 0 89 1 122 2c74 3 132 9 132 82v221h97v-195c0 -50 0 -85 36 -99c11 -4 26 -6 47 -6v-120h-19c-58 0 -94 19 -113 58h-3c-67 -63 -197 -62 -328 -62c-98 0 -195 0 -269 23
c-77 24 -118 84 -118 183c0 47 7 87 17 126h98zM514 517h-109v99h109v-99zM514 654h-109v99h109v-99z" />
    <glyph glyph-name="uniFB60" unicode="&#x67a;" horiz-adv-x="333" arabic-form="initial" 
d="M-34 49c0 29 8 60 34 60h73c40 0 65 4 75 33c3 10 5 23 5 39v228h97v-232c0 -72 -17 -121 -55 -152c-31 -25 -74 -36 -127 -36h-68c-26 0 -34 31 -34 60zM254 517h-109v99h109v-99zM254 654h-109v99h109v-99z" />
    <glyph glyph-name="uniFB61" unicode="&#x67a;" horiz-adv-x="333" arabic-form="medial" 
d="M-34 49c0 29 8 60 34 60h73c39 0 64 6 75 34c4 9 5 22 5 38v228h97v-195c0 -50 0 -85 36 -99c11 -4 27 -6 48 -6v-120h-18c-59 0 -99 18 -118 57h-3c-26 -36 -69 -57 -129 -57h-66c-27 0 -34 30 -34 60zM254 517h-109v99h109v-99zM254 654h-109v99h109v-99z" />
    <glyph glyph-name="uniFB63" unicode="&#x67f;" horiz-adv-x="918" arabic-form="final" 
d="M183 317c-7 -34 -16 -65 -16 -105c0 -78 51 -96 124 -103c59 -6 120 -5 193 -5c49 0 89 1 122 2c74 3 132 9 132 82v221h97v-195c0 -50 0 -85 36 -99c11 -4 26 -6 47 -6v-120h-19c-58 0 -94 19 -113 58h-3c-67 -63 -197 -62 -328 -62c-98 0 -195 0 -269 23
c-77 24 -118 84 -118 183c0 47 7 87 17 126h98zM431 517h-109v99h109v-99zM596 517h-109v99h109v-99zM431 654h-109v99h109v-99zM596 654h-109v99h109v-99z" />
    <glyph glyph-name="uniFB64" unicode="&#x67f;" horiz-adv-x="333" arabic-form="initial" 
d="M-34 49c0 29 8 60 34 60h73c40 0 65 4 75 33c3 10 5 23 5 39v228h97v-232c0 -72 -17 -121 -55 -152c-31 -25 -74 -36 -127 -36h-68c-26 0 -34 31 -34 60zM171 517h-109v99h109v-99zM336 517h-109v99h109v-99zM171 654h-109v99h109v-99zM336 654h-109v99h109v-99z" />
    <glyph glyph-name="uniFB65" unicode="&#x67f;" horiz-adv-x="333" arabic-form="medial" 
d="M-34 49c0 29 8 60 34 60h73c39 0 64 6 75 34c4 9 5 22 5 38v228h97v-195c0 -50 0 -85 36 -99c11 -4 27 -6 48 -6v-120h-18c-59 0 -99 18 -118 57h-3c-26 -36 -69 -57 -129 -57h-66c-27 0 -34 30 -34 60zM171 517h-109v99h109v-99zM336 517h-109v99h109v-99zM171 654h-109
v99h109v-99zM336 654h-109v99h109v-99z" />
    <glyph glyph-name="uniFB67" unicode="&#x679;" horiz-adv-x="918" arabic-form="final" 
d="M183 317c-7 -34 -16 -65 -16 -105c0 -78 51 -96 124 -103c59 -6 120 -5 193 -5c49 0 89 1 122 2c74 3 132 9 132 82v221h97v-195c0 -50 0 -85 36 -99c11 -4 26 -6 47 -6v-120h-19c-58 0 -94 19 -113 58h-3c-67 -63 -197 -62 -328 -62c-98 0 -195 0 -269 23
c-77 24 -118 84 -118 183c0 47 7 87 17 126h98zM361 498v241h56v-157l2 -1c12 17 26 31 41 42s34 16 55 16c65 0 94 -50 94 -114c0 -57 -26 -82 -78 -85c-16 -1 -33 -2 -51 -2c-63 0 -118 0 -173 6l-8 57c20 -3 39 -3 62 -3zM556 526c0 32 -18 55 -47 55
c-23 0 -40 -13 -53 -26c-15 -16 -28 -38 -38 -59h57c37 0 81 -8 81 30z" />
    <glyph glyph-name="uniFB68" unicode="&#x679;" horiz-adv-x="333" arabic-form="initial" 
d="M-34 49c0 29 8 60 34 60h73c40 0 65 4 75 33c3 10 5 23 5 39v228h97v-232c0 -72 -17 -121 -55 -152c-31 -25 -74 -36 -127 -36h-68c-26 0 -34 31 -34 60zM80 557v241h56v-157l2 -1c12 17 26 31 41 42s34 16 55 16c65 0 94 -50 94 -114c0 -57 -26 -82 -78 -85
c-16 -1 -33 -2 -51 -2c-63 0 -118 0 -173 6l-8 57c20 -3 39 -3 62 -3zM275 585c0 32 -18 55 -47 55c-23 0 -40 -13 -53 -26c-15 -16 -28 -38 -38 -59h57c37 0 81 -8 81 30z" />
    <glyph glyph-name="uniFB69" unicode="&#x679;" horiz-adv-x="333" arabic-form="medial" 
d="M-34 49c0 29 8 60 34 60h73c39 0 64 6 75 34c4 9 5 22 5 38v228h97v-195c0 -50 0 -85 36 -99c11 -4 27 -6 48 -6v-120h-18c-59 0 -99 18 -118 57h-3c-26 -36 -69 -57 -129 -57h-66c-27 0 -34 30 -34 60zM83 557v241h56v-157l2 -1c12 17 26 31 41 42s34 16 55 16
c65 0 94 -50 94 -114c0 -57 -26 -82 -78 -85c-16 -1 -33 -2 -51 -2c-63 0 -118 0 -173 6l-8 57c20 -3 39 -3 62 -3zM278 585c0 32 -18 55 -47 55c-23 0 -40 -13 -53 -26c-15 -16 -28 -38 -38 -59h57c37 0 81 -8 81 30z" />
    <glyph glyph-name="uniFB6B" unicode="&#x6a4;" horiz-adv-x="1001" arabic-form="final" 
d="M732 346c-21 0 -36 -17 -45 -31c-10 -14 -19 -36 -19 -58s9 -36 23 -51c27 -30 63 -49 109 -71c15 12 23 39 20 67c-5 53 -27 103 -58 131c-9 8 -20 13 -30 13zM183 317c-8 -34 -16 -65 -16 -105c0 -33 7 -56 25 -72c21 -20 53 -27 93 -31c58 -6 121 -5 192 -5h92
c32 0 60 0 90 2l1 4c-50 31 -88 73 -88 145c0 59 23 108 49 144c19 26 43 48 73 61c14 6 29 9 44 9c39 0 69 -20 91 -42c41 -40 70 -100 83 -168c4 -22 6 -45 6 -67c0 -32 -5 -57 -15 -79c31 -4 64 -4 99 -4v-120h-16c-67 0 -132 10 -182 29c-70 -30 -172 -33 -272 -33h-56
c-106 0 -208 -3 -288 21c-78 23 -120 85 -120 185c0 47 7 87 17 126h98zM696 588h-109v99h109v-99zM861 588h-109v99h109v-99zM779 725h-109v99h109v-99z" />
    <glyph glyph-name="uniFB6C" unicode="&#x6a4;" horiz-adv-x="500" arabic-form="initial" 
d="M299 135c12 13 20 30 20 54c0 45 -14 83 -32 113c-11 18 -31 44 -56 44c-21 0 -36 -17 -45 -31s-19 -36 -19 -58s9 -36 23 -51c27 -30 63 -49 109 -71zM157 110c-51 31 -86 72 -86 145c0 59 23 108 49 144c19 26 43 48 73 61c14 6 29 9 44 9c39 0 69 -20 91 -42
c41 -41 70 -100 83 -168c4 -22 6 -45 6 -67c0 -177 -151 -203 -328 -203h-89c-27 0 -34 30 -34 60c0 29 8 60 34 60h63c7 0 14 -1 23 -1c13 0 13 -1 26 -1c14 -1 30 -1 43 -1zM196 588h-109v99h109v-99zM361 588h-109v99h109v-99zM279 725h-109v99h109v-99z" />
    <glyph glyph-name="uniFB6D" unicode="&#x6a4;" horiz-adv-x="500" arabic-form="medial" 
d="M299 134c12 10 20 32 20 54c1 10 -1 19 -2 29c-7 45 -28 91 -56 116c-9 8 -19 13 -29 13c-21 0 -37 -17 -46 -31c-10 -14 -19 -36 -19 -58s9 -36 23 -51c9 -10 23 -21 40 -33s40 -25 69 -39zM157 110c-51 31 -86 73 -86 145c0 59 23 109 49 144c19 26 43 48 73 61
c14 6 29 9 44 9c39 0 69 -20 91 -42c41 -40 70 -101 83 -168c4 -22 6 -45 6 -67c0 -32 -5 -57 -15 -79c31 -4 64 -4 99 -4v-120h-16c-67 0 -132 10 -182 29c-60 -24 -138 -29 -221 -29h-82c-27 0 -34 30 -34 60c0 29 8 60 34 60h63c7 0 14 -1 23 -1c13 0 14 -1 27 -1
c14 -1 30 -1 43 -1zM196 588h-109v99h109v-99zM361 588h-109v99h109v-99zM279 725h-109v99h109v-99z" />
    <glyph glyph-name="uniFB6F" unicode="&#x6a6;" horiz-adv-x="1001" arabic-form="final" 
d="M732 346c-21 0 -36 -17 -45 -31c-10 -14 -19 -36 -19 -58s9 -36 23 -51c27 -30 63 -49 109 -71c15 12 23 39 20 67c-5 53 -27 103 -58 131c-9 8 -20 13 -30 13zM183 317c-8 -34 -16 -65 -16 -105c0 -33 7 -56 25 -72c21 -20 53 -27 93 -31c58 -6 121 -5 192 -5h92
c32 0 60 0 90 2l1 4c-50 31 -88 73 -88 145c0 59 23 108 49 144c19 26 43 48 73 61c14 6 29 9 44 9c39 0 69 -20 91 -42c41 -40 70 -100 83 -168c4 -22 6 -45 6 -67c0 -32 -5 -57 -15 -79c31 -4 64 -4 99 -4v-120h-16c-67 0 -132 10 -182 29c-70 -30 -172 -33 -272 -33h-56
c-106 0 -208 -3 -288 21c-78 23 -120 85 -120 185c0 47 7 87 17 126h98zM696 588h-109v99h109v-99zM861 588h-109v99h109v-99zM696 725h-109v99h109v-99zM861 725h-109v99h109v-99z" />
    <glyph glyph-name="uniFB70" unicode="&#x6a6;" horiz-adv-x="500" arabic-form="initial" 
d="M299 135c12 13 20 30 20 54c0 45 -14 83 -32 113c-11 18 -31 44 -56 44c-21 0 -36 -17 -45 -31s-19 -36 -19 -58s9 -36 23 -51c27 -30 63 -49 109 -71zM157 110c-51 31 -86 72 -86 145c0 59 23 108 49 144c19 26 43 48 73 61c14 6 29 9 44 9c39 0 69 -20 91 -42
c41 -41 70 -100 83 -168c4 -22 6 -45 6 -67c0 -177 -151 -203 -328 -203h-89c-27 0 -34 30 -34 60c0 29 8 60 34 60h63c7 0 14 -1 23 -1c13 0 13 -1 26 -1c14 -1 30 -1 43 -1zM196 588h-109v99h109v-99zM361 588h-109v99h109v-99zM196 725h-109v99h109v-99zM361 725h-109v99
h109v-99z" />
    <glyph glyph-name="uniFB71" unicode="&#x6a6;" horiz-adv-x="500" arabic-form="medial" 
d="M299 134c12 10 20 32 20 54c1 10 -1 19 -2 29c-7 45 -28 91 -56 116c-9 8 -19 13 -29 13c-21 0 -37 -17 -46 -31c-10 -14 -19 -36 -19 -58s9 -36 23 -51c9 -10 23 -21 40 -33s40 -25 69 -39zM157 110c-51 31 -86 73 -86 145c0 59 23 109 49 144c19 26 43 48 73 61
c14 6 29 9 44 9c39 0 69 -20 91 -42c41 -40 70 -101 83 -168c4 -22 6 -45 6 -67c0 -32 -5 -57 -15 -79c31 -4 64 -4 99 -4v-120h-16c-67 0 -132 10 -182 29c-60 -24 -138 -29 -221 -29h-82c-27 0 -34 30 -34 60c0 29 8 60 34 60h63c7 0 14 -1 23 -1c13 0 14 -1 27 -1
c14 -1 30 -1 43 -1zM196 588h-109v99h109v-99zM361 588h-109v99h109v-99zM196 725h-109v99h109v-99zM361 725h-109v99h109v-99z" />
    <glyph glyph-name="uniFB73" unicode="&#x684;" horiz-adv-x="584" arabic-form="final" 
d="M369 21h-88v88h88v-88zM369 -99h-88v87h88v-87zM83 438c39 12 77 20 127 20c68 0 114 -19 160 -41c48 -23 98 -40 169 -41l-22 -128c-18 -5 -36 -11 -54 -16c7 -61 20 -109 73 -119c14 -3 29 -4 48 -4v-120h-14c-134 0 -173 91 -185 217c-74 -28 -135 -58 -179 -104
c-27 -28 -46 -59 -46 -106c0 -70 42 -106 97 -125c24 -8 55 -12 91 -12c76 0 134 16 197 39v-114c-61 -21 -121 -38 -201 -38c-133 0 -227 48 -264 142c-11 29 -18 60 -18 95c0 76 26 132 61 177c53 69 136 113 232 144v5c-30 15 -55 28 -95 32c-12 1 -26 2 -42 2
c-49 0 -97 -6 -135 -17v112z" />
    <glyph glyph-name="uniFB74" unicode="&#x684;" horiz-adv-x="584" arabic-form="initial" 
d="M83 400c43 13 81 20 134 20c68 0 117 -18 161 -42c43 -23 85 -45 145 -52c13 -1 28 -3 44 -4l-22 -131c-16 -4 -33 -10 -52 -22c-73 -44 -147 -97 -234 -132c-66 -27 -144 -48 -237 -48h-22c-27 0 -34 30 -34 60c0 29 8 60 34 60h26c81 0 150 18 209 43
c63 26 119 60 173 95v3c-55 32 -109 55 -197 55c-50 0 -88 -5 -128 -16v111zM347 -287h-109v99h109v-99zM347 -150h-109v99h109v-99z" />
    <glyph glyph-name="uniFB75" unicode="&#x684;" horiz-adv-x="584" arabic-form="medial" 
d="M83 400c43 13 81 20 134 20c92 0 145 -34 206 -65c40 -21 85 -29 144 -33l-22 -131c-31 -7 -59 -26 -86 -43c5 -36 32 -39 74 -39h51v-120h-25c-75 0 -128 20 -149 72c-6 15 -10 30 -13 47c-75 -46 -159 -87 -261 -108c-36 -7 -73 -11 -114 -11h-22c-27 0 -34 30 -34 60
c0 29 8 60 34 60h26c81 0 150 18 209 43c63 26 119 60 173 95v3c-55 32 -109 55 -197 55c-50 0 -88 -5 -128 -16v111zM347 -287h-109v99h109v-99zM347 -150h-109v99h109v-99z" />
    <glyph glyph-name="uniFB77" unicode="&#x683;" horiz-adv-x="667" arabic-form="final" 
d="M325 -25h-88v87h88v-87zM469 -25h-89v87h89v-87zM83 438c39 12 77 20 127 20c68 0 114 -19 160 -41c48 -23 98 -40 169 -41l-22 -125c-71 -19 -130 -38 -177 -59s-84 -43 -111 -64s-46 -43 -57 -65s-16 -45 -16 -67c0 -72 44 -109 101 -128c25 -8 55 -13 91 -13
c76 0 134 17 197 40v-111c-61 -21 -121 -38 -201 -38c-133 0 -227 48 -264 142c-11 29 -18 60 -18 95c0 76 26 132 61 177c53 69 136 113 232 144v5c-30 15 -55 28 -95 32c-12 1 -26 2 -42 2c-49 0 -97 -6 -135 -17v112zM561 204c4 -63 29 -95 95 -95h12v-120h-16
c-115 0 -166 76 -173 190z" />
    <glyph glyph-name="uniFB78" unicode="&#x683;" horiz-adv-x="584" arabic-form="initial" 
d="M83 400c43 13 81 20 134 20c68 0 117 -18 161 -42c43 -23 85 -45 145 -52c13 -1 28 -3 44 -4l-22 -131c-16 -4 -33 -10 -52 -22c-73 -44 -147 -97 -234 -132c-66 -27 -144 -48 -237 -48h-22c-27 0 -34 30 -34 60c0 29 8 60 34 60h26c81 0 150 18 209 43
c63 26 119 60 173 95v3c-55 32 -109 55 -197 55c-50 0 -88 -5 -128 -16v111zM264 -179h-108v99h108v-99zM429 -179h-109v99h109v-99z" />
    <glyph glyph-name="uniFB79" unicode="&#x683;" horiz-adv-x="584" arabic-form="medial" 
d="M83 400c43 13 81 20 134 20c92 0 145 -34 206 -65c40 -21 85 -29 144 -33l-22 -131c-31 -7 -59 -26 -86 -43c5 -36 32 -39 74 -39h51v-120h-25c-75 0 -128 20 -149 72c-6 15 -10 30 -13 47c-75 -46 -159 -87 -261 -108c-36 -7 -73 -11 -114 -11h-22c-27 0 -34 30 -34 60
c0 29 8 60 34 60h26c81 0 150 18 209 43c63 26 119 60 173 95v3c-55 32 -109 55 -197 55c-50 0 -88 -5 -128 -16v111zM264 -179h-108v99h108v-99zM429 -179h-109v99h109v-99z" />
    <glyph glyph-name="uniFB7B" unicode="&#x686;" horiz-adv-x="667" arabic-form="final" 
d="M325 23h-88v87h88v-87zM469 23h-89v87h89v-87zM397 -104h-88v87h88v-87zM83 438c39 12 77 20 127 20c68 0 114 -19 160 -41c48 -23 98 -40 169 -41l-22 -125c-71 -19 -130 -38 -177 -59s-84 -43 -111 -64s-46 -43 -57 -65s-16 -45 -16 -67c0 -72 44 -109 101 -128
c25 -8 55 -13 91 -13c76 0 134 17 197 40v-111c-61 -21 -121 -38 -201 -38c-133 0 -227 48 -264 142c-11 29 -18 60 -18 95c0 76 26 132 61 177c53 69 136 113 232 144v5c-30 15 -55 28 -95 32c-12 1 -26 2 -42 2c-49 0 -97 -6 -135 -17v112zM561 204c4 -63 29 -95 95 -95
h12v-120h-16c-115 0 -166 76 -173 190z" />
    <glyph glyph-name="uniFB7C" unicode="&#x686;" horiz-adv-x="584" arabic-form="initial" 
d="M83 400c43 13 81 20 134 20c68 0 117 -18 161 -42c43 -23 85 -45 145 -52c13 -1 28 -3 44 -4l-22 -131c-16 -4 -33 -10 -52 -22c-73 -44 -147 -97 -234 -132c-66 -27 -144 -48 -237 -48h-22c-27 0 -34 30 -34 60c0 29 8 60 34 60h26c81 0 150 18 209 43
c63 26 119 60 173 95v3c-55 32 -109 55 -197 55c-50 0 -88 -5 -128 -16v111zM264 -150h-109v99h109v-99zM429 -150h-109v99h109v-99zM346 -287h-109v99h109v-99z" />
    <glyph glyph-name="uniFB7D" unicode="&#x686;" horiz-adv-x="584" arabic-form="medial" 
d="M83 400c43 13 81 20 134 20c92 0 145 -34 206 -65c40 -21 85 -29 144 -33l-22 -131c-31 -7 -59 -26 -86 -43c5 -36 32 -39 74 -39h51v-120h-25c-75 0 -128 20 -149 72c-6 15 -10 30 -13 47c-75 -46 -159 -87 -261 -108c-36 -7 -73 -11 -114 -11h-22c-27 0 -34 30 -34 60
c0 29 8 60 34 60h26c81 0 150 18 209 43c63 26 119 60 173 95v3c-55 32 -109 55 -197 55c-50 0 -88 -5 -128 -16v111zM264 -150h-109v99h109v-99zM429 -150h-109v99h109v-99zM346 -287h-109v99h109v-99z" />
    <glyph glyph-name="uniFB7F" unicode="&#x687;" horiz-adv-x="667" arabic-form="final" 
d="M83 438c39 12 77 20 127 20c68 0 114 -19 160 -41c48 -23 98 -40 169 -41l-22 -125c-71 -19 -130 -38 -177 -59s-84 -43 -111 -64s-46 -43 -57 -65s-16 -45 -16 -67c0 -72 44 -109 101 -128c25 -8 55 -13 91 -13c76 0 134 17 197 40v-111c-61 -21 -121 -38 -201 -38
c-133 0 -227 48 -264 142c-11 29 -18 60 -18 95c0 76 26 132 61 177c53 69 136 113 232 144v5c-30 15 -55 28 -95 32c-12 1 -26 2 -42 2c-49 0 -97 -6 -135 -17v112zM561 204c4 -63 29 -95 95 -95h12v-120h-16c-115 0 -166 76 -173 190zM331 33h-89v87h89v-87zM472 33h-89
v87h89v-87zM331 -97h-89v88h89v-88zM472 -97h-89v88h89v-88z" />
    <glyph glyph-name="uniFB80" unicode="&#x687;" horiz-adv-x="584" arabic-form="initial" 
d="M83 400c43 13 81 20 134 20c68 0 117 -18 161 -42c43 -23 85 -45 145 -52c13 -1 28 -3 44 -4l-22 -131c-16 -4 -33 -10 -52 -22c-73 -44 -147 -97 -234 -132c-66 -27 -144 -48 -237 -48h-22c-27 0 -34 30 -34 60c0 29 8 60 34 60h26c81 0 150 18 209 43
c63 26 119 60 173 95v3c-55 32 -109 55 -197 55c-50 0 -88 -5 -128 -16v111zM264 -287h-109v99h109v-99zM429 -287h-109v99h109v-99zM264 -150h-109v99h109v-99zM429 -150h-109v99h109v-99z" />
    <glyph glyph-name="uniFB81" unicode="&#x687;" horiz-adv-x="584" arabic-form="medial" 
d="M83 400c43 13 81 20 134 20c92 0 145 -34 206 -65c40 -21 85 -29 144 -33l-22 -131c-31 -7 -59 -26 -86 -43c5 -36 32 -39 74 -39h51v-120h-25c-75 0 -128 20 -149 72c-6 15 -10 30 -13 47c-75 -46 -159 -87 -261 -108c-36 -7 -73 -11 -114 -11h-22c-27 0 -34 30 -34 60
c0 29 8 60 34 60h26c81 0 150 18 209 43c63 26 119 60 173 95v3c-55 32 -109 55 -197 55c-50 0 -88 -5 -128 -16v111zM264 -287h-109v99h109v-99zM429 -287h-109v99h109v-99zM264 -150h-109v99h109v-99zM429 -150h-109v99h109v-99z" />
    <glyph glyph-name="uniFB83" unicode="&#x68d;" horiz-adv-x="500" arabic-form="final" 
d="M24 121c60 -8 113 -14 172 -14c49 0 93 5 104 40c3 9 4 19 4 31c0 15 -2 34 -7 58c-19 90 -50 182 -81 264h113c33 -98 57 -185 79 -283c13 -54 25 -108 93 -108v-120h-14c-55 0 -85 29 -103 68h-2c-36 -50 -105 -70 -190 -70c-47 0 -98 5 -144 13zM180 -175h-108v99h108
v-99zM345 -175h-109v99h109v-99z" />
    <glyph glyph-name="uniFB85" unicode="&#x68c;" horiz-adv-x="500" arabic-form="final" 
d="M24 121c60 -8 113 -14 172 -14c49 0 93 5 104 40c3 9 4 19 4 31c0 15 -2 34 -7 58c-19 90 -50 182 -81 264h113c33 -98 57 -185 79 -283c13 -54 25 -108 93 -108v-120h-14c-55 0 -85 29 -103 68h-2c-36 -50 -105 -70 -190 -70c-47 0 -98 5 -144 13zM207 616h-108v99h108
v-99zM372 616h-109v99h109v-99z" />
    <glyph glyph-name="uniFB87" unicode="&#x68e;" horiz-adv-x="500" arabic-form="final" 
d="M24 121c60 -8 113 -14 172 -14c49 0 93 5 104 40c3 9 4 19 4 31c0 15 -2 34 -7 58c-19 90 -50 182 -81 264h113c33 -98 57 -185 79 -283c13 -54 25 -108 93 -108v-120h-14c-55 0 -85 29 -103 68h-2c-36 -50 -105 -70 -190 -70c-47 0 -98 5 -144 13zM207 616h-109v99h109
v-99zM372 616h-109v99h109v-99zM290 753h-109v99h109v-99z" />
    <glyph glyph-name="uniFB89" unicode="&#x688;" horiz-adv-x="500" arabic-form="final" 
d="M24 121c60 -8 113 -14 172 -14c49 0 93 5 104 40c3 9 4 19 4 31c0 15 -2 34 -7 58c-19 90 -50 182 -81 264h113c33 -98 57 -185 79 -283c13 -54 25 -108 93 -108v-120h-14c-55 0 -85 29 -103 68h-2c-36 -50 -105 -70 -190 -70c-47 0 -98 5 -144 13zM137 676v241h56v-157
l2 -1c12 17 26 31 41 42s34 16 55 16c65 0 94 -50 94 -114c0 -57 -26 -82 -78 -85c-16 -1 -33 -2 -51 -2c-63 0 -118 0 -173 6l-8 57c20 -3 39 -3 62 -3zM332 704c0 32 -18 55 -47 55c-23 0 -40 -13 -53 -26c-15 -16 -28 -38 -38 -59h57c37 0 81 -8 81 30z" />
    <glyph glyph-name="uniFB8B" unicode="&#x698;" horiz-adv-x="417" arabic-form="final" 
d="M100 -133c103 0 132 75 132 177c0 80 -18 143 -38 206c-8 25 -17 52 -27 80h106c21 -53 37 -108 48 -169c7 -43 44 -52 96 -52v-120h-12c-37 0 -55 10 -71 30c-1 0 -1 -1 -2 -1c-4 -89 -29 -159 -72 -206c-36 -39 -88 -66 -157 -66c-41 0 -69 7 -103 20v120
c36 -11 62 -19 100 -19zM172 449h-109v99h109v-99zM337 449h-109v99h109v-99zM255 586h-109v99h109v-99z" />
    <glyph glyph-name="uniFB8D" unicode="&#x691;" horiz-adv-x="417" arabic-form="final" 
d="M100 -133c103 0 132 75 132 177c0 80 -18 143 -38 206c-8 25 -17 52 -27 80h106c21 -53 37 -108 48 -169c7 -43 44 -52 96 -52v-120h-12c-37 0 -55 10 -71 30c-1 0 -1 -1 -2 -1c-4 -89 -29 -159 -72 -206c-36 -39 -88 -66 -157 -66c-41 0 -69 7 -103 20v120
c36 -11 62 -19 100 -19zM102 513v241h56v-157l2 -1c12 17 26 31 41 42s34 16 55 16c65 0 94 -50 94 -114c0 -57 -26 -82 -78 -85c-16 -1 -33 -2 -51 -2c-63 0 -118 0 -173 6l-8 57c20 -3 39 -3 62 -3zM297 541c0 32 -18 55 -47 55c-23 0 -40 -13 -53 -26
c-15 -16 -28 -38 -38 -59h57c37 0 81 -8 81 30z" />
    <glyph glyph-name="uniFB8F" unicode="&#x6a9;" horiz-adv-x="918" arabic-form="final" 
d="M183 317c-7 -34 -16 -65 -16 -105c0 -79 50 -96 124 -103c55 -5 112 -5 178 -5c72 0 139 -1 191 13c31 9 56 19 56 56c0 38 -25 77 -76 117s-125 84 -223 131v100l426 271v-126l-304 -187c74 -36 141 -76 193 -127c41 -40 71 -86 81 -151c9 -57 39 -91 105 -92v-120h-10
c-64 0 -107 31 -130 74h-3c-65 -80 -205 -78 -353 -78c-136 0 -268 2 -322 84c-21 31 -32 72 -32 123c0 45 7 89 17 125h98z" />
    <glyph glyph-name="uniFB90" unicode="&#x6a9;" horiz-adv-x="500" arabic-form="initial" 
d="M-34 49c0 29 8 60 34 60h144c50 0 90 0 122 13c21 9 33 22 33 50c0 20 -6 39 -19 58s-32 40 -57 60c-62 50 -140 90 -223 131v100l425 271v-126l-304 -187c75 -37 146 -79 199 -132c42 -42 77 -94 77 -170c0 -110 -66 -159 -159 -179c-27 -6 -59 -9 -96 -9h-142
c-27 0 -34 30 -34 60z" />
    <glyph glyph-name="uniFB91" unicode="&#x6a9;" horiz-adv-x="500" arabic-form="medial" 
d="M-34 49c0 29 8 60 34 60h144c50 0 90 0 122 13c21 9 33 22 33 50c0 20 -6 39 -19 58s-32 40 -57 60c-62 50 -140 90 -223 131v100l425 271v-126l-304 -187c74 -37 141 -76 193 -127c41 -40 73 -86 82 -151c10 -57 37 -92 105 -92v-120h-11c-64 0 -106 31 -129 74h-3
c-41 -54 -120 -74 -216 -74h-142c-27 0 -34 30 -34 60z" />
    <glyph glyph-name="uniFB93" unicode="&#x6af;" horiz-adv-x="918" arabic-form="final" 
d="M183 317c-7 -34 -16 -65 -16 -105c0 -79 50 -96 124 -103c55 -5 112 -5 178 -5c72 0 139 -1 191 13c31 9 56 19 56 56c0 38 -25 77 -76 117s-125 84 -223 131v100l426 271v-126l-304 -187c74 -36 141 -76 193 -127c41 -40 71 -86 81 -151c9 -57 39 -91 105 -92v-120h-10
c-64 0 -107 31 -130 74h-3c-65 -80 -205 -78 -353 -78c-136 0 -268 2 -322 84c-21 31 -32 72 -32 123c0 45 7 89 17 125h98zM842 944v-84l-425 -270v83z" />
    <glyph glyph-name="uniFB94" unicode="&#x6af;" horiz-adv-x="500" arabic-form="initial" 
d="M-34 49c0 29 8 60 34 60h144c50 0 90 0 122 13c21 9 33 22 33 50c0 20 -6 39 -19 58s-32 40 -57 60c-62 50 -140 90 -223 131v100l425 271v-126l-304 -187c75 -37 146 -79 199 -132c42 -42 77 -94 77 -170c0 -110 -66 -159 -159 -179c-27 -6 -59 -9 -96 -9h-142
c-27 0 -34 30 -34 60zM425 944v-84l-425 -270v83z" />
    <glyph glyph-name="uniFB95" unicode="&#x6af;" horiz-adv-x="500" arabic-form="medial" 
d="M-34 49c0 29 8 60 34 60h144c50 0 90 0 122 13c21 9 33 22 33 50c0 20 -6 39 -19 58s-32 40 -57 60c-62 50 -140 90 -223 131v100l425 271v-126l-304 -187c74 -37 141 -76 193 -127c41 -40 73 -86 82 -151c10 -57 37 -92 105 -92v-120h-11c-64 0 -106 31 -129 74h-3
c-41 -54 -120 -74 -216 -74h-142c-27 0 -34 30 -34 60zM425 944v-84l-425 -270v83z" />
    <glyph glyph-name="uniFB97" unicode="&#x6b3;" horiz-adv-x="918" arabic-form="final" 
d="M183 317c-7 -34 -16 -65 -16 -105c0 -79 50 -96 124 -103c55 -5 112 -5 178 -5c72 0 139 -1 191 13c31 9 56 19 56 56c0 38 -25 77 -76 117s-125 84 -223 131v100l426 271v-126l-304 -187c74 -36 141 -76 193 -127c41 -40 71 -86 81 -151c9 -57 39 -91 105 -92v-120h-10
c-64 0 -107 31 -130 74h-3c-65 -80 -205 -78 -353 -78c-136 0 -268 2 -322 84c-21 31 -32 72 -32 123c0 45 7 89 17 125h98zM514 -287h-109v99h109v-99zM514 -150h-109v99h109v-99zM842 944v-84l-425 -270v83z" />
    <glyph glyph-name="uniFB98" unicode="&#x6b3;" horiz-adv-x="500" arabic-form="initial" 
d="M-34 49c0 29 8 60 34 60h144c50 0 90 0 122 13c21 9 33 22 33 50c0 20 -6 39 -19 58s-32 40 -57 60c-62 50 -140 90 -223 131v100l425 271v-126l-304 -187c75 -37 146 -79 199 -132c42 -42 77 -94 77 -170c0 -110 -66 -159 -159 -179c-27 -6 -59 -9 -96 -9h-142
c-27 0 -34 30 -34 60zM263 -287h-109v99h109v-99zM263 -150h-109v99h109v-99zM425 944v-84l-425 -270v83z" />
    <glyph glyph-name="uniFB99" unicode="&#x6b3;" horiz-adv-x="500" arabic-form="medial" 
d="M-34 49c0 29 8 60 34 60h144c50 0 90 0 122 13c21 9 33 22 33 50c0 20 -6 39 -19 58s-32 40 -57 60c-62 50 -140 90 -223 131v100l425 271v-126l-304 -187c74 -37 141 -76 193 -127c41 -40 73 -86 82 -151c10 -57 37 -92 105 -92v-120h-11c-64 0 -106 31 -129 74h-3
c-41 -54 -120 -74 -216 -74h-142c-27 0 -34 30 -34 60zM263 -287h-109v99h109v-99zM263 -150h-109v99h109v-99zM425 944v-84l-425 -270v83z" />
    <glyph glyph-name="uniFB9B" unicode="&#x6b1;" horiz-adv-x="918" arabic-form="final" 
d="M183 317c-7 -34 -16 -65 -16 -105c0 -79 50 -96 124 -103c55 -5 112 -5 178 -5c72 0 139 -1 191 13c31 9 56 19 56 56c0 38 -25 77 -76 117s-125 84 -223 131v100l426 271v-126l-304 -187c74 -36 141 -76 193 -127c41 -40 71 -86 81 -151c9 -57 39 -91 105 -92v-120h-10
c-64 0 -107 31 -130 74h-3c-65 -80 -205 -78 -353 -78c-136 0 -268 2 -322 84c-21 31 -32 72 -32 123c0 45 7 89 17 125h98zM842 944v-84l-425 -270v83zM530 886h-108v99h108v-99zM695 886h-109v99h109v-99z" />
    <glyph glyph-name="uniFB9C" unicode="&#x6b1;" horiz-adv-x="500" arabic-form="initial" 
d="M-34 49c0 29 8 60 34 60h144c50 0 90 0 122 13c21 9 33 22 33 50c0 20 -6 39 -19 58s-32 40 -57 60c-62 50 -140 90 -223 131v100l425 271v-126l-304 -187c75 -37 146 -79 199 -132c42 -42 77 -94 77 -170c0 -110 -66 -159 -159 -179c-27 -6 -59 -9 -96 -9h-142
c-27 0 -34 30 -34 60zM425 944v-84l-425 -270v83zM113 886h-108v99h108v-99zM278 886h-109v99h109v-99z" />
    <glyph glyph-name="uniFB9D" unicode="&#x6b1;" horiz-adv-x="500" arabic-form="medial" 
d="M-34 49c0 29 8 60 34 60h144c50 0 90 0 122 13c21 9 33 22 33 50c0 20 -6 39 -19 58s-32 40 -57 60c-62 50 -140 90 -223 131v100l425 271v-126l-304 -187c74 -37 141 -76 193 -127c41 -40 73 -86 82 -151c10 -57 37 -92 105 -92v-120h-11c-64 0 -106 31 -129 74h-3
c-41 -54 -120 -74 -216 -74h-142c-27 0 -34 30 -34 60zM425 944v-84l-425 -270v83zM113 886h-108v99h108v-99zM278 886h-109v99h109v-99z" />
    <glyph glyph-name="uniFB9F" unicode="&#x6ba;" horiz-adv-x="667" arabic-form="final" 
d="M484 75c0 65 -8 120 -19 179h99c6 -36 10 -63 14 -98c6 -39 43 -47 90 -47v-120h-15c-35 0 -53 10 -70 27l-3 -1c-12 -173 -90 -269 -275 -269c-126 0 -200 49 -226 148c-8 32 -13 69 -13 111c0 57 6 101 17 156h96c-8 -49 -15 -93 -15 -146c0 -76 17 -122 75 -140
c19 -6 43 -9 72 -9c97 0 148 33 165 113c6 26 8 59 8 96z" />
    <glyph glyph-name="uniFBA1" unicode="&#x6bb;" horiz-adv-x="667" arabic-form="final" 
d="M484 75c0 65 -8 120 -19 179h99c6 -36 10 -63 14 -98c6 -39 43 -47 90 -47v-120h-15c-35 0 -53 10 -70 27l-3 -1c-12 -173 -90 -269 -275 -269c-126 0 -200 49 -226 148c-8 32 -13 69 -13 111c0 57 6 101 17 156h96c-8 -49 -15 -93 -15 -146c0 -76 17 -122 75 -140
c19 -6 43 -9 72 -9c97 0 148 33 165 113c6 26 8 59 8 96zM230 414v241h56v-157l2 -1c12 17 26 31 41 42s34 16 55 16c65 0 94 -50 94 -114c0 -57 -26 -82 -78 -85c-16 -1 -33 -2 -51 -2c-63 0 -118 0 -173 6l-8 57c20 -3 39 -3 62 -3zM425 442c0 32 -18 55 -47 55
c-23 0 -40 -13 -53 -26c-15 -16 -28 -38 -38 -59h57c37 0 81 -8 81 30z" />
    <glyph glyph-name="uniFBA2" unicode="&#x6bb;" horiz-adv-x="333" arabic-form="initial" 
d="M-34 49c0 29 8 60 34 60h73c40 0 65 4 75 33c3 10 5 23 5 39v228h97v-232c0 -72 -17 -121 -55 -152c-31 -25 -74 -36 -127 -36h-68c-26 0 -34 31 -34 60zM83 557v241h56v-157l2 -1c12 17 26 31 41 42s34 16 55 16c65 0 94 -50 94 -114c0 -57 -26 -82 -78 -85
c-16 -1 -33 -2 -51 -2c-63 0 -118 0 -173 6l-8 57c20 -3 39 -3 62 -3zM278 585c0 32 -18 55 -47 55c-23 0 -40 -13 -53 -26c-15 -16 -28 -38 -38 -59h57c37 0 81 -8 81 30z" />
    <glyph glyph-name="uniFBA3" unicode="&#x6bb;" horiz-adv-x="333" arabic-form="medial" 
d="M-34 49c0 29 8 60 34 60h73c39 0 64 6 75 34c4 9 5 22 5 38v228h97v-195c0 -50 0 -85 36 -99c11 -4 27 -6 48 -6v-120h-18c-59 0 -99 18 -118 57h-3c-26 -36 -69 -57 -129 -57h-66c-27 0 -34 30 -34 60zM83 557v241h56v-157l2 -1c12 17 26 31 41 42s34 16 55 16
c65 0 94 -50 94 -114c0 -57 -26 -82 -78 -85c-16 -1 -33 -2 -51 -2c-63 0 -118 0 -173 6l-8 57c20 -3 39 -3 62 -3zM278 585c0 32 -18 55 -47 55c-23 0 -40 -13 -53 -26c-15 -16 -28 -38 -38 -59h57c37 0 81 -8 81 30z" />
    <glyph glyph-name="uniFBA5" unicode="&#x6c0;" horiz-adv-x="500" arabic-form="final" 
d="M333 86c-24 -7 -51 -10 -80 -10c-82 0 -139 32 -167 88c-10 20 -15 44 -15 71c0 71 35 119 76 153c44 36 106 62 174 73v57h96v-313c0 -47 4 -78 38 -90c11 -4 26 -6 46 -6v-120h-20c-82 0 -126 35 -148 97zM255 190c25 0 46 4 66 9v149c-56 -11 -114 -28 -143 -66
c-8 -11 -12 -23 -12 -37c0 -46 43 -55 89 -55zM344 745c-10 3 -24 5 -35 5c-25 0 -45 -10 -45 -35c0 -30 25 -38 57 -38h45v-54h-180v51h40v2c-14 17 -20 34 -20 51c0 53 46 79 100 79c10 0 23 -1 38 -4v-57z" />
    <glyph glyph-name="uniFBA7" unicode="&#x6c1;" horiz-adv-x="500" arabic-form="final" 
d="M127 -18c0 -9 0 -17 1 -25h-88c-2 19 -3 35 -3 49c0 83 21 146 59 187c28 31 69 54 122 54c45 0 79 -17 108 -36c44 -29 81 -69 130 -92c14 -7 29 -10 45 -10v-120h-11c-47 0 -83 17 -112 36c-43 28 -76 68 -122 92c-13 7 -27 10 -41 10c-72 0 -88 -69 -88 -145z" />
    <glyph glyph-name="uniFBA8" unicode="&#x6c1;" horiz-adv-x="333" arabic-form="initial" 
d="M-34 49c0 29 8 60 34 60h73c40 0 65 4 75 33c3 10 5 23 5 39v228h97v-232c0 -72 -17 -121 -55 -152c-31 -25 -74 -36 -127 -36h-68c-26 0 -34 31 -34 60zM174 -40c-30 -14 -55 -37 -55 -78c0 -5 1 -10 2 -14c7 2 17 3 25 3c36 0 59 -23 59 -58c0 -29 -17 -48 -38 -57
c-8 -4 -18 -6 -29 -6c-57 0 -81 48 -81 105c0 29 7 57 22 82s40 46 75 62z" />
    <glyph glyph-name="uniFBA9" unicode="&#x6c1;" horiz-adv-x="500" arabic-form="medial" 
d="M-34 49c0 29 8 60 34 60h75c25 0 40 0 49 15c8 13 15 33 21 49c15 38 29 74 45 112h103c-32 -68 -56 -124 -74 -191c-10 -37 -15 -65 -15 -104c0 -58 19 -90 65 -100c12 100 60 171 141 203c27 11 57 16 91 16v-120c-124 0 -167 -82 -167 -214c0 -11 0 -20 1 -30
c-126 19 -227 63 -227 204c0 17 2 34 4 49l-3 1c-21 -7 -38 -10 -70 -10h-39c-27 0 -34 30 -34 60z" />
    <glyph glyph-name="uniFBAB" unicode="&#x6be;" horiz-adv-x="667" arabic-form="final" 
d="M33 122c68 -9 133 -13 210 -13c13 78 35 146 64 203c23 44 49 81 83 108c20 16 44 31 73 31c40 0 68 -36 85 -66c20 -35 36 -86 36 -139c0 -59 -21 -107 -54 -135l1 -2h137v-120h-129l-1 -1v-1c26 -25 46 -58 46 -103c0 -65 -39 -109 -85 -130c-17 -8 -36 -11 -57 -11
c-54 0 -94 23 -124 50c-48 43 -74 110 -81 196c-68 0 -127 0 -181 12c-8 40 -15 81 -23 121zM445 331c-7 0 -15 -5 -25 -15c-26 -26 -45 -68 -60 -112c-9 -28 -16 -59 -21 -95h52c34 0 57 20 72 42c14 21 25 50 25 82c0 35 -12 70 -28 89c-5 6 -10 9 -15 9zM441 -139
c29 0 48 16 48 42c0 24 -16 44 -30 57c-17 16 -44 29 -77 29h-49c8 -55 30 -100 72 -119c12 -6 24 -9 36 -9z" />
    <glyph glyph-name="uniFBAC" unicode="&#x6be;" horiz-adv-x="667" arabic-form="initial" 
d="M163 108c-50 23 -85 64 -85 136c0 66 27 116 61 150c13 14 29 25 46 34l1 3l-23 15v136c119 -65 228 -144 311 -234c36 -39 63 -77 82 -113s28 -69 28 -97c0 -57 -13 -111 -44 -137c-9 -8 -19 -12 -30 -12c-86 0 -163 18 -224 45c-51 -35 -128 -45 -213 -45h-73
c-29 0 -44 28 -44 60c0 33 14 60 44 60c55 0 110 -4 162 -4zM357 123c35 -12 78 -20 121 -23c5 9 6 18 6 26c0 29 -15 53 -29 73c-19 27 -45 53 -70 76l-3 -2c1 -10 2 -19 2 -30c0 -48 -9 -88 -27 -120zM272 150c20 32 30 59 30 101c0 35 -17 66 -37 82c-7 6 -15 8 -22 8
c-22 0 -39 -19 -49 -33s-22 -36 -22 -57c0 -36 21 -53 45 -70c13 -10 32 -20 55 -31z" />
    <glyph glyph-name="uniFBAD" unicode="&#x6be;" horiz-adv-x="500" arabic-form="medial" 
d="M-34 49c0 29 8 60 34 60h77c13 78 35 146 64 203c23 44 49 81 83 108c20 16 44 31 73 31c16 0 31 -6 46 -18c31 -26 53 -69 65 -115c7 -24 9 -48 9 -72c0 -59 -20 -107 -53 -135l1 -2h136v-120h-128l-1 -2c26 -25 45 -58 45 -103c0 -64 -38 -110 -84 -130
c-17 -8 -37 -11 -58 -11c-53 0 -93 23 -123 50c-47 43 -74 110 -81 196h-71c-27 0 -34 30 -34 60zM225 109c51 0 77 42 89 82c4 14 7 28 7 42c0 35 -11 70 -27 89c-5 6 -11 9 -16 9c-7 0 -14 -5 -24 -15c-26 -26 -44 -67 -59 -112c-9 -28 -17 -59 -22 -95h52zM274 -139
c29 0 48 16 48 42c0 24 -15 44 -29 57c-17 16 -44 29 -77 29h-49c8 -55 30 -100 71 -119c12 -6 24 -9 36 -9z" />
    <glyph glyph-name="uniFBAF" unicode="&#x6d2;" horiz-adv-x="333" arabic-form="final" 
d="M862 -212c-140 -14 -293 -22 -443 -22c-70 0 -129 3 -176 10c-79 11 -146 33 -176 84c-12 21 -18 45 -18 73c0 54 23 90 54 115c52 42 134 61 225 61h6v-120h-9c-60 0 -127 2 -163 -21c-11 -7 -16 -16 -16 -28c0 -30 31 -38 63 -44c22 -4 51 -8 87 -9s80 -2 131 -2
c151 0 298 9 435 22v-119z" />
    <glyph glyph-name="uniFBB1" unicode="&#x6d3;" horiz-adv-x="333" arabic-form="final" 
d="M862 -212c-140 -14 -293 -22 -443 -22c-70 0 -129 3 -176 10c-79 11 -146 33 -176 84c-12 21 -18 45 -18 73c0 54 23 90 54 115c52 42 134 61 225 61h6v-120h-9c-60 0 -127 2 -163 -21c-11 -7 -16 -16 -16 -28c0 -30 31 -38 63 -44c22 -4 51 -8 87 -9s80 -2 131 -2
c151 0 298 9 435 22v-119zM272 383c-10 3 -24 5 -35 5c-25 0 -45 -10 -45 -35c0 -30 25 -38 57 -38h45v-54h-180v51h40v2c-14 17 -20 34 -20 51c0 53 46 79 100 79c10 0 23 -1 38 -4v-57z" />
    <glyph glyph-name="uniFBD4" unicode="&#x6ad;" horiz-adv-x="834" arabic-form="final" 
d="M422 379c0 3 -2 5 -6 9s-11 9 -23 14c-25 11 -44 25 -44 58c0 31 23 51 45 64c28 16 67 27 107 33v-58c-30 -4 -51 -9 -65 -15s-20 -14 -20 -22c0 -4 1 -7 6 -11s14 -8 28 -14c23 -11 39 -22 39 -54c0 -28 -19 -47 -38 -61c-28 -20 -69 -32 -117 -34v59c59 3 88 14 88 32
zM183 317c-7 -34 -16 -65 -16 -105c0 -97 83 -104 179 -107c27 -1 59 -1 96 -1c41 0 75 1 102 2c45 2 84 8 100 35c7 11 10 27 10 47v552h97v-526c0 -50 0 -85 36 -99c11 -4 27 -6 48 -6v-120h-20c-59 0 -94 19 -113 58h-3c-54 -58 -157 -62 -270 -62c-91 0 -179 1 -247 23
c-75 24 -114 85 -114 183c0 47 7 87 17 126h98zM403 743h-109v99h109v-99zM568 743h-109v99h109v-99zM486 880h-109v99h109v-99z" />
    <glyph glyph-name="uniFBD5" unicode="&#x6ad;" horiz-adv-x="500" arabic-form="initial" 
d="M-34 49c0 29 8 60 34 60h144c50 0 90 0 122 13c21 9 33 22 33 50c0 20 -6 39 -19 58s-32 40 -57 60c-62 50 -140 90 -223 131v100l425 271v-126l-304 -187c75 -37 146 -79 199 -132c42 -42 77 -94 77 -170c0 -110 -66 -159 -159 -179c-27 -6 -59 -9 -96 -9h-142
c-27 0 -34 30 -34 60zM97 743h-109v99h109v-99zM262 743h-109v99h109v-99zM180 880h-109v99h109v-99z" />
    <glyph glyph-name="uniFBD6" unicode="&#x6ad;" horiz-adv-x="500" arabic-form="medial" 
d="M-34 49c0 29 8 60 34 60h144c50 0 90 0 122 13c21 9 33 22 33 50c0 20 -6 39 -19 58s-32 40 -57 60c-62 50 -140 90 -223 131v100l425 271v-126l-304 -187c74 -37 141 -76 193 -127c41 -40 73 -86 82 -151c10 -57 37 -92 105 -92v-120h-11c-64 0 -106 31 -129 74h-3
c-41 -54 -120 -74 -216 -74h-142c-27 0 -34 30 -34 60zM97 743h-109v99h109v-99zM262 743h-109v99h109v-99zM180 880h-109v99h109v-99z" />
    <glyph glyph-name="uniFBD8" unicode="&#x6c7;" horiz-adv-x="500" arabic-form="final" 
d="M0 -96c52 -20 103 -37 171 -37c89 0 135 45 144 124h-47c-119 0 -198 53 -198 168c0 57 22 110 48 145c24 34 63 70 116 70c25 0 48 -8 68 -22c40 -28 76 -88 93 -146c9 -30 15 -62 18 -97h88v-120h-89c-12 -108 -58 -188 -142 -225c-28 -12 -61 -18 -98 -18
c-70 0 -121 17 -172 38v120zM165 167c0 -51 43 -60 100 -60h51c-8 45 -20 83 -42 114c-10 14 -24 30 -44 30c-21 0 -36 -17 -46 -30s-19 -34 -19 -54zM225 526c-9 -2 -22 -3 -32 -3h-6c-45 0 -75 5 -112 15l10 48c29 -8 52 -14 85 -15c5 0 10 -1 16 -1v1l-1 1
c-15 21 -22 41 -22 61c0 41 28 65 59 75c11 4 22 5 33 5c51 0 87 -30 87 -82c0 -46 -27 -72 -61 -88c5 -7 8 -9 18 -16l-32 -36c-16 12 -29 23 -42 35zM245 580c21 8 41 22 41 50c0 21 -13 34 -32 34s-34 -12 -34 -32c0 -21 13 -39 25 -52z" />
    <glyph glyph-name="uniFBDA" unicode="&#x6c6;" horiz-adv-x="500" arabic-form="final" 
d="M0 -96c52 -20 103 -37 171 -37c89 0 135 45 144 124h-47c-119 0 -198 53 -198 168c0 57 22 110 48 145c24 34 63 70 116 70c25 0 48 -8 68 -22c40 -28 76 -88 93 -146c9 -30 15 -62 18 -97h88v-120h-89c-12 -108 -58 -188 -142 -225c-28 -12 -61 -18 -98 -18
c-70 0 -121 17 -172 38v120zM165 167c0 -51 43 -60 100 -60h51c-8 45 -20 83 -42 114c-10 14 -24 30 -44 30c-21 0 -36 -17 -46 -30s-19 -34 -19 -54zM312 689h79l-116 -176h-67l-119 176h81l72 -106z" />
    <glyph glyph-name="uniFBDC" unicode="&#x6c8;" horiz-adv-x="500" arabic-form="final" 
d="M0 -96c52 -20 103 -37 171 -37c89 0 135 45 144 124h-47c-119 0 -198 53 -198 168c0 57 22 110 48 145c24 34 63 70 116 70c25 0 48 -8 68 -22c40 -28 76 -88 93 -146c9 -30 15 -62 18 -97h88v-120h-89c-12 -108 -58 -188 -142 -225c-28 -12 -61 -18 -98 -18
c-70 0 -121 17 -172 38v120zM165 167c0 -51 43 -60 100 -60h51c-8 45 -20 83 -42 114c-10 14 -24 30 -44 30c-21 0 -36 -17 -46 -30s-19 -34 -19 -54zM277 512h-75v196h75v-196z" />
    <glyph glyph-name="uniFBDF" unicode="&#x6cb;" horiz-adv-x="500" arabic-form="final" 
d="M0 -96c52 -20 103 -37 171 -37c89 0 135 45 144 124h-47c-119 0 -198 53 -198 168c0 57 22 110 48 145c24 34 63 70 116 70c25 0 48 -8 68 -22c40 -28 76 -88 93 -146c9 -30 15 -62 18 -97h88v-120h-89c-12 -108 -58 -188 -142 -225c-28 -12 -61 -18 -98 -18
c-70 0 -121 17 -172 38v120zM165 167c0 -51 43 -60 100 -60h51c-8 45 -20 83 -42 114c-10 14 -24 30 -44 30c-21 0 -36 -17 -46 -30s-19 -34 -19 -54zM201 504h-109v99h109v-99zM366 504h-109v99h109v-99zM284 641h-109v99h109v-99z" />
    <glyph glyph-name="uniFBE1" unicode="&#x6c5;" horiz-adv-x="500" arabic-form="final" 
d="M170 -255c-71 0 -123 18 -174 40v113c36 -15 68 -25 96 -30s53 -8 77 -8c65 0 103 17 126 58h-212v56h232c4 17 6 35 7 54c-22 -9 -45 -13 -74 -13c-77 0 -133 32 -160 84c-10 20 -16 45 -16 74c0 57 23 109 49 144c25 34 64 69 117 69c24 0 46 -6 66 -20
c42 -29 79 -89 96 -148c9 -32 15 -68 17 -109h84v-120h-86c-14 -107 -61 -188 -145 -225c-28 -13 -62 -19 -100 -19zM233 263c-21 0 -36 -16 -46 -30c-9 -13 -20 -33 -20 -53c0 -45 44 -58 89 -58c23 0 46 3 63 11c-4 21 -10 42 -18 59c-10 27 -25 53 -48 66
c-6 4 -13 5 -20 5z" />
    <glyph glyph-name="uniFBE3" unicode="&#x6c9;" horiz-adv-x="500" arabic-form="final" 
d="M0 -96c52 -20 103 -37 171 -37c89 0 135 45 144 124h-47c-119 0 -198 53 -198 168c0 57 22 110 48 145c24 34 63 70 116 70c25 0 48 -8 68 -22c40 -28 76 -88 93 -146c9 -30 15 -62 18 -97h88v-120h-89c-12 -108 -58 -188 -142 -225c-28 -12 -61 -18 -98 -18
c-70 0 -121 17 -172 38v120zM165 167c0 -51 43 -60 100 -60h51c-8 45 -20 83 -42 114c-10 14 -24 30 -44 30c-21 0 -36 -17 -46 -30s-19 -34 -19 -54zM205 689h67l119 -176h-81l-72 107l-70 -107h-79z" />
    <glyph glyph-name="uniFBE5" unicode="&#x6d0;" horiz-adv-x="834" arabic-form="final" 
d="M188 371c-11 -41 -21 -80 -21 -131c0 -76 27 -115 88 -133c23 -7 54 -10 92 -10c45 0 82 -1 113 8c18 5 32 14 32 34c0 14 -6 26 -11 37c-7 14 -16 34 -16 55c0 49 34 81 71 95c15 6 31 8 49 8c64 0 91 -39 113 -82c24 -48 38 -102 82 -130c14 -9 32 -13 55 -13v-120h-10
c-124 0 -156 104 -197 187c-7 15 -15 26 -22 34s-15 13 -24 13c-16 0 -25 -12 -25 -28c0 -14 7 -29 12 -39c6 -13 15 -34 15 -52c0 -51 -39 -80 -78 -97c-44 -19 -106 -29 -167 -29c-173 0 -270 76 -270 247c0 55 11 100 23 146h96zM403 -290h-109v99h109v-99zM403 -153
h-109v99h109v-99z" />
    <glyph glyph-name="uniFBE6" unicode="&#x6d0;" horiz-adv-x="333" arabic-form="initial" 
d="M-34 49c0 29 8 60 34 60h73c40 0 65 4 75 33c3 10 5 23 5 39v228h97v-232c0 -72 -17 -121 -55 -152c-31 -25 -74 -36 -127 -36h-68c-26 0 -34 31 -34 60zM244 -287h-109v99h109v-99zM244 -150h-109v99h109v-99z" />
    <glyph glyph-name="uniFBE7" unicode="&#x6d0;" horiz-adv-x="333" arabic-form="medial" 
d="M-34 49c0 29 8 60 34 60h73c39 0 64 6 75 34c4 9 5 22 5 38v228h97v-195c0 -50 0 -85 36 -99c11 -4 27 -6 48 -6v-120h-18c-59 0 -99 18 -118 57h-3c-26 -36 -69 -57 -129 -57h-66c-27 0 -34 30 -34 60zM244 -287h-109v99h109v-99zM244 -150h-109v99h109v-99z" />
    <glyph glyph-name="uniFBE8" unicode="&#x649;" horiz-adv-x="333" arabic-form="initial" 
d="M-34 49c0 29 8 60 34 60h73c40 0 65 4 75 33c3 10 5 23 5 39v228h97v-232c0 -72 -17 -121 -55 -152c-31 -25 -74 -36 -127 -36h-68c-26 0 -34 31 -34 60z" />
    <glyph glyph-name="uniFBE9" unicode="&#x649;" horiz-adv-x="333" arabic-form="medial" 
d="M-34 49c0 29 8 60 34 60h73c39 0 64 6 75 34c4 9 5 22 5 38v228h97v-195c0 -50 0 -85 36 -99c11 -4 27 -6 48 -6v-120h-18c-59 0 -99 18 -118 57h-3c-26 -36 -69 -57 -129 -57h-66c-27 0 -34 30 -34 60z" />
    <glyph glyph-name="uniFBEA" unicode="&#xfbea;" horiz-adv-x="584" arabic-form="isolated" 
d="M231 -11c-122 0 -161 77 -161 197v554h97v-526c0 -51 1 -86 38 -99c11 -4 25 -6 45 -6v-120h-19zM216 49c0 29 8 60 34 60h73c40 0 65 4 75 33c3 10 5 23 5 39v228h97v-232c0 -72 -17 -121 -55 -152c-31 -25 -74 -36 -127 -36h-68c-26 0 -34 31 -34 60zM503 639
c-10 3 -24 5 -35 5c-25 0 -45 -10 -45 -35c0 -30 25 -38 57 -38h45v-54h-180v51h40v2c-14 17 -20 34 -20 51c0 53 46 79 100 79c10 0 23 -1 38 -4v-57z" />
    <glyph glyph-name="uniFBEB" unicode="&#xfbeb;" horiz-adv-x="584" arabic-form="final" 
d="M231 -11c-122 0 -161 77 -161 197v554h97v-526c0 -51 1 -86 38 -99c11 -4 25 -6 45 -6v-120h-19zM216 49c0 29 8 60 34 60h73c39 0 64 6 75 34c4 9 5 22 5 38v228h97v-195c0 -50 0 -85 36 -99c11 -4 27 -6 48 -6v-120h-18c-59 0 -99 18 -118 57h-3
c-26 -36 -69 -57 -129 -57h-66c-27 0 -34 30 -34 60zM495 619c-10 3 -24 5 -35 5c-25 0 -45 -10 -45 -35c0 -30 25 -38 57 -38h45v-54h-180v51h40v2c-14 17 -20 34 -20 51c0 53 46 79 100 79c10 0 23 -1 38 -4v-57z" />
    <glyph glyph-name="uniFBEC" unicode="&#xfbec;" horiz-adv-x="834" arabic-form="isolated" 
d="M333 86c-24 -7 -51 -10 -80 -10c-82 0 -139 32 -167 88c-10 20 -15 44 -15 71c0 71 35 119 76 153c44 36 106 62 174 73v57h96v-313c0 -47 4 -78 38 -90c11 -4 26 -6 46 -6v-120h-20c-82 0 -126 35 -148 97zM255 190c25 0 46 4 66 9v149c-56 -11 -114 -28 -143 -66
c-8 -11 -12 -23 -12 -37c0 -46 43 -55 89 -55zM467 49c0 29 8 60 34 60h73c40 0 65 4 75 33c3 10 5 23 5 39v228h97v-232c0 -72 -17 -121 -55 -152c-31 -25 -74 -36 -127 -36h-68c-26 0 -34 31 -34 60zM754 639c-10 3 -24 5 -35 5c-25 0 -45 -10 -45 -35
c0 -30 25 -38 57 -38h45v-54h-180v51h40v2c-14 17 -20 34 -20 51c0 53 46 79 100 79c10 0 23 -1 38 -4v-57z" />
    <glyph glyph-name="uniFBED" unicode="&#xfbed;" horiz-adv-x="834" arabic-form="final" 
d="M333 86c-24 -7 -51 -10 -80 -10c-82 0 -139 32 -167 88c-10 20 -15 44 -15 71c0 71 35 119 76 153c44 36 106 62 174 73v57h96v-313c0 -47 4 -78 38 -90c11 -4 26 -6 46 -6v-120h-20c-82 0 -126 35 -148 97zM255 190c25 0 46 4 66 9v149c-56 -11 -114 -28 -143 -66
c-8 -11 -12 -23 -12 -37c0 -46 43 -55 89 -55zM467 49c0 29 8 60 34 60h73c39 0 64 6 75 34c4 9 5 22 5 38v228h97v-195c0 -50 0 -85 36 -99c11 -4 27 -6 48 -6v-120h-18c-59 0 -99 18 -118 57h-3c-26 -36 -69 -57 -129 -57h-66c-27 0 -34 30 -34 60zM746 619
c-10 3 -24 5 -35 5c-25 0 -45 -10 -45 -35c0 -30 25 -38 57 -38h45v-54h-180v51h40v2c-14 17 -20 34 -20 51c0 53 46 79 100 79c10 0 23 -1 38 -4v-57z" />
    <glyph glyph-name="uniFBEE" unicode="&#xfbee;" horiz-adv-x="834" arabic-form="isolated" 
d="M0 -96c52 -20 103 -37 171 -37c89 0 135 45 144 124h-47c-119 0 -198 53 -198 168c0 57 22 110 48 145c24 34 63 70 116 70c25 0 48 -8 68 -22c40 -28 76 -88 93 -146c9 -30 15 -62 18 -97h88v-120h-89c-12 -108 -58 -188 -142 -225c-28 -12 -61 -18 -98 -18
c-70 0 -121 17 -172 38v120zM165 167c0 -51 43 -60 100 -60h51c-8 45 -20 83 -42 114c-10 14 -24 30 -44 30c-21 0 -36 -17 -46 -30s-19 -34 -19 -54zM467 49c0 29 8 60 34 60h73c40 0 65 4 75 33c3 10 5 23 5 39v228h97v-232c0 -72 -17 -121 -55 -152
c-31 -25 -74 -36 -127 -36h-68c-26 0 -34 31 -34 60zM754 639c-10 3 -24 5 -35 5c-25 0 -45 -10 -45 -35c0 -30 25 -38 57 -38h45v-54h-180v51h40v2c-14 17 -20 34 -20 51c0 53 46 79 100 79c10 0 23 -1 38 -4v-57z" />
    <glyph glyph-name="uniFBEF" unicode="&#xfbef;" horiz-adv-x="834" arabic-form="final" 
d="M0 -96c52 -20 103 -37 171 -37c89 0 135 45 144 124h-47c-119 0 -198 53 -198 168c0 57 22 110 48 145c24 34 63 70 116 70c25 0 48 -8 68 -22c40 -28 76 -88 93 -146c9 -30 15 -62 18 -97h88v-120h-89c-12 -108 -58 -188 -142 -225c-28 -12 -61 -18 -98 -18
c-70 0 -121 17 -172 38v120zM165 167c0 -51 43 -60 100 -60h51c-8 45 -20 83 -42 114c-10 14 -24 30 -44 30c-21 0 -36 -17 -46 -30s-19 -34 -19 -54zM467 49c0 29 8 60 34 60h73c39 0 64 6 75 34c4 9 5 22 5 38v228h97v-195c0 -50 0 -85 36 -99c11 -4 27 -6 48 -6v-120h-18
c-59 0 -99 18 -118 57h-3c-26 -36 -69 -57 -129 -57h-66c-27 0 -34 30 -34 60zM746 619c-10 3 -24 5 -35 5c-25 0 -45 -10 -45 -35c0 -30 25 -38 57 -38h45v-54h-180v51h40v2c-14 17 -20 34 -20 51c0 53 46 79 100 79c10 0 23 -1 38 -4v-57z" />
    <glyph glyph-name="uniFBF0" unicode="&#xfbf0;" horiz-adv-x="834" arabic-form="isolated" 
d="M0 -96c52 -20 103 -37 171 -37c89 0 135 45 144 124h-47c-119 0 -198 53 -198 168c0 57 22 110 48 145c24 34 63 70 116 70c25 0 48 -8 68 -22c40 -28 76 -88 93 -146c9 -30 15 -62 18 -97h88v-120h-89c-12 -108 -58 -188 -142 -225c-28 -12 -61 -18 -98 -18
c-70 0 -121 17 -172 38v120zM165 167c0 -51 43 -60 100 -60h51c-8 45 -20 83 -42 114c-10 14 -24 30 -44 30c-21 0 -36 -17 -46 -30s-19 -34 -19 -54zM225 526c-9 -2 -22 -3 -32 -3h-6c-45 0 -75 5 -112 15l10 48c29 -8 52 -14 85 -15c5 0 10 -1 16 -1v1l-1 1
c-15 21 -22 41 -22 61c0 41 28 65 59 75c11 4 22 5 33 5c51 0 87 -30 87 -82c0 -46 -27 -72 -61 -88c5 -7 8 -9 18 -16l-32 -36c-16 12 -29 23 -42 35zM245 580c21 8 41 22 41 50c0 21 -13 34 -32 34s-34 -12 -34 -32c0 -21 13 -39 25 -52zM467 49c0 29 8 60 34 60h73
c40 0 65 4 75 33c3 10 5 23 5 39v228h97v-232c0 -72 -17 -121 -55 -152c-31 -25 -74 -36 -127 -36h-68c-26 0 -34 31 -34 60zM754 639c-10 3 -24 5 -35 5c-25 0 -45 -10 -45 -35c0 -30 25 -38 57 -38h45v-54h-180v51h40v2c-14 17 -20 34 -20 51c0 53 46 79 100 79
c10 0 23 -1 38 -4v-57z" />
    <glyph glyph-name="uniFBF1" unicode="&#xfbf1;" horiz-adv-x="834" arabic-form="final" 
d="M0 -96c52 -20 103 -37 171 -37c89 0 135 45 144 124h-47c-119 0 -198 53 -198 168c0 57 22 110 48 145c24 34 63 70 116 70c25 0 48 -8 68 -22c40 -28 76 -88 93 -146c9 -30 15 -62 18 -97h88v-120h-89c-12 -108 -58 -188 -142 -225c-28 -12 -61 -18 -98 -18
c-70 0 -121 17 -172 38v120zM165 167c0 -51 43 -60 100 -60h51c-8 45 -20 83 -42 114c-10 14 -24 30 -44 30c-21 0 -36 -17 -46 -30s-19 -34 -19 -54zM225 526c-9 -2 -22 -3 -32 -3h-6c-45 0 -75 5 -112 15l10 48c29 -8 52 -14 85 -15c5 0 10 -1 16 -1v1l-1 1
c-15 21 -22 41 -22 61c0 41 28 65 59 75c11 4 22 5 33 5c51 0 87 -30 87 -82c0 -46 -27 -72 -61 -88c5 -7 8 -9 18 -16l-32 -36c-16 12 -29 23 -42 35zM245 580c21 8 41 22 41 50c0 21 -13 34 -32 34s-34 -12 -34 -32c0 -21 13 -39 25 -52zM467 49c0 29 8 60 34 60h73
c39 0 64 6 75 34c4 9 5 22 5 38v228h97v-195c0 -50 0 -85 36 -99c11 -4 27 -6 48 -6v-120h-18c-59 0 -99 18 -118 57h-3c-26 -36 -69 -57 -129 -57h-66c-27 0 -34 30 -34 60zM746 619c-10 3 -24 5 -35 5c-25 0 -45 -10 -45 -35c0 -30 25 -38 57 -38h45v-54h-180v51h40v2
c-14 17 -20 34 -20 51c0 53 46 79 100 79c10 0 23 -1 38 -4v-57z" />
    <glyph glyph-name="uniFBF2" unicode="&#xfbf2;" horiz-adv-x="834" arabic-form="isolated" 
d="M0 -96c52 -20 103 -37 171 -37c89 0 135 45 144 124h-47c-119 0 -198 53 -198 168c0 57 22 110 48 145c24 34 63 70 116 70c25 0 48 -8 68 -22c40 -28 76 -88 93 -146c9 -30 15 -62 18 -97h88v-120h-89c-12 -108 -58 -188 -142 -225c-28 -12 -61 -18 -98 -18
c-70 0 -121 17 -172 38v120zM165 167c0 -51 43 -60 100 -60h51c-8 45 -20 83 -42 114c-10 14 -24 30 -44 30c-21 0 -36 -17 -46 -30s-19 -34 -19 -54zM312 689h79l-116 -176h-67l-119 176h81l72 -106zM467 49c0 29 8 60 34 60h73c40 0 65 4 75 33c3 10 5 23 5 39v228h97
v-232c0 -72 -17 -121 -55 -152c-31 -25 -74 -36 -127 -36h-68c-26 0 -34 31 -34 60zM754 639c-10 3 -24 5 -35 5c-25 0 -45 -10 -45 -35c0 -30 25 -38 57 -38h45v-54h-180v51h40v2c-14 17 -20 34 -20 51c0 53 46 79 100 79c10 0 23 -1 38 -4v-57z" />
    <glyph glyph-name="uniFBF3" unicode="&#xfbf3;" horiz-adv-x="834" arabic-form="final" 
d="M0 -96c52 -20 103 -37 171 -37c89 0 135 45 144 124h-47c-119 0 -198 53 -198 168c0 57 22 110 48 145c24 34 63 70 116 70c25 0 48 -8 68 -22c40 -28 76 -88 93 -146c9 -30 15 -62 18 -97h88v-120h-89c-12 -108 -58 -188 -142 -225c-28 -12 -61 -18 -98 -18
c-70 0 -121 17 -172 38v120zM165 167c0 -51 43 -60 100 -60h51c-8 45 -20 83 -42 114c-10 14 -24 30 -44 30c-21 0 -36 -17 -46 -30s-19 -34 -19 -54zM312 689h79l-116 -176h-67l-119 176h81l72 -106zM467 49c0 29 8 60 34 60h73c39 0 64 6 75 34c4 9 5 22 5 38v228h97v-195
c0 -50 0 -85 36 -99c11 -4 27 -6 48 -6v-120h-18c-59 0 -99 18 -118 57h-3c-26 -36 -69 -57 -129 -57h-66c-27 0 -34 30 -34 60zM746 619c-10 3 -24 5 -35 5c-25 0 -45 -10 -45 -35c0 -30 25 -38 57 -38h45v-54h-180v51h40v2c-14 17 -20 34 -20 51c0 53 46 79 100 79
c10 0 23 -1 38 -4v-57z" />
    <glyph glyph-name="uniFBF4" unicode="&#xfbf4;" horiz-adv-x="834" arabic-form="isolated" 
d="M0 -96c52 -20 103 -37 171 -37c89 0 135 45 144 124h-47c-119 0 -198 53 -198 168c0 57 22 110 48 145c24 34 63 70 116 70c25 0 48 -8 68 -22c40 -28 76 -88 93 -146c9 -30 15 -62 18 -97h88v-120h-89c-12 -108 -58 -188 -142 -225c-28 -12 -61 -18 -98 -18
c-70 0 -121 17 -172 38v120zM165 167c0 -51 43 -60 100 -60h51c-8 45 -20 83 -42 114c-10 14 -24 30 -44 30c-21 0 -36 -17 -46 -30s-19 -34 -19 -54zM277 512h-75v196h75v-196zM467 49c0 29 8 60 34 60h73c40 0 65 4 75 33c3 10 5 23 5 39v228h97v-232
c0 -72 -17 -121 -55 -152c-31 -25 -74 -36 -127 -36h-68c-26 0 -34 31 -34 60zM754 639c-10 3 -24 5 -35 5c-25 0 -45 -10 -45 -35c0 -30 25 -38 57 -38h45v-54h-180v51h40v2c-14 17 -20 34 -20 51c0 53 46 79 100 79c10 0 23 -1 38 -4v-57z" />
    <glyph glyph-name="uniFBF5" unicode="&#xfbf5;" horiz-adv-x="834" arabic-form="final" 
d="M0 -96c52 -20 103 -37 171 -37c89 0 135 45 144 124h-47c-119 0 -198 53 -198 168c0 57 22 110 48 145c24 34 63 70 116 70c25 0 48 -8 68 -22c40 -28 76 -88 93 -146c9 -30 15 -62 18 -97h88v-120h-89c-12 -108 -58 -188 -142 -225c-28 -12 -61 -18 -98 -18
c-70 0 -121 17 -172 38v120zM165 167c0 -51 43 -60 100 -60h51c-8 45 -20 83 -42 114c-10 14 -24 30 -44 30c-21 0 -36 -17 -46 -30s-19 -34 -19 -54zM277 512h-75v196h75v-196zM467 49c0 29 8 60 34 60h73c39 0 64 6 75 34c4 9 5 22 5 38v228h97v-195c0 -50 0 -85 36 -99
c11 -4 27 -6 48 -6v-120h-18c-59 0 -99 18 -118 57h-3c-26 -36 -69 -57 -129 -57h-66c-27 0 -34 30 -34 60zM746 619c-10 3 -24 5 -35 5c-25 0 -45 -10 -45 -35c0 -30 25 -38 57 -38h45v-54h-180v51h40v2c-14 17 -20 34 -20 51c0 53 46 79 100 79c10 0 23 -1 38 -4v-57z" />
    <glyph glyph-name="uniFBF6" unicode="&#xfbf6;" horiz-adv-x="1168" arabic-form="isolated" 
d="M188 371c-11 -41 -21 -80 -21 -131c0 -76 27 -115 88 -133c23 -7 54 -10 92 -10c45 0 82 -1 113 8c18 5 32 14 32 34c0 14 -6 26 -11 37c-7 14 -16 34 -16 55c0 49 34 81 71 95c15 6 31 8 49 8c64 0 91 -39 113 -82c24 -48 38 -102 82 -130c14 -9 32 -13 55 -13v-120h-10
c-124 0 -156 104 -197 187c-7 15 -15 26 -22 34s-15 13 -24 13c-16 0 -25 -12 -25 -28c0 -14 7 -29 12 -39c6 -13 15 -34 15 -52c0 -51 -39 -80 -78 -97c-44 -19 -106 -29 -167 -29c-173 0 -270 76 -270 247c0 55 11 100 23 146h96zM403 -289h-109v99h109v-99zM403 -152
h-109v99h109v-99zM801 49c0 29 8 60 34 60h73c40 0 65 4 75 33c3 10 5 23 5 39v228h97v-232c0 -72 -17 -121 -55 -152c-31 -25 -74 -36 -127 -36h-68c-26 0 -34 31 -34 60zM1088 639c-10 3 -24 5 -35 5c-25 0 -45 -10 -45 -35c0 -30 25 -38 57 -38h45v-54h-180v51h40v2
c-14 17 -20 34 -20 51c0 53 46 79 100 79c10 0 23 -1 38 -4v-57z" />
    <glyph glyph-name="uniFBF7" unicode="&#xfbf7;" horiz-adv-x="1168" arabic-form="final" 
d="M188 371c-11 -41 -21 -80 -21 -131c0 -76 27 -115 88 -133c23 -7 54 -10 92 -10c45 0 82 -1 113 8c18 5 32 14 32 34c0 14 -6 26 -11 37c-7 14 -16 34 -16 55c0 49 34 81 71 95c15 6 31 8 49 8c64 0 91 -39 113 -82c24 -48 38 -102 82 -130c14 -9 32 -13 55 -13v-120h-10
c-124 0 -156 104 -197 187c-7 15 -15 26 -22 34s-15 13 -24 13c-16 0 -25 -12 -25 -28c0 -14 7 -29 12 -39c6 -13 15 -34 15 -52c0 -51 -39 -80 -78 -97c-44 -19 -106 -29 -167 -29c-173 0 -270 76 -270 247c0 55 11 100 23 146h96zM403 -289h-109v99h109v-99zM403 -152
h-109v99h109v-99zM801 49c0 29 8 60 34 60h73c39 0 64 6 75 34c4 9 5 22 5 38v228h97v-195c0 -50 0 -85 36 -99c11 -4 27 -6 48 -6v-120h-18c-59 0 -99 18 -118 57h-3c-26 -36 -69 -57 -129 -57h-66c-27 0 -34 30 -34 60zM1080 619c-10 3 -24 5 -35 5c-25 0 -45 -10 -45 -35
c0 -30 25 -38 57 -38h45v-54h-180v51h40v2c-14 17 -20 34 -20 51c0 53 46 79 100 79c10 0 23 -1 38 -4v-57z" />
    <glyph glyph-name="uniFBF8" unicode="&#xfbf8;" horiz-adv-x="667" arabic-form="initial" 
d="M-34 49c0 29 8 60 34 60h73c39 0 64 6 75 34c4 9 5 22 5 38v228h97v-195c0 -50 0 -85 36 -99c11 -4 27 -6 48 -6v-120h-18c-59 0 -99 18 -118 57h-3c-26 -36 -69 -57 -129 -57h-66c-27 0 -34 30 -34 60zM244 -287h-109v99h109v-99zM244 -150h-109v99h109v-99zM300 49
c0 29 8 60 34 60h73c40 0 65 4 75 33c3 10 5 23 5 39v228h97v-232c0 -72 -17 -121 -55 -152c-31 -25 -74 -36 -127 -36h-68c-26 0 -34 31 -34 60zM587 639c-10 3 -24 5 -35 5c-25 0 -45 -10 -45 -35c0 -30 25 -38 57 -38h45v-54h-180v51h40v2c-14 17 -20 34 -20 51
c0 53 46 79 100 79c10 0 23 -1 38 -4v-57z" />
    <glyph glyph-name="uniFBF9" unicode="&#xfbf9;" horiz-adv-x="1168" arabic-form="isolated" 
d="M188 271c-12 -45 -21 -82 -21 -135c0 -112 68 -149 184 -149c57 0 117 2 146 28c7 7 11 15 11 25c0 24 -16 41 -27 57c-12 18 -20 39 -20 66c0 57 34 94 75 111c15 6 31 10 49 10c61 0 90 -34 113 -73c24 -40 42 -81 88 -96c13 -4 29 -6 49 -6v-120h-10
c-114 0 -149 68 -192 141c-9 16 -18 27 -26 33s-16 8 -25 8c-16 0 -27 -11 -27 -28c0 -7 3 -14 7 -21s9 -15 16 -23c16 -21 25 -44 25 -69c0 -64 -42 -102 -87 -125c-48 -24 -115 -37 -184 -37c-173 0 -263 86 -263 255c0 55 10 103 22 148h97zM801 49c0 29 8 60 34 60h73
c40 0 65 4 75 33c3 10 5 23 5 39v228h97v-232c0 -72 -17 -121 -55 -152c-31 -25 -74 -36 -127 -36h-68c-26 0 -34 31 -34 60zM1088 639c-10 3 -24 5 -35 5c-25 0 -45 -10 -45 -35c0 -30 25 -38 57 -38h45v-54h-180v51h40v2c-14 17 -20 34 -20 51c0 53 46 79 100 79
c10 0 23 -1 38 -4v-57z" />
    <glyph glyph-name="uniFBFA" unicode="&#xfbfa;" horiz-adv-x="1168" arabic-form="final" 
d="M188 271c-12 -45 -21 -82 -21 -135c0 -112 68 -149 184 -149c57 0 117 2 146 28c7 7 11 15 11 25c0 24 -16 41 -27 57c-12 18 -20 39 -20 66c0 57 34 94 75 111c15 6 31 10 49 10c61 0 90 -34 113 -73c24 -40 42 -81 88 -96c13 -4 29 -6 49 -6v-120h-10
c-114 0 -149 68 -192 141c-9 16 -18 27 -26 33s-16 8 -25 8c-16 0 -27 -11 -27 -28c0 -7 3 -14 7 -21s9 -15 16 -23c16 -21 25 -44 25 -69c0 -64 -42 -102 -87 -125c-48 -24 -115 -37 -184 -37c-173 0 -263 86 -263 255c0 55 10 103 22 148h97zM801 49c0 29 8 60 34 60h73
c39 0 64 6 75 34c4 9 5 22 5 38v228h97v-195c0 -50 0 -85 36 -99c11 -4 27 -6 48 -6v-120h-18c-59 0 -99 18 -118 57h-3c-26 -36 -69 -57 -129 -57h-66c-27 0 -34 30 -34 60zM1080 619c-10 3 -24 5 -35 5c-25 0 -45 -10 -45 -35c0 -30 25 -38 57 -38h45v-54h-180v51h40v2
c-14 17 -20 34 -20 51c0 53 46 79 100 79c10 0 23 -1 38 -4v-57z" />
    <glyph glyph-name="uniFBFB" unicode="&#xfbfb;" horiz-adv-x="667" arabic-form="initial" 
d="M-34 49c0 29 8 60 34 60h73c39 0 64 6 75 34c4 9 5 22 5 38v228h97v-195c0 -50 0 -85 36 -99c11 -4 27 -6 48 -6v-120h-18c-59 0 -99 18 -118 57h-3c-26 -36 -69 -57 -129 -57h-66c-27 0 -34 30 -34 60zM300 49c0 29 8 60 34 60h73c40 0 65 4 75 33c3 10 5 23 5 39v228
h97v-232c0 -72 -17 -121 -55 -152c-31 -25 -74 -36 -127 -36h-68c-26 0 -34 31 -34 60zM587 639c-10 3 -24 5 -35 5c-25 0 -45 -10 -45 -35c0 -30 25 -38 57 -38h45v-54h-180v51h40v2c-14 17 -20 34 -20 51c0 53 46 79 100 79c10 0 23 -1 38 -4v-57z" />
    <glyph glyph-name="uniFBFD" unicode="&#x6cc;" horiz-adv-x="834" arabic-form="final" 
d="M188 271c-12 -45 -21 -82 -21 -135c0 -112 68 -149 184 -149c57 0 117 2 146 28c7 7 11 15 11 25c0 24 -16 41 -27 57c-12 18 -20 39 -20 66c0 57 34 94 75 111c15 6 31 10 49 10c61 0 90 -34 113 -73c24 -40 42 -81 88 -96c13 -4 29 -6 49 -6v-120h-10
c-114 0 -149 68 -192 141c-9 16 -18 27 -26 33s-16 8 -25 8c-16 0 -27 -11 -27 -28c0 -7 3 -14 7 -21s9 -15 16 -23c16 -21 25 -44 25 -69c0 -64 -42 -102 -87 -125c-48 -24 -115 -37 -184 -37c-173 0 -263 86 -263 255c0 55 10 103 22 148h97z" />
    <glyph glyph-name="uniFBFE" unicode="&#x6cc;" horiz-adv-x="333" arabic-form="initial" 
d="M-34 49c0 29 8 60 34 60h73c40 0 65 4 75 33c3 10 5 23 5 39v228h97v-232c0 -72 -17 -121 -55 -152c-31 -25 -74 -36 -127 -36h-68c-26 0 -34 31 -34 60zM133 -175h-108v99h108v-99zM298 -175h-109v99h109v-99z" />
    <glyph glyph-name="uniFBFF" unicode="&#x6cc;" horiz-adv-x="333" arabic-form="medial" 
d="M-34 49c0 29 8 60 34 60h73c39 0 64 6 75 34c4 9 5 22 5 38v228h97v-195c0 -50 0 -85 36 -99c11 -4 27 -6 48 -6v-120h-18c-59 0 -99 18 -118 57h-3c-26 -36 -69 -57 -129 -57h-66c-27 0 -34 30 -34 60zM133 -179h-108v99h108v-99zM298 -179h-109v99h109v-99z" />
    <glyph glyph-name="uniFC5E" unicode="&#xfc5e;" arabic-form="isolated" 
d="M272 780c2 -11 2 -24 2 -35c0 -65 -33 -105 -95 -105c-28 0 -50 9 -63 26h-2c-14 -17 -38 -26 -67 -26c-61 0 -86 40 -86 101c0 13 1 29 3 39h60c-2 -18 -3 -26 -3 -41c0 -27 9 -46 35 -46s32 20 32 48v20c0 5 0 12 -1 19h61c0 -10 -1 -29 -1 -39c0 -29 6 -48 33 -48
c28 0 35 18 35 46c0 14 -2 29 -4 41h61zM131 830c-12 -3 -26 -5 -40 -5c-45 0 -72 17 -95 40l-50 -46l-34 37l85 79c17 -21 33 -37 47 -47s29 -15 45 -16c2 0 3 1 5 1h1c-16 20 -24 40 -24 61c0 39 28 61 58 71c11 3 22 5 33 5c38 0 66 -18 79 -44c5 -10 8 -21 8 -34
c0 -45 -30 -70 -63 -85c7 -6 13 -11 20 -16l-32 -37c-15 12 -30 23 -43 36zM151 884c21 8 42 20 42 46c0 21 -13 32 -32 32c-18 0 -35 -11 -35 -30c0 -20 14 -36 25 -48z" />
    <glyph glyph-name="uniFC5F" unicode="&#xfc5f;" arabic-form="isolated" 
d="M272 977c2 -10 2 -25 2 -35c0 -65 -32 -106 -95 -106c-29 0 -50 10 -63 27h-2c-14 -17 -37 -27 -67 -27c-61 0 -86 40 -86 101c0 14 1 30 3 40h60c-2 -18 -3 -27 -3 -42c0 -27 9 -46 35 -46c27 0 32 20 32 49v20c0 5 0 12 -1 19h61c0 -9 -1 -29 -1 -39
c0 -29 5 -49 33 -49s35 19 35 47c0 13 -2 30 -4 41h61zM-10 786h258v-53h-258v53zM-10 692h258v-53h-258v53z" />
    <glyph glyph-name="uniFC60" unicode="&#xfc60;" arabic-form="isolated" 
d="M272 780c2 -11 2 -23 2 -34c0 -65 -33 -106 -95 -106c-28 0 -50 9 -63 26h-2c-14 -17 -38 -26 -67 -26c-61 0 -86 40 -86 101c0 13 1 29 3 39h60c-2 -18 -3 -26 -3 -41c0 -27 9 -46 35 -46s32 20 32 48v20c0 5 0 12 -1 19h61c0 -9 -1 -29 -1 -39c0 -29 5 -48 33 -48
s35 18 35 46c0 13 -2 30 -4 41h61zM-10 882h258v-53h-258v53z" />
    <glyph glyph-name="uniFC61" unicode="&#xfc61;" arabic-form="isolated" 
d="M272 780c2 -11 2 -23 2 -34c0 -65 -33 -106 -95 -106c-28 0 -50 9 -63 26h-2c-14 -17 -38 -26 -67 -26c-61 0 -86 40 -86 101c0 13 1 29 3 39h60c-2 -18 -3 -26 -3 -41c0 -27 9 -46 35 -46s32 20 32 48v20c0 5 0 12 -1 19h61c0 -9 -1 -29 -1 -39c0 -29 5 -48 33 -48
s35 18 35 46c0 13 -2 30 -4 41h61zM131 830c-10 -3 -27 -3 -39 -3c-40 0 -77 5 -110 15l10 48c33 -8 59 -15 97 -16h2c1 0 1 1 2 1c-14 14 -22 36 -22 59c0 39 27 61 57 71c11 3 23 5 34 5c39 0 66 -17 79 -44c5 -10 8 -22 8 -35c0 -45 -29 -69 -63 -84c7 -6 13 -11 20 -16
l-32 -37c-16 12 -30 23 -43 36zM151 884c21 8 42 20 42 46c0 21 -13 32 -32 32c-18 0 -35 -11 -35 -30s15 -36 25 -48z" />
    <glyph glyph-name="uniFC62" unicode="&#xfc62;" arabic-form="isolated" 
d="M272 883c2 -11 2 -24 2 -35c0 -65 -33 -106 -95 -106c-28 0 -50 10 -63 27h-2c-14 -17 -38 -27 -67 -27c-61 0 -86 40 -86 101c0 13 1 30 3 40h60c-2 -18 -3 -27 -3 -42c0 -27 9 -46 35 -46s32 21 32 49v20c0 5 0 12 -1 19h61c0 -9 -1 -29 -1 -39c0 -29 5 -49 33 -49
s35 19 35 47c0 13 -2 30 -4 41h61zM-10 692h258v-53h-258v53z" />
    <glyph glyph-name="uniFDFC" unicode="&#xfdfc;" horiz-adv-x="1502" arabic-form="isolated" 
d="M182 240c-7 -48 -15 -89 -15 -140c0 -76 17 -123 74 -141c19 -6 42 -8 71 -8c97 0 149 34 167 113c6 26 8 59 8 96v580h97v-590c0 -203 -75 -320 -278 -320c-126 0 -198 50 -224 149c-8 32 -12 69 -12 111c0 57 5 96 16 150h96zM915 104c55 0 73 24 73 79v226h97v-229
c0 -121 -55 -194 -171 -194c-98 0 -151 41 -168 120c-5 25 -8 52 -8 82v552h97v-523c0 -50 2 -90 36 -105c11 -5 26 -8 44 -8zM1086 -114c36 -11 62 -19 100 -19c103 0 133 75 133 177c0 79 -17 143 -38 206c-8 25 -17 52 -27 80h106c26 -67 47 -141 56 -223
c3 -24 3 -47 3 -69c0 -96 -24 -171 -68 -221c-37 -42 -91 -71 -163 -71c-41 0 -68 7 -102 20v120zM851 -181h-109v100h109v-100zM1015 -181h-108v100h108v-100z" />
    <glyph glyph-name="uniFE82" unicode="&#x622;" horiz-adv-x="250" arabic-form="final" 
d="M231 -11c-122 0 -161 77 -161 197v554h97v-526c0 -51 1 -86 38 -99c11 -4 25 -6 45 -6v-120h-19zM296 836c-23 -24 -49 -44 -93 -44c-36 0 -66 12 -92 23c-24 10 -50 23 -81 23c-23 0 -37 -12 -52 -25l-37 41c23 24 50 44 94 44c36 0 65 -12 91 -23c24 -10 50 -23 81 -23
c25 0 38 11 53 26z" />
    <glyph glyph-name="uniFE84" unicode="&#x623;" horiz-adv-x="250" arabic-form="final" 
d="M231 -11c-122 0 -161 77 -161 197v554h97v-526c0 -51 1 -86 38 -99c11 -4 25 -6 45 -6v-120h-19zM184 928c-10 3 -24 5 -35 5c-25 0 -45 -10 -45 -35c0 -30 25 -38 57 -38h45v-54h-180v51h40v2c-14 17 -20 34 -20 51c0 53 46 79 100 79c10 0 23 -1 38 -4v-57z" />
    <glyph glyph-name="uniFE86" unicode="&#x624;" horiz-adv-x="500" arabic-form="final" 
d="M0 -96c52 -20 103 -37 171 -37c89 0 135 45 144 124h-47c-119 0 -198 53 -198 168c0 57 22 110 48 145c24 34 63 70 116 70c25 0 48 -8 68 -22c40 -28 76 -88 93 -146c9 -30 15 -62 18 -97h88v-120h-89c-12 -108 -58 -188 -142 -225c-28 -12 -61 -18 -98 -18
c-70 0 -121 17 -172 38v120zM165 167c0 -51 43 -60 100 -60h51c-8 45 -20 83 -42 114c-10 14 -24 30 -44 30c-21 0 -36 -17 -46 -30s-19 -34 -19 -54zM300 640c-10 3 -24 5 -35 5c-25 0 -45 -10 -45 -35c0 -30 25 -38 57 -38h45v-54h-180v51h40v2c-14 17 -20 34 -20 51
c0 53 46 79 100 79c10 0 23 -1 38 -4v-57z" />
    <glyph glyph-name="uniFE88" unicode="&#x625;" horiz-adv-x="250" arabic-form="final" 
d="M231 -11c-122 0 -161 77 -161 197v554h97v-526c0 -51 1 -86 38 -99c11 -4 25 -6 45 -6v-120h-19zM184 -131c-10 3 -24 5 -35 5c-25 0 -45 -10 -45 -35c0 -30 25 -39 57 -39h45v-54h-180v51h40v2c-14 17 -20 34 -20 51c0 53 46 79 100 79c11 0 24 -1 38 -4v-56z" />
    <glyph glyph-name="uniFE8A" unicode="&#x626;" horiz-adv-x="834" arabic-form="final" 
d="M188 271c-12 -45 -21 -82 -21 -135c0 -112 68 -149 184 -149c57 0 117 2 146 28c7 7 11 15 11 25c0 24 -16 41 -27 57c-12 18 -20 39 -20 66c0 57 34 94 75 111c15 6 31 10 49 10c61 0 90 -34 113 -73c24 -40 42 -81 88 -96c13 -4 29 -6 49 -6v-120h-10
c-114 0 -149 68 -192 141c-9 16 -18 27 -26 33s-16 8 -25 8c-16 0 -27 -11 -27 -28c0 -7 3 -14 7 -21s9 -15 16 -23c16 -21 25 -44 25 -69c0 -64 -42 -102 -87 -125c-48 -24 -115 -37 -184 -37c-173 0 -263 86 -263 255c0 55 10 103 22 148h97zM217 499c-10 3 -24 5 -35 5
c-25 0 -45 -10 -45 -35c0 -30 25 -38 57 -38h45v-54h-180v51h40v2c-14 17 -20 34 -20 51c0 53 46 79 100 79c10 0 23 -1 38 -4v-57z" />
    <glyph glyph-name="uniFE8B" unicode="&#x626;" horiz-adv-x="333" arabic-form="initial" 
d="M-34 49c0 29 8 60 34 60h73c40 0 65 4 75 33c3 10 5 23 5 39v228h97v-232c0 -72 -17 -121 -55 -152c-31 -25 -74 -36 -127 -36h-68c-26 0 -34 31 -34 60zM253 638c-10 3 -24 5 -35 5c-25 0 -45 -10 -45 -35c0 -30 25 -38 57 -38h45v-54h-180v51h40v2
c-14 17 -20 34 -20 51c0 53 46 79 100 79c10 0 23 -1 38 -4v-57z" />
    <glyph glyph-name="uniFE8C" unicode="&#x626;" horiz-adv-x="333" arabic-form="medial" 
d="M-34 49c0 29 8 60 34 60h73c39 0 64 6 75 34c4 9 5 22 5 38v228h97v-195c0 -50 0 -85 36 -99c11 -4 27 -6 48 -6v-120h-18c-59 0 -99 18 -118 57h-3c-26 -36 -69 -57 -129 -57h-66c-27 0 -34 30 -34 60zM245 619c-10 3 -24 5 -35 5c-25 0 -45 -10 -45 -35
c0 -30 25 -38 57 -38h45v-54h-180v51h40v2c-14 17 -20 34 -20 51c0 53 46 79 100 79c10 0 23 -1 38 -4v-57z" />
    <glyph glyph-name="uniFE8E" unicode="&#x627;" horiz-adv-x="250" arabic-form="final" 
d="M231 -11c-122 0 -161 77 -161 197v554h97v-526c0 -51 1 -86 38 -99c11 -4 25 -6 45 -6v-120h-19z" />
    <glyph glyph-name="uniFE90" unicode="&#x628;" horiz-adv-x="918" arabic-form="final" 
d="M183 317c-7 -34 -16 -65 -16 -105c0 -78 51 -96 124 -103c59 -6 120 -5 193 -5c49 0 89 1 122 2c74 3 132 9 132 82v221h97v-195c0 -50 0 -85 36 -99c11 -4 26 -6 47 -6v-120h-19c-58 0 -94 19 -113 58h-3c-67 -63 -197 -62 -328 -62c-98 0 -195 0 -269 23
c-77 24 -118 84 -118 183c0 47 7 87 17 126h98zM514 -179h-109v99h109v-99z" />
    <glyph glyph-name="uniFE91" unicode="&#x628;" horiz-adv-x="333" arabic-form="initial" 
d="M-34 49c0 29 8 60 34 60h73c40 0 65 4 75 33c3 10 5 23 5 39v228h97v-232c0 -72 -17 -121 -55 -152c-31 -25 -74 -36 -127 -36h-68c-26 0 -34 31 -34 60zM244 -175h-109v99h109v-99z" />
    <glyph glyph-name="uniFE92" unicode="&#x628;" horiz-adv-x="333" arabic-form="medial" 
d="M-34 49c0 29 8 60 34 60h73c39 0 64 6 75 34c4 9 5 22 5 38v228h97v-195c0 -50 0 -85 36 -99c11 -4 27 -6 48 -6v-120h-18c-59 0 -99 18 -118 57h-3c-26 -36 -69 -57 -129 -57h-66c-27 0 -34 30 -34 60zM244 -179h-109v99h109v-99z" />
    <glyph glyph-name="uniFE94" unicode="&#x629;" horiz-adv-x="500" arabic-form="final" 
d="M333 86c-24 -7 -51 -10 -80 -10c-82 0 -139 32 -167 88c-10 20 -15 44 -15 71c0 71 35 119 76 153c44 36 106 62 174 73v57h96v-313c0 -47 4 -78 38 -90c11 -4 26 -6 46 -6v-120h-20c-82 0 -126 35 -148 97zM255 190c25 0 46 4 66 9v149c-56 -11 -114 -28 -143 -66
c-8 -11 -12 -23 -12 -37c0 -46 43 -55 89 -55zM242 624h-108v99h108v-99zM407 624h-109v99h109v-99z" />
    <glyph glyph-name="uniFE96" unicode="&#x62a;" horiz-adv-x="918" arabic-form="final" 
d="M183 317c-7 -34 -16 -65 -16 -105c0 -78 51 -96 124 -103c59 -6 120 -5 193 -5c49 0 89 1 122 2c74 3 132 9 132 82v221h97v-195c0 -50 0 -85 36 -99c11 -4 26 -6 47 -6v-120h-19c-58 0 -94 19 -113 58h-3c-67 -63 -197 -62 -328 -62c-98 0 -195 0 -269 23
c-77 24 -118 84 -118 183c0 47 7 87 17 126h98zM431 517h-108v99h108v-99zM596 517h-109v99h109v-99z" />
    <glyph glyph-name="uniFE97" unicode="&#x62a;" horiz-adv-x="333" arabic-form="initial" 
d="M-34 49c0 29 8 60 34 60h73c40 0 65 4 75 33c3 10 5 23 5 39v228h97v-232c0 -72 -17 -121 -55 -152c-31 -25 -74 -36 -127 -36h-68c-26 0 -34 31 -34 60zM171 517h-108v99h108v-99zM336 517h-109v99h109v-99z" />
    <glyph glyph-name="uniFE98" unicode="&#x62a;" horiz-adv-x="333" arabic-form="medial" 
d="M-34 49c0 29 8 60 34 60h73c39 0 64 6 75 34c4 9 5 22 5 38v228h97v-195c0 -50 0 -85 36 -99c11 -4 27 -6 48 -6v-120h-18c-59 0 -99 18 -118 57h-3c-26 -36 -69 -57 -129 -57h-66c-27 0 -34 30 -34 60zM171 517h-108v99h108v-99zM336 517h-109v99h109v-99z" />
    <glyph glyph-name="uniFE9A" unicode="&#x62b;" horiz-adv-x="918" arabic-form="final" 
d="M183 317c-7 -34 -16 -65 -16 -105c0 -78 51 -96 124 -103c59 -6 120 -5 193 -5c49 0 89 1 122 2c74 3 132 9 132 82v221h97v-195c0 -50 0 -85 36 -99c11 -4 26 -6 47 -6v-120h-19c-58 0 -94 19 -113 58h-3c-67 -63 -197 -62 -328 -62c-98 0 -195 0 -269 23
c-77 24 -118 84 -118 183c0 47 7 87 17 126h98zM431 517h-109v99h109v-99zM596 517h-109v99h109v-99zM514 654h-109v99h109v-99z" />
    <glyph glyph-name="uniFE9B" unicode="&#x62b;" horiz-adv-x="333" arabic-form="initial" 
d="M-34 49c0 29 8 60 34 60h73c40 0 65 4 75 33c3 10 5 23 5 39v228h97v-232c0 -72 -17 -121 -55 -152c-31 -25 -74 -36 -127 -36h-68c-26 0 -34 31 -34 60zM171 517h-109v99h109v-99zM336 517h-109v99h109v-99zM254 654h-109v99h109v-99z" />
    <glyph glyph-name="uniFE9C" unicode="&#x62b;" horiz-adv-x="333" arabic-form="medial" 
d="M-34 49c0 29 8 60 34 60h73c39 0 64 6 75 34c4 9 5 22 5 38v228h97v-195c0 -50 0 -85 36 -99c11 -4 27 -6 48 -6v-120h-18c-59 0 -99 18 -118 57h-3c-26 -36 -69 -57 -129 -57h-66c-27 0 -34 30 -34 60zM171 517h-109v99h109v-99zM336 517h-109v99h109v-99zM254 654h-109
v99h109v-99z" />
    <glyph glyph-name="uniFE9E" unicode="&#x62c;" horiz-adv-x="584" arabic-form="final" 
d="M83 438c39 12 77 20 127 20c68 0 114 -19 160 -41c48 -23 98 -40 169 -41l-22 -128c-18 -5 -36 -11 -54 -16c7 -61 20 -109 73 -119c14 -3 29 -4 48 -4v-120h-14c-134 0 -173 91 -185 217c-74 -28 -135 -58 -179 -104c-27 -28 -46 -59 -46 -106c0 -70 42 -106 97 -125
c24 -8 55 -12 91 -12c76 0 134 16 197 39v-114c-61 -21 -121 -38 -201 -38c-133 0 -227 48 -264 142c-11 29 -18 60 -18 95c0 76 26 132 61 177c53 69 136 113 232 144v5c-30 15 -55 28 -95 32c-12 1 -26 2 -42 2c-49 0 -97 -6 -135 -17v112zM385 -42h-109v99h109v-99z" />
    <glyph glyph-name="uniFE9F" unicode="&#x62c;" horiz-adv-x="584" arabic-form="initial" 
d="M83 400c43 13 81 20 134 20c68 0 117 -18 161 -42c43 -23 85 -45 145 -52c13 -1 28 -3 44 -4l-22 -131c-16 -4 -33 -10 -52 -22c-73 -44 -147 -97 -234 -132c-66 -27 -144 -48 -237 -48h-22c-27 0 -34 30 -34 60c0 29 8 60 34 60h26c81 0 150 18 209 43
c63 26 119 60 173 95v3c-55 32 -109 55 -197 55c-50 0 -88 -5 -128 -16v111zM347 -179h-109v99h109v-99z" />
    <glyph glyph-name="uniFEA0" unicode="&#x62c;" horiz-adv-x="584" arabic-form="medial" 
d="M83 400c43 13 81 20 134 20c92 0 145 -34 206 -65c40 -21 85 -29 144 -33l-22 -131c-31 -7 -59 -26 -86 -43c5 -36 32 -39 74 -39h51v-120h-25c-75 0 -128 20 -149 72c-6 15 -10 30 -13 47c-75 -46 -159 -87 -261 -108c-36 -7 -73 -11 -114 -11h-22c-27 0 -34 30 -34 60
c0 29 8 60 34 60h26c81 0 150 18 209 43c63 26 119 60 173 95v3c-55 32 -109 55 -197 55c-50 0 -88 -5 -128 -16v111zM347 -179h-109v99h109v-99z" />
    <glyph glyph-name="uniFEA2" unicode="&#x62d;" horiz-adv-x="584" arabic-form="final" 
d="M83 438c39 12 77 20 127 20c68 0 114 -19 160 -41c48 -23 98 -40 169 -41l-22 -128c-18 -5 -36 -11 -54 -16c7 -61 20 -109 73 -119c14 -3 29 -4 48 -4v-120h-14c-134 0 -173 91 -185 217c-74 -28 -135 -58 -179 -104c-27 -28 -46 -59 -46 -106c0 -70 42 -106 97 -125
c24 -8 55 -12 91 -12c76 0 134 16 197 39v-114c-61 -21 -121 -38 -201 -38c-133 0 -227 48 -264 142c-11 29 -18 60 -18 95c0 76 26 132 61 177c53 69 136 113 232 144v5c-30 15 -55 28 -95 32c-12 1 -26 2 -42 2c-49 0 -97 -6 -135 -17v112z" />
    <glyph glyph-name="uniFEA3" unicode="&#x62d;" horiz-adv-x="584" arabic-form="initial" 
d="M83 400c43 13 81 20 134 20c68 0 117 -18 161 -42c43 -23 85 -45 145 -52c13 -1 28 -3 44 -4l-22 -131c-16 -4 -33 -10 -52 -22c-73 -44 -147 -97 -234 -132c-66 -27 -144 -48 -237 -48h-22c-27 0 -34 30 -34 60c0 29 8 60 34 60h26c81 0 150 18 209 43
c63 26 119 60 173 95v3c-55 32 -109 55 -197 55c-50 0 -88 -5 -128 -16v111z" />
    <glyph glyph-name="uniFEA4" unicode="&#x62d;" horiz-adv-x="584" arabic-form="medial" 
d="M83 400c43 13 81 20 134 20c92 0 145 -34 206 -65c40 -21 85 -29 144 -33l-22 -131c-31 -7 -59 -26 -86 -43c5 -36 32 -39 74 -39h51v-120h-25c-75 0 -128 20 -149 72c-6 15 -10 30 -13 47c-75 -46 -159 -87 -261 -108c-36 -7 -73 -11 -114 -11h-22c-27 0 -34 30 -34 60
c0 29 8 60 34 60h26c81 0 150 18 209 43c63 26 119 60 173 95v3c-55 32 -109 55 -197 55c-50 0 -88 -5 -128 -16v111z" />
    <glyph glyph-name="uniFEA6" unicode="&#x62e;" horiz-adv-x="584" arabic-form="final" 
d="M83 438c39 12 77 20 127 20c68 0 114 -19 160 -41c48 -23 98 -40 169 -41l-22 -128c-18 -5 -36 -11 -54 -16c7 -61 20 -109 73 -119c14 -3 29 -4 48 -4v-120h-14c-134 0 -173 91 -185 217c-74 -28 -135 -58 -179 -104c-27 -28 -46 -59 -46 -106c0 -70 42 -106 97 -125
c24 -8 55 -12 91 -12c76 0 134 16 197 39v-114c-61 -21 -121 -38 -201 -38c-133 0 -227 48 -264 142c-11 29 -18 60 -18 95c0 76 26 132 61 177c53 69 136 113 232 144v5c-30 15 -55 28 -95 32c-12 1 -26 2 -42 2c-49 0 -97 -6 -135 -17v112zM363 561h-109v99h109v-99z" />
    <glyph glyph-name="uniFEA7" unicode="&#x62e;" horiz-adv-x="584" arabic-form="initial" 
d="M83 400c43 13 81 20 134 20c68 0 117 -18 161 -42c43 -23 85 -45 145 -52c13 -1 28 -3 44 -4l-22 -131c-16 -4 -33 -10 -52 -22c-73 -44 -147 -97 -234 -132c-66 -27 -144 -48 -237 -48h-22c-27 0 -34 30 -34 60c0 29 8 60 34 60h26c81 0 150 18 209 43
c63 26 119 60 173 95v3c-55 32 -109 55 -197 55c-50 0 -88 -5 -128 -16v111zM347 507h-109v99h109v-99z" />
    <glyph glyph-name="uniFEA8" unicode="&#x62e;" horiz-adv-x="584" arabic-form="medial" 
d="M83 400c43 13 81 20 134 20c92 0 145 -34 206 -65c40 -21 85 -29 144 -33l-22 -131c-31 -7 -59 -26 -86 -43c5 -36 32 -39 74 -39h51v-120h-25c-75 0 -128 20 -149 72c-6 15 -10 30 -13 47c-75 -46 -159 -87 -261 -108c-36 -7 -73 -11 -114 -11h-22c-27 0 -34 30 -34 60
c0 29 8 60 34 60h26c81 0 150 18 209 43c63 26 119 60 173 95v3c-55 32 -109 55 -197 55c-50 0 -88 -5 -128 -16v111zM347 507h-109v99h109v-99z" />
    <glyph glyph-name="uniFEAA" unicode="&#x62f;" horiz-adv-x="500" arabic-form="final" 
d="M24 121c60 -8 113 -14 172 -14c49 0 93 5 104 40c3 9 4 19 4 31c0 15 -2 34 -7 58c-19 90 -50 182 -81 264h113c33 -98 57 -185 79 -283c13 -54 25 -108 93 -108v-120h-14c-55 0 -85 29 -103 68h-2c-36 -50 -105 -70 -190 -70c-47 0 -98 5 -144 13z" />
    </font>
</defs>
</svg>
