<?xml version="1.0" standalone="no"?>
<!DOCTYPE svg PUBLIC "-//W3C//DTD SVG 1.1//EN" "http://www.w3.org/Graphics/SVG/1.1/DTD/svg11.dtd" >
<svg>
<metadata>
Created by FontForge 20110222 at Wed Sep  3 04:58:20 2014
 By Orthosie Webhosting
(c) 2011 Microsoft Corporation. All Rights Reserved.
</metadata>
<defs>
<font id="SegoeUI" horiz-adv-x="0" >
  <font-face 
    font-family="Segoe UI"
    font-weight="400"
    font-stretch="normal"
    units-per-em="1000"
    panose-1="2 11 5 2 4 2 4 2 2 3"
    ascent="800"
    descent="-200"
    x-height="500"
    cap-height="700"
    bbox="-432 -251 1483 1049"
    underline-thickness="58"
    underline-position="-58"
    stemh="74"
    stemv="82"
    unicode-range="U+000D-FFFD"
  />
<missing-glyph horiz-adv-x="645" 
d="M81 0v683h483v-683h-483zM153 72h339v538h-339v-538z" />
    <glyph glyph-name="uniFDF2" unicode="&#x627;&#xfedf;&#xfee0;&#xfeea;" horiz-adv-x="1039" arabic-form="isolated" 
d="M623 776c0 -43 -24 -74 -66 -74c-21 0 -35 7 -43 21c-9 -26 -28 -39 -55 -39c-41 0 -61 20 -61 61c0 9 1 22 2 38h34c-1 -11 -2 -23 -2 -36c0 -19 9 -29 27 -29c23 0 34 18 34 55v26h34v-21c0 -28 10 -43 30 -43c21 0 32 14 32 41c0 18 -1 30 -3 37h35c1 -10 2 -22 2 -37
zM623 82c51 0 80 48 80 101v444h64v-481c0 -90 -54 -154 -142 -154c-48 0 -85 17 -112 51c-27 -34 -65 -51 -113 -51c-97 0 -134 92 -134 200c-19 -31 -64 -63 -111 -63c-77 0 -120 62 -120 141c0 119 120 196 231 217v35h64v-339c0 -53 21 -101 70 -101c51 0 80 48 80 101
v444h64v-444c0 -53 28 -101 79 -101zM266 421c-79 -16 -167 -65 -167 -150c0 -39 19 -58 56 -58c47 0 84 22 111 65v143zM493 842v80h34v-80h-34zM955 0h-64v760h64v-760z" />
    <glyph glyph-name="uniFDFC" unicode="&#x631;&#xfef3;&#xfe8e;&#x644;" horiz-adv-x="1217" arabic-form="isolated" 
d="M248 -100c-156 0 -228 62 -228 216c0 40 3 81 10 123h67v-5c-9 -37 -13 -76 -13 -117c0 -47 12 -79 37 -97s68 -28 128 -28c104 0 157 45 157 135v633h64v-639c0 -147 -74 -221 -222 -221zM639 168c0 -56 24 -76 81 -76h2v-92c-96 0 -147 64 -147 162v598h64v-592z
M912 132c0 -86 -69 -132 -160 -132h-44c-39 0 -60 47 -60 92h100c67 0 100 25 100 76v182h64v-218zM717 -143h-72v72h72v-72zM585 -143h-72v72h72v-72zM1167 91c0 -97 -37 -171 -111 -222s-168 -76 -284 -76v92c99 0 179 16 240 49s91 79 91 141c0 53 -27 110 -81 171v6h94
c34 -53 51 -107 51 -161z" />
    <glyph glyph-name="uniFEF5" unicode="&#xfedf;&#xfe82;" horiz-adv-x="544" arabic-form="isolated" 
d="M482 0h-341v92c87 62 156 146 207 251c-60 109 -174 235 -342 380h134c102 -100 183 -200 241 -299c25 74 37 152 37 234v102h64v-102c0 -108 -21 -211 -62 -309c41 -90 62 -182 62 -275v-74zM418 92c0 59 -12 118 -36 179c-42 -74 -91 -134 -147 -179h183zM133 779
c-8 0 -22 4 -42 11s-34 11 -42 11c-12 0 -30 -7 -54 -22v36c20 13 38 20 54 20c8 0 22 -4 42 -11s34 -11 42 -11c17 0 34 7 54 21v-36c-17 -13 -34 -19 -54 -19z" />
    <glyph glyph-name="uniFEF6" unicode="&#xfee0;&#xfe82;" horiz-adv-x="595" arabic-form="final" 
d="M512 168c0 -56 24 -76 81 -76h2v-92c-96 0 -147 64 -147 162v138c-16 -19 -28 -36 -35 -49c-7 -30 -28 -72 -64 -125s-72 -95 -107 -126h-121c56 39 108 89 157 150s74 106 74 135c0 49 -29 113 -89 194s-139 162 -237 244h138c148 -164 231 -301 249 -413
c23 27 35 48 35 63v387h64v-592zM153 779c-8 0 -22 4 -42 11s-34 11 -42 11c-12 0 -30 -7 -54 -22v36c20 13 38 20 54 20c8 0 22 -4 42 -11s34 -11 42 -11c17 0 34 7 54 21v-36c-17 -13 -34 -19 -54 -19z" />
    <glyph glyph-name="uniFEF7" unicode="&#xfedf;&#xfe84;" horiz-adv-x="544" arabic-form="isolated" 
d="M482 0h-341v92c87 62 156 146 207 251c-60 109 -174 235 -342 380h134c102 -100 183 -200 241 -299c25 74 37 152 37 234v102h64v-102c0 -108 -21 -211 -62 -309c41 -90 62 -182 62 -275v-74zM418 92c0 59 -12 118 -36 179c-42 -74 -91 -134 -147 -179h183zM53 858
c0 -24 31 -38 57 -38h27v-34h-123v34h27c-14 8 -21 21 -21 38c0 35 28 59 64 59c18 0 32 -2 42 -6v-36c-12 6 -25 8 -41 8c-21 0 -32 -8 -32 -25z" />
    <glyph glyph-name="uniFEF8" unicode="&#xfee0;&#xfe84;" horiz-adv-x="595" arabic-form="final" 
d="M512 168c0 -56 24 -76 81 -76h2v-92c-96 0 -147 64 -147 162v138c-16 -19 -28 -36 -35 -49c-7 -30 -28 -72 -64 -125s-72 -95 -107 -126h-121c56 39 108 89 157 150s74 106 74 135c0 49 -29 113 -89 194s-139 162 -237 244h138c148 -164 231 -301 249 -413
c23 27 35 48 35 63v387h64v-592zM73 858c0 -24 31 -38 57 -38h27v-34h-123v34h27c-14 8 -21 21 -21 38c0 35 28 59 64 59c18 0 32 -2 42 -6v-36c-12 6 -25 8 -41 8c-21 0 -32 -8 -32 -25z" />
    <glyph glyph-name="uniFEF9" unicode="&#xfedf;&#xfe88;" horiz-adv-x="544" arabic-form="isolated" 
d="M482 0h-341v92c87 62 156 146 207 251c-60 109 -174 235 -342 380h134c102 -100 183 -200 241 -299c25 74 37 152 37 234v102h64v-102c0 -108 -21 -211 -62 -309c41 -90 62 -182 62 -275v-74zM418 92c0 59 -12 118 -36 179c-42 -74 -91 -134 -147 -179h183zM73 -105
c0 -24 31 -38 57 -38h27v-34h-123v34h27c-14 8 -21 21 -21 38c0 35 28 59 64 59c18 0 32 -2 42 -6v-36c-12 6 -25 8 -41 8c-21 0 -32 -8 -32 -25z" />
    <glyph glyph-name="uniFEFA" unicode="&#xfee0;&#xfe88;" horiz-adv-x="595" arabic-form="final" 
d="M512 168c0 -56 24 -76 81 -76h2v-92c-96 0 -147 64 -147 162v138c-16 -19 -28 -36 -35 -49c-7 -30 -28 -72 -64 -125s-72 -95 -107 -126h-121c56 39 108 89 157 150s74 106 74 135c0 49 -29 113 -89 194s-139 162 -237 244h138c148 -164 231 -301 249 -413
c23 27 35 48 35 63v387h64v-592zM73 -105c0 -24 31 -38 57 -38h27v-34h-123v34h27c-14 8 -21 21 -21 38c0 35 28 59 64 59c18 0 32 -2 42 -6v-36c-12 6 -25 8 -41 8c-21 0 -32 -8 -32 -25z" />
    <glyph glyph-name="uniFEFB" unicode="&#xfedf;&#xfe8e;" horiz-adv-x="544" arabic-form="isolated" 
d="M482 0h-341v92c87 62 156 146 207 251c-60 109 -174 235 -342 380h134c102 -100 183 -200 241 -299c25 74 37 152 37 234v102h64v-102c0 -108 -21 -211 -62 -309c41 -90 62 -182 62 -275v-74zM418 92c0 59 -12 118 -36 179c-42 -74 -91 -134 -147 -179h183z" />
    <glyph glyph-name="uniFEFC" unicode="&#xfee0;&#xfe8e;" horiz-adv-x="595" arabic-form="final" 
d="M512 168c0 -56 24 -76 81 -76h2v-92c-96 0 -147 64 -147 162v138c-16 -19 -28 -36 -35 -49c-7 -30 -28 -72 -64 -125s-72 -95 -107 -126h-121c56 39 108 89 157 150s74 106 74 135c0 49 -29 113 -89 194s-139 162 -237 244h138c148 -164 231 -301 249 -413
c23 27 35 48 35 63v387h64v-592z" />
    <glyph glyph-name="allah" unicode="&#xfedf;&#xfee0;&#x6c1;" horiz-adv-x="807" 
d="M623 776c0 -43 -24 -74 -66 -74c-21 0 -35 7 -43 21c-9 -26 -28 -39 -55 -39c-41 0 -61 20 -61 61c0 9 1 22 2 38h34c-1 -11 -2 -23 -2 -36c0 -19 9 -29 27 -29c23 0 34 18 34 55v26h34v-21c0 -28 10 -43 30 -43c21 0 32 14 32 41c0 18 -1 30 -3 37h35c1 -10 2 -22 2 -37
zM623 82c51 0 80 48 80 101v444h64v-481c0 -90 -54 -154 -142 -154c-48 0 -85 17 -112 51c-27 -34 -65 -51 -113 -51c-97 0 -134 92 -134 200c-19 -31 -64 -63 -111 -63c-77 0 -120 62 -120 141c0 119 120 196 231 217v35h64v-339c0 -53 21 -101 70 -101c51 0 80 48 80 101
v444h64v-444c0 -53 28 -101 79 -101zM266 421c-79 -16 -167 -65 -167 -150c0 -39 19 -58 56 -58c47 0 84 22 111 65v143zM493 842v80h34v-80h-34z" />
    <glyph glyph-name="uni06440671.isol" unicode="&#xfedf;&#xfb51;" horiz-adv-x="544" 
d="M482 0h-341v92c87 62 156 146 207 251c-60 109 -174 235 -342 380h134c102 -100 183 -200 241 -299c25 74 37 152 37 234v102h64v-102c0 -108 -21 -211 -62 -309c41 -90 62 -182 62 -275v-74zM418 92c0 59 -12 118 -36 179c-42 -74 -91 -134 -147 -179h183zM44 821
c8 40 36 81 81 81c37 0 55 -18 55 -56c0 -22 -9 -41 -28 -55c-17 -13 -36 -20 -57 -20c-10 0 -24 3 -41 10s-31 11 -40 11c-10 0 -23 -7 -41 -21v34c17 14 32 21 42 21c8 0 18 -2 29 -5zM95 806c25 0 51 17 51 40c0 15 -7 22 -21 22c-26 0 -45 -34 -49 -59c7 -2 13 -3 19 -3
z" />
    <glyph glyph-name="uni06440671.fina" unicode="&#xfee0;&#xfb51;" horiz-adv-x="595" 
d="M512 168c0 -56 24 -76 81 -76h2v-92c-96 0 -147 64 -147 162v138c-16 -19 -28 -36 -35 -49c-7 -30 -28 -72 -64 -125s-72 -95 -107 -126h-121c56 39 108 89 157 150s74 106 74 135c0 49 -29 113 -89 194s-139 162 -237 244h138c148 -164 231 -301 249 -413
c23 27 35 48 35 63v387h64v-592zM63 821c8 40 36 81 81 81c37 0 55 -18 55 -56c0 -22 -9 -41 -28 -55c-17 -13 -36 -20 -57 -20c-10 0 -24 3 -41 10s-31 11 -40 11c-10 0 -23 -7 -41 -21v34c17 14 32 21 42 21c8 0 18 -2 29 -5zM114 806c25 0 51 17 51 40c0 15 -7 22 -21 22
c-26 0 -45 -34 -49 -59c7 -2 13 -3 19 -3z" />
    <glyph glyph-name="uni0621" unicode="&#x621;" horiz-adv-x="412" arabic-form="isolated" 
d="M165 117c-50 12 -98 54 -98 112c0 89 61 148 149 148c39 0 73 -3 102 -9v-91h-6c-29 7 -60 11 -92 11c-60 0 -89 -23 -89 -68c0 -30 17 -50 51 -63s58 -17 70 -13l103 32v-91l-266 -82v91z" />
    <glyph glyph-name="uni0622" unicode="&#x622;" horiz-adv-x="233" arabic-form="isolated" 
d="M149 0h-64v760h64v-760zM157 799c-8 0 -22 4 -42 11s-34 11 -42 11c-12 0 -30 -7 -54 -22v36c20 13 38 20 54 20c8 0 22 -4 42 -11s34 -11 42 -11c17 0 34 7 54 21v-36c-17 -13 -34 -19 -54 -19z" />
    <glyph glyph-name="uni0623" unicode="&#x623;" horiz-adv-x="233" arabic-form="isolated" 
d="M149 0h-64v760h64v-760zM94 858c0 -24 31 -38 57 -38h27v-34h-123v34h27c-14 8 -21 21 -21 38c0 35 28 59 64 59c18 0 32 -2 42 -6v-36c-12 6 -25 8 -41 8c-21 0 -32 -8 -32 -25z" />
    <glyph glyph-name="uni0624" unicode="&#x624;" horiz-adv-x="423" arabic-form="final" 
d="M136 210c0 49 13 92 39 128s53 55 80 55c34 0 64 -26 90 -80s39 -126 39 -217c0 -216 -156 -303 -384 -303v92c106 0 186 16 240 49s81 80 81 141c-13 -13 -32 -20 -54 -20c-36 0 -66 14 -92 42s-39 65 -39 113zM200 213c0 -39 30 -66 69 -66c21 0 37 6 46 19
c0 30 -7 60 -21 90s-27 45 -40 45c-30 0 -54 -55 -54 -88zM224 550c0 -24 31 -38 57 -38h27v-34h-123v34h27c-14 8 -21 21 -21 38c0 35 28 59 64 59c18 0 32 -2 42 -6v-36c-12 6 -25 8 -41 8c-21 0 -32 -8 -32 -25z" />
    <glyph glyph-name="uni0625" unicode="&#x625;" horiz-adv-x="233" arabic-form="isolated" 
d="M149 0h-64v760h64v-760zM94 -105c0 -24 31 -38 57 -38h27v-34h-123v34h27c-14 8 -21 21 -21 38c0 35 28 59 64 59c18 0 32 -2 42 -6v-36c-12 6 -25 8 -41 8c-21 0 -32 -8 -32 -25z" />
    <glyph glyph-name="uni0626" unicode="&#x626;" horiz-adv-x="640" arabic-form="isolated" 
d="M79 217c0 -99 71 -125 180 -125c90 0 159 6 207 20s71 32 71 53c0 14 -8 27 -23 40s-47 31 -95 54s-82 47 -102 70s-30 49 -30 78c0 40 15 74 46 104s71 45 120 45c54 0 105 -9 152 -29v-104h-5c-49 29 -101 43 -156 43c-44 0 -93 -21 -93 -60c0 -14 7 -28 19 -41
s45 -33 98 -60s88 -50 106 -70s27 -44 27 -72c0 -52 -29 -93 -87 -121s-143 -42 -256 -42c-162 0 -243 72 -243 216c0 32 3 73 10 123h65v-5c-7 -44 -11 -83 -11 -117zM116 495c0 -24 31 -38 57 -38h27v-34h-123v34h27c-14 8 -21 21 -21 38c0 35 28 59 64 59
c18 0 32 -2 42 -6v-36c-12 6 -25 8 -41 8c-21 0 -32 -8 -32 -25z" />
    <glyph glyph-name="uni0627" unicode="&#x627;" horiz-adv-x="233" arabic-form="isolated" 
d="M149 0h-64v760h64v-760z" />
    <glyph glyph-name="uni0628" unicode="&#x628;" horiz-adv-x="714" arabic-form="final" 
d="M103 239c0 -113 62 -147 181 -147h155c55 0 97 6 127 19s45 35 45 67v172h64v-208c0 -46 -20 -80 -59 -105s-97 -37 -173 -37h-160c-163 0 -244 78 -244 233c0 37 5 76 15 117h64v-5c-10 -36 -15 -71 -15 -106zM428 -143h-72v72h72v-72z" />
    <glyph glyph-name="uni0629" unicode="&#x629;" horiz-adv-x="310" arabic-form="isolated" 
d="M160 -6c-93 0 -130 86 -130 188c0 64 21 126 65 184c-12 3 -25 5 -40 5v83c70 -4 127 -33 170 -86s65 -112 65 -176c0 -60 -12 -108 -37 -144s-56 -54 -93 -54zM94 182c0 -52 19 -96 66 -96c44 0 66 35 66 106c0 66 -27 117 -80 153c-35 -45 -52 -99 -52 -163zM257 539
h-72v72h72v-72zM125 539h-72v72h72v-72z" />
    <glyph glyph-name="uni062A" unicode="&#x62a;" horiz-adv-x="714" arabic-form="final" 
d="M103 239c0 -113 62 -147 181 -147h155c55 0 97 6 127 19s45 35 45 67v172h64v-208c0 -46 -20 -80 -59 -105s-97 -37 -173 -37h-160c-163 0 -244 78 -244 233c0 37 5 76 15 117h64v-5c-10 -36 -15 -71 -15 -106zM474 398h-72v72h72v-72zM342 398h-72v72h72v-72z" />
    <glyph glyph-name="uni062B" unicode="&#x62b;" horiz-adv-x="714" arabic-form="final" 
d="M103 239c0 -113 62 -147 181 -147h155c55 0 97 6 127 19s45 35 45 67v172h64v-208c0 -46 -20 -80 -59 -105s-97 -37 -173 -37h-160c-163 0 -244 78 -244 233c0 37 5 76 15 117h64v-5c-10 -36 -15 -71 -15 -106zM408 500h-72v72h72v-72zM480 398h-72v72h72v-72zM336 398
h-72v72h72v-72z" />
    <glyph glyph-name="uni062C" unicode="&#x62c;" horiz-adv-x="542" arabic-form="isolated" 
d="M320 -207c-81 0 -148 23 -200 71s-78 112 -78 192c0 81 35 146 106 194s160 72 266 72c-85 37 -188 55 -307 55h-38v91h43c61 0 127 -13 198 -38s138 -59 200 -103v-64h-72c-104 0 -185 -19 -244 -56s-88 -87 -88 -149c0 -56 20 -98 60 -129s91 -46 153 -46
c88 0 158 18 210 54h5v-97c-52 -31 -123 -47 -214 -47zM355 32h-72v72h72v-72z" />
    <glyph glyph-name="uni062D" unicode="&#x62d;" horiz-adv-x="542" arabic-form="isolated" 
d="M320 -207c-81 0 -148 23 -200 71s-78 112 -78 192c0 81 35 146 106 194s160 72 266 72c-85 37 -188 55 -307 55h-38v91h43c61 0 127 -13 198 -38s138 -59 200 -103v-64h-72c-104 0 -185 -19 -244 -56s-88 -87 -88 -149c0 -56 20 -98 60 -129s91 -46 153 -46
c88 0 158 18 210 54h5v-97c-52 -31 -123 -47 -214 -47z" />
    <glyph glyph-name="uni062E" unicode="&#x62e;" horiz-adv-x="542" arabic-form="isolated" 
d="M320 -207c-81 0 -148 23 -200 71s-78 112 -78 192c0 81 35 146 106 194s160 72 266 72c-85 37 -188 55 -307 55h-38v91h43c61 0 127 -13 198 -38s138 -59 200 -103v-64h-72c-104 0 -185 -19 -244 -56s-88 -87 -88 -149c0 -56 20 -98 60 -129s91 -46 153 -46
c88 0 158 18 210 54h5v-97c-52 -31 -123 -47 -214 -47zM375 547h-72v72h72v-72z" />
    <glyph glyph-name="uni062F" unicode="&#x62f;" horiz-adv-x="339" arabic-form="final" 
d="M320 158c0 -103 -72 -158 -179 -158h-136v92h135c36 0 64 6 85 19s31 28 31 46c0 60 -56 125 -168 195v115h5c151 -111 227 -214 227 -309z" />
    <glyph glyph-name="uni0630" unicode="&#x630;" horiz-adv-x="339" arabic-form="final" 
d="M320 158c0 -103 -72 -158 -179 -158h-136v92h135c36 0 64 6 85 19s31 28 31 46c0 60 -56 125 -168 195v115h5c151 -111 227 -214 227 -309zM100 552h-72v72h72v-72z" />
    <glyph glyph-name="uni0631" unicode="&#x631;" horiz-adv-x="484" arabic-form="isolated" 
d="M435 91c0 -97 -37 -171 -111 -222s-168 -76 -284 -76v92c99 0 179 16 240 49s91 79 91 141c0 53 -27 110 -81 171v6h94c34 -53 51 -107 51 -161z" />
    <glyph glyph-name="uni0632" unicode="&#x632;" horiz-adv-x="484" arabic-form="isolated" 
d="M435 91c0 -97 -37 -171 -111 -222s-168 -76 -284 -76v92c99 0 179 16 240 49s91 79 91 141c0 53 -27 110 -81 171v6h94c34 -53 51 -107 51 -161zM362 337h-72v72h72v-72z" />
    <glyph glyph-name="uni0633" unicode="&#x633;" horiz-adv-x="824" arabic-form="final" 
d="M69 44c0 -87 33 -159 114 -159c99 0 149 90 149 272v49h64v-49c0 -44 22 -65 65 -65s65 21 65 65v49h64v-49c0 -44 22 -65 65 -65c44 0 65 13 65 39v179h64v-218c0 -61 -29 -92 -89 -92h-40c-48 0 -80 12 -97 35c-17 -23 -49 -35 -97 -35c-35 0 -60 11 -77 33
c-24 -160 -91 -240 -201 -240c-52 0 -94 22 -128 66s-50 106 -50 186c0 55 4 105 13 151h64v-8c-9 -43 -13 -91 -13 -144z" />
    <glyph glyph-name="uni0634" unicode="&#x634;" horiz-adv-x="824" arabic-form="final" 
d="M69 44c0 -87 33 -159 114 -159c99 0 149 90 149 272v49h64v-49c0 -44 22 -65 65 -65s65 21 65 65v49h64v-49c0 -44 22 -65 65 -65c44 0 65 13 65 39v179h64v-218c0 -61 -29 -92 -89 -92h-40c-48 0 -80 12 -97 35c-17 -23 -49 -35 -97 -35c-35 0 -60 11 -77 33
c-24 -160 -91 -240 -201 -240c-52 0 -94 22 -128 66s-50 106 -50 186c0 55 4 105 13 151h64v-8c-9 -43 -13 -91 -13 -144zM567 452h-72v72h72v-72zM639 350h-72v72h72v-72zM495 350h-72v72h72v-72z" />
    <glyph glyph-name="uni0635" unicode="&#x635;" horiz-adv-x="1089" arabic-form="final" 
d="M69 44c0 -87 33 -159 114 -159c99 0 149 90 149 272v49h64v-21c0 -62 26 -93 78 -93h40c76 106 142 184 200 233s114 73 167 73c49 0 92 -26 131 -79s58 -110 58 -172c0 -106 -114 -147 -231 -147h-363c-37 0 -68 8 -93 24c-26 -154 -93 -231 -200 -231
c-52 0 -94 22 -128 66s-50 106 -50 186c0 55 4 105 13 151h64v-8c-9 -43 -13 -91 -13 -144zM830 92c53 0 96 6 128 17s48 25 48 43c0 43 -14 80 -41 110s-56 45 -85 45c-90 0 -187 -71 -292 -215h242z" />
    <glyph glyph-name="uni0636" unicode="&#x636;" horiz-adv-x="1089" arabic-form="final" 
d="M69 44c0 -87 33 -159 114 -159c99 0 149 90 149 272v49h64v-21c0 -62 26 -93 78 -93h40c76 106 142 184 200 233s114 73 167 73c49 0 92 -26 131 -79s58 -110 58 -172c0 -106 -114 -147 -231 -147h-363c-37 0 -68 8 -93 24c-26 -154 -93 -231 -200 -231
c-52 0 -94 22 -128 66s-50 106 -50 186c0 55 4 105 13 151h64v-8c-9 -43 -13 -91 -13 -144zM830 92c53 0 96 6 128 17s48 25 48 43c0 43 -14 80 -41 110s-56 45 -85 45c-90 0 -187 -71 -292 -215h242zM900 468h-72v72h72v-72z" />
    <glyph glyph-name="uni0637" unicode="&#x637;" horiz-adv-x="580" arabic-form="medial" 
d="M560 147c0 -106 -114 -147 -231 -147h-329c-39 0 -60 47 -60 92h139l5 13v655h64v-566c83 136 164 204 243 204c45 0 85 -26 119 -78s50 -110 50 -173zM320 92c53 0 96 6 128 17s48 25 48 43c0 43 -12 80 -35 110s-47 45 -71 45c-40 0 -76 -16 -111 -47
s-78 -87 -131 -168h172z" />
    <glyph glyph-name="uni0638" unicode="&#x638;" horiz-adv-x="580" arabic-form="medial" 
d="M560 147c0 -106 -114 -147 -231 -147h-329c-39 0 -60 47 -60 92h139l5 13v655h64v-566c83 136 164 204 243 204c45 0 85 -26 119 -78s50 -110 50 -173zM320 92c53 0 96 6 128 17s48 25 48 43c0 43 -12 80 -35 110s-47 45 -71 45c-40 0 -76 -16 -111 -47
s-78 -87 -131 -168h172zM388 468h-72v72h72v-72z" />
    <glyph glyph-name="uni0639" unicode="&#x639;" horiz-adv-x="544" arabic-form="isolated" 
d="M313 -117c72 0 159 34 204 65h5v-104c-57 -34 -127 -51 -208 -51c-161 0 -274 78 -274 233c0 75 32 134 97 177c-45 35 -67 74 -67 118c0 59 18 106 54 141s82 53 138 53c31 0 66 -4 104 -13v-92h-5c-35 10 -67 15 -95 15c-74 0 -132 -35 -132 -106c0 -35 18 -66 53 -90
l246 91v-85l-203 -74c-39 -14 -70 -32 -92 -56s-34 -50 -34 -78c0 -100 101 -144 209 -144z" />
    <glyph glyph-name="uni063A" unicode="&#x63a;" horiz-adv-x="544" arabic-form="isolated" 
d="M313 -117c72 0 159 34 204 65h5v-104c-57 -34 -127 -51 -208 -51c-161 0 -274 78 -274 233c0 75 32 134 97 177c-45 35 -67 74 -67 118c0 59 18 106 54 141s82 53 138 53c31 0 66 -4 104 -13v-92h-5c-35 10 -67 15 -95 15c-74 0 -132 -35 -132 -106c0 -35 18 -66 53 -90
l246 91v-85l-203 -74c-39 -14 -70 -32 -92 -56s-34 -50 -34 -78c0 -100 101 -144 209 -144zM284 600h-72v72h72v-72z" />
    <glyph glyph-name="uni0641" unicode="&#x641;" horiz-adv-x="790" arabic-form="final" 
d="M654 631h-72v72h72v-72zM103 239c0 -113 62 -147 181 -147h242c55 0 98 6 128 19s44 35 44 67v50c-13 -13 -31 -20 -54 -20c-36 0 -67 14 -94 42s-40 65 -40 113c0 49 13 92 40 128s55 55 82 55c37 0 68 -26 93 -79s37 -126 37 -218v-107c0 -46 -20 -80 -59 -105
s-97 -37 -173 -37h-247c-163 0 -244 78 -244 233c0 37 5 76 15 117h64v-5c-10 -36 -15 -71 -15 -106zM574 366c0 -39 33 -66 72 -66c18 0 34 6 47 19c0 30 -7 60 -21 90s-27 45 -41 45c-12 0 -24 -10 -37 -29s-20 -39 -20 -59z" />
    <glyph glyph-name="uni0642" unicode="&#x642;" horiz-adv-x="582" arabic-form="final" 
d="M514 532h-72v72h72v-72zM382 532h-72v72h72v-72zM83 52c0 -108 66 -167 176 -167c144 0 221 101 227 244c-12 -13 -31 -20 -54 -20c-36 0 -67 14 -94 42s-40 65 -40 113c0 49 13 92 40 128s54 55 82 55c36 0 67 -27 92 -80s38 -125 38 -217c0 -202 -99 -357 -292 -357
c-71 0 -129 24 -173 70s-66 107 -66 183c0 28 4 60 13 97h64v-5c-9 -31 -13 -60 -13 -86zM362 267c0 -39 33 -66 72 -66c18 0 34 6 47 19c0 30 -7 60 -21 90s-28 45 -41 45c-12 0 -24 -10 -37 -29s-20 -39 -20 -59z" />
    <glyph glyph-name="uni0643" unicode="&#x643;" horiz-adv-x="600" arabic-form="final" 
d="M192 0c-104 0 -167 49 -167 151c0 13 1 33 4 59h65v-5c-4 -19 -5 -36 -5 -53c0 -40 34 -60 103 -60h204c67 0 100 25 100 76v592h64v-628c0 -86 -69 -132 -160 -132h-208zM315 429c-45 0 -67 -7 -67 -23c0 -9 9 -16 28 -20l31 -7c27 -6 41 -21 41 -45
c0 -53 -73 -69 -133 -69v34c66 0 99 11 99 32c0 6 -4 9 -10 12s-23 6 -49 12s-39 22 -39 49c0 45 49 59 99 59v-34z" />
    <glyph glyph-name="uni0644" unicode="&#x644;" horiz-adv-x="509" arabic-form="isolated" 
d="M248 -100c-156 0 -228 62 -228 216c0 40 3 81 10 123h67v-5c-9 -37 -13 -76 -13 -117c0 -47 12 -79 37 -97s68 -28 128 -28c104 0 157 45 157 135v633h64v-639c0 -147 -74 -221 -222 -221z" />
    <glyph glyph-name="uni0645" unicode="&#x645;" horiz-adv-x="339" arabic-form="final" 
d="M46 116c0 68 32 120 96 120c35 0 68 -12 97 -36s63 -60 101 -108v-92h-198c-49 0 -73 -18 -73 -55v-152h-54v153c0 97 44 146 133 146h101c-24 27 -44 47 -60 60s-32 20 -47 20c-28 0 -42 -19 -42 -56h-54z" />
    <glyph glyph-name="uni0646" unicode="&#x646;" horiz-adv-x="529" arabic-form="final" 
d="M306 244h-72v72h72v-72zM270 -207c-165 0 -245 121 -245 291c0 35 4 73 13 112h64v-5c-9 -31 -13 -65 -13 -101c0 -137 60 -205 181 -205s181 68 181 205c0 19 -2 41 -7 67l-6 34v5h64c9 -39 13 -77 13 -112c0 -170 -80 -291 -245 -291z" />
    <glyph glyph-name="uni0647" unicode="&#x647;" horiz-adv-x="310" arabic-form="isolated" 
d="M160 -6c-93 0 -130 86 -130 188c0 64 21 126 65 184c-12 3 -25 5 -40 5v83c70 -4 127 -33 170 -86s65 -112 65 -176c0 -60 -12 -108 -37 -144s-56 -54 -93 -54zM94 182c0 -52 19 -96 66 -96c44 0 66 35 66 106c0 66 -27 117 -80 153c-35 -45 -52 -99 -52 -163z" />
    <glyph glyph-name="uni0648" unicode="&#x648;" horiz-adv-x="423" arabic-form="final" 
d="M136 210c0 49 13 92 39 128s53 55 80 55c34 0 64 -26 90 -80s39 -126 39 -217c0 -216 -156 -303 -384 -303v92c106 0 186 16 240 49s81 80 81 141c-13 -13 -32 -20 -54 -20c-36 0 -66 14 -92 42s-39 65 -39 113zM200 213c0 -39 30 -66 69 -66c21 0 37 6 46 19
c0 30 -7 60 -21 90s-27 45 -40 45c-30 0 -54 -55 -54 -88z" />
    <glyph glyph-name="uni0649" unicode="&#x649;" horiz-adv-x="640" arabic-form="isolated" 
d="M79 217c0 -99 71 -125 180 -125c90 0 159 6 207 20s71 32 71 53c0 14 -8 27 -23 40s-47 31 -95 54s-82 47 -102 70s-30 49 -30 78c0 40 15 74 46 104s71 45 120 45c54 0 105 -9 152 -29v-104h-5c-49 29 -101 43 -156 43c-44 0 -93 -21 -93 -60c0 -14 7 -28 19 -41
s45 -33 98 -60s88 -50 106 -70s27 -44 27 -72c0 -52 -29 -93 -87 -121s-143 -42 -256 -42c-162 0 -243 72 -243 216c0 32 3 73 10 123h65v-5c-7 -44 -11 -83 -11 -117z" />
    <glyph glyph-name="uni064A" unicode="&#x64a;" horiz-adv-x="640" arabic-form="isolated" 
d="M79 217c0 -99 71 -125 180 -125c90 0 159 6 207 20s71 32 71 53c0 14 -8 27 -23 40s-47 31 -95 54s-82 47 -102 70s-30 49 -30 78c0 40 15 74 46 104s71 45 120 45c54 0 105 -9 152 -29v-104h-5c-49 29 -101 43 -156 43c-44 0 -93 -21 -93 -60c0 -14 7 -28 19 -41
s45 -33 98 -60s88 -50 106 -70s27 -44 27 -72c0 -52 -29 -93 -87 -121s-143 -42 -256 -42c-162 0 -243 72 -243 216c0 32 3 73 10 123h65v-5c-7 -44 -11 -83 -11 -117zM369 -143h-72v72h72v-72zM237 -143h-72v72h72v-72z" />
    <glyph glyph-name="uni06A1.init" unicode="&#x66f;" horiz-adv-x="290" 
d="M282 249c0 -148 -59 -249 -199 -249h-83c-39 0 -60 47 -60 92h144c39 0 71 12 98 37s40 58 40 99c-13 -13 -34 -20 -62 -20c-36 0 -67 14 -94 42s-40 65 -40 113c0 49 13 92 40 128s54 55 82 55c37 0 69 -27 95 -80s39 -126 39 -217zM147 456c-13 0 -26 -8 -40 -26
s-20 -39 -20 -64c0 -46 25 -68 75 -68c22 0 40 6 54 18c0 36 -8 69 -23 97s-31 43 -46 43z" />
    <glyph glyph-name="uni06A1.medi" unicode="&#x66f;" horiz-adv-x="295" 
d="M148 407c78 0 120 -72 120 -155c0 -47 -22 -98 -66 -152c18 -6 36 -8 54 -8h40v-92h-20c-39 0 -82 16 -128 49c-46 -33 -89 -49 -128 -49h-20c-39 0 -60 47 -60 92h100c18 0 35 2 54 8c-44 54 -66 105 -66 152c0 83 42 155 120 155zM148 314c-36 0 -56 -31 -56 -67
c0 -43 19 -82 56 -117c37 35 56 74 56 117c0 36 -20 67 -56 67z" />
    <glyph glyph-name="uni0671" unicode="&#x671;" horiz-adv-x="233" arabic-form="isolated" 
d="M149 0h-64v760h64v-760zM73 836c8 40 36 81 81 81c37 0 55 -18 55 -56c0 -22 -9 -41 -28 -55c-17 -13 -36 -20 -57 -20c-10 0 -24 3 -41 10s-31 11 -40 11c-10 0 -23 -7 -41 -21v34c17 14 32 21 42 21c8 0 18 -2 29 -5zM124 821c25 0 51 17 51 40c0 15 -7 22 -21 22
c-26 0 -45 -34 -49 -59c7 -2 13 -3 19 -3z" />
    <glyph glyph-name="uni0672.fina" unicode="&#x672;" horiz-adv-x="233" 
d="M151 168c0 -56 24 -76 81 -76h2v-92c-96 0 -147 64 -147 162v598h64v-592zM108 863c0 -24 31 -38 57 -38h27v-34h-86c-8 0 -16 2 -25 4s-14 3 -17 3c-10 0 -24 -7 -43 -22v36c17 13 31 20 43 20c7 0 27 -8 33 -8c-15 8 -22 21 -22 39c0 35 29 59 64 59c18 0 32 -2 42 -6
v-36c-12 6 -25 8 -41 8c-21 0 -32 -8 -32 -25z" />
    <glyph glyph-name="uni0673.fina" unicode="&#x673;" horiz-adv-x="233" 
d="M151 168c0 -56 24 -76 81 -76h2v-92c-96 0 -147 64 -147 162v598h64v-592zM108 -105c0 -24 31 -38 57 -38h27v-34h-86c-8 0 -16 2 -25 4s-14 3 -17 3c-10 0 -24 -7 -43 -22v36c17 13 31 20 43 20c7 0 27 -8 33 -8c-15 8 -22 21 -22 39c0 35 29 59 64 59c18 0 32 -2 42 -6
v-36c-12 6 -25 8 -41 8c-21 0 -32 -8 -32 -25z" />
    <glyph glyph-name="uni0675.fina" unicode="&#x675;" horiz-adv-x="312" 
d="M229 711c0 -24 31 -37 57 -37h26v-34h-123v34h28c-14 8 -21 20 -21 37c0 35 29 60 64 60c18 0 32 -2 42 -6v-36c-12 6 -25 8 -41 8c-21 0 -32 -9 -32 -26zM231 0c-93 0 -144 66 -144 162v598h64v-592c0 -51 27 -76 81 -76h80v-92h-81z" />
    <glyph glyph-name="uni0677" unicode="&#x677;" horiz-adv-x="423" arabic-form="isolated" 
d="M136 210c0 49 13 92 39 128s53 55 80 55c34 0 64 -26 90 -80s39 -126 39 -217c0 -216 -156 -303 -384 -303v92c106 0 186 16 240 49s81 80 81 141c-13 -13 -32 -20 -54 -20c-36 0 -66 14 -92 42s-39 65 -39 113zM200 213c0 -39 30 -66 69 -66c21 0 37 6 46 19
c0 30 -7 60 -21 90s-27 45 -40 45c-30 0 -54 -55 -54 -88zM322 550c0 -24 31 -38 57 -38h27v-34h-123v34h27c-14 8 -21 21 -21 38c0 35 28 59 64 59c18 0 32 -2 42 -6v-36c-12 6 -25 8 -41 8c-21 0 -32 -8 -32 -25zM147 618c35 0 63 -25 63 -60c0 -14 -6 -28 -19 -43l23 -5
v-32l-46 11c-41 -25 -86 -39 -135 -42v34c33 1 65 8 98 22c-31 12 -46 31 -46 56c0 36 26 59 62 59zM176 558c0 14 -13 26 -28 26c-19 0 -29 -8 -29 -26c0 -17 14 -29 41 -36c10 11 16 23 16 36z" />
    <glyph glyph-name="uni0678.fina" unicode="&#x678;" horiz-adv-x="591" 
d="M250 244c0 71 39 118 111 118c26 0 48 -8 68 -22s38 -51 55 -111s33 -99 49 -114s36 -23 59 -23v-92c-65 0 -98 34 -119 80c-11 24 -22 56 -35 96s-25 66 -36 77s-24 17 -41 17c-30 0 -45 -14 -45 -43c0 -18 12 -41 35 -69c31 -37 47 -74 47 -111
c0 -86 -61 -129 -183 -129c-60 0 -108 20 -145 60s-55 94 -55 164c0 21 2 49 7 83h65v-5c-5 -21 -8 -47 -8 -77c0 -94 43 -133 137 -133c77 0 116 19 116 57c0 17 -12 40 -36 69c-31 36 -46 72 -46 108zM432 519c0 -24 31 -38 57 -38h27v-34h-123v34h27c-14 8 -21 21 -21 38
c0 35 28 59 64 59c18 0 32 -2 42 -6v-36c-12 6 -25 8 -41 8c-21 0 -32 -8 -32 -25z" />
    <glyph glyph-name="uni0679" unicode="&#x679;" horiz-adv-x="714" arabic-form="final" 
d="M103 239c0 -113 62 -147 181 -147h155c55 0 97 6 127 19s45 35 45 67v172h64v-208c0 -46 -20 -80 -59 -105s-97 -37 -173 -37h-160c-163 0 -244 78 -244 233c0 37 5 76 15 117h64v-5c-10 -36 -15 -71 -15 -106zM458 444c0 -35 -26 -53 -78 -53h-111v33h32v201h28v-160
c19 46 42 69 68 69c19 0 34 -11 46 -33c10 -18 15 -37 15 -57zM431 446c0 24 -13 55 -34 55c-19 0 -42 -25 -68 -77h47c36 0 55 7 55 22z" />
    <glyph glyph-name="uni067A" unicode="&#x67a;" horiz-adv-x="714" arabic-form="final" 
d="M103 239c0 -113 62 -147 181 -147h155c55 0 97 6 127 19s45 35 45 67v172h64v-208c0 -46 -20 -80 -59 -105s-97 -37 -173 -37h-160c-163 0 -244 78 -244 233c0 37 5 76 15 117h64v-5c-10 -36 -15 -71 -15 -106zM408 500h-72v72h72v-72zM408 398h-72v72h72v-72z" />
    <glyph glyph-name="uni067B" unicode="&#x67b;" horiz-adv-x="714" arabic-form="final" 
d="M103 239c0 -113 62 -147 181 -147h155c55 0 97 6 127 19s45 35 45 67v172h64v-208c0 -46 -20 -80 -59 -105s-97 -37 -173 -37h-160c-163 0 -244 78 -244 233c0 37 5 76 15 117h64v-5c-10 -36 -15 -71 -15 -106zM408 -108h-72v72h72v-72zM408 -210h-72v72h72v-72z" />
    <glyph glyph-name="uni067C.init" unicode="&#x67c;" horiz-adv-x="244" 
d="M204 132c0 -86 -69 -132 -160 -132h-44c-39 0 -60 47 -60 92h100c67 0 100 25 100 76v182h64v-218zM244 435h-72v72h72v-72zM112 435h-72v72h72v-72zM34 -32c0 39 31 70 70 70c38 0 70 -32 70 -70s-32 -70 -70 -70s-70 32 -70 70zM66 -32c0 -21 17 -38 38 -38
s38 17 38 38s-17 38 -38 38s-38 -17 -38 -38z" />
    <glyph glyph-name="uni067D.init" unicode="&#x67d;" horiz-adv-x="244" 
d="M204 132c0 -86 -69 -132 -160 -132h-44c-39 0 -60 47 -60 92h100c67 0 100 25 100 76v182h64v-218zM174 435h-72v72h72v-72zM246 537h-72v72h72v-72zM102 537h-72v72h72v-72z" />
    <glyph glyph-name="uni067E" unicode="&#x67e;" horiz-adv-x="714" arabic-form="final" 
d="M103 239c0 -113 62 -147 181 -147h155c55 0 97 6 127 19s45 35 45 67v172h64v-208c0 -46 -20 -80 -59 -105s-97 -37 -173 -37h-160c-163 0 -244 78 -244 233c0 37 5 76 15 117h64v-5c-10 -36 -15 -71 -15 -106zM500 -108h-72v72h72v-72zM356 -108h-72v72h72v-72z
M428 -210h-72v72h72v-72z" />
    <glyph glyph-name="uni067F" unicode="&#x67f;" horiz-adv-x="714" arabic-form="final" 
d="M103 239c0 -113 62 -147 181 -147h155c55 0 97 6 127 19s45 35 45 67v172h64v-208c0 -46 -20 -80 -59 -105s-97 -37 -173 -37h-160c-163 0 -244 78 -244 233c0 37 5 76 15 117h64v-5c-10 -36 -15 -71 -15 -106zM474 500h-72v72h72v-72zM342 500h-72v72h72v-72zM474 398
h-72v72h72v-72zM342 398h-72v72h72v-72z" />
    <glyph glyph-name="uni0680" unicode="&#x680;" horiz-adv-x="714" arabic-form="final" 
d="M103 239c0 -113 62 -147 181 -147h155c55 0 97 6 127 19s45 35 45 67v172h64v-208c0 -46 -20 -80 -59 -105s-97 -37 -173 -37h-160c-163 0 -244 78 -244 233c0 37 5 76 15 117h64v-5c-10 -36 -15 -71 -15 -106zM474 -108h-72v72h72v-72zM342 -108h-72v72h72v-72z
M474 -210h-72v72h72v-72zM342 -210h-72v72h72v-72z" />
    <glyph glyph-name="uni0681.init" unicode="&#x681;" horiz-adv-x="542" 
d="M503 90c-58 0 -144 -15 -256 -45s-195 -45 -247 -45c-39 0 -60 47 -60 92h63c47 0 118 13 215 39s162 41 198 43c-99 89 -205 133 -319 133h-46v91h51c95 0 161 -31 222 -70c55 -36 103 -77 155 -126l21 -20h1h2v-92zM285 529c0 -24 31 -38 57 -38h27v-34h-123v34h27
c-14 8 -21 21 -21 38c0 35 28 59 64 59c18 0 32 -2 42 -6v-36c-12 6 -25 8 -41 8c-21 0 -32 -8 -32 -25z" />
    <glyph glyph-name="uni0681.fina" unicode="&#x681;" horiz-adv-x="542" 
d="M425 183c0 -67 32 -91 100 -91h18v-92h-16c-111 0 -166 52 -166 156v103c-80 -8 -142 -31 -187 -66s-68 -80 -68 -135c0 -56 20 -98 60 -129s91 -46 153 -46c88 0 158 18 210 54h5v-97c-52 -31 -123 -47 -214 -47c-81 0 -148 23 -200 71s-78 112 -78 192
c0 81 35 146 106 194s160 72 266 72c-85 37 -188 55 -307 55h-38v91h43c61 0 127 -13 198 -38s138 -59 200 -103v-64c-47 0 -75 0 -85 -1v-79zM285 619c0 -24 31 -38 57 -38h27v-34h-123v34h27c-14 8 -21 21 -21 38c0 35 28 59 64 59c18 0 32 -2 42 -6v-36
c-12 6 -25 8 -41 8c-21 0 -32 -8 -32 -25z" />
    <glyph glyph-name="uni0682.init" unicode="&#x682;" horiz-adv-x="542" 
d="M503 90c-58 0 -144 -15 -256 -45s-195 -45 -247 -45c-39 0 -60 47 -60 92h63c47 0 118 13 215 39s162 41 198 43c-99 89 -205 133 -319 133h-46v91h51c95 0 161 -31 222 -70c55 -36 103 -77 155 -126l21 -20h1h2v-92zM348 559h-72v72h72v-72zM348 457h-72v72h72v-72z" />
    <glyph glyph-name="uni0682.fina" unicode="&#x682;" horiz-adv-x="542" 
d="M425 183c0 -67 32 -91 100 -91h18v-92h-16c-111 0 -166 52 -166 156v103c-80 -8 -142 -31 -187 -66s-68 -80 -68 -135c0 -56 20 -98 60 -129s91 -46 153 -46c88 0 158 18 210 54h5v-97c-52 -31 -123 -47 -214 -47c-81 0 -148 23 -200 71s-78 112 -78 192
c0 81 35 146 106 194s160 72 266 72c-85 37 -188 55 -307 55h-38v91h43c61 0 127 -13 198 -38s138 -59 200 -103v-64c-47 0 -75 0 -85 -1v-79zM375 649h-72v72h72v-72zM375 547h-72v72h72v-72z" />
    <glyph glyph-name="uni0683" unicode="&#x683;" horiz-adv-x="542" arabic-form="isolated" 
d="M320 -207c-81 0 -148 23 -200 71s-78 112 -78 192c0 81 35 146 106 194s160 72 266 72c-85 37 -188 55 -307 55h-38v91h43c61 0 127 -13 198 -38s138 -59 200 -103v-64h-72c-104 0 -185 -19 -244 -56s-88 -87 -88 -149c0 -56 20 -98 60 -129s91 -46 153 -46
c88 0 158 18 210 54h5v-97c-52 -31 -123 -47 -214 -47zM421 32h-72v72h72v-72zM289 32h-72v72h72v-72z" />
    <glyph glyph-name="uni0684" unicode="&#x684;" horiz-adv-x="542" arabic-form="isolated" 
d="M320 -207c-81 0 -148 23 -200 71s-78 112 -78 192c0 81 35 146 106 194s160 72 266 72c-85 37 -188 55 -307 55h-38v91h43c61 0 127 -13 198 -38s138 -59 200 -103v-64h-72c-104 0 -185 -19 -244 -56s-88 -87 -88 -149c0 -56 20 -98 60 -129s91 -46 153 -46
c88 0 158 18 210 54h5v-97c-52 -31 -123 -47 -214 -47zM355 73h-72v72h72v-72zM355 -29h-72v72h72v-72z" />
    <glyph glyph-name="uni0685.init" unicode="&#x685;" horiz-adv-x="542" 
d="M503 90c-58 0 -144 -15 -256 -45s-195 -45 -247 -45c-39 0 -60 47 -60 92h63c47 0 118 13 215 39s162 41 198 43c-99 89 -205 133 -319 133h-46v91h51c95 0 161 -31 222 -70c55 -36 103 -77 155 -126l21 -20h1h2v-92zM348 559h-72v72h72v-72zM420 457h-72v72h72v-72z
M276 457h-72v72h72v-72z" />
    <glyph glyph-name="uni0685.fina" unicode="&#x685;" horiz-adv-x="542" 
d="M425 183c0 -67 32 -91 100 -91h18v-92h-16c-111 0 -166 52 -166 156v103c-80 -8 -142 -31 -187 -66s-68 -80 -68 -135c0 -56 20 -98 60 -129s91 -46 153 -46c88 0 158 18 210 54h5v-97c-52 -31 -123 -47 -214 -47c-81 0 -148 23 -200 71s-78 112 -78 192
c0 81 35 146 106 194s160 72 266 72c-85 37 -188 55 -307 55h-38v91h43c61 0 127 -13 198 -38s138 -59 200 -103v-64c-47 0 -75 0 -85 -1v-79zM375 649h-72v72h72v-72zM447 547h-72v72h72v-72zM303 547h-72v72h72v-72z" />
    <glyph glyph-name="uni0686" unicode="&#x686;" horiz-adv-x="542" arabic-form="isolated" 
d="M320 -207c-81 0 -148 23 -200 71s-78 112 -78 192c0 81 35 146 106 194s160 72 266 72c-85 37 -188 55 -307 55h-38v91h43c61 0 127 -13 198 -38s138 -59 200 -103v-64h-72c-104 0 -185 -19 -244 -56s-88 -87 -88 -149c0 -56 20 -98 60 -129s91 -46 153 -46
c88 0 158 18 210 54h5v-97c-52 -31 -123 -47 -214 -47zM427 72h-72v72h72v-72zM283 72h-72v72h72v-72zM355 -30h-72v72h72v-72z" />
    <glyph glyph-name="uni0687" unicode="&#x687;" horiz-adv-x="542" arabic-form="isolated" 
d="M320 -207c-81 0 -148 23 -200 71s-78 112 -78 192c0 81 35 146 106 194s160 72 266 72c-85 37 -188 55 -307 55h-38v91h43c61 0 127 -13 198 -38s138 -59 200 -103v-64h-72c-104 0 -185 -19 -244 -56s-88 -87 -88 -149c0 -56 20 -98 60 -129s91 -46 153 -46
c88 0 158 18 210 54h5v-97c-52 -31 -123 -47 -214 -47zM418 73h-72v72h72v-72zM286 73h-72v72h72v-72zM418 -29h-72v72h72v-72zM286 -29h-72v72h72v-72z" />
    <glyph glyph-name="uni0688" unicode="&#x688;" horiz-adv-x="339" arabic-form="final" 
d="M320 158c0 -103 -72 -158 -179 -158h-136v92h135c36 0 64 6 85 19s31 28 31 46c0 60 -56 125 -168 195v115h5c151 -111 227 -214 227 -309zM238 590c0 -35 -26 -53 -78 -53h-111v33h32v201h28v-160c19 46 42 69 68 69c19 0 34 -11 46 -33c10 -18 15 -37 15 -57zM211 592
c0 24 -13 55 -34 55c-19 0 -42 -25 -68 -77h47c36 0 55 7 55 22z" />
    <glyph glyph-name="uni068C" unicode="&#x68c;" horiz-adv-x="339" arabic-form="final" 
d="M320 158c0 -103 -72 -158 -179 -158h-136v92h135c36 0 64 6 85 19s31 28 31 46c0 60 -56 125 -168 195v115h5c151 -111 227 -214 227 -309zM204 552h-72v72h72v-72zM72 552h-72v72h72v-72z" />
    <glyph glyph-name="uni068D" unicode="&#x68d;" horiz-adv-x="339" arabic-form="final" 
d="M320 158c0 -103 -72 -158 -179 -158h-136v92h135c36 0 64 6 85 19s31 28 31 46c0 60 -56 125 -168 195v115h5c151 -111 227 -214 227 -309zM252 -143h-72v72h72v-72zM120 -143h-72v72h72v-72z" />
    <glyph glyph-name="uni068E" unicode="&#x68e;" horiz-adv-x="339" arabic-form="final" 
d="M320 158c0 -103 -72 -158 -179 -158h-136v92h135c36 0 64 6 85 19s31 28 31 46c0 60 -56 125 -168 195v115h5c151 -111 227 -214 227 -309zM142 654h-72v72h72v-72zM214 552h-72v72h72v-72zM70 552h-72v72h72v-72z" />
    <glyph glyph-name="uni0691" unicode="&#x691;" horiz-adv-x="484" arabic-form="isolated" 
d="M435 91c0 -97 -37 -171 -111 -222s-168 -76 -284 -76v92c99 0 179 16 240 49s91 79 91 141c0 53 -27 110 -81 171v6h94c34 -53 51 -107 51 -161zM379 395c0 -35 -26 -53 -78 -53h-111v33h32v201h28v-160c19 46 42 69 68 69c19 0 34 -11 46 -33c10 -18 15 -37 15 -57z
M352 397c0 24 -13 55 -34 55c-19 0 -42 -25 -68 -77h47c36 0 55 7 55 22z" />
    <glyph glyph-name="uni0692.fina" unicode="&#x692;" horiz-adv-x="484" 
d="M485 0c-23 0 -45 22 -53 45c-10 -75 -46 -134 -108 -176c-74 -51 -168 -76 -284 -76v92c100 0 180 16 240 49c61 33 91 79 91 141c0 54 -27 111 -81 171v6h94c34 -53 51 -107 51 -160h50v-92zM388 470l-64 -132h-37l-65 132h36l47 -99l48 99h35z" />
    <glyph glyph-name="uni0693.fina" unicode="&#x693;" horiz-adv-x="484" 
d="M485 0c-23 0 -45 22 -53 45c-10 -75 -46 -134 -108 -176c-74 -51 -168 -76 -284 -76v92c100 0 180 16 240 49c61 33 91 79 91 141c0 54 -27 111 -81 171v6h94c34 -53 51 -107 51 -160h50v-92zM305 -139c0 39 31 70 70 70c38 0 70 -32 70 -70s-32 -70 -70 -70
s-70 32 -70 70zM337 -139c0 -21 17 -38 38 -38s38 17 38 38s-17 38 -38 38s-38 -17 -38 -38z" />
    <glyph glyph-name="uni0694.fina" unicode="&#x694;" horiz-adv-x="484" 
d="M485 0c-23 0 -45 22 -53 45c-10 -75 -46 -134 -108 -176c-74 -51 -168 -76 -284 -76v92c100 0 180 16 240 49c61 33 91 79 91 141c0 54 -27 111 -81 171v6h94c34 -53 51 -107 51 -160h50v-92zM430 -209h-72v72h72v-72z" />
    <glyph glyph-name="uni0695.fina" unicode="&#x695;" horiz-adv-x="484" 
d="M485 0c-29 0 -51 30 -57 60c-16 -63 -56 -111 -119 -141c-62 -29 -152 -44 -269 -44v92c96 0 166 6 211 17c80 21 120 63 120 126c0 54 -27 111 -81 171v6h94c34 -53 51 -108 51 -162c0 -12 -1 -22 -2 -33h52v-92zM338 -131l-65 -79h-36l-65 79h36l47 -56l48 56h35z" />
    <glyph glyph-name="uni0696.fina" unicode="&#x696;" horiz-adv-x="484" 
d="M485 0c-23 0 -45 22 -53 45c-10 -75 -46 -134 -108 -176c-74 -51 -168 -76 -284 -76v92c100 0 180 16 240 49c61 33 91 79 91 141c0 54 -27 111 -81 171v6h94c34 -53 51 -107 51 -160h50v-92zM430 -209h-72v72h72v-72zM235 0h-72v72h72v-72z" />
    <glyph glyph-name="uni0697.fina" unicode="&#x697;" horiz-adv-x="484" 
d="M485 0c-23 0 -45 22 -53 45c-10 -75 -46 -134 -108 -176c-74 -51 -168 -76 -284 -76v92c100 0 180 16 240 49c61 33 91 79 91 141c0 54 -27 111 -81 171v6h94c34 -53 51 -107 51 -160h50v-92zM399 337h-72v72h72v-72zM267 337h-72v72h72v-72z" />
    <glyph glyph-name="uni0698" unicode="&#x698;" horiz-adv-x="484" arabic-form="isolated" 
d="M435 91c0 -97 -37 -171 -111 -222s-168 -76 -284 -76v92c99 0 179 16 240 49s91 79 91 141c0 53 -27 110 -81 171v6h94c34 -53 51 -107 51 -161zM362 439h-72v72h72v-72zM434 337h-72v72h72v-72zM290 337h-72v72h72v-72z" />
    <glyph glyph-name="uni0699.fina" unicode="&#x699;" horiz-adv-x="484" 
d="M485 0c-23 0 -45 22 -53 45c-10 -75 -46 -134 -108 -176c-74 -51 -168 -76 -284 -76v92c100 0 180 16 240 49c61 33 91 79 91 141c0 54 -27 111 -81 171v6h94c34 -53 51 -107 51 -160h50v-92zM399 439h-72v72h72v-72zM267 439h-72v72h72v-72zM399 337h-72v72h72v-72z
M267 337h-72v72h72v-72z" />
    <glyph glyph-name="uni069A.init" unicode="&#x69a;" horiz-adv-x="604" 
d="M565 92c0 -61 -30 -92 -89 -92h-40c-48 0 -80 12 -97 35c-17 -23 -49 -35 -97 -35s-80 12 -97 35c-18 -23 -53 -35 -105 -35h-40c-39 0 -60 47 -60 92h100c49 0 73 21 73 65v49h64v-49c0 -44 21 -65 65 -65c43 0 65 21 65 65v49h64v-49c0 -44 22 -65 65 -65s65 13 65 39
v179h64v-218zM374 350h-72v72h72v-72zM374 -143h-72v72h72v-72z" />
    <glyph glyph-name="uni069B.init" unicode="&#x69b;" horiz-adv-x="604" 
d="M565 92c0 -61 -30 -92 -89 -92h-40c-48 0 -80 12 -97 35c-17 -23 -49 -35 -97 -35s-80 12 -97 35c-18 -23 -53 -35 -105 -35h-40c-39 0 -60 47 -60 92h100c49 0 73 21 73 65v49h64v-49c0 -44 21 -65 65 -65c43 0 65 21 65 65v49h64v-49c0 -44 22 -65 65 -65s65 13 65 39
v179h64v-218zM374 -210h-72v72h72v-72zM446 -108h-72v72h72v-72zM302 -108h-72v72h72v-72z" />
    <glyph glyph-name="uni069C.init" unicode="&#x69c;" horiz-adv-x="604" 
d="M565 92c0 -61 -30 -92 -89 -92h-40c-48 0 -80 12 -97 35c-17 -23 -49 -35 -97 -35s-80 12 -97 35c-18 -23 -53 -35 -105 -35h-40c-39 0 -60 47 -60 92h100c49 0 73 21 73 65v49h64v-49c0 -44 21 -65 65 -65c43 0 65 21 65 65v49h64v-49c0 -44 22 -65 65 -65s65 13 65 39
v179h64v-218zM374 -210h-72v72h72v-72zM446 -108h-72v72h72v-72zM302 -108h-72v72h72v-72zM345 452h-72v72h72v-72zM417 350h-72v72h72v-72zM273 350h-72v72h72v-72z" />
    <glyph glyph-name="uni069D.init" unicode="&#x69d;" horiz-adv-x="845" 
d="M825 147c0 -106 -114 -147 -231 -147h-370c-49 0 -86 13 -112 40c-24 -27 -62 -40 -112 -40c-39 0 -60 47 -60 92h62c52 0 78 31 78 93v5h64v-5c0 -62 26 -93 78 -93h47c76 106 142 184 200 233s113 73 167 73c49 0 92 -26 131 -79s58 -110 58 -172zM585 92
c53 0 96 6 128 17s48 25 48 43c0 43 -13 80 -41 110s-56 45 -85 45c-45 0 -90 -17 -135 -51s-96 -88 -151 -164h236zM692 -143h-72v72h72v-72zM560 -143h-72v72h72v-72z" />
    <glyph glyph-name="uni069E.init" unicode="&#x69e;" horiz-adv-x="845" 
d="M825 147c0 -106 -114 -147 -231 -147h-370c-49 0 -86 13 -112 40c-24 -27 -62 -40 -112 -40c-39 0 -60 47 -60 92h62c52 0 78 31 78 93v5h64v-5c0 -62 26 -93 78 -93h47c76 106 142 184 200 233s113 73 167 73c49 0 92 -26 131 -79s58 -110 58 -172zM585 92
c53 0 96 6 128 17s48 25 48 43c0 43 -13 80 -41 110s-56 45 -85 45c-45 0 -90 -17 -135 -51s-96 -88 -151 -164h236zM655 570h-72v72h72v-72zM727 468h-72v72h72v-72zM583 468h-72v72h72v-72z" />
    <glyph glyph-name="uni06A0.init" unicode="&#x6a0;" horiz-adv-x="542" 
d="M138 92c-49 27 -95 89 -95 160c0 64 19 114 55 151s84 55 143 55c78 0 143 -13 196 -40v-104h-5c-52 37 -114 55 -187 55c-45 0 -78 -12 -102 -35s-36 -50 -36 -83c0 -48 17 -84 49 -109s56 -38 71 -38c9 0 41 8 96 23s112 33 171 55v-92c-160 -60 -285 -90 -375 -90
h-119c-39 0 -60 47 -60 92h198zM281 645h-72v72h72v-72zM353 543h-72v72h72v-72zM209 543h-72v72h72v-72z" />
    <glyph glyph-name="uni06A0.medi" unicode="&#x6a0;" horiz-adv-x="392" 
d="M196 407c89 0 166 -34 166 -118c0 -56 -34 -116 -103 -181c28 -11 59 -16 93 -16h40v-92h-40c-47 0 -99 19 -156 56c-57 -37 -109 -56 -156 -56h-40c-39 0 -60 47 -60 92h100c34 0 65 5 93 16c-69 65 -103 125 -103 181c0 83 78 118 166 118zM298 273
c0 27 -34 41 -102 41s-102 -14 -102 -41c0 -17 9 -37 28 -62s43 -48 74 -70c31 22 55 45 74 70s28 45 28 62zM232 594h-72v72h72v-72zM304 492h-72v72h72v-72zM160 492h-72v72h72v-72z" />
    <glyph glyph-name="uni06A0.fina" unicode="&#x6a0;" horiz-adv-x="453" 
d="M231 477c85 0 166 -37 166 -118c0 -31 -8 -59 -25 -83s-54 -56 -112 -96c37 -37 68 -61 93 -72s52 -16 82 -16h18v-92h-10c-63 0 -141 48 -234 144c-35 -26 -61 -50 -78 -71s-25 -45 -25 -72c0 -35 16 -62 47 -84s67 -33 108 -33c61 0 120 21 177 63h5v-104
c-53 -33 -114 -50 -181 -50c-60 0 -112 20 -155 60s-65 89 -65 148c0 38 10 70 30 97s52 57 97 89c-39 43 -66 76 -81 99s-23 49 -23 75c0 78 83 116 166 116zM330 338c0 34 -58 46 -99 46c-28 0 -51 -4 -68 -13s-26 -19 -26 -32c0 -12 6 -26 19 -43s34 -41 64 -74
c39 26 67 48 84 65s26 34 26 51zM267 664h-72v72h72v-72zM339 562h-72v72h72v-72zM195 562h-72v72h72v-72z" />
    <glyph glyph-name="uni06A2.init" unicode="&#x6a2;" horiz-adv-x="290" 
d="M282 249c0 -148 -59 -249 -199 -249h-83c-39 0 -60 47 -60 92h144c39 0 71 12 98 37s40 58 40 99c-13 -13 -34 -20 -62 -20c-36 0 -67 14 -94 42s-40 65 -40 113c0 49 13 92 40 128s54 55 82 55c37 0 69 -27 95 -80s39 -126 39 -217zM147 456c-13 0 -26 -8 -40 -26
s-20 -39 -20 -64c0 -46 25 -68 75 -68c22 0 40 6 54 18c0 36 -8 69 -23 97s-31 43 -46 43zM186 -143h-72v72h72v-72z" />
    <glyph glyph-name="uni06A2.medi" unicode="&#x6a2;" horiz-adv-x="295" 
d="M148 407c78 0 120 -72 120 -155c0 -47 -22 -98 -66 -152c18 -6 36 -8 54 -8h40v-92h-20c-39 0 -82 16 -128 49c-46 -33 -89 -49 -128 -49h-20c-39 0 -60 47 -60 92h100c18 0 35 2 54 8c-44 54 -66 105 -66 152c0 83 42 155 120 155zM148 314c-36 0 -56 -31 -56 -67
c0 -43 19 -82 56 -117c37 35 56 74 56 117c0 36 -20 67 -56 67zM186 -143h-72v72h72v-72z" />
    <glyph glyph-name="uni06A3.init" unicode="&#x6a3;" horiz-adv-x="290" 
d="M282 249c0 -148 -59 -249 -199 -249h-83c-39 0 -60 47 -60 92h144c39 0 71 12 98 37s40 58 40 99c-13 -13 -34 -20 -62 -20c-36 0 -67 14 -94 42s-40 65 -40 113c0 49 13 92 40 128s54 55 82 55c37 0 69 -27 95 -80s39 -126 39 -217zM147 456c-13 0 -26 -8 -40 -26
s-20 -39 -20 -64c0 -46 25 -68 75 -68c22 0 40 6 54 18c0 36 -8 69 -23 97s-31 43 -46 43zM186 -143h-72v72h72v-72zM168 631h-72v72h72v-72z" />
    <glyph glyph-name="uni06A3.medi" unicode="&#x6a3;" horiz-adv-x="295" 
d="M148 407c78 0 120 -72 120 -155c0 -47 -22 -98 -66 -152c18 -6 36 -8 54 -8h40v-92h-20c-39 0 -82 16 -128 49c-46 -33 -89 -49 -128 -49h-20c-39 0 -60 47 -60 92h100c18 0 35 2 54 8c-44 54 -66 105 -66 152c0 83 42 155 120 155zM148 314c-36 0 -56 -31 -56 -67
c0 -43 19 -82 56 -117c37 35 56 74 56 117c0 36 -20 67 -56 67zM186 -143h-72v72h72v-72zM184 492h-72v72h72v-72z" />
    <glyph glyph-name="uni06A4" unicode="&#x6a4;" horiz-adv-x="790" arabic-form="final" 
d="M732 631h-72v72h72v-72zM103 239c0 -113 62 -147 181 -147h242c55 0 98 6 128 19s44 35 44 67v50c-13 -13 -31 -20 -54 -20c-36 0 -67 14 -94 42s-40 65 -40 113c0 49 13 92 40 128s55 55 82 55c37 0 68 -26 93 -79s37 -126 37 -218v-107c0 -46 -20 -80 -59 -105
s-97 -37 -173 -37h-247c-163 0 -244 78 -244 233c0 37 5 76 15 117h64v-5c-10 -36 -15 -71 -15 -106zM574 366c0 -39 33 -66 72 -66c18 0 34 6 47 19c0 30 -7 60 -21 90s-27 45 -41 45c-12 0 -24 -10 -37 -29s-20 -39 -20 -59zM516 631v72h72v-72h-72zM588 733v72h72v-72
h-72z" />
    <glyph glyph-name="uni06A5.init" unicode="&#x6a5;" horiz-adv-x="290" 
d="M282 249c0 -148 -59 -249 -199 -249h-83c-39 0 -60 47 -60 92h144c39 0 71 12 98 37s40 58 40 99c-13 -13 -34 -20 -62 -20c-36 0 -67 14 -94 42s-40 65 -40 113c0 49 13 92 40 128s54 55 82 55c37 0 69 -27 95 -80s39 -126 39 -217zM147 456c-13 0 -26 -8 -40 -26
s-20 -39 -20 -64c0 -46 25 -68 75 -68c22 0 40 6 54 18c0 36 -8 69 -23 97s-31 43 -46 43zM186 -210h-72v72h72v-72zM258 -108h-72v72h72v-72zM114 -108h-72v72h72v-72z" />
    <glyph glyph-name="uni06A5.medi" unicode="&#x6a5;" horiz-adv-x="295" 
d="M148 407c78 0 120 -72 120 -155c0 -47 -22 -98 -66 -152c18 -6 36 -8 54 -8h40v-92h-20c-39 0 -82 16 -128 49c-46 -33 -89 -49 -128 -49h-20c-39 0 -60 47 -60 92h100c18 0 35 2 54 8c-44 54 -66 105 -66 152c0 83 42 155 120 155zM148 314c-36 0 -56 -31 -56 -67
c0 -43 19 -82 56 -117c37 35 56 74 56 117c0 36 -20 67 -56 67zM186 -210h-72v72h72v-72zM258 -108h-72v72h72v-72zM114 -108h-72v72h72v-72z" />
    <glyph glyph-name="uni06A6" unicode="&#x6a6;" horiz-adv-x="790" arabic-form="final" 
d="M103 239c0 -111 64 -147 181 -147h242c115 0 172 28 172 86v50c-13 -13 -31 -20 -54 -20c-35 0 -67 14 -94 42s-40 66 -40 113c0 38 11 76 32 115c25 45 55 68 90 68c49 0 84 -40 107 -120c15 -53 23 -113 23 -177v-107c0 -95 -77 -142 -232 -142h-247
c-163 0 -244 78 -244 233c0 37 5 76 15 117h64v-5c-10 -36 -15 -71 -15 -106zM574 366c0 -39 33 -66 72 -66c18 0 34 6 47 19c0 22 -5 48 -16 78c-13 38 -28 57 -46 57c-15 0 -29 -11 -41 -34c-11 -20 -16 -38 -16 -54zM726 733h-72v72h72v-72zM594 733h-72v72h72v-72z
M726 631h-72v72h72v-72zM594 631h-72v72h72v-72z" />
    <glyph glyph-name="uni06A9" unicode="&#x6a9;" horiz-adv-x="594" arabic-form="final" 
d="M192 0c-104 0 -167 49 -167 151c0 13 1 33 4 59h65v-5c-4 -19 -5 -36 -5 -53c0 -40 34 -60 103 -60h208c56 0 93 6 93 53c0 12 -6 26 -19 40s-39 40 -79 78l-142 134c-34 33 -51 65 -51 96c0 17 7 33 20 47s42 34 86 60l246 147v-96l-206 -122c-13 -7 -25 -15 -36 -26
s-17 -20 -17 -27c0 -18 15 -41 45 -70l138 -131c41 -39 68 -68 79 -88s17 -39 17 -58c0 -86 -57 -129 -173 -129h-209z" />
    <glyph glyph-name="uni06AA.init" unicode="&#x6aa;" horiz-adv-x="978" 
d="M816 293c89 0 150 -40 150 -126c0 -75 -69 -124 -208 -146c-91 -14 -277 -21 -559 -21h-205c-40 0 -60 48 -60 92h266c444 0 666 25 666 77c0 23 -18 35 -53 35c-49 0 -145 -5 -288 -16s-249 -16 -320 -16c-70 0 -122 32 -122 99c0 57 48 117 143 177c35 22 91 51 170 87
v-96c-146 -62 -218 -112 -218 -150c0 -18 17 -27 51 -27c69 0 168 6 296 16s225 15 291 15z" />
    <glyph glyph-name="uni06AB.init" unicode="&#x6ab;" horiz-adv-x="394" 
d="M200 92c56 0 93 6 93 53c0 12 -6 26 -19 40s-39 40 -79 78l-142 134c-34 33 -51 65 -51 96c0 17 7 33 20 47s42 34 86 60l246 147v-96l-206 -122c-13 -7 -25 -15 -36 -26s-17 -20 -17 -27c0 -18 15 -41 45 -70l138 -131c41 -39 68 -68 79 -88s17 -39 17 -58
c0 -86 -58 -129 -173 -129h-201c-39 0 -60 47 -60 92h260zM181 546c0 39 31 70 70 70c38 0 70 -32 70 -70s-32 -70 -70 -70s-70 32 -70 70zM213 546c0 -21 17 -38 38 -38s38 17 38 38s-17 38 -38 38s-38 -17 -38 -38z" />
    <glyph glyph-name="uni06AC.init" unicode="&#x6ac;" horiz-adv-x="394" 
d="M200 92c56 0 93 6 93 53c0 12 -6 26 -19 40s-39 40 -79 78l-142 134c-34 33 -51 65 -51 96c0 17 7 33 20 47s42 34 86 60l246 147v-96l-206 -122c-13 -7 -25 -15 -36 -26s-17 -20 -17 -27c0 -18 15 -41 45 -70l138 -131c41 -39 68 -68 79 -88s17 -39 17 -58
c0 -86 -58 -129 -173 -129h-201c-39 0 -60 47 -60 92h260zM137 675h-72v72h72v-72z" />
    <glyph glyph-name="uni06AD" unicode="&#x6ad;" horiz-adv-x="600" arabic-form="final" 
d="M192 0c-104 0 -167 49 -167 151c0 13 1 33 4 59h65v-5c-4 -19 -5 -36 -5 -53c0 -40 34 -60 103 -60h204c67 0 100 25 100 76v592h64v-628c0 -86 -69 -132 -160 -132h-208zM315 429c-45 0 -67 -7 -67 -23c0 -9 9 -16 28 -20l31 -7c27 -6 41 -21 41 -45
c0 -53 -73 -69 -133 -69v34c66 0 99 11 99 32c0 6 -4 9 -10 12s-23 6 -49 12s-39 22 -39 49c0 45 49 59 99 59v-34zM357 688h-72v72h72v-72zM429 586h-72v72h72v-72zM285 586h-72v72h72v-72z" />
    <glyph glyph-name="uni06AE.init" unicode="&#x6ae;" horiz-adv-x="394" 
d="M200 92c56 0 93 6 93 53c0 12 -6 26 -19 40s-39 40 -79 78l-142 134c-34 33 -51 65 -51 96c0 17 7 33 20 47s42 34 86 60l246 147v-96l-206 -122c-13 -7 -25 -15 -36 -26s-17 -20 -17 -27c0 -18 15 -41 45 -70l138 -131c41 -39 68 -68 79 -88s17 -39 17 -58
c0 -86 -58 -129 -173 -129h-201c-39 0 -60 47 -60 92h260zM186 -210h-72v72h72v-72zM258 -108h-72v72h72v-72zM114 -108h-72v72h72v-72z" />
    <glyph glyph-name="uni06AF" unicode="&#x6af;" horiz-adv-x="594" arabic-form="final" 
d="M192 0c-104 0 -167 49 -167 151c0 13 1 33 4 59h65v-5c-4 -19 -5 -36 -5 -53c0 -40 34 -60 103 -60h208c56 0 93 6 93 53c0 12 -6 26 -19 40s-39 40 -79 78l-142 134c-34 33 -51 65 -51 96c0 17 7 33 20 47s42 34 86 60l246 147v-96l-206 -122c-13 -7 -25 -15 -36 -26
s-17 -20 -17 -27c0 -18 15 -41 45 -70l138 -131c41 -39 68 -68 79 -88s17 -39 17 -58c0 -86 -57 -129 -173 -129h-209zM542 805l-328 -196v49l328 196v-49z" />
    <glyph glyph-name="uni06B0.init" unicode="&#x6b0;" horiz-adv-x="394" 
d="M200 92c56 0 93 6 93 53c0 12 -6 26 -19 40s-39 40 -79 78l-142 134c-34 33 -51 65 -51 96c0 17 7 33 20 47s42 34 86 60l246 147v-96l-206 -122c-13 -7 -25 -15 -36 -26s-17 -20 -17 -27c0 -18 15 -41 45 -70l138 -131c41 -39 68 -68 79 -88s17 -39 17 -58
c0 -86 -58 -129 -173 -129h-201c-39 0 -60 47 -60 92h260zM342 805l-328 -196v49l328 196v-49zM181 546c0 39 31 70 70 70c38 0 70 -32 70 -70s-32 -70 -70 -70s-70 32 -70 70zM213 546c0 -21 17 -38 38 -38s38 17 38 38s-17 38 -38 38s-38 -17 -38 -38z" />
    <glyph glyph-name="uni06B1" unicode="&#x6b1;" horiz-adv-x="594" arabic-form="final" 
d="M192 0c-104 0 -167 49 -167 151c0 13 1 33 4 59h65v-5c-4 -19 -5 -36 -5 -53c0 -40 34 -60 103 -60h208c56 0 93 6 93 53c0 12 -6 26 -19 40s-39 40 -79 78l-142 134c-34 33 -51 65 -51 96c0 17 7 33 20 47s42 34 86 60l246 147v-96l-206 -122c-13 -7 -25 -15 -36 -26
s-17 -20 -17 -27c0 -18 15 -41 45 -70l138 -131c41 -39 68 -68 79 -88s17 -39 17 -58c0 -86 -57 -129 -173 -129h-209zM542 805l-328 -196v49l328 196v-49zM404 815h-72v72h72v-72zM272 815h-72v72h72v-72z" />
    <glyph glyph-name="uni06B2.init" unicode="&#x6b2;" horiz-adv-x="394" 
d="M200 92c56 0 93 6 93 53c0 12 -6 26 -19 40s-39 40 -79 78l-142 134c-34 33 -51 65 -51 96c0 17 7 33 20 47s42 34 86 60l246 147v-96l-206 -122c-13 -7 -25 -15 -36 -26s-17 -20 -17 -27c0 -18 15 -41 45 -70l138 -131c41 -39 68 -68 79 -88s17 -39 17 -58
c0 -86 -58 -129 -173 -129h-201c-39 0 -60 47 -60 92h260zM342 805l-328 -196v49l328 196v-49zM252 -143h-72v72h72v-72zM120 -143h-72v72h72v-72z" />
    <glyph glyph-name="uni06B3" unicode="&#x6b3;" horiz-adv-x="594" arabic-form="final" 
d="M192 0c-104 0 -167 49 -167 151c0 13 1 33 4 59h65v-5c-4 -19 -5 -36 -5 -53c0 -40 34 -60 103 -60h208c56 0 93 6 93 53c0 12 -6 26 -19 40s-39 40 -79 78l-142 134c-34 33 -51 65 -51 96c0 17 7 33 20 47s42 34 86 60l246 147v-96l-206 -122c-13 -7 -25 -15 -36 -26
s-17 -20 -17 -27c0 -18 15 -41 45 -70l138 -131c41 -39 68 -68 79 -88s17 -39 17 -58c0 -86 -57 -129 -173 -129h-209zM542 805l-328 -196v49l328 196v-49zM332 -108h-72v72h72v-72zM332 -210h-72v72h72v-72z" />
    <glyph glyph-name="uni06B4.init" unicode="&#x6b4;" horiz-adv-x="394" 
d="M200 92c56 0 93 6 93 53c0 12 -6 26 -19 40s-39 40 -79 78l-142 134c-34 33 -51 65 -51 96c0 17 7 33 20 47s42 34 86 60l246 147v-96l-206 -122c-13 -7 -25 -15 -36 -26s-17 -20 -17 -27c0 -18 15 -41 45 -70l138 -131c41 -39 68 -68 79 -88s17 -39 17 -58
c0 -86 -58 -129 -173 -129h-201c-39 0 -60 47 -60 92h260zM342 805l-328 -196v49l328 196v-49zM69 850h-72v72h72v-72zM141 748h-72v72h72v-72zM-3 748h-72v72h72v-72z" />
    <glyph glyph-name="uni06B5.init" unicode="&#x6b5;" horiz-adv-x="215" 
d="M176 132c0 -86 -69 -132 -160 -132h-16c-39 0 -60 47 -60 92h72c66 0 100 25 100 76v592h64v-628zM194 918l-64 -132h-37l-65 132h36l47 -99l48 99h35z" />
    <glyph glyph-name="uni06B5.medi" unicode="&#x6b5;" horiz-adv-x="215" 
d="M176 132c0 -86 -69 -132 -160 -132h-16c-39 0 -60 47 -60 92h72c66 0 100 25 100 76v592h64v-628zM194 918l-64 -132h-37l-65 132h36l47 -99l48 99h35z" />
    <glyph glyph-name="uni06B6.init" unicode="&#x6b6;" horiz-adv-x="215" 
d="M176 132c0 -86 -69 -132 -160 -132h-16c-39 0 -60 47 -60 92h72c66 0 100 25 100 76v592h64v-628zM146 812h-72v72h72v-72z" />
    <glyph glyph-name="uni06B6.medi" unicode="&#x6b6;" horiz-adv-x="215" 
d="M176 132c0 -86 -69 -132 -160 -132h-16c-39 0 -60 47 -60 92h72c66 0 100 25 100 76v592h64v-628zM146 812h-72v72h72v-72z" />
    <glyph glyph-name="uni06B7.init" unicode="&#x6b7;" horiz-adv-x="215" 
d="M144 850h-73v72h73v-72zM215 748h-71v72h71v-72zM71 748h-71v72h71v-72zM176 132c0 -86 -70 -132 -160 -132h-16c-20 0 -36 11 -47 33c-9 18 -13 37 -13 59h72c66 0 100 25 100 76v551h64v-587z" />
    <glyph glyph-name="uni06B7.medi" unicode="&#x6b7;" horiz-adv-x="215" 
d="M144 850h-73v72h73v-72zM215 748h-71v72h71v-72zM71 748h-71v72h71v-72zM176 132c0 -86 -70 -132 -160 -132h-16c-20 0 -36 11 -47 33c-9 18 -13 37 -13 59h72c66 0 100 25 100 76v551h64v-587z" />
    <glyph glyph-name="uni06B8.init" unicode="&#x6b8;" horiz-adv-x="215" 
d="M176 132c0 -86 -69 -132 -160 -132h-16c-39 0 -60 47 -60 92h72c66 0 100 25 100 76v592h64v-628zM144 -210h-72v72h72v-72zM216 -108h-72v72h72v-72zM72 -108h-72v72h72v-72z" />
    <glyph glyph-name="uni06B8.medi" unicode="&#x6b8;" horiz-adv-x="215" 
d="M176 132c0 -86 -69 -132 -160 -132h-16c-39 0 -60 47 -60 92h72c66 0 100 25 100 76v592h64v-628zM144 -210h-72v72h72v-72zM216 -108h-72v72h72v-72zM72 -108h-72v72h72v-72z" />
    <glyph glyph-name="uni06B9.init" unicode="&#x6b9;" horiz-adv-x="244" 
d="M204 132c0 -86 -69 -132 -160 -132h-44c-39 0 -60 47 -60 92h100c67 0 100 25 100 76v182h64v-218zM174 435h-72v72h72v-72zM136 -143h-72v72h72v-72z" />
    <glyph glyph-name="uni06BA" unicode="&#x6ba;" horiz-adv-x="529" arabic-form="final" 
d="M270 -207c-165 0 -245 121 -245 291c0 35 4 73 13 112h64v-5c-9 -31 -13 -65 -13 -101c0 -137 60 -205 181 -205s181 68 181 205c0 19 -2 41 -7 67l-6 34v5h64c9 -39 13 -77 13 -112c0 -170 -80 -291 -245 -291z" />
    <glyph glyph-name="uni06BB" unicode="&#x6bb;" horiz-adv-x="529" arabic-form="final" 
d="M270 -207c-165 0 -245 121 -245 291c0 35 4 73 13 112h64v-5c-9 -31 -13 -65 -13 -101c0 -137 60 -205 181 -205s181 68 181 205c0 19 -2 41 -7 67l-6 34v5h64c9 -39 13 -77 13 -112c0 -170 -80 -291 -245 -291zM365 297c0 -35 -26 -53 -78 -53h-111v33h32v201h28v-160
c19 46 42 69 68 69c19 0 34 -11 46 -33c10 -18 15 -37 15 -57zM338 299c0 24 -13 55 -34 55c-19 0 -42 -25 -68 -77h47c36 0 55 7 55 22z" />
    <glyph glyph-name="uni06BC.init" unicode="&#x6bc;" horiz-adv-x="244" 
d="M204 132c0 -86 -69 -132 -160 -132h-44c-39 0 -60 47 -60 92h100c67 0 100 25 100 76v182h64v-218zM174 435h-72v72h72v-72zM34 -32c0 39 31 70 70 70c38 0 70 -32 70 -70s-32 -70 -70 -70s-70 32 -70 70zM66 -32c0 -21 17 -38 38 -38s38 17 38 38s-17 38 -38 38
s-38 -17 -38 -38z" />
    <glyph glyph-name="uni06BD.init" unicode="&#x6bd;" horiz-adv-x="244" 
d="M204 132c0 -86 -69 -132 -160 -132h-44c-39 0 -60 47 -60 92h100c67 0 100 25 100 76v182h64v-218zM208 -108h-72v72h72v-72zM64 -108h-72v72h72v-72zM136 -210h-72v72h72v-72z" />
    <glyph glyph-name="uni06BE" unicode="&#x647;" horiz-adv-x="450" arabic-form="initial" 
d="M27 197c0 93 36 180 121 180c43 0 79 -22 107 -65s42 -92 42 -147c0 -28 -6 -52 -18 -73h15c49 0 73 21 73 63c0 60 -28 122 -84 190s-125 102 -206 102h-21v92h20c81 0 160 -44 238 -132s117 -174 117 -258c0 -99 -58 -149 -175 -149h-256c-39 0 -60 47 -60 92h119
c-21 34 -32 69 -32 105zM91 190c0 -53 29 -108 80 -108c43 0 62 36 62 80c0 59 -28 122 -85 122c-41 0 -57 -49 -57 -94z" />
    <glyph glyph-name="uni06BF.init" unicode="&#x6bf;" horiz-adv-x="542" 
d="M503 90c-58 0 -144 -15 -256 -45s-195 -45 -247 -45c-39 0 -60 47 -60 92h63c47 0 118 13 215 39s162 41 198 43c-99 89 -205 133 -319 133h-46v91h51c95 0 161 -31 222 -70c55 -36 103 -77 155 -126l21 -20h1h2v-92zM415 -108h-72v72h72v-72zM271 -108h-72v72h72v-72z
M343 -210h-72v72h72v-72zM348 457h-72v72h72v-72z" />
    <glyph glyph-name="uni06BF.fina" unicode="&#x6bf;" horiz-adv-x="542" 
d="M527 0c-95 0 -126 56 -126 156v106c-92 -5 -165 -25 -217 -61s-78 -84 -78 -143c0 -56 20 -98 60 -129s91 -46 153 -46c88 0 158 18 210 54h5v-97c-52 -31 -123 -47 -214 -47c-81 0 -148 23 -200 71s-78 112 -78 192c0 81 35 146 106 194s160 72 266 72
c-85 37 -188 55 -307 55h-38v91h43c61 0 127 -13 198 -38s138 -59 200 -103v-64h-45v-80c0 -38 5 -63 15 -74s25 -17 45 -17h18v-92h-16zM361 54h-72v72h72v-72zM217 54h-72v72h72v-72zM289 -48h-72v72h72v-72zM375 547h-72v72h72v-72z" />
    <glyph glyph-name="uni06C0" unicode="&#x6c0;" horiz-adv-x="310" arabic-form="isolated" 
d="M160 -6c-93 0 -130 86 -130 188c0 64 21 126 65 184c-12 3 -25 5 -40 5v83c70 -4 127 -33 170 -86s65 -112 65 -176c0 -60 -12 -108 -37 -144s-56 -54 -93 -54zM94 182c0 -52 19 -96 66 -96c44 0 66 35 66 106c0 66 -27 117 -80 153c-35 -45 -52 -99 -52 -163zM95 611
c0 -24 31 -38 57 -38h27v-34h-123v34h27c-14 8 -21 21 -21 38c0 35 28 59 64 59c18 0 32 -2 42 -6v-36c-12 6 -25 8 -41 8c-21 0 -32 -8 -32 -25z" />
    <glyph glyph-name="uni06C1" unicode="&#x6c1;" horiz-adv-x="531" arabic-form="final" 
d="M531 0c-82 0 -130 34 -147 101c-11 43 -22 82 -65 82c-34 0 -68 -29 -103 -89c-28 -48 -56 -108 -82 -180h-85v5c53 118 93 196 118 235c48 73 98 109 151 109c63 0 107 -39 132 -118c7 -22 14 -36 21 -43s27 -10 60 -10v-92z" />
    <glyph glyph-name="uni06C5" unicode="&#x6c5;" horiz-adv-x="423" arabic-form="final" 
d="M267 55c-81 0 -131 71 -131 155c0 38 10 76 31 115c24 46 53 68 88 68c47 0 82 -41 105 -122c16 -55 24 -113 24 -175c0 -108 -38 -188 -115 -239c-65 -43 -155 -64 -269 -64v92c136 0 229 27 280 81h-197v53h229c6 17 9 35 9 56c-13 -13 -32 -20 -54 -20zM200 213
c0 -39 30 -66 69 -66c21 0 37 6 46 19c0 22 -6 48 -16 78c-13 38 -28 57 -45 57c-15 0 -29 -12 -40 -34c-9 -19 -14 -37 -14 -54z" />
    <glyph glyph-name="uni06C6" unicode="&#x6c6;" horiz-adv-x="423" arabic-form="final" 
d="M136 210c0 49 13 92 39 128s53 55 80 55c34 0 64 -26 90 -80s39 -126 39 -217c0 -216 -156 -303 -384 -303v92c106 0 186 16 240 49s81 80 81 141c-13 -13 -32 -20 -54 -20c-36 0 -66 14 -92 42s-39 65 -39 113zM200 213c0 -39 30 -66 69 -66c21 0 37 6 46 19
c0 30 -7 60 -21 90s-27 45 -40 45c-30 0 -54 -55 -54 -88zM315 610l-64 -132h-37l-65 132h36l47 -99l48 99h35z" />
    <glyph glyph-name="uni06C7" unicode="&#x6c7;" horiz-adv-x="423" arabic-form="final" 
d="M136 210c0 49 13 92 39 128s53 55 80 55c34 0 64 -26 90 -80s39 -126 39 -217c0 -216 -156 -303 -384 -303v92c106 0 186 16 240 49s81 80 81 141c-13 -13 -32 -20 -54 -20c-36 0 -66 14 -92 42s-39 65 -39 113zM200 213c0 -39 30 -66 69 -66c21 0 37 6 46 19
c0 30 -7 60 -21 90s-27 45 -40 45c-30 0 -54 -55 -54 -88zM239 644c45 0 67 -28 67 -73c0 -25 -7 -50 -22 -74s-36 -49 -64 -73l-24 25c25 21 53 53 67 85c-8 -4 -20 -5 -31 -5c-32 0 -54 23 -54 54c0 37 24 61 61 61z" />
    <glyph glyph-name="uni06C8" unicode="&#x6c8;" horiz-adv-x="423" arabic-form="final" 
d="M136 210c0 49 13 92 39 128s53 55 80 55c34 0 64 -26 90 -80s39 -126 39 -217c0 -216 -156 -303 -384 -303v92c106 0 186 16 240 49s81 80 81 141c-13 -13 -32 -20 -54 -20c-36 0 -66 14 -92 42s-39 65 -39 113zM200 213c0 -39 30 -66 69 -66c21 0 37 6 46 19
c0 30 -7 60 -21 90s-27 45 -40 45c-30 0 -54 -55 -54 -88zM255 478h-34v250h34v-250z" />
    <glyph glyph-name="uni06C9" unicode="&#x6c9;" horiz-adv-x="423" arabic-form="final" 
d="M136 210c0 49 13 92 39 128s53 55 80 55c34 0 64 -26 90 -80s39 -126 39 -217c0 -216 -156 -303 -384 -303v92c106 0 186 16 240 49s81 80 81 141c-13 -13 -32 -20 -54 -20c-36 0 -66 14 -92 42s-39 65 -39 113zM200 213c0 -39 30 -66 69 -66c21 0 37 6 46 19
c0 30 -7 60 -21 90s-27 45 -40 45c-30 0 -54 -55 -54 -88zM304 478l-62 99l-62 -99h-35l79 132h37l79 -132h-36z" />
    <glyph glyph-name="uni06CB" unicode="&#x6cb;" horiz-adv-x="423" arabic-form="final" 
d="M136 210c0 49 13 92 39 128s53 55 80 55c34 0 64 -26 90 -80s39 -126 39 -217c0 -216 -156 -303 -384 -303v92c106 0 186 16 240 49s81 80 81 141c-13 -13 -32 -20 -54 -20c-36 0 -66 14 -92 42s-39 65 -39 113zM200 213c0 -39 30 -66 69 -66c21 0 37 6 46 19
c0 30 -7 60 -21 90s-27 45 -40 45c-30 0 -54 -55 -54 -88zM285 580h-72v72h72v-72zM357 478h-72v72h72v-72zM213 478h-72v72h72v-72z" />
    <glyph glyph-name="uni06CC" unicode="&#x6cc;" horiz-adv-x="640" arabic-form="isolated" 
d="M79 217c0 -99 71 -125 180 -125c90 0 159 6 207 20s71 32 71 53c0 14 -8 27 -23 40s-47 31 -95 54s-82 47 -102 70s-30 49 -30 78c0 40 15 74 46 104s71 45 120 45c54 0 105 -9 152 -29v-104h-5c-49 29 -101 43 -156 43c-44 0 -93 -21 -93 -60c0 -14 7 -28 19 -41
s45 -33 98 -60s88 -50 106 -70s27 -44 27 -72c0 -52 -29 -93 -87 -121s-143 -42 -256 -42c-162 0 -243 72 -243 216c0 32 3 73 10 123h65v-5c-7 -44 -11 -83 -11 -117z" />
    <glyph glyph-name="uni06CD.fina" unicode="&#x6cd;" horiz-adv-x="695" 
d="M354 244c0 72 38 118 110 118c37 0 65 -14 85 -41c13 -17 25 -48 38 -92s24 -74 33 -90c19 -32 43 -47 75 -47v-92c-55 0 -94 27 -118 80c-2 4 -13 34 -34 92c-16 44 -28 71 -37 81c-11 11 -25 17 -42 17c-30 0 -45 -14 -45 -43c0 -18 13 -41 36 -69
c31 -37 46 -74 46 -111c0 -86 -61 -129 -183 -129c-127 0 -199 93 -199 224c0 13 1 30 3 50l-120 -38v47l191 64v-5c-7 -44 -10 -83 -10 -117c0 -89 45 -133 136 -133c77 0 117 19 117 57c0 17 -13 40 -37 69c-31 36 -45 73 -45 108z" />
    <glyph glyph-name="uni06CE.init" unicode="&#x6ce;" horiz-adv-x="244" 
d="M204 132c0 -86 -69 -132 -160 -132h-44c-39 0 -60 47 -60 92h100c67 0 100 25 100 76v182h64v-218zM204 -143h-72v72h72v-72zM72 -143h-72v72h72v-72zM223 567l-64 -132h-37l-65 132h36l47 -99l48 99h35z" />
    <glyph glyph-name="uni06CE.fina" unicode="&#x6ce;" horiz-adv-x="591" 
d="M250 244c0 71 39 118 111 118c26 0 48 -8 68 -22s38 -51 55 -111s33 -99 49 -114s36 -23 59 -23v-92c-65 0 -98 34 -119 80c-11 24 -22 56 -35 96s-25 66 -36 77s-24 17 -41 17c-30 0 -45 -14 -45 -43c0 -18 12 -41 35 -69c31 -37 47 -74 47 -111
c0 -86 -61 -129 -183 -129c-60 0 -108 20 -145 60s-55 94 -55 164c0 21 2 49 7 83h65v-5c-5 -21 -8 -47 -8 -77c0 -94 43 -133 137 -133c77 0 116 19 116 57c0 17 -12 40 -36 69c-31 36 -46 72 -46 108zM227 481l-64 -132h-37l-65 132h36l47 -99l48 99h35z" />
    <glyph glyph-name="uni06D0" unicode="&#x6d0;" horiz-adv-x="640" arabic-form="isolated" 
d="M79 217c0 -99 71 -125 180 -125c90 0 159 6 207 20s71 32 71 53c0 14 -8 27 -23 40s-47 31 -95 54s-82 47 -102 70s-30 49 -30 78c0 40 15 74 46 104s71 45 120 45c54 0 105 -9 152 -29v-104h-5c-49 29 -101 43 -156 43c-44 0 -93 -21 -93 -60c0 -14 7 -28 19 -41
s45 -33 98 -60s88 -50 106 -70s27 -44 27 -72c0 -52 -29 -93 -87 -121s-143 -42 -256 -42c-162 0 -243 72 -243 216c0 32 3 73 10 123h65v-5c-7 -44 -11 -83 -11 -117zM303 -108h-72v72h72v-72zM303 -210h-72v72h72v-72z" />
    <glyph glyph-name="uni06D1.fina" unicode="&#x6d1;" horiz-adv-x="591" 
d="M250 281c0 72 39 118 111 118c47 0 80 -27 101 -80c14 -49 28 -99 42 -148c18 -53 48 -79 88 -79v-92c-51 0 -90 27 -115 80c-15 49 -30 99 -46 148c-17 53 -40 79 -70 79s-45 -14 -45 -43c0 -15 11 -38 33 -67s34 -58 34 -87c0 -94 -66 -119 -168 -119
c-123 0 -200 64 -200 185c0 21 2 49 7 83h65v-5c-5 -21 -8 -47 -8 -77c0 -76 53 -94 137 -94c38 0 65 4 79 11s22 21 22 40c0 15 -12 37 -34 65s-33 56 -33 82zM336 -108h-72v72h72v-72zM192 -108h-72v72h72v-72zM264 -210h-72v72h72v-72z" />
    <glyph glyph-name="uni06D2" unicode="&#x6d2;" horiz-adv-x="855" arabic-form="isolated" 
d="M919 -55c0 -44 -20 -91 -60 -91h-634c-144 0 -216 30 -216 92c0 30 13 54 38 72c16 12 48 26 95 43c53 20 93 36 119 51c24 14 56 47 93 100c31 44 59 66 83 66c32 0 64 -30 97 -89v-91c-19 30 -19 29 -38 59c-21 30 -38 45 -50 45c-7 0 -23 -19 -49 -56
c-30 -43 -56 -72 -80 -87c-32 -20 -79 -40 -139 -59c-46 -14 -68 -24 -68 -32c0 -15 28 -23 84 -23h725z" />
    <glyph glyph-name="uni06D3" unicode="&#x6d3;" horiz-adv-x="855" arabic-form="isolated" 
d="M919 -55c0 -44 -20 -91 -60 -91h-634c-144 0 -216 30 -216 92c0 30 13 54 38 72c16 12 48 26 95 43c53 20 93 36 119 51c24 14 56 47 93 100c31 44 59 66 83 66c32 0 64 -30 97 -89v-91c-19 30 -19 29 -38 59c-21 30 -38 45 -50 45c-7 0 -23 -19 -49 -56
c-30 -43 -56 -72 -80 -87c-32 -20 -79 -40 -139 -59c-46 -14 -68 -24 -68 -32c0 -15 28 -23 84 -23h725zM402 426c0 -24 31 -38 57 -38h27v-34h-123v34h27c-14 8 -21 21 -21 38c0 35 28 59 64 59c18 0 32 -2 42 -6v-36c-12 6 -25 8 -41 8c-21 0 -32 -8 -32 -25z" />
    <glyph glyph-name="uni06D5.fina" unicode="&#x6d5;" horiz-adv-x="381" 
d="M330 192c0 -55 6 -100 52 -100v-92c-39 0 -68 13 -87 39s-29 77 -29 153c-19 -31 -64 -63 -111 -63c-76 0 -120 61 -120 141c0 48 21 93 62 135s97 69 169 82v35h64v-330zM99 271c0 -35 22 -58 56 -58c47 0 84 22 111 65v143c-53 -11 -94 -30 -123 -58s-44 -58 -44 -92z
" />
    <glyph glyph-name="uni06EE.fina" unicode="&#x6ee;" horiz-adv-x="339" 
d="M320 158c0 -103 -72 -158 -179 -158h-136v92h135c36 0 64 6 85 19s31 28 31 46c0 60 -56 125 -168 195v115h5c151 -111 227 -214 227 -309zM177 537l-62 99l-62 -99h-35l79 132h37l79 -132h-36z" />
    <glyph glyph-name="uni06EF.fina" unicode="&#x6ef;" horiz-adv-x="484" 
d="M485 0c-23 0 -45 22 -53 45c-10 -75 -46 -134 -108 -176c-74 -51 -168 -76 -284 -76v92c100 0 180 16 240 49c61 33 91 79 91 141c0 54 -27 111 -81 171v6h94c34 -53 51 -107 51 -160h50v-92zM367 337l-62 99l-62 -99h-35l79 132h37l79 -132h-36z" />
    <glyph glyph-name="uni06FA.init" unicode="&#x6fa;" horiz-adv-x="604" 
d="M565 92c0 -61 -30 -92 -89 -92h-40c-48 0 -80 12 -97 35c-17 -23 -49 -35 -97 -35s-80 12 -97 35c-18 -23 -53 -35 -105 -35h-40c-39 0 -60 47 -60 92h100c49 0 73 21 73 65v49h64v-49c0 -44 21 -65 65 -65c43 0 65 21 65 65v49h64v-49c0 -44 22 -65 65 -65s65 13 65 39
v179h64v-218zM374 -143h-72v72h72v-72zM345 452h-72v72h72v-72zM417 350h-72v72h72v-72zM273 350h-72v72h72v-72z" />
    <glyph glyph-name="uni06FB.init" unicode="&#x6fb;" horiz-adv-x="845" 
d="M825 147c0 -106 -114 -147 -231 -147h-370c-49 0 -86 13 -112 40c-24 -27 -62 -40 -112 -40c-39 0 -60 47 -60 92h62c52 0 78 31 78 93v5h64v-5c0 -62 26 -93 78 -93h47c76 106 142 184 200 233s113 73 167 73c49 0 92 -26 131 -79s58 -110 58 -172zM585 92
c53 0 96 6 128 17s48 25 48 43c0 43 -13 80 -41 110s-56 45 -85 45c-45 0 -90 -17 -135 -51s-96 -88 -151 -164h236zM655 468h-72v72h72v-72zM626 -143h-72v72h72v-72z" />
    <glyph glyph-name="uni06FC.init" unicode="&#x6fc;" horiz-adv-x="542" 
d="M138 92c-49 27 -95 89 -95 160c0 64 19 114 55 151s84 55 143 55c78 0 143 -13 196 -40v-104h-5c-52 37 -114 55 -187 55c-45 0 -78 -12 -102 -35s-36 -50 -36 -83c0 -48 17 -84 49 -109s56 -38 71 -38c9 0 41 8 96 23s112 33 171 55v-92c-160 -60 -285 -90 -375 -90
h-119c-39 0 -60 47 -60 92h198zM281 543h-72v72h72v-72zM281 195h-72v72h72v-72z" />
    <glyph glyph-name="uni06FC.medi" unicode="&#x6fc;" horiz-adv-x="392" 
d="M196 407c89 0 166 -34 166 -118c0 -56 -34 -116 -103 -181c28 -11 59 -16 93 -16h40v-92h-40c-47 0 -99 19 -156 56c-57 -37 -109 -56 -156 -56h-40c-39 0 -60 47 -60 92h100c34 0 65 5 93 16c-69 65 -103 125 -103 181c0 83 78 118 166 118zM298 273
c0 27 -34 41 -102 41s-102 -14 -102 -41c0 -17 9 -37 28 -62s43 -48 74 -70c31 22 55 45 74 70s28 45 28 62zM232 492h-72v72h72v-72zM232 -143h-72v72h72v-72z" />
    <glyph glyph-name="uni06FC.fina" unicode="&#x6fc;" horiz-adv-x="453" 
d="M231 477c85 0 166 -37 166 -118c0 -31 -8 -59 -25 -83s-54 -56 -112 -96c37 -37 68 -61 93 -72s52 -16 82 -16h18v-92h-10c-63 0 -141 48 -234 144c-35 -26 -61 -50 -78 -71s-25 -45 -25 -72c0 -35 16 -62 47 -84s67 -33 108 -33c61 0 120 21 177 63h5v-104
c-53 -33 -114 -50 -181 -50c-60 0 -112 20 -155 60s-65 89 -65 148c0 38 10 70 30 97s52 57 97 89c-39 43 -66 76 -81 99s-23 49 -23 75c0 78 83 116 166 116zM330 338c0 34 -58 46 -99 46c-28 0 -51 -4 -68 -13s-26 -19 -26 -32c0 -12 6 -26 19 -43s34 -41 64 -74
c39 26 67 48 84 65s26 34 26 51zM267 562h-72v72h72v-72zM254 -39h-72v72h72v-72z" />
    <glyph glyph-name="uni06FF.isol" unicode="&#x6ff;" horiz-adv-x="450" 
d="M27 197c0 93 36 180 121 180c43 0 79 -22 107 -65s42 -92 42 -147c0 -28 -6 -52 -18 -73h15c49 0 73 21 73 63c0 60 -28 122 -84 190s-125 102 -206 102h-21v92h20c81 0 160 -44 238 -132s117 -174 117 -258c0 -99 -58 -149 -175 -149h-256c-39 0 -60 47 -60 92h119
c-21 34 -32 69 -32 105zM91 190c0 -53 29 -108 80 -108c43 0 62 36 62 80c0 59 -28 122 -85 122c-41 0 -57 -49 -57 -94zM265 596l-62 99l-62 -99h-35l79 132h37l79 -132h-36z" />
    <glyph glyph-name="uni06FF.medi" unicode="&#x6ff;" horiz-adv-x="392" 
d="M216 289c62 0 99 -50 99 -113c0 -38 -16 -66 -49 -84h126v-92h-117c27 -19 40 -47 40 -84c0 -66 -39 -123 -103 -123c-27 0 -54 19 -81 58s-40 88 -40 149h-91c-39 0 -60 47 -60 92h151c0 60 14 107 41 143s55 54 84 54zM251 158c0 21 -13 39 -34 39
c-15 0 -30 -10 -44 -30s-21 -44 -21 -75h48c31 0 51 33 51 66zM251 -72c0 33 -19 72 -51 72h-48c0 -32 7 -58 20 -81s27 -34 41 -34c25 0 38 14 38 43zM265 391l-62 99l-62 -99h-35l79 132h37l79 -132h-36z" />
    <glyph glyph-name="uni06FF.fina" unicode="&#x6ff;" horiz-adv-x="392" 
d="M216 289c62 0 99 -50 99 -113c0 -38 -16 -66 -49 -84h126v-92h-117c27 -19 40 -47 40 -84c0 -66 -39 -123 -103 -123c-27 0 -54 19 -81 58s-40 88 -40 149h-91c-39 0 -60 47 -60 92h151c0 60 14 107 41 143s55 54 84 54zM251 158c0 21 -13 39 -34 39
c-15 0 -30 -10 -44 -30s-21 -44 -21 -75h48c31 0 51 33 51 66zM251 -72c0 33 -19 72 -51 72h-48c0 -32 7 -58 20 -81s27 -34 41 -34c25 0 38 14 38 43zM265 391l-62 99l-62 -99h-35l79 132h37l79 -132h-36z" />
    <glyph glyph-name="uniFB51" unicode="&#x671;" horiz-adv-x="233" arabic-form="final" 
d="M151 168c0 -56 24 -76 81 -76h2v-92c-96 0 -147 64 -147 162v598h64v-592zM73 836c8 40 36 81 81 81c37 0 55 -18 55 -56c0 -22 -9 -41 -28 -55c-17 -13 -36 -20 -57 -20c-10 0 -24 3 -41 10s-31 11 -40 11c-10 0 -23 -7 -41 -21v34c17 14 32 21 42 21c8 0 18 -2 29 -5z
M124 821c25 0 51 17 51 40c0 15 -7 22 -21 22c-26 0 -45 -34 -49 -59c7 -2 13 -3 19 -3z" />
    <glyph glyph-name="uniFB54" unicode="&#x67b;" horiz-adv-x="244" arabic-form="initial" 
d="M204 132c0 -86 -69 -132 -160 -132h-44c-39 0 -60 47 -60 92h100c67 0 100 25 100 76v182h64v-218zM136 -108h-72v72h72v-72zM136 -210h-72v72h72v-72z" />
    <glyph glyph-name="uniFB58" unicode="&#x67e;" horiz-adv-x="244" arabic-form="initial" 
d="M204 132c0 -86 -69 -132 -160 -132h-44c-39 0 -60 47 -60 92h100c67 0 100 25 100 76v182h64v-218zM208 -108h-72v72h72v-72zM64 -108h-72v72h72v-72zM136 -210h-72v72h72v-72z" />
    <glyph glyph-name="uniFB5C" unicode="&#x680;" horiz-adv-x="244" arabic-form="initial" 
d="M204 132c0 -86 -69 -132 -160 -132h-44c-39 0 -60 47 -60 92h100c67 0 100 25 100 76v182h64v-218zM204 -108h-72v72h72v-72zM72 -108h-72v72h72v-72zM204 -210h-72v72h72v-72zM72 -210h-72v72h72v-72z" />
    <glyph glyph-name="uniFB60" unicode="&#x67a;" horiz-adv-x="244" arabic-form="initial" 
d="M204 132c0 -86 -69 -132 -160 -132h-44c-39 0 -60 47 -60 92h100c67 0 100 25 100 76v182h64v-218zM174 537h-72v72h72v-72zM174 435h-72v72h72v-72z" />
    <glyph glyph-name="uniFB64" unicode="&#x67f;" horiz-adv-x="244" arabic-form="initial" 
d="M204 132c0 -86 -69 -132 -160 -132h-44c-39 0 -60 47 -60 92h100c67 0 100 25 100 76v182h64v-218zM240 537h-72v72h72v-72zM108 537h-72v72h72v-72zM240 435h-72v72h72v-72zM108 435h-72v72h72v-72z" />
    <glyph glyph-name="uniFB68" unicode="&#x679;" horiz-adv-x="244" arabic-form="initial" 
d="M204 132c0 -86 -69 -132 -160 -132h-44c-39 0 -60 47 -60 92h100c67 0 100 25 100 76v182h64v-218zM213 444c0 -35 -26 -53 -78 -53h-111v33h32v201h28v-160c19 46 42 69 68 69c19 0 34 -11 46 -33c10 -18 15 -37 15 -57zM186 446c0 24 -13 55 -34 55
c-19 0 -42 -25 -68 -77h47c36 0 55 7 55 22z" />
    <glyph glyph-name="uniFB6C" unicode="&#x6a4;" horiz-adv-x="290" arabic-form="initial" 
d="M282 249c0 -148 -59 -249 -199 -249h-83c-39 0 -60 47 -60 92h144c39 0 71 12 98 37s40 58 40 99c-13 -13 -34 -20 -62 -20c-36 0 -67 14 -94 42s-40 65 -40 113c0 49 13 92 40 128s54 55 82 55c37 0 69 -27 95 -80s39 -126 39 -217zM147 456c-13 0 -26 -8 -40 -26
s-20 -39 -20 -64c0 -46 25 -68 75 -68c22 0 40 6 54 18c0 36 -8 69 -23 97s-31 43 -46 43zM186 733h-72v72h72v-72zM258 631h-72v72h72v-72zM114 631h-72v72h72v-72z" />
    <glyph glyph-name="uniFB6D" unicode="&#x6a4;" horiz-adv-x="295" arabic-form="medial" 
d="M148 407c78 0 120 -72 120 -155c0 -47 -22 -98 -66 -152c18 -6 36 -8 54 -8h40v-92h-20c-39 0 -82 16 -128 49c-46 -33 -89 -49 -128 -49h-20c-39 0 -60 47 -60 92h100c18 0 35 2 54 8c-44 54 -66 105 -66 152c0 83 42 155 120 155zM148 314c-36 0 -56 -31 -56 -67
c0 -43 19 -82 56 -117c37 35 56 74 56 117c0 36 -20 67 -56 67zM186 594h-72v72h72v-72zM258 492h-72v72h72v-72zM114 492h-72v72h72v-72z" />
    <glyph glyph-name="uniFB70" unicode="&#x6a6;" horiz-adv-x="290" arabic-form="initial" 
d="M282 249c0 -148 -59 -249 -199 -249h-83c-39 0 -60 47 -60 92h144c39 0 71 12 98 37s40 58 40 99c-13 -13 -34 -20 -62 -20c-36 0 -67 14 -94 42s-40 65 -40 113c0 49 13 92 40 128s54 55 82 55c37 0 69 -27 95 -80s39 -126 39 -217zM147 456c-13 0 -26 -8 -40 -26
s-20 -39 -20 -64c0 -46 25 -68 75 -68c22 0 40 6 54 18c0 36 -8 69 -23 97s-31 43 -46 43zM244 733h-72v72h72v-72zM112 733h-72v72h72v-72zM244 631h-72v72h72v-72zM112 631h-72v72h72v-72z" />
    <glyph glyph-name="uniFB71" unicode="&#x6a6;" horiz-adv-x="295" arabic-form="medial" 
d="M148 407c78 0 120 -72 120 -155c0 -47 -22 -98 -66 -152c18 -6 36 -8 54 -8h40v-92h-20c-39 0 -82 16 -128 49c-46 -33 -89 -49 -128 -49h-20c-39 0 -60 47 -60 92h100c18 0 35 2 54 8c-44 54 -66 105 -66 152c0 83 42 155 120 155zM148 314c-36 0 -56 -31 -56 -67
c0 -43 19 -82 56 -117c37 35 56 74 56 117c0 36 -20 67 -56 67zM250 594h-72v72h72v-72zM118 594h-72v72h72v-72zM250 492h-72v72h72v-72zM118 492h-72v72h72v-72z" />
    <glyph glyph-name="uniFB73" unicode="&#x684;" horiz-adv-x="542" arabic-form="final" 
d="M425 183c0 -67 32 -91 100 -91h18v-92h-16c-111 0 -166 52 -166 156v103c-80 -8 -142 -31 -187 -66s-68 -80 -68 -135c0 -56 20 -98 60 -129s91 -46 153 -46c88 0 158 18 210 54h5v-97c-52 -31 -123 -47 -214 -47c-81 0 -148 23 -200 71s-78 112 -78 192
c0 81 35 146 106 194s160 72 266 72c-85 37 -188 55 -307 55h-38v91h43c61 0 127 -13 198 -38s138 -59 200 -103v-64c-47 0 -75 0 -85 -1v-79zM293 54h-72v72h72v-72zM293 -48h-72v72h72v-72z" />
    <glyph glyph-name="uniFB74" unicode="&#x684;" horiz-adv-x="542" arabic-form="initial" 
d="M503 90c-58 0 -144 -15 -256 -45s-195 -45 -247 -45c-39 0 -60 47 -60 92h63c47 0 118 13 215 39s162 41 198 43c-99 89 -205 133 -319 133h-46v91h51c95 0 161 -31 222 -70c55 -36 103 -77 155 -126l21 -20h1h2v-92zM343 -108h-72v72h72v-72zM343 -210h-72v72h72v-72z
" />
    <glyph glyph-name="uniFB77" unicode="&#x683;" horiz-adv-x="542" arabic-form="final" 
d="M425 183c0 -67 32 -91 100 -91h18v-92h-16c-111 0 -166 52 -166 156v103c-80 -8 -142 -31 -187 -66s-68 -80 -68 -135c0 -56 20 -98 60 -129s91 -46 153 -46c88 0 158 18 210 54h5v-97c-52 -31 -123 -47 -214 -47c-81 0 -148 23 -200 71s-78 112 -78 192
c0 81 35 146 106 194s160 72 266 72c-85 37 -188 55 -307 55h-38v91h43c61 0 127 -13 198 -38s138 -59 200 -103v-64c-47 0 -75 0 -85 -1v-79zM350 6h-72v72h72v-72zM218 6h-72v72h72v-72z" />
    <glyph glyph-name="uniFB78" unicode="&#x683;" horiz-adv-x="542" arabic-form="initial" 
d="M503 90c-58 0 -144 -15 -256 -45s-195 -45 -247 -45c-39 0 -60 47 -60 92h63c47 0 118 13 215 39s162 41 198 43c-99 89 -205 133 -319 133h-46v91h51c95 0 161 -31 222 -70c55 -36 103 -77 155 -126l21 -20h1h2v-92zM409 -119h-72v72h72v-72zM277 -119h-72v72h72v-72z
" />
    <glyph glyph-name="uniFB7B" unicode="&#x686;" horiz-adv-x="542" arabic-form="final" 
d="M527 0c-95 0 -126 56 -126 156v106c-92 -5 -165 -25 -217 -61s-78 -84 -78 -143c0 -56 20 -98 60 -129s91 -46 153 -46c88 0 158 18 210 54h5v-97c-52 -31 -123 -47 -214 -47c-81 0 -148 23 -200 71s-78 112 -78 192c0 81 35 146 106 194s160 72 266 72
c-85 37 -188 55 -307 55h-38v91h43c61 0 127 -13 198 -38s138 -59 200 -103v-64h-45v-80c0 -38 5 -63 15 -74s25 -17 45 -17h18v-92h-16zM361 54h-72v72h72v-72zM217 54h-72v72h72v-72zM289 -48h-72v72h72v-72z" />
    <glyph glyph-name="uniFB7C" unicode="&#x686;" horiz-adv-x="542" arabic-form="initial" 
d="M503 90c-58 0 -144 -15 -256 -45s-195 -45 -247 -45c-39 0 -60 47 -60 92h63c47 0 118 13 215 39s162 41 198 43c-99 89 -205 133 -319 133h-46v91h51c95 0 161 -31 222 -70c55 -36 103 -77 155 -126l21 -20h1h2v-92zM415 -108h-72v72h72v-72zM271 -108h-72v72h72v-72z
M343 -210h-72v72h72v-72z" />
    <glyph glyph-name="uniFB7F" unicode="&#x687;" horiz-adv-x="542" arabic-form="final" 
d="M465 183c0 -58 8 -91 60 -91h18v-92h-16c-95 0 -126 56 -126 156v106c-77 -4 -141 -19 -193 -47c-68 -36 -102 -89 -102 -157c0 -114 93 -175 213 -175c88 0 158 18 210 54h5v-97c-52 -31 -123 -47 -214 -47c-81 0 -148 23 -199 70c-53 49 -79 113 -79 193
c0 89 42 158 125 206c69 40 151 60 247 60c-85 37 -188 55 -307 55h-38v91h43c150 0 299 -71 398 -141v-64h-45v-80zM378 54h-72v72h72v-72zM246 54h-72v72h72v-72zM378 -48h-72v72h72v-72zM246 -48h-72v72h72v-72z" />
    <glyph glyph-name="uniFB80" unicode="&#x687;" horiz-adv-x="542" arabic-form="initial" 
d="M503 90c-58 0 -144 -15 -256 -45s-195 -45 -247 -45c-39 0 -60 47 -60 92h63c47 0 118 13 215 39s162 41 198 43c-99 89 -205 133 -319 133h-46v91h51c95 0 161 -31 222 -70c55 -36 103 -77 155 -126l21 -20h1h2v-92zM409 -108h-72v72h72v-72zM277 -108h-72v72h72v-72z
M409 -210h-72v72h72v-72zM277 -210h-72v72h72v-72z" />
    <glyph glyph-name="uniFB8B" unicode="&#x698;" horiz-adv-x="484" arabic-form="final" 
d="M485 0c-23 0 -45 22 -53 45c-10 -75 -46 -134 -108 -176c-74 -51 -168 -76 -284 -76v92c100 0 180 16 240 49c61 33 91 79 91 141c0 54 -27 111 -81 171v6h94c34 -53 51 -107 51 -160h50v-92zM362 439h-72v72h72v-72zM434 337h-72v72h72v-72zM290 337h-72v72h72v-72z" />
    <glyph glyph-name="uniFB8D" unicode="&#x691;" horiz-adv-x="484" arabic-form="final" 
d="M485 0c-23 0 -45 22 -53 45c-10 -75 -46 -134 -108 -176c-74 -51 -168 -76 -284 -76v92c100 0 180 16 240 49c61 33 91 79 91 141c0 54 -27 111 -81 171v6h94c34 -53 51 -107 51 -160h50v-92zM379 395c0 -35 -26 -53 -78 -53h-111v33h32v201h28v-160c19 46 42 69 68 69
c19 0 34 -11 46 -33c10 -18 15 -37 15 -57zM352 397c0 24 -13 55 -34 55c-19 0 -42 -25 -68 -77h47c36 0 55 7 55 22z" />
    <glyph glyph-name="uniFB90" unicode="&#x6a9;" horiz-adv-x="394" arabic-form="initial" 
d="M200 92c56 0 93 6 93 53c0 12 -6 26 -19 40s-39 40 -79 78l-142 134c-34 33 -51 65 -51 96c0 17 7 33 20 47s42 34 86 60l246 147v-96l-206 -122c-13 -7 -25 -15 -36 -26s-17 -20 -17 -27c0 -18 15 -41 45 -70l138 -131c41 -39 68 -68 79 -88s17 -39 17 -58
c0 -86 -58 -129 -173 -129h-201c-39 0 -60 47 -60 92h260z" />
    <glyph glyph-name="uniFB94" unicode="&#x6af;" horiz-adv-x="394" arabic-form="initial" 
d="M200 92c56 0 93 6 93 53c0 12 -6 26 -19 40s-39 40 -79 78l-142 134c-34 33 -51 65 -51 96c0 17 7 33 20 47s42 34 86 60l246 147v-96l-206 -122c-13 -7 -25 -15 -36 -26s-17 -20 -17 -27c0 -18 15 -41 45 -70l138 -131c41 -39 68 -68 79 -88s17 -39 17 -58
c0 -86 -58 -129 -173 -129h-201c-39 0 -60 47 -60 92h260zM342 805l-328 -196v49l328 196v-49z" />
    <glyph glyph-name="uniFB98" unicode="&#x6b3;" horiz-adv-x="394" arabic-form="initial" 
d="M200 92c56 0 93 6 93 53c0 12 -6 26 -19 40s-39 40 -79 78l-142 134c-34 33 -51 65 -51 96c0 17 7 33 20 47s42 34 86 60l246 147v-96l-206 -122c-13 -7 -25 -15 -36 -26s-17 -20 -17 -27c0 -18 15 -41 45 -70l138 -131c41 -39 68 -68 79 -88s17 -39 17 -58
c0 -86 -58 -129 -173 -129h-201c-39 0 -60 47 -60 92h260zM342 805l-328 -196v49l328 196v-49zM186 -108h-72v72h72v-72zM186 -210h-72v72h72v-72z" />
    <glyph glyph-name="uniFB9C" unicode="&#x6b1;" horiz-adv-x="394" arabic-form="initial" 
d="M200 92c56 0 93 6 93 53c0 12 -6 26 -19 40s-39 40 -79 78l-142 134c-34 33 -51 65 -51 96c0 17 7 33 20 47s42 34 86 60l246 147v-96l-206 -122c-13 -7 -25 -15 -36 -26s-17 -20 -17 -27c0 -18 15 -41 45 -70l138 -131c41 -39 68 -68 79 -88s17 -39 17 -58
c0 -86 -58 -129 -173 -129h-201c-39 0 -60 47 -60 92h260zM342 805l-328 -196v49l328 196v-49zM204 815h-72v72h72v-72zM72 815h-72v72h72v-72z" />
    <glyph glyph-name="uniFBA5" unicode="&#x6c0;" horiz-adv-x="381" arabic-form="final" 
d="M330 192c0 -55 6 -100 52 -100v-92c-39 0 -68 13 -87 39s-29 77 -29 153c-19 -31 -64 -63 -111 -63c-76 0 -120 61 -120 141c0 48 21 93 62 135s97 69 169 82v35h64v-330zM99 271c0 -35 22 -58 56 -58c47 0 84 22 111 65v143c-53 -11 -94 -30 -123 -58s-44 -58 -44 -92z
M142 660c0 -24 31 -38 57 -38h27v-34h-123v34h27c-14 8 -21 21 -21 38c0 35 28 59 64 59c18 0 32 -2 42 -6v-36c-12 6 -25 8 -41 8c-21 0 -32 -8 -32 -25z" />
    <glyph glyph-name="uniFBA6" unicode="&#x6c1;" horiz-adv-x="310" arabic-form="isolated" 
d="M160 -6c-93 0 -130 86 -130 188c0 64 21 126 65 184c-12 3 -25 5 -40 5v83c70 -4 127 -33 170 -86s65 -112 65 -176c0 -60 -12 -108 -37 -144s-56 -54 -93 -54zM94 182c0 -52 19 -96 66 -96c44 0 66 35 66 106c0 66 -27 117 -80 153c-35 -45 -52 -99 -52 -163z" />
    <glyph glyph-name="uniFBA8" unicode="&#x6c1;" horiz-adv-x="244" arabic-form="initial" 
d="M204 132c0 -86 -70 -132 -160 -132h-44c-20 0 -36 11 -47 33c-9 18 -13 37 -13 59h100c67 0 100 25 100 76v182h64v-218zM133 -113h-61v61c0 30 30 52 61 52v-24c-23 0 -35 -9 -35 -28h35v-61z" />
    <glyph glyph-name="uniFBA9" unicode="&#x6c1;" horiz-adv-x="498" arabic-form="medial" 
d="M498 0c-22 0 -49 15 -80 46s-53 46 -68 46c-31 0 -57 -10 -78 -30c-26 -24 -48 -65 -68 -125h-71c-7 38 -11 75 -12 112c-10 -13 -45 -37 -50 -40c-13 -6 -27 -9 -42 -9h-29c-40 0 -60 48 -60 92h100c31 0 52 7 65 20c8 9 17 27 25 56l54 182h74c-7 -22 -18 -54 -32 -98
c-4 -13 -13 -48 -27 -106c-8 -33 -12 -73 -13 -120c17 42 41 78 73 108c27 25 59 38 95 38c26 0 55 -13 86 -40s50 -40 58 -40v-92zM196 -186h-61v61c0 30 30 47 61 47v-24c-23 0 -35 -8 -35 -23h35v-61z" />
    <glyph glyph-name="uniFBAB" unicode="&#x6be;" horiz-adv-x="392" arabic-form="final" 
d="M216 289c62 0 99 -50 99 -113c0 -38 -16 -66 -49 -84h126v-92h-117c27 -19 40 -47 40 -84c0 -66 -39 -123 -103 -123c-27 0 -54 19 -81 58s-40 88 -40 149h-91c-39 0 -60 47 -60 92h151c0 60 14 107 41 143s55 54 84 54zM251 158c0 21 -13 39 -34 39
c-15 0 -30 -10 -44 -30s-21 -44 -21 -75h48c31 0 51 33 51 66zM251 -72c0 33 -19 72 -51 72h-48c0 -32 7 -58 20 -81s27 -34 41 -34c25 0 38 14 38 43z" />
    <glyph glyph-name="uniFBAF" unicode="&#x6d2;" horiz-adv-x="855" arabic-form="final" 
d="M919 -118c0 -44 -20 -92 -60 -92h-634c-69 0 -124 10 -162 31c-36 19 -54 44 -54 76c0 36 18 67 54 91c106 51 221 82 343 91s227 13 315 13h135v-92h-138c-85 0 -174 -1 -266 -4s-175 -14 -251 -32c-61 -17 -91 -34 -91 -52c0 -17 28 -27 84 -30h725z" />
    <glyph glyph-name="uniFBB1" unicode="&#x6d3;" horiz-adv-x="855" arabic-form="final" 
d="M919 -118c0 -44 -20 -92 -60 -92h-634c-69 0 -124 10 -162 31c-36 19 -54 44 -54 76c0 36 18 67 54 91c106 51 221 82 343 91s227 13 315 13h135v-92h-138c-85 0 -174 -1 -266 -4s-175 -14 -251 -32c-61 -17 -91 -34 -91 -52c0 -17 28 -27 84 -30h725zM520 394
c0 -24 31 -38 57 -38h27v-34h-123v34h27c-14 8 -21 21 -21 38c0 35 28 59 64 59c18 0 32 -2 42 -6v-36c-12 6 -25 8 -41 8c-21 0 -32 -8 -32 -25z" />
    <glyph glyph-name="uniFBD5" unicode="&#x6ad;" horiz-adv-x="394" arabic-form="initial" 
d="M200 92c56 0 93 6 93 53c0 12 -6 26 -19 40s-39 40 -79 78l-142 134c-34 33 -51 65 -51 96c0 17 7 33 20 47s42 34 86 60l246 147v-96l-206 -122c-13 -7 -25 -15 -36 -26s-17 -20 -17 -27c0 -18 15 -41 45 -70l138 -131c41 -39 68 -68 79 -88s17 -39 17 -58
c0 -86 -58 -129 -173 -129h-201c-39 0 -60 47 -60 92h260zM147 815h-72v72h72v-72zM219 713h-72v72h72v-72zM75 713h-72v72h72v-72z" />
    <glyph glyph-name="uniFBE5" unicode="&#x6d0;" horiz-adv-x="591" arabic-form="final" 
d="M250 281c0 72 39 118 111 118c47 0 80 -27 101 -80c14 -49 28 -99 42 -148c18 -53 48 -79 88 -79v-92c-51 0 -90 27 -115 80c-15 49 -30 99 -46 148c-17 53 -40 79 -70 79s-45 -14 -45 -43c0 -15 11 -38 33 -67s34 -58 34 -87c0 -94 -66 -119 -168 -119
c-123 0 -200 64 -200 185c0 21 2 49 7 83h65v-5c-5 -21 -8 -47 -8 -77c0 -76 53 -94 137 -94c38 0 65 4 79 11s22 21 22 40c0 15 -12 37 -34 65s-33 56 -33 82zM250 -108h-72v72h72v-72zM250 -210h-72v72h72v-72z" />
    <glyph glyph-name="uni066E.medi" unicode="&#x649;" horiz-adv-x="244" arabic-form="initial" 
d="M204 132c0 -86 -69 -132 -160 -132h-44c-39 0 -60 47 -60 92h100c67 0 100 25 100 76v182h64v-218z" />
    <glyph glyph-name="uniFBFD" unicode="&#x6cc;" horiz-adv-x="591" arabic-form="final" 
d="M250 244c0 71 39 118 111 118c26 0 48 -8 68 -22s38 -51 55 -111s33 -99 49 -114s36 -23 59 -23v-92c-65 0 -98 34 -119 80c-11 24 -22 56 -35 96s-25 66 -36 77s-24 17 -41 17c-30 0 -45 -14 -45 -43c0 -18 12 -41 35 -69c31 -37 47 -74 47 -111
c0 -86 -61 -129 -183 -129c-60 0 -108 20 -145 60s-55 94 -55 164c0 21 2 49 7 83h65v-5c-5 -21 -8 -47 -8 -77c0 -94 43 -133 137 -133c77 0 116 19 116 57c0 17 -12 40 -36 69c-31 36 -46 72 -46 108z" />
    <glyph glyph-name="uniFBFE" unicode="&#x6cc;" horiz-adv-x="244" arabic-form="initial" 
d="M204 132c0 -86 -69 -132 -160 -132h-44c-39 0 -60 47 -60 92h100c67 0 100 25 100 76v182h64v-218zM204 -143h-72v72h72v-72zM72 -143h-72v72h72v-72z" />
    <glyph glyph-name="uniFC5E" unicode="&#xfc5e;" arabic-form="isolated" 
d="M158 922c36 0 62 -23 62 -59c0 -16 -7 -31 -20 -46l24 -3v-33l-47 12c-37 -23 -85 -38 -146 -44l7 92c1 8 -3 12 -11 12l-27 -1v34l40 1c15 1 29 -11 28 -26l-5 -77c28 4 54 11 79 22c-31 10 -47 29 -47 57c0 39 21 59 63 59zM225 718c0 -43 -24 -75 -66 -75
c-21 0 -35 7 -43 21c-9 -26 -28 -39 -55 -39c-41 0 -61 20 -61 61c0 9 1 22 2 38h34c-1 -11 -2 -23 -2 -36c0 -19 9 -29 27 -29c23 0 34 19 34 56v25h34v-21c0 -28 10 -42 30 -42c21 0 32 14 32 41c0 18 -1 30 -3 37h35c1 -10 2 -22 2 -37zM186 862c0 18 -9 26 -27 26
c-20 0 -30 -8 -30 -26c0 -17 14 -29 41 -36c11 11 16 23 16 36z" />
    <glyph glyph-name="uniFC5F" unicode="&#xfc5f;" arabic-form="isolated" 
d="M245 859c0 -44 -24 -75 -66 -75c-21 0 -35 7 -43 21c-9 -26 -28 -39 -55 -39c-41 0 -61 20 -61 61c0 9 0 22 1 38h35c-1 -11 -2 -23 -2 -36c0 -19 9 -29 27 -29c23 0 34 19 34 56v25h33v-21c0 -28 11 -42 31 -42c21 0 31 14 31 41c0 17 0 30 -2 37h35c1 -10 2 -22 2 -37z
M237 734l-210 -36v36l210 36v-36zM237 661l-210 -36v36l210 36v-36z" />
    <glyph glyph-name="uniFC60" unicode="&#xfc60;" arabic-form="isolated" 
d="M225 718c0 -43 -24 -75 -66 -75c-21 0 -35 7 -43 21c-9 -26 -28 -39 -55 -39c-41 0 -61 20 -61 61c0 9 1 22 2 38h34c-1 -11 -2 -23 -2 -36c0 -19 9 -29 27 -29c23 0 34 19 34 56v25h34v-21c0 -28 10 -42 30 -42c21 0 32 14 32 41c0 18 -1 30 -3 37h35c1 -10 2 -22 2 -37
zM218 788l-210 -36v36l210 36v-36z" />
    <glyph glyph-name="uniFC61" unicode="&#xfc61;" arabic-form="isolated" 
d="M225 718c0 -43 -24 -75 -66 -75c-21 0 -35 7 -43 21c-9 -26 -28 -39 -55 -39c-41 0 -61 20 -61 61c0 9 1 22 2 38h34c-1 -11 -2 -23 -2 -36c0 -19 9 -29 27 -29c23 0 34 19 34 56v25h34v-21c0 -28 10 -42 30 -42c21 0 32 14 32 41c0 18 -1 30 -3 37h35c1 -10 2 -22 2 -37
zM137 922c35 0 63 -25 63 -60c0 -14 -6 -28 -19 -43l23 -5v-32l-46 11c-42 -25 -86 -39 -135 -42v34c33 1 65 8 98 22c-31 12 -46 31 -46 56c0 36 25 59 62 59zM166 862c0 14 -14 26 -28 26c-20 0 -29 -8 -29 -26c0 -17 14 -29 41 -36c11 11 16 23 16 36z" />
    <glyph glyph-name="uniFC62" unicode="&#xfc62;" arabic-form="isolated" 
d="M225 786c0 -44 -24 -75 -66 -75c-21 0 -35 7 -43 21c-9 -26 -28 -39 -55 -39c-41 0 -61 20 -61 61c0 9 1 22 2 38h34c-1 -11 -2 -23 -2 -36c0 -19 9 -29 27 -29c23 0 34 19 34 56v25h34v-21c0 -28 10 -42 30 -42c21 0 32 14 32 41c0 17 -1 30 -3 37h35c1 -10 2 -22 2 -37
zM218 661l-210 -36v36l210 36v-36z" />
    <glyph glyph-name="uniFE82" unicode="&#x622;" horiz-adv-x="233" arabic-form="final" 
d="M151 168c0 -56 24 -76 81 -76h2v-92c-96 0 -147 64 -147 162v598h64v-592zM159 799c-8 0 -22 4 -42 11s-34 11 -42 11c-12 0 -30 -7 -54 -22v36c20 13 38 20 54 20c8 0 22 -4 42 -11s34 -11 42 -11c17 0 34 7 54 21v-36c-17 -13 -34 -19 -54 -19z" />
    <glyph glyph-name="uniFE84" unicode="&#x623;" horiz-adv-x="233" arabic-form="final" 
d="M151 168c0 -56 24 -76 81 -76h2v-92c-96 0 -147 64 -147 162v598h64v-592zM96 858c0 -24 31 -38 57 -38h27v-34h-123v34h27c-14 8 -21 21 -21 38c0 35 28 59 64 59c18 0 32 -2 42 -6v-36c-12 6 -25 8 -41 8c-21 0 -32 -8 -32 -25z" />
    <glyph glyph-name="uniFE88" unicode="&#x625;" horiz-adv-x="233" arabic-form="final" 
d="M151 168c0 -56 24 -76 81 -76h2v-92c-96 0 -147 64 -147 162v598h64v-592zM96 -105c0 -24 31 -38 57 -38h27v-34h-123v34h27c-14 8 -21 21 -21 38c0 35 28 59 64 59c18 0 32 -2 42 -6v-36c-12 6 -25 8 -41 8c-21 0 -32 -8 -32 -25z" />
    <glyph glyph-name="uniFE8A" unicode="&#x626;" horiz-adv-x="591" arabic-form="final" 
d="M250 244c0 71 39 118 111 118c26 0 48 -8 68 -22s38 -51 55 -111s33 -99 49 -114s36 -23 59 -23v-92c-65 0 -98 34 -119 80c-11 24 -22 56 -35 96s-25 66 -36 77s-24 17 -41 17c-30 0 -45 -14 -45 -43c0 -18 12 -41 35 -69c31 -37 47 -74 47 -111
c0 -86 -61 -129 -183 -129c-60 0 -108 20 -145 60s-55 94 -55 164c0 21 2 49 7 83h65v-5c-5 -21 -8 -47 -8 -77c0 -94 43 -133 137 -133c77 0 116 19 116 57c0 17 -12 40 -36 69c-31 36 -46 72 -46 108zM110 421c0 -24 31 -38 57 -38h27v-34h-123v34h27c-14 8 -21 21 -21 38
c0 35 28 59 64 59c18 0 32 -2 42 -6v-36c-12 6 -25 8 -41 8c-21 0 -32 -8 -32 -25z" />
    <glyph glyph-name="uniFE8B" unicode="&#x626;" horiz-adv-x="244" arabic-form="initial" 
d="M204 132c0 -86 -69 -132 -160 -132h-44c-39 0 -60 47 -60 92h100c67 0 100 25 100 76v182h64v-218zM140 507c0 -24 31 -38 57 -38h27v-34h-123v34h27c-14 8 -21 21 -21 38c0 35 28 59 64 59c18 0 32 -2 42 -6v-36c-12 6 -25 8 -41 8c-21 0 -32 -8 -32 -25z" />
    <glyph glyph-name="uniFE8E" unicode="&#x627;" horiz-adv-x="233" arabic-form="final" 
d="M151 168c0 -56 24 -76 81 -76h2v-92c-96 0 -147 64 -147 162v598h64v-592z" />
    <glyph glyph-name="uniFE91" unicode="&#x628;" horiz-adv-x="244" arabic-form="initial" 
d="M204 132c0 -86 -69 -132 -160 -132h-44c-39 0 -60 47 -60 92h100c67 0 100 25 100 76v182h64v-218zM136 -143h-72v72h72v-72z" />
    <glyph glyph-name="uniFE94" unicode="&#x629;" horiz-adv-x="381" arabic-form="final" 
d="M330 192c0 -55 6 -100 52 -100v-92c-39 0 -68 13 -87 39s-29 77 -29 153c-19 -31 -64 -63 -111 -63c-76 0 -120 61 -120 141c0 48 21 93 62 135s97 69 169 82v35h64v-330zM99 271c0 -35 22 -58 56 -58c47 0 84 22 111 65v143c-53 -11 -94 -30 -123 -58s-44 -58 -44 -92z
M304 588h-72v72h72v-72zM172 588h-72v72h72v-72z" />
    <glyph glyph-name="uniFE97" unicode="&#x62a;" horiz-adv-x="244" arabic-form="initial" 
d="M204 132c0 -86 -69 -132 -160 -132h-44c-39 0 -60 47 -60 92h100c67 0 100 25 100 76v182h64v-218zM244 435h-72v72h72v-72zM112 435h-72v72h72v-72z" />
    <glyph glyph-name="uniFE9B" unicode="&#x62b;" horiz-adv-x="244" arabic-form="initial" 
d="M204 132c0 -86 -69 -132 -160 -132h-44c-39 0 -60 47 -60 92h100c67 0 100 25 100 76v182h64v-218zM172 537h-72v72h72v-72zM244 435h-72v72h72v-72zM100 435h-72v72h72v-72z" />
    <glyph glyph-name="uniFE9E" unicode="&#x62c;" horiz-adv-x="542" arabic-form="final" 
d="M425 183c0 -67 32 -91 100 -91h18v-92h-16c-111 0 -166 52 -166 156v103c-80 -8 -142 -31 -187 -66s-68 -80 -68 -135c0 -56 20 -98 60 -129s91 -46 153 -46c88 0 158 18 210 54h5v-97c-52 -31 -123 -47 -214 -47c-81 0 -148 23 -200 71s-78 112 -78 192
c0 81 35 146 106 194s160 72 266 72c-85 37 -188 55 -307 55h-38v91h43c61 0 127 -13 198 -38s138 -59 200 -103v-64c-47 0 -75 0 -85 -1v-79zM286 6h-72v72h72v-72z" />
    <glyph glyph-name="uniFE9F" unicode="&#x62c;" horiz-adv-x="542" arabic-form="initial" 
d="M503 90c-58 0 -144 -15 -256 -45s-195 -45 -247 -45c-39 0 -60 47 -60 92h63c47 0 118 13 215 39s162 41 198 43c-99 89 -205 133 -319 133h-46v91h51c95 0 161 -31 222 -70c55 -36 103 -77 155 -126l21 -20h1h2v-92zM343 -119h-72v72h72v-72z" />
    <glyph glyph-name="uniFEA2" unicode="&#x62d;" horiz-adv-x="542" arabic-form="final" 
d="M425 183c0 -67 32 -91 100 -91h18v-92h-16c-111 0 -166 52 -166 156v103c-80 -8 -142 -31 -187 -66s-68 -80 -68 -135c0 -56 20 -98 60 -129s91 -46 153 -46c88 0 158 18 210 54h5v-97c-52 -31 -123 -47 -214 -47c-81 0 -148 23 -200 71s-78 112 -78 192
c0 81 35 146 106 194s160 72 266 72c-85 37 -188 55 -307 55h-38v91h43c61 0 127 -13 198 -38s138 -59 200 -103v-64c-47 0 -75 0 -85 -1v-79z" />
    <glyph glyph-name="uniFEA3" unicode="&#x62d;" horiz-adv-x="542" arabic-form="initial" 
d="M503 90c-58 0 -144 -15 -256 -45s-195 -45 -247 -45c-39 0 -60 47 -60 92h63c47 0 118 13 215 39s162 41 198 43c-99 89 -205 133 -319 133h-46v91h51c95 0 161 -31 222 -70c55 -36 103 -77 155 -126l21 -20h1h2v-92z" />
    <glyph glyph-name="uniFEA6" unicode="&#x62e;" horiz-adv-x="542" arabic-form="final" 
d="M425 183c0 -67 32 -91 100 -91h18v-92h-16c-111 0 -166 52 -166 156v103c-80 -8 -142 -31 -187 -66s-68 -80 -68 -135c0 -56 20 -98 60 -129s91 -46 153 -46c88 0 158 18 210 54h5v-97c-52 -31 -123 -47 -214 -47c-81 0 -148 23 -200 71s-78 112 -78 192
c0 81 35 146 106 194s160 72 266 72c-85 37 -188 55 -307 55h-38v91h43c61 0 127 -13 198 -38s138 -59 200 -103v-64c-47 0 -75 0 -85 -1v-79zM375 547h-72v72h72v-72z" />
    <glyph glyph-name="uniFEA7" unicode="&#x62e;" horiz-adv-x="542" arabic-form="initial" 
d="M503 90c-58 0 -144 -15 -256 -45s-195 -45 -247 -45c-39 0 -60 47 -60 92h63c47 0 118 13 215 39s162 41 198 43c-99 89 -205 133 -319 133h-46v91h51c95 0 161 -31 222 -70c55 -36 103 -77 155 -126l21 -20h1h2v-92zM348 457h-72v72h72v-72z" />
    <glyph glyph-name="uniFEAE" unicode="&#x631;" horiz-adv-x="484" arabic-form="final" 
d="M485 0c-23 0 -45 22 -53 45c-10 -75 -46 -134 -108 -176c-74 -51 -168 -76 -284 -76v92c100 0 180 16 240 49c61 33 91 79 91 141c0 54 -27 111 -81 171v6h94c34 -53 51 -107 51 -160h50v-92z" />
    <glyph glyph-name="uniFEB0" unicode="&#x632;" horiz-adv-x="484" arabic-form="final" 
d="M485 0c-23 0 -45 22 -53 45c-10 -75 -46 -134 -108 -176c-74 -51 -168 -76 -284 -76v92c100 0 180 16 240 49c61 33 91 79 91 141c0 54 -27 111 -81 171v6h94c34 -53 51 -107 51 -160h50v-92zM362 337h-72v72h72v-72z" />
    <glyph glyph-name="uniFEB3" unicode="&#x633;" horiz-adv-x="604" arabic-form="initial" 
d="M565 92c0 -61 -30 -92 -89 -92h-40c-48 0 -80 12 -97 35c-17 -23 -49 -35 -97 -35s-80 12 -97 35c-18 -23 -53 -35 -105 -35h-40c-39 0 -60 47 -60 92h100c49 0 73 21 73 65v49h64v-49c0 -44 21 -65 65 -65c43 0 65 21 65 65v49h64v-49c0 -44 22 -65 65 -65s65 13 65 39
v179h64v-218z" />
    <glyph glyph-name="uniFEB7" unicode="&#x634;" horiz-adv-x="604" arabic-form="initial" 
d="M565 92c0 -61 -30 -92 -89 -92h-40c-48 0 -80 12 -97 35c-17 -23 -49 -35 -97 -35s-80 12 -97 35c-18 -23 -53 -35 -105 -35h-40c-39 0 -60 47 -60 92h100c49 0 73 21 73 65v49h64v-49c0 -44 21 -65 65 -65c43 0 65 21 65 65v49h64v-49c0 -44 22 -65 65 -65s65 13 65 39
v179h64v-218zM345 452h-72v72h72v-72zM417 350h-72v72h72v-72zM273 350h-72v72h72v-72z" />
    <glyph glyph-name="uniFEBB" unicode="&#x635;" horiz-adv-x="845" arabic-form="initial" 
d="M825 147c0 -106 -114 -147 -231 -147h-370c-49 0 -86 13 -112 40c-24 -27 -62 -40 -112 -40c-39 0 -60 47 -60 92h62c52 0 78 31 78 93v5h64v-5c0 -62 26 -93 78 -93h47c76 106 142 184 200 233s113 73 167 73c49 0 92 -26 131 -79s58 -110 58 -172zM585 92
c53 0 96 6 128 17s48 25 48 43c0 43 -13 80 -41 110s-56 45 -85 45c-45 0 -90 -17 -135 -51s-96 -88 -151 -164h236z" />
    <glyph glyph-name="uniFEBF" unicode="&#x636;" horiz-adv-x="845" arabic-form="initial" 
d="M825 147c0 -106 -114 -147 -231 -147h-370c-49 0 -86 13 -112 40c-24 -27 -62 -40 -112 -40c-39 0 -60 47 -60 92h62c52 0 78 31 78 93v5h64v-5c0 -62 26 -93 78 -93h47c76 106 142 184 200 233s113 73 167 73c49 0 92 -26 131 -79s58 -110 58 -172zM585 92
c53 0 96 6 128 17s48 25 48 43c0 43 -13 80 -41 110s-56 45 -85 45c-45 0 -90 -17 -135 -51s-96 -88 -151 -164h236zM655 468h-72v72h72v-72z" />
    <glyph glyph-name="uniFECA" unicode="&#x639;" horiz-adv-x="453" arabic-form="final" 
d="M231 477c85 0 166 -37 166 -118c0 -31 -8 -59 -25 -83s-54 -56 -112 -96c37 -37 68 -61 93 -72s52 -16 82 -16h18v-92h-10c-63 0 -141 48 -234 144c-35 -26 -61 -50 -78 -71s-25 -45 -25 -72c0 -35 16 -62 47 -84s67 -33 108 -33c61 0 120 21 177 63h5v-104
c-53 -33 -114 -50 -181 -50c-60 0 -112 20 -155 60s-65 89 -65 148c0 38 10 70 30 97s52 57 97 89c-39 43 -66 76 -81 99s-23 49 -23 75c0 78 83 116 166 116zM330 338c0 34 -58 46 -99 46c-28 0 -51 -4 -68 -13s-26 -19 -26 -32c0 -12 6 -26 19 -43s34 -41 64 -74
c39 26 67 48 84 65s26 34 26 51z" />
    <glyph glyph-name="uniFECB" unicode="&#x639;" horiz-adv-x="542" arabic-form="initial" 
d="M138 92c-49 27 -95 89 -95 160c0 64 19 114 55 151s84 55 143 55c78 0 143 -13 196 -40v-104h-5c-52 37 -114 55 -187 55c-45 0 -78 -12 -102 -35s-36 -50 -36 -83c0 -48 17 -84 49 -109s56 -38 71 -38c9 0 41 8 96 23s112 33 171 55v-92c-160 -60 -285 -90 -375 -90
h-119c-39 0 -60 47 -60 92h198z" />
    <glyph glyph-name="uniFECC" unicode="&#x639;" horiz-adv-x="392" arabic-form="medial" 
d="M196 407c89 0 166 -34 166 -118c0 -56 -34 -116 -103 -181c28 -11 59 -16 93 -16h40v-92h-40c-47 0 -99 19 -156 56c-57 -37 -109 -56 -156 -56h-40c-39 0 -60 47 -60 92h100c34 0 65 5 93 16c-69 65 -103 125 -103 181c0 83 78 118 166 118zM298 273
c0 27 -34 41 -102 41s-102 -14 -102 -41c0 -17 9 -37 28 -62s43 -48 74 -70c31 22 55 45 74 70s28 45 28 62z" />
    <glyph glyph-name="uniFECE" unicode="&#x63a;" horiz-adv-x="453" arabic-form="final" 
d="M231 477c85 0 166 -37 166 -118c0 -31 -8 -59 -25 -83s-54 -56 -112 -96c37 -37 68 -61 93 -72s52 -16 82 -16h18v-92h-10c-63 0 -141 48 -234 144c-35 -26 -61 -50 -78 -71s-25 -45 -25 -72c0 -35 16 -62 47 -84s67 -33 108 -33c61 0 120 21 177 63h5v-104
c-53 -33 -114 -50 -181 -50c-60 0 -112 20 -155 60s-65 89 -65 148c0 38 10 70 30 97s52 57 97 89c-39 43 -66 76 -81 99s-23 49 -23 75c0 78 83 116 166 116zM330 338c0 34 -58 46 -99 46c-28 0 -51 -4 -68 -13s-26 -19 -26 -32c0 -12 6 -26 19 -43s34 -41 64 -74
c39 26 67 48 84 65s26 34 26 51zM267 562h-72v72h72v-72z" />
    <glyph glyph-name="uniFECF" unicode="&#x63a;" horiz-adv-x="542" arabic-form="initial" 
d="M138 92c-49 27 -95 89 -95 160c0 64 19 114 55 151s84 55 143 55c78 0 143 -13 196 -40v-104h-5c-52 37 -114 55 -187 55c-45 0 -78 -12 -102 -35s-36 -50 -36 -83c0 -48 17 -84 49 -109s56 -38 71 -38c9 0 41 8 96 23s112 33 171 55v-92c-160 -60 -285 -90 -375 -90
h-119c-39 0 -60 47 -60 92h198zM281 543h-72v72h72v-72z" />
    <glyph glyph-name="uniFED0" unicode="&#x63a;" horiz-adv-x="392" arabic-form="medial" 
d="M196 407c89 0 166 -34 166 -118c0 -56 -34 -116 -103 -181c28 -11 59 -16 93 -16h40v-92h-40c-47 0 -99 19 -156 56c-57 -37 -109 -56 -156 -56h-40c-39 0 -60 47 -60 92h100c34 0 65 5 93 16c-69 65 -103 125 -103 181c0 83 78 118 166 118zM298 273
c0 27 -34 41 -102 41s-102 -14 -102 -41c0 -17 9 -37 28 -62s43 -48 74 -70c31 22 55 45 74 70s28 45 28 62zM232 492h-72v72h72v-72z" />
    <glyph glyph-name="uniFED3" unicode="&#x641;" horiz-adv-x="290" arabic-form="initial" 
d="M282 249c0 -148 -59 -249 -199 -249h-83c-39 0 -60 47 -60 92h144c39 0 71 12 98 37s40 58 40 99c-13 -13 -34 -20 -62 -20c-36 0 -67 14 -94 42s-40 65 -40 113c0 49 13 92 40 128s54 55 82 55c37 0 69 -27 95 -80s39 -126 39 -217zM147 456c-13 0 -26 -8 -40 -26
s-20 -39 -20 -64c0 -46 25 -68 75 -68c22 0 40 6 54 18c0 36 -8 69 -23 97s-31 43 -46 43zM168 631h-72v72h72v-72z" />
    <glyph glyph-name="uniFED4" unicode="&#x641;" horiz-adv-x="295" arabic-form="medial" 
d="M148 407c78 0 120 -72 120 -155c0 -47 -22 -98 -66 -152c18 -6 36 -8 54 -8h40v-92h-20c-39 0 -82 16 -128 49c-46 -33 -89 -49 -128 -49h-20c-39 0 -60 47 -60 92h100c18 0 35 2 54 8c-44 54 -66 105 -66 152c0 83 42 155 120 155zM148 314c-36 0 -56 -31 -56 -67
c0 -43 19 -82 56 -117c37 35 56 74 56 117c0 36 -20 67 -56 67zM184 492h-72v72h72v-72z" />
    <glyph glyph-name="uniFED7" unicode="&#x642;" horiz-adv-x="290" arabic-form="initial" 
d="M282 249c0 -148 -59 -249 -199 -249h-83c-39 0 -60 47 -60 92h144c39 0 71 12 98 37s40 58 40 99c-13 -13 -34 -20 -62 -20c-36 0 -67 14 -94 42s-40 65 -40 113c0 49 13 92 40 128s54 55 82 55c37 0 69 -27 95 -80s39 -126 39 -217zM147 456c-13 0 -26 -8 -40 -26
s-20 -39 -20 -64c0 -46 25 -68 75 -68c22 0 40 6 54 18c0 36 -8 69 -23 97s-31 43 -46 43zM244 631h-72v72h72v-72zM112 631h-72v72h72v-72z" />
    <glyph glyph-name="uniFED8" unicode="&#x642;" horiz-adv-x="295" arabic-form="medial" 
d="M148 407c78 0 120 -72 120 -155c0 -47 -22 -98 -66 -152c18 -6 36 -8 54 -8h40v-92h-20c-39 0 -82 16 -128 49c-46 -33 -89 -49 -128 -49h-20c-39 0 -60 47 -60 92h100c18 0 35 2 54 8c-44 54 -66 105 -66 152c0 83 42 155 120 155zM148 314c-36 0 -56 -31 -56 -67
c0 -43 19 -82 56 -117c37 35 56 74 56 117c0 36 -20 67 -56 67zM250 492h-72v72h72v-72zM118 492h-72v72h72v-72z" />
    <glyph glyph-name="uniFEDB" unicode="&#x643;" horiz-adv-x="394" arabic-form="initial" 
d="M200 92c56 0 93 6 93 53c0 12 -6 26 -19 40s-39 40 -79 78l-142 134c-34 33 -51 65 -51 96c0 17 7 33 20 47s42 34 86 60l246 147v-96l-206 -122c-13 -7 -25 -15 -36 -26s-17 -20 -17 -27c0 -18 15 -41 45 -70l138 -131c41 -39 68 -68 79 -88s17 -39 17 -58
c0 -86 -58 -129 -173 -129h-201c-39 0 -60 47 -60 92h260z" />
    <glyph glyph-name="uniFEDE" unicode="&#x644;" horiz-adv-x="509" arabic-form="final" 
d="M248 -100c-156 0 -228 62 -228 216c0 40 3 81 10 123h67v-5c-9 -37 -13 -76 -13 -117c0 -47 12 -79 37 -97s68 -28 128 -28c104 0 157 45 157 135v633h64v-639c0 -147 -74 -221 -222 -221z" />
    <glyph glyph-name="uniFEDF" unicode="&#x644;" horiz-adv-x="215" arabic-form="initial" 
d="M176 132c0 -86 -69 -132 -160 -132h-16c-39 0 -60 47 -60 92h72c66 0 100 25 100 76v592h64v-628z" />
    <glyph glyph-name="uniFEE0" unicode="&#x644;" horiz-adv-x="215" arabic-form="medial" 
d="M176 132c0 -86 -69 -132 -160 -132h-16c-39 0 -60 47 -60 92h72c66 0 100 25 100 76v592h64v-628z" />
    <glyph glyph-name="uniFEE3" unicode="&#x645;" horiz-adv-x="392" arabic-form="initial" 
d="M372 165c0 -97 -48 -173 -142 -173c-54 0 -98 26 -131 77c-14 -30 -27 -49 -39 -57s-29 -12 -51 -12h-9c-39 0 -60 47 -60 92h42c31 0 50 8 59 26s14 46 17 85c7 116 52 174 135 174c52 0 95 -19 129 -58s50 -91 50 -154zM224 82c48 0 84 34 84 80c0 32 -9 60 -28 85
s-44 37 -76 37c-55 0 -82 -31 -82 -94c0 -28 9 -53 28 -75s43 -33 74 -33z" />
    <glyph glyph-name="uniFEE7" unicode="&#x646;" horiz-adv-x="244" arabic-form="initial" 
d="M204 132c0 -86 -69 -132 -160 -132h-44c-39 0 -60 47 -60 92h100c67 0 100 25 100 76v182h64v-218zM174 435h-72v72h72v-72z" />
    <glyph glyph-name="uniFEEA" unicode="&#x647;" horiz-adv-x="381" arabic-form="final" 
d="M330 192c0 -55 6 -100 52 -100v-92c-39 0 -68 13 -87 39s-29 77 -29 153c-19 -31 -64 -63 -111 -63c-76 0 -120 61 -120 141c0 48 21 93 62 135s97 69 169 82v35h64v-330zM99 271c0 -35 22 -58 56 -58c47 0 84 22 111 65v143c-53 -11 -94 -30 -123 -58s-44 -58 -44 -92z
" />
    <glyph glyph-name="uniFEF0" unicode="&#x649;" horiz-adv-x="591" arabic-form="final" 
d="M250 244c0 71 39 118 111 118c26 0 48 -8 68 -22s38 -51 55 -111s33 -99 49 -114s36 -23 59 -23v-92c-65 0 -98 34 -119 80c-11 24 -22 56 -35 96s-25 66 -36 77s-24 17 -41 17c-30 0 -45 -14 -45 -43c0 -18 12 -41 35 -69c31 -37 47 -74 47 -111
c0 -86 -61 -129 -183 -129c-60 0 -108 20 -145 60s-55 94 -55 164c0 21 2 49 7 83h65v-5c-5 -21 -8 -47 -8 -77c0 -94 43 -133 137 -133c77 0 116 19 116 57c0 17 -12 40 -36 69c-31 36 -46 72 -46 108z" />
    <glyph glyph-name="uniFEF2" unicode="&#x64a;" horiz-adv-x="591" arabic-form="final" 
d="M250 244c0 71 39 118 111 118c26 0 48 -8 68 -22s38 -51 55 -111s33 -99 49 -114s36 -23 59 -23v-92c-65 0 -98 34 -119 80c-11 24 -22 56 -35 96s-25 66 -36 77s-24 17 -41 17c-30 0 -45 -14 -45 -43c0 -18 12 -41 35 -69c31 -37 47 -74 47 -111
c0 -86 -61 -129 -183 -129c-60 0 -108 20 -145 60s-55 94 -55 164c0 21 2 49 7 83h65v-5c-5 -21 -8 -47 -8 -77c0 -94 43 -133 137 -133c77 0 116 19 116 57c0 17 -12 40 -36 69c-31 36 -46 72 -46 108zM327 -207h-72v72h72v-72zM195 -207h-72v72h72v-72z" />
    <glyph glyph-name="uniFEF3" unicode="&#x64a;" horiz-adv-x="244" arabic-form="initial" 
d="M204 132c0 -86 -69 -132 -160 -132h-44c-39 0 -60 47 -60 92h100c67 0 100 25 100 76v182h64v-218zM204 -143h-72v72h72v-72zM72 -143h-72v72h72v-72z" />
    <glyph glyph-name=".notdef" horiz-adv-x="645" 
d="M81 0v683h483v-683h-483zM153 72h339v538h-339v-538z" />
    <glyph glyph-name="null" unicode="&#xd;" 
 />
    <glyph glyph-name="space" unicode=" " horiz-adv-x="273" 
 />
    <glyph glyph-name="exclam" unicode="!" horiz-adv-x="284" 
d="M183 700l-9 -503h-66l-9 503h84zM142 -9c-30 0 -54 24 -54 54s24 54 54 54c29 0 54 -25 54 -54s-25 -54 -54 -54z" />
    <glyph glyph-name="quotedbl" unicode="&#x22;" horiz-adv-x="392" 
d="M158 700l-15 -218h-56l-15 218h86zM320 700l-15 -218h-56l-15 218h86z" />
    <glyph glyph-name="numbersign" unicode="#" horiz-adv-x="590" 
d="M569 504l-11 -52h-127l-31 -146h137l-13 -52h-134l-43 -194h-62l42 194h-122l-41 -194h-61l41 194h-128l10 52h129l30 146h-135l10 52h135l41 196h62l-41 -196h123l42 196h60l-41 -196h128zM370 452h-123l-32 -146h124z" />
    <glyph glyph-name="dollar" unicode="$" horiz-adv-x="539" 
d="M477 181c0 -104 -79 -162 -176 -177v-106h-51v102c-69 0 -126 14 -169 42v85c33 -29 109 -59 169 -59v250c-72 35 -118 67 -139 96s-32 63 -32 103c0 100 80 171 171 184v88h51v-86c64 -2 108 -11 132 -27v-83c-33 26 -77 40 -132 42v-258c68 -32 114 -64 139 -94
s37 -64 37 -102zM250 632c-50 -10 -89 -47 -89 -105c0 -28 7 -51 20 -69s36 -36 69 -54v228zM395 174c0 45 -31 84 -94 119v-221c63 14 94 48 94 102z" />
    <glyph glyph-name="percent" unicode="%" horiz-adv-x="818" 
d="M364 534c0 -106 -63 -185 -167 -185c-100 0 -158 73 -158 175c0 110 61 187 168 187c104 0 157 -70 157 -177zM300 532c0 70 -30 125 -96 125c-68 0 -100 -57 -100 -129c0 -71 31 -125 98 -125c68 0 98 57 98 129zM666 700l-449 -705h-70l449 705h70zM781 174
c0 -106 -63 -185 -167 -185c-99 0 -158 74 -158 175c0 110 62 188 168 188c104 0 157 -71 157 -178zM717 173c0 71 -30 124 -96 124c-69 0 -100 -56 -100 -129c0 -70 32 -124 98 -124c67 0 98 57 98 129z" />
    <glyph glyph-name="ampersand" unicode="&#x26;" horiz-adv-x="800" 
d="M780 2c-21 -8 -46 -13 -74 -13c-61 0 -95 29 -124 63c-11 13 -23 28 -35 45c-42 -46 -100 -82 -171 -99c-25 -6 -51 -9 -80 -9c-109 0 -187 40 -221 115c-12 25 -17 53 -17 86c0 50 15 93 43 128s68 65 120 87c-42 31 -81 75 -81 147c0 82 47 129 110 149
c22 7 45 11 71 11c79 0 134 -33 159 -87c8 -18 13 -40 13 -62c0 -39 -11 -71 -33 -97s-56 -48 -101 -66c91 -35 144 -106 195 -181c48 66 79 153 79 261c0 26 -3 46 -8 67h78c5 -23 5 -38 6 -65c0 -66 -15 -125 -34 -176c-20 -55 -49 -107 -80 -150c20 -27 37 -51 60 -70
c17 -14 35 -23 64 -23c23 0 42 7 61 14v-75zM281 365c-74 -29 -141 -70 -141 -172c0 -70 41 -110 95 -126c19 -6 39 -9 61 -9c101 0 165 45 213 98c-47 73 -89 135 -161 177c-19 11 -42 22 -67 32zM321 648c-62 0 -104 -35 -105 -96c0 -60 39 -97 80 -117c41 14 72 31 92 50
s30 43 30 72c0 57 -41 91 -97 91z" />
    <glyph glyph-name="quotesingle" unicode="'" horiz-adv-x="229" 
d="M158 700l-15 -218h-56l-15 218h86z" />
    <glyph glyph-name="parenleft" unicode="(" horiz-adv-x="301" 
d="M68 267c0 170 51 314 152 433h72c-102 -124 -153 -268 -153 -432c0 -163 50 -305 152 -427h-71c-101 115 -152 257 -152 426z" />
    <glyph glyph-name="parenleft" unicode="&#xfd3e;" horiz-adv-x="301" 
d="M68 267c0 170 51 314 152 433h72c-102 -124 -153 -268 -153 -432c0 -163 50 -305 152 -427h-71c-101 115 -152 257 -152 426z" />
    <glyph glyph-name="parenright" unicode=")" horiz-adv-x="301" 
d="M164 268c0 164 -51 308 -153 432h72c102 -119 152 -263 152 -433c0 -169 -50 -311 -152 -426h-71c102 122 152 264 152 427z" />
    <glyph glyph-name="parenright" unicode="&#xfd3f;" horiz-adv-x="301" 
d="M164 268c0 164 -51 308 -153 432h72c102 -119 152 -263 152 -433c0 -169 -50 -311 -152 -426h-71c102 122 152 264 152 427z" />
    <glyph glyph-name="asterisk" unicode="*" horiz-adv-x="416" 
d="M381 539l-134 -27l93 -119l-54 -37l-76 129l-77 -129l-54 37l93 119l-135 27l22 61l128 -48l-11 148h67l-11 -148l128 48z" />
    <glyph glyph-name="plus" unicode="+" horiz-adv-x="684" 
d="M572 259h-197v-197h-65v197h-197v65h197v197h65v-197h197v-65z" />
    <glyph glyph-name="comma" unicode="," horiz-adv-x="216" 
d="M154 111l-78 -240h-57l57 240h78z" />
    <glyph glyph-name="hyphen" unicode="-" horiz-adv-x="399" 
d="M337 247h-267v63h267v-63z" />
    <glyph glyph-name="hyphen" unicode="&#x2010;" horiz-adv-x="399" 
d="M337 247h-267v63h267v-63z" />
    <glyph glyph-name="period" unicode="." horiz-adv-x="216" 
d="M164 44c0 -30 -25 -55 -55 -55s-54 25 -54 55s24 55 54 55s55 -25 55 -55z" />
    <glyph glyph-name="slash" unicode="/" horiz-adv-x="389" 
d="M397 700l-336 -816h-75l335 816h76z" />
    <glyph glyph-name="zero" unicode="0" horiz-adv-x="539" 
d="M263 -12c-69 0 -124 30 -163 90s-58 145 -58 258c0 124 20 218 61 281s99 95 175 95c146 0 220 -120 220 -359c0 -118 -21 -209 -62 -271s-99 -94 -173 -94zM274 644c-100 0 -150 -101 -150 -304c0 -189 49 -284 147 -284c97 0 145 96 145 289c0 200 -47 299 -142 299z
" />
    <glyph glyph-name="one" unicode="1" horiz-adv-x="539" 
d="M482 0h-396v70h158v544l-162 -48v76l242 74v-646h158v-70z" />
    <glyph glyph-name="two" unicode="2" horiz-adv-x="539" 
d="M274 712c120 0 201 -69 201 -187c0 -45 -12 -89 -37 -132s-69 -96 -133 -159l-162 -160v-2h326v-72h-422v71l204 205c52 52 90 95 112 130s33 72 33 111c0 82 -50 127 -133 127c-62 0 -123 -27 -180 -80v84c55 43 118 64 191 64z" />
    <glyph glyph-name="three" unicode="3" horiz-adv-x="539" 
d="M304 365c93 -9 165 -69 165 -167c0 -63 -23 -113 -68 -152s-104 -58 -178 -58c-66 0 -120 13 -159 38v86c48 -38 102 -56 162 -56c91 0 161 47 161 135c0 91 -65 137 -195 137h-58v68h55c116 0 173 43 173 129c0 79 -44 119 -132 119c-49 0 -95 -16 -139 -50v78
c45 27 98 40 159 40c59 0 106 -16 141 -47s53 -71 53 -120c0 -92 -46 -152 -140 -178v-2z" />
    <glyph glyph-name="four" unicode="4" horiz-adv-x="539" 
d="M505 186h-90v-186h-79v186h-329v52l311 462h97v-449h90v-65zM336 251v303c0 21 1 45 2 72h-2c-5 -12 -14 -30 -27 -54l-215 -321h242z" />
    <glyph glyph-name="five" unicode="5" horiz-adv-x="539" 
d="M226 56c96 0 165 58 165 153c0 100 -74 146 -179 146c-20 0 -56 -2 -110 -6v351h339v-72h-263v-205c21 1 41 2 59 2c142 0 236 -74 236 -211c0 -68 -23 -123 -67 -164s-104 -62 -181 -62c-65 0 -113 10 -145 29v85c48 -31 97 -46 146 -46z" />
    <glyph glyph-name="six" unicode="6" horiz-adv-x="539" 
d="M279 -12c-161 0 -225 146 -225 320c0 123 26 221 78 294s122 110 208 110c49 0 87 -7 116 -20v-76c-36 19 -74 28 -114 28c-144 0 -205 -148 -205 -305h2c33 66 86 99 160 99c125 0 200 -89 200 -216c0 -69 -21 -126 -62 -169s-94 -65 -158 -65zM417 212
c0 93 -46 158 -136 158c-41 0 -74 -14 -100 -42s-39 -61 -39 -99c0 -48 12 -89 38 -123s60 -50 102 -50c84 0 135 70 135 156z" />
    <glyph glyph-name="seven" unicode="7" horiz-adv-x="539" 
d="M42 628v72h451v-25l-277 -675h-83l262 628h-353z" />
    <glyph glyph-name="eight" unicode="8" horiz-adv-x="539" 
d="M255 -12c-114 0 -206 71 -206 183c0 90 50 155 151 196v2c-84 39 -126 96 -126 170c0 50 20 92 58 124s87 49 148 49c103 0 188 -62 188 -162c0 -77 -43 -138 -130 -181v-2c102 -36 153 -99 153 -189c0 -127 -102 -190 -236 -190zM273 644c-62 0 -117 -42 -117 -103
s38 -107 114 -138c77 32 116 78 116 137c0 66 -46 104 -113 104zM272 56c75 0 137 44 137 116c0 70 -48 122 -144 157c-89 -35 -134 -87 -134 -154c0 -75 63 -119 141 -119z" />
    <glyph glyph-name="nine" unicode="9" horiz-adv-x="539" 
d="M251 260c-60 0 -109 20 -147 61s-58 93 -58 157c0 68 21 124 63 168s96 66 162 66c69 0 122 -27 161 -82s58 -134 58 -238c0 -129 -25 -229 -75 -299s-120 -105 -209 -105c-47 0 -87 8 -122 24v77c39 -22 80 -33 124 -33c63 0 113 25 148 76s53 124 53 218h-2
c-30 -60 -82 -90 -156 -90zM404 464c0 96 -49 180 -140 180c-82 0 -136 -71 -136 -155c0 -93 50 -158 141 -158c74 0 135 59 135 133z" />
    <glyph glyph-name="colon" unicode=":" horiz-adv-x="216" 
d="M164 457c0 -30 -25 -55 -55 -55s-54 25 -54 55s24 54 54 54s55 -24 55 -54zM164 44c0 -30 -25 -55 -55 -55s-54 25 -54 55s24 55 54 55s55 -25 55 -55z" />
    <glyph glyph-name="semicolon" unicode=";" horiz-adv-x="216" 
d="M165 457c0 -30 -25 -55 -55 -55s-54 25 -54 55s24 54 54 54s55 -24 55 -54zM154 111l-78 -240h-57l57 240h78z" />
    <glyph glyph-name="less" unicode="&#x3c;" horiz-adv-x="684" 
d="M553 62l-420 211v29l420 235v-73l-314 -174v-2l314 -153v-73z" />
    <glyph glyph-name="equal" unicode="=" horiz-adv-x="684" 
d="M572 363h-459v65h459v-65zM572 155h-459v65h459v-65z" />
    <glyph glyph-name="greater" unicode="&#x3e;" horiz-adv-x="684" 
d="M553 273l-420 -211v73l314 152v3l-314 174v73l420 -235v-29z" />
    <glyph glyph-name="question" unicode="?" horiz-adv-x="448" 
d="M164 194c-6 17 -12 50 -12 74c0 46 22 77 44 103c36 43 85 77 112 127c8 15 12 32 12 50c0 64 -49 96 -113 96c-55 0 -103 -22 -143 -65v86c50 31 102 47 155 47c80 0 139 -32 166 -87c9 -19 14 -42 14 -67c0 -51 -21 -87 -45 -116c-36 -44 -86 -78 -115 -128
c-8 -15 -13 -30 -13 -48c0 -28 8 -53 16 -72h-78zM208 -9c-29 0 -55 25 -55 54c0 30 26 54 55 54s54 -24 54 -54c0 -29 -25 -54 -54 -54z" />
    <glyph glyph-name="at" unicode="@" horiz-adv-x="955" 
d="M426 89c-97 0 -149 81 -149 182c0 135 74 256 205 256c46 0 88 -27 98 -63h2c1 9 2 28 5 56h61c-15 -179 -23 -271 -23 -274c0 -67 19 -101 58 -101c35 0 65 19 88 57s35 87 35 148c0 90 -28 162 -85 219s-136 85 -236 85c-97 0 -176 -33 -239 -101s-95 -152 -95 -254
c0 -100 30 -181 90 -242s141 -92 243 -92c80 0 149 13 206 40v-61c-56 -24 -127 -36 -211 -36c-118 0 -214 36 -286 107s-109 165 -109 281c0 119 38 218 114 296s173 118 291 118c111 0 202 -33 275 -99s109 -151 109 -257c0 -77 -19 -141 -57 -191s-85 -74 -140 -74
c-71 0 -108 39 -108 116h-2c-24 -77 -70 -116 -140 -116zM438 146c96 0 131 113 131 220c0 70 -29 105 -88 105c-91 0 -135 -104 -135 -201c0 -67 29 -124 92 -124z" />
    <glyph glyph-name="A" unicode="A" horiz-adv-x="645" 
d="M634 0h-91l-74 196h-297l-70 -196h-91l268 700h85zM442 270l-110 298c-4 10 -7 26 -11 47h-2c-3 -20 -7 -36 -11 -47l-109 -298h243z" />
    <glyph glyph-name="B" unicode="B" horiz-adv-x="573" 
d="M367 372c91 -11 156 -72 156 -171c0 -60 -22 -108 -65 -145s-97 -56 -162 -56h-204v700h199c110 0 197 -56 197 -160c0 -87 -53 -144 -121 -166v-2zM258 400c85 0 144 41 144 124c0 68 -44 102 -134 102h-94v-226h84zM285 74c89 0 152 43 152 128c0 83 -56 124 -169 124
h-94v-252h111z" />
    <glyph glyph-name="C" unicode="C" horiz-adv-x="619" 
d="M375 -12c-100 0 -179 32 -239 96s-90 149 -90 253c0 112 34 202 101 271s152 104 256 104c66 0 121 -10 165 -29v-87c-50 28 -105 42 -166 42c-80 0 -145 -27 -195 -81s-75 -125 -75 -215c0 -85 23 -153 70 -204s108 -76 184 -76c70 0 131 16 182 47v-80
c-52 -27 -116 -41 -193 -41z" />
    <glyph glyph-name="D" unicode="D" horiz-adv-x="701" 
d="M92 0v700h193c247 0 370 -113 370 -341c0 -108 -34 -195 -103 -261s-160 -98 -275 -98h-185zM278 74c182 0 291 102 291 283c0 179 -95 269 -286 269h-109v-552h104z" />
    <glyph glyph-name="E" unicode="E" horiz-adv-x="505" 
d="M463 0h-371v700h355v-74h-273v-233h253v-74h-253v-245h289v-74z" />
    <glyph glyph-name="F" unicode="F" horiz-adv-x="488" 
d="M447 626h-273v-242h253v-74h-253v-310h-82v700h355v-74z" />
    <glyph glyph-name="G" unicode="G" horiz-adv-x="686" 
d="M132 347c0 -169 93 -285 259 -285c55 0 102 11 142 33v196h-153v74h235v-317c-70 -40 -148 -60 -234 -60c-100 0 -181 33 -243 97s-92 150 -92 256c0 108 34 198 103 267s155 104 260 104c76 0 140 -12 192 -37v-91c-57 36 -124 54 -201 54c-78 0 -143 -27 -193 -81
s-75 -124 -75 -210z" />
    <glyph glyph-name="H" unicode="H" horiz-adv-x="709" 
d="M618 0h-82v319h-362v-319h-82v700h82v-307h362v307h82v-700z" />
    <glyph glyph-name="I" unicode="I" horiz-adv-x="266" 
d="M242 700v-70h-68v-560h68v-70h-219v70h69v560h-69v70h219z" />
    <glyph glyph-name="J" unicode="J" horiz-adv-x="356" 
d="M271 251c0 -144 -60 -263 -194 -263c-27 0 -49 4 -67 12v81c18 -13 40 -19 68 -19c74 0 111 63 111 188v450h82v-449z" />
    <glyph glyph-name="K" unicode="K" horiz-adv-x="580" 
d="M174 345v-345h-82v700h82v-329h2c5 7 10 15 18 24l262 305h102l-300 -336l321 -364h-114l-271 320c-10 12 -16 21 -18 25h-2z" />
    <glyph glyph-name="L" unicode="L" horiz-adv-x="470" 
d="M455 0h-363v700h82v-626h281v-74z" />
    <glyph glyph-name="M" unicode="M" horiz-adv-x="897" 
d="M806 0h-82v470c0 37 2 82 7 136h-2c-8 -32 -15 -54 -21 -68l-239 -538h-40l-239 534c-7 16 -14 40 -21 72h-2c3 -28 4 -74 4 -137v-469h-79v700h108l215 -488c17 -37 27 -65 32 -84h3c14 38 26 67 34 86l219 486h103v-700z" />
    <glyph glyph-name="N" unicode="N" horiz-adv-x="748" 
d="M656 0h-100l-361 558c-9 14 -16 29 -22 44h-3c3 -15 4 -47 4 -96v-506h-82v700h106l351 -549c15 -23 24 -39 28 -47h2c-3 20 -5 54 -5 103v493h82v-700z" />
    <glyph glyph-name="O" unicode="O" horiz-adv-x="753" 
d="M374 -12c-99 0 -179 33 -239 98s-89 151 -89 256c0 113 30 202 91 269s144 101 249 101c97 0 174 -33 233 -98s89 -150 89 -255c0 -114 -30 -205 -91 -271s-141 -100 -243 -100zM622 348c0 170 -79 290 -242 290c-74 0 -133 -27 -179 -80s-69 -123 -69 -209
s22 -155 67 -208s103 -79 175 -79c163 0 248 117 248 286z" />
    <glyph glyph-name="P" unicode="P" horiz-adv-x="560" 
d="M284 700c143 0 236 -70 236 -209c0 -66 -23 -121 -69 -163s-107 -63 -185 -63h-92v-265h-82v700h192zM260 339c105 0 174 47 174 148c0 92 -55 139 -164 139h-96v-287h86z" />
    <glyph glyph-name="Q" unicode="Q" horiz-adv-x="753" 
d="M725 -180c-21 -7 -50 -9 -76 -9c-67 0 -114 22 -154 52c-47 35 -85 79 -126 125c-76 0 -137 25 -184 56c-88 59 -139 166 -139 298c0 113 30 202 91 269s145 101 251 101c95 0 172 -33 231 -98s89 -150 89 -255c0 -145 -50 -251 -136 -312c-31 -22 -67 -38 -109 -47
c30 -32 57 -61 92 -84c27 -18 57 -29 99 -29c26 0 52 4 71 12v-79zM622 348c0 171 -79 290 -242 290c-74 0 -133 -27 -179 -80s-69 -123 -69 -209s22 -155 67 -208c45 -52 103 -79 175 -79c163 0 248 117 248 286z" />
    <glyph glyph-name="R" unicode="R" horiz-adv-x="598" 
d="M241 298h-67v-298h-82v700h209c98 0 166 -38 197 -105c11 -23 16 -50 16 -81c0 -81 -39 -133 -91 -163c-19 -11 -41 -20 -65 -26v-2c51 -23 75 -66 104 -113l132 -210h-98l-117 196c-19 31 -36 58 -62 78c-20 15 -43 24 -76 24zM428 507c0 81 -57 119 -142 119h-112v-254
h111c66 0 112 31 132 78c7 17 11 36 11 57z" />
    <glyph glyph-name="S" unicode="S" horiz-adv-x="531" 
d="M247 62c88 0 150 29 150 109c0 42 -20 68 -46 88c-33 26 -76 45 -117 66c-65 33 -131 67 -161 132c-9 19 -13 42 -13 68c0 68 34 114 76 142c41 28 101 45 167 45c69 0 119 -8 151 -25v-92c-41 29 -94 43 -159 43c-62 0 -111 -19 -136 -57c-9 -13 -13 -30 -13 -49
c0 -40 17 -63 40 -82c32 -26 70 -43 112 -64c69 -34 138 -73 171 -140c10 -20 14 -43 14 -69c0 -106 -67 -160 -154 -179c-30 -7 -62 -10 -95 -10c-49 0 -101 10 -139 23c-15 5 -27 11 -36 17v97c34 -30 86 -50 140 -59c17 -3 33 -4 48 -4z" />
    <glyph glyph-name="T" unicode="T" horiz-adv-x="523" 
d="M506 626h-202v-626h-82v626h-202v74h486v-74z" />
    <glyph glyph-name="U" unicode="U" horiz-adv-x="687" 
d="M604 283c0 -197 -89 -295 -266 -295c-170 0 -255 95 -255 284v428h82v-423c0 -144 61 -215 182 -215c117 0 175 69 175 208v430h82v-417z" />
    <glyph glyph-name="V" unicode="V" horiz-adv-x="621" 
d="M612 700l-259 -700h-90l-254 700h91l194 -555c6 -18 11 -39 14 -62h2c3 20 8 41 16 63l198 554h88z" />
    <glyph glyph-name="W" unicode="W" horiz-adv-x="934" 
d="M922 700l-198 -700h-96l-144 512c-6 22 -10 45 -11 71h-2c-2 -24 -6 -47 -13 -70l-145 -513h-95l-205 700h90l149 -537c6 -22 10 -46 12 -70h2c2 17 7 40 15 70l155 537h79l148 -541c5 -19 9 -40 12 -65h2c1 17 6 39 13 67l143 539h89z" />
    <glyph glyph-name="X" unicode="X" horiz-adv-x="589" 
d="M575 0h-100l-161 268c-5 8 -10 20 -16 35h-2c-3 -7 -9 -19 -17 -35l-166 -268h-100l234 352l-216 348h101l143 -246c9 -16 18 -33 25 -49h2c10 21 19 39 27 51l149 244h94l-220 -347z" />
    <glyph glyph-name="Y" unicode="Y" horiz-adv-x="552" 
d="M316 0h-82v257l-225 443h93l157 -316c2 -4 8 -18 17 -43h1c3 11 10 25 19 43l164 316h87l-231 -441v-259z" />
    <glyph glyph-name="Z" unicode="Z" horiz-adv-x="570" 
d="M539 74v-74h-523v23l407 603h-374v74h500v-19l-410 -607h400z" />
    <glyph glyph-name="bracketleft" unicode="[" horiz-adv-x="301" 
d="M277 -159h-179v859h179v-58h-108v-743h108v-58z" />
    <glyph glyph-name="backslash" unicode="\" horiz-adv-x="378" 
d="M390 -117h-74l-329 817h76z" />
    <glyph glyph-name="bracketright" unicode="]" horiz-adv-x="301" 
d="M205 -159h-179v58h108v743h-108v58h179v-859z" />
    <glyph glyph-name="asciicircum" unicode="^" horiz-adv-x="684" 
d="M573 305h-73l-162 302h-3l-151 -302h-72l206 407h32z" />
    <glyph glyph-name="underscore" unicode="_" horiz-adv-x="415" 
d="M415 -145h-415v58h415v-58z" />
    <glyph glyph-name="grave" unicode="`" horiz-adv-x="268" 
d="M230 595h-62l-128 160h82z" />
    <glyph glyph-name="a" unicode="a" horiz-adv-x="508" 
d="M203 -12c-94 0 -159 53 -159 145c0 93 55 148 165 163l150 21c0 85 -34 127 -103 127c-60 0 -114 -20 -163 -61v82c49 31 106 47 170 47c118 0 176 -63 176 -187v-325h-80v78h-2c-35 -60 -86 -90 -154 -90zM222 56c81 0 137 65 137 147v50l-121 -17
c-37 -5 -65 -14 -84 -27s-28 -36 -28 -70c0 -52 42 -83 96 -83z" />
    <glyph glyph-name="b" unicode="b" horiz-adv-x="587" 
d="M541 265c0 -156 -78 -277 -228 -277c-66 0 -116 28 -150 84h-2v-72h-80v740h80v-328h2c39 66 97 100 173 100c136 0 205 -107 205 -247zM316 444c-94 0 -155 -75 -155 -170v-70c0 -41 13 -76 40 -105s62 -43 103 -43c109 0 155 94 155 210c0 101 -47 178 -143 178z" />
    <glyph glyph-name="c" unicode="c" horiz-adv-x="461" 
d="M129 245c0 -111 62 -189 170 -189c44 0 85 14 123 43v-76c-38 -23 -84 -35 -137 -35c-71 0 -128 24 -172 70s-66 106 -66 180c0 161 100 274 260 274c44 0 82 -9 116 -25v-82c-37 26 -77 39 -119 39c-51 0 -93 -18 -126 -55s-49 -84 -49 -144z" />
    <glyph glyph-name="d" unicode="d" horiz-adv-x="588" 
d="M254 -12c-135 0 -207 108 -207 250c0 83 20 149 62 199s98 75 167 75s119 -27 150 -81h2v309h80v-740h-80v85h-2c-37 -64 -95 -97 -172 -97zM277 56c92 0 151 76 151 170v74c0 40 -13 74 -40 102s-61 42 -102 42c-107 0 -157 -88 -157 -202c0 -104 49 -186 148 -186z" />
    <glyph glyph-name="e" unicode="e" horiz-adv-x="522" 
d="M277 512c138 0 206 -98 206 -240v-42h-353c2 -106 58 -174 163 -174c56 0 108 18 155 55v-75c-44 -32 -102 -48 -174 -48c-149 0 -227 105 -227 260c0 78 22 141 66 190s99 74 164 74zM401 298c-1 86 -42 146 -125 146s-134 -69 -145 -146h270z" />
    <glyph glyph-name="f" unicode="f" horiz-adv-x="312" 
d="M275 683c-56 0 -84 -35 -84 -106v-77h117v-68h-117v-432h-80v432h-85v68h85v81c0 52 16 94 46 124s68 46 113 46c24 0 44 -3 58 -9v-72c-16 9 -33 13 -53 13z" />
    <glyph glyph-name="g" unicode="g" horiz-adv-x="588" 
d="M47 234c0 157 78 278 229 278c67 0 117 -27 150 -81h2v69h80v-460c0 -184 -88 -275 -264 -275c-62 0 -116 12 -162 35v80c56 -31 110 -47 161 -47c123 0 185 65 185 196v55h-2c-38 -64 -96 -96 -172 -96c-62 0 -112 23 -150 67s-57 104 -57 179zM276 56
c93 0 152 75 152 170v74c0 40 -14 74 -41 102s-60 42 -100 42c-109 0 -158 -89 -158 -205c0 -101 51 -183 147 -183z" />
    <glyph glyph-name="h" unicode="h" horiz-adv-x="565" 
d="M496 0h-80v288c0 104 -39 156 -116 156c-39 0 -72 -15 -99 -45s-40 -69 -40 -116v-283h-80v740h80v-323h2c38 63 93 95 164 95c113 0 169 -68 169 -204v-308z" />
    <glyph glyph-name="i" unicode="i" horiz-adv-x="242" 
d="M175 679c0 -29 -24 -52 -53 -52s-52 23 -52 52s23 52 52 52s53 -23 53 -52zM161 0h-80v500h80v-500z" />
    <glyph glyph-name="j" unicode="j" horiz-adv-x="242" 
d="M161 21c0 -146 -54 -256 -191 -256c-23 0 -46 5 -67 15v75c24 -15 48 -22 69 -22c73 0 109 58 109 175v492h80v-479zM175 679c0 -29 -24 -52 -53 -52s-52 23 -52 52s23 52 52 52s53 -23 53 -52z" />
    <glyph glyph-name="k" unicode="k" horiz-adv-x="497" 
d="M161 240v-240h-80v740h80v-469h2l210 229h105l-232 -241l250 -259h-112l-221 240h-2z" />
    <glyph glyph-name="l" unicode="l" horiz-adv-x="242" 
d="M161 0h-80v740h80v-740z" />
    <glyph glyph-name="m" unicode="m" horiz-adv-x="861" 
d="M318 512c72 0 125 -47 142 -104c37 69 92 104 166 104c110 0 165 -68 165 -204v-308h-80v287c0 98 -22 157 -112 157c-34 0 -63 -16 -87 -47s-36 -68 -36 -112v-285h-80v297c0 98 -38 147 -114 147c-78 0 -121 -76 -121 -159v-285h-80v500h80v-79h2c35 61 87 91 155 91z
" />
    <glyph glyph-name="n" unicode="n" horiz-adv-x="565" 
d="M327 512c118 0 169 -83 169 -206v-306h-80v285c0 106 -39 159 -116 159c-84 0 -139 -73 -139 -159v-285h-80v500h80v-83h2c38 63 92 95 164 95z" />
    <glyph glyph-name="o" unicode="o" horiz-adv-x="585" 
d="M539 252c0 -156 -95 -264 -249 -264c-150 0 -243 105 -243 256c0 163 95 268 255 268c154 0 237 -103 237 -260zM457 249c0 116 -50 195 -161 195c-110 0 -167 -83 -167 -197c0 -111 60 -191 167 -191c110 0 161 78 161 193z" />
    <glyph glyph-name="p" unicode="p" horiz-adv-x="587" 
d="M541 265c0 -156 -78 -277 -228 -277c-65 0 -115 28 -150 84h-2v-302h-80v730h80v-88h2c39 66 97 100 173 100c136 0 205 -106 205 -247zM316 444c-94 0 -155 -75 -155 -170v-70c0 -41 13 -76 40 -105s62 -43 103 -43c109 0 155 94 155 210c0 101 -47 178 -143 178z" />
    <glyph glyph-name="q" unicode="q" horiz-adv-x="588" 
d="M508 -230h-80v316h-2c-35 -65 -92 -98 -171 -98c-63 0 -113 22 -151 67s-57 106 -57 183c0 155 81 274 230 274c68 0 118 -27 149 -81h2v69h80v-730zM274 56c95 0 154 74 154 169v73c0 82 -61 146 -143 146c-108 0 -156 -89 -156 -204c0 -102 49 -184 145 -184z" />
    <glyph glyph-name="r" unicode="r" horiz-adv-x="347" 
d="M163 397c19 58 62 112 131 112c21 0 37 -2 48 -7v-83c-14 11 -35 16 -61 16c-34 0 -62 -16 -85 -48s-35 -76 -35 -132v-255h-80v500h80v-103h2z" />
    <glyph glyph-name="s" unicode="s" horiz-adv-x="424" 
d="M195 56c70 0 105 23 105 70c0 29 -15 46 -33 59c-23 16 -52 26 -81 37c-67 27 -134 54 -134 145c0 51 27 86 59 108c33 22 79 37 132 37c43 0 82 -8 116 -23v-81c-37 24 -79 36 -127 36c-43 0 -76 -14 -91 -41c-5 -9 -7 -19 -7 -29c0 -44 29 -61 61 -75
c67 -28 148 -49 177 -113c7 -15 10 -32 10 -52c0 -53 -27 -88 -60 -110c-34 -23 -82 -36 -137 -36c-51 0 -96 10 -134 30v86c44 -32 92 -48 144 -48z" />
    <glyph glyph-name="t" unicode="t" horiz-adv-x="338" 
d="M187 150c0 -61 16 -93 74 -93c20 0 37 5 52 16v-68c-19 -10 -44 -16 -75 -16c-88 0 -131 49 -131 147v296h-86v68h86v122l80 26v-148h126v-68h-126v-282z" />
    <glyph glyph-name="u" unicode="u" horiz-adv-x="565" 
d="M271 56c83 0 134 70 134 156v288h80v-500h-80v79h-2c-33 -61 -84 -91 -154 -91c-119 0 -179 71 -179 213v299h80v-286c0 -105 40 -158 121 -158z" />
    <glyph glyph-name="v" unicode="v" horiz-adv-x="479" 
d="M474 500l-199 -500h-79l-189 500h88l127 -363c9 -27 15 -50 17 -70h2c3 25 9 48 16 68l133 365h84z" />
    <glyph glyph-name="w" unicode="w" horiz-adv-x="722" 
d="M711 500l-150 -500h-83l-103 358c-4 14 -7 29 -8 46h-2c-1 -12 -4 -26 -10 -45l-112 -359h-80l-151 500h84l103 -376c3 -11 6 -26 7 -45h4c1 14 4 30 9 46l115 375h73l104 -377c3 -12 5 -27 7 -45h4c1 13 3 28 8 45l102 377h79z" />
    <glyph glyph-name="x" unicode="x" horiz-adv-x="458" 
d="M446 500l-168 -253l165 -247h-93l-98 162c-6 10 -14 23 -22 38h-2c-2 -3 -9 -16 -23 -38l-100 -162h-92l170 245l-163 255h93l97 -171l21 -39h2l125 210h88z" />
    <glyph glyph-name="y" unicode="y" horiz-adv-x="483" 
d="M76 -235c-21 0 -38 2 -52 6v72c17 -6 33 -9 47 -9c40 0 71 24 91 72l40 95l-195 499h89l135 -385c2 -5 5 -17 10 -38h3c2 8 5 20 10 37l142 386h83l-230 -580c-41 -104 -99 -155 -173 -155z" />
    <glyph glyph-name="z" unicode="z" horiz-adv-x="452" 
d="M427 68v-68h-411v25l296 407h-268v68h386v-23l-296 -409h293z" />
    <glyph glyph-name="braceleft" unicode="{" horiz-adv-x="301" 
d="M193 4c0 -67 16 -101 78 -102v-61c-100 1 -150 51 -150 151v147c0 66 -25 100 -76 103v57c51 3 76 38 76 105v143c0 101 50 152 150 153v-62c-52 -1 -78 -34 -78 -97v-143c0 -68 -24 -110 -73 -126v-2c49 -15 73 -56 73 -125v-141z" />
    <glyph glyph-name="bar" unicode="|" horiz-adv-x="239" 
d="M156 -235h-72v1000h72v-1000z" />
    <glyph glyph-name="braceright" unicode="}" horiz-adv-x="301" 
d="M32 -98c61 1 78 36 78 102v141c0 69 24 110 73 125v2c-49 16 -73 58 -73 126v143c0 63 -26 96 -78 97v62c100 -1 150 -52 150 -153v-143c0 -67 25 -102 76 -105v-57c-51 -3 -76 -37 -76 -103v-147c0 -100 -50 -150 -150 -151v61z" />
    <glyph glyph-name="asciitilde" unicode="~" horiz-adv-x="684" 
d="M583 366c-4 -89 -48 -151 -137 -151c-35 0 -78 18 -129 53c-32 22 -58 33 -78 33c-46 0 -69 -29 -71 -86h-66c3 87 50 151 137 151c35 0 73 -14 115 -43c43 -29 75 -44 96 -44c44 0 66 41 67 87h66z" />
    <glyph glyph-name="nonbreakingspace" unicode="&#xa0;" horiz-adv-x="273" 
 />
    <glyph glyph-name="exclamdown" unicode="&#xa1;" horiz-adv-x="284" 
d="M196 457c0 -29 -25 -54 -54 -54c-30 0 -54 24 -54 54s24 54 54 54c29 0 54 -25 54 -54zM185 -198h-84l9 503h66z" />
    <glyph glyph-name="cent" unicode="&#xa2;" horiz-adv-x="539" 
d="M90 317c0 145 83 246 206 269v104h61v-99c40 -1 76 -9 108 -25v-84c-33 23 -69 36 -108 38v-383c40 4 76 18 108 42v-77c-31 -19 -67 -31 -108 -34v-92h-61v93c-63 7 -113 34 -150 79s-56 102 -56 169zM296 514c-77 -20 -124 -92 -124 -189c0 -96 46 -165 124 -183v372z
" />
    <glyph glyph-name="sterling" unicode="&#xa3;" horiz-adv-x="539" 
d="M158 503c0 118 75 209 191 209c38 0 73 -7 104 -20v-76c-33 19 -67 28 -103 28c-75 0 -112 -50 -112 -150v-115h145v-69h-145v-76c0 -79 -31 -134 -94 -166h347v-68h-439v66c71 22 106 74 106 153v91h-96v69h96v124z" />
    <glyph glyph-name="currency" unicode="&#xa4;" horiz-adv-x="555" 
d="M278 156c-44 0 -83 12 -117 37l-67 -67l-45 47l67 65c-25 37 -37 76 -37 116c0 42 12 81 37 116l-67 66l45 47l67 -67c36 25 75 38 117 38s81 -13 116 -38l68 67l45 -47l-67 -66c25 -36 38 -75 38 -116c0 -39 -13 -78 -38 -116l67 -65l-45 -47l-67 67
c-34 -25 -73 -37 -117 -37zM278 221c73 0 135 61 135 134c0 37 -13 69 -40 95s-59 39 -95 39c-38 0 -69 -13 -95 -39s-39 -58 -39 -95c0 -73 61 -134 134 -134z" />
    <glyph glyph-name="yen" unicode="&#xa5;" horiz-adv-x="539" 
d="M474 380v-68h-163v-101h163v-68h-163v-143h-80v143h-168v68h168v101h-168v68h142l-172 320h94l122 -251c9 -19 17 -37 23 -54h2c4 14 12 33 24 57l123 248h88l-174 -320h139z" />
    <glyph glyph-name="brokenbar" unicode="&#xa6;" horiz-adv-x="239" 
d="M156 349h-72v416h72v-416zM156 -235h-72v416h72v-416z" />
    <glyph glyph-name="section" unicode="&#xa7;" horiz-adv-x="448" 
d="M84 586c0 88 74 142 166 142c42 0 78 -7 107 -21v-77c-33 20 -69 30 -109 30c-55 0 -82 -23 -82 -70c0 -18 7 -34 20 -49s46 -35 99 -60c73 -35 109 -82 109 -143c0 -55 -24 -100 -73 -135c29 -24 44 -55 44 -91c0 -91 -79 -144 -173 -144c-43 0 -82 9 -117 27v77
c42 -24 83 -36 122 -36c48 0 86 24 86 68c0 17 -5 32 -17 44s-41 30 -88 55c-76 40 -114 92 -114 155c0 53 24 93 72 119c-35 27 -52 63 -52 109zM145 364c0 -23 10 -44 28 -62s50 -36 96 -57c29 22 43 50 43 84c0 23 -9 44 -26 60s-48 34 -92 53c-33 -17 -49 -43 -49 -78z
" />
    <glyph glyph-name="dieresis" unicode="&#xa8;" horiz-adv-x="414" 
d="M346 643c0 -27 -21 -48 -48 -48s-48 21 -48 48s21 48 47 48c27 0 49 -21 49 -48zM158 643c0 -26 -22 -48 -48 -48c-27 0 -49 22 -49 48c0 27 21 48 48 48c26 0 49 -22 49 -48z" />
    <glyph glyph-name="copyright" unicode="&#xa9;" horiz-adv-x="890" 
d="M79 350c0 101 36 188 107 259s158 107 259 107s188 -36 259 -107s107 -158 107 -259s-36 -188 -107 -259s-158 -107 -259 -107s-188 36 -259 107s-107 158 -107 259zM445 673c-89 0 -165 -31 -228 -94s-95 -140 -95 -229s32 -165 95 -228s139 -95 228 -95s166 32 229 95
s94 139 94 228s-31 166 -94 229s-140 94 -229 94zM221 338c0 80 24 144 71 192s108 72 183 72c43 0 81 -9 115 -26v-73c-31 23 -72 35 -124 35c-51 0 -92 -17 -125 -52s-50 -81 -50 -140c0 -57 17 -102 51 -136s76 -52 128 -52c48 0 88 13 122 38v-66
c-37 -22 -81 -34 -131 -34c-68 0 -125 23 -171 69s-69 104 -69 173z" />
    <glyph glyph-name="ordfeminine" unicode="&#xaa;" horiz-adv-x="392" 
d="M205 711c83 0 131 -51 131 -134v-227h-63v49h-2c-26 -39 -64 -58 -113 -58c-66 0 -118 39 -118 103c0 66 40 104 121 115l112 15c0 55 -25 82 -74 82c-44 0 -86 -14 -124 -42v63c36 23 80 34 130 34zM172 391c54 0 101 47 101 101v33l-88 -12c-55 -7 -82 -30 -82 -66
s31 -56 69 -56z" />
    <glyph glyph-name="guillemotleft" unicode="&#xab;" horiz-adv-x="505" 
d="M462 98h-82l-146 164l146 168h83l-150 -168zM272 98h-81l-146 164l146 168h81l-148 -168z" />
    <glyph glyph-name="logicalnot" unicode="&#xac;" horiz-adv-x="684" 
d="M572 124h-64v210h-395v65h459v-275z" />
    <glyph glyph-name="sfthyphen" unicode="&#xad;" horiz-adv-x="399" 
d="M337 247h-267v63h267v-63z" />
    <glyph glyph-name="registered" unicode="&#xae;" horiz-adv-x="890" 
d="M79 350c0 101 36 188 107 259s158 107 259 107s188 -36 259 -107s107 -158 107 -259s-36 -188 -107 -259s-158 -107 -259 -107s-188 36 -259 107s-107 158 -107 259zM445 673c-89 0 -165 -31 -228 -94s-95 -140 -95 -229s32 -165 95 -228s139 -95 228 -95s166 32 229 95
s94 139 94 228s-31 166 -94 229s-140 94 -229 94zM603 460c0 -72 -54 -113 -118 -127v-2c26 -6 52 -34 77 -86l61 -124h-79l-51 112c-26 56 -53 84 -83 84h-43v-196h-65v466h131c95 0 170 -39 170 -127zM533 452c0 63 -41 79 -108 79h-58v-159h70c64 0 96 27 96 80z" />
    <glyph glyph-name="uni00AF" unicode="&#xaf;" horiz-adv-x="415" 
d="M415 682h-415v58h415v-58z" />
    <glyph glyph-name="degree" unicode="&#xb0;" horiz-adv-x="376" 
d="M323 574c0 -75 -60 -136 -135 -136s-135 61 -135 136c0 74 60 134 134 134s136 -60 136 -134zM265 574c0 42 -35 77 -77 77s-77 -35 -77 -77c0 -43 33 -79 76 -79c42 0 78 37 78 79z" />
    <glyph glyph-name="plusminus" unicode="&#xb1;" horiz-adv-x="684" 
d="M572 318h-197v-197h-64v197h-198v65h198v197h64v-197h197v-65zM572 0h-459v65h459v-65z" />
    <glyph glyph-name="twosuperior" unicode="&#xb2;" horiz-adv-x="366" 
d="M188 856c74 0 125 -45 125 -117c0 -50 -33 -107 -100 -170l-80 -76v-2h188v-60h-270v56l117 115c34 33 55 58 64 76s14 36 14 54c0 39 -28 64 -67 64c-38 0 -74 -17 -106 -50v73c27 25 66 37 115 37z" />
    <glyph glyph-name="threesuperior" unicode="&#xb3;" horiz-adv-x="366" 
d="M319 550c0 -82 -67 -129 -152 -129c-45 0 -79 9 -104 26v69c34 -25 69 -37 106 -37c47 0 84 23 84 68c0 46 -36 69 -107 69h-41v57h39c64 0 96 22 96 66c0 39 -23 58 -70 58c-31 0 -61 -12 -91 -34v68c28 17 63 25 104 25c69 0 121 -39 121 -105c0 -49 -24 -82 -71 -100
v-2c58 -14 86 -47 86 -99z" />
    <glyph glyph-name="acute" unicode="&#xb4;" horiz-adv-x="282" 
d="M256 755l-128 -160h-62l109 160h81z" />
    <glyph glyph-name="mu1" unicode="&#xb5;" horiz-adv-x="577" 
d="M282 59c84 0 133 68 133 155v286h81v-371c0 -61 6 -104 16 -129h-83c-7 23 -12 51 -12 82h-2c-27 -62 -73 -93 -136 -93c-54 0 -93 20 -116 60h-2v-242h-80v693h80v-306c0 -78 45 -135 121 -135z" />
    <glyph glyph-name="paragraph" unicode="&#xb6;" horiz-adv-x="458" 
d="M163 441c-72 0 -122 57 -122 130c0 38 12 69 36 93s54 36 89 36h241v-50h-62v-650h-52v650h-77v-650h-53v441z" />
    <glyph glyph-name="periodcentered" unicode="&#xb7;" horiz-adv-x="216" 
d="M164 304c0 -30 -25 -55 -55 -55s-54 25 -54 55s24 55 54 55s55 -25 55 -55z" />
    <glyph glyph-name="cedilla" unicode="&#xb8;" horiz-adv-x="205" 
d="M98 -51c53 0 93 -24 93 -74c0 -57 -44 -86 -134 -86c-12 0 -23 0 -32 1v44c14 -2 25 -3 34 -3c46 0 69 15 69 44c0 25 -21 38 -63 38c-3 0 -10 -1 -20 -2v89h53v-51z" />
    <glyph glyph-name="onesuperior" unicode="&#xb9;" horiz-adv-x="351" 
d="M312 431h-246v55h90v290l-94 -27v61l158 47v-371h92v-55z" />
    <glyph glyph-name="ordmasculine" unicode="&#xba;" horiz-adv-x="430" 
d="M392 529c0 -113 -68 -189 -179 -189c-110 0 -175 72 -175 182c0 114 70 188 183 188c108 0 171 -72 171 -181zM327 525c0 76 -37 131 -110 131c-74 0 -113 -55 -113 -132s37 -129 112 -129c72 0 111 55 111 130z" />
    <glyph glyph-name="guillemotright" unicode="&#xbb;" horiz-adv-x="505" 
d="M463 263l-147 -165h-81l148 165l-148 167h81zM273 263l-146 -165h-83l150 165l-150 167h83z" />
    <glyph glyph-name="onequarter" unicode="&#xbc;" horiz-adv-x="906" 
d="M312 285h-246v55h90v290l-94 -27v61l158 47v-371h92v-55zM680 700l-419 -700h-70l419 700h70zM833 100h-54v-100h-64v100h-192v45l180 270h76v-262h54v-53zM715 153v158c0 10 1 25 2 43h-2c-4 -10 -11 -22 -19 -36l-106 -165h125z" />
    <glyph glyph-name="onehalf" unicode="&#xbd;" horiz-adv-x="930" 
d="M312 285h-246v55h90v290l-94 -27v61l158 47v-371h92v-55zM680 700l-419 -700h-70l419 700h70zM720 425c74 0 125 -45 125 -117c0 -50 -33 -107 -100 -170l-80 -76v-2h188v-60h-270v56l117 115c34 33 55 58 64 76s14 36 14 54c0 39 -28 64 -67 64c-38 0 -74 -17 -106 -50
v73c27 25 66 37 115 37z" />
    <glyph glyph-name="threequarters" unicode="&#xbe;" horiz-adv-x="952" 
d="M319 404c0 -82 -67 -129 -152 -129c-45 0 -79 9 -104 26v69c34 -25 69 -37 106 -37c47 0 84 23 84 68c0 46 -36 69 -107 69h-41v57h39c64 0 96 22 96 66c0 39 -23 58 -70 58c-31 0 -61 -12 -91 -34v68c28 17 63 25 104 25c69 0 121 -39 121 -105c0 -49 -24 -82 -71 -100
v-2c58 -14 86 -47 86 -99zM715 700l-419 -700h-70l419 700h70zM865 100h-54v-100h-64v100h-192v45l180 270h76v-262h54v-53zM747 153v158c0 10 1 25 2 43h-2c-4 -10 -11 -22 -19 -36l-106 -165h125z" />
    <glyph glyph-name="questiondown" unicode="&#xbf;" horiz-adv-x="448" 
d="M305 308c6 -17 11 -50 11 -74c0 -46 -21 -77 -43 -103c-36 -43 -85 -77 -112 -127c-8 -15 -13 -32 -13 -50c0 -64 50 -96 114 -96c55 0 103 22 143 65v-86c-50 -31 -102 -47 -155 -47c-81 0 -139 33 -166 87c-10 19 -14 42 -14 67c0 51 21 87 45 116c36 44 86 78 115 128
c8 15 13 30 13 48c0 28 -8 54 -16 72h78zM207 457c0 30 25 54 54 54s54 -24 54 -54c0 -29 -25 -54 -54 -54s-54 25 -54 54z" />
    <glyph glyph-name="Agrave" unicode="&#xc0;" horiz-adv-x="645" 
d="M634 0h-91l-74 196h-297l-70 -196h-91l268 700h85zM442 270l-110 298c-4 10 -7 26 -11 47h-2c-3 -20 -7 -36 -11 -47l-109 -298h243zM370 765h-62l-128 160h82z" />
    <glyph glyph-name="Aacute" unicode="&#xc1;" horiz-adv-x="645" 
d="M634 0h-91l-74 196h-297l-70 -196h-91l268 700h85zM442 270l-110 298c-4 10 -7 26 -11 47h-2c-3 -20 -7 -36 -11 -47l-109 -298h243zM423 925l-128 -160h-62l109 160h81z" />
    <glyph glyph-name="Acircumflex" unicode="&#xc2;" horiz-adv-x="645" 
d="M634 0h-91l-74 196h-297l-70 -196h-91l268 700h85zM442 270l-110 298c-4 10 -7 26 -11 47h-2c-3 -20 -7 -36 -11 -47l-109 -298h243zM452 764h-59l-80 112l-81 -112h-55l105 162h65z" />
    <glyph glyph-name="Atilde" unicode="&#xc3;" horiz-adv-x="645" 
d="M634 0h-91l-74 196h-297l-70 -196h-91l268 700h85zM442 270l-110 298c-4 10 -7 26 -11 47h-2c-3 -20 -7 -36 -11 -47l-109 -298h243zM164 755c0 63 28 115 89 115c21 0 46 -8 73 -25c24 -14 44 -22 62 -22c27 0 41 19 41 57h48c0 -61 -29 -116 -87 -116
c-23 0 -49 8 -79 25c-25 14 -44 21 -58 21c-29 0 -43 -18 -43 -55h-46z" />
    <glyph glyph-name="Adieresis" unicode="&#xc4;" horiz-adv-x="645" 
d="M634 0h-91l-74 196h-297l-70 -196h-91l268 700h85zM442 270l-110 298c-4 10 -7 26 -11 47h-2c-3 -20 -7 -36 -11 -47l-109 -298h243zM458 812c0 -27 -21 -48 -48 -48s-48 21 -48 48s21 48 47 48c27 0 49 -21 49 -48zM270 812c0 -26 -22 -48 -48 -48c-27 0 -49 22 -49 48
c0 27 21 48 48 48c26 0 49 -22 49 -48z" />
    <glyph glyph-name="Aring" unicode="&#xc5;" horiz-adv-x="645" 
d="M323 850c56 0 98 -39 98 -94c0 -36 -16 -63 -47 -81l260 -675h-91l-74 196h-297l-70 -196h-91l258 673c-33 17 -49 44 -49 80c0 58 44 97 103 97zM376 756c0 31 -25 54 -56 54c-32 0 -55 -22 -55 -54c0 -37 18 -56 55 -56c31 0 56 25 56 56zM442 270l-110 298
c-4 10 -7 26 -11 47h-2c-3 -20 -7 -36 -11 -47l-109 -298h243z" />
    <glyph glyph-name="AE" unicode="&#xc6;" horiz-adv-x="860" 
d="M814 0h-371v196h-249l-94 -196h-95l342 700h451v-74h-273v-233h253v-74h-253v-245h289v-74zM443 270v356h-46l-169 -356h215z" />
    <glyph glyph-name="Ccedilla" unicode="&#xc7;" horiz-adv-x="619" 
d="M375 -12c-100 0 -179 32 -239 96s-90 149 -90 253c0 112 34 202 101 271s152 104 256 104c66 0 121 -10 165 -29v-87c-50 28 -105 42 -166 42c-80 0 -145 -27 -195 -81s-75 -125 -75 -215c0 -85 23 -153 70 -204s108 -76 184 -76c70 0 131 16 182 47v-80
c-52 -27 -116 -41 -193 -41zM376 -51c53 0 93 -24 93 -74c0 -57 -44 -86 -134 -86c-12 0 -23 0 -32 1v44c14 -2 25 -3 34 -3c46 0 69 15 69 44c0 25 -21 38 -63 38c-3 0 -10 -1 -20 -2v89h53v-51z" />
    <glyph glyph-name="Egrave" unicode="&#xc8;" horiz-adv-x="505" 
d="M463 0h-371v700h355v-74h-273v-233h253v-74h-253v-245h289v-74zM343 765h-62l-128 160h82z" />
    <glyph glyph-name="Eacute" unicode="&#xc9;" horiz-adv-x="505" 
d="M463 0h-371v700h355v-74h-273v-233h253v-74h-253v-245h289v-74zM392 924l-128 -160h-62l109 160h81z" />
    <glyph glyph-name="Ecircumflex" unicode="&#xca;" horiz-adv-x="505" 
d="M463 0h-371v700h355v-74h-273v-233h253v-74h-253v-245h289v-74zM403 765h-59l-80 112l-81 -112h-55l105 162h65z" />
    <glyph glyph-name="Edieresis" unicode="&#xcb;" horiz-adv-x="505" 
d="M463 0h-371v700h355v-74h-273v-233h253v-74h-253v-245h289v-74zM414 813c0 -27 -21 -48 -48 -48s-48 21 -48 48s21 48 47 48c27 0 49 -21 49 -48zM226 813c0 -26 -22 -48 -48 -48c-27 0 -49 22 -49 48c0 27 21 48 48 48c26 0 49 -22 49 -48z" />
    <glyph glyph-name="Igrave" unicode="&#xcc;" horiz-adv-x="266" 
d="M242 700v-70h-68v-560h68v-70h-219v70h69v560h-69v70h219zM203 765h-62l-128 160h82z" />
    <glyph glyph-name="Iacute" unicode="&#xcd;" horiz-adv-x="266" 
d="M242 700v-70h-68v-560h68v-70h-219v70h69v560h-69v70h219zM249 925l-128 -160h-62l109 160h81z" />
    <glyph glyph-name="Icircumflex" unicode="&#xce;" horiz-adv-x="266" 
d="M242 700v-70h-68v-560h68v-70h-219v70h69v560h-69v70h219zM273 765h-59l-80 112l-81 -112h-55l105 162h65z" />
    <glyph glyph-name="Idieresis" unicode="&#xcf;" horiz-adv-x="266" 
d="M242 700v-70h-68v-560h68v-70h-219v70h69v560h-69v70h219zM278 813c0 -27 -21 -48 -48 -48s-48 21 -48 48s21 48 47 48c27 0 49 -21 49 -48zM90 813c0 -26 -22 -48 -48 -48c-27 0 -49 22 -49 48c0 27 21 48 48 48c26 0 49 -22 49 -48z" />
    <glyph glyph-name="Eth" unicode="&#xd0;" horiz-adv-x="701" 
d="M92 0v313h-78v76h78v311h193c247 0 370 -113 370 -341c0 -109 -34 -196 -103 -261s-160 -98 -275 -98h-185zM278 74c182 0 291 102 291 283c0 179 -95 269 -286 269h-109v-237h164v-76h-164v-239h104z" />
    <glyph glyph-name="Ntilde" unicode="&#xd1;" horiz-adv-x="748" 
d="M656 0h-100l-361 558c-9 14 -16 29 -22 44h-3c3 -15 4 -47 4 -96v-506h-82v700h106l351 -549c15 -23 24 -39 28 -47h2c-3 20 -5 54 -5 103v493h82v-700zM230 755c0 63 28 115 89 115c21 0 46 -8 73 -25c24 -14 44 -22 62 -22c27 0 41 19 41 57h48
c0 -61 -29 -116 -87 -116c-23 0 -49 8 -79 25c-25 14 -44 21 -58 21c-29 0 -43 -18 -43 -55h-46z" />
    <glyph glyph-name="Ograve" unicode="&#xd2;" horiz-adv-x="753" 
d="M374 -12c-99 0 -179 33 -239 98s-89 151 -89 256c0 113 30 202 91 269s144 101 249 101c97 0 174 -33 233 -98s89 -150 89 -255c0 -114 -30 -205 -91 -271s-141 -100 -243 -100zM622 348c0 170 -79 290 -242 290c-74 0 -133 -27 -179 -80s-69 -123 -69 -209
s22 -155 67 -208s103 -79 175 -79c163 0 248 117 248 286zM430 765h-62l-128 160h82z" />
    <glyph glyph-name="Oacute" unicode="&#xd3;" horiz-adv-x="753" 
d="M374 -12c-99 0 -179 33 -239 98s-89 151 -89 256c0 113 30 202 91 269s144 101 249 101c97 0 174 -33 233 -98s89 -150 89 -255c0 -114 -30 -205 -91 -271s-141 -100 -243 -100zM622 348c0 170 -79 290 -242 290c-74 0 -133 -27 -179 -80s-69 -123 -69 -209
s22 -155 67 -208s103 -79 175 -79c163 0 248 117 248 286zM502 925l-128 -160h-62l109 160h81z" />
    <glyph glyph-name="Ocircumflex" unicode="&#xd4;" horiz-adv-x="753" 
d="M374 -12c-99 0 -179 33 -239 98s-89 151 -89 256c0 113 30 202 91 269s144 101 249 101c97 0 174 -33 233 -98s89 -150 89 -255c0 -114 -30 -205 -91 -271s-141 -100 -243 -100zM622 348c0 170 -79 290 -242 290c-74 0 -133 -27 -179 -80s-69 -123 -69 -209
s22 -155 67 -208s103 -79 175 -79c163 0 248 117 248 286zM519 765h-59l-80 112l-81 -112h-55l105 162h65z" />
    <glyph glyph-name="Otilde" unicode="&#xd5;" horiz-adv-x="753" 
d="M374 -12c-99 0 -179 33 -239 98s-89 151 -89 256c0 113 30 202 91 269s144 101 249 101c97 0 174 -33 233 -98s89 -150 89 -255c0 -114 -30 -205 -91 -271s-141 -100 -243 -100zM622 348c0 170 -79 290 -242 290c-74 0 -133 -27 -179 -80s-69 -123 -69 -209
s22 -155 67 -208s103 -79 175 -79c163 0 248 117 248 286zM225 755c0 63 28 115 89 115c21 0 46 -8 73 -25c24 -14 44 -22 62 -22c27 0 41 19 41 57h48c0 -61 -29 -116 -87 -116c-23 0 -49 8 -79 25c-25 14 -44 21 -58 21c-29 0 -43 -18 -43 -55h-46z" />
    <glyph glyph-name="Odieresis" unicode="&#xd6;" horiz-adv-x="753" 
d="M374 -12c-99 0 -179 33 -239 98s-89 151 -89 256c0 113 30 202 91 269s144 101 249 101c97 0 174 -33 233 -98s89 -150 89 -255c0 -114 -30 -205 -91 -271s-141 -100 -243 -100zM622 348c0 170 -79 290 -242 290c-74 0 -133 -27 -179 -80s-69 -123 -69 -209
s22 -155 67 -208s103 -79 175 -79c163 0 248 117 248 286zM521 811c0 -27 -21 -48 -48 -48s-48 21 -48 48s21 48 47 48c27 0 49 -21 49 -48zM333 811c0 -26 -22 -48 -48 -48c-27 0 -49 22 -49 48c0 27 21 48 48 48c26 0 49 -22 49 -48z" />
    <glyph glyph-name="multiply" unicode="&#xd7;" horiz-adv-x="684" 
d="M554 126l-46 -46l-166 166l-165 -166l-46 46l166 165l-166 166l46 46l165 -166l166 166l46 -46l-166 -166z" />
    <glyph glyph-name="Oslash" unicode="&#xd8;" horiz-adv-x="753" 
d="M386 712c76 0 141 -21 196 -63l66 79l38 -31l-68 -81c60 -65 90 -151 90 -257c0 -114 -30 -205 -91 -271s-141 -100 -243 -100c-87 0 -159 26 -216 76l-74 -89l-38 32l77 93c-51 63 -77 144 -77 242c0 112 30 201 91 269s144 101 249 101zM380 638
c-74 0 -134 -27 -180 -80s-68 -123 -68 -209c0 -73 16 -133 48 -182l352 421c-41 33 -91 50 -152 50zM374 62c163 0 248 118 248 286c0 85 -19 153 -57 204l-354 -423c43 -45 97 -67 163 -67z" />
    <glyph glyph-name="Ugrave" unicode="&#xd9;" horiz-adv-x="687" 
d="M604 283c0 -197 -89 -295 -266 -295c-170 0 -255 95 -255 284v428h82v-423c0 -144 61 -215 182 -215c117 0 175 69 175 208v430h82v-417zM405 765h-62l-128 160h82z" />
    <glyph glyph-name="Uacute" unicode="&#xda;" horiz-adv-x="687" 
d="M604 283c0 -197 -89 -295 -266 -295c-170 0 -255 95 -255 284v428h82v-423c0 -144 61 -215 182 -215c117 0 175 69 175 208v430h82v-417zM469 924l-128 -160h-62l109 160h81z" />
    <glyph glyph-name="Ucircumflex" unicode="&#xdb;" horiz-adv-x="687" 
d="M604 283c0 -197 -89 -295 -266 -295c-170 0 -255 95 -255 284v428h82v-423c0 -144 61 -215 182 -215c117 0 175 69 175 208v430h82v-417zM482 765h-59l-80 112l-81 -112h-55l105 162h65z" />
    <glyph glyph-name="Udieresis" unicode="&#xdc;" horiz-adv-x="687" 
d="M604 283c0 -197 -89 -295 -266 -295c-170 0 -255 95 -255 284v428h82v-423c0 -144 61 -215 182 -215c117 0 175 69 175 208v430h82v-417zM485 813c0 -27 -21 -48 -48 -48s-48 21 -48 48s21 48 47 48c27 0 49 -21 49 -48zM297 813c0 -26 -22 -48 -48 -48
c-27 0 -49 22 -49 48c0 27 21 48 48 48c26 0 49 -22 49 -48z" />
    <glyph glyph-name="Yacute" unicode="&#xdd;" horiz-adv-x="552" 
d="M316 0h-82v257l-225 443h93l157 -316c2 -4 8 -18 17 -43h1c3 11 10 25 19 43l164 316h87l-231 -441v-259zM406 925l-128 -160h-62l109 160h81z" />
    <glyph glyph-name="Thorn" unicode="&#xde;" horiz-adv-x="560" 
d="M284 590c144 0 236 -69 236 -209c0 -66 -23 -121 -69 -163s-108 -63 -186 -63h-91v-155h-82v700h82v-110h110zM260 229c105 0 174 46 174 147c0 93 -55 140 -164 140h-96v-287h86z" />
    <glyph glyph-name="germandbls" unicode="&#xdf;" horiz-adv-x="543" 
d="M457 582c0 -90 -61 -157 -132 -180v-2c123 -24 185 -94 185 -208c0 -58 -18 -106 -54 -145s-84 -59 -144 -59c-33 0 -62 5 -87 13v78c24 -16 52 -23 83 -23c74 0 120 56 120 132c0 108 -82 162 -185 174v64c70 12 132 67 132 146c0 67 -35 111 -101 111
c-75 0 -113 -50 -113 -151v-532h-80v544c0 123 76 207 198 207c105 0 178 -65 178 -169z" />
    <glyph glyph-name="agrave" unicode="&#xe0;" horiz-adv-x="508" 
d="M203 -12c-94 0 -159 53 -159 145c0 93 55 148 165 163l150 21c0 85 -34 127 -103 127c-60 0 -114 -20 -163 -61v82c49 31 106 47 170 47c118 0 176 -63 176 -187v-325h-80v78h-2c-35 -60 -86 -90 -154 -90zM222 56c81 0 137 65 137 147v50l-121 -17
c-37 -5 -65 -14 -84 -27s-28 -36 -28 -70c0 -52 42 -83 96 -83zM329 595h-62l-128 160h82z" />
    <glyph glyph-name="aacute" unicode="&#xe1;" horiz-adv-x="508" 
d="M203 -12c-94 0 -159 53 -159 145c0 93 55 148 165 163l150 21c0 85 -34 127 -103 127c-60 0 -114 -20 -163 -61v82c49 31 106 47 170 47c118 0 176 -63 176 -187v-325h-80v78h-2c-35 -60 -86 -90 -154 -90zM222 56c81 0 137 65 137 147v50l-121 -17
c-37 -5 -65 -14 -84 -27s-28 -36 -28 -70c0 -52 42 -83 96 -83zM370 755l-128 -160h-62l109 160h81z" />
    <glyph glyph-name="acircumflex" unicode="&#xe2;" horiz-adv-x="508" 
d="M203 -12c-94 0 -159 53 -159 145c0 93 55 148 165 163l150 21c0 85 -34 127 -103 127c-60 0 -114 -20 -163 -61v82c49 31 106 47 170 47c118 0 176 -63 176 -187v-325h-80v78h-2c-35 -60 -86 -90 -154 -90zM222 56c81 0 137 65 137 147v50l-121 -17
c-37 -5 -65 -14 -84 -27s-28 -36 -28 -70c0 -52 42 -83 96 -83zM393 595h-59l-80 112l-81 -112h-55l105 162h65z" />
    <glyph glyph-name="atilde" unicode="&#xe3;" horiz-adv-x="508" 
d="M203 -12c-94 0 -159 53 -159 145c0 93 55 148 165 163l150 21c0 85 -34 127 -103 127c-60 0 -114 -20 -163 -61v82c49 31 106 47 170 47c118 0 176 -63 176 -187v-325h-80v78h-2c-35 -60 -86 -90 -154 -90zM222 56c81 0 137 65 137 147v50l-121 -17
c-37 -5 -65 -14 -84 -27s-28 -36 -28 -70c0 -52 42 -83 96 -83zM99 587c0 63 28 115 89 115c21 0 46 -8 73 -25c24 -14 44 -22 62 -22c27 0 41 19 41 57h48c0 -61 -29 -116 -87 -116c-23 0 -49 8 -79 25c-25 14 -44 21 -58 21c-29 0 -43 -18 -43 -55h-46z" />
    <glyph glyph-name="adieresis" unicode="&#xe4;" horiz-adv-x="508" 
d="M203 -12c-94 0 -159 53 -159 145c0 93 55 148 165 163l150 21c0 85 -34 127 -103 127c-60 0 -114 -20 -163 -61v82c49 31 106 47 170 47c118 0 176 -63 176 -187v-325h-80v78h-2c-35 -60 -86 -90 -154 -90zM222 56c81 0 137 65 137 147v50l-121 -17
c-37 -5 -65 -14 -84 -27s-28 -36 -28 -70c0 -52 42 -83 96 -83zM394 643c0 -27 -21 -48 -48 -48s-48 21 -48 48s21 48 47 48c27 0 49 -21 49 -48zM206 643c0 -26 -22 -48 -48 -48c-27 0 -49 22 -49 48c0 27 21 48 48 48c26 0 49 -22 49 -48z" />
    <glyph glyph-name="aring" unicode="&#xe5;" horiz-adv-x="508" 
d="M203 -12c-94 0 -159 53 -159 145c0 93 55 148 165 163l150 21c0 85 -34 127 -103 127c-60 0 -114 -20 -163 -61v82c49 31 106 47 170 47c118 0 176 -63 176 -187v-325h-80v78h-2c-35 -60 -86 -90 -154 -90zM222 56c81 0 137 65 137 147v50l-121 -17
c-37 -5 -65 -14 -84 -27s-28 -36 -28 -70c0 -52 42 -83 96 -83zM355 670c0 -55 -46 -96 -102 -96s-99 37 -99 93c0 59 43 97 102 97c56 0 99 -38 99 -94zM309 669c0 32 -24 55 -56 55c-31 0 -55 -24 -55 -55c0 -36 19 -55 55 -55c32 0 56 23 56 55z" />
    <glyph glyph-name="ae" unicode="&#xe6;" horiz-adv-x="832" 
d="M585 512c138 0 207 -98 207 -241v-41h-354c2 -106 58 -174 162 -174c58 0 110 18 157 55v-75c-43 -32 -101 -48 -175 -48c-88 0 -150 37 -187 112h-2c-47 -75 -110 -112 -189 -112c-95 0 -160 53 -160 145c0 98 62 150 187 158l128 8c0 97 -35 145 -105 145
c-57 0 -111 -19 -161 -59v80c48 31 105 47 170 47c76 0 124 -33 146 -98h2c38 65 96 98 174 98zM710 298c-1 86 -40 146 -124 146s-136 -68 -147 -146h271zM221 56c79 0 138 64 138 144v31l-99 -6c-45 -3 -80 -11 -102 -24s-33 -35 -33 -66c0 -51 42 -79 96 -79z" />
    <glyph glyph-name="ccedilla" unicode="&#xe7;" horiz-adv-x="461" 
d="M129 245c0 -111 62 -189 170 -189c44 0 85 14 123 43v-76c-38 -23 -84 -35 -137 -35c-71 0 -128 24 -172 70s-66 106 -66 180c0 161 100 274 260 274c44 0 82 -9 116 -25v-82c-37 26 -77 39 -119 39c-51 0 -93 -18 -126 -55s-49 -84 -49 -144zM287 -51
c53 0 93 -24 93 -74c0 -57 -44 -86 -134 -86c-12 0 -23 0 -32 1v44c14 -2 25 -3 34 -3c46 0 69 15 69 44c0 25 -21 38 -63 38c-3 0 -10 -1 -20 -2v89h53v-51z" />
    <glyph glyph-name="egrave" unicode="&#xe8;" horiz-adv-x="522" 
d="M277 512c138 0 206 -98 206 -240v-42h-353c2 -106 58 -174 163 -174c56 0 108 18 155 55v-75c-44 -32 -102 -48 -174 -48c-149 0 -227 105 -227 260c0 78 22 141 66 190s99 74 164 74zM401 298c-1 86 -42 146 -125 146s-134 -69 -145 -146h270zM354 595h-62l-128 160h82z
" />
    <glyph glyph-name="eacute" unicode="&#xe9;" horiz-adv-x="522" 
d="M277 512c138 0 206 -98 206 -240v-42h-353c2 -106 58 -174 163 -174c56 0 108 18 155 55v-75c-44 -32 -102 -48 -174 -48c-149 0 -227 105 -227 260c0 78 22 141 66 190s99 74 164 74zM401 298c-1 86 -42 146 -125 146s-134 -69 -145 -146h270zM388 755l-128 -160h-62
l109 160h81z" />
    <glyph glyph-name="ecircumflex" unicode="&#xea;" horiz-adv-x="522" 
d="M277 512c138 0 206 -98 206 -240v-42h-353c2 -106 58 -174 163 -174c56 0 108 18 155 55v-75c-44 -32 -102 -48 -174 -48c-149 0 -227 105 -227 260c0 78 22 141 66 190s99 74 164 74zM401 298c-1 86 -42 146 -125 146s-134 -69 -145 -146h270zM410 595h-59l-80 112
l-81 -112h-55l105 162h65z" />
    <glyph glyph-name="edieresis" unicode="&#xeb;" horiz-adv-x="522" 
d="M277 512c138 0 206 -98 206 -240v-42h-353c2 -106 58 -174 163 -174c56 0 108 18 155 55v-75c-44 -32 -102 -48 -174 -48c-149 0 -227 105 -227 260c0 78 22 141 66 190s99 74 164 74zM401 298c-1 86 -42 146 -125 146s-134 -69 -145 -146h270zM412 643
c0 -27 -21 -48 -48 -48s-48 21 -48 48s21 48 47 48c27 0 49 -21 49 -48zM224 643c0 -26 -22 -48 -48 -48c-27 0 -49 22 -49 48c0 27 21 48 48 48c26 0 49 -22 49 -48z" />
    <glyph glyph-name="igrave" unicode="&#xec;" horiz-adv-x="242" 
d="M161 0h-80v500h80v-500zM180 595h-62l-128 160h82z" />
    <glyph glyph-name="iacute" unicode="&#xed;" horiz-adv-x="242" 
d="M161 0h-80v500h80v-500zM233 755l-128 -160h-62l109 160h81z" />
    <glyph glyph-name="icircumflex" unicode="&#xee;" horiz-adv-x="242" 
d="M161 0h-80v500h80v-500zM253 595h-59l-80 112l-81 -112h-55l105 162h65z" />
    <glyph glyph-name="idieresis" unicode="&#xef;" horiz-adv-x="242" 
d="M161 0h-80v500h80v-500zM258 643c0 -27 -21 -48 -48 -48s-48 21 -48 48s21 48 47 48c27 0 49 -21 49 -48zM70 643c0 -26 -22 -48 -48 -48c-27 0 -49 22 -49 48c0 27 21 48 48 48c26 0 49 -22 49 -48z" />
    <glyph glyph-name="eth" unicode="&#xf0;" horiz-adv-x="559" 
d="M277 -11c-149 0 -230 103 -230 255c0 79 21 144 63 193s99 74 171 74c40 0 75 -13 103 -38l2 1c-29 53 -62 96 -97 130l-146 -74l-25 48l132 64c-38 34 -81 67 -129 98h108c24 -17 52 -39 84 -66l141 70l27 -46l-129 -63c106 -100 160 -226 160 -378
c0 -78 -21 -143 -63 -193s-100 -75 -172 -75zM282 56c99 0 148 88 148 193c0 130 -49 195 -146 195c-105 0 -155 -87 -155 -197c0 -108 49 -191 153 -191z" />
    <glyph glyph-name="ntilde" unicode="&#xf1;" horiz-adv-x="565" 
d="M327 512c118 0 169 -83 169 -206v-306h-80v285c0 106 -39 159 -116 159c-84 0 -139 -73 -139 -159v-285h-80v500h80v-83h2c38 63 92 95 164 95zM130 587c0 63 28 115 89 115c21 0 46 -8 73 -25c24 -14 44 -22 62 -22c27 0 41 19 41 57h48c0 -61 -29 -116 -87 -116
c-23 0 -49 8 -79 25c-25 14 -44 21 -58 21c-29 0 -43 -18 -43 -55h-46z" />
    <glyph glyph-name="ograve" unicode="&#xf2;" horiz-adv-x="585" 
d="M539 252c0 -156 -95 -264 -249 -264c-150 0 -243 105 -243 256c0 163 95 268 255 268c154 0 237 -103 237 -260zM457 249c0 116 -50 195 -161 195c-110 0 -167 -83 -167 -197c0 -111 60 -191 167 -191c110 0 161 78 161 193zM365 595h-62l-128 160h82z" />
    <glyph glyph-name="oacute" unicode="&#xf3;" horiz-adv-x="585" 
d="M539 252c0 -156 -95 -264 -249 -264c-150 0 -243 105 -243 256c0 163 95 268 255 268c154 0 237 -103 237 -260zM457 249c0 116 -50 195 -161 195c-110 0 -167 -83 -167 -197c0 -111 60 -191 167 -191c110 0 161 78 161 193zM413 755l-128 -160h-62l109 160h81z" />
    <glyph glyph-name="ocircumflex" unicode="&#xf4;" horiz-adv-x="585" 
d="M539 252c0 -156 -95 -264 -249 -264c-150 0 -243 105 -243 256c0 163 95 268 255 268c154 0 237 -103 237 -260zM457 249c0 116 -50 195 -161 195c-110 0 -167 -83 -167 -197c0 -111 60 -191 167 -191c110 0 161 78 161 193zM432 595h-59l-80 112l-81 -112h-55l105 162
h65z" />
    <glyph glyph-name="otilde" unicode="&#xf5;" horiz-adv-x="585" 
d="M539 252c0 -156 -95 -264 -249 -264c-150 0 -243 105 -243 256c0 163 95 268 255 268c154 0 237 -103 237 -260zM457 249c0 116 -50 195 -161 195c-110 0 -167 -83 -167 -197c0 -111 60 -191 167 -191c110 0 161 78 161 193zM142 587c0 63 28 115 89 115
c21 0 46 -8 73 -25c24 -14 44 -22 62 -22c27 0 41 19 41 57h48c0 -61 -29 -116 -87 -116c-23 0 -49 8 -79 25c-25 14 -44 21 -58 21c-29 0 -43 -18 -43 -55h-46z" />
    <glyph glyph-name="odieresis" unicode="&#xf6;" horiz-adv-x="585" 
d="M539 252c0 -156 -95 -264 -249 -264c-150 0 -243 105 -243 256c0 163 95 268 255 268c154 0 237 -103 237 -260zM457 249c0 116 -50 195 -161 195c-110 0 -167 -83 -167 -197c0 -111 60 -191 167 -191c110 0 161 78 161 193zM435 643c0 -27 -21 -48 -48 -48
s-48 21 -48 48s21 48 47 48c27 0 49 -21 49 -48zM247 643c0 -26 -22 -48 -48 -48c-27 0 -49 22 -49 48c0 27 21 48 48 48c26 0 49 -22 49 -48z" />
    <glyph glyph-name="divide" unicode="&#xf7;" horiz-adv-x="684" 
d="M396 476c0 -29 -22 -52 -50 -52s-51 23 -51 51c0 29 21 53 51 53c34 0 50 -17 50 -52zM572 259h-459v65h459v-65zM393 106c0 -29 -21 -51 -49 -51s-52 22 -52 50c0 29 22 54 52 54c33 0 49 -18 49 -53z" />
    <glyph glyph-name="oslash" unicode="&#xf8;" horiz-adv-x="585" 
d="M539 255c0 -82 -23 -147 -68 -195s-105 -72 -181 -72c-62 0 -114 17 -155 50l-71 -78l-40 38l73 80c-33 45 -50 100 -50 166c0 84 23 150 69 197s109 71 187 71c60 0 110 -16 150 -48l79 86l41 -38l-82 -88c32 -45 48 -101 48 -169zM296 444c-110 0 -167 -83 -167 -197
c0 -43 8 -79 24 -109l248 270c-26 24 -61 36 -105 36zM295 56c112 0 163 78 163 194c0 44 -8 81 -23 112l-248 -269c28 -25 64 -37 108 -37z" />
    <glyph glyph-name="ugrave" unicode="&#xf9;" horiz-adv-x="565" 
d="M271 56c83 0 134 70 134 156v288h80v-500h-80v79h-2c-33 -61 -84 -91 -154 -91c-119 0 -179 71 -179 213v299h80v-286c0 -105 40 -158 121 -158zM344 595h-62l-128 160h82z" />
    <glyph glyph-name="uacute" unicode="&#xfa;" horiz-adv-x="565" 
d="M271 56c83 0 134 70 134 156v288h80v-500h-80v79h-2c-33 -61 -84 -91 -154 -91c-119 0 -179 71 -179 213v299h80v-286c0 -105 40 -158 121 -158zM410 755l-128 -160h-62l109 160h81z" />
    <glyph glyph-name="ucircumflex" unicode="&#xfb;" horiz-adv-x="565" 
d="M271 56c83 0 134 70 134 156v288h80v-500h-80v79h-2c-33 -61 -84 -91 -154 -91c-119 0 -179 71 -179 213v299h80v-286c0 -105 40 -158 121 -158zM417 595h-59l-80 112l-81 -112h-55l105 162h65z" />
    <glyph glyph-name="udieresis" unicode="&#xfc;" horiz-adv-x="565" 
d="M271 56c83 0 134 70 134 156v288h80v-500h-80v79h-2c-33 -61 -84 -91 -154 -91c-119 0 -179 71 -179 213v299h80v-286c0 -105 40 -158 121 -158zM424 643c0 -27 -21 -48 -48 -48s-48 21 -48 48s21 48 47 48c27 0 49 -21 49 -48zM236 643c0 -26 -22 -48 -48 -48
c-27 0 -49 22 -49 48c0 27 21 48 48 48c26 0 49 -22 49 -48z" />
    <glyph glyph-name="yacute" unicode="&#xfd;" horiz-adv-x="483" 
d="M76 -235c-21 0 -38 2 -52 6v72c17 -6 33 -9 47 -9c40 0 71 24 91 72l40 95l-195 499h89l135 -385c2 -5 5 -17 10 -38h3c2 8 5 20 10 37l142 386h83l-230 -580c-41 -104 -99 -155 -173 -155zM372 755l-128 -160h-62l109 160h81z" />
    <glyph glyph-name="thorn" unicode="&#xfe;" horiz-adv-x="587" 
d="M541 265c0 -156 -78 -277 -228 -277c-65 0 -115 28 -150 84h-2v-302h-80v970h80v-328h2c39 66 97 100 173 100c136 0 205 -106 205 -247zM316 444c-94 0 -155 -75 -155 -170v-70c0 -41 13 -76 40 -105s62 -43 103 -43c109 0 155 94 155 210c0 101 -47 178 -143 178z" />
    <glyph glyph-name="ydieresis" unicode="&#xff;" horiz-adv-x="483" 
d="M76 -235c-21 0 -38 2 -52 6v72c17 -6 33 -9 47 -9c40 0 71 24 91 72l40 95l-195 499h89l135 -385c2 -5 5 -17 10 -38h3c2 8 5 20 10 37l142 386h83l-230 -580c-41 -104 -99 -155 -173 -155zM385 643c0 -27 -21 -48 -48 -48s-48 21 -48 48s21 48 47 48c27 0 49 -21 49 -48
zM197 643c0 -26 -22 -48 -48 -48c-27 0 -49 22 -49 48c0 27 21 48 48 48c26 0 49 -22 49 -48z" />
    <glyph glyph-name="Amacron" unicode="&#x100;" horiz-adv-x="645" 
d="M634 0h-91l-74 196h-297l-70 -196h-91l268 700h85zM442 270l-110 298c-4 10 -7 26 -11 47h-2c-3 -20 -7 -36 -11 -47l-109 -298h243zM445 765h-248v53h248v-53z" />
    <glyph glyph-name="amacron" unicode="&#x101;" horiz-adv-x="508" 
d="M203 -12c-94 0 -159 53 -159 145c0 93 55 148 165 163l150 21c0 85 -34 127 -103 127c-60 0 -114 -20 -163 -61v82c49 31 106 47 170 47c118 0 176 -63 176 -187v-325h-80v78h-2c-35 -60 -86 -90 -154 -90zM222 56c81 0 137 65 137 147v50l-121 -17
c-37 -5 -65 -14 -84 -27s-28 -36 -28 -70c0 -52 42 -83 96 -83zM390 595h-248v53h248v-53z" />
    <glyph glyph-name="Abreve" unicode="&#x102;" horiz-adv-x="645" 
d="M634 0h-91l-74 196h-297l-70 -196h-91l268 700h85zM442 270l-110 298c-4 10 -7 26 -11 47h-2c-3 -20 -7 -36 -11 -47l-109 -298h243zM455 888c-6 -70 -61 -123 -136 -123c-76 0 -129 50 -132 123h49c4 -50 32 -76 84 -76c47 0 79 33 85 76h50z" />
    <glyph glyph-name="abreve" unicode="&#x103;" horiz-adv-x="508" 
d="M203 -12c-94 0 -159 53 -159 145c0 93 55 148 165 163l150 21c0 85 -34 127 -103 127c-60 0 -114 -20 -163 -61v82c49 31 106 47 170 47c118 0 176 -63 176 -187v-325h-80v78h-2c-35 -60 -86 -90 -154 -90zM222 56c81 0 137 65 137 147v50l-121 -17
c-37 -5 -65 -14 -84 -27s-28 -36 -28 -70c0 -52 42 -83 96 -83zM393 718c-6 -70 -61 -123 -136 -123c-76 0 -129 50 -132 123h49c4 -50 32 -76 84 -76c47 0 79 33 85 76h50z" />
    <glyph glyph-name="Aogonek" unicode="&#x104;" horiz-adv-x="645" 
d="M634 0h-91l-74 196h-297l-70 -196h-91l268 700h85zM442 270l-110 298c-4 10 -7 26 -11 47h-2c-3 -20 -7 -36 -11 -47l-109 -298h243zM546 -195c-48 0 -82 26 -82 73c0 40 26 80 77 122h58c-49 -46 -73 -82 -73 -109c0 -23 11 -34 33 -34c10 0 19 2 27 6v-52
c-10 -4 -23 -6 -40 -6z" />
    <glyph glyph-name="aogonek" unicode="&#x105;" horiz-adv-x="508" 
d="M203 -12c-94 0 -159 53 -159 145c0 93 55 148 165 163l150 21c0 85 -34 127 -103 127c-60 0 -114 -20 -163 -61v82c49 31 106 47 170 47c118 0 176 -63 176 -187v-325h-80v78h-2c-35 -60 -86 -90 -154 -90zM222 56c81 0 137 65 137 147v50l-121 -17
c-37 -5 -65 -14 -84 -27s-28 -36 -28 -70c0 -52 42 -83 96 -83zM362 -195c-48 0 -82 26 -82 73c0 40 26 80 77 122h58c-49 -46 -73 -82 -73 -109c0 -23 11 -34 33 -34c10 0 19 2 27 6v-52c-10 -4 -23 -6 -40 -6z" />
    <glyph glyph-name="Cacute" unicode="&#x106;" horiz-adv-x="619" 
d="M375 -12c-100 0 -179 32 -239 96s-90 149 -90 253c0 112 34 202 101 271s152 104 256 104c66 0 121 -10 165 -29v-87c-50 28 -105 42 -166 42c-80 0 -145 -27 -195 -81s-75 -125 -75 -215c0 -85 23 -153 70 -204s108 -76 184 -76c70 0 131 16 182 47v-80
c-52 -27 -116 -41 -193 -41zM485 925l-128 -160h-62l109 160h81z" />
    <glyph glyph-name="cacute" unicode="&#x107;" horiz-adv-x="461" 
d="M129 245c0 -111 62 -189 170 -189c44 0 85 14 123 43v-76c-38 -23 -84 -35 -137 -35c-71 0 -128 24 -172 70s-66 106 -66 180c0 161 100 274 260 274c44 0 82 -9 116 -25v-82c-37 26 -77 39 -119 39c-51 0 -93 -18 -126 -55s-49 -84 -49 -144zM398 755l-128 -160h-62
l109 160h81z" />
    <glyph glyph-name="Ccircumflex" unicode="&#x108;" horiz-adv-x="619" 
d="M375 -12c-100 0 -179 32 -239 96s-90 149 -90 253c0 112 34 202 101 271s152 104 256 104c66 0 121 -10 165 -29v-87c-50 28 -105 42 -166 42c-80 0 -145 -27 -195 -81s-75 -125 -75 -215c0 -85 23 -153 70 -204s108 -76 184 -76c70 0 131 16 182 47v-80
c-52 -27 -116 -41 -193 -41zM511 766h-59l-80 112l-81 -112h-55l105 162h65z" />
    <glyph glyph-name="ccircumflex" unicode="&#x109;" horiz-adv-x="461" 
d="M129 245c0 -111 62 -189 170 -189c44 0 85 14 123 43v-76c-38 -23 -84 -35 -137 -35c-71 0 -128 24 -172 70s-66 106 -66 180c0 161 100 274 260 274c44 0 82 -9 116 -25v-82c-37 26 -77 39 -119 39c-51 0 -93 -18 -126 -55s-49 -84 -49 -144zM410 595h-59l-80 112
l-81 -112h-55l105 162h65z" />
    <glyph glyph-name="Cdotaccent" unicode="&#x10a;" horiz-adv-x="619" 
d="M375 -12c-100 0 -179 32 -239 96s-90 149 -90 253c0 112 34 202 101 271s152 104 256 104c66 0 121 -10 165 -29v-87c-50 28 -105 42 -166 42c-80 0 -145 -27 -195 -81s-75 -125 -75 -215c0 -85 23 -153 70 -204s108 -76 184 -76c70 0 131 16 182 47v-80
c-52 -27 -116 -41 -193 -41zM423 813c0 -26 -22 -48 -48 -48s-48 21 -48 48c0 26 22 47 48 47s48 -20 48 -47z" />
    <glyph glyph-name="cdotaccent" unicode="&#x10b;" horiz-adv-x="461" 
d="M129 245c0 -111 62 -189 170 -189c44 0 85 14 123 43v-76c-38 -23 -84 -35 -137 -35c-71 0 -128 24 -172 70s-66 106 -66 180c0 161 100 274 260 274c44 0 82 -9 116 -25v-82c-37 26 -77 39 -119 39c-51 0 -93 -18 -126 -55s-49 -84 -49 -144zM338 643
c0 -26 -22 -48 -48 -48s-48 21 -48 48c0 26 22 47 48 47s48 -20 48 -47z" />
    <glyph glyph-name="Ccaron" unicode="&#x10c;" horiz-adv-x="619" 
d="M375 -12c-100 0 -179 32 -239 96s-90 149 -90 253c0 112 34 202 101 271s152 104 256 104c66 0 121 -10 165 -29v-87c-50 28 -105 42 -166 42c-80 0 -145 -27 -195 -81s-75 -125 -75 -215c0 -85 23 -153 70 -204s108 -76 184 -76c70 0 131 16 182 47v-80
c-52 -27 -116 -41 -193 -41zM514 926l-104 -161h-65l-105 161h56l80 -112l80 112h58z" />
    <glyph glyph-name="ccaron" unicode="&#x10d;" horiz-adv-x="461" 
d="M129 245c0 -111 62 -189 170 -189c44 0 85 14 123 43v-76c-38 -23 -84 -35 -137 -35c-71 0 -128 24 -172 70s-66 106 -66 180c0 161 100 274 260 274c44 0 82 -9 116 -25v-82c-37 26 -77 39 -119 39c-51 0 -93 -18 -126 -55s-49 -84 -49 -144zM419 756l-104 -161h-65
l-105 161h56l80 -112l80 112h58z" />
    <glyph glyph-name="Dcaron" unicode="&#x10e;" horiz-adv-x="701" 
d="M92 0v700h193c247 0 370 -113 370 -341c0 -108 -34 -195 -103 -261s-160 -98 -275 -98h-185zM278 74c182 0 291 102 291 283c0 179 -95 269 -286 269h-109v-552h104zM470 926l-104 -161h-65l-105 161h56l80 -112l80 112h58z" />
    <glyph glyph-name="dcaron" unicode="&#x10f;" horiz-adv-x="674" 
d="M254 -12c-135 0 -207 108 -207 250c0 83 20 149 62 199s98 75 167 75s119 -27 150 -81h2v309h80v-740h-80v85h-2c-37 -64 -95 -97 -172 -97zM277 56c92 0 151 76 151 170v74c0 40 -13 74 -40 102s-61 42 -102 42c-107 0 -157 -88 -157 -202c0 -104 49 -186 148 -186z
M712 740l-81 -127h-60l57 127h84z" />
    <glyph glyph-name="Dcroat" unicode="&#x110;" horiz-adv-x="701" 
d="M92 0v313h-78v76h78v311h193c247 0 370 -113 370 -341c0 -109 -34 -196 -103 -261s-160 -98 -275 -98h-185zM278 74c182 0 291 102 291 283c0 179 -95 269 -286 269h-109v-237h164v-76h-164v-239h104z" />
    <glyph glyph-name="dcroat" unicode="&#x111;" horiz-adv-x="588" 
d="M254 -12c-135 0 -207 108 -207 250c0 83 20 149 62 199s98 75 167 75c68 0 118 -27 150 -81h2v156h-162v65h162v88h80v-88h66v-65h-66v-587h-80v85h-2c-37 -64 -95 -97 -172 -97zM277 56c92 0 151 76 151 170v74c0 40 -13 74 -40 102s-61 42 -102 42
c-107 0 -157 -88 -157 -202c0 -104 49 -186 148 -186z" />
    <glyph glyph-name="Emacron" unicode="&#x112;" horiz-adv-x="505" 
d="M463 0h-371v700h355v-74h-273v-233h253v-74h-253v-245h289v-74zM402 765h-248v53h248v-53z" />
    <glyph glyph-name="emacron" unicode="&#x113;" horiz-adv-x="522" 
d="M277 512c138 0 206 -98 206 -240v-42h-353c2 -106 58 -174 163 -174c56 0 108 18 155 55v-75c-44 -32 -102 -48 -174 -48c-149 0 -227 105 -227 260c0 78 22 141 66 190s99 74 164 74zM401 298c-1 86 -42 146 -125 146s-134 -69 -145 -146h270zM400 595h-248v53h248v-53z
" />
    <glyph glyph-name="Ebreve" unicode="&#x114;" horiz-adv-x="505" 
d="M463 0h-371v700h355v-74h-273v-233h253v-74h-253v-245h289v-74zM405 889c-6 -70 -61 -123 -136 -123c-76 0 -129 50 -132 123h49c4 -50 32 -76 84 -76c47 0 79 33 85 76h50z" />
    <glyph glyph-name="ebreve" unicode="&#x115;" horiz-adv-x="522" 
d="M277 512c138 0 206 -98 206 -240v-42h-353c2 -106 58 -174 163 -174c56 0 108 18 155 55v-75c-44 -32 -102 -48 -174 -48c-149 0 -227 105 -227 260c0 78 22 141 66 190s99 74 164 74zM401 298c-1 86 -42 146 -125 146s-134 -69 -145 -146h270zM406 718
c-6 -70 -61 -123 -136 -123c-76 0 -129 50 -132 123h49c4 -50 32 -76 84 -76c47 0 79 33 85 76h50z" />
    <glyph glyph-name="Edotaccent" unicode="&#x116;" horiz-adv-x="505" 
d="M463 0h-371v700h355v-74h-273v-233h253v-74h-253v-245h289v-74zM316 813c0 -26 -22 -48 -48 -48s-48 21 -48 48c0 26 22 47 48 47s48 -20 48 -47z" />
    <glyph glyph-name="edotaccent" unicode="&#x117;" horiz-adv-x="522" 
d="M277 512c138 0 206 -98 206 -240v-42h-353c2 -106 58 -174 163 -174c56 0 108 18 155 55v-75c-44 -32 -102 -48 -174 -48c-149 0 -227 105 -227 260c0 78 22 141 66 190s99 74 164 74zM401 298c-1 86 -42 146 -125 146s-134 -69 -145 -146h270zM329 643
c0 -26 -22 -48 -48 -48s-48 21 -48 48c0 26 22 47 48 47s48 -20 48 -47z" />
    <glyph glyph-name="Eogonek" unicode="&#x118;" horiz-adv-x="505" 
d="M463 0h-371v700h355v-74h-273v-233h253v-74h-253v-245h289v-74zM369 -195c-48 0 -82 26 -82 73c0 40 26 80 77 122h58c-49 -46 -73 -82 -73 -109c0 -23 11 -34 33 -34c10 0 19 2 27 6v-52c-10 -4 -23 -6 -40 -6z" />
    <glyph glyph-name="eogonek" unicode="&#x119;" horiz-adv-x="522" 
d="M277 512c138 0 206 -98 206 -240v-42h-353c2 -106 58 -174 163 -174c56 0 108 18 155 55v-75c-44 -32 -102 -48 -174 -48c-149 0 -227 105 -227 260c0 78 22 141 66 190s99 74 164 74zM401 298c-1 86 -42 146 -125 146s-134 -69 -145 -146h270zM316 -195
c-48 0 -82 26 -82 73c0 40 26 80 77 122h58c-49 -46 -73 -82 -73 -109c0 -23 11 -34 33 -34c10 0 19 2 27 6v-52c-10 -4 -23 -6 -40 -6z" />
    <glyph glyph-name="Ecaron" unicode="&#x11a;" horiz-adv-x="505" 
d="M463 0h-371v700h355v-74h-273v-233h253v-74h-253v-245h289v-74zM410 926l-104 -161h-65l-105 161h56l80 -112l80 112h58z" />
    <glyph glyph-name="ecaron" unicode="&#x11b;" horiz-adv-x="522" 
d="M277 512c138 0 206 -98 206 -240v-42h-353c2 -106 58 -174 163 -174c56 0 108 18 155 55v-75c-44 -32 -102 -48 -174 -48c-149 0 -227 105 -227 260c0 78 22 141 66 190s99 74 164 74zM401 298c-1 86 -42 146 -125 146s-134 -69 -145 -146h270zM412 756l-104 -161h-65
l-105 161h56l80 -112l80 112h58z" />
    <glyph glyph-name="Gcircumflex" unicode="&#x11c;" horiz-adv-x="686" 
d="M132 347c0 -169 93 -285 259 -285c55 0 102 11 142 33v196h-153v74h235v-317c-70 -40 -148 -60 -234 -60c-100 0 -181 33 -243 97s-92 150 -92 256c0 108 34 198 103 267s155 104 260 104c76 0 140 -12 192 -37v-91c-57 36 -124 54 -201 54c-78 0 -143 -27 -193 -81
s-75 -124 -75 -210zM518 766h-59l-80 112l-81 -112h-55l105 162h65z" />
    <glyph glyph-name="gcircumflex" unicode="&#x11d;" horiz-adv-x="588" 
d="M47 234c0 157 78 278 229 278c67 0 117 -27 150 -81h2v69h80v-460c0 -184 -88 -275 -264 -275c-62 0 -116 12 -162 35v80c56 -31 110 -47 161 -47c123 0 185 65 185 196v55h-2c-38 -64 -96 -96 -172 -96c-62 0 -112 23 -150 67s-57 104 -57 179zM276 56
c93 0 152 75 152 170v74c0 40 -14 74 -41 102s-60 42 -100 42c-109 0 -158 -89 -158 -205c0 -101 51 -183 147 -183zM422 595h-59l-80 112l-81 -112h-55l105 162h65z" />
    <glyph glyph-name="Gbreve" unicode="&#x11e;" horiz-adv-x="686" 
d="M132 347c0 -169 93 -285 259 -285c55 0 102 11 142 33v196h-153v74h235v-317c-70 -40 -148 -60 -234 -60c-100 0 -181 33 -243 97s-92 150 -92 256c0 108 34 198 103 267s155 104 260 104c76 0 140 -12 192 -37v-91c-57 36 -124 54 -201 54c-78 0 -143 -27 -193 -81
s-75 -124 -75 -210zM521 887c-6 -70 -61 -123 -136 -123c-76 0 -129 50 -132 123h49c4 -50 32 -76 84 -76c47 0 79 33 85 76h50z" />
    <glyph glyph-name="gbreve" unicode="&#x11f;" horiz-adv-x="588" 
d="M47 234c0 157 78 278 229 278c67 0 117 -27 150 -81h2v69h80v-460c0 -184 -88 -275 -264 -275c-62 0 -116 12 -162 35v80c56 -31 110 -47 161 -47c123 0 185 65 185 196v55h-2c-38 -64 -96 -96 -172 -96c-62 0 -112 23 -150 67s-57 104 -57 179zM276 56
c93 0 152 75 152 170v74c0 40 -14 74 -41 102s-60 42 -100 42c-109 0 -158 -89 -158 -205c0 -101 51 -183 147 -183zM424 718c-6 -70 -61 -123 -136 -123c-76 0 -129 50 -132 123h49c4 -50 32 -76 84 -76c47 0 79 33 85 76h50z" />
    <glyph glyph-name="Gdotaccent" unicode="&#x120;" horiz-adv-x="686" 
d="M132 347c0 -169 93 -285 259 -285c55 0 102 11 142 33v196h-153v74h235v-317c-70 -40 -148 -60 -234 -60c-100 0 -181 33 -243 97s-92 150 -92 256c0 108 34 198 103 267s155 104 260 104c76 0 140 -12 192 -37v-91c-57 36 -124 54 -201 54c-78 0 -143 -27 -193 -81
s-75 -124 -75 -210zM438 813c0 -26 -22 -48 -48 -48s-48 21 -48 48c0 26 22 47 48 47s48 -20 48 -47z" />
    <glyph glyph-name="gdotaccent" unicode="&#x121;" horiz-adv-x="588" 
d="M47 234c0 157 78 278 229 278c67 0 117 -27 150 -81h2v69h80v-460c0 -184 -88 -275 -264 -275c-62 0 -116 12 -162 35v80c56 -31 110 -47 161 -47c123 0 185 65 185 196v55h-2c-38 -64 -96 -96 -172 -96c-62 0 -112 23 -150 67s-57 104 -57 179zM276 56
c93 0 152 75 152 170v74c0 40 -14 74 -41 102s-60 42 -100 42c-109 0 -158 -89 -158 -205c0 -101 51 -183 147 -183zM329 643c0 -26 -22 -48 -48 -48s-48 21 -48 48c0 26 22 47 48 47s48 -20 48 -47z" />
    <glyph glyph-name="Gcommaaccent" unicode="&#x122;" horiz-adv-x="686" 
d="M132 347c0 -169 93 -285 259 -285c55 0 102 11 142 33v196h-153v74h235v-317c-70 -40 -148 -60 -234 -60c-100 0 -181 33 -243 97s-92 150 -92 256c0 108 34 198 103 267s155 104 260 104c76 0 140 -12 192 -37v-91c-57 36 -124 54 -201 54c-78 0 -143 -27 -193 -81
s-75 -124 -75 -210zM432 -58l-81 -127h-60l57 127h84z" />
    <glyph glyph-name="gcommaaccent" unicode="&#x123;" horiz-adv-x="588" 
d="M47 234c0 157 78 278 229 278c68 0 118 -27 150 -81h2v69h80v-460c0 -184 -88 -275 -264 -275c-63 0 -117 12 -162 35v80c57 -31 110 -47 161 -47c123 0 185 65 185 196v55h-2c-38 -64 -95 -96 -172 -96c-62 0 -112 22 -150 67s-57 105 -57 179zM276 56
c94 0 152 74 152 170v74c0 39 -13 74 -40 102s-61 42 -101 42c-110 0 -158 -89 -158 -205c0 -100 51 -183 147 -183zM230 595l81 127h60l-57 -127h-84z" />
    <glyph glyph-name="Hcircumflex" unicode="&#x124;" horiz-adv-x="709" 
d="M618 0h-82v319h-362v-319h-82v700h82v-307h362v307h82v-700zM491 765h-59l-80 112l-81 -112h-55l105 162h65z" />
    <glyph glyph-name="hcircumflex" unicode="&#x125;" horiz-adv-x="565" 
d="M496 0h-80v288c0 104 -39 156 -116 156c-39 0 -72 -15 -99 -45s-40 -69 -40 -116v-283h-80v740h80v-323h2c38 63 93 95 164 95c113 0 169 -68 169 -204v-308zM445 804h-59l-80 112l-81 -112h-55l105 162h65z" />
    <glyph glyph-name="Hbar" unicode="&#x126;" horiz-adv-x="709" 
d="M618 0h-82v319h-362v-319h-82v502h-78v74h78v124h82v-124h362v124h82v-124h78v-74h-78v-502zM174 502v-109h362v109h-362z" />
    <glyph glyph-name="hbar" unicode="&#x127;" horiz-adv-x="565" 
d="M327 512c117 0 169 -82 169 -204v-308h-80v288c0 104 -39 156 -116 156c-39 0 -72 -15 -99 -45s-40 -69 -40 -116v-283h-80v587h-66v65h66v88h80v-88h162v-65h-162v-170h2c39 63 94 95 164 95z" />
    <glyph glyph-name="Itilde" unicode="&#x128;" horiz-adv-x="266" 
d="M242 700v-70h-68v-560h68v-70h-219v70h69v560h-69v70h219zM-24 756c0 63 28 115 89 115c21 0 46 -8 73 -25c24 -14 44 -22 62 -22c27 0 41 19 41 57h48c0 -61 -29 -116 -87 -116c-23 0 -49 8 -79 25c-25 14 -44 21 -58 21c-29 0 -43 -18 -43 -55h-46z" />
    <glyph glyph-name="itilde" unicode="&#x129;" horiz-adv-x="242" 
d="M161 0h-80v500h80v-500zM-41 587c0 63 28 115 89 115c21 0 46 -8 73 -25c24 -14 44 -22 62 -22c27 0 41 19 41 57h48c0 -61 -29 -116 -87 -116c-23 0 -49 8 -79 25c-25 14 -44 21 -58 21c-29 0 -43 -18 -43 -55h-46z" />
    <glyph glyph-name="Imacron" unicode="&#x12a;" horiz-adv-x="266" 
d="M242 700v-70h-68v-560h68v-70h-219v70h69v560h-69v70h219zM257 765h-248v53h248v-53z" />
    <glyph glyph-name="imacron" unicode="&#x12b;" horiz-adv-x="242" 
d="M161 0h-80v500h80v-500zM239 595h-248v53h248v-53z" />
    <glyph glyph-name="Ibreve" unicode="&#x12c;" horiz-adv-x="266" 
d="M242 700v-70h-68v-560h68v-70h-219v70h69v560h-69v70h219zM267 888c-6 -70 -61 -123 -136 -123c-76 0 -129 50 -132 123h49c4 -50 32 -76 84 -76c47 0 79 33 85 76h50z" />
    <glyph glyph-name="ibreve" unicode="&#x12d;" horiz-adv-x="242" 
d="M161 0h-80v500h80v-500zM250 718c-6 -70 -61 -123 -136 -123c-76 0 -129 50 -132 123h49c4 -50 32 -76 84 -76c47 0 79 33 85 76h50z" />
    <glyph glyph-name="Iogonek" unicode="&#x12e;" horiz-adv-x="266" 
d="M242 700v-70h-68v-560h68v-70h-219v70h69v560h-69v70h219zM155 -195c-48 0 -82 26 -82 73c0 40 26 80 77 122h58c-49 -46 -73 -82 -73 -109c0 -23 11 -34 33 -34c10 0 19 2 27 6v-52c-10 -4 -23 -6 -40 -6z" />
    <glyph glyph-name="iogonek" unicode="&#x12f;" horiz-adv-x="242" 
d="M175 679c0 -29 -24 -52 -53 -52s-52 23 -52 52s23 52 52 52s53 -23 53 -52zM161 0h-80v500h80v-500zM109 -195c-48 0 -82 26 -82 73c0 40 26 80 77 122h58c-49 -46 -73 -82 -73 -109c0 -23 11 -34 33 -34c10 0 19 2 27 6v-52c-10 -4 -23 -6 -40 -6z" />
    <glyph glyph-name="Idotaccent" unicode="&#x130;" horiz-adv-x="266" 
d="M242 700v-70h-68v-560h68v-70h-219v70h69v560h-69v70h219zM181 813c0 -26 -22 -48 -48 -48s-48 21 -48 48c0 26 22 47 48 47s48 -20 48 -47z" />
    <glyph glyph-name="dotlessi" unicode="&#x131;" horiz-adv-x="242" 
d="M161 0h-80v500h80v-500z" />
    <glyph glyph-name="IJ" unicode="&#x132;" horiz-adv-x="623" 
d="M242 700v-70h-68v-560h68v-70h-219v70h69v560h-69v70h219zM538 251c0 -144 -60 -263 -194 -263c-27 0 -49 4 -67 12v81c18 -13 40 -19 68 -19c74 0 111 63 111 188v450h82v-449z" />
    <glyph glyph-name="ij" unicode="&#x133;" horiz-adv-x="495" 
d="M175 679c0 -29 -24 -52 -53 -52s-52 23 -52 52s23 52 52 52s53 -23 53 -52zM161 0h-80v500h80v-500zM414 21c0 -146 -54 -256 -191 -256c-23 0 -46 5 -67 15v75c24 -15 48 -22 69 -22c73 0 109 58 109 175v492h80v-479zM428 679c0 -29 -24 -52 -53 -52s-52 23 -52 52
s23 52 52 52s53 -23 53 -52z" />
    <glyph glyph-name="Jcircumflex" unicode="&#x134;" horiz-adv-x="356" 
d="M271 251c0 -144 -60 -263 -194 -263c-27 0 -49 4 -67 12v81c18 -13 40 -19 68 -19c74 0 111 63 111 188v450h82v-449zM368 765h-59l-80 112l-81 -112h-55l105 162h65z" />
    <glyph glyph-name="jcircumflex" unicode="&#x135;" horiz-adv-x="242" 
d="M161 21c0 -146 -54 -256 -191 -256c-23 0 -46 5 -67 15v75c24 -15 48 -22 69 -22c73 0 109 58 109 175v492h80v-479zM257 595h-59l-80 112l-81 -112h-55l105 162h65z" />
    <glyph glyph-name="Kcommaaccent" unicode="&#x136;" horiz-adv-x="580" 
d="M174 345v-345h-82v700h82v-329h2c5 7 10 15 18 24l262 305h102l-300 -336l321 -364h-114l-271 320c-10 12 -16 21 -18 25h-2zM362 -58l-81 -127h-60l57 127h84z" />
    <glyph glyph-name="kcommaaccent" unicode="&#x137;" horiz-adv-x="497" 
d="M161 240v-240h-80v740h80v-469h2l210 229h105l-232 -241l250 -259h-112l-221 240h-2zM314 -58l-81 -127h-60l57 127h84z" />
    <glyph glyph-name="kgreenlandic" unicode="&#x138;" horiz-adv-x="497" 
d="M161 240v-240h-80v500h80v-229h2l210 229h105l-232 -241l250 -259h-112l-221 240h-2z" />
    <glyph glyph-name="Lacute" unicode="&#x139;" horiz-adv-x="470" 
d="M455 0h-363v700h82v-626h281v-74zM418 925l-128 -160h-62l109 160h81z" />
    <glyph glyph-name="lacute" unicode="&#x13a;" horiz-adv-x="242" 
d="M161 0h-80v740h80v-740zM259 966l-128 -160h-62l109 160h81z" />
    <glyph glyph-name="Lcommaaccent" unicode="&#x13b;" horiz-adv-x="470" 
d="M455 0h-363v700h82v-626h281v-74zM281 -51c53 0 93 -24 93 -74c0 -57 -44 -86 -134 -86c-12 0 -23 0 -32 1v44c14 -2 25 -3 34 -3c46 0 69 15 69 44c0 25 -21 38 -63 38c-3 0 -10 -1 -20 -2v89h53v-51z" />
    <glyph glyph-name="lcommaaccent" unicode="&#x13c;" horiz-adv-x="242" 
d="M161 0h-80v740h80v-740zM140 -51c53 0 93 -24 93 -74c0 -57 -44 -86 -134 -86c-12 0 -23 0 -32 1v44c14 -2 25 -3 34 -3c46 0 69 15 69 44c0 25 -21 38 -63 38c-3 0 -10 -1 -20 -2v89h53v-51z" />
    <glyph glyph-name="Lcaron" unicode="&#x13d;" horiz-adv-x="470" 
d="M455 0h-363v700h82v-626h281v-74zM442 700l-81 -127h-60l57 127h84z" />
    <glyph glyph-name="lcaron" unicode="&#x13e;" horiz-adv-x="307" 
d="M161 0h-80v740h80v-740zM345 737l-81 -127h-60l57 127h84z" />
    <glyph glyph-name="Ldot" unicode="&#x13f;" horiz-adv-x="470" 
d="M455 0h-363v700h82v-626h281v-74zM407 373c0 -26 -22 -48 -48 -48s-48 21 -48 48c0 26 22 47 48 47s48 -20 48 -47z" />
    <glyph glyph-name="ldot" unicode="&#x140;" horiz-adv-x="314" 
d="M161 0h-80v740h80v-740zM316 373c0 -26 -22 -48 -48 -48s-48 21 -48 48c0 26 22 47 48 47s48 -20 48 -47z" />
    <glyph glyph-name="Lslash" unicode="&#x141;" horiz-adv-x="470" 
d="M455 0h-363v267l-76 -47v74l76 47v359h82v-308l160 99v-75l-160 -98v-244h281v-74z" />
    <glyph glyph-name="lslash" unicode="&#x142;" horiz-adv-x="273" 
d="M174 0h-80v282l-83 -58v77l83 58v381h80v-327l85 60v-77l-85 -60v-336z" />
    <glyph glyph-name="Nacute" unicode="&#x143;" horiz-adv-x="748" 
d="M656 0h-100l-361 558c-9 14 -16 29 -22 44h-3c3 -15 4 -47 4 -96v-506h-82v700h106l351 -549c15 -23 24 -39 28 -47h2c-3 20 -5 54 -5 103v493h82v-700zM491 925l-128 -160h-62l109 160h81z" />
    <glyph glyph-name="nacute" unicode="&#x144;" horiz-adv-x="565" 
d="M327 512c118 0 169 -83 169 -206v-306h-80v285c0 106 -39 159 -116 159c-84 0 -139 -73 -139 -159v-285h-80v500h80v-83h2c38 63 92 95 164 95zM408 755l-128 -160h-62l109 160h81z" />
    <glyph glyph-name="Ncommaaccent" unicode="&#x145;" horiz-adv-x="748" 
d="M656 0h-100l-361 558c-9 14 -16 29 -22 44h-3c3 -15 4 -47 4 -96v-506h-82v700h106l351 -549c15 -23 24 -39 28 -47h2c-3 20 -5 54 -5 103v493h82v-700zM425 -58l-81 -127h-60l57 127h84z" />
    <glyph glyph-name="ncommaaccent" unicode="&#x146;" horiz-adv-x="565" 
d="M327 512c118 0 169 -83 169 -206v-306h-80v285c0 106 -39 159 -116 159c-84 0 -139 -73 -139 -159v-285h-80v500h80v-83h2c38 63 92 95 164 95zM338 -58l-81 -127h-60l57 127h84z" />
    <glyph glyph-name="Ncaron" unicode="&#x147;" horiz-adv-x="748" 
d="M656 0h-100l-361 558c-9 14 -16 29 -22 44h-3c3 -15 4 -47 4 -96v-506h-82v700h106l351 -549c15 -23 24 -39 28 -47h2c-3 20 -5 54 -5 103v493h82v-700zM511 926l-104 -161h-65l-105 161h56l80 -112l80 112h58z" />
    <glyph glyph-name="ncaron" unicode="&#x148;" horiz-adv-x="565" 
d="M327 512c118 0 169 -83 169 -206v-306h-80v285c0 106 -39 159 -116 159c-84 0 -139 -73 -139 -159v-285h-80v500h80v-83h2c38 63 92 95 164 95zM430 756l-104 -161h-65l-105 161h56l80 -112l80 112h58z" />
    <glyph glyph-name="napostrophe" unicode="&#x149;" horiz-adv-x="605" 
d="M367 512c118 0 169 -83 169 -206v-306h-80v285c0 106 -39 159 -116 159c-84 0 -139 -73 -139 -159v-285h-80v500h80v-83h2c38 63 92 95 164 95zM106 712l-69 -218h-57l54 218h72z" />
    <glyph glyph-name="Eng" unicode="&#x14a;" horiz-adv-x="748" 
d="M174 506v-506h-82v700h106l351 -520c1 -1 10 -18 28 -51h2c-3 23 -5 59 -5 107v464h82v-669c0 -158 -59 -237 -178 -237c-25 0 -47 5 -67 15v81c25 -14 48 -22 69 -22c62 0 92 44 92 132l-377 558c-7 10 -14 25 -22 44h-3c3 -17 4 -49 4 -96z" />
    <glyph glyph-name="eng" unicode="&#x14b;" horiz-adv-x="565" 
d="M300 444c-83 0 -139 -73 -139 -159v-285h-80v500h80v-83h2c38 63 93 95 164 95c113 0 169 -69 169 -206v-293c0 -146 -58 -219 -175 -219c-25 0 -47 5 -67 15v81c25 -14 48 -22 69 -22c62 0 93 44 93 132v285c0 106 -39 159 -116 159z" />
    <glyph glyph-name="Omacron" unicode="&#x14c;" horiz-adv-x="753" 
d="M374 -12c-99 0 -179 33 -239 98s-89 151 -89 256c0 113 30 202 91 269s144 101 249 101c97 0 174 -33 233 -98s89 -150 89 -255c0 -114 -30 -205 -91 -271s-141 -100 -243 -100zM622 348c0 170 -79 290 -242 290c-74 0 -133 -27 -179 -80s-69 -123 -69 -209
s22 -155 67 -208s103 -79 175 -79c163 0 248 117 248 286zM504 765h-248v53h248v-53z" />
    <glyph glyph-name="omacron" unicode="&#x14d;" horiz-adv-x="585" 
d="M539 252c0 -156 -95 -264 -249 -264c-150 0 -243 105 -243 256c0 163 95 268 255 268c154 0 237 -103 237 -260zM457 249c0 116 -50 195 -161 195c-110 0 -167 -83 -167 -197c0 -111 60 -191 167 -191c110 0 161 78 161 193zM422 595h-248v53h248v-53z" />
    <glyph glyph-name="Obreve" unicode="&#x14e;" horiz-adv-x="753" 
d="M374 -12c-99 0 -179 33 -239 98s-89 151 -89 256c0 113 30 202 91 269s144 101 249 101c97 0 174 -33 233 -98s89 -150 89 -255c0 -114 -30 -205 -91 -271s-141 -100 -243 -100zM622 348c0 170 -79 290 -242 290c-74 0 -133 -27 -179 -80s-69 -123 -69 -209
s22 -155 67 -208s103 -79 175 -79c163 0 248 117 248 286zM516 889c-6 -70 -61 -123 -136 -123c-76 0 -129 50 -132 123h49c4 -50 32 -76 84 -76c47 0 79 33 85 76h50z" />
    <glyph glyph-name="obreve" unicode="&#x14f;" horiz-adv-x="585" 
d="M539 252c0 -156 -95 -264 -249 -264c-150 0 -243 105 -243 256c0 163 95 268 255 268c154 0 237 -103 237 -260zM457 249c0 116 -50 195 -161 195c-110 0 -167 -83 -167 -197c0 -111 60 -191 167 -191c110 0 161 78 161 193zM437 718c-6 -70 -61 -123 -136 -123
c-76 0 -129 50 -132 123h49c4 -50 32 -76 84 -76c47 0 79 33 85 76h50z" />
    <glyph glyph-name="Ohungarumlaut" unicode="&#x150;" horiz-adv-x="753" 
d="M374 -12c-99 0 -179 33 -239 98s-89 151 -89 256c0 113 30 202 91 269s144 101 249 101c97 0 174 -33 233 -98s89 -150 89 -255c0 -114 -30 -205 -91 -271s-141 -100 -243 -100zM622 348c0 170 -79 290 -242 290c-74 0 -133 -27 -179 -80s-69 -123 -69 -209
s22 -155 67 -208s103 -79 175 -79c163 0 248 117 248 286zM551 921l-120 -155h-47l102 155h65zM430 921l-117 -155h-47l101 155h63z" />
    <glyph glyph-name="ohungarumlaut" unicode="&#x151;" horiz-adv-x="585" 
d="M539 252c0 -156 -95 -264 -249 -264c-150 0 -243 105 -243 256c0 163 95 268 255 268c154 0 237 -103 237 -260zM457 249c0 116 -50 195 -161 195c-110 0 -167 -83 -167 -197c0 -111 60 -191 167 -191c110 0 161 78 161 193zM472 750l-120 -155h-47l102 155h65zM351 750
l-117 -155h-47l101 155h63z" />
    <glyph glyph-name="OE" unicode="&#x152;" horiz-adv-x="930" 
d="M884 0h-352c-5 0 -27 -2 -67 -7c-32 -3 -62 -5 -89 -5c-102 0 -182 33 -241 98s-89 151 -89 256c0 113 30 202 92 269s146 101 252 101c29 0 58 -2 87 -5c36 -5 54 -7 55 -7h336v-74h-273v-233h253v-74h-253v-245h289v-74zM382 638c-75 0 -135 -27 -181 -81
s-69 -124 -69 -208s23 -152 68 -206s105 -81 179 -81c38 0 83 5 134 16v546c-52 9 -96 14 -131 14z" />
    <glyph glyph-name="oe" unicode="&#x153;" horiz-adv-x="927" 
d="M689 512c134 0 202 -101 202 -239v-43h-354c2 -106 58 -174 163 -174c57 0 109 18 156 55v-75c-44 -32 -102 -48 -174 -48c-88 0 -151 39 -187 116h-2c-43 -77 -110 -116 -203 -116c-150 0 -243 104 -243 255c0 84 23 149 69 197s109 72 187 72c96 0 161 -39 196 -115h2
c39 76 101 115 188 115zM809 298c-1 85 -41 146 -123 146c-83 0 -138 -69 -148 -146h271zM457 248c0 116 -50 196 -161 196c-110 0 -167 -84 -167 -199c0 -110 59 -189 166 -189c110 0 162 77 162 192z" />
    <glyph glyph-name="Racute" unicode="&#x154;" horiz-adv-x="598" 
d="M241 298h-67v-298h-82v700h209c98 0 166 -38 197 -105c11 -23 16 -50 16 -81c0 -81 -39 -133 -91 -163c-19 -11 -41 -20 -65 -26v-2c51 -23 75 -66 104 -113l132 -210h-98l-117 196c-19 31 -36 58 -62 78c-20 15 -43 24 -76 24zM428 507c0 81 -57 119 -142 119h-112v-254
h111c66 0 112 31 132 78c7 17 11 36 11 57zM427 925l-128 -160h-62l109 160h81z" />
    <glyph glyph-name="racute" unicode="&#x155;" horiz-adv-x="347" 
d="M163 397c19 58 62 112 131 112c21 0 37 -2 48 -7v-83c-14 11 -35 16 -61 16c-34 0 -62 -16 -85 -48s-35 -76 -35 -132v-255h-80v500h80v-103h2zM336 755l-128 -160h-62l109 160h81z" />
    <glyph glyph-name="Rcommaaccent" unicode="&#x156;" horiz-adv-x="598" 
d="M241 298h-67v-298h-82v700h209c98 0 166 -38 197 -105c11 -23 16 -50 16 -81c0 -81 -39 -133 -91 -163c-19 -11 -41 -20 -65 -26v-2c51 -23 75 -66 104 -113l132 -210h-98l-117 196c-19 31 -36 58 -62 78c-20 15 -43 24 -76 24zM428 507c0 81 -57 119 -142 119h-112v-254
h111c66 0 112 31 132 78c7 17 11 36 11 57zM359 -58l-81 -127h-60l57 127h84z" />
    <glyph glyph-name="rcommaaccent" unicode="&#x157;" horiz-adv-x="347" 
d="M163 397c19 58 62 112 131 112c21 0 37 -2 48 -7v-83c-14 11 -35 16 -61 16c-34 0 -62 -16 -85 -48s-35 -76 -35 -132v-255h-80v500h80v-103h2zM260 -58l-81 -127h-60l57 127h84z" />
    <glyph glyph-name="Rcaron" unicode="&#x158;" horiz-adv-x="598" 
d="M241 298h-67v-298h-82v700h209c98 0 166 -38 197 -105c11 -23 16 -50 16 -81c0 -81 -39 -133 -91 -163c-19 -11 -41 -20 -65 -26v-2c51 -23 75 -66 104 -113l132 -210h-98l-117 196c-19 31 -36 58 -62 78c-20 15 -43 24 -76 24zM428 507c0 81 -57 119 -142 119h-112v-254
h111c66 0 112 31 132 78c7 17 11 36 11 57zM435 926l-104 -161h-65l-105 161h56l80 -112l80 112h58z" />
    <glyph glyph-name="rcaron" unicode="&#x159;" horiz-adv-x="347" 
d="M163 397c19 58 62 112 131 112c21 0 37 -2 48 -7v-83c-14 11 -35 16 -61 16c-34 0 -62 -16 -85 -48s-35 -76 -35 -132v-255h-80v500h80v-103h2zM348 756l-104 -161h-65l-105 161h56l80 -112l80 112h58z" />
    <glyph glyph-name="Sacute" unicode="&#x15a;" horiz-adv-x="531" 
d="M247 62c88 0 150 29 150 109c0 42 -20 68 -46 88c-33 26 -76 45 -117 66c-65 33 -131 67 -161 132c-9 19 -13 42 -13 68c0 68 34 114 76 142c41 28 101 45 167 45c69 0 119 -8 151 -25v-92c-41 29 -94 43 -159 43c-62 0 -111 -19 -136 -57c-9 -13 -13 -30 -13 -49
c0 -40 17 -63 40 -82c32 -26 70 -43 112 -64c69 -34 138 -73 171 -140c10 -20 14 -43 14 -69c0 -106 -67 -160 -154 -179c-30 -7 -62 -10 -95 -10c-49 0 -101 10 -139 23c-15 5 -27 11 -36 17v97c34 -30 86 -50 140 -59c17 -3 33 -4 48 -4zM401 924l-128 -160h-62l109 160
h81z" />
    <glyph glyph-name="sacute" unicode="&#x15b;" horiz-adv-x="424" 
d="M195 56c70 0 105 23 105 70c0 29 -15 46 -33 59c-23 16 -52 26 -81 37c-67 27 -134 54 -134 145c0 51 27 86 59 108c33 22 79 37 132 37c43 0 82 -8 116 -23v-81c-37 24 -79 36 -127 36c-43 0 -76 -14 -91 -41c-5 -9 -7 -19 -7 -29c0 -44 29 -61 61 -75
c67 -28 148 -49 177 -113c7 -15 10 -32 10 -52c0 -53 -27 -88 -60 -110c-34 -23 -82 -36 -137 -36c-51 0 -96 10 -134 30v86c44 -32 92 -48 144 -48zM349 755l-128 -160h-62l109 160h81z" />
    <glyph glyph-name="Scircumflex" unicode="&#x15c;" horiz-adv-x="531" 
d="M247 62c88 0 150 29 150 109c0 42 -20 68 -46 88c-33 26 -76 45 -117 66c-65 33 -131 67 -161 132c-9 19 -13 42 -13 68c0 68 34 114 76 142c41 28 101 45 167 45c69 0 119 -8 151 -25v-92c-41 29 -94 43 -159 43c-62 0 -111 -19 -136 -57c-9 -13 -13 -30 -13 -49
c0 -40 17 -63 40 -82c32 -26 70 -43 112 -64c69 -34 138 -73 171 -140c10 -20 14 -43 14 -69c0 -106 -67 -160 -154 -179c-30 -7 -62 -10 -95 -10c-49 0 -101 10 -139 23c-15 5 -27 11 -36 17v97c34 -30 86 -50 140 -59c17 -3 33 -4 48 -4zM406 765h-59l-80 112l-81 -112
h-55l105 162h65z" />
    <glyph glyph-name="scircumflex" unicode="&#x15d;" horiz-adv-x="424" 
d="M195 56c70 0 105 23 105 70c0 29 -15 46 -33 59c-23 16 -52 26 -81 37c-67 27 -134 54 -134 145c0 51 27 86 59 108c33 22 79 37 132 37c43 0 82 -8 116 -23v-81c-37 24 -79 36 -127 36c-43 0 -76 -14 -91 -41c-5 -9 -7 -19 -7 -29c0 -44 29 -61 61 -75
c67 -28 148 -49 177 -113c7 -15 10 -32 10 -52c0 -53 -27 -88 -60 -110c-34 -23 -82 -36 -137 -36c-51 0 -96 10 -134 30v86c44 -32 92 -48 144 -48zM347 595h-59l-80 112l-81 -112h-55l105 162h65z" />
    <glyph glyph-name="Scedilla" unicode="&#x15e;" horiz-adv-x="531" 
d="M247 62c88 0 150 29 150 109c0 42 -20 68 -46 88c-33 26 -76 45 -117 66c-65 33 -131 67 -161 132c-9 19 -13 42 -13 68c0 68 34 114 76 142c41 28 101 45 167 45c69 0 119 -8 151 -25v-92c-41 29 -94 43 -159 43c-62 0 -111 -19 -136 -57c-9 -13 -13 -30 -13 -49
c0 -40 17 -63 40 -82c32 -26 70 -43 112 -64c69 -34 138 -73 171 -140c10 -20 14 -43 14 -69c0 -106 -67 -160 -154 -179c-30 -7 -62 -10 -95 -10c-49 0 -101 10 -139 23c-15 5 -27 11 -36 17v97c34 -30 86 -50 140 -59c17 -3 33 -4 48 -4zM281 -51c53 0 93 -24 93 -74
c0 -57 -44 -86 -134 -86c-12 0 -23 0 -32 1v44c14 -2 25 -3 34 -3c46 0 69 15 69 44c0 25 -21 38 -63 38c-3 0 -10 -1 -20 -2v89h53v-51z" />
    <glyph glyph-name="scedilla" unicode="&#x15f;" horiz-adv-x="424" 
d="M195 56c70 0 105 23 105 70c0 29 -15 46 -33 59c-23 16 -52 26 -81 37c-67 27 -134 54 -134 145c0 51 27 86 59 108c33 22 79 37 132 37c43 0 82 -8 116 -23v-81c-37 24 -79 36 -127 36c-43 0 -76 -14 -91 -41c-5 -9 -7 -19 -7 -29c0 -44 29 -61 61 -75
c67 -28 148 -49 177 -113c7 -15 10 -32 10 -52c0 -53 -27 -88 -60 -110c-34 -23 -82 -36 -137 -36c-51 0 -96 10 -134 30v86c44 -32 92 -48 144 -48zM224 -51c53 0 93 -24 93 -74c0 -57 -44 -86 -134 -86c-12 0 -23 0 -32 1v44c14 -2 25 -3 34 -3c46 0 69 15 69 44
c0 25 -21 38 -63 38c-3 0 -10 -1 -20 -2v89h53v-51z" />
    <glyph glyph-name="Scaron" unicode="&#x160;" horiz-adv-x="531" 
d="M247 62c88 0 150 29 150 109c0 42 -20 68 -46 88c-33 26 -76 45 -117 66c-65 33 -131 67 -161 132c-9 19 -13 42 -13 68c0 68 34 114 76 142c41 28 101 45 167 45c69 0 119 -8 151 -25v-92c-41 29 -94 43 -159 43c-62 0 -111 -19 -136 -57c-9 -13 -13 -30 -13 -49
c0 -40 17 -63 40 -82c32 -26 70 -43 112 -64c69 -34 138 -73 171 -140c10 -20 14 -43 14 -69c0 -106 -67 -160 -154 -179c-30 -7 -62 -10 -95 -10c-49 0 -101 10 -139 23c-15 5 -27 11 -36 17v97c34 -30 86 -50 140 -59c17 -3 33 -4 48 -4zM403 927l-104 -161h-65l-105 161
h56l80 -112l80 112h58z" />
    <glyph glyph-name="scaron" unicode="&#x161;" horiz-adv-x="424" 
d="M195 56c70 0 105 23 105 70c0 29 -15 46 -33 59c-23 16 -52 26 -81 37c-67 27 -134 54 -134 145c0 51 27 86 59 108c33 22 79 37 132 37c43 0 82 -8 116 -23v-81c-37 24 -79 36 -127 36c-43 0 -76 -14 -91 -41c-5 -9 -7 -19 -7 -29c0 -44 29 -61 61 -75
c67 -28 148 -49 177 -113c7 -15 10 -32 10 -52c0 -53 -27 -88 -60 -110c-34 -23 -82 -36 -137 -36c-51 0 -96 10 -134 30v86c44 -32 92 -48 144 -48zM333 756l-104 -161h-65l-105 161h56l80 -112l80 112h58z" />
    <glyph glyph-name="Tcedilla" unicode="&#x162;" horiz-adv-x="523" 
d="M506 626h-202v-626h-82v626h-202v74h486v-74zM280 -51c53 0 93 -24 93 -74c0 -57 -44 -86 -134 -86c-12 0 -23 0 -32 1v44c14 -2 25 -3 34 -3c46 0 69 15 69 44c0 25 -21 38 -63 38c-3 0 -10 -1 -20 -2v89h53v-51z" />
    <glyph glyph-name="tcedilla" unicode="&#x163;" horiz-adv-x="338" 
d="M187 150c0 -61 16 -93 74 -93c20 0 37 5 52 16v-68c-19 -10 -44 -16 -75 -16c-88 0 -131 49 -131 147v296h-86v68h86v122l80 26v-148h126v-68h-126v-282zM232 -51c53 0 93 -24 93 -74c0 -57 -44 -86 -134 -86c-12 0 -23 0 -32 1v44c14 -2 25 -3 34 -3c46 0 69 15 69 44
c0 25 -21 38 -63 38c-3 0 -10 -1 -20 -2v89h53v-51z" />
    <glyph glyph-name="Tcaron" unicode="&#x164;" horiz-adv-x="523" 
d="M506 626h-202v-626h-82v626h-202v74h486v-74zM401 926l-104 -161h-65l-105 161h56l80 -112l80 112h58z" />
    <glyph glyph-name="tcaron" unicode="&#x165;" horiz-adv-x="439" 
d="M187 150c0 -61 16 -93 74 -93c20 0 37 5 52 16v-68c-19 -10 -44 -16 -75 -16c-88 0 -131 49 -131 147v296h-86v68h86v122l80 26v-148h126v-68h-126v-282zM478 681l-81 -127h-60l57 127h84z" />
    <glyph glyph-name="Tbar" unicode="&#x166;" horiz-adv-x="523" 
d="M506 626h-202v-237h120v-76h-120v-313h-82v313h-122v76h122v237h-202v74h486v-74z" />
    <glyph glyph-name="tbar" unicode="&#x167;" horiz-adv-x="338" 
d="M187 150c0 -62 16 -93 74 -93c20 0 37 5 52 16v-68c-19 -10 -44 -16 -75 -16c-88 0 -131 49 -131 147v131h-80v65h80v100h-86v68h86v122c1 1 15 5 40 13l40 13v-148h126v-68h-126v-100h121v-65h-121v-117z" />
    <glyph glyph-name="Utilde" unicode="&#x168;" horiz-adv-x="687" 
d="M604 283c0 -197 -89 -295 -266 -295c-170 0 -255 95 -255 284v428h82v-423c0 -144 61 -215 182 -215c117 0 175 69 175 208v430h82v-417zM188 757c0 63 28 115 89 115c21 0 46 -8 73 -25c24 -14 44 -22 62 -22c27 0 41 19 41 57h48c0 -61 -29 -116 -87 -116
c-23 0 -49 8 -79 25c-25 14 -44 21 -58 21c-29 0 -43 -18 -43 -55h-46z" />
    <glyph glyph-name="utilde" unicode="&#x169;" horiz-adv-x="565" 
d="M271 56c83 0 134 70 134 156v288h80v-500h-80v79h-2c-33 -61 -84 -91 -154 -91c-119 0 -179 71 -179 213v299h80v-286c0 -105 40 -158 121 -158zM121 587c0 63 28 115 89 115c21 0 46 -8 73 -25c24 -14 44 -22 62 -22c27 0 41 19 41 57h48c0 -61 -29 -116 -87 -116
c-23 0 -49 8 -79 25c-25 14 -44 21 -58 21c-29 0 -43 -18 -43 -55h-46z" />
    <glyph glyph-name="Umacron" unicode="&#x16a;" horiz-adv-x="687" 
d="M604 283c0 -197 -89 -295 -266 -295c-170 0 -255 95 -255 284v428h82v-423c0 -144 61 -215 182 -215c117 0 175 69 175 208v430h82v-417zM466 765h-248v53h248v-53z" />
    <glyph glyph-name="umacron" unicode="&#x16b;" horiz-adv-x="565" 
d="M271 56c83 0 134 70 134 156v288h80v-500h-80v79h-2c-33 -61 -84 -91 -154 -91c-119 0 -179 71 -179 213v299h80v-286c0 -105 40 -158 121 -158zM400 595h-248v53h248v-53z" />
    <glyph glyph-name="Ubreve" unicode="&#x16c;" horiz-adv-x="687" 
d="M604 283c0 -197 -89 -295 -266 -295c-170 0 -255 95 -255 284v428h82v-423c0 -144 61 -215 182 -215c117 0 175 69 175 208v430h82v-417zM475 888c-6 -70 -61 -123 -136 -123c-76 0 -129 50 -132 123h49c4 -50 32 -76 84 -76c47 0 79 33 85 76h50z" />
    <glyph glyph-name="ubreve" unicode="&#x16d;" horiz-adv-x="565" 
d="M271 56c83 0 134 70 134 156v288h80v-500h-80v79h-2c-33 -61 -84 -91 -154 -91c-119 0 -179 71 -179 213v299h80v-286c0 -105 40 -158 121 -158zM410 718c-6 -70 -61 -123 -136 -123c-76 0 -129 50 -132 123h49c4 -50 32 -76 84 -76c47 0 79 33 85 76h50z" />
    <glyph glyph-name="Uring" unicode="&#x16e;" horiz-adv-x="687" 
d="M604 283c0 -197 -89 -295 -266 -295c-170 0 -255 95 -255 284v428h82v-423c0 -144 61 -215 182 -215c117 0 175 69 175 208v430h82v-417zM435 861c0 -55 -46 -96 -102 -96s-99 37 -99 93c0 59 43 97 102 97c56 0 99 -38 99 -94zM389 860c0 32 -24 55 -56 55
c-31 0 -55 -24 -55 -55c0 -36 19 -55 55 -55c32 0 56 23 56 55z" />
    <glyph glyph-name="uring" unicode="&#x16f;" horiz-adv-x="565" 
d="M271 56c83 0 134 70 134 156v288h80v-500h-80v79h-2c-33 -61 -84 -91 -154 -91c-119 0 -179 71 -179 213v299h80v-286c0 -105 40 -158 121 -158zM378 670c0 -55 -46 -96 -102 -96s-99 37 -99 93c0 59 43 97 102 97c56 0 99 -38 99 -94zM332 669c0 32 -24 55 -56 55
c-31 0 -55 -24 -55 -55c0 -36 19 -55 55 -55c32 0 56 23 56 55z" />
    <glyph glyph-name="Uhungarumlaut" unicode="&#x170;" horiz-adv-x="687" 
d="M604 283c0 -197 -89 -295 -266 -295c-170 0 -255 95 -255 284v428h82v-423c0 -144 61 -215 182 -215c117 0 175 69 175 208v430h82v-417zM513 920l-120 -155h-47l102 155h65zM392 920l-117 -155h-47l101 155h63z" />
    <glyph glyph-name="uhungarumlaut" unicode="&#x171;" horiz-adv-x="565" 
d="M271 56c83 0 134 70 134 156v288h80v-500h-80v79h-2c-33 -61 -84 -91 -154 -91c-119 0 -179 71 -179 213v299h80v-286c0 -105 40 -158 121 -158zM443 750l-120 -155h-47l102 155h65zM322 750l-117 -155h-47l101 155h63z" />
    <glyph glyph-name="Uogonek" unicode="&#x172;" horiz-adv-x="687" 
d="M604 283c0 -197 -89 -295 -266 -295c-170 0 -255 95 -255 284v428h82v-423c0 -144 61 -215 182 -215c117 0 175 69 175 208v430h82v-417zM370 -195c-48 0 -82 26 -82 73c0 40 26 80 77 122h58c-49 -46 -73 -82 -73 -109c0 -23 11 -34 33 -34c10 0 19 2 27 6v-52
c-10 -4 -23 -6 -40 -6z" />
    <glyph glyph-name="uogonek" unicode="&#x173;" horiz-adv-x="565" 
d="M271 56c83 0 134 70 134 156v288h80v-500h-80v79h-2c-33 -61 -84 -91 -154 -91c-119 0 -179 71 -179 213v299h80v-286c0 -105 40 -158 121 -158zM432 -195c-48 0 -82 26 -82 73c0 40 26 80 77 122h58c-49 -46 -73 -82 -73 -109c0 -23 11 -34 33 -34c10 0 19 2 27 6v-52
c-10 -4 -23 -6 -40 -6z" />
    <glyph glyph-name="Wcircumflex" unicode="&#x174;" horiz-adv-x="934" 
d="M922 700l-198 -700h-96l-144 512c-6 22 -10 45 -11 71h-2c-2 -24 -6 -47 -13 -70l-145 -513h-95l-205 700h90l149 -537c6 -22 10 -46 12 -70h2c2 17 7 40 15 70l155 537h79l148 -541c5 -19 9 -40 12 -65h2c1 17 6 39 13 67l143 539h89zM614 765h-59l-80 112l-81 -112h-55
l105 162h65z" />
    <glyph glyph-name="wcircumflex" unicode="&#x175;" horiz-adv-x="722" 
d="M711 500l-150 -500h-83l-103 358c-4 14 -7 29 -8 46h-2c-1 -12 -4 -26 -10 -45l-112 -359h-80l-151 500h84l103 -376c3 -11 6 -26 7 -45h4c1 14 4 30 9 46l115 375h73l104 -377c3 -12 5 -27 7 -45h4c1 13 3 28 8 45l102 377h79zM508 595h-59l-80 112l-81 -112h-55
l105 162h65z" />
    <glyph glyph-name="Ycircumflex" unicode="&#x176;" horiz-adv-x="552" 
d="M316 0h-82v257l-225 443h93l157 -316c2 -4 8 -18 17 -43h1c3 11 10 25 19 43l164 316h87l-231 -441v-259zM416 764h-59l-80 112l-81 -112h-55l105 162h65z" />
    <glyph glyph-name="ycircumflex" unicode="&#x177;" horiz-adv-x="483" 
d="M76 -235c-21 0 -38 2 -52 6v72c17 -6 33 -9 47 -9c40 0 71 24 91 72l40 95l-195 499h89l135 -385c2 -5 5 -17 10 -38h3c2 8 5 20 10 37l142 386h83l-230 -580c-41 -104 -99 -155 -173 -155zM388 595h-59l-80 112l-81 -112h-55l105 162h65z" />
    <glyph glyph-name="Ydieresis" unicode="&#x178;" horiz-adv-x="552" 
d="M316 0h-82v257l-225 443h93l157 -316c2 -4 8 -18 17 -43h1c3 11 10 25 19 43l164 316h87l-231 -441v-259zM419 812c0 -27 -21 -48 -48 -48s-48 21 -48 48s21 48 47 48c27 0 49 -21 49 -48zM231 812c0 -26 -22 -48 -48 -48c-27 0 -49 22 -49 48c0 27 21 48 48 48
c26 0 49 -22 49 -48z" />
    <glyph glyph-name="Zacute" unicode="&#x179;" horiz-adv-x="570" 
d="M539 74v-74h-523v23l407 603h-374v74h500v-19l-410 -607h400zM424 925l-128 -160h-62l109 160h81z" />
    <glyph glyph-name="zacute" unicode="&#x17a;" horiz-adv-x="452" 
d="M427 68v-68h-411v25l296 407h-268v68h386v-23l-296 -409h293zM353 755l-128 -160h-62l109 160h81z" />
    <glyph glyph-name="Zdotaccent" unicode="&#x17b;" horiz-adv-x="570" 
d="M539 74v-74h-523v23l407 603h-374v74h500v-19l-410 -607h400zM338 813c0 -26 -22 -48 -48 -48s-48 21 -48 48c0 26 22 47 48 47s48 -20 48 -47z" />
    <glyph glyph-name="zdotaccent" unicode="&#x17c;" horiz-adv-x="452" 
d="M427 68v-68h-411v25l296 407h-268v68h386v-23l-296 -409h293zM285 643c0 -26 -22 -48 -48 -48s-48 21 -48 48c0 26 22 47 48 47s48 -20 48 -47z" />
    <glyph glyph-name="Zcaron" unicode="&#x17d;" horiz-adv-x="570" 
d="M539 74v-74h-523v23l407 603h-374v74h500v-19l-410 -607h400zM439 925l-104 -161h-65l-105 161h56l80 -112l80 112h58z" />
    <glyph glyph-name="zcaron" unicode="&#x17e;" horiz-adv-x="452" 
d="M427 68v-68h-411v25l296 407h-268v68h386v-23l-296 -409h293zM382 756l-104 -161h-65l-105 161h56l80 -112l80 112h58z" />
    <glyph glyph-name="longs" unicode="&#x17f;" horiz-adv-x="241" 
d="M245 683c-56 0 -84 -35 -84 -106v-577h-80v581c0 52 15 94 46 124s68 46 113 46c24 0 44 -3 58 -9v-72c-15 9 -33 13 -53 13z" />
    <glyph glyph-name="uni0180" unicode="&#x180;" horiz-adv-x="587" 
d="M541 265c0 -155 -79 -277 -229 -277c-65 0 -115 28 -150 84h-2v-72h-79v588h-65v68h65v84h79v-84h121v-68h-121v-176h2c39 66 97 100 173 100c136 0 206 -106 206 -247zM315 444c-94 0 -155 -75 -155 -170v-70c0 -41 13 -76 40 -105s61 -43 103 -43c107 0 156 92 156 206
c0 103 -46 182 -144 182z" />
    <glyph glyph-name="uni0181" unicode="&#x181;" horiz-adv-x="613" 
d="M407 372c91 -11 156 -72 156 -171c0 -60 -21 -108 -64 -145s-98 -56 -163 -56h-204v626h-12c-52 0 -83 -32 -83 -83c0 -18 3 -35 10 -52h-77c-7 18 -11 39 -11 60c0 43 16 79 48 107s74 42 126 42h198c110 0 197 -56 197 -160c0 -87 -53 -144 -121 -166v-2zM298 400
c85 0 144 41 144 124c0 68 -45 102 -134 102h-94v-226h84zM325 74c89 0 152 43 152 128c0 83 -56 124 -169 124h-94v-252h111z" />
    <glyph glyph-name="uni0182" unicode="&#x182;" horiz-adv-x="571" 
d="M527 209c0 -133 -92 -209 -227 -209h-208v700h374v-74h-292v-223h133c133 0 220 -64 220 -194zM289 74c91 0 152 43 152 130c0 83 -51 125 -152 125h-115v-255h115z" />
    <glyph glyph-name="uni0183" unicode="&#x183;" horiz-adv-x="587" 
d="M541 265c0 -155 -79 -277 -229 -277c-65 0 -115 28 -150 84h-2v-72h-79v740h393v-68h-314v-260h2c39 66 97 100 173 100c136 0 206 -106 206 -247zM315 444c-94 0 -155 -75 -155 -170v-70c0 -41 13 -76 40 -105s61 -43 103 -43c107 0 156 92 156 206
c0 103 -46 182 -144 182z" />
    <glyph glyph-name="uni0184" unicode="&#x184;" horiz-adv-x="577" 
d="M527 209c0 -133 -92 -209 -227 -209h-208v563l-67 58v11l138 80h11v-310h133c133 0 220 -63 220 -193zM289 73c91 0 151 44 151 131c0 84 -50 126 -151 126h-115v-257h115z" />
    <glyph glyph-name="uni0185" unicode="&#x185;" horiz-adv-x="587" 
d="M541 265c0 -155 -79 -277 -229 -277c-65 0 -115 28 -150 84h-2v-72h-79v595l-65 56v11l133 78h11v-328h2c39 66 97 100 173 100c136 0 206 -106 206 -247zM315 444c-94 0 -155 -75 -155 -170v-70c0 -41 13 -76 40 -105s61 -43 103 -43c107 0 156 92 156 206
c0 103 -46 182 -144 182z" />
    <glyph glyph-name="uni0186" unicode="&#x186;" horiz-adv-x="620" 
d="M488 358c0 86 -23 154 -70 204s-108 76 -184 76c-70 0 -131 -16 -182 -47v80c52 27 116 41 193 41c99 0 179 -32 239 -96s90 -149 90 -253c0 -112 -33 -202 -100 -271s-153 -104 -257 -104c-66 0 -121 10 -165 29v87c50 -28 105 -42 166 -42c80 0 145 27 195 81
s75 125 75 215z" />
    <glyph glyph-name="uni0187" unicode="&#x187;" horiz-adv-x="620" 
d="M619 746c-37 0 -55 -26 -55 -77c0 -20 2 -43 7 -72l-4 -3c-54 29 -110 44 -170 44c-78 0 -142 -27 -191 -81s-74 -125 -74 -215c0 -85 23 -153 70 -204s108 -76 184 -76c70 0 131 16 182 47v-80c-52 -27 -116 -41 -193 -41c-100 0 -179 32 -239 96s-90 149 -90 253
c0 112 33 202 100 271s152 104 256 104c30 0 60 -4 91 -12c1 31 12 58 34 80s49 34 83 34c16 0 31 -3 47 -9v-69c-14 7 -26 10 -38 10z" />
    <glyph glyph-name="uni0188" unicode="&#x188;" horiz-adv-x="465" 
d="M362 502c1 56 45 102 103 102c13 0 27 -3 42 -9v-63c-11 6 -23 9 -33 9c-33 0 -49 -23 -49 -69c0 -27 1 -49 4 -64l-3 -2c-48 25 -92 38 -133 38c-105 0 -164 -89 -164 -199c0 -111 62 -189 170 -189c44 0 85 14 123 43v-76c-38 -23 -84 -35 -137 -35
c-72 0 -130 23 -173 70s-65 107 -65 182c0 78 23 142 69 194s105 78 178 78c24 0 47 -3 68 -10z" />
    <glyph glyph-name="uni0189" unicode="&#x189;" horiz-adv-x="701" 
d="M92 0v313h-78v76h78v311h193c247 0 370 -113 370 -341c0 -109 -34 -196 -103 -261s-160 -98 -275 -98h-185zM278 74c182 0 291 102 291 283c0 179 -95 269 -286 269h-109v-237h164v-76h-164v-239h104z" />
    <glyph glyph-name="uni018A" unicode="&#x18a;" horiz-adv-x="741" 
d="M120 626c-52 0 -83 -32 -83 -83c0 -18 3 -35 10 -52h-77c-7 18 -11 39 -11 60c0 43 16 79 48 107s74 42 126 42h192c247 0 370 -113 370 -341c0 -108 -33 -195 -102 -261s-161 -98 -276 -98h-185v626h-12zM318 74c182 0 291 102 291 283c0 179 -96 269 -286 269h-109
v-552h104z" />
    <glyph glyph-name="uni018B" unicode="&#x18b;" horiz-adv-x="572" 
d="M45 195c0 133 102 207 239 207h114v223h-292v75h374v-700h-205c-139 0 -230 61 -230 195zM398 72v257h-113c-102 0 -153 -44 -153 -131c0 -84 50 -126 151 -126h115z" />
    <glyph glyph-name="uni018C" unicode="&#x18c;" horiz-adv-x="587" 
d="M254 -12c-135 0 -207 108 -207 250c0 83 20 149 62 199s98 75 167 75s119 -27 150 -81h2v241h-314v68h393v-740h-79v85h-2c-37 -64 -95 -97 -172 -97zM277 56c92 0 151 76 151 170v74c0 40 -13 74 -40 102s-61 42 -102 42c-107 0 -157 -88 -157 -202
c0 -104 49 -186 148 -186z" />
    <glyph glyph-name="uni018D" unicode="&#x18d;" horiz-adv-x="591" 
d="M460 -106c0 -86 -96 -129 -190 -129c-56 0 -108 12 -155 37v84c49 -35 101 -53 157 -53c71 0 106 21 106 62c0 17 -8 33 -22 48s-54 42 -119 81c-69 41 -117 82 -146 122s-44 83 -44 131c0 67 24 124 71 168s108 67 182 67c73 0 132 -22 177 -64s68 -95 68 -159
c0 -96 -62 -181 -187 -254c40 -27 67 -50 81 -71s21 -44 21 -70zM296 444c-99 0 -167 -62 -167 -160c0 -36 10 -69 31 -100s66 -67 135 -109c64 36 108 71 132 104s36 68 36 105c0 99 -67 160 -167 160z" />
    <glyph glyph-name="uni018E" unicode="&#x18e;" horiz-adv-x="506" 
d="M415 0h-371v74h289v239h-253v74h253v239h-273v74h355v-700z" />
    <glyph glyph-name="uni018F" unicode="&#x18f;" horiz-adv-x="720" 
d="M42 388h546c-6 77 -32 138 -78 183s-104 67 -175 67c-70 0 -131 -16 -182 -47v80c51 27 114 41 188 41c104 0 186 -32 245 -96s89 -153 89 -266c0 -105 -30 -191 -89 -259s-138 -103 -236 -103c-219 0 -308 166 -308 400zM588 314h-458c2 -144 79 -252 221 -252
c145 0 225 112 237 252z" />
    </font>
</defs>
</svg>
