<?xml version="1.0" encoding="utf-8"?>
<!-- Generator: Adobe Illustrator 16.0.0, SVG Export Plug-In . SVG Version: 6.00 Build 0)  -->
<!DOCTYPE svg PUBLIC "-//W3C//DTD SVG 1.1//EN" "http://www.w3.org/Graphics/SVG/1.1/DTD/svg11.dtd">
<svg version="1.1" id="Layer_1" xmlns="http://www.w3.org/2000/svg" xmlns:xlink="http://www.w3.org/1999/xlink" x="0px" y="0px"
	 width="200px" height="80px" viewBox="-63.5 0 200 80" enable-background="new -63.5 0 200 80" xml:space="preserve">
<rect x="-63.5" fill="none" width="200" height="80"/>
<g id="Layer_1_1_">
</g>
<g>
	<rect x="-52.5" y="20" fill="#DB4040" width="40" height="40"/>
	<path fill="#FFFFFF" d="M-27.296,39.581c-0.355,0.331-0.725,0.651-1.063,1.002c-1.556,1.604-3.082,3.235-4.658,4.817
		c-0.761,0.768-1.583,1.484-2.586,1.949c-0.541,0.25-1.106,0.389-1.698,0.238c-0.955-0.242-1.458-1.029-1.403-2.145
		c0.054-1.055,0.412-2.033,0.829-2.985c0.605-1.39,1.266-2.76,1.902-4.138c0.771-1.672,1.561-3.336,2.305-5.021
		c0.244-0.55,0.368-1.153,0.541-1.737c0.032-0.116,0.024-0.245,0.032-0.369c-0.026-0.019-0.052-0.037-0.077-0.056
		c-0.186,0.187-0.402,0.355-0.558,0.566c-0.786,1.064-1.553,2.14-2.333,3.208c-0.832,1.136-1.644,2.293-2.524,3.396
		c-0.359,0.449-0.839,0.836-1.339,1.138c-0.964,0.583-2.069,0.075-2.406-1.029c-0.251-0.821-0.02-1.581,0.332-2.296
		c0.564-1.141,1.201-2.246,1.785-3.377c0.302-0.583,0.558-1.194,0.521-1.874c-0.027-0.444-0.226-0.812-0.576-1.084
		c-0.279-0.214-0.586-0.134-0.873-0.001c-0.637,0.292-1.104,0.777-1.517,1.323c-0.216,0.289-0.508,0.381-0.762,0.233
		c-0.316-0.18-0.43-0.511-0.22-0.832c0.557-0.851,1.268-1.547,2.244-1.921c1.084-0.412,1.98,0.035,2.591,0.993
		c0.466,0.727,0.554,1.518,0.301,2.312c-0.239,0.752-0.561,1.482-0.896,2.195c-0.42,0.895-0.918,1.755-1.334,2.649
		c-0.151,0.32-0.193,0.695-0.234,1.048c-0.016,0.129,0.083,0.303,0.186,0.397c0.041,0.039,0.264-0.047,0.346-0.132
		c0.45-0.465,0.933-0.911,1.303-1.436c1.003-1.423,1.943-2.893,2.938-4.324c0.503-0.723,1.044-1.421,1.619-2.088
		c0.366-0.422,0.821-0.777,1.401-0.892c0.889-0.17,1.72,0.549,1.794,1.522c0.054,0.667-0.025,1.318-0.257,1.934
		c-0.503,1.341-1.006,2.678-1.572,3.99c-0.877,2.021-1.831,4.011-2.703,6.035c-0.317,0.731-0.499,1.521-0.729,2.287
		c-0.047,0.146-0.035,0.305-0.054,0.55c0.295-0.172,0.543-0.291,0.758-0.449c1.015-0.744,1.863-1.658,2.712-2.578
		c1.369-1.478,2.743-2.954,4.148-4.399c0.475-0.489,1.03-0.915,1.688-1.175c1.195-0.472,2.303,0.111,2.578,1.36
		c0.119,0.546,0.057,1.085-0.067,1.626c-0.32,1.422-0.951,2.734-1.493,4.073c-0.487,1.195-0.951,2.398-1.403,3.609
		c-0.118,0.318-0.144,0.668-0.212,1.002c-0.036,0.17,0.059,0.291,0.212,0.281c0.279-0.011,0.578-0.016,0.831-0.117
		c0.832-0.33,1.49-0.916,2.137-1.51c0.471-0.435,0.919-0.891,1.379-1.336c0.385-0.377,0.688-0.379,1.069-0.008
		c0.298,0.287,0.597,0.574,0.884,0.872c0.285,0.291,0.311,0.63,0.023,0.909c-1.198,1.165-2.378,2.359-3.888,3.152
		c-1.012,0.531-2.075,0.822-3.223,0.444c-1.529-0.505-2.192-1.685-1.879-3.295c0.256-1.308,0.786-2.519,1.313-3.731
		c0.605-1.392,1.191-2.791,1.781-4.188c0.071-0.168,0.107-0.352,0.157-0.526C-27.227,39.628-27.263,39.604-27.296,39.581z"/>
</g>
<g>
	<path fill="#333333" d="M8.108,35.435H6.769v-1.308H6.736c-0.583,1.008-1.44,1.512-2.573,1.512c-0.806,0-1.451-0.219-1.937-0.658
		C1.742,34.543,1.5,33.953,1.5,33.212c0-1.558,0.92-2.467,2.762-2.729l2.507-0.352c0-1.416-0.575-2.124-1.723-2.124
		c-1.008,0-1.917,0.341-2.729,1.021v-1.373c0.245-0.185,0.665-0.363,1.258-0.535c0.594-0.171,1.122-0.257,1.584-0.257
		c1.966,0,2.949,1.043,2.949,3.129V35.435z M6.769,31.202l-2.025,0.286c-0.692,0.099-1.176,0.263-1.455,0.495
		c-0.277,0.23-0.417,0.605-0.417,1.123c0,0.419,0.15,0.756,0.449,1.009c0.3,0.253,0.684,0.38,1.152,0.38
		c0.664,0,1.212-0.234,1.646-0.703c0.433-0.468,0.649-1.054,0.649-1.756L6.769,31.202L6.769,31.202z"/>
	<path fill="#333333" d="M17.574,35.435h-1.339v-3.799h-4.263v3.799h-1.339v-8.366h1.339V30.5h4.263v-3.432h1.339V35.435z"/>
	<path fill="#333333" d="M24.933,28.204h-3.308v7.23h-1.339v-8.366h4.647V28.204z"/>
	<path fill="#333333" d="M32.194,35.435h-1.331v-7.23h-1.945c-0.212,2.57-0.578,4.438-1.098,5.601
		c-0.521,1.163-1.265,1.744-2.234,1.744c-0.267,0-0.506-0.038-0.719-0.114v-1.152c0.185,0.099,0.392,0.147,0.621,0.147
		c1.198,0,1.969-2.454,2.312-7.361h4.394V35.435z"/>
	<path fill="#333333" d="M41.914,35.435h-1.201V28.76c-0.104,0.201-0.289,0.531-0.557,0.988l-3.862,5.687h-1.389v-8.366h1.217v6.594
		l0.441-0.801l3.962-5.793h1.389V35.435z"/>
	<path fill="#333333" d="M51.633,35.435h-1.201V28.76c-0.102,0.201-0.287,0.531-0.555,0.988l-3.863,5.687h-1.389v-8.366h1.217v6.594
		l0.441-0.801l3.961-5.793h1.389V35.435z M51.144,23c-0.033,0.37-0.127,0.708-0.282,1.013c-0.155,0.306-0.361,0.566-0.617,0.784
		c-0.256,0.218-0.557,0.387-0.901,0.507c-0.347,0.12-0.726,0.18-1.14,0.18c-0.419,0-0.8-0.059-1.145-0.176
		c-0.343-0.117-0.639-0.283-0.89-0.498s-0.448-0.476-0.592-0.78c-0.145-0.306-0.229-0.648-0.25-1.029h1.315
		c0.017,0.212,0.053,0.411,0.11,0.596c0.058,0.186,0.146,0.348,0.271,0.486c0.121,0.14,0.279,0.249,0.473,0.331
		c0.194,0.082,0.435,0.123,0.723,0.123c0.251,0,0.47-0.043,0.658-0.127s0.346-0.197,0.477-0.339c0.131-0.142,0.234-0.306,0.307-0.49
		c0.075-0.186,0.121-0.379,0.143-0.58L51.144,23L51.144,23z"/>
	<path fill="#333333" d="M59.98,35.051c-0.648,0.392-1.413,0.588-2.296,0.588c-0.762,0-1.445-0.175-2.054-0.527
		c-0.605-0.351-1.08-0.848-1.418-1.49c-0.336-0.643-0.506-1.364-0.506-2.165c0-1.384,0.396-2.495,1.189-3.334
		c0.793-0.838,1.847-1.258,3.164-1.258c0.73,0,1.375,0.142,1.937,0.425v1.372c-0.626-0.436-1.29-0.653-1.993-0.653
		c-0.866,0-1.567,0.31-2.111,0.928c-0.541,0.618-0.813,1.417-0.813,2.397c0,0.976,0.257,1.746,0.771,2.313
		c0.516,0.566,1.206,0.85,2.07,0.85c0.73,0,1.416-0.24,2.06-0.719V35.051z"/>
	<path fill="#333333" d="M68.915,35.435h-1.861l-3.676-3.995h-0.032v3.995h-1.339v-8.366h1.339v3.815h0.032l3.512-3.815h1.771
		l-3.895,4.053L68.915,35.435z"/>
	<path fill="#333333" d="M77.296,35.435h-1.201V28.76c-0.104,0.201-0.289,0.531-0.556,0.988l-3.862,5.687h-1.389v-8.366h1.218v6.594
		l0.44-0.801l3.961-5.793h1.389V35.435L77.296,35.435z"/>
	<path fill="#333333" d="M87.017,35.435h-1.202V28.76c-0.104,0.201-0.289,0.531-0.557,0.988l-3.861,5.687h-1.391v-8.366h1.22v6.594
		l0.438-0.801l3.962-5.793h1.391V35.435z M86.524,23c-0.032,0.37-0.126,0.708-0.282,1.013c-0.154,0.306-0.36,0.566-0.616,0.784
		c-0.255,0.218-0.556,0.387-0.9,0.507c-0.347,0.12-0.727,0.18-1.141,0.18c-0.419,0-0.801-0.059-1.144-0.176
		c-0.344-0.117-0.641-0.283-0.89-0.498c-0.251-0.215-0.448-0.476-0.594-0.78c-0.144-0.306-0.227-0.648-0.248-1.029h1.313
		c0.019,0.212,0.055,0.411,0.112,0.596c0.057,0.186,0.146,0.348,0.269,0.486c0.122,0.14,0.282,0.249,0.474,0.331
		c0.193,0.082,0.435,0.123,0.724,0.123c0.249,0,0.47-0.043,0.656-0.127c0.189-0.084,0.348-0.197,0.479-0.339
		c0.131-0.142,0.232-0.306,0.307-0.49c0.073-0.186,0.121-0.379,0.143-0.58L86.524,23L86.524,23z"/>
	<path fill="#333333" d="M9.643,49.1c0,0.838-0.162,1.584-0.485,2.233c-0.324,0.651-0.782,1.149-1.372,1.499
		c-0.591,0.35-1.271,0.521-2.038,0.521c-1.285,0-2.274-0.457-2.969-1.371c-0.694-0.916-1.042-2.224-1.042-3.922
		c0-3.338,0.815-5.4,2.442-6.186c0.29-0.137,0.625-0.25,1.009-0.344s0.779-0.18,1.184-0.262c0.406-0.082,0.803-0.168,1.192-0.256
		c0.391-0.091,0.732-0.207,1.026-0.349v1.258c-0.256,0.136-0.559,0.241-0.907,0.317c-0.348,0.078-0.706,0.146-1.073,0.207
		c-0.368,0.06-0.726,0.125-1.07,0.199c-0.346,0.072-0.645,0.179-0.895,0.313c-0.855,0.458-1.356,1.602-1.503,3.432h0.033
		c0.29-0.445,0.687-0.795,1.193-1.045c0.506-0.25,1.04-0.375,1.601-0.375c0.725,0,1.366,0.17,1.924,0.51
		c0.558,0.342,0.989,0.828,1.294,1.463C9.491,47.58,9.643,48.298,9.643,49.1z M8.271,49.236c0-0.959-0.233-1.719-0.702-2.282
		c-0.468-0.563-1.103-0.847-1.903-0.847c-1.122,0-1.969,0.533-2.54,1.603l-0.017,0.774c0,1.14,0.237,2.045,0.711,2.718
		c0.474,0.673,1.127,1.009,1.961,1.009c0.734,0,1.333-0.275,1.796-0.824C8.04,50.836,8.271,50.119,8.271,49.236z"/>
	<path fill="#333333" d="M18.391,49.303h-5.905c0.021,0.942,0.271,1.662,0.747,2.16s1.137,0.748,1.98,0.748
		c0.948,0,1.811-0.305,2.59-0.915v1.25c-0.73,0.54-1.7,0.81-2.908,0.81c-1.193,0-2.124-0.385-2.793-1.155s-1.005-1.837-1.005-3.198
		c0-0.828,0.167-1.585,0.502-2.268c0.335-0.685,0.796-1.215,1.385-1.59c0.587-0.375,1.241-0.563,1.96-0.563
		c1.083,0,1.928,0.352,2.536,1.059c0.606,0.705,0.91,1.691,0.91,2.961L18.391,49.303L18.391,49.303z M17.019,48.167
		c-0.011-0.772-0.197-1.373-0.56-1.8c-0.361-0.43-0.873-0.643-1.531-0.643c-0.621,0-1.152,0.223-1.593,0.668
		c-0.44,0.447-0.718,1.039-0.833,1.773L17.019,48.167L17.019,48.167z"/>
	<path fill="#333333" d="M25.75,50.855c0,0.771-0.313,1.383-0.94,1.83c-0.625,0.445-1.467,0.668-2.523,0.668
		c-1.148,0-2.028-0.146-2.638-0.439V51.6c0.724,0.407,1.577,0.611,2.557,0.611c1.476,0,2.213-0.468,2.213-1.404
		c0-0.927-0.809-1.389-2.426-1.389h-0.824v-1.137h0.784c1.421,0,2.132-0.44,2.132-1.323c0-0.376-0.163-0.677-0.486-0.897
		c-0.325-0.225-0.772-0.336-1.344-0.336c-0.811,0-1.625,0.205-2.442,0.612v-1.25c0.931-0.338,1.781-0.506,2.548-0.506
		c2.038,0,3.055,0.748,3.055,2.246c0,0.495-0.155,0.919-0.466,1.271c-0.31,0.353-0.729,0.58-1.257,0.682v0.041
		c0.625,0.057,1.125,0.269,1.499,0.639S25.75,50.294,25.75,50.855z"/>
	<path fill="#333333" d="M39.399,48.714c0,1.417-0.347,2.546-1.038,3.384c-0.692,0.838-1.618,1.258-2.778,1.258
		c-1.1,0-1.936-0.469-2.507-1.405h-0.033V57h-1.339V44.785h1.339v1.471h0.033c0.659-1.117,1.623-1.675,2.891-1.675
		c1.046,0,1.879,0.37,2.499,1.11C39.087,46.434,39.399,47.439,39.399,48.714z M38.025,48.697c0-0.902-0.212-1.625-0.637-2.164
		c-0.424-0.539-1.009-0.809-1.756-0.809c-0.767,0-1.391,0.266-1.87,0.799c-0.479,0.535-0.719,1.215-0.719,2.045v1.166
		c0,0.703,0.23,1.291,0.69,1.767c0.46,0.474,1.028,0.71,1.703,0.71c0.805,0,1.438-0.311,1.899-0.93
		C37.795,50.659,38.025,49.798,38.025,48.697z"/>
	<path fill="#333333" d="M48.128,49.303h-5.904c0.022,0.942,0.271,1.662,0.747,2.16c0.478,0.498,1.137,0.748,1.981,0.748
		c0.946,0,1.811-0.305,2.589-0.915v1.25c-0.73,0.54-1.7,0.81-2.908,0.81c-1.191,0-2.123-0.385-2.792-1.155
		c-0.671-0.771-1.005-1.837-1.005-3.198c0-0.828,0.167-1.585,0.502-2.268c0.336-0.685,0.797-1.215,1.385-1.59
		c0.589-0.375,1.242-0.563,1.96-0.563c1.083,0,1.93,0.352,2.536,1.059c0.606,0.705,0.909,1.691,0.909,2.961V49.303z M46.756,48.167
		c-0.01-0.772-0.196-1.373-0.558-1.8c-0.363-0.43-0.873-0.643-1.532-0.643c-0.621,0-1.151,0.223-1.592,0.668
		c-0.442,0.447-0.719,1.039-0.834,1.773L46.756,48.167L46.756,48.167z"/>
	<path fill="#333333" d="M54.737,45.921h-3.31v7.229h-1.339v-8.365h4.648L54.737,45.921L54.737,45.921z"/>
	<path fill="#333333" d="M63.509,53.15h-1.2v-6.674c-0.104,0.201-0.29,0.529-0.556,0.987L57.89,53.15h-1.389v-8.365h1.218v6.594
		l0.439-0.802l3.963-5.792h1.388V53.15z"/>
	<path fill="#333333" d="M71.855,52.768c-0.646,0.392-1.412,0.588-2.294,0.588c-0.764,0-1.448-0.176-2.055-0.526
		s-1.08-0.849-1.417-1.491c-0.338-0.643-0.506-1.363-0.506-2.165c0-1.384,0.395-2.493,1.188-3.334
		c0.792-0.838,1.847-1.257,3.165-1.257c0.729,0,1.375,0.143,1.936,0.425v1.372c-0.626-0.436-1.291-0.652-1.993-0.652
		c-0.864,0-1.569,0.309-2.11,0.926c-0.543,0.619-0.813,1.418-0.813,2.398c0,0.975,0.258,1.745,0.772,2.313
		c0.514,0.566,1.205,0.85,2.07,0.85c0.729,0,1.416-0.238,2.058-0.719L71.855,52.768L71.855,52.768z"/>
	<path fill="#333333" d="M79.133,45.921h-2.506v7.229h-1.341v-7.229h-2.507v-1.136h6.354V45.921L79.133,45.921z"/>
	<path fill="#333333" d="M88.436,48.714c0,1.417-0.345,2.546-1.037,3.384c-0.69,0.838-1.616,1.258-2.777,1.258
		c-1.099,0-1.935-0.469-2.507-1.405h-0.032V57h-1.341V44.785h1.341v1.471h0.032c0.659-1.117,1.623-1.675,2.892-1.675
		c1.046,0,1.879,0.37,2.5,1.11C88.126,46.434,88.436,47.439,88.436,48.714z M87.063,48.697c0-0.902-0.212-1.625-0.637-2.164
		c-0.425-0.539-1.01-0.809-1.756-0.809c-0.768,0-1.39,0.266-1.87,0.799c-0.479,0.535-0.719,1.215-0.719,2.045v1.166
		c0,0.703,0.229,1.291,0.69,1.767c0.46,0.474,1.027,0.71,1.702,0.71c0.806,0,1.439-0.311,1.898-0.93
		C86.835,50.659,87.063,49.798,87.063,48.697z"/>
	<path fill="#333333" d="M96.212,53.15h-1.339v-1.307h-0.032c-0.583,1.006-1.44,1.51-2.573,1.51c-0.806,0-1.451-0.219-1.936-0.656
		s-0.728-1.027-0.728-1.77c0-1.559,0.92-2.468,2.761-2.729l2.508-0.352c0-1.416-0.575-2.125-1.725-2.125
		c-1.006,0-1.915,0.342-2.727,1.021v-1.372c0.244-0.187,0.663-0.363,1.257-0.535c0.595-0.171,1.122-0.257,1.585-0.257
		c1.967,0,2.948,1.042,2.948,3.129L96.212,53.15L96.212,53.15z M94.873,48.919l-2.026,0.285c-0.691,0.099-1.176,0.265-1.454,0.495
		c-0.277,0.23-0.415,0.605-0.415,1.123c0,0.42,0.148,0.756,0.448,1.009c0.299,0.254,0.684,0.38,1.152,0.38
		c0.664,0,1.212-0.232,1.646-0.702c0.432-0.469,0.649-1.054,0.649-1.757V48.919z"/>
	<path fill="#333333" d="M106.912,56.197h-1.154V53.15h-7.021v-8.365h1.338v7.229h4.263v-7.229h1.342v7.229h1.232V56.197z"/>
	<path fill="#333333" d="M115.781,53.15h-1.201v-6.674c-0.102,0.201-0.287,0.529-0.555,0.987l-3.864,5.687h-1.388v-8.365h1.217
		v6.594l0.441-0.802l3.961-5.792h1.389V53.15z"/>
	<path fill="#333333" d="M125.5,53.15h-1.2v-6.674c-0.104,0.201-0.288,0.529-0.556,0.987l-3.862,5.687h-1.388v-8.365h1.217v6.594
		l0.439-0.802l3.961-5.792h1.389V53.15z"/>
</g>
</svg>
