<?xml version="1.0" encoding="utf-8"?>
<!-- Generator: Adobe Illustrator 16.0.0, SVG Export Plug-In . SVG Version: 6.00 Build 0)  -->
<!DOCTYPE svg PUBLIC "-//W3C//DTD SVG 1.1//EN" "http://www.w3.org/Graphics/SVG/1.1/DTD/svg11.dtd">
<svg version="1.1" id="Layer_1" xmlns="http://www.w3.org/2000/svg" xmlns:xlink="http://www.w3.org/1999/xlink" x="0px" y="0px"
	 width="50px" height="50px" viewBox="0 0 50 50" enable-background="new 0 0 50 50" xml:space="preserve">
<polygon fill="none" points="0,0 0,50 50,50 50,0 0,0 "/>
<path fill-rule="evenodd" clip-rule="evenodd" fill="#FFFFFF" d="M15.048,13h11.361c3.738,0,6.92,1.754,6.916,5.309
	c-0.002,2.966-1.122,4.119-3.421,5.426c0.195,0.153,1.514,0.533,1.955,0.741c0.709,0.335,1.127,0.674,1.594,1.128
	C34.755,26.876,35,28.04,35,30.036c0,4.633-4.671,6.963-9.169,6.963H15L15.048,13L15.048,13z M21.222,19.305l-0.001,3.115
	c2.925,0,5.675,0.368,5.675-2.673c0-2.82-3.111-2.355-5.678-2.355L21.222,19.305L21.222,19.305z M21.219,32.581
	c3.207,0,7.167,0.506,7.237-2.984c0.072-3.644-4.069-2.984-7.235-2.984L21.219,32.581L21.219,32.581z"/>
</svg>
