<?xml version="1.0" encoding="utf-8"?>
<!-- Generator: Adobe Illustrator 16.0.0, SVG Export Plug-In . SVG Version: 6.00 Build 0)  -->
<!DOCTYPE svg PUBLIC "-//W3C//DTD SVG 1.1//EN" "http://www.w3.org/Graphics/SVG/1.1/DTD/svg11.dtd">
<svg version="1.1" id="Layer_1" xmlns="http://www.w3.org/2000/svg" xmlns:xlink="http://www.w3.org/1999/xlink" x="0px" y="0px"
	 width="462px" height="120px" viewBox="0 0 462 120" enable-background="new 0 0 462 120" xml:space="preserve">
<rect fill="#21BBEE" width="462" height="120"/>
<g>
	<polygon fill="#FFFFFF" points="55.399,85.16 30,81.616 30,60.364 55.399,60.364 	"/>
	<polygon fill="#FFFFFF" points="55.399,58.47 30,58.47 30,38.38 55.399,34.836 	"/>
	<polygon fill="#FFFFFF" points="90,90 57.278,85.354 57.278,60.364 90,60.364 	"/>
	<polygon fill="#FFFFFF" points="90,58.47 57.278,58.47 57.278,34.638 90,30 	"/>
</g>
<g>
	<path fill="#FFFFFF" d="M130.331,51.879c-0.96,0.48-2.88,0.96-5.34,0.96c-5.7,0-9.989-3.6-9.989-10.229
		c0-6.33,4.29-10.62,10.56-10.62c2.52,0,4.11,0.54,4.8,0.9l-0.63,2.13c-0.99-0.48-2.4-0.84-4.08-0.84c-4.74,0-7.89,3.03-7.89,8.34
		c0,4.95,2.85,8.129,7.77,8.129c1.59,0,3.21-0.33,4.26-0.84L130.331,51.879z"/>
	<path fill="#FFFFFF" d="M136.121,38.02v6.3h0.63l5.46-6.3h3.21l-6.33,6.57c2.34,0.24,3.75,1.8,4.89,4.41
		c0.39,0.96,0.9,2.37,1.56,3.54h-2.76c-0.39-0.63-0.9-1.77-1.35-2.97c-0.99-2.34-2.34-3.42-4.8-3.42h-0.51v6.39h-2.61V38.02H136.121
		z"/>
	<path fill="#FFFFFF" d="M156.221,52.54l-0.21-1.83h-0.09c-0.81,1.14-2.37,2.16-4.44,2.16c-2.94,0-4.44-2.07-4.44-4.17
		c0-3.51,3.12-5.43,8.73-5.4V43c0-1.2-0.33-3.36-3.3-3.36c-1.35,0-2.76,0.42-3.78,1.08l-0.6-1.74c1.2-0.78,2.94-1.29,4.77-1.29
		c4.44,0,5.52,3.03,5.52,5.94v5.43c0,1.26,0.06,2.49,0.24,3.48H156.221z M155.831,45.13c-2.88-0.06-6.15,0.45-6.15,3.27
		c0,1.71,1.14,2.52,2.49,2.52c1.89,0,3.09-1.2,3.51-2.43c0.09-0.27,0.15-0.57,0.15-0.84V45.13z"/>
	<path fill="#FFFFFF" d="M164.621,38.02v4.77c0,1.83,0.69,3.09,3,3.09c1.14,0,2.31-0.42,3.12-1.02v-6.84h2.61v14.52h-2.61v-5.82
		h-0.06c-0.99,0.66-2.55,1.11-3.93,1.11c-2.76,0-4.77-1.41-4.77-4.74v-5.07H164.621z"/>
	<path fill="#FFFFFF" d="M185.71,52.54l-0.21-1.83h-0.09c-0.81,1.14-2.37,2.16-4.44,2.16c-2.94,0-4.44-2.07-4.44-4.17
		c0-3.51,3.12-5.43,8.73-5.4V43c0-1.2-0.33-3.36-3.3-3.36c-1.35,0-2.76,0.42-3.78,1.08l-0.6-1.74c1.2-0.78,2.939-1.29,4.77-1.29
		c4.44,0,5.52,3.03,5.52,5.94v5.43c0,1.26,0.06,2.49,0.24,3.48H185.71z M185.32,45.13c-2.88-0.06-6.149,0.45-6.149,3.27
		c0,1.71,1.14,2.52,2.49,2.52c1.89,0,3.09-1.2,3.51-2.43c0.09-0.27,0.15-0.57,0.15-0.84V45.13z"/>
	<path fill="#FFFFFF" d="M201.731,38.02v2.1h-4.53V52.54h-2.61V40.12h-4.53v-2.1H201.731z"/>
	<path fill="#FFFFFF" d="M206.591,38.02v4.92c0.6-0.12,1.62-0.15,2.4-0.15c3.27,0,6.72,1.02,6.72,4.89c0,1.5-0.6,2.55-1.53,3.33
		c-1.59,1.35-4.169,1.68-6.299,1.68c-1.47,0-2.82-0.09-3.9-0.21V38.02H206.591z M206.591,50.709c0.51,0.06,1.08,0.12,1.95,0.12
		c1.979,0,4.53-0.66,4.53-3.09c0-2.52-2.64-3.06-4.59-3.06c-0.69,0-1.29,0.06-1.89,0.15V50.709z"/>
	<path fill="#FFFFFF" d="M237.28,38.02v14.52h-2.641V40.12h-6.749V52.54h-2.61V38.02H237.28z"/>
	<path fill="#FFFFFF" d="M241.569,42.76c0-1.86-0.061-3.36-0.119-4.74h2.369l0.119,2.49h0.061c1.08-1.77,2.791-2.82,5.16-2.82
		c3.51,0,6.15,2.97,6.15,7.38c0,5.22-3.182,7.8-6.6,7.8c-1.92,0-3.602-0.84-4.471-2.28h-0.061v7.89h-2.609V42.76z M244.179,46.63
		c0,0.39,0.061,0.75,0.121,1.08c0.479,1.83,2.068,3.09,3.959,3.09c2.791,0,4.41-2.28,4.41-5.61c0-2.91-1.529-5.4-4.32-5.4
		c-1.799,0-3.479,1.29-3.99,3.27c-0.09,0.33-0.18,0.72-0.18,1.08V46.63z"/>
	<path fill="#FFFFFF" d="M261.069,38.02v6.12c0,2.31-0.029,3.75-0.15,5.82l0.09,0.03c0.871-1.77,1.381-2.79,2.34-4.47l4.531-7.5
		h3.09v14.52h-2.521v-6.15c0-2.37,0.061-3.6,0.182-5.939h-0.09c-0.932,1.86-1.561,3.03-2.4,4.5c-1.381,2.25-2.971,5.04-4.529,7.59
		h-3.031V38.02H261.069z"/>
	<path fill="#FFFFFF" d="M286.269,38.02v14.52h-2.609V40.09h-4.98v3.78c0,4.08-0.391,6.81-2.279,8.04
		c-0.721,0.57-1.531,0.9-2.881,0.9l-0.27-2.07c0.51-0.09,1.08-0.3,1.439-0.6c1.35-0.99,1.5-3.03,1.5-6.27v-5.85H286.269z"/>
	<path fill="#FFFFFF" d="M303.728,45.16c0,5.37-3.719,7.71-7.229,7.71c-3.93,0-6.961-2.88-6.961-7.47c0-4.86,3.18-7.71,7.201-7.71
		C300.909,37.69,303.728,40.72,303.728,45.16z M292.208,45.31c0,3.18,1.83,5.58,4.41,5.58c2.52,0,4.41-2.37,4.41-5.64
		c0-2.46-1.23-5.58-4.35-5.58S292.208,42.55,292.208,45.31z"/>
	<path fill="#FFFFFF" d="M308.048,38.02l4.801,6.33h0.539v-6.33h2.52v6.33h0.51l4.801-6.33h3.029l-5.729,6.6
		c2.189,0.24,3.479,1.53,4.35,3.84c0.51,1.41,0.99,2.939,1.59,4.08h-2.641c-0.48-0.87-0.9-2.07-1.32-3.33
		c-0.898-2.37-2.25-3.09-4.139-3.09h-0.451v6.42h-2.52v-6.42h-0.48c-2.039,0-3.27,0.75-4.17,3.12c-0.479,1.26-0.869,2.4-1.379,3.3
		h-2.551c0.602-1.17,1.08-2.7,1.59-4.05c0.9-2.34,2.191-3.63,4.381-3.87l-5.76-6.6H308.048z"/>
	<path fill="#FFFFFF" d="M328.118,45.76c0.061,3.57,2.34,5.04,4.98,5.04c1.889,0,3.029-0.33,4.02-0.75l0.449,1.89
		c-0.93,0.42-2.52,0.9-4.83,0.9c-4.469,0-7.139-2.94-7.139-7.319c0-4.38,2.58-7.83,6.809-7.83c4.74,0,6,4.17,6,6.84
		c0,0.54-0.059,0.96-0.09,1.23H328.118z M335.858,43.87c0.029-1.68-0.689-4.29-3.66-4.29c-2.67,0-3.84,2.46-4.051,4.29H335.858z"/>
	<path fill="#FFFFFF" d="M344.228,38.02v5.85h6.9v-5.85h2.609v14.52h-2.609v-6.57h-6.9v6.57h-2.609V38.02H344.228z"/>
	<path fill="#FFFFFF" d="M360.487,38.02v6.12c0,2.31-0.029,3.75-0.15,5.82l0.09,0.03c0.871-1.77,1.381-2.79,2.34-4.47l4.531-7.5
		h3.09v14.52h-2.521v-6.15c0-2.37,0.061-3.6,0.182-5.939h-0.09c-0.932,1.86-1.561,3.03-2.4,4.5c-1.381,2.25-2.971,5.04-4.529,7.59
		h-3.031V38.02H360.487z"/>
	<path fill="#FFFFFF" d="M376.147,45.76c0.061,3.57,2.34,5.04,4.98,5.04c1.889,0,3.029-0.33,4.02-0.75l0.449,1.89
		c-0.93,0.42-2.52,0.9-4.83,0.9c-4.469,0-7.139-2.94-7.139-7.319c0-4.38,2.58-7.83,6.809-7.83c4.74,0,6,4.17,6,6.84
		c0,0.54-0.059,0.96-0.09,1.23H376.147z M383.888,43.87c0.029-1.68-0.689-4.29-3.66-4.29c-2.67,0-3.84,2.46-4.051,4.29H383.888z"/>
	<path fill="#FFFFFF" d="M407.315,38.02v12.54l1.5,0.03l-0.15,6.569h-2.068l-0.121-4.62h-10.049l-0.121,4.62h-2.068l-0.121-6.569
		l1.23-0.03c0.629-0.93,1.109-1.92,1.439-2.97c0.57-1.8,0.84-3.75,0.84-5.79v-3.78H407.315z M399.966,42.43
		c0,1.92-0.27,3.78-0.75,5.399c-0.299,0.99-0.719,1.89-1.17,2.7h6.689v-10.5h-4.77V42.43z"/>
	<path fill="#FFFFFF" d="M423.126,38.02v14.52h-2.609V40.09h-4.98v3.78c0,4.08-0.391,6.81-2.279,8.04
		c-0.721,0.57-1.531,0.9-2.881,0.9l-0.27-2.07c0.51-0.09,1.08-0.3,1.439-0.6c1.35-0.99,1.5-3.03,1.5-6.27v-5.85H423.126z"/>
	<path fill="#FFFFFF" d="M438.155,52.54h-2.609v-6.09h-1.949c-1.111,0-1.861,0.3-2.43,0.81c-1.08,0.87-1.471,2.67-2.041,4.08
		c-0.18,0.45-0.391,0.84-0.6,1.2h-2.82c0.33-0.48,0.631-1.02,0.9-1.65c0.631-1.41,0.99-3.3,2.279-4.38
		c0.451-0.39,0.99-0.72,1.65-0.84v-0.09c-1.891-0.21-3.84-1.38-3.84-3.6c0-1.5,0.811-2.52,1.92-3.15
		c1.199-0.69,2.971-0.99,4.859-0.99c1.74,0,3.42,0.15,4.68,0.3V52.54z M435.546,39.76c-0.66-0.09-1.26-0.15-2.189-0.15
		c-1.801,0-3.93,0.51-3.93,2.52c0,1.86,2.309,2.52,3.869,2.52c1.08,0,1.65,0,2.25,0V39.76z"/>
</g>
<g>
	<path fill="#FFFFFF" d="M142.263,72.928l-5.934,21.006h-2.885l-4.322-15.366c-0.166-0.576-0.273-1.284-0.322-2.124h-0.059
		c-0.078,0.723-0.209,1.421-0.395,2.095l-4.352,15.396h-2.855l-6.138-21.006h2.695l4.468,16.113
		c0.186,0.713,0.307,1.416,0.365,2.109h0.059c0.049-0.596,0.195-1.299,0.439-2.109l4.658-16.113h2.373l4.439,16.23
		c0.166,0.605,0.283,1.255,0.352,1.948h0.059c0.049-0.508,0.18-1.177,0.395-2.007l4.293-16.172H142.263z"/>
	<path fill="#FFFFFF" d="M147.873,73.558c0,0.449-0.156,0.823-0.469,1.12c-0.313,0.299-0.684,0.447-1.113,0.447
		c-0.439,0-0.811-0.144-1.113-0.432s-0.453-0.667-0.453-1.136c0-0.42,0.148-0.784,0.446-1.091c0.298-0.309,0.671-0.462,1.12-0.462
		s0.826,0.151,1.129,0.454S147.873,73.128,147.873,73.558z M147.462,93.934h-2.402v-15h2.402V93.934z"/>
	<path fill="#FFFFFF" d="M164.777,93.934h-2.402v-8.555c0-3.174-1.162-4.761-3.486-4.761c-1.182,0-2.17,0.446-2.966,1.341
		c-0.796,0.893-1.194,2.033-1.194,3.42v8.555h-2.402v-15h2.402v2.49h0.059c1.123-1.904,2.764-2.856,4.922-2.856
		c1.65,0,2.908,0.537,3.772,1.611s1.296,2.598,1.296,4.57V93.934z"/>
	<path fill="#FFFFFF" d="M181.99,93.934h-2.402v-2.549h-0.059c-1.113,1.943-2.832,2.915-5.156,2.915
		c-1.895,0-3.404-0.681-4.527-2.044c-1.123-1.361-1.684-3.181-1.684-5.456c0-2.48,0.622-4.473,1.867-5.977s2.912-2.256,5.002-2.256
		c2.051,0,3.551,0.811,4.498,2.432h0.059v-9.272h2.402V93.934z M179.587,87.151v-2.212c0-1.24-0.413-2.271-1.238-3.091
		s-1.828-1.23-3.01-1.23c-1.445,0-2.594,0.534-3.443,1.604c-0.85,1.068-1.273,2.551-1.273,4.445c0,1.719,0.4,3.079,1.201,4.08
		s1.879,1.501,3.236,1.501c1.318,0,2.402-0.479,3.252-1.436S179.587,88.636,179.587,87.151z"/>
	<path fill="#FFFFFF" d="M200.476,86.375c0,2.383-0.677,4.299-2.029,5.75c-1.353,1.449-3.166,2.175-5.441,2.175
		c-2.217,0-3.987-0.705-5.311-2.116s-1.984-3.27-1.984-5.574c0-2.48,0.678-4.44,2.035-5.881s3.229-2.161,5.611-2.161
		c2.227,0,3.969,0.696,5.229,2.087C199.845,82.047,200.476,83.953,200.476,86.375z M198.015,86.463c0-1.885-0.418-3.33-1.253-4.336
		s-2.028-1.509-3.581-1.509c-1.543,0-2.764,0.516-3.662,1.546s-1.348,2.482-1.348,4.357c0,1.797,0.451,3.201,1.354,4.211
		c0.903,1.012,2.122,1.517,3.655,1.517c1.563,0,2.758-0.498,3.588-1.494S198.015,88.328,198.015,86.463z"/>
	<path fill="#FFFFFF" d="M223.093,78.934l-4.498,15h-2.49l-3.09-10.737c-0.107-0.371-0.186-0.83-0.234-1.377h-0.059
		c-0.029,0.342-0.133,0.791-0.309,1.348l-3.354,10.767h-2.402l-4.527-15h2.52l3.092,11.279c0.098,0.391,0.166,0.84,0.205,1.348
		h0.117c0.02-0.371,0.111-0.83,0.277-1.377l3.443-11.25h2.197l3.119,11.309c0.098,0.381,0.166,0.83,0.205,1.348h0.117
		c0.02-0.469,0.098-0.918,0.234-1.348l3.063-11.309H223.093z"/>
	<path fill="#FFFFFF" d="M234.078,89.92c0,1.299-0.5,2.354-1.5,3.164c-1.002,0.811-2.333,1.216-3.993,1.216
		c-1.416,0-2.656-0.303-3.721-0.908v-2.578c1.182,0.957,2.48,1.436,3.896,1.436c1.904,0,2.856-0.698,2.856-2.095
		c0-0.566-0.185-1.027-0.555-1.385c-0.371-0.355-1.217-0.837-2.535-1.442c-1.328-0.566-2.266-1.174-2.813-1.823
		s-0.82-1.512-0.82-2.586c0-1.24,0.498-2.275,1.494-3.105s2.262-1.245,3.795-1.245c1.181,0,2.25,0.234,3.208,0.703v2.417
		c-0.977-0.713-2.109-1.069-3.399-1.069c-0.791,0-1.428,0.195-1.912,0.586c-0.482,0.391-0.725,0.894-0.725,1.509
		c0,0.664,0.186,1.175,0.557,1.531s1.139,0.778,2.301,1.267c1.424,0.605,2.426,1.24,3.002,1.904S234.078,88.914,234.078,89.92z"/>
	<path fill="#FFFFFF" d="M257.75,79.197c0,2.031-0.701,3.67-2.102,4.914c-1.402,1.246-3.24,1.868-5.516,1.868h-2.768v7.954h-2.461
		V72.928h5.771c2.246,0,3.986,0.549,5.223,1.648C257.133,75.674,257.75,77.215,257.75,79.197z M255.172,79.329
		c0-2.783-1.641-4.175-4.922-4.175h-2.885v8.613h2.578c1.689,0,2.982-0.383,3.881-1.15
		C254.723,81.852,255.172,80.755,255.172,79.329z"/>
	<path fill="#FFFFFF" d="M273.834,93.934h-2.402v-8.643c0-3.115-1.162-4.673-3.486-4.673c-1.201,0-2.195,0.457-2.98,1.37
		c-0.787,0.913-1.18,2.063-1.18,3.449v8.496h-2.402V71.727h2.402v9.697h0.059c1.152-1.904,2.793-2.856,4.922-2.856
		c3.379,0,5.068,2.041,5.068,6.123V93.934z"/>
	<path fill="#FFFFFF" d="M291.984,86.375c0,2.383-0.678,4.299-2.029,5.75c-1.354,1.449-3.166,2.175-5.441,2.175
		c-2.217,0-3.988-0.705-5.311-2.116c-1.324-1.411-1.984-3.27-1.984-5.574c0-2.48,0.678-4.44,2.035-5.881s3.229-2.161,5.611-2.161
		c2.227,0,3.969,0.696,5.229,2.087C291.354,82.047,291.984,83.953,291.984,86.375z M289.523,86.463c0-1.885-0.418-3.33-1.252-4.336
		c-0.836-1.006-2.029-1.509-3.582-1.509c-1.543,0-2.764,0.516-3.662,1.546s-1.348,2.482-1.348,4.357
		c0,1.797,0.451,3.201,1.355,4.211c0.902,1.012,2.121,1.517,3.654,1.517c1.563,0,2.758-0.498,3.588-1.494
		S289.523,88.328,289.523,86.463z"/>
	<path fill="#FFFFFF" d="M308.156,93.934h-2.402v-8.555c0-3.174-1.162-4.761-3.486-4.761c-1.182,0-2.172,0.446-2.967,1.341
		c-0.797,0.893-1.193,2.033-1.193,3.42v8.555h-2.402v-15h2.402v2.49h0.059c1.123-1.904,2.764-2.856,4.922-2.856
		c1.65,0,2.908,0.537,3.771,1.611c0.865,1.074,1.297,2.598,1.297,4.57V93.934z"/>
	<path fill="#FFFFFF" d="M324.621,87.034h-10.592c0.039,1.689,0.486,2.981,1.34,3.874c0.855,0.895,2.039,1.341,3.553,1.341
		c1.699,0,3.248-0.547,4.645-1.641v2.241c-1.309,0.967-3.047,1.45-5.215,1.45c-2.139,0-3.809-0.69-5.01-2.073
		c-1.201-1.381-1.803-3.293-1.803-5.734c0-1.484,0.301-2.839,0.9-4.064c0.602-1.226,1.43-2.176,2.484-2.85s2.227-1.011,3.516-1.011
		c1.943,0,3.459,0.633,4.547,1.897c1.09,1.265,1.635,3.034,1.635,5.31V87.034z M322.16,84.998c-0.02-1.387-0.355-2.463-1.004-3.23
		c-0.65-0.766-1.564-1.149-2.746-1.149c-1.113,0-2.066,0.4-2.857,1.201s-1.289,1.86-1.494,3.179H322.16z"/>
</g>
</svg>
