<?xml version="1.0" encoding="utf-8"?>
<!-- Generator: Adobe Illustrator 16.0.0, SVG Export Plug-In . SVG Version: 6.00 Build 0)  -->
<!DOCTYPE svg PUBLIC "-//W3C//DTD SVG 1.1//EN" "http://www.w3.org/Graphics/SVG/1.1/DTD/svg11.dtd">
<svg version="1.1" id="Layer_1" xmlns="http://www.w3.org/2000/svg" xmlns:xlink="http://www.w3.org/1999/xlink" x="0px" y="0px"
	 width="462px" height="120px" viewBox="0 0 462 120" enable-background="new 0 0 462 120" xml:space="preserve">
<rect fill="#231F20" width="462" height="120"/>
<path fill="#FFFFFF" d="M34.09,48.608c2.26,0,4.092,1.833,4.092,4.091v16.366c0,2.258-1.832,4.09-4.092,4.09
	c-2.259,0-4.09-1.832-4.09-4.09V52.699C30,50.441,31.831,48.608,34.09,48.608z M85.909,48.608c2.261,0,4.091,1.833,4.091,4.091
	v16.366c0,2.258-1.83,4.09-4.091,4.09c-2.257,0-4.091-1.832-4.091-4.09V52.699C81.818,50.441,83.653,48.608,85.909,48.608z
	 M40.908,48.608h38.184v28.636c0,2.263-1.833,4.092-4.089,4.092H70.91v8.184c0,2.26-1.832,4.09-4.09,4.09
	c-2.261,0-4.092-1.83-4.092-4.09v-8.184h-5.455v8.184c0,2.26-1.831,4.09-4.091,4.09c-2.259,0-4.092-1.83-4.092-4.09v-8.184H45
	c-2.26,0-4.092-1.829-4.092-4.092V48.608L40.908,48.608z M45.682,26.79c0.532-0.532,1.396-0.532,1.928,0l4.471,4.47
	c2.542-1.114,5.274-1.742,7.92-1.742c2.668,0,5.427,0.638,7.987,1.771l4.5-4.5c0.532-0.532,1.396-0.532,1.93,0
	c0.531,0.533,0.531,1.396,0,1.929l-3.895,3.894c4.9,2.972,8.57,7.808,8.57,13.269H40.908c0-5.482,3.701-10.336,8.631-13.306
	l-3.857-3.857C45.149,28.186,45.149,27.322,45.682,26.79z M53.182,36.335c-1.507,0-2.727,1.221-2.727,2.728
	c0,1.506,1.22,2.728,2.727,2.728c1.506,0,2.728-1.221,2.728-2.728S54.688,36.335,53.182,36.335z M66.82,36.335
	c-1.506,0-2.729,1.221-2.729,2.728c0,1.506,1.223,2.728,2.729,2.728c1.504,0,2.725-1.221,2.725-2.728S68.324,36.335,66.82,36.335z"
	/>
<g>
	<path fill="#FFFFFF" d="M129.816,47.184c-0.215,1.97-0.934,3.541-2.155,4.713c-1.222,1.173-2.912,1.759-5.069,1.759
		c-2.256,0-4.064-0.77-5.425-2.31c-1.36-1.54-2.041-3.545-2.041-6.016V41.88c0-2.462,0.681-4.467,2.041-6.016
		c1.361-1.549,3.169-2.323,5.425-2.323c2.193,0,3.892,0.566,5.096,1.699c1.204,1.133,1.914,2.737,2.128,4.814h-2.484
		c-0.224-1.486-0.701-2.607-1.43-3.364c-0.729-0.756-1.833-1.134-3.31-1.134c-1.54,0-2.755,0.593-3.646,1.779
		c-0.891,1.187-1.336,2.692-1.336,4.519v3.478c0,1.844,0.445,3.359,1.336,4.545c0.891,1.187,2.106,1.779,3.646,1.779
		c1.486,0,2.592-0.367,3.317-1.101s1.2-1.857,1.423-3.371H129.816z"/>
	<path fill="#FFFFFF" d="M137.363,47.157h-1.813v6.217h-2.498V38.845h2.498v6.164h1.625l4.888-6.164h3.008l-5.773,6.969l6.257,7.56
		h-3.155L137.363,47.157z"/>
	<path fill="#FFFFFF" d="M156.726,53.374c-0.09-0.457-0.157-0.833-0.202-1.128s-0.076-0.604-0.094-0.927
		c-0.519,0.681-1.164,1.238-1.934,1.672c-0.77,0.434-1.616,0.651-2.538,0.651c-1.531,0-2.684-0.378-3.458-1.135
		c-0.774-0.756-1.162-1.819-1.162-3.189c0-1.415,0.555-2.506,1.665-3.276s2.65-1.155,4.619-1.155h2.806v-1.477
		c0-0.886-0.273-1.578-0.819-2.075c-0.546-0.497-1.325-0.745-2.336-0.745c-0.94,0-1.699,0.222-2.276,0.665
		c-0.578,0.443-0.866,0.982-0.866,1.618h-2.484c0-1.119,0.532-2.115,1.598-2.988c1.065-0.873,2.453-1.309,4.163-1.309
		c1.674,0,3.01,0.412,4.008,1.235c0.998,0.824,1.497,2.032,1.497,3.625v7.009c0,0.519,0.027,1.016,0.081,1.491
		c0.054,0.474,0.152,0.953,0.295,1.437H156.726z M152.321,51.508c0.931,0,1.766-0.215,2.504-0.645
		c0.739-0.43,1.273-0.958,1.604-1.585v-2.672h-2.887c-1.155,0-2.063,0.271-2.726,0.813c-0.663,0.542-0.994,1.193-0.994,1.954
		c0,0.671,0.208,1.195,0.625,1.571C150.864,51.319,151.488,51.508,152.321,51.508z"/>
	<path fill="#FFFFFF" d="M173.725,53.374h-2.498v-5.291c-0.555,0.152-1.099,0.264-1.631,0.335c-0.533,0.072-1.108,0.107-1.725,0.107
		c-1.809,0-3.196-0.447-4.163-1.343c-0.967-0.895-1.45-2.273-1.45-4.136v-4.216h2.484v4.216c0,1.227,0.255,2.108,0.766,2.646
		c0.51,0.537,1.298,0.806,2.363,0.806c0.617,0,1.197-0.036,1.739-0.107c0.542-0.072,1.081-0.184,1.618-0.336v-7.21h2.498V53.374z"/>
	<path fill="#FFFFFF" d="M186.736,53.374c-0.09-0.457-0.157-0.833-0.202-1.128s-0.076-0.604-0.094-0.927
		c-0.519,0.681-1.164,1.238-1.934,1.672c-0.77,0.434-1.616,0.651-2.538,0.651c-1.531,0-2.684-0.378-3.458-1.135
		c-0.774-0.756-1.162-1.819-1.162-3.189c0-1.415,0.555-2.506,1.665-3.276s2.65-1.155,4.619-1.155h2.806v-1.477
		c0-0.886-0.273-1.578-0.819-2.075c-0.546-0.497-1.325-0.745-2.336-0.745c-0.94,0-1.699,0.222-2.276,0.665
		c-0.578,0.443-0.866,0.982-0.866,1.618h-2.484c0-1.119,0.532-2.115,1.598-2.988c1.065-0.873,2.453-1.309,4.163-1.309
		c1.674,0,3.01,0.412,4.008,1.235c0.998,0.824,1.497,2.032,1.497,3.625v7.009c0,0.519,0.027,1.016,0.081,1.491
		c0.054,0.474,0.152,0.953,0.295,1.437H186.736z M182.332,51.508c0.931,0,1.766-0.215,2.504-0.645
		c0.739-0.43,1.273-0.958,1.604-1.585v-2.672h-2.887c-1.155,0-2.063,0.271-2.726,0.813c-0.663,0.542-0.994,1.193-0.994,1.954
		c0,0.671,0.208,1.195,0.625,1.571C180.875,51.319,181.499,51.508,182.332,51.508z"/>
	<path fill="#FFFFFF" d="M203.347,40.833h-4.874v12.542h-2.484V40.833h-4.78v-1.987h12.139V40.833z"/>
	<path fill="#FFFFFF" d="M208.476,43.867h3.693c1.745,0,3.086,0.428,4.021,1.282c0.935,0.855,1.403,1.994,1.403,3.417
		c0,1.432-0.47,2.591-1.41,3.478c-0.94,0.886-2.278,1.329-4.015,1.329h-6.177V38.845h2.484V43.867z M208.476,45.868v5.505h3.693
		c1.021,0,1.763-0.255,2.229-0.765c0.466-0.51,0.698-1.159,0.698-1.947c0-0.77-0.235-1.428-0.705-1.974
		c-0.47-0.546-1.211-0.819-2.222-0.819H208.476z"/>
	<path fill="#FFFFFF" d="M239.387,53.374h-2.484V40.873h-6.688v12.501h-2.497V38.845h11.669V53.374z"/>
	<path fill="#FFFFFF" d="M255.728,46.646c0,2.148-0.49,3.852-1.471,5.109c-0.979,1.258-2.37,1.887-4.169,1.887
		c-0.922,0-1.719-0.15-2.391-0.45c-0.671-0.3-1.244-0.75-1.719-1.35l-0.04,0.013v7.104h-2.497V38.845h2.135l0.242,1.853
		c0.482-0.698,1.069-1.227,1.759-1.584s1.513-0.537,2.471-0.537c1.826,0,3.229,0.701,4.209,2.102
		c0.98,1.401,1.471,3.296,1.471,5.687V46.646z M253.23,46.365c0-1.71-0.322-3.09-0.967-4.143c-0.645-1.052-1.625-1.578-2.941-1.578
		c-0.814,0-1.497,0.179-2.048,0.537c-0.55,0.358-0.995,0.851-1.336,1.477v7.009c0.358,0.636,0.808,1.124,1.35,1.464
		c0.542,0.34,1.229,0.51,2.062,0.51c1.307,0,2.28-0.454,2.92-1.363c0.641-0.908,0.961-2.119,0.961-3.632V46.365z"/>
	<path fill="#FFFFFF" d="M268.35,38.845h2.484v14.529h-2.484V42.753h-0.04l-6.66,10.621h-2.484V38.845h2.484v10.608h0.04
		L268.35,38.845z"/>
	<path fill="#FFFFFF" d="M286.732,38.845v14.529h-2.497V40.873h-4.928l-0.175,4.203c-0.135,2.99-0.54,5.121-1.216,6.392
		s-1.913,1.907-3.713,1.907h-0.725l0.054-2.175l0.537-0.013c0.94,0,1.575-0.432,1.907-1.296c0.331-0.864,0.555-2.469,0.671-4.814
		l0.269-6.23H286.732z"/>
	<path fill="#FFFFFF" d="M290.13,45.962c0-2.193,0.573-3.972,1.719-5.337s2.73-2.048,4.754-2.048c2.041,0,3.636,0.683,4.786,2.048
		s1.726,3.144,1.726,5.337v0.322c0,2.202-0.572,3.979-1.719,5.331c-1.146,1.352-2.734,2.027-4.767,2.027
		c-2.041,0-3.635-0.676-4.78-2.027c-1.146-1.352-1.719-3.129-1.719-5.331V45.962z M292.628,46.284c0,1.584,0.331,2.874,0.993,3.867
		s1.665,1.49,3.008,1.49c1.325,0,2.323-0.499,2.994-1.497c0.672-0.998,1.007-2.285,1.007-3.86v-0.322
		c0-1.558-0.338-2.842-1.014-3.854c-0.676-1.012-1.681-1.518-3.014-1.518c-1.325,0-2.319,0.506-2.981,1.518
		c-0.662,1.011-0.993,2.296-0.993,3.854V46.284z"/>
	<path fill="#FFFFFF" d="M317.59,47.036h-1.732v6.338h-2.484v-6.338h-1.746l-4.068,6.338h-3.142l5.317-7.667l-4.82-6.862h3.008
		l3.746,6.029h1.705v-6.029h2.484v6.029h1.691l3.773-6.029h3.008l-4.834,6.862l5.317,7.667h-3.142L317.59,47.036z"/>
	<path fill="#FFFFFF" d="M332.843,53.643c-2.041,0-3.652-0.66-4.834-1.98s-1.771-3.073-1.771-5.257v-0.604
		c0-2.113,0.605-3.845,1.819-5.196c1.213-1.352,2.674-2.028,4.384-2.028c1.97,0,3.448,0.578,4.438,1.732
		c0.989,1.155,1.484,2.735,1.484,4.74v1.625h-9.628c0.036,1.486,0.405,2.686,1.107,3.599c0.703,0.913,1.703,1.369,3.001,1.369
		c0.904,0,1.686-0.125,2.344-0.376c0.658-0.25,1.251-0.604,1.779-1.061l0.98,1.651c-0.528,0.52-1.207,0.947-2.035,1.283
		C335.083,53.475,334.061,53.643,332.843,53.643z M332.44,40.591c-0.939,0-1.734,0.378-2.384,1.135
		c-0.648,0.756-1.063,1.739-1.241,2.947h7.063v-0.349c0-1.083-0.286-1.976-0.859-2.679S333.586,40.591,332.44,40.591z"/>
	<path fill="#FFFFFF" d="M353.16,53.374h-2.484v-6.23h-6.674v6.23h-2.497V38.845h2.497v6.311h6.674v-6.311h2.484V53.374z"/>
	<path fill="#FFFFFF" d="M366.547,38.845h2.484v14.529h-2.484V42.753h-0.04l-6.66,10.621h-2.484V38.845h2.484v10.608h0.04
		L366.547,38.845z"/>
	<path fill="#FFFFFF" d="M379.062,53.643c-2.041,0-3.652-0.66-4.834-1.98s-1.771-3.073-1.771-5.257v-0.604
		c0-2.113,0.605-3.845,1.819-5.196c1.213-1.352,2.674-2.028,4.384-2.028c1.97,0,3.448,0.578,4.438,1.732
		c0.989,1.155,1.484,2.735,1.484,4.74v1.625h-9.628c0.036,1.486,0.405,2.686,1.107,3.599c0.703,0.913,1.703,1.369,3.001,1.369
		c0.904,0,1.686-0.125,2.344-0.376c0.658-0.25,1.251-0.604,1.779-1.061l0.98,1.651c-0.528,0.52-1.207,0.947-2.035,1.283
		C381.302,53.475,380.279,53.643,379.062,53.643z M378.659,40.591c-0.939,0-1.734,0.378-2.384,1.135
		c-0.648,0.756-1.063,1.739-1.241,2.947h7.063v-0.349c0-1.083-0.286-1.976-0.859-2.679S379.805,40.591,378.659,40.591z"/>
	<path fill="#FFFFFF" d="M394.194,51.373c0.761-0.895,1.339-1.801,1.732-2.719s0.658-2.375,0.792-4.371l0.215-5.438h9.359v12.528
		h1.866v6.271h-2.483v-4.27h-10.139v4.27h-2.484l0.014-6.271H394.194z M399.203,44.283c-0.099,1.674-0.327,3.078-0.685,4.21
		c-0.358,1.132-0.833,2.092-1.424,2.88h6.714V41.114h-4.471L399.203,44.283z"/>
	<path fill="#FFFFFF" d="M422.822,38.845v14.529h-2.497V40.873h-4.928l-0.175,4.203c-0.135,2.99-0.54,5.121-1.216,6.392
		s-1.913,1.907-3.713,1.907h-0.725l0.054-2.175l0.537-0.013c0.94,0,1.575-0.432,1.907-1.296c0.331-0.864,0.555-2.469,0.671-4.814
		l0.269-6.23H422.822z"/>
	<path fill="#FFFFFF" d="M437.915,38.845v14.529h-2.497v-5.667h-3.733l-3.438,5.667h-2.686l3.666-6.029
		c-0.949-0.331-1.67-0.848-2.162-1.551c-0.492-0.703-0.738-1.542-0.738-2.518c0-1.325,0.481-2.395,1.443-3.209
		c0.962-0.815,2.321-1.222,4.075-1.222H437.915z M428.825,43.303c0,0.68,0.221,1.251,0.664,1.712
		c0.443,0.461,1.126,0.692,2.048,0.692h3.881v-4.875h-3.572c-1.021,0-1.779,0.24-2.275,0.718
		C429.073,42.03,428.825,42.614,428.825,43.303z"/>
</g>
<g>
	<path fill="#FFFFFF" d="M127.815,89.54h-8.231l-1.92,5.21h-2.538l7.547-19.551h2.148l7.425,19.551h-2.538L127.815,89.54z
		 M120.323,87.539h6.768l-3.357-9.265L120.323,87.539z"/>
	<path fill="#FFFFFF" d="M136.973,80.221l0.175,2.176l0.04,0.014c0.475-0.779,1.076-1.383,1.806-1.813
		c0.729-0.43,1.573-0.645,2.531-0.645c1.585,0,2.798,0.447,3.639,1.342c0.841,0.896,1.262,2.323,1.262,4.284v9.171h-2.498v-9.117
		c0-1.334-0.253-2.27-0.759-2.807s-1.3-0.806-2.383-0.806c-0.814,0-1.52,0.192-2.115,0.577c-0.596,0.385-1.077,0.922-1.444,1.611
		V94.75h-2.497V80.221H136.973z"/>
	<path fill="#FFFFFF" d="M149.703,87.74c0-2.381,0.488-4.273,1.464-5.68c0.976-1.405,2.376-2.107,4.203-2.107
		c0.895,0,1.669,0.16,2.323,0.482c0.654,0.322,1.213,0.797,1.679,1.424l0.04-0.014v-8.043h2.484V94.75h-2.162l-0.215-1.813
		c-0.483,0.698-1.065,1.22-1.745,1.564c-0.681,0.344-1.491,0.517-2.431,0.517c-1.799,0-3.189-0.631-4.169-1.894
		c-0.98-1.262-1.47-2.963-1.47-5.103V87.74z M152.187,88.022c0,1.522,0.302,2.724,0.906,3.605c0.604,0.882,1.56,1.323,2.867,1.323
		c0.841,0,1.535-0.184,2.082-0.551c0.546-0.367,1.002-0.891,1.369-1.571v-6.741c-0.358-0.645-0.814-1.15-1.369-1.517
		c-0.555-0.367-1.24-0.551-2.055-0.551c-1.316,0-2.278,0.523-2.887,1.571c-0.609,1.047-0.913,2.43-0.913,4.148V88.022z"/>
	<path fill="#FFFFFF" d="M172.852,82.464l-1.45-0.081c-0.761,0-1.388,0.175-1.88,0.523c-0.492,0.35-0.873,0.852-1.142,1.504v10.34
		h-2.497V80.221h2.229l0.242,2.108l0.04,0.014c0.403-0.752,0.909-1.339,1.518-1.759c0.608-0.421,1.325-0.631,2.148-0.631
		c0.215,0,0.427,0.016,0.638,0.047c0.21,0.031,0.374,0.064,0.49,0.101L172.852,82.464z"/>
	<path fill="#FFFFFF" d="M174.544,87.338c0-2.193,0.573-3.973,1.719-5.338s2.73-2.047,4.753-2.047c2.041,0,3.637,0.682,4.787,2.047
		c1.15,1.365,1.725,3.145,1.725,5.338v0.322c0,2.202-0.573,3.979-1.719,5.331c-1.146,1.352-2.734,2.027-4.767,2.027
		c-2.041,0-3.634-0.676-4.78-2.027c-1.146-1.353-1.719-3.129-1.719-5.331V87.338z M177.042,87.66c0,1.584,0.331,2.873,0.994,3.867
		s1.665,1.49,3.008,1.49c1.325,0,2.323-0.498,2.994-1.497c0.672-0.998,1.007-2.284,1.007-3.86v-0.322
		c0-1.558-0.338-2.842-1.014-3.854c-0.676-1.012-1.681-1.518-3.015-1.518c-1.325,0-2.318,0.506-2.981,1.518
		s-0.994,2.296-0.994,3.854V87.66z"/>
	<path fill="#FFFFFF" d="M193.477,76.461h-2.484v-2.658h2.484V76.461z M193.477,94.75h-2.484V80.221h2.484V94.75z"/>
	<path fill="#FFFFFF" d="M196.995,87.74c0-2.381,0.488-4.273,1.464-5.68c0.976-1.405,2.376-2.107,4.203-2.107
		c0.895,0,1.669,0.16,2.323,0.482c0.654,0.322,1.213,0.797,1.679,1.424l0.04-0.014v-8.043h2.484V94.75h-2.162l-0.215-1.813
		c-0.483,0.698-1.065,1.22-1.745,1.564c-0.681,0.344-1.491,0.517-2.431,0.517c-1.799,0-3.189-0.631-4.169-1.894
		c-0.98-1.262-1.47-2.963-1.47-5.103V87.74z M199.479,88.022c0,1.522,0.302,2.724,0.906,3.605c0.604,0.882,1.56,1.323,2.867,1.323
		c0.841,0,1.535-0.184,2.082-0.551c0.546-0.367,1.002-0.891,1.369-1.571v-6.741c-0.358-0.645-0.814-1.15-1.369-1.517
		c-0.555-0.367-1.24-0.551-2.055-0.551c-1.316,0-2.278,0.523-2.887,1.571c-0.609,1.047-0.913,2.43-0.913,4.148V88.022z"/>
</g>
</svg>
