<?xml version="1.0" encoding="utf-8"?>
<!-- Generator: Adobe Illustrator 16.0.0, SVG Export Plug-In . SVG Version: 6.00 Build 0)  -->
<!DOCTYPE svg PUBLIC "-//W3C//DTD SVG 1.1//EN" "http://www.w3.org/Graphics/SVG/1.1/DTD/svg11.dtd">
<svg version="1.1" id="Layer_1" xmlns="http://www.w3.org/2000/svg" xmlns:xlink="http://www.w3.org/1999/xlink" x="0px" y="0px"
	 width="200px" height="200px" viewBox="0 0 200 200" enable-background="new 0 0 200 200" xml:space="preserve">
<path fill="#C1C1C3" d="M139.568,150.474c-1.789,0.124-3.749-0.705-3.771-2.749c-0.025-2.376,2.775-2.481,4.439-2.012
	c0.389,0.11,0.553-0.493,0.166-0.603c-2.015-0.568-4.967-0.295-5.211,2.333c-0.233,2.511,2.162,3.81,4.377,3.655
	C139.969,151.072,139.971,150.447,139.568,150.474L139.568,150.474z"/>
<path fill="#C1C1C3" d="M140.495,145.205c-0.391-1.351-1.073-2.543-0.406-4.01c0.44-0.971,1.616-1.51,2.57-1.773
	c1.839-0.509,4.026,0.107,5.438,1.337c0.303,0.263,0.746-0.177,0.442-0.442c-1.755-1.527-4.188-2.012-6.417-1.395
	c-1.092,0.301-1.951,1.039-2.574,1.958c-0.941,1.388-0.059,3.099,0.344,4.491C140.004,145.756,140.607,145.592,140.495,145.205
	L140.495,145.205z"/>
<path fill="#C1C1C3" d="M148.745,140.58c-0.613-1.933,2.222-3.196,3.626-3.647c2.102-0.675,4.711-0.421,5.521,1.938
	c0.13,0.379,0.734,0.216,0.603-0.166c-0.946-2.757-3.791-3.065-6.29-2.375c-1.777,0.49-4.787,2.134-4.063,4.416
	C148.264,141.128,148.867,140.964,148.745,140.58L148.745,140.58z"/>
<path fill="#C1C1C3" d="M158.415,138.883c1.954-1.636,4.833-2.556,7.359-1.973c1.901,0.438,5.851,2.251,3.198,4.405
	c-0.313,0.254,0.133,0.693,0.442,0.442c2.438-1.981,0.376-3.883-1.795-4.87c-3.208-1.461-6.979-0.678-9.647,1.553
	C157.664,138.701,158.107,139.14,158.415,138.883L158.415,138.883z"/>
<path fill="#C1C1C3" d="M169.402,142.088c1.73-0.302,4.059-0.573,5.265,1.005c1.304,1.707-1.826,3.303-3.056,3.643
	c-0.389,0.107-0.224,0.71,0.166,0.603c1.69-0.466,4.26-1.936,3.683-4.05c-0.679-2.486-4.36-2.128-6.224-1.803
	C168.84,141.555,169.008,142.158,169.402,142.088L169.402,142.088z"/>
<path fill="#C1C1C3" d="M139.143,150.705c-0.526,1.678,2.508,2.98,3.652,3.307c2.096,0.598,4.743,0.322,6.245-1.378
	c0.266-0.302-0.175-0.745-0.442-0.442c-1.128,1.277-2.762,1.521-4.387,1.43c-0.719-0.04-1.412-0.241-2.087-0.477
	c-0.667-0.234-2.67-1.346-2.379-2.273C139.866,150.484,139.263,150.321,139.143,150.705L139.143,150.705z"/>
<path fill="#C1C1C3" d="M148.223,152.633c2.725,2.202,11.416,3.743,12.147-1.263c0.058-0.395-0.544-0.564-0.603-0.166
	c-0.643,4.398-8.682,2.942-11.103,0.986C148.354,151.941,147.909,152.38,148.223,152.633L148.223,152.633z"/>
<path fill="#C1C1C3" d="M159.661,151.557c4.679,2.428,13.126,3.272,12.345-4.271c-0.041-0.396-0.666-0.4-0.625,0
	c0.73,7.052-7.18,5.922-11.404,3.73C159.619,150.832,159.303,151.371,159.661,151.557L159.661,151.557z"/>
<path fill="#C1C1C3" d="M47.023,145.689c3.293,3.637,5.12,8.146,6.67,12.737c0.128,0.38,0.732,0.217,0.603-0.166
	c-1.583-4.69-3.466-9.298-6.831-13.013C47.194,144.948,46.753,145.391,47.023,145.689L47.023,145.689z"/>
<path fill="#C1C1C3" d="M54.505,141.551c0.783,2.04,1.933,3.979,2.822,5.983c1.035,2.334,2.291,4.437,4.133,6.217
	c0.29,0.28,0.732-0.161,0.442-0.441c-1.819-1.758-2.994-3.814-4.035-6.092c-0.884-1.933-2-3.854-2.759-5.833
	C54.965,141.013,54.36,141.174,54.505,141.551L54.505,141.551z"/>
<path fill="#C1C1C3" d="M47.59,145.56c-1.509-1.549,2.187-2.776,3.028-3.15c1.294-0.576,3.891-2.081,4.325,0.204
	c0.075,0.396,0.677,0.228,0.603-0.166c-0.508-2.675-3.252-1.478-4.951-0.71c-1.463,0.66-5.532,2.123-3.446,4.264
	C47.43,146.291,47.871,145.849,47.59,145.56L47.59,145.56z"/>
<path fill="#C1C1C3" d="M53.599,158.564c1.356,2.094,4.402-0.625,5.74-1.451c1.311-0.809,5.084-2.602,2.375-4.164
	c-0.35-0.202-0.665,0.338-0.315,0.539c1.903,1.098-1.635,2.629-2.534,3.184c-0.937,0.578-3.763,3.064-4.727,1.576
	C53.921,157.912,53.379,158.224,53.599,158.564L53.599,158.564z"/>
<path fill="#C1C1C3" d="M47.233,143.573c-0.189-0.476-0.511-1.073-0.089-1.536c0.34-0.371,1.005-0.581,1.446-0.799
	c0.122-0.061,0.182-0.227,0.144-0.353c-0.254-0.827-0.93-1.437-1.376-2.158c-0.757-1.222,1.542-1.976,2.247-0.934
	c0.375,0.554,0.417,1.347,0.454,1.987c0.014,0.242,0.253,0.383,0.47,0.27c1.068-0.555,2.236-0.715,2.217,0.918
	c-0.005,0.403,0.62,0.402,0.625,0c0.024-2.061-1.575-2.281-3.158-1.457c0.157,0.09,0.313,0.18,0.47,0.27
	c-0.063-1.118-0.239-2.475-1.337-3.045c-0.939-0.49-2.523,0.238-2.787,1.236c-0.117,0.443,0.171,0.929,0.392,1.285
	c0.323,0.521,1.473,1.368,0.69,1.754c-1.306,0.644-1.55,1.371-1.009,2.728C46.777,144.109,47.382,143.947,47.233,143.573
	L47.233,143.573z"/>
<path fill="#C1C1C3" d="M48.64,147.082c0.648-0.263,1.274-0.568,1.887-0.906c0.353-0.194,0.038-0.734-0.315-0.539
	c-0.564,0.311-1.141,0.6-1.738,0.844C48.105,146.629,48.266,147.234,48.64,147.082L48.64,147.082z"/>
<path fill="#C1C1C3" d="M49.577,148.457c0.518-0.138,1.001-0.371,1.5-0.563c0.372-0.143,0.211-0.746-0.166-0.602
	c-0.499,0.191-0.982,0.424-1.5,0.563C49.022,147.958,49.187,148.561,49.577,148.457L49.577,148.457z"/>
<path fill="#C1C1C3" d="M50.39,149.957c0.468-0.139,0.901-0.354,1.325-0.594c0.35-0.199,0.036-0.738-0.315-0.539
	c-0.378,0.214-0.758,0.406-1.175,0.531C49.838,149.468,50.002,150.072,50.39,149.957L50.39,149.957z"/>
<path fill="#C1C1C3" d="M51.339,151.8c0.453-0.198,0.883-0.441,1.313-0.688c0.35-0.199,0.035-0.74-0.315-0.539
	c-0.429,0.245-0.859,0.488-1.313,0.688C50.655,151.422,50.974,151.96,51.339,151.8L51.339,151.8z"/>
<path fill="#C1C1C3" d="M52.589,153.3c0.547-0.239,1.111-0.439,1.625-0.75c0.344-0.207,0.03-0.748-0.315-0.539
	c-0.513,0.31-1.078,0.51-1.625,0.75C51.905,152.922,52.224,153.46,52.589,153.3L52.589,153.3z"/>
<path fill="#C1C1C3" d="M53.089,155.175c0.453-0.309,0.978-0.467,1.488-0.656c0.375-0.139,0.212-0.742-0.166-0.602
	c-0.558,0.206-1.141,0.381-1.637,0.719C52.443,154.861,52.755,155.404,53.089,155.175L53.089,155.175z"/>
<path fill="#C1C1C3" d="M53.714,157.05c0.424-0.18,0.858-0.339,1.3-0.469c0.386-0.112,0.222-0.715-0.166-0.602
	c-0.495,0.145-0.976,0.33-1.45,0.531C53.029,156.667,53.348,157.207,53.714,157.05L53.714,157.05z"/>
<path fill="#C1C1C3" d="M47.277,145.564c2.137-1.834,5.025-3.238,7.842-3.533c0.396-0.041,0.4-0.667,0-0.625
	c-2.992,0.313-6.014,1.768-8.284,3.717C46.529,145.385,46.974,145.826,47.277,145.564L47.277,145.564z"/>
<path fill="#C1C1C3" d="M47.465,144.751c1-0.998,2.199-1.6,3.5-2.113c1.011-0.398,2.433-1.107,3.529-1.107
	c0.403,0,0.403-0.625,0-0.625c-1.318,0-2.888,0.812-4.106,1.293c-1.254,0.494-2.408,1.156-3.365,2.111
	C46.737,144.595,47.18,145.037,47.465,144.751L47.465,144.751z"/>
<path fill="#C1C1C3" d="M144.979,52.681c-1.736-0.104-2.664,1.616-2.289,3.166c0.445,1.836,2.967,2.284,4.281,1.121
	c1.161-1.028,1.654-3.107,0.191-4.095c-1.26-0.852-3.2-0.175-4.104,0.881c-0.26,0.305,0.18,0.749,0.442,0.442
	c0.671-0.784,1.729-1.189,2.753-1.01c1.404,0.246,1.375,1.77,0.785,2.772c-0.799,1.36-3.048,1.414-3.691-0.11
	c-0.499-1.183,0.309-2.623,1.631-2.543C145.381,53.331,145.379,52.706,144.979,52.681L144.979,52.681z"/>
<path fill="#C1C1C3" d="M147.874,54.863c-0.091,0-0.183,0-0.274,0c-0.402,0-0.402,0.625,0,0.625c2.592,0,5.176-0.202,7.766-0.218
	c0.403-0.002,0.404-0.627,0-0.625c-2.59,0.017-5.174,0.218-7.766,0.218c-0.402,0-0.402,0.625,0,0.625c0.092,0,0.184,0,0.274,0
	C148.277,55.488,148.277,54.863,147.874,54.863L147.874,54.863z"/>
<path fill="#C1C1C3" d="M157.363,52.681c-1.91-0.097-3.459,2.001-1.99,3.545c1.175,1.235,3.465,1.359,4.774,0.313
	c1.312-1.048,0.985-2.685-0.206-3.682c-1.301-1.088-3.131-0.983-4.198,0.352c-0.249,0.312,0.19,0.757,0.442,0.442
	c0.791-0.99,1.932-1.171,3.021-0.55c0.855,0.487,1.536,1.558,0.982,2.501c-0.674,1.148-2.254,1.143-3.346,0.787
	c-0.619-0.201-1.223-0.616-1.428-1.255c-0.359-1.115,1.04-1.874,1.947-1.828C157.767,53.327,157.765,52.702,157.363,52.681
	L157.363,52.681z"/>
<path fill="#C1C1C3" d="M141.98,54.426c-1.811-0.127-2.719-1.35-2.439-3.256c0.158-1.085,1.785-1.053,2.549-1.142
	c1.287-0.149,2.227-0.575,3.269-1.345c1.562-1.155,2.692-2.268,4.675-2.687c2.536-0.536,4.951-1.168,6.617,1.416
	c1.443,2.237,2.553,2.956,5.292,2.791c1.854-0.111,4.518-0.677,4.13,2.073c-0.307,2.175-4.771,1.107-6.395,1.397
	c-0.396,0.071-0.229,0.673,0.166,0.603c1.963-0.351,5.174,0.825,6.58-1.016c0.629-0.825,0.617-2.801-0.254-3.438
	c-1.301-0.951-4.127-0.213-5.605-0.182c-3.168,0.066-3.232-4.152-6.168-4.718c-1.72-0.332-4.799,0.15-6.329,0.966
	c-1.317,0.702-2.338,1.747-3.532,2.631c-1.167,0.862-2.566,0.853-3.929,1.084c-1.754,0.298-1.837,1.84-1.646,3.313
	c0.227,1.73,1.498,2.028,3.02,2.135C142.383,55.08,142.381,54.454,141.98,54.426L141.98,54.426z"/>
<path fill="#C1C1C3" d="M143.279,49.817c2.66-0.35,5.248-0.013,7.891,0.328c2.904,0.374,5.883,0.019,8.791-0.11
	c0.4-0.018,0.402-0.643,0-0.625c-2.635,0.117-5.256,0.323-7.895,0.189c-2.98-0.152-5.783-0.803-8.787-0.407
	C142.887,49.244,142.881,49.87,143.279,49.817L143.279,49.817z"/>
<path fill="#C1C1C3" d="M152.747,45.249c-2.583,2.138-2.425,7.103-2.788,10.145c-0.049,0.399,0.577,0.395,0.625,0
	c0.339-2.834,0.194-7.708,2.605-9.703C153.5,45.433,153.055,44.994,152.747,45.249L152.747,45.249z"/>
<path fill="#C1C1C3" d="M144.979,54.426c-0.313-0.021-0.692,0.044-0.806,0.383c-0.083,0.249,0.056,0.516,0.247,0.673
	c0.233,0.192,0.533,0.271,0.828,0.189c0.393-0.107,0.605-0.494,0.729-0.85c0.044-0.125-0.025-0.293-0.144-0.353
	c-0.447-0.226-0.813-0.179-1.214,0.11c-0.323,0.233-0.013,0.776,0.315,0.54c0.211-0.152,0.336-0.235,0.583-0.11
	c-0.048-0.118-0.096-0.235-0.144-0.353c-0.059,0.169-0.135,0.333-0.299,0.418c-0.054,0.027-0.156-0.003-0.228-0.047
	c-0.001-0.001-0.079-0.079-0.058-0.049c-0.008-0.013-0.041-0.087-0.014-0.017c-0.027-0.07-0.003,0.064-0.004-0.006
	c0.001,0.043-0.016,0.07-0.043,0.102c-0.045,0.056,0.024-0.008-0.021,0.01c0.084-0.033,0.178-0.022,0.27-0.016
	C145.381,55.078,145.378,54.453,144.979,54.426L144.979,54.426z"/>
<path fill="#C1C1C3" d="M157.663,54.942c0.013,0,0.024,0,0.038-0.001c0.152-0.003,0.335-0.141,0.313-0.313
	c-0.023-0.178-0.109-0.219-0.229-0.329c-0.298-0.269-0.739,0.167-0.442,0.442c0.183,0.169,0.379,0.199,0.621,0.2
	c0.403,0.001,0.402-0.624,0-0.625c-0.048,0-0.147,0.012-0.179-0.017c-0.147,0.147-0.295,0.295-0.442,0.442
	c0.063,0.057,0.126,0.109,0.2,0.15c-0.052-0.09-0.103-0.18-0.155-0.27c0.001,0.002,0.002,0.004,0.002,0.006
	c0.104-0.104,0.208-0.208,0.313-0.313c-0.014,0-0.025,0-0.038,0.001C157.261,54.326,157.26,54.951,157.663,54.942L157.663,54.942z"
	/>
<path fill="#C1C1C3" d="M157.551,54.629c0.004,0.33,0.189,0.504,0.512,0.532c0.402,0.035,0.398-0.59,0-0.625
	c0.086,0.166,0.123,0.196,0.113,0.093C158.17,54.227,157.545,54.226,157.551,54.629L157.551,54.629z"/>
<rect fill="none" width="200" height="200"/>
<path fill="#C1C1C3" d="M51.392,42.596c-0.302,0.868-1.046,1.6-1.448,2.438c-0.418,0.873-0.797,1.756-1.263,2.606
	c-0.164,0.298,0.291,0.563,0.454,0.266c0.522-0.95,0.945-1.94,1.412-2.916c0.381-0.796,1.063-1.421,1.353-2.254
	C52.012,42.414,51.503,42.277,51.392,42.596L51.392,42.596z"/>
<path fill="#C1C1C3" d="M48.917,47.572c-1.732,0.247-3.421,0.5-5.169,0.622c-0.336,0.023-0.339,0.55,0,0.527
	c1.801-0.126,3.523-0.387,5.309-0.642C49.392,48.031,49.249,47.524,48.917,47.572L48.917,47.572z"/>
<path fill="#C1C1C3" d="M43.705,48.571c-0.085,0.599,0.789,1.121,1.182,1.431c0.981,0.773,2.014,1.452,2.688,2.537
	c0.179,0.288,0.634,0.023,0.455-0.266c-0.564-0.908-1.356-1.584-2.205-2.216c-0.243-0.181-1.649-1.087-1.613-1.345
	C44.26,48.379,43.753,48.236,43.705,48.571L43.705,48.571z"/>
<path fill="#C1C1C3" d="M47.46,52.485c-0.113,1.773-0.226,3.714-0.807,5.406c-0.11,0.322,0.398,0.459,0.508,0.14
	c0.594-1.73,0.711-3.74,0.826-5.546C48.008,52.146,47.481,52.148,47.46,52.485L47.46,52.485z"/>
<path fill="#C1C1C3" d="M46.987,58.188c0.904-0.42,1.813-0.828,2.698-1.29c0.79-0.412,1.48-1.002,2.251-1.449
	c0.294-0.169,0.029-0.625-0.266-0.454c-0.774,0.447-1.48,0.996-2.251,1.448c-0.854,0.5-1.801,0.873-2.698,1.29
	C46.414,57.876,46.682,58.33,46.987,58.188L46.987,58.188z"/>
<path fill="#C1C1C3" d="M51.513,55.582c1.692,1.028,3.635,1.537,5.317,2.58c0.29,0.18,0.554-0.276,0.266-0.455
	c-1.683-1.043-3.625-1.552-5.318-2.58C51.488,54.95,51.224,55.406,51.513,55.582L51.513,55.582z"/>
<path fill="#C1C1C3" d="M55.542,52.511c0.045,1.869,0.614,3.641,1.062,5.44c0.083,0.329,0.59,0.189,0.508-0.14
	c-0.437-1.753-1-3.479-1.044-5.3C56.061,52.172,55.534,52.171,55.542,52.511L55.542,52.511z"/>
<path fill="#C1C1C3" d="M55.901,52.644c0.468-0.807,1.446-1.244,2.095-1.901c0.431-0.436,0.853-0.877,1.313-1.283
	c0.318-0.28,0.641-0.438,0.884-0.791c0.193-0.281-0.264-0.543-0.455-0.266c-0.279,0.405-0.885,0.75-1.247,1.089
	c-0.421,0.396-0.8,0.834-1.224,1.227c-0.61,0.567-1.389,0.914-1.821,1.659C55.276,52.673,55.731,52.938,55.901,52.644L55.901,52.644
	z"/>
<path fill="#C1C1C3" d="M59.886,48.194c-1.037,0.002-2.046,0.005-3.061-0.246c-0.817-0.202-1.603-0.443-2.441-0.544
	c-0.337-0.041-0.333,0.486,0,0.526c1.053,0.127,2.039,0.509,3.08,0.689c0.794,0.138,1.62,0.103,2.422,0.101
	C60.226,48.72,60.226,48.193,59.886,48.194L59.886,48.194z"/>
<path fill="#C1C1C3" d="M51.392,42.735c0.413,1.913,1.95,3.511,2.791,5.249c0.147,0.306,0.602,0.039,0.454-0.266
	c-0.817-1.689-2.337-3.27-2.737-5.123C51.828,42.264,51.321,42.405,51.392,42.735L51.392,42.735z"/>
<path fill="#C1C1C3" d="M51.234,43.63c0.373,0.989,0.43,2.069,0.464,3.116c0.012,0.338,0.524,0.34,0.527,0
	c0.006-0.955-0.154-1.894-0.299-2.834c-0.045-0.294-0.538-0.224-0.517,0.07c0.073,1.027,0.469,1.939,0.879,2.871
	c0.104,0.237,0.516,0.122,0.49-0.133c-0.077-0.766-0.37-1.462-0.562-2.202c-0.161,0.067-0.321,0.135-0.481,0.203
	c0.449,0.957,0.961,1.879,1.448,2.817c0.14,0.269,0.56,0.081,0.481-0.203c-0.22-0.793-0.867-1.421-0.965-2.247
	c-0.149,0.062-0.299,0.124-0.449,0.187c0.742,0.732,1.276,1.677,1.485,2.7c0.059,0.289,0.553,0.226,0.517-0.07
	c-0.089-0.738-0.433-1.324-0.773-1.976c-0.139-0.267-0.564-0.082-0.481,0.203c0.137,0.473,0.35,0.912,0.447,1.396
	c0.108-0.108,0.216-0.216,0.324-0.324c-0.739-0.269-0.919-1.466-1.08-2.133c-0.069-0.29-0.523-0.227-0.517,0.07
	c0.017,0.748,0.114,1.49,0.132,2.238c0.172-0.023,0.345-0.047,0.517-0.07c-0.098-0.622-0.272-1.226-0.395-1.843
	c-0.066-0.333-0.574-0.191-0.507,0.14c0.123,0.617,0.297,1.221,0.395,1.843c0.047,0.297,0.524,0.221,0.517-0.07
	c-0.017-0.748-0.115-1.49-0.132-2.238c-0.172,0.023-0.345,0.047-0.517,0.07c0.216,0.897,0.471,2.146,1.448,2.5
	c0.203,0.074,0.36-0.144,0.324-0.323c-0.097-0.484-0.31-0.923-0.447-1.396c-0.161,0.068-0.321,0.135-0.481,0.203
	c0.289,0.552,0.625,1.077,0.701,1.71c0.172-0.023,0.345-0.046,0.517-0.07c-0.227-1.108-0.819-2.141-1.621-2.933
	c-0.148-0.147-0.478-0.053-0.449,0.186c0.107,0.903,0.746,1.532,0.983,2.387c0.161-0.067,0.321-0.135,0.481-0.203
	c-0.487-0.938-0.999-1.861-1.448-2.817c-0.13-0.277-0.554-0.078-0.481,0.203c0.179,0.69,0.471,1.347,0.543,2.063
	c0.164-0.044,0.327-0.089,0.49-0.133c-0.371-0.844-0.741-1.674-0.806-2.605c-0.172,0.023-0.345,0.046-0.517,0.07
	c0.138,0.896,0.287,1.786,0.28,2.694c0.176,0,0.351,0,0.527,0c-0.035-1.087-0.095-2.228-0.483-3.255
	C51.623,43.176,51.114,43.313,51.234,43.63L51.234,43.63z"/>
<path fill="#C1C1C3" d="M51.629,44.281c-0.177,0.854,0.074,1.738-0.185,2.58c0.169,0,0.338,0,0.508,0
	c-0.116-0.496-0.074-1.005-0.07-1.51c0.003-0.339-0.524-0.339-0.526,0c-0.005,0.554-0.039,1.105,0.088,1.65
	c0.062,0.263,0.434,0.239,0.508,0c0.261-0.851,0.007-1.725,0.184-2.58C52.205,44.089,51.698,43.948,51.629,44.281L51.629,44.281z"/>
<path fill="#C1C1C3" d="M51.883,44.324c0.014-0.144-0.005-0.272-0.036-0.413c-0.053-0.242-0.359-0.233-0.481-0.063
	c-0.511,0.718-0.445,1.649-0.711,2.459c0.172,0.023,0.344,0.047,0.517,0.07c-0.009-0.512,0.095-1.006,0.175-1.509
	c0.053-0.333-0.454-0.475-0.507-0.14c-0.088,0.549-0.204,1.09-0.194,1.649c0.005,0.303,0.425,0.35,0.517,0.07
	c0.25-0.76,0.18-1.661,0.658-2.333c-0.16-0.021-0.32-0.042-0.481-0.063c0.03,0.09,0.036,0.181,0.017,0.272
	C51.324,44.662,51.851,44.659,51.883,44.324L51.883,44.324z"/>
<path fill="#C1C1C3" d="M51.023,43.92c0.167,0.646-0.509,1.883-0.842,2.403c0.164,0.044,0.327,0.089,0.491,0.133
	c-0.096-0.828,0.416-1.608,0.649-2.378c0.091-0.302-0.317-0.435-0.481-0.203c-0.621,0.876-0.764,1.952-1.185,2.922
	c0.161,0.068,0.321,0.135,0.481,0.203c0.125-0.71,0.615-1.269,0.764-1.975c0.042-0.202-0.184-0.446-0.387-0.297
	c-0.322,0.236-0.469,0.504-0.614,0.872c-0.289,0.732-0.542,1.506-0.771,2.26c-0.093,0.305,0.314,0.429,0.481,0.203
	c0.648-0.878,1.312-1.836,1.5-2.933c0.057-0.331-0.402-0.468-0.507-0.14c-0.299,0.929-0.727,2.162-0.668,3.15
	c0.015,0.244,0.27,0.329,0.45,0.186c0.835-0.664,1.084-1.907,1.226-2.907c-0.172-0.023-0.345-0.046-0.517-0.07
	c-0.104,1.082-0.377,2.126-0.675,3.168c-0.094,0.33,0.397,0.457,0.508,0.14c0.19-0.544,0.289-1.089,0.368-1.658
	c0.047-0.333-0.46-0.475-0.507-0.14c-0.08,0.57-0.178,1.114-0.369,1.659c0.169,0.046,0.338,0.093,0.508,0.14
	c0.312-1.088,0.586-2.179,0.694-3.308c0.028-0.294-0.476-0.363-0.517-0.07c-0.13,0.917-0.327,2.067-1.09,2.674
	c0.149,0.062,0.299,0.124,0.449,0.187c-0.055-0.918,0.369-2.14,0.648-3.011c-0.169-0.046-0.338-0.093-0.507-0.14
	c-0.181,1.052-0.826,1.964-1.448,2.807c0.161,0.068,0.321,0.135,0.481,0.203c0.135-0.444,0.288-0.879,0.453-1.313
	c0.171-0.449,0.284-1.208,0.689-1.504c-0.129-0.099-0.258-0.198-0.387-0.297c-0.148,0.706-0.637,1.261-0.764,1.975
	c-0.048,0.271,0.354,0.496,0.481,0.203c0.418-0.964,0.568-2.053,1.185-2.922c-0.161-0.068-0.321-0.135-0.481-0.203
	c-0.25,0.824-0.77,1.63-0.668,2.518c0.03,0.253,0.34,0.368,0.491,0.133c0.432-0.676,1.107-1.989,0.896-2.809
	C51.446,43.452,50.938,43.591,51.023,43.92L51.023,43.92z"/>
<path fill="#C1C1C3" d="M51.399,45.131c0.009-0.035,0.018-0.07,0.026-0.105c-0.172-0.023-0.345-0.047-0.517-0.07
	c0.071,1.006,0.075,2.009-0.069,3.01c-0.048,0.334,0.383,0.46,0.507,0.14c0.264-0.679,0.418-1.37,0.536-2.087
	c0.076-0.462,0.208-0.975-0.036-1.407c-0.102-0.183-0.347-0.158-0.455,0c-0.617,0.901-0.112,2.044-0.316,3.038
	c0.172,0.023,0.345,0.047,0.517,0.07c-0.006-0.927,0.167-1.839,0.184-2.764c0.004-0.188-0.23-0.343-0.396-0.228
	c-0.97,0.677-1.029,2.372-1.358,3.396c0.146-0.039,0.293-0.078,0.44-0.116c0.017,0.036,0.034,0.071,0.051,0.107
	c-0.022-0.337-0.549-0.339-0.527,0c0.008,0.113,0.035,0.177,0.104,0.266c0.129,0.167,0.386,0.052,0.44-0.116
	c0.171-0.531,0.277-1.078,0.427-1.615c0.13-0.467,0.271-1.175,0.689-1.466c-0.132-0.076-0.264-0.152-0.396-0.227
	c-0.018,0.925-0.19,1.837-0.184,2.764c0.001,0.291,0.456,0.367,0.517,0.07c0.188-0.914-0.289-2.105,0.263-2.912
	c-0.151,0-0.303,0-0.455,0c0.193,0.344-0.004,0.842-0.048,1.206c-0.08,0.643-0.271,1.28-0.504,1.883
	c0.169,0.046,0.338,0.093,0.507,0.14c0.152-1.049,0.163-2.094,0.089-3.15c-0.021-0.286-0.442-0.372-0.517-0.07
	c-0.009,0.035-0.018,0.07-0.027,0.105C50.81,45.321,51.317,45.46,51.399,45.131L51.399,45.131z"/>
<path fill="#C1C1C3" d="M48.968,49.118c-0.133,0.611-0.21,1.241-0.218,1.867c2.106,0,4.212,0,6.318,0
	c0.004-0.686-0.021-1.39-0.218-2.05c-0.404-1.352-1.618-2.32-3.046-2.32c-0.57,0.002-1.102,0.146-1.594,0.432
	c-0.78,0.457-1.116,1.088-1.452,1.888c-0.226,0.536-0.203,1.16-0.192,1.734c0.034,1.721,1.411,3.159,3.159,3.159
	c1.722,0,3.159-1.437,3.159-3.159c0-0.114,0-0.229,0-0.342c0-1.722-1.437-3.159-3.159-3.159c-1.755,0-3.116,1.438-3.159,3.159
	c-0.012,0.476-0.09,0.945-0.079,1.422c0.309-0.745,0.617-1.489,0.925-2.234c-0.693,0.841-0.988,1.538-1.083,2.628
	c1.584-0.909,3.168-1.818,4.753-2.728c-0.08-0.049-0.158-0.096-0.234-0.151c0.213,0.165,0.426,0.329,0.639,0.494
	c-0.021-0.023-0.042-0.045-0.063-0.067c0.165,0.213,0.329,0.426,0.494,0.64c-0.016-0.029-0.031-0.059-0.047-0.088
	c0.106,0.251,0.212,0.503,0.318,0.755c-0.008-0.039-0.017-0.077-0.025-0.115c-0.301-1.363-1.696-2.319-3.046-2.319
	c-0.834,0-1.644,0.335-2.233,0.925c-0.628,0.628-0.856,1.372-0.925,2.234c-0.049,0.609,0.171,1.352,0.51,1.858
	c0.631,0.941,1.562,1.565,2.728,1.565c0.57-0.002,1.102-0.146,1.595-0.432c0.475-0.281,0.853-0.659,1.133-1.133
	c0.021-0.028,0.042-0.056,0.064-0.084c-0.165,0.213-0.329,0.426-0.494,0.64c0.048-0.054,0.101-0.101,0.16-0.143
	c-0.213,0.165-0.426,0.329-0.639,0.494c0.13-0.084,0.264-0.151,0.406-0.214c-0.251,0.106-0.503,0.212-0.754,0.319
	c0.877-0.367,1.481-0.631,2.212-1.241c1.028-0.857,1.23-2.738,0.494-3.828c-0.021-0.032-0.042-0.063-0.064-0.095
	c0.106,0.251,0.212,0.503,0.318,0.755c-0.008-0.031-0.016-0.063-0.024-0.094c0.038,0.28,0.075,0.56,0.113,0.839
	c0.002-0.031,0.004-0.062,0.006-0.093c-0.038,0.28-0.076,0.56-0.113,0.84c0.014-0.063,0.035-0.124,0.063-0.182
	c-0.106,0.251-0.212,0.503-0.318,0.755c0.145-0.329,0.342-0.652,0.401-1.009c0.147-0.892,0.147-1.805-0.382-2.585
	c-0.473-0.698-1.055-1.223-1.888-1.452c-0.739-0.203-1.793-0.163-2.435,0.318c-0.038,0.036-0.082,0.063-0.131,0.079
	c-0.708,0.318-1.254,1.169-1.452,1.888c-0.224,0.815-0.109,1.705,0.319,2.434c0.413,0.707,1.098,1.235,1.888,1.452
	c0.887,0.244,1.627,0.045,2.434-0.318c0.05-0.017,0.094-0.043,0.132-0.079c-1.441-0.378-2.882-0.756-4.322-1.134
	c0.017,0.025,0.033,0.049,0.05,0.074c-0.106-0.251-0.212-0.503-0.318-0.754c0.004,0.026,0.009,0.052,0.013,0.077
	c0-0.56,0-1.12,0-1.679c-0.004,0.058-0.019,0.113-0.044,0.166c0.106-0.251,0.212-0.503,0.318-0.755
	c-0.328,0.742-0.485,1.051-0.533,1.864c-0.037,0.613,0.17,1.368,0.514,1.877c0.165-1.276,0.329-2.552,0.494-3.828
	c-0.028,0.023-0.056,0.046-0.084,0.069c0.213-0.165,0.426-0.329,0.64-0.494c-0.129,0.088-0.261,0.156-0.403,0.22
	c0.251-0.106,0.503-0.212,0.754-0.318c-0.434,0.183-0.875,0.35-1.3,0.555c-0.692,0.336-1.102,0.885-1.55,1.476
	c1.819,0,3.637,0,5.456,0c-0.021-0.03-0.041-0.061-0.062-0.091c0.106,0.251,0.212,0.503,0.318,0.754
	c-0.009-0.021-0.018-0.042-0.026-0.062c0.037,0.28,0.075,0.56,0.112,0.839c0.003-0.036,0.006-0.073,0.009-0.109
	c-2.068,0.28-4.137,0.56-6.206,0.84c0.228,1.032,0.951,1.774,1.82,2.31c0.955,0.588,2.231,0.561,3.189,0
	c1.025-0.601,1.465-1.59,1.564-2.728c0.003-0.038,0.007-0.076,0.01-0.114c-0.038,0.28-0.075,0.56-0.113,0.84
	c0.01-0.034,0.02-0.069,0.03-0.104c-0.106,0.252-0.212,0.503-0.318,0.755c0.016-0.031,0.033-0.063,0.049-0.094
	c-0.165,0.213-0.33,0.426-0.494,0.64c0.408-0.495,0.708-0.845,0.881-1.478c0.124-0.45,0.102-0.775,0.114-1.195
	c0.011-0.356,0.069-0.709,0.078-1.066c-2.106,0-4.212,0-6.318,0c0,0.114,0,0.228,0,0.342c2.106,0,4.212,0,6.318,0
	c-0.004-0.223-0.017-0.442,0.006-0.665c-0.038,0.28-0.075,0.56-0.113,0.839c0.011-0.081,0.035-0.157,0.073-0.23
	c-2.031,0-4.062,0-6.092,0c0.032,0.094,0.057,0.19,0.072,0.289c-0.038-0.28-0.075-0.56-0.113-0.84
	c0.039,0.308,0.035,0.613,0.033,0.922c-0.01,1.722,1.445,3.159,3.159,3.159c1.74,0,3.136-1.438,3.159-3.159
	c0.003-0.234,0.016-0.464,0.043-0.696c-0.038,0.28-0.076,0.56-0.113,0.84c0.015-0.111,0.036-0.221,0.062-0.331
	c0.366-1.681-0.479-3.411-2.206-3.886C51.264,46.474,49.334,47.435,48.968,49.118L48.968,49.118z"/>
<path fill="#C1C1C3" d="M48.236,48.426c-0.188,0.226-0.346,0.472-0.474,0.737c-0.581,1.024,0.828,2.174,1.654,1.276
	c0.205-0.222,0.358-0.424,0.507-0.687c0.425-0.749-0.132-1.503-0.909-1.585c-0.967-0.101-2.137,0.192-3.133,0.264
	c-1.344,0.097-1.36,2.188,0,2.106c0.922-0.056,1.819-0.22,2.738-0.316c-0.249-0.6-0.497-1.198-0.745-1.798
	c-0.302,0.293-0.688,0.448-1.089,0.545c-1.061,0.259-0.948,1.718,0,2.031c0.519,0.171,0.931,0.524,1.381,0.815
	c0.354-0.606,0.708-1.212,1.063-1.818c-0.453-0.249-0.883-0.423-1.384-0.554c-0.996-0.261-1.81,1.021-1.024,1.76
	c1.052,0.99,0.997,1.875,0.637,3.214c-0.202,0.749-0.286,1.422,0.067,2.127c0.21,0.421,0.755,0.6,1.189,0.484
	c0.52-0.138,0.81-0.411,1.175-0.797c1.008-1.063,1.902-1.189,3.173-0.493c0.177-0.654,0.354-1.309,0.531-1.962
	c-0.31-0.058-0.62-0.116-0.931-0.173c-1.32-0.315-1.88,1.714-0.56,2.031c0.976,0.234,1.725,0.84,2.618,1.263
	c0.852,0.403,1.736-0.247,1.547-1.189c-0.095-0.471-1.113-2.111-0.87-2.479c-0.606,0-1.212,0-1.819,0
	c0.246,0.534,0.172,1.286,0.172,1.864c0.689-0.094,1.379-0.187,2.068-0.28c-0.043-0.131-0.088-0.263-0.131-0.395
	c-0.427-1.282-2.461-0.732-2.031,0.56c0.044,0.131,0.088,0.263,0.132,0.395c0.369,1.107,2.068,0.944,2.068-0.28
	c0-1.046-0.019-1.97-0.459-2.927c-0.353-0.767-1.422-0.598-1.819,0c-0.896,1.355,0.39,2.77,0.657,4.102
	c0.516-0.396,1.032-0.793,1.547-1.189c-1.062-0.502-1.963-1.197-3.121-1.476c-0.187,0.677-0.374,1.354-0.56,2.031
	c0.525,0.125,0.955,0.19,1.491,0.248c1.066,0.116,1.405-1.484,0.532-1.962c-1.069-0.585-2.159-1.178-3.397-0.823
	c-1.011,0.291-1.676,1.662-2.574,1.901c0.396,0.161,0.793,0.323,1.189,0.484c-0.219-0.438,0.591-2.301,0.577-2.928
	c-0.029-1.285-0.702-1.985-1.61-2.84c-0.342,0.586-0.683,1.173-1.024,1.76c0.316,0.054,0.609,0.168,0.88,0.341
	c1.196,0.658,2.199-1.083,1.063-1.818c-0.63-0.408-1.167-0.791-1.884-1.027c0,0.677,0,1.354,0,2.031
	c0.749-0.183,1.464-0.549,2.018-1.087c0.614-0.595,0.197-1.896-0.744-1.798c-0.915,0.096-1.819,0.261-2.738,0.316
	c0,0.702,0,1.404,0,2.106c0.953-0.069,2.195-0.362,3.133-0.263c-0.303-0.528-0.606-1.057-0.909-1.584
	c-0.059,0.086-0.119,0.173-0.177,0.261c0.551,0.425,1.103,0.851,1.653,1.276c0.128-0.266,0.286-0.511,0.474-0.737
	C50.865,48.397,49.036,47.349,48.236,48.426L48.236,48.426z"/>
<path fill="#C1C1C3" d="M55.609,52.542c0.463-1.064,1.498-1.734,2.492-2.254c0.908-0.476,0.514-2.035-0.531-1.962
	c-1.104,0.077-2.077-0.339-3.159-0.474c-0.571-0.071-1.053,0.533-1.053,1.053c0,0.628,0.483,0.982,1.053,1.053
	c0.479,0.06,0.946,0.245,1.415,0.358c0.572,0.138,1.161,0.157,1.745,0.116c-0.177-0.654-0.354-1.309-0.532-1.962
	c-1.278,0.67-2.653,1.646-3.247,3.01c-0.229,0.526-0.16,1.125,0.378,1.441C54.619,53.185,55.38,53.069,55.609,52.542L55.609,52.542z
	"/>
<path fill="#C1C1C3" d="M51.299,52.181c-1.002,0.551-1.54,1.483-2.293,2.297c0.496,0.496,0.993,0.993,1.489,1.489
	c0.163-0.205,0.338-0.391,0.55-0.546c-0.425-0.551-0.851-1.103-1.276-1.654c-0.581,0.638-1.205,1.18-1.946,1.625
	c0.354,0.606,0.708,1.212,1.063,1.818c0.035-0.026,0.07-0.053,0.105-0.079c0.458-0.344,0.693-0.902,0.378-1.441
	c-0.265-0.452-0.98-0.723-1.44-0.377c-0.036,0.026-0.07,0.052-0.105,0.079c-1.057,0.792-0.132,2.536,1.063,1.818
	c0.886-0.532,1.677-1.19,2.372-1.955c0.767-0.843-0.27-2.392-1.276-1.654c-0.358,0.263-0.699,0.526-0.977,0.876
	c-0.356,0.449-0.44,1.048,0,1.489c0.394,0.394,1.1,0.421,1.489,0c0.612-0.661,1.059-1.523,1.867-1.968
	C53.552,53.345,52.489,51.526,51.299,52.181L51.299,52.181z"/>
<path fill="#C1C1C3" d="M44.983,49.149c0.115,0.062,0.223,0.131,0.342,0.184c0.088-0.327,0.177-0.654,0.266-0.981
	c-0.177,0.015-0.343-0.01-0.518-0.034c-0.046,0.345-0.093,0.69-0.14,1.035c0.015,0,0.03,0,0.046,0c0.679,0,0.679-1.053,0-1.053
	c-0.079,0-0.146-0.016-0.222-0.034c-0.667-0.158-0.917,0.793-0.28,1.016c0.089,0.031,0.178,0.041,0.271,0.045
	c0.598,0.03,0.713-0.893,0.14-1.034c-0.087-0.021-0.176-0.031-0.263-0.052c-0.23-0.057-0.473,0.034-0.595,0.242
	c-0.132,0.225-0.075,0.607,0.188,0.72c0.437,0.188,0.761,0.533,1.232,0.659c0.657,0.175,0.936-0.841,0.28-1.016
	c-0.349-0.092-0.633-0.403-0.98-0.552c-0.135,0.32-0.271,0.642-0.406,0.962c0.087,0.021,0.176,0.031,0.263,0.052
	c0.047-0.345,0.094-0.689,0.14-1.034c0.003-0.002,0.006-0.005,0.008-0.008c-0.093,0.339-0.187,0.677-0.28,1.016
	c0.164,0.039,0.333,0.072,0.502,0.072c0.679,0,0.679-1.053,0-1.053c-0.016,0-0.031,0-0.046,0c-0.235,0-0.446,0.161-0.508,0.386
	c-0.068,0.249,0.083,0.609,0.368,0.648c0.265,0.036,0.531,0.094,0.798,0.071c0.236-0.02,0.442-0.146,0.508-0.386
	c0.057-0.208-0.029-0.5-0.242-0.595c-0.119-0.053-0.228-0.123-0.343-0.184C44.916,47.919,44.384,48.828,44.983,49.149L44.983,49.149
	z"/>
<path fill="#C1C1C3" d="M55.351,55.82c-0.109,0.313-0.015,0.634,0.14,0.912c0.124,0.222,0.345,0.458,0.439,0.6
	c0.303-0.177,0.606-0.354,0.909-0.532c-0.058-0.079-0.112-0.15-0.188-0.212c-0.221-0.182-0.527-0.218-0.745,0
	c-0.188,0.188-0.222,0.562,0,0.745c0.035,0.038,0.042,0.038,0.023-0.001c0.17,0.23,0.452,0.346,0.72,0.188
	c0.236-0.139,0.348-0.481,0.188-0.72c-0.104-0.157-0.251-0.328-0.339-0.448c-0.059-0.081-0.109-0.166-0.154-0.254
	c0.021,0.039,0.021,0.029,0-0.029c0.01,0.039-0.016,0.133,0.02,0.031c0.094-0.271-0.106-0.576-0.368-0.648
	C55.707,55.372,55.445,55.549,55.351,55.82L55.351,55.82z"/>
</svg>
