<?xml version="1.0" encoding="utf-8"?>
<!-- Generator: Adobe Illustrator 16.0.0, SVG Export Plug-In . SVG Version: 6.00 Build 0)  -->
<!DOCTYPE svg PUBLIC "-//W3C//DTD SVG 1.1//EN" "http://www.w3.org/Graphics/SVG/1.1/DTD/svg11.dtd">
<svg version="1.1" id="Layer_1" xmlns="http://www.w3.org/2000/svg" xmlns:xlink="http://www.w3.org/1999/xlink" x="0px" y="0px"
	 width="619.602px" height="475.945px" viewBox="0 0 619.602 475.945" enable-background="new 0 0 619.602 475.945"
	 xml:space="preserve">
<g>
	<path fill-rule="evenodd" clip-rule="evenodd" fill="#35373C" d="M555.758,255.219L165.463,437.216L64.206,220.069L440.149,44.655
		l10.53-4.951l3.861-1.549L555.758,255.219L555.758,255.219z M72.725,307.348c-15.255,11.528-30.616-12.796-16.652-22.706
		C71.631,273.598,88.209,295.646,72.725,307.348L72.725,307.348z M538.903,154.878c4.676,10.021-6.186,15-10.828,5.049
		l-18.615-39.918c-4.661-9.998,5.99-15.427,10.83-5.05L538.903,154.878L538.903,154.878z M110.495,342.728
		c3.018,6.472,2.944,10.086-3.827,13.244c-20.643,9.625-29.796,17.702-35.292,5.916c-10.182-21.832-17.369-29.251-4.895-35.068
		C101.04,310.708,94.435,308.286,110.495,342.728L110.495,342.728z M541.604,132.585c-3.047,6.071-9.959,0.295-7.148-3.969
		C537.119,124.575,544.248,127.318,541.604,132.585L541.604,132.585z M116.514,398.146c-15.042,12.953-32.359-10.6-18.047-21.756
		C113.187,364.921,130.533,386.072,116.514,398.146L116.514,398.146z M361.376,58.603c-0.049,0.158-1.047,3.798-1.176,3.964
		c-1.225,1.601-3.455,2.364-5.514,3.286c-3.795,1.702-7.555,3.484-11.326,5.242L17.233,223.17
		c-28.813,13.374-15.547,29.137-2.923,56.21l64.974,139.338c6.178,13.246,20.066,49.166,28.976,54.207
		c11.142,6.307,17.537,1.607,29.161-3.812l464.711-216.7c8.801-4.094,12.938-5.328,15.7-13.391
		c2.876-8.393,2.354-9.822-2.367-19.893l-64.98-139.338c-7.804-16.737-24.818-55.23-32.616-69.989
		c-3.631-6.869-9.236-9.15-16.1-9.784L498.011,0c-5.917,0.843-80.789,36.587-86.098,39.165l-2.723-1.836
		c-0.517-0.199-0.413-0.521-2.129-0.076L361.376,58.603L361.376,58.603z"/>
</g>
</svg>
