<?xml version="1.0" encoding="utf-8"?>
<!-- Generator: Adobe Illustrator 16.0.0, SVG Export Plug-In . SVG Version: 6.00 Build 0)  -->
<!DOCTYPE svg PUBLIC "-//W3C//DTD SVG 1.1//EN" "http://www.w3.org/Graphics/SVG/1.1/DTD/svg11.dtd">
<svg version="1.1" id="Layer_1" xmlns="http://www.w3.org/2000/svg" xmlns:xlink="http://www.w3.org/1999/xlink" x="0px" y="0px"
	 width="449.079px" height="600px" viewBox="0 0 449.079 600" enable-background="new 0 0 449.079 600" xml:space="preserve">
<path fill-rule="evenodd" clip-rule="evenodd" fill="#35373C" d="M254.612,487.691c0-44.544,57.002-37.402,57.002-5.067
	c0,10.335-0.716,15.243-8.483,23.17c-1.117,1.14-2.105,2.111-3.412,3.055C282.167,521.51,254.612,508.554,254.612,487.691
	L254.612,487.691z M45.602,159.608l60.964-18.84c5.226-1.6,10.397-3.458,15.196-5.072c38.52-12.958,83.89-25.736,122.239-38.634
	l46.078-14.725c2.288,3.979,4.977,14.274,6.504,18.831c2.145,6.389,4.069,13.524,6.325,20.276c2.169,6.498,4.065,13.171,6.322,20.28
	c2.056,6.476,4.536,12.81,6.641,19.961c2.186,7.426,3.752,12.46,6.038,19.295l56.992,179.888c2.055,6.478,4.535,12.811,6.64,19.96
	c1.734,5.894,5.455,15.665,5.876,20.725l-244.484,77.269c-3.591-5.063-4.979-13.115-7.114-19.479
	c-25.973-77.43-49.903-161.771-75.692-238.457C61.188,212.146,45.76,165.334,45.602,159.608L45.602,159.608z M121.605,108.938
	c-12.287,0-22.512-19.979,2.521-26.614c12.656-3.355,58.649-20.254,67.149-20.254c11.473,0,22.536,19.456-2.785,26.35
	l-44.245,14.024C140.019,103.856,125.594,108.938,121.605,108.938L121.605,108.938z M0,125.406c0,20.446,1.251,22.141,7.761,41.641
	l110.201,347.087c6.886,20.397,11.349,43.101,23.697,58.641c21.304,26.814,53.321,32.55,85.247,22.747l123.816-39.59
	c34.487-10.557,67.254-15.688,86.088-44.385c17.21-26.221,13.998-49.187,4.488-77.539c-2.896-8.638-5.199-16.946-7.908-25.025
	c-26.885-80.143-52.493-169.319-79.187-248.896c-6.693-19.956-33.768-111.656-40.566-122.838C300.298,15.318,277.811,0,248.277,0
	c-16.992,0-55.151,14.086-72.665,19.806c-24.378,7.961-47.057,14.393-71.264,22.474c-15.656,5.227-58.505,17.125-69.414,24.324
	C23.87,73.908,18.48,79.192,11.379,89.917C5.979,98.072,0,111.859,0,125.406L0,125.406z"/>
</svg>
