<?xml version="1.0" encoding="utf-8"?>
<!-- Generator: Adobe Illustrator 16.0.0, SVG Export Plug-In . SVG Version: 6.00 Build 0)  -->
<!DOCTYPE svg PUBLIC "-//W3C//DTD SVG 1.1//EN" "http://www.w3.org/Graphics/SVG/1.1/DTD/svg11.dtd">
<svg version="1.1" id="Layer_1" xmlns="http://www.w3.org/2000/svg" xmlns:xlink="http://www.w3.org/1999/xlink" x="0px" y="0px"
	 width="40px" height="40px" viewBox="-6 -6 40 40" enable-background="new -6 -6 40 40" xml:space="preserve">
<rect x="-6" y="-6" fill="none" width="40" height="40"/>
<g>
	<path fill="#FFFFFF" d="M11.686,6.329c1.341-0.155,2.09,0.025,3.192,0.474c0.207,0.083,0.336,0.144,0.509,0.257
		c0.11,0.071,0.172,0.109,0.249,0.152c0.095,0.058,0.123,0.075,0.218,0.141c0.077,0.055,0.137,0.104,0.233,0.176
		c1.085,0.79,2.106,2.258,2.347,4.116c0.236,1.848-0.499,3.638-1.387,4.641c-1.048,1.184-2.253,1.919-3.955,2.147
		c-5.272,0.701-8.874-5.518-5.571-9.791C8.585,7.266,9.943,6.533,11.686,6.329L11.686,6.329z M17.202,20.377l2.811,3.341
		c0.462,0.569,0.876,1.044,1.824,1.231c2.589,0.516,4.5-3.028,1.983-4.838l-3.564-2.653c0.179-0.54,1.098-1.519,1.399-3.934
		c0.05-0.371,0.071-0.618,0.075-1.004c0.007-0.754-0.054-1.281-0.18-2.003c-0.77-4.396-5.037-7.777-9.696-7.501
		c-1.146,0.069-2.537,0.377-3.451,0.855C7.803,4.183,6.933,4.677,6.435,5.113C5.441,5.98,4.631,6.868,4.022,8.094
		C2.194,11.757,2.91,15.87,5.437,18.686c0.211,0.236,0.322,0.312,0.535,0.535c0.188,0.2,0.364,0.308,0.584,0.487
		c0.83,0.68,1.754,1.159,2.759,1.519c1.525,0.547,3.162,0.618,4.777,0.356C15.189,21.403,16.36,20.903,17.202,20.377L17.202,20.377z
		"/>
</g>
</svg>
