<?xml version="1.0" encoding="utf-8"?>
<!-- Generator: Adobe Illustrator 16.0.0, SVG Export Plug-In . SVG Version: 6.00 Build 0)  -->
<!DOCTYPE svg PUBLIC "-//W3C//DTD SVG 1.1//EN" "http://www.w3.org/Graphics/SVG/1.1/DTD/svg11.dtd">
<svg version="1.1" id="Layer_1" xmlns="http://www.w3.org/2000/svg" xmlns:xlink="http://www.w3.org/1999/xlink" x="0px" y="0px"
	 width="417px" height="417px" viewBox="0 0 417 417" enable-background="new 0 0 417 417" xml:space="preserve">
<rect fill="none" width="417" height="417"/>
<g>
	<g>
		
			<rect x="294.872" y="252.788" fill="none" stroke="#FFFFFF" stroke-width="2" stroke-linecap="round" stroke-linejoin="round" stroke-miterlimit="10" width="38" height="52"/>
		
			<rect x="306.872" y="262.788" fill="none" stroke="#FFFFFF" stroke-width="2" stroke-linecap="round" stroke-linejoin="round" stroke-miterlimit="10" width="16" height="12"/>
		
			<line fill="none" stroke="#FFFFFF" stroke-width="2" stroke-linecap="round" stroke-linejoin="round" stroke-miterlimit="10" x1="290.872" y1="298.788" x2="298.872" y2="298.788"/>
		
			<line fill="none" stroke="#FFFFFF" stroke-width="2" stroke-linecap="round" stroke-linejoin="round" stroke-miterlimit="10" x1="290.872" y1="290.788" x2="298.872" y2="290.788"/>
		
			<line fill="none" stroke="#FFFFFF" stroke-width="2" stroke-linecap="round" stroke-linejoin="round" stroke-miterlimit="10" x1="290.872" y1="282.788" x2="298.872" y2="282.788"/>
		
			<line fill="none" stroke="#FFFFFF" stroke-width="2" stroke-linecap="round" stroke-linejoin="round" stroke-miterlimit="10" x1="290.872" y1="274.788" x2="298.872" y2="274.788"/>
		
			<line fill="none" stroke="#FFFFFF" stroke-width="2" stroke-linecap="round" stroke-linejoin="round" stroke-miterlimit="10" x1="290.872" y1="266.788" x2="298.872" y2="266.788"/>
		
			<line fill="none" stroke="#FFFFFF" stroke-width="2" stroke-linecap="round" stroke-linejoin="round" stroke-miterlimit="10" x1="290.872" y1="258.788" x2="298.872" y2="258.788"/>
		
			<rect x="332.872" y="256.788" fill="none" stroke="#FFFFFF" stroke-width="2" stroke-linecap="round" stroke-linejoin="round" stroke-miterlimit="10" width="8" height="10"/>
		
			<rect x="332.872" y="266.788" fill="none" stroke="#FFFFFF" stroke-width="2" stroke-linecap="round" stroke-linejoin="round" stroke-miterlimit="10" width="8" height="10"/>
		
			<rect x="332.872" y="276.788" fill="none" stroke="#FFFFFF" stroke-width="2" stroke-linecap="round" stroke-linejoin="round" stroke-miterlimit="10" width="8" height="10"/>
		
			<rect x="332.872" y="286.788" fill="none" stroke="#FFFFFF" stroke-width="2" stroke-linecap="round" stroke-linejoin="round" stroke-miterlimit="10" width="8" height="10"/>
	</g>
	<g>
		
			<polygon fill="none" stroke="#FFFFFF" stroke-width="2" stroke-linecap="round" stroke-linejoin="round" stroke-miterlimit="10" points="
			98.907,53.94 124.907,41.94 124.907,80.94 98.907,93.94 72.907,80.94 72.907,41.94 		"/>
		
			<polyline fill="none" stroke="#FFFFFF" stroke-width="2" stroke-linecap="round" stroke-linejoin="round" stroke-miterlimit="10" points="
			118.907,37.94 98.907,47.94 78.907,37.94 		"/>
		
			<line fill="none" stroke="#FFFFFF" stroke-width="2" stroke-linecap="round" stroke-linejoin="round" stroke-miterlimit="10" x1="98.907" y1="53.94" x2="98.907" y2="93.94"/>
	</g>
	<g>
		
			<line fill="none" stroke="#FFFFFF" stroke-width="2" stroke-linecap="round" stroke-linejoin="round" stroke-miterlimit="10" x1="202.915" y1="399.862" x2="202.915" y2="405.003"/>
		
			<line fill="none" stroke="#FFFFFF" stroke-width="2" stroke-linecap="round" stroke-linejoin="round" stroke-miterlimit="10" x1="206.915" y1="399.835" x2="206.915" y2="405.003"/>
		<path fill="none" stroke="#FFFFFF" stroke-width="2" stroke-linecap="round" stroke-linejoin="round" stroke-miterlimit="10" d="
			M219.915,409.923c-4.179-3.139-9.371-5-15-5s-10.822,1.861-15,5H219.915z"/>
		
			<circle fill="none" stroke="#FFFFFF" stroke-width="2" stroke-linecap="round" stroke-linejoin="round" stroke-miterlimit="10" cx="204.915" cy="372.923" r="19"/>
		<path fill="none" stroke="#FFFFFF" stroke-width="2" stroke-linecap="round" stroke-linejoin="round" stroke-miterlimit="10" d="
			M224.006,353.832c10.544,10.545,10.544,27.64,0,38.185c-10.543,10.541-27.639,10.543-38.184,0"/>
		
			<line fill="none" stroke="#FFFFFF" stroke-width="2" stroke-linecap="round" stroke-linejoin="round" stroke-miterlimit="10" x1="183.915" y1="393.923" x2="187.915" y2="389.923"/>
		
			<line fill="none" stroke="#FFFFFF" stroke-width="2" stroke-linecap="round" stroke-linejoin="round" stroke-miterlimit="10" x1="221.915" y1="355.923" x2="225.915" y2="351.923"/>
	</g>
	<g>
		<path fill="none" stroke="#FFFFFF" stroke-width="2" stroke-linecap="round" stroke-linejoin="round" stroke-miterlimit="10" d="
			M295.873,87.948c-11.326-11.322-12.326-30.673-1-42c11.324-11.322,29.674-10.322,40.999,1c11.324,11.327,12.324,29.678,1,41
			c-5.416,5.417-14.584,5.417-20,0l-10.999-11c-2-2-3.017-1.984-4-1c-0.986,0.986-1,3,1,5c1.969,1.971,1.969,5.031,0,7
			S297.842,89.917,295.873,87.948z"/>
		
			<circle fill="none" stroke="#FFFFFF" stroke-width="2" stroke-linecap="round" stroke-linejoin="round" stroke-miterlimit="10" cx="326.571" cy="54.467" r="4"/>
		
			<circle fill="none" stroke="#FFFFFF" stroke-width="2" stroke-linecap="round" stroke-linejoin="round" stroke-miterlimit="10" cx="333.524" cy="66.949" r="3"/>
		
			<circle fill="none" stroke="#FFFFFF" stroke-width="2" stroke-linecap="round" stroke-linejoin="round" stroke-miterlimit="10" cx="326.571" cy="79.43" r="5"/>
		
			<circle fill="none" stroke="#FFFFFF" stroke-width="2" stroke-linecap="round" stroke-linejoin="round" stroke-miterlimit="10" cx="310.873" cy="51.791" r="4"/>
	</g>
	<g>
		
			<polyline fill="none" stroke="#FFFFFF" stroke-width="2" stroke-linecap="round" stroke-linejoin="round" stroke-miterlimit="10" points="
			122.907,273.266 122.907,304.788 74.907,304.788 74.907,252.788 115.255,252.788 		"/>
		<path fill="none" stroke="#FFFFFF" stroke-width="2" stroke-linecap="round" stroke-linejoin="round" stroke-miterlimit="10" d="
			M107.907,275.788l-7,3l3-7l24-24c2.359-2.358,6.36,1.639,4,4L107.907,275.788z"/>
		
			<line fill="none" stroke="#FFFFFF" stroke-width="2" stroke-linejoin="round" stroke-miterlimit="10" x1="124.907" y1="250.788" x2="128.907" y2="254.788"/>
	</g>
	<g>
		<path fill="none" stroke="#FFFFFF" stroke-width="2" stroke-miterlimit="10" d="M226.915,168.65c0,12.15-9.853,22-22,22
			c-12.154,0-22-9.85-22-22s9.846-22,22-22C217.062,146.65,226.915,156.5,226.915,168.65z"/>
		<polyline fill="none" stroke="#FFFFFF" stroke-width="2" stroke-linecap="round" stroke-miterlimit="10" points="212.741,169.65 
			203.915,169.65 203.915,156.302 		"/>
		<path fill="none" stroke="#FFFFFF" stroke-width="2" stroke-miterlimit="10" d="M233.915,192.652c0,2.75-2.25,5-5,5h-48
			c-2.75,0-5-2.25-5-5v-48c0-2.75,2.25-5,5-5h48c2.75,0,5,2.25,5,5V192.652z"/>
	</g>
</g>
</svg>
