<?xml version="1.0" encoding="utf-8"?>
<!-- Generator: Adobe Illustrator 16.0.0, SVG Export Plug-In . SVG Version: 6.00 Build 0)  -->
<!DOCTYPE svg PUBLIC "-//W3C//DTD SVG 1.1//EN" "http://www.w3.org/Graphics/SVG/1.1/DTD/svg11.dtd">
<svg version="1.1" id="Layer_1" xmlns="http://www.w3.org/2000/svg" xmlns:xlink="http://www.w3.org/1999/xlink" x="0px" y="0px"
	 width="200px" height="161.291px" viewBox="0 0 200 161.291" enable-background="new 0 0 200 161.291" xml:space="preserve">
<g>
	<g id="BG_1">
		<g>
			<path fill-rule="evenodd" clip-rule="evenodd" fill="#EA5455" d="M183.871,0H16.129C7.22,0,0,7.22,0,16.129v3.226v3.226v3.226
				v109.678v3.226v3.226v3.226c0,8.909,7.22,16.13,16.129,16.13h167.742c8.908,0,16.129-7.221,16.129-16.13v-3.226v-3.226v-3.226
				V25.806v-3.226v-3.226v-3.226C200,7.22,192.779,0,183.871,0z"/>
		</g>
	</g>
	<g id="BG_1_1_">
		<g>
			<path fill-rule="evenodd" clip-rule="evenodd" fill="#FFFFFF" d="M174.193,51.613h-3.226h-6.452H35.484h-6.452h-3.226
				c-5.346,0-9.678,4.332-9.678,9.677v3.226v67.742v3.226c0,5.346,4.332,9.677,9.678,9.677h3.226h6.452h129.032h6.452h3.226
				c5.346,0,9.678-4.331,9.678-9.677v-3.226V64.516V61.29C183.871,55.944,179.539,51.613,174.193,51.613z"/>
		</g>
	</g>
	<g id="Content">
		<g>
			<path fill-rule="evenodd" clip-rule="evenodd" fill="#D5D5D5" d="M35.484,125.806h19.355v-19.354H35.484V125.806z
				 M93.548,106.452H67.742v6.451h25.806V106.452z M125.807,70.968H67.742v6.452h58.064V70.968z M112.903,83.871H67.742v6.452
				h45.161V83.871z M35.484,90.323h19.355V70.968H35.484V90.323z M158.064,70.968h-22.58v6.452h22.58h6.451v-6.452H158.064z
				 M103.226,112.903h61.29v-6.451h-61.29V112.903z M67.742,125.806h51.612v-6.451H67.742V125.806z M122.581,90.323h41.935v-6.452
				h-41.935V90.323z M129.032,125.806h35.483v-6.451h-35.483V125.806z"/>
		</g>
	</g>
	<g id="Buttons">
		<g>
			<path fill-rule="evenodd" clip-rule="evenodd" fill="#FFFFFF" d="M25.807,16.129c-5.346,0-9.678,4.332-9.678,9.677
				c0,5.346,4.332,9.678,9.678,9.678c5.346,0,9.677-4.332,9.677-9.678C35.484,20.46,31.152,16.129,25.807,16.129z M54.839,16.129
				c-5.346,0-9.678,4.332-9.678,9.677c0,5.346,4.332,9.678,9.678,9.678c5.346,0,9.677-4.332,9.677-9.678
				C64.516,20.46,60.185,16.129,54.839,16.129z M83.871,16.129c-5.346,0-9.678,4.332-9.678,9.677c0,5.346,4.332,9.678,9.678,9.678
				c5.346,0,9.677-4.332,9.677-9.678C93.548,20.46,89.217,16.129,83.871,16.129z"/>
		</g>
	</g>
</g>
</svg>
