<?xml version="1.0" encoding="utf-8"?>
<!-- Generator: Adobe Illustrator 16.0.0, SVG Export Plug-In . SVG Version: 6.00 Build 0)  -->
<!DOCTYPE svg PUBLIC "-//W3C//DTD SVG 1.1//EN" "http://www.w3.org/Graphics/SVG/1.1/DTD/svg11.dtd">
<svg version="1.1" id="Layer_1" xmlns="http://www.w3.org/2000/svg" xmlns:xlink="http://www.w3.org/1999/xlink" x="0px" y="0px"
	 width="200px" height="170.968px" viewBox="0 0 200 170.968" enable-background="new 0 0 200 170.968" xml:space="preserve">
<g id="Cloud_back">
	<g>
		<path fill-rule="evenodd" clip-rule="evenodd" fill="#B64167" d="M183.871,0H54.839C45.93,0,38.709,7.22,38.709,16.129V100
			c0,8.909,7.22,16.13,16.129,16.13h129.032c8.908,0,16.129-7.221,16.129-16.13V16.129C200,7.22,192.779,0,183.871,0z"/>
	</g>
</g>
<g id="Shadow_3_" opacity="0.2">
	<g>
		<path fill-rule="evenodd" clip-rule="evenodd" d="M156.225,27.552l-51.141,88.578h78.787c8.908,0,16.129-7.221,16.129-16.13
			V52.826L156.225,27.552z"/>
	</g>
</g>
<g id="Cloud_front">
	<g>
		<path fill-rule="evenodd" clip-rule="evenodd" fill="#EA5485" d="M145.161,22.581H16.129C7.22,22.581,0,29.801,0,38.709v83.871
			c0,8.909,7.22,16.129,16.129,16.129h9.678v32.259l47.439-32.259h71.916c8.909,0,16.129-7.22,16.129-16.129V38.709
			C161.29,29.801,154.07,22.581,145.161,22.581z"/>
	</g>
</g>
<g id="Text_2_">
	<g>
		<path fill-rule="evenodd" clip-rule="evenodd" fill="#FFAAC6" d="M35.484,51.613v6.452h87.097v-6.452H35.484z M35.484,74.193
			h87.097v-6.452H35.484V74.193z M35.484,90.323h87.097v-6.452H35.484V90.323z M35.484,106.452h87.097V100H35.484V106.452z"/>
	</g>
</g>
</svg>
