<?xml version="1.0" encoding="utf-8"?>
<!-- Generator: Adobe Illustrator 16.0.0, SVG Export Plug-In . SVG Version: 6.00 Build 0)  -->
<!DOCTYPE svg PUBLIC "-//W3C//DTD SVG 1.1//EN" "http://www.w3.org/Graphics/SVG/1.1/DTD/svg11.dtd">
<svg version="1.1" id="Layer_1" xmlns="http://www.w3.org/2000/svg" xmlns:xlink="http://www.w3.org/1999/xlink" x="0px" y="0px"
	 width="174.193px" height="200px" viewBox="0 0 174.193 200" enable-background="new 0 0 174.193 200" xml:space="preserve">
<g id="Rounded_Rectangle_3">
	<g>
		<path fill-rule="evenodd" clip-rule="evenodd" fill="#EBE2CE" d="M158.064,0h-6.451h-3.227h-6.451h-3.226h-6.452H41.936h-6.452
			h-3.226h-6.452h-3.226h-6.452C7.222,0,0,7.22,0,16.129v167.742C0,192.779,7.222,200,16.129,200h6.452h3.226h6.452h3.226h6.452
			h73.343l58.915-58.915V16.129C174.193,7.22,166.974,0,158.064,0z"/>
	</g>
</g>
<g id="Image">
	<g>
		<path fill-rule="evenodd" clip-rule="evenodd" fill="#ADC2A4" d="M70.968,16.129h-3.226H25.806h-3.226
			c-3.563,0-6.452,2.889-6.452,6.452v3.226v38.709v3.226c0,3.563,2.889,6.451,6.452,6.451h3.226h41.936h3.226
			c3.563,0,6.452-2.889,6.452-6.451v-3.226V25.807v-3.226C77.419,19.018,74.53,16.129,70.968,16.129z"/>
	</g>
</g>
<g id="Text_1_">
	<g>
		<path fill-rule="evenodd" clip-rule="evenodd" fill="#D2CAB8" d="M93.548,161.29H16.129v6.452h77.419V161.29z M80.645,129.032
			H16.129v6.452h64.516V129.032z M48.387,96.774H16.129v6.451h32.258V96.774z M48.387,145.161H16.129v6.452h32.258V145.161z
			 M145.161,112.903H16.129v6.451h129.032V112.903z M119.354,51.613H90.322v6.452h29.032V51.613z M151.613,35.484H90.322v6.452
			h61.291V35.484z M103.226,67.742H90.322v6.451h12.903V67.742z M106.451,74.193h35.484v-6.451h-35.484V74.193z M100,167.742h25.807
			v-6.452H100V167.742z M145.161,74.193h12.903v-6.451h-12.903V74.193z M54.839,103.226h103.226v-6.451H54.839V103.226z
			 M122.58,58.064h35.484v-6.452H122.58V58.064z M16.129,183.871h32.258v-6.452H16.129V183.871z M90.322,19.355v6.452h67.742v-6.452
			H90.322z M54.839,151.613h70.968v-6.452H54.839V151.613z M54.839,183.871h70.968v-6.452H54.839V183.871z M132.258,151.613h25.807
			v-6.452h-25.807V151.613z M87.097,135.484h70.968v-6.452H87.097V135.484z"/>
	</g>
</g>
<g id="Head">
	<g>
		<path fill-rule="evenodd" clip-rule="evenodd" fill="#FFFFFF" d="M46.522,55.494c6.069,0,10.988-5.891,10.988-13.155
			c0-7.265-4.919-13.155-10.988-13.155s-10.988,5.891-10.988,13.155C35.534,49.603,40.453,55.494,46.522,55.494z M65.575,67.792
			c0,0-2.016-6.25-4.94-9.577c-2.923-3.327-6.351,0-6.351,0s-1.512,3.125-6.552,3.226h-1.714c-5.041-0.101-6.552-3.226-6.552-3.226
			s-3.428-3.327-6.351,0s-4.939,9.577-4.939,9.577l-1.512,3.226c0,3.125,3.125,3.226,3.125,3.226h34.173
			c0,0,3.125-0.101,3.125-3.226L65.575,67.792z"/>
	</g>
</g>
<g id="Curve_shadow" opacity="0.149">
	<g>
		<polygon fill-rule="evenodd" clip-rule="evenodd" points="121.415,143.52 88.808,200 115.278,200 153.333,161.949 		"/>
	</g>
</g>
<g id="Curve_1_">
	<g>
		<path fill-rule="evenodd" clip-rule="evenodd" fill="#FFFBF2" d="M125.807,141.936c-5.343,0-9.678,4.331-9.678,9.678v3.223
			c0,0.003,0,0.003,0,0.003v44.311l57.214-57.214H125.807z"/>
	</g>
</g>
</svg>
