<?xml version="1.0" encoding="utf-8"?>
<!-- Generator: Adobe Illustrator 16.0.0, SVG Export Plug-In . SVG Version: 6.00 Build 0)  -->
<!DOCTYPE svg PUBLIC "-//W3C//DTD SVG 1.1//EN" "http://www.w3.org/Graphics/SVG/1.1/DTD/svg11.dtd">
<svg version="1.1" id="Layer_1" xmlns="http://www.w3.org/2000/svg" xmlns:xlink="http://www.w3.org/1999/xlink" x="0px" y="0px"
	 width="167.742px" height="200px" viewBox="0 0 167.742 200" enable-background="new 0 0 167.742 200" xml:space="preserve">
<g>
	<g id="Document_1_">
		<g>
			<path fill-rule="evenodd" clip-rule="evenodd" fill="#63D0A8" d="M117.809,0h-85.55H12.903C5.777,0,0,5.777,0,12.903v9.671
				c0,0.003,0,0.003,0,0.006v9.677v145.161v9.678c0,3.563,1.443,6.789,3.78,9.123c2.334,2.334,5.56,3.78,9.123,3.78h19.355h103.226
				h19.354c7.126,0,12.903-5.777,12.903-12.903v-9.678V49.934L117.809,0z"/>
		</g>
	</g>
	<g id="Shadow_4_" opacity="0.149">
		<g>
			<polygon fill-rule="evenodd" clip-rule="evenodd" points="140.427,22.619 117.884,45.161 167.742,95.02 167.742,49.934 			"/>
		</g>
	</g>
	<g id="Curve_1_">
		<g>
			<path fill-rule="evenodd" clip-rule="evenodd" fill="#CAFFEC" d="M117.809,0h-1.68v38.709c0,7.126,5.777,12.903,12.903,12.903
				h38.71v-1.679L117.809,0z"/>
		</g>
	</g>
	<g id="Text">
		<g>
			<path fill-rule="evenodd" clip-rule="evenodd" fill="#FFFFFF" d="M30.646,90.323h106.451c2.672,0,4.839-2.167,4.839-4.839
				s-2.167-4.839-4.839-4.839H30.646c-2.671,0-4.839,2.167-4.839,4.839S27.974,90.323,30.646,90.323z M137.097,109.678H30.646
				c-2.671,0-4.839,2.167-4.839,4.838c0,2.672,2.167,4.839,4.839,4.839h106.451c2.672,0,4.839-2.167,4.839-4.839
				C141.936,111.845,139.769,109.678,137.097,109.678z M137.097,138.71H30.646c-2.671,0-4.839,2.167-4.839,4.839
				c0,2.671,2.167,4.838,4.839,4.838h106.451c2.672,0,4.839-2.167,4.839-4.838C141.936,140.877,139.769,138.71,137.097,138.71z
				 M30.646,61.291h51.613c2.671,0,4.838-2.167,4.838-4.839s-2.167-4.839-4.838-4.839H30.646c-2.671,0-4.839,2.167-4.839,4.839
				S27.974,61.291,30.646,61.291z"/>
		</g>
	</g>
</g>
</svg>
