<?xml version="1.0" encoding="utf-8"?>
<!-- Generator: Adobe Illustrator 16.0.0, SVG Export Plug-In . SVG Version: 6.00 Build 0)  -->
<!DOCTYPE svg PUBLIC "-//W3C//DTD SVG 1.1//EN" "http://www.w3.org/Graphics/SVG/1.1/DTD/svg11.dtd">
<svg version="1.1" id="Layer_1" xmlns="http://www.w3.org/2000/svg" xmlns:xlink="http://www.w3.org/1999/xlink" x="0px" y="0px"
	 width="141.372px" height="200px" viewBox="0 0 141.372 200" enable-background="new 0 0 141.372 200" xml:space="preserve">
<g>
	<path fill-rule="evenodd" clip-rule="evenodd" fill="#ECECEC" d="M30.213,146.55c-3.592-19.958,12.853-42.857,35.546-45.531
		c24.277-2.86,42.911,14.439,45.55,35.344c3.128,24.76-15.217,42.792-35.46,45.754c-12.854,1.881-24.368-3.445-31.169-9.097
		C36.658,166.353,32.498,159.247,30.213,146.55L30.213,146.55z M121.647,15.304c1.069,1.931,0.569,55.376,0.613,65.226
		c0.039,8.764-0.531,7.211-15.183,7.211c-25.639,0-57.295-0.879-82.657-0.247c-1.984,0.049-4.288,0.477-4.167-0.715
		c-1.24-0.638-0.902,0.839-1.504-1.931c-0.011-0.052,0.012-2.266,0.016-2.507l0.01-62.009c-0.038-8.659,1.007-6.997,15.09-6.997
		c27.117,0,56.971-0.387,83.981-0.025C120.363,13.344,120.38,13.579,121.647,15.304L121.647,15.304z M2.424,196.569l1.797-1.849
		c2.848,2.317,2.862,2.488,7.17,2.474l113.653-0.01c16.235,0,13.462-0.705,13.462-27.727V14.947
		c0.001-4.826-0.001-5.289-0.989-9.432c0.64-0.993,0.983-1.331,1.466-2.246c-0.693-1.003-1.64-1.676-2.715-2.24
		c-2.9-1.524-11.057-0.904-15.266-0.904H14.551C10.008,0.125,2-0.761,0.344,7.028c-0.708,3.329-0.09,150.904-0.166,180.846
		C0.167,192.216,0.093,194.295,2.424,196.569z"/>
	<path fill-rule="evenodd" clip-rule="evenodd" fill="#B8E0ED" d="M44.106,74.759l68.389,0.199l-0.001,5.143l-68.387,0.411
		L44.106,74.759L44.106,74.759z M29.164,75.374l14.635-0.149v4.75l-14.635-0.022V75.374L29.164,75.374z M31.859,68.221
		l-0.006-40.014l36.188,3.516l0.208,1.636l-0.034,29.648l-0.13,1.676L31.859,68.221L31.859,68.221z M77.467,54.506h17.877
		l0.022,4.545H77.489L77.467,54.506L77.467,54.506z M77.467,45.973h28.713l0.043,4.58L77.467,50.39V45.973L77.467,45.973z
		 M77.467,37.319h32.306l-0.033,4.544H77.434L77.467,37.319L77.467,37.319z M20.253,86.779c-0.12,1.192,2.183,0.764,4.167,0.715
		c25.362-0.633,57.019,0.247,82.657,0.247c14.651,0,15.222,1.553,15.183-7.211c-0.044-9.849,0.456-63.295-0.613-65.226
		c-4.665-1.441,0.298-1.303-9.629-1.301H34.763c-14.184,0-15.188-1.462-15.142,6.781C19.688,32.829,18.792,81.865,20.253,86.779z"/>
	<path fill-rule="evenodd" clip-rule="evenodd" fill="#B8E0ED" d="M65.868,174.592h9.125l0.026,4.553h-9.157L65.868,174.592
		L65.868,174.592z M67.208,128.603c17.642-4.699,23.673,21.792,6.74,25.833C56.54,158.59,50.594,133.028,67.208,128.603
		L67.208,128.603z M98.202,139.109h9.131l-0.003,4.639h-9.128V139.109L98.202,139.109z M33.472,138.943l9.289-0.002l-0.106,4.822
		l-9.236,0.09L33.472,138.943L33.472,138.943z M65.757,105.832l9.236,0.04l0.026,4.552H65.89L65.757,105.832L65.757,105.832z
		 M30.213,146.55c2.284,12.696,6.445,19.803,14.467,26.47c6.801,5.651,18.315,10.978,31.169,9.097
		c20.243-2.962,38.588-20.994,35.46-45.754c-2.64-20.904-21.273-38.204-45.55-35.344C43.066,103.693,26.622,126.592,30.213,146.55z"
		/>
	<polygon fill-rule="evenodd" clip-rule="evenodd" fill="#E28875" points="68.086,64.683 68.216,63.007 68.25,33.359 68.042,31.723 
		31.854,28.207 31.859,68.221 	"/>
	<path fill-rule="evenodd" clip-rule="evenodd" fill="#ECECEC" d="M2.424,196.569c1.893,2.165,3.934,3.08,6.351,3.432h11.167
		h106.899h5.512c1.315-0.104,2.532-0.376,3.793-1.026c1.938-1,4.267-3.577,4.881-5.899c0.722-2.731,0.07-151.55,0.188-181.273
		c0.02-4.921,0.117-5.754-2.232-8.533c-0.482,0.916-0.826,1.253-1.466,2.246c0.988,4.143,0.99,4.606,0.989,9.432v154.51
		c0,27.021,2.773,27.727-13.462,27.727l-113.653,0.01c-4.309,0.015-4.322-0.156-7.17-2.474L2.424,196.569z"/>
	<path fill-rule="evenodd" clip-rule="evenodd" fill="#ECECEC" d="M67.208,128.603c-16.614,4.425-10.668,29.987,6.74,25.833
		C90.881,150.395,84.85,123.904,67.208,128.603z"/>
	<polygon fill-rule="evenodd" clip-rule="evenodd" fill="#ECECEC" points="44.107,80.512 112.494,80.102 112.495,74.958 
		44.106,74.759 	"/>
	<polygon fill-rule="evenodd" clip-rule="evenodd" fill="#4D4D4D" points="77.434,41.863 109.739,41.863 109.772,37.319 
		77.467,37.319 	"/>
	<path fill-rule="evenodd" clip-rule="evenodd" fill="#B1B1B1" d="M20.253,86.779c-1.461-4.914-0.565-53.95-0.632-65.996
		c-0.046-8.243,0.958-6.781,15.142-6.781h77.255c9.927-0.002,4.964-0.14,9.629,1.301c-1.268-1.725-1.284-1.96-3.801-1.994
		c-27.011-0.362-56.864,0.025-83.981,0.025c-14.083,0-15.127-1.663-15.09,6.997l-0.01,62.009c-0.004,0.241-0.027,2.455-0.016,2.507
		C19.351,87.618,19.014,86.141,20.253,86.779z"/>
	<polygon fill-rule="evenodd" clip-rule="evenodd" fill="#4D4D4D" points="77.467,50.39 106.223,50.552 106.18,45.973 
		77.467,45.973 	"/>
	<polygon fill-rule="evenodd" clip-rule="evenodd" fill="#4D4D4D" points="77.489,59.051 95.366,59.051 95.344,54.506 
		77.467,54.506 	"/>
	<polygon fill-rule="evenodd" clip-rule="evenodd" fill="#5BB7D4" points="29.164,79.952 43.799,79.974 43.799,75.225 
		29.164,75.374 	"/>
	<polygon fill-rule="evenodd" clip-rule="evenodd" fill="#ECECEC" points="33.418,143.853 42.654,143.763 42.761,138.941 
		33.472,138.943 	"/>
	<rect x="98.204" y="139.109" fill-rule="evenodd" clip-rule="evenodd" fill="#ECECEC" width="9.128" height="4.639"/>
	<polygon fill-rule="evenodd" clip-rule="evenodd" fill="#ECECEC" points="65.89,110.423 75.02,110.423 74.993,105.872 
		65.757,105.832 	"/>
	<polygon fill-rule="evenodd" clip-rule="evenodd" fill="#ECECEC" points="65.862,179.145 75.02,179.145 74.993,174.592 
		65.868,174.592 	"/>
</g>
</svg>
