<?xml version="1.0" encoding="utf-8"?>
<!-- Generator: Adobe Illustrator 16.0.0, SVG Export Plug-In . SVG Version: 6.00 Build 0)  -->
<!DOCTYPE svg PUBLIC "-//W3C//DTD SVG 1.1//EN" "http://www.w3.org/Graphics/SVG/1.1/DTD/svg11.dtd">
<svg version="1.1" id="Layer_1" xmlns="http://www.w3.org/2000/svg" xmlns:xlink="http://www.w3.org/1999/xlink" x="0px" y="0px"
	 width="167.742px" height="200px" viewBox="0 0 167.742 200" enable-background="new 0 0 167.742 200" xml:space="preserve">
<g>
	<g id="Document_2_">
		<g>
			<path fill-rule="evenodd" clip-rule="evenodd" fill="#EF4A4A" d="M117.809,0h-85.55H12.903C5.777,0,0,5.777,0,12.903v9.671
				c0,0.003,0,0.003,0,0.006v9.678v145.161v9.678c0,3.563,1.443,6.788,3.78,9.123c2.334,2.335,5.56,3.78,9.123,3.78h19.355h103.226
				h19.354c7.126,0,12.903-5.777,12.903-12.903v-9.678V49.934L117.809,0z"/>
		</g>
	</g>
	<g id="Shadow_6_" opacity="0.149">
		<g>
			<polygon fill-rule="evenodd" clip-rule="evenodd" points="140.427,22.619 117.884,45.161 167.742,95.02 167.742,49.934 			"/>
		</g>
	</g>
	<g id="Curve_2_">
		<g>
			<path fill-rule="evenodd" clip-rule="evenodd" fill="#F19A9A" d="M117.809,0h-1.68v38.709c0,7.126,5.777,12.903,12.903,12.903
				h38.71v-1.679L117.809,0z"/>
		</g>
	</g>
	<g id="PDF_icon_shadow" opacity="0.149">
		<g>
			<path fill-rule="evenodd" clip-rule="evenodd" d="M123.485,119.197c3.153,1.771,2.702,3.097,4.954,1.326
				c2.253-1.771-2.252-3.982-5.855-5.308c-3.604-1.33-20.728-3.425-20.728-3.425s1.079,1.446,2.541,2.927
				c2.716,1.364,5.138,2.256,6.924,3.131C114.986,117.786,120.822,117.704,123.485,119.197z M128.346,124.039
				c-2.253-1.326-10.721-2.63-16.126-5.727c-0.274-0.158-0.582-0.31-0.898-0.464c-0.68,0.01-1.311,0.022-1.804,0.022
				c-1.616,0-3.582-1.597-5.12-3.153c-6.29-3.156-14.134-8.902-19.213-23.277c0,0-3.153-11.504-3.604-15.486
				c-0.45-3.979,1.352-7.964,2.253-4.423c0,0,1.801,3.982,0.9,7.078l0.901,5.309c0,0,3.153-11.501,0.901-14.602
				c0,0-8.512-4.864-8.962,2.659c-0.451,7.52,0.473,18.511,1.374,20.281c0,0-8.94,26.938-20.656,43.309c0,0-4.955,7.076-7.208,7.964
				c0,0-5.409,2.212-1.805-2.655c0,0,8.562-9.734,10.364-12.387c0,0-15.675,8.85-16.576,11.057c-0.901,2.215-3.132,6.66,2.608,8.85
				c0,0,6.619,0.536,11.574-4.772c0,0,11.622-14.18,13.874-18.602c0,0,7.306-2.679,31.634-7.104c0,0,13.067,6.149,17.125,7.031
				c4.055,0.889,5.856,3.982,5.856,3.982S130.598,125.369,128.346,124.039z M73.375,119.313l9.536-18.699
				c0.9,4.426,9.674,12.973,9.674,12.973C88.981,114.028,73.375,119.313,73.375,119.313z"/>
		</g>
	</g>
	<g id="PDF_icon">
		<g>
			<path fill-rule="evenodd" clip-rule="evenodd" fill="#FFFFFF" d="M123.485,112.746c3.153,1.771,2.702,3.097,4.954,1.325
				c2.253-1.767-2.252-3.979-5.855-5.308c-3.604-1.329-20.728-3.424-20.728-3.424s1.079,1.445,2.541,2.927
				c2.716,1.363,5.138,2.256,6.924,3.131C114.986,111.335,120.822,111.252,123.485,112.746z M128.346,117.588
				c-2.253-1.327-10.721-2.63-16.126-5.727c-0.274-0.159-0.582-0.31-0.898-0.464c-0.68,0.01-1.311,0.021-1.804,0.021
				c-1.616,0-3.582-1.597-5.12-3.152c-6.29-3.156-14.134-8.903-19.213-23.277c0,0-3.153-11.504-3.604-15.486
				c-0.45-3.979,1.352-7.963,2.253-4.423c0,0,1.801,3.982,0.9,7.078l0.901,5.309c0,0,3.153-11.501,0.901-14.602
				c0,0-8.512-4.864-8.962,2.659c-0.451,7.52,0.473,18.51,1.374,20.281c0,0-8.94,26.938-20.656,43.309c0,0-4.955,7.075-7.208,7.963
				c0,0-5.409,2.212-1.805-2.654c0,0,8.562-9.734,10.364-12.388c0,0-15.675,8.85-16.576,11.058
				c-0.901,2.215-3.132,6.659,2.608,8.849c0,0,6.619,0.536,11.574-4.772c0,0,11.622-14.179,13.874-18.602
				c0,0,7.306-2.679,31.634-7.104c0,0,13.067,6.149,17.125,7.031c4.055,0.888,5.856,3.981,5.856,3.981
				S130.598,118.917,128.346,117.588z M73.375,112.862l9.536-18.7c0.9,4.426,9.674,12.972,9.674,12.972
				C88.981,107.576,73.375,112.862,73.375,112.862z"/>
		</g>
	</g>
</g>
</svg>
