<?xml version="1.0" encoding="utf-8"?>
<!-- Generator: Adobe Illustrator 16.0.0, SVG Export Plug-In . SVG Version: 6.00 Build 0)  -->
<!DOCTYPE svg PUBLIC "-//W3C//DTD SVG 1.1//EN" "http://www.w3.org/Graphics/SVG/1.1/DTD/svg11.dtd">
<svg version="1.1" id="Layer_1" xmlns="http://www.w3.org/2000/svg" xmlns:xlink="http://www.w3.org/1999/xlink" x="0px" y="0px"
	 width="179.71px" height="200px" viewBox="0 0 179.71 200" enable-background="new 0 0 179.71 200" xml:space="preserve">
<g>
	<g id="Rounded_Rectangle_1">
		<g>
			<path fill-rule="evenodd" clip-rule="evenodd" fill="#71C171" d="M165.217,20.29H14.493C6.488,20.29,0,26.778,0,34.783v150.724
				C0,193.513,6.488,200,14.493,200h150.725c8.005,0,14.493-6.487,14.493-14.493V34.783C179.71,26.778,173.222,20.29,165.217,20.29z
				"/>
		</g>
	</g>
	<g id="Paper_shadow" opacity="0.0902">
		<g>
			<path fill-rule="evenodd" clip-rule="evenodd" d="M142.029,173.913h-2.898h-2.898h-2.898H46.376h-2.898H40.58h-2.898
				c-6.403,0-11.594-5.191-11.594-11.595v5.798c0,6.402,5.191,11.594,11.594,11.594h2.898h2.898h2.898h86.957h2.898h2.898h2.898
				c6.403,0,11.595-5.191,11.595-11.594v-5.798C153.624,168.722,148.432,173.913,142.029,173.913z"/>
		</g>
	</g>
	<g id="Paper_1_">
		<g>
			<path fill-rule="evenodd" clip-rule="evenodd" fill="#FFFFFF" d="M142.029,31.884h-2.898h-2.898h-2.898H46.376h-2.898H40.58
				h-2.898c-6.403,0-11.594,5.191-11.594,11.594v5.797v107.246v5.797c0,6.403,5.191,11.595,11.594,11.595h2.898h2.898h2.898h86.957
				h2.898h2.898h2.898c6.403,0,11.595-5.191,11.595-11.595v-5.797V49.275v-5.797C153.624,37.075,148.432,31.884,142.029,31.884z"/>
		</g>
	</g>
	<g id="Hanger">
		<g>
			<path fill-rule="evenodd" clip-rule="evenodd" fill="#CACACA" d="M130.435,11.594h-23.188h-3.046
				C103.473,5.081,98.013,0,91.304,0c-6.708,0-12.169,5.081-12.896,11.594h-5.944H49.275c-3.202,0-5.797,2.596-5.797,5.797v5.797
				v5.797v5.797c0,3.201,2.596,5.797,5.797,5.797h23.188h34.783h23.188c3.201,0,5.797-2.596,5.797-5.797v-5.797v-5.797v-5.797
				C136.232,14.19,133.636,11.594,130.435,11.594z M91.304,20.29c-4.002,0-7.246-3.244-7.246-7.247s3.244-7.247,7.246-7.247
				c4.003,0,7.246,3.244,7.246,7.247S95.307,20.29,91.304,20.29z"/>
		</g>
	</g>
	<g id="Hanger_shadow">
		<g>
			<path fill-rule="evenodd" clip-rule="evenodd" fill="#B3B3B3" d="M130.435,34.783h-23.188H72.464H49.275
				c-3.202,0-5.797-2.596-5.797-5.797v5.797c0,3.201,2.596,5.797,5.797,5.797h23.188h34.783h23.188c3.201,0,5.797-2.596,5.797-5.797
				v-5.797C136.232,32.187,133.636,34.783,130.435,34.783z"/>
		</g>
	</g>
	<g id="Check_icon">
		<g>
			<path fill-rule="evenodd" clip-rule="evenodd" fill="#71C171" d="M60.23,61.959l-1.396-0.699c0,0-1.118-0.9-1.899,0.099
				l-6.796,9.197c-0.399,0.6-0.931,0.107-0.931,0.107l-2.995-2.454c0,0-0.895-0.499-1.452,0.6l-1.237,1.599
				c0,0-0.348,0.688,0.657,1.186l4.065,3.185c0,0,0.682,0.594,1.446,0.594c0.589-0.005,1.237-0.008,1.237-0.008
				s1.367-0.051,2.01-1.211l7.711-11.071C60.649,63.083,61.348,62.458,60.23,61.959z"/>
		</g>
	</g>
	<g id="List">
		<g>
			<path fill-rule="evenodd" clip-rule="evenodd" fill="#D5D5D5" d="M43.478,104.348H60.87V86.957H43.478V104.348z M72.464,98.551
				h63.768v-5.797H72.464V98.551z M43.478,130.435H60.87v-17.391H43.478V130.435z M72.464,124.638h63.768v-5.797H72.464V124.638z
				 M43.478,156.521H60.87v-17.391H43.478V156.521z M72.464,150.725h63.768v-5.797H72.464V150.725z M72.464,66.667v5.797h63.768
				v-5.797H72.464z"/>
		</g>
	</g>
</g>
</svg>
