<?xml version="1.0" encoding="utf-8"?>
<!-- Generator: Adobe Illustrator 16.0.0, SVG Export Plug-In . SVG Version: 6.00 Build 0)  -->
<!DOCTYPE svg PUBLIC "-//W3C//DTD SVG 1.1//EN" "http://www.w3.org/Graphics/SVG/1.1/DTD/svg11.dtd">
<svg version="1.1" id="Layer_1" xmlns="http://www.w3.org/2000/svg" xmlns:xlink="http://www.w3.org/1999/xlink" x="0px" y="0px"
	 width="144px" height="54px" viewBox="0 0 144 54" enable-background="new 0 0 144 54" xml:space="preserve">
<g>
	<rect fill="none" width="144" height="54"/>
	<path fill="none" d="M71.917,14.35c0.066-0.045,0.117-0.115,0.152-0.208c0.03-0.075,0.051-0.165,0.063-0.278
		c0.014-0.104,0.02-0.23,0.02-0.376c0-0.141-0.006-0.266-0.021-0.372c-0.02-0.115-0.043-0.208-0.082-0.283
		c-0.04-0.084-0.091-0.147-0.155-0.193c-0.069-0.049-0.144-0.072-0.227-0.072h-3.315l0.828-0.845
		c0.552-0.546,1.002-1.03,1.337-1.442c0.338-0.416,0.604-0.803,0.793-1.147c0.188-0.351,0.315-0.685,0.376-0.991
		c0.06-0.302,0.09-0.613,0.09-0.923c0-0.161-0.015-0.317-0.039-0.468c-0.031-0.195-0.08-0.381-0.149-0.558
		c-0.127-0.322-0.323-0.604-0.582-0.837c-0.257-0.233-0.582-0.416-0.965-0.543c-0.379-0.128-0.827-0.193-1.329-0.193
		c-0.317,0-0.629,0.031-0.923,0.09c-0.292,0.059-0.563,0.133-0.805,0.218c-0.242,0.086-0.452,0.178-0.62,0.271
		c-0.179,0.097-0.296,0.175-0.367,0.242c-0.072,0.069-0.123,0.128-0.154,0.183c-0.031,0.054-0.057,0.115-0.074,0.185
		c-0.017,0.062-0.029,0.134-0.036,0.219c-0.009,0.078-0.013,0.176-0.013,0.292v0.004c0,0.166,0.006,0.31,0.02,0.428
		c0.012,0.121,0.029,0.219,0.052,0.296c0.028,0.097,0.068,0.167,0.122,0.216c0.13,0.121,0.309,0.123,0.57-0.053
		c0.108-0.071,0.242-0.152,0.403-0.237c0.154-0.083,0.334-0.157,0.535-0.222h1.25c0.102,0.048,0.192,0.105,0.261,0.18
		c0.083,0.09,0.147,0.196,0.191,0.315c0.044,0.124,0.067,0.258,0.067,0.397c0,0.161-0.019,0.334-0.058,0.514
		c-0.038,0.178-0.111,0.378-0.216,0.595c-0.108,0.216-0.259,0.464-0.45,0.732c-0.194,0.269-0.453,0.572-0.769,0.901l-1.622,1.726
		c-0.1,0.104-0.186,0.203-0.25,0.294c-0.067,0.094-0.123,0.19-0.165,0.29c-0.044,0.102-0.076,0.217-0.092,0.344
		c-0.014,0.119-0.023,0.263-0.023,0.427c0,0.18,0.012,0.324,0.038,0.442c0.027,0.133,0.074,0.235,0.141,0.312
		c0.069,0.081,0.16,0.134,0.269,0.162c0.09,0.022,0.195,0.034,0.314,0.034h5.389C71.778,14.417,71.85,14.394,71.917,14.35"/>
	<path fill="none" d="M74.521,8.136c0.041-0.392,0.115-0.722,0.217-0.979c0.099-0.243,0.229-0.427,0.389-0.546
		c0.082-0.06,0.18-0.104,0.288-0.133c0.097-0.026,0.206-0.039,0.321-0.039c0.146,0,0.283,0.019,0.402,0.056
		c0.107,0.034,0.211,0.097,0.299,0.182c0.037,0.037,0.068,0.082,0.104,0.13c0.048,0.068,0.092,0.143,0.132,0.233
		c0.069,0.162,0.132,0.366,0.179,0.603c0.049,0.24,0.088,0.53,0.109,0.861c0.021,0.333,0.034,0.723,0.034,1.159
		c0,0.361-0.009,0.693-0.021,0.991c-0.021,0.295-0.052,0.561-0.098,0.793c-0.042,0.229-0.102,0.431-0.167,0.604
		c-0.063,0.163-0.146,0.3-0.239,0.405c-0.095,0.102-0.199,0.179-0.324,0.229c-0.123,0.052-0.271,0.08-0.438,0.08
		c-0.224,0-0.413-0.045-0.563-0.134c-0.146-0.086-0.271-0.242-0.371-0.467c-0.105-0.242-0.188-0.575-0.236-0.992
		c-0.055-0.426-0.08-0.973-0.08-1.625C74.455,9.01,74.479,8.537,74.521,8.136 M72.648,6.751c-0.103,0.26-0.184,0.541-0.247,0.843
		c-0.123,0.61-0.187,1.296-0.187,2.042c0,0.756,0.05,1.441,0.149,2.039c0.103,0.608,0.28,1.133,0.538,1.559
		c0.262,0.435,0.615,0.772,1.063,1.002c0.441,0.229,1.005,0.347,1.671,0.347c0.651,0,1.219-0.121,1.678-0.356
		c0.459-0.239,0.838-0.584,1.125-1.027c0.283-0.437,0.487-0.971,0.612-1.588c0.12-0.608,0.185-1.296,0.185-2.046
		c0-0.753-0.049-1.438-0.146-2.037c-0.1-0.61-0.279-1.135-0.533-1.561c-0.063-0.105-0.137-0.207-0.211-0.303
		c-0.231-0.291-0.521-0.524-0.854-0.699c-0.443-0.229-1.006-0.346-1.674-0.346c-0.172,0-0.338,0.01-0.5,0.026
		c-0.44,0.046-0.832,0.156-1.17,0.33c-0.235,0.122-0.453,0.274-0.646,0.453c-0.183,0.167-0.341,0.359-0.479,0.574
		C72.876,6.227,72.754,6.477,72.648,6.751"/>
	<path fill="none" d="M82.417,4.742c-0.069,0.008-0.126,0.02-0.172,0.034c-0.054,0.02-0.101,0.044-0.125,0.065l-2.017,1.296
		c-0.068,0.046-0.121,0.087-0.162,0.127c-0.051,0.049-0.09,0.112-0.117,0.188c-0.024,0.069-0.04,0.144-0.045,0.235
		c-0.006,0.077-0.006,0.174-0.006,0.293c0,0.193,0.006,0.338,0.021,0.449c0.021,0.136,0.063,0.234,0.127,0.3
		C80,7.807,80.102,7.84,80.23,7.818c0.086-0.015,0.188-0.05,0.317-0.114l1.271-0.698v5.633h-1.584c-0.078,0-0.153,0.024-0.215,0.071
		c-0.057,0.043-0.102,0.104-0.139,0.185c-0.033,0.073-0.058,0.163-0.07,0.272c-0.014,0.101-0.021,0.221-0.021,0.369
		c0,0.144,0.011,0.266,0.021,0.367c0.021,0.111,0.043,0.198,0.078,0.267c0.037,0.081,0.084,0.139,0.144,0.179
		c0.063,0.044,0.129,0.066,0.198,0.066h5.174c0.074,0,0.146-0.022,0.21-0.065c0.055-0.041,0.104-0.099,0.141-0.179
		c0.035-0.071,0.063-0.158,0.076-0.268c0.019-0.101,0.021-0.221,0.021-0.367c0-0.144-0.006-0.268-0.021-0.369
		c-0.015-0.109-0.037-0.198-0.071-0.272c-0.037-0.083-0.086-0.145-0.145-0.187c-0.063-0.045-0.139-0.069-0.215-0.069h-1.36V6.308
		V5.104c0-0.075-0.021-0.142-0.058-0.198c-0.041-0.063-0.108-0.102-0.205-0.131c-0.067-0.02-0.164-0.034-0.289-0.042
		c-0.062-0.004-0.131-0.007-0.211-0.008c-0.073-0.002-0.155-0.002-0.245-0.002c-0.152,0-0.276,0-0.371,0.003
		C82.561,4.728,82.479,4.733,82.417,4.742"/>
	<path fill="none" d="M89.861,10.66h-2.051l2.051-3.553V10.66z M92.686,10.66h-0.674V5.211c0-0.07-0.021-0.173-0.132-0.26
		c-0.03-0.026-0.071-0.05-0.118-0.069c-0.049-0.022-0.104-0.04-0.171-0.058c-0.112-0.028-0.258-0.048-0.442-0.061
		c-0.18-0.013-0.396-0.019-0.644-0.019c-0.229,0-0.427,0.005-0.588,0.016c-0.166,0.01-0.306,0.025-0.417,0.048
		c-0.122,0.026-0.215,0.058-0.287,0.096c-0.084,0.046-0.148,0.105-0.186,0.172l-1.043,1.829l-1.871,3.278
		c-0.051,0.097-0.094,0.189-0.127,0.276c-0.035,0.09-0.063,0.188-0.08,0.288c-0.02,0.096-0.032,0.203-0.039,0.325
		c-0.008,0.115-0.012,0.251-0.012,0.408c0,0.197,0.01,0.351,0.024,0.474c0.021,0.134,0.056,0.239,0.103,0.317
		c0.057,0.095,0.133,0.156,0.224,0.185c0.069,0.021,0.146,0.033,0.229,0.033h3.426v1.524c0,0.083,0.021,0.156,0.068,0.219
		c0.047,0.065,0.117,0.113,0.225,0.147c0.08,0.028,0.187,0.049,0.316,0.062c0.12,0.012,0.272,0.019,0.452,0.019
		c0.188,0,0.349-0.007,0.47-0.019c0.129-0.013,0.229-0.034,0.313-0.061c0.104-0.034,0.177-0.08,0.227-0.141
		c0.053-0.064,0.08-0.141,0.08-0.226v-1.524h0.674c0.107,0,0.26-0.052,0.354-0.292c0.062-0.146,0.087-0.348,0.087-0.616
		c0-0.299-0.029-0.513-0.102-0.653C92.925,10.705,92.786,10.66,92.686,10.66"/>
	<path fill="#FFFFFF" d="M60.618,15.072c-4.625,0-8.886,1.598-12.262,4.254v-2.764c2.718-0.625,4.753-3.045,4.753-5.933
		c0-3.306-2.753-6.04-6.135-6.04c-3.383,0-6.135,2.734-6.135,6.04c0,2.088,1.063,3.929,2.675,5.029
		c-3.343,0.831-6.369,2.505-8.804,4.77c-2.413-2.281-5.454-3.962-8.821-4.786c1.601-1.101,2.651-2.936,2.651-5.012
		c0-3.306-2.752-6.04-6.135-6.04c-3.383,0-6.135,2.734-6.135,6.04c0,2.923,2.083,5.371,4.851,5.958v2.778
		c-3.382-2.682-7.664-4.293-12.312-4.293H8.752V26.98h0.059c4.071,0,7.396,3.304,7.396,7.348v3.02
		c0,9.864,5.622,11.174,12.371,11.223l0,0h12.326v-0.002c6.727-0.053,12.32-1.381,12.32-11.221v-3.02
		c0-4.044,3.325-7.348,7.395-7.348h0.06V15.072H60.618z"/>
	<g>
		<defs>
			<rect id="SVGID_1_" x="7.736" y="3.58" width="127.999" height="46"/>
		</defs>
		<clipPath id="SVGID_2_">
			<use xlink:href="#SVGID_1_"  overflow="visible"/>
		</clipPath>
		<path clip-path="url(#SVGID_2_)" fill="none" stroke="#3A539B" stroke-width="1.2795" stroke-miterlimit="10" d="M60.618,15.072
			c-4.625,0-8.886,1.598-12.262,4.254v-2.764c2.718-0.625,4.753-3.045,4.753-5.933c0-3.306-2.753-6.04-6.135-6.04
			c-3.383,0-6.135,2.734-6.135,6.04c0,2.088,1.063,3.929,2.675,5.029c-3.343,0.831-6.369,2.505-8.804,4.77
			c-2.413-2.281-5.454-3.962-8.821-4.786c1.601-1.101,2.651-2.936,2.651-5.012c0-3.306-2.752-6.04-6.135-6.04
			c-3.383,0-6.135,2.734-6.135,6.04c0,2.923,2.083,5.371,4.851,5.958v2.778c-3.382-2.682-7.664-4.293-12.312-4.293H8.752V26.98
			h0.059c4.071,0,7.396,3.304,7.396,7.348v3.02c0,9.864,5.622,11.174,12.371,11.223l0,0h12.326v-0.002
			c6.727-0.053,12.32-1.381,12.32-11.221v-3.02c0-4.044,3.325-7.348,7.395-7.348h0.06V15.072H60.618L60.618,15.072z M34.655,16.725
			c3.382,0,6.132-2.734,6.132-6.095c0-3.306-2.75-6.04-6.132-6.04c-3.383,0-6.078,2.734-6.078,6.04
			C28.577,13.991,31.271,16.725,34.655,16.725L34.655,16.725z"/>
	</g>
	<path fill="#D91E18" d="M40.815,34.67v13.898c6.754-0.047,12.384-1.354,12.384-11.227v-3.017c0-4.046,3.325-7.349,7.396-7.349
		h0.058V15.073h-0.058C49.702,15.073,40.815,23.903,40.815,34.67 M53.084,10.631c0-3.306-2.751-6.04-6.133-6.04
		c-3.384,0-6.135,2.734-6.135,6.04c0,3.361,2.751,6.095,6.135,6.095C50.333,16.726,53.084,13.992,53.084,10.631"/>
	<path fill="#3A539B" d="M21.156,15.073c5.217,0,10.033,2.05,13.531,5.354c3.553-3.305,8.37-5.354,13.586-5.354h0.058V26.98h-0.058
		c-4.07,0-7.395,3.304-7.395,7.348V48.57H28.551V34.328c0-4.044-3.325-7.348-7.395-7.348h-0.059V15.073H21.156z M34.629,16.726
		c3.382,0,6.134-2.734,6.134-6.095c0-3.306-2.752-6.04-6.134-6.04c-3.383,0-6.079,2.734-6.079,6.04
		C28.551,13.992,31.246,16.726,34.629,16.726"/>
	<path fill="#3A539B" d="M85.542,43.279c-0.123-0.295-0.293-0.521-0.505-0.678c-0.225-0.162-0.479-0.242-0.75-0.242H73.234v-7.906
		h9.181c0.267,0,0.513-0.073,0.733-0.219c0.217-0.146,0.391-0.365,0.52-0.658c0.105-0.238,0.18-0.536,0.229-0.912
		c0.047-0.336,0.07-0.762,0.07-1.26c0-0.485-0.023-0.904-0.07-1.254c-0.049-0.379-0.121-0.686-0.229-0.924
		c-0.125-0.283-0.291-0.504-0.499-0.654c-0.226-0.161-0.483-0.248-0.754-0.248h-9.181v-6.688h10.953c0.275,0,0.541-0.09,0.756-0.259
		c0.193-0.149,0.354-0.374,0.477-0.664c0.104-0.248,0.18-0.551,0.227-0.928c0.043-0.347,0.065-0.767,0.065-1.25
		c0-0.517-0.022-0.954-0.065-1.301c-0.047-0.374-0.119-0.678-0.225-0.935c-0.126-0.311-0.291-0.535-0.5-0.686
		c-0.217-0.152-0.463-0.231-0.732-0.231H68.069c-0.687,0-1.281,0.21-1.759,0.623c-0.506,0.436-0.764,1.111-0.764,2.009V45.98
		c0,0.896,0.258,1.567,0.764,2.004c0.478,0.414,1.072,0.625,1.759,0.625h16.218c0.273,0,0.525-0.086,0.752-0.246
		c0.21-0.152,0.38-0.381,0.505-0.678c0.103-0.246,0.177-0.553,0.226-0.931c0.047-0.349,0.066-0.774,0.066-1.271
		c0-0.502-0.02-0.932-0.066-1.276C85.721,43.832,85.646,43.527,85.542,43.279"/>
	<path fill="#3A539B" d="M107.35,15.384H92.002c-0.73,0-1.338,0.226-1.807,0.667c-0.473,0.451-0.715,1.111-0.715,1.965v29.177
		c0,0.304,0.104,0.584,0.304,0.813c0.179,0.203,0.438,0.359,0.789,0.477c0.292,0.1,0.663,0.166,1.137,0.218
		c0.447,0.042,0.996,0.063,1.642,0.063c0.664,0,1.217-0.021,1.655-0.063c0.466-0.052,0.832-0.118,1.122-0.218
		c0.352-0.112,0.609-0.271,0.789-0.476c0.198-0.229,0.303-0.51,0.303-0.813V21.886h10.129c0.289,0,0.553-0.084,0.772-0.25
		c0.215-0.152,0.387-0.386,0.51-0.696c0.103-0.254,0.177-0.568,0.226-0.959c0.043-0.364,0.063-0.809,0.063-1.322
		c0-1.058-0.095-1.809-0.29-2.297C108.288,15.511,107.68,15.384,107.35,15.384"/>
	<path fill="#3A539B" d="M134.693,24.468c-0.692-2.107-1.702-3.9-3-5.326c-1.305-1.433-2.905-2.521-4.772-3.237
		c-1.846-0.707-3.938-1.069-6.207-1.069c-1.146,0-2.215,0.094-3.188,0.271c-0.957,0.177-1.828,0.393-2.59,0.641
		c-0.772,0.249-1.429,0.523-1.938,0.814c-0.535,0.301-0.875,0.529-1.07,0.715c-0.21,0.192-0.364,0.407-0.479,0.629
		c-0.095,0.199-0.164,0.424-0.228,0.688c-0.057,0.253-0.099,0.56-0.125,0.94c-0.022,0.359-0.039,0.796-0.039,1.306
		c0,0.477,0.021,0.868,0.065,1.194c0.049,0.342,0.11,0.617,0.194,0.831c0.104,0.272,0.238,0.473,0.41,0.613
		c0.192,0.157,0.42,0.24,0.648,0.24c0.313,0,0.673-0.149,1.171-0.483c0.361-0.241,0.843-0.507,1.417-0.79
		c0.577-0.283,1.271-0.546,2.069-0.784c0.772-0.231,1.684-0.347,2.7-0.347c1.109,0,2.138,0.167,3.05,0.496
		c0.896,0.325,1.672,0.818,2.305,1.463c0.646,0.657,1.179,1.476,1.576,2.437c0.342,0.814,0.58,1.75,0.717,2.79h-12.687
		c-0.295,0-0.563,0.089-0.775,0.259c-0.189,0.146-0.354,0.364-0.477,0.642c-0.104,0.244-0.182,0.553-0.229,0.939
		c-0.045,0.352-0.063,0.773-0.063,1.26c0,0.488,0.02,0.907,0.063,1.252c0.051,0.377,0.124,0.685,0.229,0.932
		c0.125,0.293,0.281,0.514,0.475,0.658c0.221,0.17,0.486,0.264,0.782,0.264h12.786c-0.096,1.215-0.303,2.3-0.633,3.229
		c-0.369,1.063-0.879,1.955-1.521,2.654c-0.623,0.691-1.379,1.212-2.233,1.549c-0.877,0.344-1.884,0.521-2.984,0.521
		c-1.256,0-2.325-0.118-3.176-0.354c-0.867-0.236-1.592-0.496-2.155-0.777c-0.564-0.28-1.015-0.543-1.337-0.776
		c-0.459-0.338-0.832-0.496-1.163-0.496c-0.306,0-0.861,0.118-1.183,0.899c-0.185,0.438-0.271,1.084-0.271,1.978
		c0,0.521,0.014,0.966,0.039,1.318c0.025,0.358,0.066,0.676,0.124,0.942c0.06,0.291,0.135,0.523,0.231,0.721
		c0.106,0.216,0.293,0.438,0.577,0.718c0.278,0.269,0.732,0.549,1.386,0.856c0.619,0.295,1.33,0.555,2.116,0.769
		c0.779,0.213,1.615,0.385,2.489,0.513c0.879,0.125,1.752,0.19,2.593,0.19c2.437,0,4.623-0.356,6.505-1.063
		c1.896-0.719,3.525-1.813,4.842-3.267c1.307-1.444,2.313-3.28,2.987-5.457c0.673-2.151,1.013-4.718,1.013-7.618
		C135.734,29.008,135.389,26.559,134.693,24.468"/>
</g>
</svg>
