<?xml version="1.0" encoding="utf-8"?>
<!-- Generator: Adobe Illustrator 16.0.0, SVG Export Plug-In . SVG Version: 6.00 Build 0)  -->
<!DOCTYPE svg PUBLIC "-//W3C//DTD SVG 1.1//EN" "http://www.w3.org/Graphics/SVG/1.1/DTD/svg11.dtd">
<svg version="1.1" id="Layer_1" xmlns="http://www.w3.org/2000/svg" xmlns:xlink="http://www.w3.org/1999/xlink" x="0px" y="0px"
	 width="256px" height="256px" viewBox="0 0 256 256" enable-background="new 0 0 256 256" xml:space="preserve">
<g>
	<path fill-rule="evenodd" clip-rule="evenodd" fill="#DD6C8B" d="M86.835,93.664c6.601-9.356,6.564-13.387,20.11-22.408
		c26.874-17.898,73.213-4.243,78.145,39.284c41.753,6.24,48.408,67.391,6.931,82.732c-12.285,4.545-78.181,2.647-95.876,2.647
		c-20.642,0-42.791,3.21-55.373-18.836c-11.283-19.768-0.69-44.274,13.691-50.407C50.369,104.693,64.108,88.633,86.835,93.664
		L86.835,93.664z M0,121.791c0,29.456,1.031,34.783,11.735,61.167c7.452,18.373,26.003,37.961,41.701,49.751
		C70.708,245.684,98.191,256,121.629,256c29.489,0,34.825-1.027,61.243-11.72c5.15-2.085,14.348-7.601,19.033-11.068
		c11.64-8.604,22.117-19.085,30.775-30.582c12.992-17.25,23.319-44.703,23.319-68.11c0-29.457-1.033-34.783-11.733-61.171
		c-5.211-12.84-16.043-26.158-25.624-35.729c-9.099-9.085-22.683-20.192-34.937-25.27C144.022-4.092,112.82-4.035,73.128,12.028
		c-5.15,2.085-14.347,7.599-19.036,11.067c-15.479,11.45-34.596,31.509-42.035,49.418C5.953,87.212,0,101.69,0,121.791L0,121.791z"
		/>
	<path fill-rule="evenodd" clip-rule="evenodd" fill="#DD6C8B" d="M92.398,106.341c-8.926-0.76-15.633-5.13-23.026,1.425
		c-8.52,7.554-2.044,13.688-2.379,23.28c-6.062,6.388-10.948,6.178-15.886,14.055c-4.335,6.918-4.855,16.348-1.368,24.2
		c7.882,17.755,25.27,15.098,46.405,15.098c20.465-0.003,40.929-0.003,61.396,0c24.258,0,36.011,0.646,46.326-15.175
		c10.426-15.993,2.255-35.035-9.354-42.698c-5.729-3.78-18.469-4.679-20.157-9.872c-3.519-10.785,0.102-12.495-7.397-23.93
		c-3.496-5.329-9.788-10.879-16.225-13.864c-15.76-7.309-33.429-3.599-45.835,8.857C98.819,93.823,97.572,101.068,92.398,106.341
		L92.398,106.341z"/>
	<path fill-rule="evenodd" clip-rule="evenodd" fill="#FEFEFE" d="M92.398,106.341c5.174-5.272,6.421-12.518,12.5-18.623
		c12.406-12.456,30.075-16.166,45.835-8.857c6.437,2.985,12.729,8.535,16.225,13.864c7.499,11.435,3.879,13.145,7.397,23.93
		c1.688,5.192,14.429,6.091,20.157,9.872c11.608,7.663,19.779,26.705,9.354,42.698c-10.315,15.82-22.068,15.175-46.326,15.175
		c-20.467-0.003-40.931-0.003-61.396,0c-21.136,0-38.523,2.657-46.405-15.098c-3.487-7.853-2.967-17.282,1.368-24.2
		c4.938-7.877,9.824-7.667,15.886-14.055c0.335-9.593-6.14-15.727,2.379-23.28C76.765,101.211,83.472,105.581,92.398,106.341
		L92.398,106.341z M86.835,93.664c-22.727-5.03-36.466,11.03-32.373,33.013c-14.382,6.133-24.975,30.64-13.691,50.407
		c12.582,22.046,34.731,18.836,55.373,18.836c17.695,0,83.591,1.897,95.876-2.647c41.478-15.341,34.822-76.492-6.931-82.732
		c-4.932-43.527-51.271-57.182-78.145-39.284C93.4,80.277,93.437,84.307,86.835,93.664L86.835,93.664z"/>
</g>
</svg>
